<svg xmlns="http://www.w3.org/2000/svg" viewBox="0 0 447.3 46.9" fill="none" stroke="currentColor" stroke-linecap="round" stroke-linejoin="round" role="img">
<circle cx="18.5" cy="23.8" r="0.77" fill="currentColor" stroke="none"/>
<path d="M 18.5 23.8 L 18.1 23.4" stroke-width="2.00"/>
<path d="M 18.1 23.4 L 17.3 23.0" stroke-width="2.40"/>
<path d="M 17.3 23.0 L 16.1 22.6" stroke-width="2.60"/>
<path d="M 16.1 22.6 L 14.7 22.4 L 13.0 22.7" stroke-width="2.40"/>
<path d="M 13.0 22.7 L 11.2 23.6" stroke-width="2.20"/>
<path d="M 11.2 23.6 L 9.4 25.0" stroke-width="2.00"/>
<path d="M 9.4 25.0 L 7.8 27.0" stroke-width="1.80"/>
<path d="M 7.8 27.0 L 6.6 29.3 L 6.0 31.6 L 6.0 33.7 L 6.6 35.2" stroke-width="1.60"/>
<path d="M 6.6 35.2 L 7.7 36.1 L 9.2 36.2" stroke-width="1.80"/>
<path d="M 9.2 36.2 L 10.9 35.6" stroke-width="2.00"/>
<path d="M 10.9 35.6 L 12.7 34.2" stroke-width="1.80"/>
<path d="M 12.7 34.2 L 14.5 32.3 L 16.1 30.0" stroke-width="1.60"/>
<path d="M 16.1 30.0 L 17.4 27.7 L 18.3 25.7" stroke-width="1.40"/>
<path d="M 18.3 25.7 L 18.9 24.2" stroke-width="1.60"/>
<path d="M 18.9 24.2 L 19.1 23.2" stroke-width="1.80"/>
<path d="M 19.1 23.2 L 19.1 23.0" stroke-width="2.20"/>
<path d="M 19.1 23.0 L 18.9 23.4" stroke-width="2.60"/>
<path d="M 18.9 23.4 L 18.7 24.6" stroke-width="2.80"/>
<path d="M 18.7 24.6 L 18.5 26.5" stroke-width="2.40"/>
<path d="M 18.5 26.5 L 18.3 28.9" stroke-width="2.00"/>
<path d="M 18.3 28.9 L 18.3 31.6" stroke-width="1.80"/>
<path d="M 18.3 31.6 L 18.5 34.1 L 19.0 36.2 L 19.8 37.8" stroke-width="1.60"/>
<path d="M 19.8 37.8 L 20.9 38.6" stroke-width="1.80"/>
<path d="M 20.9 38.6 L 22.1 38.7 L 23.2 38.3" stroke-width="2.00"/>
<path d="M 23.2 38.3 L 24.0 37.9" stroke-width="1.80"/>
<circle cx="40.2" cy="28.6" r="0.77" fill="currentColor" stroke="none"/>
<path d="M 40.2 28.6 L 40.6 28.2" stroke-width="1.80"/>
<path d="M 40.6 28.2 L 41.5 27.4 L 42.9 26.1" stroke-width="2.40"/>
<path d="M 42.9 26.1 L 44.5 24.4" stroke-width="2.00"/>
<path d="M 44.5 24.4 L 46.2 22.2" stroke-width="1.80"/>
<path d="M 46.2 22.2 L 47.9 19.8" stroke-width="1.60"/>
<path d="M 47.9 19.8 L 49.4 17.2 L 50.6 14.6 L 51.4 12.2 L 51.9 10.2" stroke-width="1.40"/>
<path d="M 51.9 10.2 L 51.8 8.6" stroke-width="1.60"/>
<path d="M 51.8 8.6 L 51.2 7.7" stroke-width="1.80"/>
<path d="M 51.2 7.7 L 50.2 7.6" stroke-width="2.00"/>
<path d="M 50.2 7.6 L 48.9 8.3" stroke-width="2.20"/>
<path d="M 48.9 8.3 L 47.3 9.9" stroke-width="2.00"/>
<path d="M 47.3 9.9 L 45.6 12.4" stroke-width="1.80"/>
<path d="M 45.6 12.4 L 44.0 15.5 L 42.7 19.0" stroke-width="1.40"/>
<path d="M 42.7 19.0 L 41.9 22.5 L 41.6 25.8 L 42.0 28.5 L 43.0 30.3" stroke-width="1.20"/>
<path d="M 43.0 30.3 L 44.6 31.2" stroke-width="1.40"/>
<path d="M 44.6 31.2 L 46.6 31.0 L 48.9 29.9" stroke-width="1.60"/>
<path d="M 48.9 29.9 L 51.4 28.1 L 53.7 25.8" stroke-width="1.40"/>
<path d="M 53.7 25.8 L 55.9 23.5 L 57.7 21.4" stroke-width="1.20"/>
<path d="M 57.7 21.4 L 59.0 19.9" stroke-width="1.40"/>
<path d="M 59.0 19.9 L 59.9 18.9" stroke-width="1.60"/>
<path d="M 59.9 18.9 L 60.2 18.8" stroke-width="1.80"/>
<path d="M 60.2 18.8 L 60.1 19.4" stroke-width="2.20"/>
<path d="M 60.1 19.4 L 59.7 20.8" stroke-width="2.40"/>
<path d="M 59.7 20.8 L 59.0 22.8" stroke-width="2.20"/>
<path d="M 59.0 22.8 L 58.3 25.1" stroke-width="2.00"/>
<path d="M 58.3 25.1 L 57.7 27.4" stroke-width="1.80"/>
<path d="M 57.7 27.4 L 57.3 29.4" stroke-width="1.60"/>
<path d="M 57.3 29.4 L 57.2 30.9" stroke-width="1.80"/>
<path d="M 57.2 30.9 L 57.4 31.5" stroke-width="2.00"/>
<path d="M 57.4 31.5 L 58.0 31.3 L 58.7 30.2" stroke-width="2.40"/>
<path d="M 58.7 30.2 L 59.5 28.8" stroke-width="2.20"/>
<path d="M 59.5 28.8 L 60.0 27.8" stroke-width="1.80"/>
<circle cx="62.6" cy="12.0" r="0.77" fill="currentColor" stroke="none"/>
<path d="M 62.6 12.0 L 62.5 11.9" stroke-width="2.00"/>
<path d="M 62.5 11.9 L 62.6 12.0" stroke-width="2.80"/>
<path d="M 62.6 12.0 L 62.7 12.1" stroke-width="3.00"/>
<path d="M 62.7 12.1 L 62.9 12.3" stroke-width="2.60"/>
<circle cx="66.6" cy="21.5" r="0.77" fill="currentColor" stroke="none"/>
<path d="M 66.6 21.5 L 66.7 21.6" stroke-width="2.00"/>
<path d="M 66.7 21.6 L 66.9 22.0" stroke-width="2.80"/>
<path d="M 66.9 22.0 L 67.0 22.8 L 67.1 24.0" stroke-width="3.00"/>
<path d="M 67.1 24.0 L 66.9 25.5" stroke-width="2.60"/>
<path d="M 66.9 25.5 L 66.6 27.1" stroke-width="2.40"/>
<path d="M 66.6 27.1 L 66.3 28.8 L 66.0 30.2 L 65.8 31.2" stroke-width="2.20"/>
<path d="M 65.8 31.2 L 65.8 31.6" stroke-width="2.60"/>
<path d="M 65.8 31.6 L 65.9 31.4" stroke-width="3.00"/>
<path d="M 65.9 31.4 L 66.3 30.6" stroke-width="3.20"/>
<path d="M 66.3 30.6 L 67.0 29.1" stroke-width="2.80"/>
<path d="M 67.0 29.1 L 67.9 27.3" stroke-width="2.40"/>
<path d="M 67.9 27.3 L 69.2 25.2" stroke-width="2.00"/>
<path d="M 69.2 25.2 L 70.6 23.3" stroke-width="1.80"/>
<path d="M 70.6 23.3 L 72.0 21.6" stroke-width="1.60"/>
<path d="M 72.0 21.6 L 73.4 20.4 L 74.7 19.8" stroke-width="1.80"/>
<path d="M 74.7 19.8 L 75.7 19.6" stroke-width="2.00"/>
<path d="M 75.7 19.6 L 76.6 20.1" stroke-width="2.20"/>
<path d="M 76.6 20.1 L 77.1 21.1 L 77.4 22.6" stroke-width="2.40"/>
<path d="M 77.4 22.6 L 77.4 24.4" stroke-width="2.20"/>
<path d="M 77.4 24.4 L 77.2 26.3 L 76.9 28.2 L 76.8 29.8 L 76.8 31.0" stroke-width="2.00"/>
<path d="M 76.8 31.0 L 77.1 31.6" stroke-width="2.20"/>
<path d="M 77.1 31.6 L 77.7 31.6 L 78.8 31.0" stroke-width="2.60"/>
<path d="M 78.8 31.0 L 80.2 29.8" stroke-width="2.40"/>
<path d="M 80.2 29.8 L 81.9 28.1" stroke-width="2.00"/>
<path d="M 81.9 28.1 L 83.7 26.1" stroke-width="1.80"/>
<path d="M 83.7 26.1 L 85.5 24.0 L 87.0 22.0 L 88.2 20.2 L 89.0 18.8" stroke-width="1.60"/>
<path d="M 89.0 18.8 L 89.3 17.8" stroke-width="1.80"/>
<path d="M 89.3 17.8 L 89.0 17.5" stroke-width="2.20"/>
<path d="M 89.0 17.5 L 88.4 17.7 L 87.4 18.6" stroke-width="2.60"/>
<path d="M 87.4 18.6 L 86.3 20.0" stroke-width="2.40"/>
<path d="M 86.3 20.0 L 85.2 21.9" stroke-width="2.20"/>
<path d="M 85.2 21.9 L 84.4 23.9" stroke-width="2.00"/>
<path d="M 84.4 23.9 L 84.1 26.0 L 84.2 27.8 L 85.1 29.2 L 86.6 30.0 L 88.8 30.3" stroke-width="1.80"/>
<path d="M 88.8 30.3 L 90.8 30.2" stroke-width="1.60"/>
<path d="M 90.8 30.2 L 92.3 30.0" stroke-width="1.40"/>
<circle cx="117.4" cy="23.0" r="0.77" fill="currentColor" stroke="none"/>
<path d="M 117.4 23.0 L 117.1 22.8" stroke-width="2.00"/>
<path d="M 117.1 22.8 L 116.6 22.6" stroke-width="2.60"/>
<path d="M 116.6 22.6 L 115.8 22.5 L 114.9 22.6 L 113.9 22.9" stroke-width="3.00"/>
<path d="M 113.9 22.9 L 112.9 23.7" stroke-width="2.80"/>
<path d="M 112.9 23.7 L 111.8 24.9" stroke-width="2.40"/>
<path d="M 111.8 24.9 L 110.8 26.5" stroke-width="2.20"/>
<path d="M 110.8 26.5 L 110.2 28.1 L 110.0 29.7" stroke-width="2.00"/>
<path d="M 110.0 29.7 L 110.4 30.8 L 111.3 31.5 L 112.7 31.4 L 114.5 30.7" stroke-width="2.20"/>
<path d="M 114.5 30.7 L 116.4 29.6" stroke-width="2.00"/>
<path d="M 116.4 29.6 L 118.2 28.0" stroke-width="1.80"/>
<path d="M 118.2 28.0 L 119.7 26.2 L 120.8 24.5" stroke-width="1.60"/>
<path d="M 120.8 24.5 L 121.3 23.0 L 121.3 21.8" stroke-width="1.80"/>
<path d="M 121.3 21.8 L 120.7 21.0" stroke-width="2.00"/>
<path d="M 120.7 21.0 L 119.8 20.8" stroke-width="2.20"/>
<path d="M 119.8 20.8 L 118.7 21.1 L 117.7 21.9 L 116.9 22.8 L 116.7 23.8" stroke-width="2.40"/>
<path d="M 116.7 23.8 L 117.1 24.5 L 118.2 24.8" stroke-width="2.60"/>
<path d="M 118.2 24.8 L 120.0 24.5" stroke-width="2.40"/>
<path d="M 120.0 24.5 L 122.3 23.6" stroke-width="2.00"/>
<path d="M 122.3 23.6 L 125.0 22.0" stroke-width="1.80"/>
<path d="M 125.0 22.0 L 127.9 20.0" stroke-width="1.40"/>
<path d="M 127.9 20.0 L 130.8 17.6 L 133.6 15.0 L 136.1 12.3 L 138.1 9.9 L 139.4 7.9" stroke-width="1.20"/>
<path d="M 139.4 7.9 L 140.1 6.6" stroke-width="1.40"/>
<path d="M 140.1 6.6 L 140.1 6.0" stroke-width="1.60"/>
<path d="M 140.1 6.0 L 139.4 6.4 L 138.1 7.8" stroke-width="2.00"/>
<path d="M 138.1 7.8 L 136.4 10.2" stroke-width="1.80"/>
<path d="M 136.4 10.2 L 134.2 13.6" stroke-width="1.40"/>
<path d="M 134.2 13.6 L 132.1 17.8 L 130.0 22.4 L 128.2 27.0 L 126.8 31.2 L 125.9 34.7 L 125.3 37.1 L 125.1 38.5" stroke-width="1.20"/>
<path d="M 125.1 38.5 L 125.1 38.9" stroke-width="1.40"/>
<path d="M 125.1 38.9 L 125.1 38.9" stroke-width="1.60"/>
<circle cx="121.8" cy="25.6" r="0.77" fill="currentColor" stroke="none"/>
<path d="M 121.8 25.6 L 121.9 25.6" stroke-width="2.00"/>
<path d="M 121.9 25.6 L 122.3 25.6" stroke-width="2.80"/>
<path d="M 122.3 25.6 L 123.3 25.8" stroke-width="3.00"/>
<path d="M 123.3 25.8 L 125.0 25.9" stroke-width="2.80"/>
<path d="M 125.0 25.9 L 127.5 25.9" stroke-width="2.20"/>
<path d="M 127.5 25.9 L 130.6 25.8" stroke-width="1.80"/>
<path d="M 130.6 25.8 L 133.4 25.5" stroke-width="1.40"/>
<path d="M 133.4 25.5 L 135.2 25.3" stroke-width="1.20"/>
<circle cx="156.6" cy="23.0" r="0.77" fill="currentColor" stroke="none"/>
<path d="M 156.6 23.0 L 156.4 23.8" stroke-width="1.80"/>
<path d="M 156.4 23.8 L 156.0 25.0 L 155.6 26.5" stroke-width="2.40"/>
<path d="M 155.6 26.5 L 155.1 28.2 L 154.7 29.6 L 154.5 30.7 L 154.5 31.4 L 154.5 31.8" stroke-width="2.20"/>
<circle cx="158.2" cy="16.3" r="0.77" fill="currentColor" stroke="none"/>
<path d="M 158.2 16.3 L 158.2 15.9" stroke-width="2.00"/>
<path d="M 158.2 15.9 L 158.2 15.5" stroke-width="2.80"/>
<path d="M 158.2 15.5 L 158.2 15.2 L 158.2 15.1 L 158.3 15.2 L 158.5 15.5" stroke-width="3.20"/>
<path d="M 158.5 15.5 L 158.7 15.9" stroke-width="3.00"/>
<path d="M 158.7 15.9 L 158.9 16.1" stroke-width="2.60"/>
<circle cx="161.4" cy="21.2" r="0.77" fill="currentColor" stroke="none"/>
<path d="M 161.4 21.2 L 161.3 21.7" stroke-width="2.00"/>
<path d="M 161.3 21.7 L 161.2 22.7" stroke-width="2.40"/>
<path d="M 161.2 22.7 L 160.9 24.1" stroke-width="2.60"/>
<path d="M 160.9 24.1 L 160.5 25.8" stroke-width="2.40"/>
<path d="M 160.5 25.8 L 160.1 27.5" stroke-width="2.20"/>
<path d="M 160.1 27.5 L 159.8 29.0" stroke-width="2.00"/>
<path d="M 159.8 29.0 L 159.5 30.1" stroke-width="2.20"/>
<path d="M 159.5 30.1 L 159.4 30.8" stroke-width="2.40"/>
<path d="M 159.4 30.8 L 159.4 31.0" stroke-width="2.80"/>
<path d="M 159.4 31.0 L 159.7 30.6 L 160.2 29.7" stroke-width="3.20"/>
<path d="M 160.2 29.7 L 160.9 28.3" stroke-width="2.80"/>
<path d="M 160.9 28.3 L 161.9 26.7" stroke-width="2.40"/>
<path d="M 161.9 26.7 L 163.0 25.0" stroke-width="2.20"/>
<path d="M 163.0 25.0 L 164.3 23.5" stroke-width="2.00"/>
<path d="M 164.3 23.5 L 165.6 22.3" stroke-width="1.80"/>
<path d="M 165.6 22.3 L 166.9 21.5 L 168.0 21.1" stroke-width="2.00"/>
<path d="M 168.0 21.1 L 169.0 21.2" stroke-width="2.20"/>
<path d="M 169.0 21.2 L 169.7 21.8 L 170.1 22.9 L 170.2 24.3" stroke-width="2.40"/>
<path d="M 170.2 24.3 L 170.1 26.0 L 170.0 27.7" stroke-width="2.20"/>
<path d="M 170.0 27.7 L 169.8 29.5 L 169.9 30.9 L 170.1 31.9" stroke-width="2.00"/>
<path d="M 170.1 31.9 L 170.4 32.4" stroke-width="1.80"/>
<circle cx="179.6" cy="12.5" r="0.77" fill="currentColor" stroke="none"/>
<path d="M 179.6 12.5 L 179.6 12.8" stroke-width="2.00"/>
<path d="M 179.6 12.8 L 179.5 13.6" stroke-width="2.60"/>
<path d="M 179.5 13.6 L 179.3 14.9" stroke-width="2.80"/>
<path d="M 179.3 14.9 L 178.9 16.7" stroke-width="2.40"/>
<path d="M 178.9 16.7 L 178.3 18.9" stroke-width="2.20"/>
<path d="M 178.3 18.9 L 177.6 21.3" stroke-width="1.80"/>
<path d="M 177.6 21.3 L 176.9 23.7 L 176.1 26.0 L 175.6 27.9 L 175.1 29.4" stroke-width="1.60"/>
<path d="M 175.1 29.4 L 175.0 30.2" stroke-width="2.00"/>
<path d="M 175.0 30.2 L 175.1 30.3" stroke-width="2.40"/>
<path d="M 175.1 30.3 L 175.5 29.8 L 176.2 28.8" stroke-width="2.80"/>
<path d="M 176.2 28.8 L 177.3 27.3" stroke-width="2.40"/>
<path d="M 177.3 27.3 L 178.6 25.6" stroke-width="2.20"/>
<path d="M 178.6 25.6 L 180.1 23.8" stroke-width="2.00"/>
<path d="M 180.1 23.8 L 181.7 22.2 L 183.2 20.8 L 184.6 19.7 L 185.8 19.0" stroke-width="1.80"/>
<path d="M 185.8 19.0 L 186.8 18.7" stroke-width="2.00"/>
<path d="M 186.8 18.7 L 187.4 18.7" stroke-width="2.20"/>
<path d="M 187.4 18.7 L 187.8 18.7" stroke-width="2.00"/>
<circle cx="179.8" cy="24.1" r="0.77" fill="currentColor" stroke="none"/>
<path d="M 179.8 24.1 L 180.0 24.4" stroke-width="2.00"/>
<path d="M 180.0 24.4 L 180.5 24.9" stroke-width="2.60"/>
<path d="M 180.5 24.9 L 181.4 25.6" stroke-width="2.80"/>
<path d="M 181.4 25.6 L 182.6 26.2" stroke-width="2.60"/>
<path d="M 182.6 26.2 L 184.1 26.8" stroke-width="2.40"/>
<path d="M 184.1 26.8 L 185.8 27.2 L 187.5 27.4" stroke-width="2.20"/>
<path d="M 187.5 27.4 L 189.3 27.4 L 191.1 27.2 L 192.7 26.7" stroke-width="2.00"/>
<path d="M 192.7 26.7 L 194.0 26.3" stroke-width="1.80"/>
<path d="M 194.0 26.3 L 194.8 25.9" stroke-width="1.60"/>
<circle cx="196.7" cy="29.0" r="0.77" fill="currentColor" stroke="none"/>
<path d="M 196.7 29.0 L 196.8 29.4" stroke-width="2.00"/>
<path d="M 196.8 29.4 L 196.8 30.1" stroke-width="2.60"/>
<path d="M 196.8 30.1 L 196.9 31.1 L 196.6 32.4" stroke-width="2.80"/>
<path d="M 196.6 32.4 L 196.0 33.9" stroke-width="2.40"/>
<path d="M 196.0 33.9 L 195.2 35.6" stroke-width="2.20"/>
<path d="M 195.2 35.6 L 194.4 37.0" stroke-width="2.00"/>
<path d="M 194.4 37.0 L 193.8 37.9" stroke-width="1.60"/>
<circle cx="217.2" cy="13.6" r="0.77" fill="currentColor" stroke="none"/>
<path d="M 217.2 13.6 L 217.2 13.8" stroke-width="2.00"/>
<path d="M 217.2 13.8 L 217.2 14.3" stroke-width="2.80"/>
<path d="M 217.2 14.3 L 217.0 15.4" stroke-width="3.00"/>
<path d="M 217.0 15.4 L 216.7 17.0" stroke-width="2.60"/>
<path d="M 216.7 17.0 L 216.1 19.1" stroke-width="2.20"/>
<path d="M 216.1 19.1 L 215.4 21.6" stroke-width="2.00"/>
<path d="M 215.4 21.6 L 214.6 24.2 L 213.8 26.8 L 213.2 29.1 L 212.7 30.8 L 212.5 31.9 L 212.4 32.4" stroke-width="1.60"/>
<circle cx="210.4" cy="22.8" r="0.77" fill="currentColor" stroke="none"/>
<path d="M 210.4 22.8 L 210.7 22.8" stroke-width="2.00"/>
<path d="M 210.7 22.8 L 211.3 22.8" stroke-width="2.60"/>
<path d="M 211.3 22.8 L 212.1 22.8" stroke-width="2.80"/>
<path d="M 212.1 22.8 L 212.8 22.8" stroke-width="2.40"/>
<circle cx="225.0" cy="13.9" r="0.77" fill="currentColor" stroke="none"/>
<path d="M 225.0 13.9 L 225.0 14.0" stroke-width="2.00"/>
<path d="M 225.0 14.0 L 225.0 14.5" stroke-width="2.80"/>
<path d="M 225.0 14.5 L 224.8 15.5" stroke-width="3.00"/>
<path d="M 224.8 15.5 L 224.4 17.2" stroke-width="2.80"/>
<path d="M 224.4 17.2 L 223.7 19.3" stroke-width="2.20"/>
<path d="M 223.7 19.3 L 222.9 21.8" stroke-width="2.00"/>
<path d="M 222.9 21.8 L 222.1 24.2 L 221.4 26.4 L 221.0 28.2" stroke-width="1.60"/>
<path d="M 221.0 28.2 L 220.9 29.3" stroke-width="1.80"/>
<path d="M 220.9 29.3 L 221.2 29.7" stroke-width="2.20"/>
<path d="M 221.2 29.7 L 221.9 29.5" stroke-width="2.40"/>
<path d="M 221.9 29.5 L 222.9 28.7" stroke-width="2.60"/>
<path d="M 222.9 28.7 L 224.2 27.4" stroke-width="2.40"/>
<path d="M 224.2 27.4 L 225.8 25.9" stroke-width="2.00"/>
<path d="M 225.8 25.9 L 227.6 24.3 L 229.3 22.9 L 230.8 21.9 L 232.0 21.3" stroke-width="1.80"/>
<path d="M 232.0 21.3 L 232.9 21.1" stroke-width="2.00"/>
<path d="M 232.9 21.1 L 233.4 21.5" stroke-width="2.40"/>
<path d="M 233.4 21.5 L 233.6 22.4 L 233.4 23.7" stroke-width="2.60"/>
<path d="M 233.4 23.7 L 232.9 25.2" stroke-width="2.40"/>
<path d="M 232.9 25.2 L 232.5 26.8 L 232.1 28.2 L 232.0 29.3" stroke-width="2.20"/>
<path d="M 232.0 29.3 L 232.3 29.9" stroke-width="2.40"/>
<path d="M 232.3 29.9 L 233.0 29.9" stroke-width="2.60"/>
<path d="M 233.0 29.9 L 234.1 29.4" stroke-width="2.80"/>
<path d="M 234.1 29.4 L 235.6 28.4" stroke-width="2.40"/>
<path d="M 235.6 28.4 L 237.2 27.0" stroke-width="2.20"/>
<path d="M 237.2 27.0 L 238.9 25.5" stroke-width="2.00"/>
<path d="M 238.9 25.5 L 240.4 24.1 L 241.6 22.9" stroke-width="1.80"/>
<path d="M 241.6 22.9 L 242.4 22.2" stroke-width="2.00"/>
<path d="M 242.4 22.2 L 242.9 21.8" stroke-width="2.20"/>
<path d="M 242.9 21.8 L 242.9 22.0" stroke-width="2.80"/>
<path d="M 242.9 22.0 L 242.7 22.6 L 242.3 23.7" stroke-width="3.00"/>
<path d="M 242.3 23.7 L 241.7 25.1" stroke-width="2.80"/>
<path d="M 241.7 25.1 L 241.1 26.6" stroke-width="2.40"/>
<path d="M 241.1 26.6 L 240.5 28.0 L 240.3 29.1" stroke-width="2.20"/>
<path d="M 240.3 29.1 L 240.4 29.7" stroke-width="2.40"/>
<path d="M 240.4 29.7 L 240.8 29.7" stroke-width="2.80"/>
<path d="M 240.8 29.7 L 241.3 29.4" stroke-width="3.00"/>
<path d="M 241.3 29.4 L 241.7 29.1" stroke-width="2.60"/>
<circle cx="244.3" cy="16.1" r="0.77" fill="currentColor" stroke="none"/>
<path d="M 244.3 16.1 L 244.3 16.0" stroke-width="2.00"/>
<path d="M 244.3 16.0 L 244.3 16.0" stroke-width="2.80"/>
<path d="M 244.3 16.0 L 244.4 16.0" stroke-width="3.00"/>
<path d="M 244.4 16.0 L 244.4 16.0" stroke-width="2.60"/>
<circle cx="247.6" cy="20.1" r="0.77" fill="currentColor" stroke="none"/>
<path d="M 247.6 20.1 L 247.5 20.8" stroke-width="1.80"/>
<path d="M 247.5 20.8 L 247.2 22.1" stroke-width="2.20"/>
<path d="M 247.2 22.1 L 246.9 23.8" stroke-width="2.40"/>
<path d="M 246.9 23.8 L 246.7 25.4 L 246.4 26.9 L 246.2 27.9" stroke-width="2.20"/>
<path d="M 246.2 27.9 L 246.1 28.6" stroke-width="2.40"/>
<path d="M 246.1 28.6 L 246.2 28.8" stroke-width="2.80"/>
<path d="M 246.2 28.8 L 246.6 28.4 L 247.2 27.6" stroke-width="3.20"/>
<path d="M 247.2 27.6 L 248.1 26.3" stroke-width="2.80"/>
<path d="M 248.1 26.3 L 249.3 24.7" stroke-width="2.40"/>
<path d="M 249.3 24.7 L 250.6 23.1 L 252.0 21.6" stroke-width="2.00"/>
<path d="M 252.0 21.6 L 253.3 20.4" stroke-width="1.80"/>
<path d="M 253.3 20.4 L 254.5 19.6 L 255.5 19.2" stroke-width="2.00"/>
<path d="M 255.5 19.2 L 256.2 19.4" stroke-width="2.20"/>
<path d="M 256.2 19.4 L 256.7 20.0 L 256.9 21.1 L 256.9 22.5" stroke-width="2.60"/>
<path d="M 256.9 22.5 L 256.6 24.2" stroke-width="2.40"/>
<path d="M 256.6 24.2 L 256.3 26.0" stroke-width="2.20"/>
<path d="M 256.3 26.0 L 256.0 27.6" stroke-width="2.00"/>
<path d="M 256.0 27.6 L 256.0 28.8 L 256.3 29.5" stroke-width="2.20"/>
<path d="M 256.3 29.5 L 256.8 29.8 L 257.2 29.9" stroke-width="2.40"/>
<circle cx="267.2" cy="12.8" r="0.77" fill="currentColor" stroke="none"/>
<path d="M 267.2 12.8 L 267.2 13.0" stroke-width="2.00"/>
<path d="M 267.2 13.0 L 267.1 13.4" stroke-width="2.80"/>
<path d="M 267.1 13.4 L 266.8 14.3" stroke-width="3.00"/>
<path d="M 266.8 14.3 L 266.3 15.8" stroke-width="2.80"/>
<path d="M 266.3 15.8 L 265.5 17.8" stroke-width="2.40"/>
<path d="M 265.5 17.8 L 264.6 20.2" stroke-width="2.00"/>
<path d="M 264.6 20.2 L 263.7 22.5" stroke-width="1.80"/>
<path d="M 263.7 22.5 L 262.9 24.7 L 262.4 26.5" stroke-width="1.60"/>
<path d="M 262.4 26.5 L 262.1 27.7" stroke-width="1.80"/>
<path d="M 262.1 27.7 L 262.2 28.2" stroke-width="2.00"/>
<path d="M 262.2 28.2 L 262.7 27.9" stroke-width="2.40"/>
<path d="M 262.7 27.9 L 263.6 27.1" stroke-width="2.60"/>
<path d="M 263.6 27.1 L 264.8 25.8" stroke-width="2.40"/>
<path d="M 264.8 25.8 L 266.3 24.2" stroke-width="2.20"/>
<path d="M 266.3 24.2 L 267.9 22.5 L 269.4 21.1 L 270.7 20.0 L 271.8 19.3" stroke-width="1.80"/>
<path d="M 271.8 19.3 L 272.6 18.9" stroke-width="2.00"/>
<path d="M 272.6 18.9 L 273.1 18.9" stroke-width="2.40"/>
<path d="M 273.1 18.9 L 273.3 19.3" stroke-width="2.80"/>
<path d="M 273.3 19.3 L 273.1 19.9 L 272.6 20.7" stroke-width="3.00"/>
<path d="M 272.6 20.7 L 271.7 21.6" stroke-width="2.80"/>
<path d="M 271.7 21.6 L 270.6 22.7" stroke-width="2.60"/>
<path d="M 270.6 22.7 L 269.4 23.7" stroke-width="2.40"/>
<path d="M 269.4 23.7 L 268.3 24.6 L 267.3 25.4" stroke-width="2.20"/>
<path d="M 267.3 25.4 L 266.6 26.1" stroke-width="2.40"/>
<path d="M 266.6 26.1 L 266.3 26.7" stroke-width="2.60"/>
<path d="M 266.3 26.7 L 266.4 27.3" stroke-width="2.80"/>
<path d="M 266.4 27.3 L 266.8 27.7 L 267.6 28.1 L 268.8 28.3" stroke-width="3.00"/>
<path d="M 268.8 28.3 L 270.3 28.4" stroke-width="2.60"/>
<path d="M 270.3 28.4 L 272.0 28.1" stroke-width="2.40"/>
<path d="M 272.0 28.1 L 273.9 27.5" stroke-width="2.20"/>
<path d="M 273.9 27.5 L 275.9 26.7" stroke-width="2.00"/>
<path d="M 275.9 26.7 L 277.7 25.7 L 279.4 24.4 L 280.9 23.1 L 282.0 21.9 L 282.8 20.9" stroke-width="1.80"/>
<path d="M 282.8 20.9 L 283.3 20.3" stroke-width="2.20"/>
<path d="M 283.3 20.3 L 283.4 20.1" stroke-width="2.60"/>
<path d="M 283.4 20.1 L 283.3 20.4" stroke-width="3.00"/>
<path d="M 283.3 20.4 L 283.0 21.1" stroke-width="3.20"/>
<path d="M 283.0 21.1 L 282.5 22.3" stroke-width="3.00"/>
<path d="M 282.5 22.3 L 281.9 23.7" stroke-width="2.60"/>
<path d="M 281.9 23.7 L 281.4 25.1 L 281.1 26.4 L 281.0 27.3" stroke-width="2.40"/>
<path d="M 281.0 27.3 L 281.1 27.7 L 281.4 27.7" stroke-width="2.80"/>
<path d="M 281.4 27.7 L 281.6 27.6" stroke-width="2.60"/>
<circle cx="286.0" cy="14.6" r="0.77" fill="currentColor" stroke="none"/>
<path d="M 286.0 14.6 L 285.9 14.4" stroke-width="2.00"/>
<path d="M 285.9 14.4 L 285.9 14.2" stroke-width="2.80"/>
<path d="M 285.9 14.2 L 285.9 14.0" stroke-width="3.00"/>
<path d="M 285.9 14.0 L 285.9 14.0" stroke-width="2.60"/>
<circle cx="288.6" cy="20.3" r="0.77" fill="currentColor" stroke="none"/>
<path d="M 288.6 20.3 L 288.5 20.7" stroke-width="2.00"/>
<path d="M 288.5 20.7 L 288.4 21.4" stroke-width="2.60"/>
<path d="M 288.4 21.4 L 288.2 22.5" stroke-width="2.80"/>
<path d="M 288.2 22.5 L 287.9 23.7 L 287.6 25.0 L 287.4 26.0 L 287.3 26.7" stroke-width="2.60"/>
<path d="M 287.3 26.7 L 287.5 27.1" stroke-width="3.00"/>
<path d="M 287.5 27.1 L 288.0 27.0 L 288.9 26.4" stroke-width="3.20"/>
<path d="M 288.9 26.4 L 290.1 25.5" stroke-width="2.80"/>
<path d="M 290.1 25.5 L 291.6 24.3" stroke-width="2.40"/>
<path d="M 291.6 24.3 L 293.2 23.0" stroke-width="2.20"/>
<path d="M 293.2 23.0 L 295.0 21.8" stroke-width="2.00"/>
<path d="M 295.0 21.8 L 296.6 20.9 L 298.0 20.3" stroke-width="1.80"/>
<path d="M 298.0 20.3 L 299.1 20.1" stroke-width="2.00"/>
<path d="M 299.1 20.1 L 299.8 20.4" stroke-width="2.20"/>
<path d="M 299.8 20.4 L 300.2 21.1" stroke-width="2.40"/>
<path d="M 300.2 21.1 L 300.2 22.2 L 300.0 23.5" stroke-width="2.60"/>
<path d="M 300.0 23.5 L 299.8 24.8 L 299.6 25.8" stroke-width="2.40"/>
<path d="M 299.6 25.8 L 299.5 26.3" stroke-width="2.00"/>
<circle cx="310.0" cy="20.4" r="0.77" fill="currentColor" stroke="none"/>
<path d="M 310.0 20.4 L 309.8 20.1" stroke-width="2.00"/>
<path d="M 309.8 20.1 L 309.4 19.7" stroke-width="2.60"/>
<path d="M 309.4 19.7 L 308.7 19.6 L 307.7 20.0" stroke-width="3.00"/>
<path d="M 307.7 20.0 L 306.3 20.9" stroke-width="2.60"/>
<path d="M 306.3 20.9 L 304.9 22.0" stroke-width="2.40"/>
<path d="M 304.9 22.0 L 303.6 23.3" stroke-width="2.20"/>
<path d="M 303.6 23.3 L 302.7 24.4" stroke-width="2.00"/>
<path d="M 302.7 24.4 L 302.3 25.3" stroke-width="2.20"/>
<path d="M 302.3 25.3 L 302.6 25.6" stroke-width="2.60"/>
<path d="M 302.6 25.6 L 303.4 25.5 L 304.6 25.0" stroke-width="2.80"/>
<path d="M 304.6 25.0 L 306.2 24.2" stroke-width="2.40"/>
<path d="M 306.2 24.2 L 307.8 23.2" stroke-width="2.20"/>
<path d="M 307.8 23.2 L 309.3 22.2 L 310.5 21.3" stroke-width="2.00"/>
<path d="M 310.5 21.3 L 311.3 20.7" stroke-width="2.20"/>
<path d="M 311.3 20.7 L 311.7 20.5" stroke-width="2.40"/>
<path d="M 311.7 20.5 L 311.8 20.6" stroke-width="3.00"/>
<path d="M 311.8 20.6 L 311.6 21.0 L 311.4 21.8" stroke-width="3.20"/>
<path d="M 311.4 21.8 L 311.0 22.9" stroke-width="3.00"/>
<path d="M 311.0 22.9 L 310.5 24.4" stroke-width="2.80"/>
<path d="M 310.5 24.4 L 310.0 26.1" stroke-width="2.40"/>
<path d="M 310.0 26.1 L 309.4 28.1" stroke-width="2.20"/>
<path d="M 309.4 28.1 L 308.7 30.2" stroke-width="2.00"/>
<path d="M 308.7 30.2 L 307.9 32.3" stroke-width="1.80"/>
<path d="M 307.9 32.3 L 307.0 34.5 L 306.0 36.5 L 304.8 38.2 L 303.6 39.7" stroke-width="1.60"/>
<path d="M 303.6 39.7 L 302.3 40.6 L 301.1 40.9" stroke-width="1.80"/>
<path d="M 301.1 40.9 L 300.1 40.7" stroke-width="2.00"/>
<path d="M 300.1 40.7 L 299.4 40.2" stroke-width="2.20"/>
<path d="M 299.4 40.2 L 299.0 39.8" stroke-width="2.00"/>
<circle cx="337.9" cy="19.7" r="0.77" fill="currentColor" stroke="none"/>
<path d="M 337.9 19.7 L 337.5 19.4" stroke-width="2.00"/>
<path d="M 337.5 19.4 L 336.9 19.0" stroke-width="2.60"/>
<path d="M 336.9 19.0 L 335.9 18.8 L 334.7 18.9" stroke-width="2.80"/>
<path d="M 334.7 18.9 L 333.2 19.4" stroke-width="2.40"/>
<path d="M 333.2 19.4 L 331.4 20.5" stroke-width="2.20"/>
<path d="M 331.4 20.5 L 329.6 21.9" stroke-width="2.00"/>
<path d="M 329.6 21.9 L 327.9 23.6 L 326.7 25.3 L 326.0 26.7" stroke-width="1.80"/>
<path d="M 326.0 26.7 L 325.9 27.7" stroke-width="2.00"/>
<path d="M 325.9 27.7 L 326.4 28.2" stroke-width="2.20"/>
<path d="M 326.4 28.2 L 327.3 28.2 L 328.6 27.5" stroke-width="2.40"/>
<path d="M 328.6 27.5 L 330.1 26.4" stroke-width="2.20"/>
<path d="M 330.1 26.4 L 331.8 24.9" stroke-width="2.00"/>
<path d="M 331.8 24.9 L 333.6 23.2" stroke-width="1.80"/>
<path d="M 333.6 23.2 L 335.2 21.6 L 336.6 20.2" stroke-width="1.60"/>
<path d="M 336.6 20.2 L 337.6 19.3" stroke-width="1.80"/>
<path d="M 337.6 19.3 L 338.1 18.7" stroke-width="2.00"/>
<path d="M 338.1 18.7 L 338.3 18.6" stroke-width="2.40"/>
<path d="M 338.3 18.6 L 338.1 19.0" stroke-width="2.80"/>
<path d="M 338.1 19.0 L 337.5 19.8" stroke-width="3.00"/>
<path d="M 337.5 19.8 L 336.7 21.1" stroke-width="2.80"/>
<path d="M 336.7 21.1 L 335.9 22.7" stroke-width="2.40"/>
<path d="M 335.9 22.7 L 335.2 24.3 L 334.7 25.7 L 334.7 26.8" stroke-width="2.20"/>
<path d="M 334.7 26.8 L 335.2 27.3" stroke-width="2.40"/>
<path d="M 335.2 27.3 L 336.1 27.2 L 337.6 26.6" stroke-width="2.60"/>
<path d="M 337.6 26.6 L 339.5 25.5" stroke-width="2.20"/>
<path d="M 339.5 25.5 L 341.6 24.0" stroke-width="1.80"/>
<path d="M 341.6 24.0 L 343.9 22.4 L 346.2 20.9" stroke-width="1.60"/>
<path d="M 346.2 20.9 L 348.3 19.5 L 350.2 18.5" stroke-width="1.40"/>
<path d="M 350.2 18.5 L 351.8 17.9" stroke-width="1.60"/>
<path d="M 351.8 17.9 L 353.1 17.8" stroke-width="1.80"/>
<path d="M 353.1 17.8 L 354.2 18.2 L 355.0 19.1" stroke-width="2.00"/>
<path d="M 355.0 19.1 L 355.4 20.2 L 355.5 21.6 L 355.3 23.0 L 354.8 24.2 L 354.1 25.3 L 353.0 26.0" stroke-width="2.20"/>
<path d="M 353.0 26.0 L 351.9 26.3 L 350.7 26.2" stroke-width="2.40"/>
<path d="M 350.7 26.2 L 349.8 26.0" stroke-width="2.20"/>
<path d="M 349.8 26.0 L 349.3 25.7" stroke-width="2.00"/>
<circle cx="372.7" cy="20.5" r="0.77" fill="currentColor" stroke="none"/>
<path d="M 372.7 20.5 L 372.7 20.8" stroke-width="2.00"/>
<path d="M 372.7 20.8 L 372.7 21.3" stroke-width="2.80"/>
<path d="M 372.7 21.3 L 372.5 22.2" stroke-width="3.00"/>
<path d="M 372.5 22.2 L 372.2 23.4" stroke-width="2.80"/>
<path d="M 372.2 23.4 L 371.7 24.9" stroke-width="2.60"/>
<path d="M 371.7 24.9 L 371.1 26.4" stroke-width="2.40"/>
<path d="M 371.1 26.4 L 370.6 27.8 L 370.2 28.9" stroke-width="2.20"/>
<path d="M 370.2 28.9 L 370.1 29.6" stroke-width="2.40"/>
<path d="M 370.1 29.6 L 370.3 29.7" stroke-width="2.80"/>
<path d="M 370.3 29.7 L 370.5 29.4" stroke-width="3.00"/>
<path d="M 370.5 29.4 L 370.8 29.0" stroke-width="2.60"/>
<circle cx="374.8" cy="12.7" r="1.10" fill="currentColor" stroke="none"/>
<circle cx="381.0" cy="18.7" r="0.77" fill="currentColor" stroke="none"/>
<path d="M 381.0 18.7 L 380.7 19.7" stroke-width="1.80"/>
<path d="M 380.7 19.7 L 380.3 21.3" stroke-width="2.20"/>
<path d="M 380.3 21.3 L 379.7 23.3 L 379.0 25.3" stroke-width="2.00"/>
<path d="M 379.0 25.3 L 378.4 27.0 L 377.7 28.5 L 377.2 29.4 L 376.9 29.9" stroke-width="1.80"/>
<circle cx="374.5" cy="23.6" r="0.77" fill="currentColor" stroke="none"/>
<path d="M 374.5 23.6 L 375.1 23.5" stroke-width="1.80"/>
<path d="M 375.1 23.5 L 376.4 23.5" stroke-width="2.40"/>
<path d="M 376.4 23.5 L 377.7 23.4" stroke-width="2.20"/>
<path d="M 377.7 23.4 L 378.8 23.4" stroke-width="2.00"/>
<circle cx="403.1" cy="22.5" r="0.77" fill="currentColor" stroke="none"/>
<path d="M 403.1 22.5 L 402.4 22.7" stroke-width="1.80"/>
<path d="M 402.4 22.7 L 401.1 23.3 L 399.6 24.2 L 398.2 25.3" stroke-width="2.20"/>
<path d="M 398.2 25.3 L 397.2 26.4" stroke-width="2.00"/>
<path d="M 397.2 26.4 L 396.6 27.4" stroke-width="2.20"/>
<path d="M 396.6 27.4 L 396.5 28.1" stroke-width="2.40"/>
<path d="M 396.5 28.1 L 397.0 28.3" stroke-width="2.60"/>
<path d="M 397.0 28.3 L 397.9 28.1" stroke-width="2.80"/>
<path d="M 397.9 28.1 L 399.2 27.3" stroke-width="2.60"/>
<path d="M 399.2 27.3 L 400.8 26.2" stroke-width="2.40"/>
<path d="M 400.8 26.2 L 402.5 24.8" stroke-width="2.00"/>
<path d="M 402.5 24.8 L 404.0 23.5 L 405.3 22.3" stroke-width="1.80"/>
<path d="M 405.3 22.3 L 406.2 21.4" stroke-width="2.00"/>
<path d="M 406.2 21.4 L 406.7 21.1" stroke-width="2.20"/>
<path d="M 406.7 21.1 L 406.7 21.2" stroke-width="2.60"/>
<path d="M 406.7 21.2 L 406.5 21.9" stroke-width="3.00"/>
<path d="M 406.5 21.9 L 405.9 23.1" stroke-width="2.80"/>
<path d="M 405.9 23.1 L 405.1 25.0" stroke-width="2.40"/>
<path d="M 405.1 25.0 L 404.0 27.2" stroke-width="2.00"/>
<path d="M 404.0 27.2 L 402.8 29.7" stroke-width="1.80"/>
<path d="M 402.8 29.7 L 401.6 32.2" stroke-width="1.60"/>
<path d="M 401.6 32.2 L 400.2 34.5 L 399.0 36.5" stroke-width="1.40"/>
<path d="M 399.0 36.5 L 397.7 38.1 L 396.5 39.2" stroke-width="1.60"/>
<path d="M 396.5 39.2 L 395.5 39.8" stroke-width="1.80"/>
<path d="M 395.5 39.8 L 394.6 39.7" stroke-width="2.00"/>
<path d="M 394.6 39.7 L 394.0 39.2" stroke-width="2.20"/>
<path d="M 394.0 39.2 L 393.9 38.2 L 394.3 36.9" stroke-width="2.40"/>
<path d="M 394.3 36.9 L 395.3 35.2" stroke-width="2.20"/>
<path d="M 395.3 35.2 L 397.0 33.5" stroke-width="2.00"/>
<path d="M 397.0 33.5 L 398.6 32.0" stroke-width="1.60"/>
<path d="M 398.6 32.0 L 399.8 31.1" stroke-width="1.40"/>
<circle cx="415.1" cy="22.4" r="0.77" fill="currentColor" stroke="none"/>
<path d="M 415.1 22.4 L 414.9 22.2" stroke-width="2.00"/>
<path d="M 414.9 22.2 L 414.3 22.0" stroke-width="2.60"/>
<path d="M 414.3 22.0 L 413.5 22.0" stroke-width="3.00"/>
<path d="M 413.5 22.0 L 412.3 22.4" stroke-width="2.80"/>
<path d="M 412.3 22.4 L 411.0 23.1" stroke-width="2.60"/>
<path d="M 411.0 23.1 L 409.7 24.2" stroke-width="2.40"/>
<path d="M 409.7 24.2 L 408.4 25.5" stroke-width="2.20"/>
<path d="M 408.4 25.5 L 407.6 26.8" stroke-width="2.00"/>
<path d="M 407.6 26.8 L 407.3 28.0 L 407.7 28.8" stroke-width="2.20"/>
<path d="M 407.7 28.8 L 408.6 29.3 L 410.0 29.2" stroke-width="2.40"/>
<path d="M 410.0 29.2 L 411.8 28.5" stroke-width="2.20"/>
<path d="M 411.8 28.5 L 413.6 27.4" stroke-width="2.00"/>
<path d="M 413.6 27.4 L 415.3 26.0 L 416.6 24.4 L 417.5 22.9 L 417.8 21.6" stroke-width="1.80"/>
<path d="M 417.8 21.6 L 417.7 20.5" stroke-width="2.00"/>
<path d="M 417.7 20.5 L 417.2 19.9" stroke-width="2.20"/>
<path d="M 417.2 19.9 L 416.3 19.7" stroke-width="2.40"/>
<path d="M 416.3 19.7 L 415.4 19.9 L 414.5 20.5 L 413.8 21.4 L 413.4 22.6 L 413.5 23.7" stroke-width="2.60"/>
<path d="M 413.5 23.7 L 414.2 24.8 L 415.4 25.5" stroke-width="2.40"/>
<path d="M 415.4 25.5 L 417.1 25.9" stroke-width="2.20"/>
<path d="M 417.1 25.9 L 419.2 25.7" stroke-width="2.00"/>
<path d="M 419.2 25.7 L 421.5 25.1 L 423.7 24.2" stroke-width="1.80"/>
<path d="M 423.7 24.2 L 425.7 23.1 L 427.2 21.9" stroke-width="1.60"/>
<path d="M 427.2 21.9 L 428.1 20.8" stroke-width="1.80"/>
<path d="M 428.1 20.8 L 428.4 19.9" stroke-width="2.00"/>
<path d="M 428.4 19.9 L 428.1 19.3" stroke-width="2.20"/>
<path d="M 428.1 19.3 L 427.1 19.1 L 425.6 19.5" stroke-width="2.40"/>
<path d="M 425.6 19.5 L 423.8 20.4" stroke-width="2.20"/>
<path d="M 423.8 20.4 L 422.0 21.7" stroke-width="2.00"/>
<path d="M 422.0 21.7 L 420.2 23.2 L 419.0 24.8 L 418.4 26.3" stroke-width="1.80"/>
<path d="M 418.4 26.3 L 418.6 27.4 L 419.6 28.1 L 421.4 28.4 L 423.8 28.1" stroke-width="2.00"/>
<path d="M 423.8 28.1 L 426.6 27.4" stroke-width="1.60"/>
<path d="M 426.6 27.4 L 429.6 26.5 L 432.6 25.4 L 435.3 24.2 L 437.5 23.3 L 439.2 22.4" stroke-width="1.40"/>
<path d="M 439.2 22.4 L 440.4 21.8" stroke-width="1.60"/>
<path d="M 440.4 21.8 L 441.0 21.5" stroke-width="1.80"/>
<path d="M 441.0 21.5 L 441.3 21.3" stroke-width="2.20"/>
<path d="M 441.3 21.3 L 441.2 21.4" stroke-width="2.80"/>
<path d="M 441.2 21.4 L 440.9 21.8 L 440.4 22.4 L 439.9 23.1" stroke-width="3.20"/>
<path d="M 439.9 23.1 L 439.3 24.0" stroke-width="3.00"/>
<path d="M 439.3 24.0 L 438.6 24.9 L 437.9 25.8" stroke-width="2.80"/>
<path d="M 437.9 25.8 L 437.2 26.6 L 436.3 27.4 L 435.4 28.0 L 434.5 28.5 L 433.5 28.7 L 432.6 28.8 L 431.9 28.7" stroke-width="2.60"/>
<path d="M 431.9 28.7 L 431.4 28.7" stroke-width="2.40"/>
</svg>
