<svg xmlns="http://www.w3.org/2000/svg" viewBox="0 0 510.0 50.1" fill="none" stroke="currentColor" stroke-linecap="round" stroke-linejoin="round" role="img">
<circle cx="17.2" cy="20.8" r="0.63" fill="currentColor" stroke="none"/>
<path d="M 17.2 20.8 L 16.2 21.0" stroke-width="1.40"/>
<path d="M 16.2 21.0 L 14.6 21.7" stroke-width="1.80"/>
<path d="M 14.6 21.7 L 12.4 22.9" stroke-width="1.60"/>
<path d="M 12.4 22.9 L 10.1 24.7" stroke-width="1.40"/>
<path d="M 10.1 24.7 L 8.1 26.9 L 6.6 29.2 L 6.0 31.3 L 6.3 32.8" stroke-width="1.20"/>
<path d="M 6.3 32.8 L 7.4 33.5" stroke-width="1.40"/>
<path d="M 7.4 33.5 L 9.1 33.4" stroke-width="1.60"/>
<path d="M 9.1 33.4 L 11.1 32.5 L 13.3 30.9" stroke-width="1.40"/>
<path d="M 13.3 30.9 L 15.4 28.8 L 17.2 26.7 L 18.6 24.8 L 19.4 23.6" stroke-width="1.20"/>
<path d="M 19.4 23.6 L 19.8 23.1" stroke-width="1.40"/>
<path d="M 19.8 23.1 L 19.8 23.3" stroke-width="1.80"/>
<path d="M 19.8 23.3 L 19.5 24.4 L 19.3 26.0" stroke-width="2.00"/>
<path d="M 19.3 26.0 L 19.3 28.1" stroke-width="1.80"/>
<path d="M 19.3 28.1 L 19.6 30.2" stroke-width="1.60"/>
<path d="M 19.6 30.2 L 20.5 32.1 L 21.9 33.5 L 23.2 34.2" stroke-width="1.40"/>
<path d="M 23.2 34.2 L 24.2 34.4" stroke-width="1.20"/>
<circle cx="52.5" cy="10.3" r="0.63" fill="currentColor" stroke="none"/>
<path d="M 52.5 10.3 L 52.2 11.5" stroke-width="1.40"/>
<path d="M 52.2 11.5 L 51.8 13.7" stroke-width="1.60"/>
<path d="M 51.8 13.7 L 51.2 16.6" stroke-width="1.40"/>
<path d="M 51.2 16.6 L 50.7 19.9 L 50.3 23.3" stroke-width="1.20"/>
<path d="M 50.3 23.3 L 50.2 26.4 L 50.3 29.1" stroke-width="1.00"/>
<path d="M 50.3 29.1 L 50.9 31.2 L 52.0 32.4" stroke-width="1.20"/>
<path d="M 52.0 32.4 L 53.4 32.7 L 55.1 32.2 L 57.0 30.9 L 59.0 29.0" stroke-width="1.40"/>
<path d="M 59.0 29.0 L 60.9 27.1 L 62.4 25.4 L 63.5 24.2" stroke-width="1.20"/>
<path d="M 63.5 24.2 L 64.2 23.8" stroke-width="1.40"/>
<path d="M 64.2 23.8 L 64.4 24.0" stroke-width="1.80"/>
<path d="M 64.4 24.0 L 64.4 24.9 L 64.2 26.2 L 64.1 27.8" stroke-width="2.00"/>
<path d="M 64.1 27.8 L 64.0 29.4 L 64.2 30.7" stroke-width="1.80"/>
<path d="M 64.2 30.7 L 64.6 31.4" stroke-width="2.00"/>
<path d="M 64.6 31.4 L 65.2 31.5 L 65.7 31.3" stroke-width="2.20"/>
<path d="M 65.7 31.3 L 66.1 31.0" stroke-width="2.00"/>
<circle cx="66.7" cy="14.6" r="0.63" fill="currentColor" stroke="none"/>
<path d="M 66.7 14.6 L 66.7 14.6" stroke-width="1.60"/>
<path d="M 66.7 14.6 L 66.8 14.7 L 66.9 14.9" stroke-width="2.40"/>
<path d="M 66.9 14.9 L 67.0 15.1" stroke-width="2.00"/>
<circle cx="70.9" cy="24.5" r="0.63" fill="currentColor" stroke="none"/>
<path d="M 70.9 24.5 L 70.8 25.4" stroke-width="1.40"/>
<path d="M 70.8 25.4 L 70.7 26.8 L 70.6 28.5 L 70.5 29.9 L 70.4 31.0" stroke-width="1.80"/>
<path d="M 70.4 31.0 L 70.4 31.6" stroke-width="2.00"/>
<path d="M 70.4 31.6 L 70.6 31.7" stroke-width="2.40"/>
<path d="M 70.6 31.7 L 71.0 31.1" stroke-width="2.60"/>
<path d="M 71.0 31.1 L 71.7 29.9" stroke-width="2.40"/>
<path d="M 71.7 29.9 L 72.8 28.3" stroke-width="2.00"/>
<path d="M 72.8 28.3 L 74.1 26.7" stroke-width="1.80"/>
<path d="M 74.1 26.7 L 75.5 25.4 L 76.7 24.5 L 77.8 24.3" stroke-width="1.60"/>
<path d="M 77.8 24.3 L 78.6 24.6" stroke-width="1.80"/>
<path d="M 78.6 24.6 L 79.2 25.4 L 79.6 26.7 L 80.0 28.1" stroke-width="2.00"/>
<path d="M 80.0 28.1 L 80.4 29.5 L 81.0 30.7 L 81.9 31.5" stroke-width="1.80"/>
<path d="M 81.9 31.5 L 83.1 31.7" stroke-width="2.00"/>
<path d="M 83.1 31.7 L 84.8 31.2" stroke-width="1.80"/>
<path d="M 84.8 31.2 L 86.7 30.1" stroke-width="1.60"/>
<path d="M 86.7 30.1 L 88.7 28.4 L 90.6 26.5" stroke-width="1.40"/>
<path d="M 90.6 26.5 L 92.0 24.5 L 92.9 22.7" stroke-width="1.20"/>
<path d="M 92.9 22.7 L 93.1 21.4" stroke-width="1.40"/>
<path d="M 93.1 21.4 L 92.7 20.7" stroke-width="1.60"/>
<path d="M 92.7 20.7 L 91.7 20.7 L 90.3 21.3 L 88.9 22.6" stroke-width="1.80"/>
<path d="M 88.9 22.6 L 87.7 24.4" stroke-width="1.60"/>
<path d="M 87.7 24.4 L 87.0 26.4 L 87.0 28.4 L 88.0 30.0 L 89.8 31.2 L 91.7 31.8" stroke-width="1.40"/>
<path d="M 91.7 31.8 L 93.2 32.1" stroke-width="1.20"/>
<circle cx="124.2" cy="21.2" r="0.63" fill="currentColor" stroke="none"/>
<path d="M 124.2 21.2 L 123.9 21.1" stroke-width="1.60"/>
<path d="M 123.9 21.1 L 123.3 21.0" stroke-width="2.20"/>
<path d="M 123.3 21.0 L 122.3 21.2" stroke-width="2.40"/>
<path d="M 122.3 21.2 L 121.0 22.0" stroke-width="2.20"/>
<path d="M 121.0 22.0 L 119.6 23.3" stroke-width="2.00"/>
<path d="M 119.6 23.3 L 118.3 25.0" stroke-width="1.80"/>
<path d="M 118.3 25.0 L 117.2 26.8 L 116.6 28.5 L 116.6 30.0 L 117.3 31.0" stroke-width="1.60"/>
<path d="M 117.3 31.0 L 118.4 31.4 L 120.0 31.2" stroke-width="1.80"/>
<path d="M 120.0 31.2 L 121.8 30.4 L 123.5 29.1" stroke-width="1.60"/>
<path d="M 123.5 29.1 L 125.0 27.4 L 126.2 25.6 L 126.8 23.9 L 126.9 22.5" stroke-width="1.40"/>
<path d="M 126.9 22.5 L 126.6 21.4" stroke-width="1.60"/>
<path d="M 126.6 21.4 L 125.8 20.7" stroke-width="1.80"/>
<path d="M 125.8 20.7 L 124.9 20.5 L 124.1 20.7" stroke-width="2.00"/>
<path d="M 124.1 20.7 L 123.5 21.3" stroke-width="2.20"/>
<path d="M 123.5 21.3 L 123.4 22.0 L 123.9 22.8 L 125.0 23.2" stroke-width="2.40"/>
<path d="M 125.0 23.2 L 126.7 23.2" stroke-width="2.00"/>
<path d="M 126.7 23.2 L 129.0 22.7" stroke-width="1.80"/>
<path d="M 129.0 22.7 L 131.7 21.4" stroke-width="1.40"/>
<path d="M 131.7 21.4 L 134.5 19.6 L 137.3 17.3" stroke-width="1.20"/>
<path d="M 137.3 17.3 L 139.9 14.8 L 142.0 12.2 L 143.6 9.9 L 144.6 8.1" stroke-width="1.00"/>
<path d="M 144.6 8.1 L 145.0 6.8" stroke-width="1.20"/>
<path d="M 145.0 6.8 L 145.0 6.1" stroke-width="1.40"/>
<path d="M 145.0 6.1 L 144.7 6.0" stroke-width="1.80"/>
<path d="M 144.7 6.0 L 144.0 6.7 L 143.0 8.3" stroke-width="2.00"/>
<path d="M 143.0 8.3 L 141.7 10.7" stroke-width="1.60"/>
<path d="M 141.7 10.7 L 140.3 14.1" stroke-width="1.40"/>
<path d="M 140.3 14.1 L 138.9 18.0 L 137.5 22.3 L 136.3 26.6 L 135.4 30.6 L 134.8 34.1 L 134.4 36.6 L 134.2 38.1" stroke-width="1.00"/>
<path d="M 134.2 38.1 L 134.2 38.6" stroke-width="1.20"/>
<path d="M 134.2 38.6 L 134.2 38.4 L 134.3 38.1" stroke-width="1.60"/>
<circle cx="131.2" cy="26.8" r="0.63" fill="currentColor" stroke="none"/>
<path d="M 131.2 26.8 L 131.3 26.8" stroke-width="1.60"/>
<path d="M 131.3 26.8 L 131.5 26.8" stroke-width="2.40"/>
<path d="M 131.5 26.8 L 132.2 26.9" stroke-width="2.60"/>
<path d="M 132.2 26.9 L 133.6 27.1" stroke-width="2.40"/>
<path d="M 133.6 27.1 L 135.7 27.2" stroke-width="2.00"/>
<path d="M 135.7 27.2 L 138.4 27.2" stroke-width="1.60"/>
<path d="M 138.4 27.2 L 140.9 27.2" stroke-width="1.40"/>
<path d="M 140.9 27.2 L 142.5 27.1" stroke-width="1.20"/>
<circle cx="170.0" cy="23.1" r="0.63" fill="currentColor" stroke="none"/>
<path d="M 170.0 23.1 L 169.9 23.7" stroke-width="1.60"/>
<path d="M 169.9 23.7 L 169.7 24.8 L 169.3 26.3" stroke-width="2.00"/>
<path d="M 169.3 26.3 L 168.9 28.1 L 168.4 29.8" stroke-width="1.80"/>
<path d="M 168.4 29.8 L 168.1 31.4 L 167.9 32.5 L 167.8 33.1" stroke-width="1.60"/>
<circle cx="172.7" cy="15.3" r="0.63" fill="currentColor" stroke="none"/>
<path d="M 172.7 15.3 L 172.7 15.1" stroke-width="1.60"/>
<path d="M 172.7 15.1 L 172.8 14.9" stroke-width="2.20"/>
<path d="M 172.8 14.9 L 172.9 14.9" stroke-width="2.40"/>
<path d="M 172.9 14.9 L 173.0 14.9" stroke-width="2.00"/>
<circle cx="177.0" cy="23.3" r="0.63" fill="currentColor" stroke="none"/>
<path d="M 177.0 23.3 L 177.0 23.9" stroke-width="1.60"/>
<path d="M 177.0 23.9 L 176.9 25.0 L 176.8 26.4" stroke-width="2.00"/>
<path d="M 176.8 26.4 L 176.6 28.0 L 176.4 29.3 L 176.2 30.4" stroke-width="1.80"/>
<path d="M 176.2 30.4 L 176.1 31.0" stroke-width="2.00"/>
<path d="M 176.1 31.0 L 176.2 31.1" stroke-width="2.40"/>
<path d="M 176.2 31.1 L 176.7 30.8 L 177.5 29.8" stroke-width="2.60"/>
<path d="M 177.5 29.8 L 178.7 28.5" stroke-width="2.20"/>
<path d="M 178.7 28.5 L 180.1 27.1" stroke-width="1.80"/>
<path d="M 180.1 27.1 L 181.8 25.8 L 183.3 24.8 L 184.6 24.3" stroke-width="1.60"/>
<path d="M 184.6 24.3 L 185.7 24.2 L 186.4 24.6" stroke-width="1.80"/>
<path d="M 186.4 24.6 L 186.8 25.5 L 186.9 26.8 L 186.8 28.2" stroke-width="2.00"/>
<path d="M 186.8 28.2 L 186.8 29.7 L 186.9 30.8 L 187.1 31.6 L 187.3 32.0" stroke-width="1.80"/>
<circle cx="197.8" cy="13.3" r="0.63" fill="currentColor" stroke="none"/>
<path d="M 197.8 13.3 L 197.8 13.6" stroke-width="1.60"/>
<path d="M 197.8 13.6 L 197.8 14.4 L 197.6 15.8" stroke-width="2.20"/>
<path d="M 197.6 15.8 L 197.3 17.7" stroke-width="2.00"/>
<path d="M 197.3 17.7 L 196.8 20.0" stroke-width="1.60"/>
<path d="M 196.8 20.0 L 196.1 22.6 L 195.4 25.2" stroke-width="1.40"/>
<path d="M 195.4 25.2 L 194.7 27.5 L 194.1 29.4" stroke-width="1.20"/>
<path d="M 194.1 29.4 L 193.8 30.8" stroke-width="1.40"/>
<path d="M 193.8 30.8 L 193.7 31.5" stroke-width="1.60"/>
<path d="M 193.7 31.5 L 193.8 31.6" stroke-width="2.00"/>
<path d="M 193.8 31.6 L 194.3 31.0 L 195.2 29.7" stroke-width="2.20"/>
<path d="M 195.2 29.7 L 196.5 28.1" stroke-width="2.00"/>
<path d="M 196.5 28.1 L 198.0 26.2" stroke-width="1.60"/>
<path d="M 198.0 26.2 L 199.7 24.4 L 201.4 22.8 L 203.0 21.6 L 204.2 20.7" stroke-width="1.40"/>
<path d="M 204.2 20.7 L 205.2 20.2" stroke-width="1.60"/>
<path d="M 205.2 20.2 L 205.7 20.2" stroke-width="1.80"/>
<path d="M 205.7 20.2 L 205.8 20.4" stroke-width="2.20"/>
<path d="M 205.8 20.4 L 205.4 21.0 L 204.6 21.8" stroke-width="2.40"/>
<path d="M 204.6 21.8 L 203.5 22.9" stroke-width="2.20"/>
<path d="M 203.5 22.9 L 202.3 24.0" stroke-width="2.00"/>
<path d="M 202.3 24.0 L 201.0 25.1 L 200.0 26.2 L 199.3 27.2" stroke-width="1.80"/>
<path d="M 199.3 27.2 L 199.0 28.0 L 199.1 28.7" stroke-width="2.00"/>
<path d="M 199.1 28.7 L 199.6 29.4 L 200.4 29.9 L 201.6 30.4" stroke-width="2.20"/>
<path d="M 201.6 30.4 L 203.1 30.6" stroke-width="2.00"/>
<path d="M 203.1 30.6 L 204.9 30.6 L 206.7 30.4" stroke-width="1.80"/>
<path d="M 206.7 30.4 L 208.3 30.2" stroke-width="1.60"/>
<path d="M 208.3 30.2 L 209.2 30.0" stroke-width="1.40"/>
<circle cx="216.1" cy="28.9" r="0.63" fill="currentColor" stroke="none"/>
<path d="M 216.1 28.9 L 216.1 29.3" stroke-width="1.60"/>
<path d="M 216.1 29.3 L 216.2 30.0 L 216.1 31.2" stroke-width="2.20"/>
<path d="M 216.1 31.2 L 215.8 32.8" stroke-width="2.00"/>
<path d="M 215.8 32.8 L 215.3 34.5 L 214.5 36.4" stroke-width="1.80"/>
<path d="M 214.5 36.4 L 213.8 37.9" stroke-width="1.60"/>
<path d="M 213.8 37.9 L 213.3 38.8" stroke-width="1.40"/>
<circle cx="243.4" cy="12.9" r="0.63" fill="currentColor" stroke="none"/>
<path d="M 243.4 12.9 L 243.3 13.1" stroke-width="1.60"/>
<path d="M 243.3 13.1 L 243.2 13.7" stroke-width="2.20"/>
<path d="M 243.2 13.7 L 243.0 14.8" stroke-width="2.40"/>
<path d="M 243.0 14.8 L 242.6 16.5" stroke-width="2.20"/>
<path d="M 242.6 16.5 L 241.9 18.6" stroke-width="1.80"/>
<path d="M 241.9 18.6 L 241.1 21.2" stroke-width="1.60"/>
<path d="M 241.1 21.2 L 240.2 23.8" stroke-width="1.40"/>
<path d="M 240.2 23.8 L 239.3 26.5 L 238.5 28.8 L 237.8 30.6 L 237.3 31.8 L 237.1 32.4" stroke-width="1.20"/>
<circle cx="234.5" cy="23.6" r="0.63" fill="currentColor" stroke="none"/>
<path d="M 234.5 23.6 L 234.7 23.7" stroke-width="1.60"/>
<path d="M 234.7 23.7 L 235.3 23.9" stroke-width="2.20"/>
<path d="M 235.3 23.9 L 236.3 24.2" stroke-width="2.40"/>
<path d="M 236.3 24.2 L 237.8 24.4" stroke-width="2.20"/>
<path d="M 237.8 24.4 L 239.8 24.3" stroke-width="2.00"/>
<path d="M 239.8 24.3 L 242.0 24.0 L 244.3 23.3" stroke-width="1.60"/>
<path d="M 244.3 23.3 L 246.6 22.3 L 248.8 21.0" stroke-width="1.40"/>
<path d="M 248.8 21.0 L 250.7 19.5 L 252.4 17.9 L 253.6 16.3" stroke-width="1.20"/>
<path d="M 253.6 16.3 L 254.3 14.9" stroke-width="1.40"/>
<path d="M 254.3 14.9 L 254.6 13.9" stroke-width="1.60"/>
<path d="M 254.6 13.9 L 254.6 13.3" stroke-width="1.80"/>
<path d="M 254.6 13.3 L 254.3 13.3" stroke-width="2.20"/>
<path d="M 254.3 13.3 L 253.7 13.8" stroke-width="2.40"/>
<path d="M 253.7 13.8 L 253.0 15.0" stroke-width="2.20"/>
<path d="M 253.0 15.0 L 252.2 16.8" stroke-width="2.00"/>
<path d="M 252.2 16.8 L 251.3 19.1" stroke-width="1.60"/>
<path d="M 251.3 19.1 L 250.5 21.7 L 249.9 24.1 L 249.6 26.2 L 249.5 27.7" stroke-width="1.40"/>
<path d="M 249.5 27.7 L 249.7 28.7" stroke-width="1.60"/>
<path d="M 249.7 28.7 L 250.2 29.1" stroke-width="1.80"/>
<path d="M 250.2 29.1 L 251.1 28.8 L 252.5 28.1" stroke-width="2.00"/>
<path d="M 252.5 28.1 L 254.1 27.0" stroke-width="1.80"/>
<path d="M 254.1 27.0 L 255.9 25.8 L 257.7 24.7 L 259.2 24.0 L 260.4 23.7" stroke-width="1.60"/>
<path d="M 260.4 23.7 L 261.1 23.9" stroke-width="1.80"/>
<path d="M 261.1 23.9 L 261.6 24.5 L 261.7 25.6 L 261.6 26.8 L 261.5 28.1 L 261.5 29.2" stroke-width="2.00"/>
<path d="M 261.5 29.2 L 261.9 30.0 L 262.6 30.2 L 263.8 30.0" stroke-width="2.20"/>
<path d="M 263.8 30.0 L 265.4 29.2" stroke-width="2.00"/>
<path d="M 265.4 29.2 L 267.2 28.1" stroke-width="1.80"/>
<path d="M 267.2 28.1 L 269.0 26.8" stroke-width="1.60"/>
<path d="M 269.0 26.8 L 270.6 25.5 L 271.9 24.4" stroke-width="1.40"/>
<path d="M 271.9 24.4 L 272.7 23.8" stroke-width="1.60"/>
<path d="M 272.7 23.8 L 273.1 23.6" stroke-width="1.80"/>
<path d="M 273.1 23.6 L 273.1 23.9" stroke-width="2.20"/>
<path d="M 273.1 23.9 L 272.9 24.8 L 272.4 26.0" stroke-width="2.40"/>
<path d="M 272.4 26.0 L 271.9 27.3" stroke-width="2.20"/>
<path d="M 271.9 27.3 L 271.5 28.6 L 271.2 29.5" stroke-width="2.00"/>
<path d="M 271.2 29.5 L 271.1 30.0" stroke-width="1.80"/>
<circle cx="273.8" cy="16.5" r="0.90" fill="currentColor" stroke="none"/>
<path d="M 273.8 16.5 L 273.8 16.4" stroke-width="2.00"/>
<path d="M 273.8 16.4 L 273.8 16.3" stroke-width="2.40"/>
<circle cx="279.6" cy="23.2" r="0.63" fill="currentColor" stroke="none"/>
<path d="M 279.6 23.2 L 279.4 24.1" stroke-width="1.40"/>
<path d="M 279.4 24.1 L 279.2 25.6 L 278.8 27.3 L 278.4 28.7 L 278.2 29.8" stroke-width="1.80"/>
<path d="M 278.2 29.8 L 278.0 30.5" stroke-width="2.00"/>
<path d="M 278.0 30.5 L 278.1 30.7" stroke-width="2.40"/>
<path d="M 278.1 30.7 L 278.4 30.3 L 279.1 29.4" stroke-width="2.60"/>
<path d="M 279.1 29.4 L 280.2 28.1" stroke-width="2.20"/>
<path d="M 280.2 28.1 L 281.5 26.6" stroke-width="2.00"/>
<path d="M 281.5 26.6 L 282.9 25.2 L 284.3 24.0 L 285.5 23.3" stroke-width="1.60"/>
<path d="M 285.5 23.3 L 286.5 22.9" stroke-width="1.80"/>
<path d="M 286.5 22.9 L 287.2 23.1" stroke-width="2.00"/>
<path d="M 287.2 23.1 L 287.6 23.7 L 287.8 24.8 L 287.6 26.2" stroke-width="2.20"/>
<path d="M 287.6 26.2 L 287.4 27.8" stroke-width="2.00"/>
<path d="M 287.4 27.8 L 287.2 29.4 L 287.2 30.6 L 287.3 31.4 L 287.5 31.7" stroke-width="1.80"/>
<circle cx="298.1" cy="14.5" r="0.63" fill="currentColor" stroke="none"/>
<path d="M 298.1 14.5 L 298.1 14.9" stroke-width="1.60"/>
<path d="M 298.1 14.9 L 298.0 15.7 L 297.7 17.0" stroke-width="2.20"/>
<path d="M 297.7 17.0 L 297.2 18.9" stroke-width="2.00"/>
<path d="M 297.2 18.9 L 296.5 21.0" stroke-width="1.80"/>
<path d="M 296.5 21.0 L 295.7 23.4" stroke-width="1.60"/>
<path d="M 295.7 23.4 L 294.9 25.6 L 294.1 27.6 L 293.5 29.2" stroke-width="1.40"/>
<path d="M 293.5 29.2 L 293.2 30.2" stroke-width="1.60"/>
<path d="M 293.2 30.2 L 293.1 30.6" stroke-width="1.80"/>
<path d="M 293.1 30.6 L 293.5 30.3 L 294.3 29.4" stroke-width="2.20"/>
<path d="M 294.3 29.4 L 295.5 28.0" stroke-width="2.00"/>
<path d="M 295.5 28.0 L 297.0 26.4" stroke-width="1.80"/>
<path d="M 297.0 26.4 L 298.8 24.7" stroke-width="1.60"/>
<path d="M 298.8 24.7 L 300.6 23.3 L 302.2 22.1 L 303.6 21.3" stroke-width="1.40"/>
<path d="M 303.6 21.3 L 304.6 20.9" stroke-width="1.60"/>
<path d="M 304.6 20.9 L 305.2 20.8" stroke-width="1.80"/>
<path d="M 305.2 20.8 L 305.3 21.0" stroke-width="2.20"/>
<path d="M 305.3 21.0 L 305.0 21.4 L 304.2 22.2" stroke-width="2.40"/>
<path d="M 304.2 22.2 L 303.1 23.2" stroke-width="2.20"/>
<path d="M 303.1 23.2 L 301.8 24.3" stroke-width="2.00"/>
<path d="M 301.8 24.3 L 300.5 25.5 L 299.4 26.7 L 298.5 27.7 L 298.0 28.7" stroke-width="1.80"/>
<path d="M 298.0 28.7 L 298.0 29.5" stroke-width="2.00"/>
<path d="M 298.0 29.5 L 298.4 30.1 L 299.3 30.5 L 300.5 30.7" stroke-width="2.20"/>
<path d="M 300.5 30.7 L 302.1 30.5" stroke-width="2.00"/>
<path d="M 302.1 30.5 L 304.0 29.9" stroke-width="1.80"/>
<path d="M 304.0 29.9 L 306.0 29.0" stroke-width="1.60"/>
<path d="M 306.0 29.0 L 308.0 27.8 L 310.0 26.5 L 311.8 25.2 L 313.2 24.0 L 314.3 23.1" stroke-width="1.40"/>
<path d="M 314.3 23.1 L 314.9 22.5" stroke-width="1.60"/>
<path d="M 314.9 22.5 L 315.1 22.3" stroke-width="2.00"/>
<path d="M 315.1 22.3 L 315.0 22.6 L 314.5 23.4 L 313.8 24.6" stroke-width="2.40"/>
<path d="M 313.8 24.6 L 313.0 26.1" stroke-width="2.00"/>
<path d="M 313.0 26.1 L 312.4 27.6 L 312.0 29.0 L 311.9 29.9" stroke-width="1.80"/>
<path d="M 311.9 29.9 L 312.0 30.5" stroke-width="1.60"/>
<circle cx="318.5" cy="18.6" r="0.63" fill="currentColor" stroke="none"/>
<path d="M 318.5 18.6 L 318.5 18.5" stroke-width="1.60"/>
<path d="M 318.5 18.5 L 318.6 18.4 L 318.6 18.4" stroke-width="2.40"/>
<path d="M 318.6 18.4 L 318.7 18.4" stroke-width="2.00"/>
<circle cx="321.1" cy="23.3" r="0.63" fill="currentColor" stroke="none"/>
<path d="M 321.1 23.3 L 320.9 24.1" stroke-width="1.60"/>
<path d="M 320.9 24.1 L 320.5 25.3" stroke-width="1.80"/>
<path d="M 320.5 25.3 L 320.0 26.8" stroke-width="2.00"/>
<path d="M 320.0 26.8 L 319.6 28.2 L 319.3 29.3" stroke-width="1.80"/>
<path d="M 319.3 29.3 L 319.2 29.9" stroke-width="2.00"/>
<path d="M 319.2 29.9 L 319.4 30.1" stroke-width="2.40"/>
<path d="M 319.4 30.1 L 320.0 29.7" stroke-width="2.60"/>
<path d="M 320.0 29.7 L 321.2 28.8" stroke-width="2.40"/>
<path d="M 321.2 28.8 L 322.7 27.6" stroke-width="2.00"/>
<path d="M 322.7 27.6 L 324.5 26.2" stroke-width="1.80"/>
<path d="M 324.5 26.2 L 326.2 25.0 L 327.8 24.0 L 328.9 23.6" stroke-width="1.60"/>
<path d="M 328.9 23.6 L 329.7 23.6" stroke-width="1.80"/>
<path d="M 329.7 23.6 L 330.0 24.0" stroke-width="2.00"/>
<path d="M 330.0 24.0 L 330.0 24.9 L 329.8 26.0" stroke-width="2.20"/>
<path d="M 329.8 26.0 L 329.5 27.4 L 329.3 28.6 L 329.3 29.7" stroke-width="2.00"/>
<path d="M 329.3 29.7 L 329.8 30.4 L 330.4 30.7" stroke-width="2.20"/>
<path d="M 330.4 30.7 L 330.9 30.8" stroke-width="2.00"/>
<circle cx="341.7" cy="24.3" r="0.63" fill="currentColor" stroke="none"/>
<path d="M 341.7 24.3 L 341.5 24.1" stroke-width="1.60"/>
<path d="M 341.5 24.1 L 341.0 23.8" stroke-width="2.20"/>
<path d="M 341.0 23.8 L 340.3 23.7 L 339.3 24.0" stroke-width="2.40"/>
<path d="M 339.3 24.0 L 338.2 24.7" stroke-width="2.20"/>
<path d="M 338.2 24.7 L 337.0 25.6 L 336.0 26.5 L 335.5 27.4" stroke-width="2.00"/>
<path d="M 335.5 27.4 L 335.5 28.0" stroke-width="2.20"/>
<path d="M 335.5 28.0 L 336.0 28.2 L 337.2 28.0" stroke-width="2.40"/>
<path d="M 337.2 28.0 L 338.6 27.5" stroke-width="2.20"/>
<path d="M 338.6 27.5 L 340.2 26.6" stroke-width="2.00"/>
<path d="M 340.2 26.6 L 341.7 25.7 L 342.9 25.0 L 343.7 24.4" stroke-width="1.80"/>
<path d="M 343.7 24.4 L 344.0 24.3" stroke-width="2.00"/>
<path d="M 344.0 24.3 L 344.0 24.5" stroke-width="2.40"/>
<path d="M 344.0 24.5 L 343.8 25.3" stroke-width="2.60"/>
<path d="M 343.8 25.3 L 343.3 26.5" stroke-width="2.40"/>
<path d="M 343.3 26.5 L 342.6 28.2" stroke-width="2.20"/>
<path d="M 342.6 28.2 L 341.9 30.2" stroke-width="1.80"/>
<path d="M 341.9 30.2 L 341.1 32.3" stroke-width="1.60"/>
<path d="M 341.1 32.3 L 340.3 34.4 L 339.4 36.2 L 338.5 37.7 L 337.4 38.9" stroke-width="1.40"/>
<path d="M 337.4 38.9 L 336.3 39.7 L 335.2 40.1" stroke-width="1.60"/>
<path d="M 335.2 40.1 L 334.2 40.2" stroke-width="1.80"/>
<path d="M 334.2 40.2 L 333.4 39.9" stroke-width="2.00"/>
<path d="M 333.4 39.9 L 333.0 39.2 L 333.0 38.3 L 333.5 37.2" stroke-width="2.20"/>
<path d="M 333.5 37.2 L 334.1 36.3" stroke-width="2.00"/>
<path d="M 334.1 36.3 L 334.6 35.6" stroke-width="1.80"/>
<circle cx="377.8" cy="23.8" r="0.63" fill="currentColor" stroke="none"/>
<path d="M 377.8 23.8 L 377.6 23.6" stroke-width="1.60"/>
<path d="M 377.6 23.6 L 377.4 23.1" stroke-width="2.20"/>
<path d="M 377.4 23.1 L 376.9 22.7 L 376.3 22.3 L 375.3 22.3" stroke-width="2.60"/>
<path d="M 375.3 22.3 L 374.1 22.5" stroke-width="2.40"/>
<path d="M 374.1 22.5 L 372.5 23.2" stroke-width="2.20"/>
<path d="M 372.5 23.2 L 370.8 24.3" stroke-width="1.80"/>
<path d="M 370.8 24.3 L 369.0 25.8" stroke-width="1.60"/>
<path d="M 369.0 25.8 L 367.5 27.4 L 366.3 28.9 L 365.7 30.2" stroke-width="1.40"/>
<path d="M 365.7 30.2 L 365.5 31.1" stroke-width="1.60"/>
<path d="M 365.5 31.1 L 366.0 31.7" stroke-width="1.80"/>
<path d="M 366.0 31.7 L 366.9 31.7 L 368.3 31.2" stroke-width="2.00"/>
<path d="M 368.3 31.2 L 370.0 30.3" stroke-width="1.80"/>
<path d="M 370.0 30.3 L 371.9 28.9" stroke-width="1.60"/>
<path d="M 371.9 28.9 L 373.8 27.3 L 375.6 25.8 L 377.1 24.5 L 378.1 23.6" stroke-width="1.40"/>
<path d="M 378.1 23.6 L 378.7 23.1" stroke-width="1.60"/>
<path d="M 378.7 23.1 L 378.8 23.0" stroke-width="2.00"/>
<path d="M 378.8 23.0 L 378.6 23.4 L 378.1 24.3" stroke-width="2.40"/>
<path d="M 378.1 24.3 L 377.3 25.6" stroke-width="2.20"/>
<path d="M 377.3 25.6 L 376.6 27.2" stroke-width="2.00"/>
<path d="M 376.6 27.2 L 375.9 28.8 L 375.6 30.2 L 375.7 31.2" stroke-width="1.80"/>
<path d="M 375.7 31.2 L 376.3 31.8 L 377.5 31.7 L 379.1 31.1" stroke-width="2.00"/>
<path d="M 379.1 31.1 L 381.2 30.0" stroke-width="1.80"/>
<path d="M 381.2 30.0 L 383.5 28.6" stroke-width="1.40"/>
<path d="M 383.5 28.6 L 386.1 26.9 L 388.6 25.3 L 391.0 23.8 L 393.2 22.6 L 395.0 21.9" stroke-width="1.20"/>
<path d="M 395.0 21.9 L 396.4 21.6 L 397.5 21.8" stroke-width="1.40"/>
<path d="M 397.5 21.8 L 398.2 22.5" stroke-width="1.60"/>
<path d="M 398.2 22.5 L 398.7 23.5 L 398.9 24.7 L 398.8 26.1 L 398.4 27.4 L 397.7 28.6 L 396.9 29.5" stroke-width="1.80"/>
<path d="M 396.9 29.5 L 395.9 30.1 L 394.7 30.4 L 393.5 30.3 L 392.4 29.9 L 391.6 29.5" stroke-width="2.00"/>
<path d="M 391.6 29.5 L 391.2 29.2" stroke-width="1.80"/>
<circle cx="417.0" cy="22.0" r="0.63" fill="currentColor" stroke="none"/>
<path d="M 417.0 22.0 L 417.1 22.0" stroke-width="1.60"/>
<path d="M 417.1 22.0 L 417.1 22.3" stroke-width="2.40"/>
<path d="M 417.1 22.3 L 417.0 23.0 L 416.7 24.2" stroke-width="2.60"/>
<path d="M 416.7 24.2 L 416.1 25.8" stroke-width="2.20"/>
<path d="M 416.1 25.8 L 415.3 27.7" stroke-width="1.80"/>
<path d="M 415.3 27.7 L 414.5 29.6 L 413.8 31.2 L 413.4 32.2" stroke-width="1.60"/>
<path d="M 413.4 32.2 L 413.2 32.5" stroke-width="2.00"/>
<path d="M 413.2 32.5 L 413.3 32.4" stroke-width="2.20"/>
<path d="M 413.3 32.4 L 413.5 32.0" stroke-width="2.00"/>
<circle cx="420.3" cy="14.6" r="0.63" fill="currentColor" stroke="none"/>
<path d="M 420.3 14.6 L 420.3 14.2" stroke-width="1.60"/>
<path d="M 420.3 14.2 L 420.3 13.7" stroke-width="2.20"/>
<path d="M 420.3 13.7 L 420.3 13.2 L 420.4 13.1 L 420.4 13.2 L 420.5 13.3" stroke-width="2.60"/>
<path d="M 420.5 13.3 L 420.7 13.5" stroke-width="2.40"/>
<path d="M 420.7 13.5 L 420.8 13.6" stroke-width="2.00"/>
<circle cx="432.2" cy="11.6" r="0.63" fill="currentColor" stroke="none"/>
<path d="M 432.2 11.6 L 432.1 11.9" stroke-width="1.60"/>
<path d="M 432.1 11.9 L 431.9 12.8" stroke-width="2.00"/>
<path d="M 431.9 12.8 L 431.3 14.1" stroke-width="2.20"/>
<path d="M 431.3 14.1 L 430.5 15.9" stroke-width="2.00"/>
<path d="M 430.5 15.9 L 429.3 18.0" stroke-width="1.60"/>
<path d="M 429.3 18.0 L 427.9 20.3 L 426.5 22.6" stroke-width="1.40"/>
<path d="M 426.5 22.6 L 425.3 24.8 L 424.4 26.7" stroke-width="1.20"/>
<path d="M 424.4 26.7 L 424.0 28.1 L 423.8 28.9 L 423.7 29.3" stroke-width="1.40"/>
<circle cx="424.4" cy="21.2" r="0.63" fill="currentColor" stroke="none"/>
<path d="M 424.4 21.2 L 424.5 21.2" stroke-width="1.60"/>
<path d="M 424.5 21.2 L 424.9 21.3" stroke-width="2.40"/>
<path d="M 424.9 21.3 L 425.7 21.5" stroke-width="2.60"/>
<path d="M 425.7 21.5 L 427.3 21.7" stroke-width="2.40"/>
<path d="M 427.3 21.7 L 429.5 21.8" stroke-width="2.00"/>
<path d="M 429.5 21.8 L 432.0 21.9" stroke-width="1.60"/>
<path d="M 432.0 21.9 L 434.3 21.9" stroke-width="1.40"/>
<path d="M 434.3 21.9 L 435.7 21.9" stroke-width="1.20"/>
<circle cx="459.4" cy="23.5" r="0.63" fill="currentColor" stroke="none"/>
<path d="M 459.4 23.5 L 459.2 23.1" stroke-width="1.60"/>
<path d="M 459.2 23.1 L 458.8 22.6" stroke-width="2.20"/>
<path d="M 458.8 22.6 L 458.1 22.1 L 457.1 21.9" stroke-width="2.40"/>
<path d="M 457.1 21.9 L 455.6 22.1" stroke-width="2.20"/>
<path d="M 455.6 22.1 L 453.9 22.8" stroke-width="2.00"/>
<path d="M 453.9 22.8 L 452.1 23.8" stroke-width="1.80"/>
<path d="M 452.1 23.8 L 450.6 25.0 L 449.7 26.2" stroke-width="1.60"/>
<path d="M 449.7 26.2 L 449.4 27.1" stroke-width="1.80"/>
<path d="M 449.4 27.1 L 449.9 27.6 L 451.0 27.6 L 452.7 27.1" stroke-width="2.00"/>
<path d="M 452.7 27.1 L 454.7 26.1" stroke-width="1.80"/>
<path d="M 454.7 26.1 L 456.8 24.9" stroke-width="1.60"/>
<path d="M 456.8 24.9 L 458.7 23.7 L 460.2 22.6 L 461.2 21.8" stroke-width="1.40"/>
<path d="M 461.2 21.8 L 461.6 21.4" stroke-width="1.80"/>
<path d="M 461.6 21.4 L 461.6 21.5" stroke-width="2.20"/>
<path d="M 461.6 21.5 L 461.3 22.1 L 460.6 23.2" stroke-width="2.40"/>
<path d="M 460.6 23.2 L 459.6 25.0" stroke-width="2.00"/>
<path d="M 459.6 25.0 L 458.4 27.2" stroke-width="1.60"/>
<path d="M 458.4 27.2 L 457.1 29.8" stroke-width="1.40"/>
<path d="M 457.1 29.8 L 455.7 32.5 L 454.3 35.2 L 453.0 37.7 L 451.6 39.9 L 450.3 41.7 L 449.0 43.0" stroke-width="1.20"/>
<path d="M 449.0 43.0 L 447.8 43.8" stroke-width="1.40"/>
<path d="M 447.8 43.8 L 446.8 44.1" stroke-width="1.60"/>
<path d="M 446.8 44.1 L 446.0 43.8 L 445.5 43.0" stroke-width="1.80"/>
<path d="M 445.5 43.0 L 445.5 41.8" stroke-width="2.00"/>
<path d="M 445.5 41.8 L 446.1 40.2" stroke-width="1.80"/>
<path d="M 446.1 40.2 L 447.4 38.3" stroke-width="1.60"/>
<path d="M 447.4 38.3 L 449.3 36.3" stroke-width="1.40"/>
<path d="M 449.3 36.3 L 451.7 34.3 L 454.6 32.2" stroke-width="1.20"/>
<path d="M 454.6 32.2 L 457.7 30.3 L 460.9 28.4 L 464.2 26.6 L 467.2 25.1 L 470.0 23.7 L 472.3 22.6 L 473.9 21.8" stroke-width="1.00"/>
<path d="M 473.9 21.8 L 474.9 21.3" stroke-width="1.20"/>
<path d="M 474.9 21.3 L 475.2 20.9" stroke-width="1.60"/>
<path d="M 475.2 20.9 L 474.8 20.9" stroke-width="2.00"/>
<path d="M 474.8 20.9 L 473.9 21.3" stroke-width="2.20"/>
<path d="M 473.9 21.3 L 472.4 22.1" stroke-width="2.00"/>
<path d="M 472.4 22.1 L 470.6 23.3" stroke-width="1.80"/>
<path d="M 470.6 23.3 L 468.7 24.9" stroke-width="1.60"/>
<path d="M 468.7 24.9 L 467.0 26.7 L 465.8 28.3 L 465.2 29.5" stroke-width="1.40"/>
<path d="M 465.2 29.5 L 465.4 30.4" stroke-width="1.60"/>
<path d="M 465.4 30.4 L 466.2 30.6" stroke-width="1.80"/>
<path d="M 466.2 30.6 L 467.6 30.3" stroke-width="2.00"/>
<path d="M 467.6 30.3 L 469.2 29.5" stroke-width="1.80"/>
<path d="M 469.2 29.5 L 471.0 28.2" stroke-width="1.60"/>
<path d="M 471.0 28.2 L 472.8 26.7 L 474.2 25.1 L 475.2 23.6" stroke-width="1.40"/>
<path d="M 475.2 23.6 L 475.7 22.5" stroke-width="1.60"/>
<path d="M 475.7 22.5 L 475.8 21.7" stroke-width="1.80"/>
<path d="M 475.8 21.7 L 475.7 21.4" stroke-width="2.00"/>
<path d="M 475.7 21.4 L 475.4 21.3" stroke-width="2.40"/>
<path d="M 475.4 21.3 L 475.2 21.6 L 475.0 22.3 L 475.2 23.1 L 475.8 23.9" stroke-width="2.60"/>
<path d="M 475.8 23.9 L 476.8 24.6" stroke-width="2.40"/>
<path d="M 476.8 24.6 L 478.3 25.0" stroke-width="2.20"/>
<path d="M 478.3 25.0 L 480.3 24.9" stroke-width="1.80"/>
<path d="M 480.3 24.9 L 482.5 24.5" stroke-width="1.60"/>
<path d="M 482.5 24.5 L 484.8 23.7 L 486.9 22.6 L 488.6 21.5 L 489.8 20.3" stroke-width="1.40"/>
<path d="M 489.8 20.3 L 490.4 19.4" stroke-width="1.60"/>
<path d="M 490.4 19.4 L 490.2 18.8" stroke-width="1.80"/>
<path d="M 490.2 18.8 L 489.3 18.5 L 487.9 18.8" stroke-width="2.00"/>
<path d="M 487.9 18.8 L 486.1 19.6" stroke-width="1.80"/>
<path d="M 486.1 19.6 L 484.2 20.9" stroke-width="1.60"/>
<path d="M 484.2 20.9 L 482.3 22.5 L 480.8 24.1 L 480.0 25.7 L 479.9 27.0" stroke-width="1.40"/>
<path d="M 479.9 27.0 L 480.6 27.8 L 482.2 28.2 L 484.4 28.1" stroke-width="1.60"/>
<path d="M 484.4 28.1 L 487.0 27.5" stroke-width="1.40"/>
<path d="M 487.0 27.5 L 490.0 26.4 L 493.0 25.2" stroke-width="1.20"/>
<path d="M 493.0 25.2 L 495.8 23.9 L 498.2 22.6" stroke-width="1.00"/>
<path d="M 498.2 22.6 L 500.2 21.6 L 501.7 20.9" stroke-width="1.20"/>
<path d="M 501.7 20.9 L 502.7 20.6" stroke-width="1.40"/>
<path d="M 502.7 20.6 L 503.4 20.8" stroke-width="1.60"/>
<path d="M 503.4 20.8 L 503.7 21.3 L 503.9 22.2 L 504.0 23.5 L 503.8 24.8 L 503.5 26.2 L 503.0 27.4 L 502.3 28.4 L 501.3 29.1 L 500.0 29.5" stroke-width="2.00"/>
<path d="M 500.0 29.5 L 498.5 29.7 L 497.1 29.6" stroke-width="1.80"/>
<path d="M 497.1 29.6 L 496.2 29.5" stroke-width="1.60"/>
</svg>
