<svg xmlns="http://www.w3.org/2000/svg" viewBox="0 0 486.6 43.6" fill="none" stroke="currentColor" stroke-linecap="round" stroke-linejoin="round" role="img">
<circle cx="15.9" cy="18.4" r="0.63" fill="currentColor" stroke="none"/>
<path d="M 15.9 18.4 L 15.5 18.2" stroke-width="1.60"/>
<path d="M 15.5 18.2 L 14.8 17.9" stroke-width="2.00"/>
<path d="M 14.8 17.9 L 13.8 17.8 L 12.5 18.0" stroke-width="2.20"/>
<path d="M 12.5 18.0 L 11.1 18.7" stroke-width="2.00"/>
<path d="M 11.1 18.7 L 9.6 19.8" stroke-width="1.80"/>
<path d="M 9.6 19.8 L 8.1 21.3" stroke-width="1.60"/>
<path d="M 8.1 21.3 L 6.9 23.0 L 6.2 24.7 L 6.0 26.2" stroke-width="1.40"/>
<path d="M 6.0 26.2 L 6.3 27.3 L 7.1 27.9" stroke-width="1.60"/>
<path d="M 7.1 27.9 L 8.4 27.9 L 9.9 27.4" stroke-width="1.80"/>
<path d="M 9.9 27.4 L 11.7 26.3" stroke-width="1.60"/>
<path d="M 11.7 26.3 L 13.6 24.8" stroke-width="1.40"/>
<path d="M 13.6 24.8 L 15.4 23.0 L 17.1 21.1 L 18.4 19.4 L 19.3 18.1" stroke-width="1.20"/>
<path d="M 19.3 18.1 L 19.8 17.1" stroke-width="1.40"/>
<path d="M 19.8 17.1 L 20.0 16.7" stroke-width="1.60"/>
<path d="M 20.0 16.7 L 19.9 16.7" stroke-width="2.00"/>
<path d="M 19.9 16.7 L 19.8 17.4 L 19.7 18.5" stroke-width="2.40"/>
<path d="M 19.7 18.5 L 19.6 20.2" stroke-width="2.00"/>
<path d="M 19.6 20.2 L 19.5 22.0" stroke-width="1.80"/>
<path d="M 19.5 22.0 L 19.7 24.0 L 20.1 25.7 L 20.7 27.1" stroke-width="1.60"/>
<path d="M 20.7 27.1 L 21.3 28.1 L 21.7 28.7" stroke-width="1.40"/>
<circle cx="48.4" cy="6.0" r="0.63" fill="currentColor" stroke="none"/>
<path d="M 48.4 6.0 L 48.2 6.4" stroke-width="1.60"/>
<path d="M 48.2 6.4 L 48.0 7.4 L 47.6 8.8" stroke-width="2.00"/>
<path d="M 47.6 8.8 L 47.3 10.6" stroke-width="1.80"/>
<path d="M 47.3 10.6 L 46.9 12.7" stroke-width="1.60"/>
<path d="M 46.9 12.7 L 46.6 15.0 L 46.2 17.4" stroke-width="1.40"/>
<path d="M 46.2 17.4 L 46.0 19.8 L 45.8 22.0 L 45.9 23.9" stroke-width="1.20"/>
<path d="M 45.9 23.9 L 46.1 25.4 L 46.6 26.4" stroke-width="1.40"/>
<path d="M 46.6 26.4 L 47.2 26.9" stroke-width="1.60"/>
<path d="M 47.2 26.9 L 48.1 26.9" stroke-width="1.80"/>
<path d="M 48.1 26.9 L 49.1 26.4" stroke-width="2.00"/>
<path d="M 49.1 26.4 L 50.4 25.3" stroke-width="1.80"/>
<path d="M 50.4 25.3 L 52.0 23.9" stroke-width="1.60"/>
<path d="M 52.0 23.9 L 53.6 22.3 L 55.3 20.6" stroke-width="1.40"/>
<path d="M 55.3 20.6 L 56.9 19.1 L 58.3 17.8" stroke-width="1.20"/>
<path d="M 58.3 17.8 L 59.3 16.9" stroke-width="1.40"/>
<path d="M 59.3 16.9 L 60.1 16.3" stroke-width="1.60"/>
<path d="M 60.1 16.3 L 60.5 16.0" stroke-width="1.80"/>
<path d="M 60.5 16.0 L 60.8 16.1" stroke-width="2.20"/>
<path d="M 60.8 16.1 L 60.8 16.5 L 60.7 17.5 L 60.5 18.7" stroke-width="2.40"/>
<path d="M 60.5 18.7 L 60.2 20.2" stroke-width="2.00"/>
<path d="M 60.2 20.2 L 59.8 21.8 L 59.4 23.3 L 59.2 24.6 L 59.1 25.4" stroke-width="1.80"/>
<path d="M 59.1 25.4 L 59.1 25.8" stroke-width="2.00"/>
<path d="M 59.1 25.8 L 59.2 25.8" stroke-width="2.20"/>
<path d="M 59.2 25.8 L 59.2 25.6" stroke-width="2.00"/>
<circle cx="61.5" cy="7.2" r="0.63" fill="currentColor" stroke="none"/>
<path d="M 61.5 7.2 L 61.5 7.2" stroke-width="1.60"/>
<path d="M 61.5 7.2 L 61.6 7.3 L 61.6 7.4" stroke-width="2.40"/>
<path d="M 61.6 7.4 L 61.7 7.6" stroke-width="2.00"/>
<circle cx="66.6" cy="15.2" r="0.63" fill="currentColor" stroke="none"/>
<path d="M 66.6 15.2 L 66.7 15.5" stroke-width="1.60"/>
<path d="M 66.7 15.5 L 66.8 16.3" stroke-width="2.00"/>
<path d="M 66.8 16.3 L 67.0 17.4" stroke-width="2.20"/>
<path d="M 67.0 17.4 L 67.1 18.8 L 67.1 20.3" stroke-width="2.00"/>
<path d="M 67.1 20.3 L 67.1 21.7 L 67.0 23.0 L 67.0 23.9" stroke-width="1.80"/>
<path d="M 67.0 23.9 L 67.0 24.5" stroke-width="2.00"/>
<path d="M 67.0 24.5 L 67.0 24.8" stroke-width="2.40"/>
<path d="M 67.0 24.8 L 67.1 24.6 L 67.4 24.0 L 67.9 23.0" stroke-width="2.60"/>
<path d="M 67.9 23.0 L 68.7 21.6" stroke-width="2.20"/>
<path d="M 68.7 21.6 L 69.8 20.1" stroke-width="2.00"/>
<path d="M 69.8 20.1 L 71.1 18.7 L 72.6 17.3" stroke-width="1.60"/>
<path d="M 72.6 17.3 L 74.2 16.2 L 75.7 15.5 L 77.2 15.1" stroke-width="1.40"/>
<path d="M 77.2 15.1 L 78.6 15.1 L 79.9 15.6 L 80.9 16.5 L 81.6 17.9 L 82.0 19.5 L 82.2 21.2 L 82.1 22.9 L 82.0 24.3 L 82.0 25.5" stroke-width="1.60"/>
<path d="M 82.0 25.5 L 82.1 26.3" stroke-width="1.80"/>
<path d="M 82.1 26.3 L 82.2 26.7" stroke-width="2.00"/>
<path d="M 82.2 26.7 L 82.3 26.8" stroke-width="1.80"/>
<circle cx="86.9" cy="22.9" r="0.63" fill="currentColor" stroke="none"/>
<path d="M 86.9 22.9 L 87.0 22.9" stroke-width="1.60"/>
<path d="M 87.0 22.9 L 87.4 22.7" stroke-width="2.20"/>
<path d="M 87.4 22.7 L 88.1 22.4" stroke-width="2.60"/>
<path d="M 88.1 22.4 L 89.1 21.9" stroke-width="2.40"/>
<path d="M 89.1 21.9 L 90.4 21.2" stroke-width="2.20"/>
<path d="M 90.4 21.2 L 91.8 20.3" stroke-width="2.00"/>
<path d="M 91.8 20.3 L 93.1 19.3" stroke-width="1.80"/>
<path d="M 93.1 19.3 L 94.2 18.3 L 95.1 17.3" stroke-width="1.60"/>
<path d="M 95.1 17.3 L 95.7 16.4" stroke-width="1.80"/>
<path d="M 95.7 16.4 L 95.8 15.7" stroke-width="2.00"/>
<path d="M 95.8 15.7 L 95.4 15.3 L 94.6 15.2 L 93.3 15.4" stroke-width="2.20"/>
<path d="M 93.3 15.4 L 91.7 16.1" stroke-width="2.00"/>
<path d="M 91.7 16.1 L 89.9 17.2 L 88.2 18.6" stroke-width="1.60"/>
<path d="M 88.2 18.6 L 86.8 20.2 L 85.8 21.7 L 85.4 23.1" stroke-width="1.40"/>
<path d="M 85.4 23.1 L 85.6 24.4 L 86.5 25.3 L 87.9 25.9 L 89.8 26.2" stroke-width="1.60"/>
<path d="M 89.8 26.2 L 92.1 26.1 L 94.6 25.7" stroke-width="1.40"/>
<path d="M 94.6 25.7 L 96.6 25.3" stroke-width="1.20"/>
<path d="M 96.6 25.3 L 98.0 25.0" stroke-width="1.00"/>
<circle cx="123.5" cy="18.3" r="0.63" fill="currentColor" stroke="none"/>
<path d="M 123.5 18.3 L 123.4 18.0" stroke-width="1.60"/>
<path d="M 123.4 18.0 L 123.0 17.6" stroke-width="2.20"/>
<path d="M 123.0 17.6 L 122.4 17.3 L 121.5 17.1" stroke-width="2.40"/>
<path d="M 121.5 17.1 L 120.4 17.2" stroke-width="2.20"/>
<path d="M 120.4 17.2 L 119.0 17.6" stroke-width="2.00"/>
<path d="M 119.0 17.6 L 117.4 18.4" stroke-width="1.80"/>
<path d="M 117.4 18.4 L 115.9 19.4 L 114.6 20.7 L 113.5 22.1 L 112.9 23.5 L 112.9 24.8 L 113.3 25.8" stroke-width="1.60"/>
<path d="M 113.3 25.8 L 114.4 26.5 L 115.8 26.8" stroke-width="1.80"/>
<path d="M 115.8 26.8 L 117.5 26.6 L 119.4 26.0" stroke-width="1.60"/>
<path d="M 119.4 26.0 L 121.4 25.0 L 123.1 23.8 L 124.5 22.4 L 125.4 21.1 L 125.8 19.8" stroke-width="1.40"/>
<path d="M 125.8 19.8 L 125.7 18.7" stroke-width="1.60"/>
<path d="M 125.7 18.7 L 125.2 17.8 L 124.5 17.1" stroke-width="1.80"/>
<path d="M 124.5 17.1 L 123.8 16.7 L 123.2 16.5" stroke-width="2.00"/>
<path d="M 123.2 16.5 L 122.9 16.5" stroke-width="1.80"/>
<circle cx="140.4" cy="10.6" r="0.63" fill="currentColor" stroke="none"/>
<path d="M 140.4 10.6 L 140.3 9.9" stroke-width="1.60"/>
<path d="M 140.3 9.9 L 140.0 9.0 L 139.5 7.9 L 138.8 7.0 L 137.9 6.5 L 136.8 6.3 L 135.5 6.5" stroke-width="2.00"/>
<path d="M 135.5 6.5 L 134.2 7.2 L 132.9 8.4" stroke-width="1.80"/>
<path d="M 132.9 8.4 L 131.8 9.9" stroke-width="1.60"/>
<path d="M 131.8 9.9 L 130.9 11.8 L 130.3 13.9 L 129.9 16.2" stroke-width="1.40"/>
<path d="M 129.9 16.2 L 129.8 18.7 L 129.8 21.1 L 129.9 23.4 L 130.1 25.6 L 130.4 27.5 L 130.7 29.1" stroke-width="1.20"/>
<path d="M 130.7 29.1 L 131.1 30.2" stroke-width="1.40"/>
<path d="M 131.1 30.2 L 131.4 30.9" stroke-width="1.60"/>
<path d="M 131.4 30.9 L 131.7 31.0" stroke-width="2.00"/>
<path d="M 131.7 31.0 L 131.8 30.8" stroke-width="2.20"/>
<path d="M 131.8 30.8 L 131.9 30.6" stroke-width="2.00"/>
<circle cx="127.3" cy="20.2" r="0.63" fill="currentColor" stroke="none"/>
<path d="M 127.3 20.2 L 127.4 20.2" stroke-width="1.60"/>
<path d="M 127.4 20.2 L 127.9 20.2" stroke-width="2.20"/>
<path d="M 127.9 20.2 L 128.8 20.2" stroke-width="2.40"/>
<path d="M 128.8 20.2 L 130.2 20.2" stroke-width="2.20"/>
<path d="M 130.2 20.2 L 132.0 20.2" stroke-width="2.00"/>
<path d="M 132.0 20.2 L 134.1 20.2" stroke-width="1.60"/>
<path d="M 134.1 20.2 L 135.9 20.3" stroke-width="1.40"/>
<path d="M 135.9 20.3 L 137.0 20.3" stroke-width="1.20"/>
<circle cx="160.0" cy="17.9" r="0.63" fill="currentColor" stroke="none"/>
<path d="M 160.0 17.9 L 160.0 18.0" stroke-width="1.60"/>
<path d="M 160.0 18.0 L 160.1 18.2" stroke-width="2.40"/>
<path d="M 160.1 18.2 L 160.2 18.8 L 160.2 19.7" stroke-width="2.60"/>
<path d="M 160.2 19.7 L 160.2 21.0" stroke-width="2.40"/>
<path d="M 160.2 21.0 L 160.1 22.6" stroke-width="2.00"/>
<path d="M 160.1 22.6 L 159.9 24.2 L 159.8 25.7 L 159.6 27.0 L 159.4 28.0 L 159.4 28.5 L 159.3 28.7" stroke-width="1.80"/>
<circle cx="162.5" cy="9.0" r="0.63" fill="currentColor" stroke="none"/>
<path d="M 162.5 9.0 L 162.5 9.0" stroke-width="1.60"/>
<path d="M 162.5 9.0 L 162.5 9.1 L 162.6 9.1" stroke-width="2.40"/>
<path d="M 162.6 9.1 L 162.7 9.2" stroke-width="2.00"/>
<circle cx="167.7" cy="16.8" r="0.63" fill="currentColor" stroke="none"/>
<path d="M 167.7 16.8 L 167.7 17.3" stroke-width="1.60"/>
<path d="M 167.7 17.3 L 167.6 18.2 L 167.5 19.5 L 167.4 21.0" stroke-width="2.00"/>
<path d="M 167.4 21.0 L 167.2 22.5 L 167.0 23.9 L 166.7 25.1 L 166.6 26.0" stroke-width="1.80"/>
<path d="M 166.6 26.0 L 166.5 26.5" stroke-width="2.00"/>
<path d="M 166.5 26.5 L 166.6 26.5" stroke-width="2.40"/>
<path d="M 166.6 26.5 L 166.8 26.0 L 167.2 25.0" stroke-width="2.60"/>
<path d="M 167.2 25.0 L 167.8 23.7" stroke-width="2.20"/>
<path d="M 167.8 23.7 L 168.6 22.1" stroke-width="2.00"/>
<path d="M 168.6 22.1 L 169.7 20.4" stroke-width="1.80"/>
<path d="M 169.7 20.4 L 170.9 18.8" stroke-width="1.60"/>
<path d="M 170.9 18.8 L 172.1 17.4 L 173.4 16.4" stroke-width="1.40"/>
<path d="M 173.4 16.4 L 174.7 15.8 L 176.0 15.6 L 177.1 15.9" stroke-width="1.60"/>
<path d="M 177.1 15.9 L 178.1 16.6 L 178.9 17.7 L 179.4 19.1" stroke-width="1.80"/>
<path d="M 179.4 19.1 L 179.7 20.7 L 179.8 22.3 L 179.7 23.9 L 179.7 25.2" stroke-width="1.60"/>
<path d="M 179.7 25.2 L 179.7 26.1" stroke-width="1.80"/>
<path d="M 179.7 26.1 L 179.8 26.6" stroke-width="2.00"/>
<path d="M 179.8 26.6 L 180.0 26.8" stroke-width="2.20"/>
<path d="M 180.0 26.8 L 180.1 26.8" stroke-width="2.00"/>
<circle cx="187.1" cy="7.5" r="0.63" fill="currentColor" stroke="none"/>
<path d="M 187.1 7.5 L 187.1 7.2" stroke-width="1.60"/>
<path d="M 187.1 7.2 L 187.2 7.1" stroke-width="2.20"/>
<path d="M 187.2 7.1 L 187.3 7.2 L 187.4 7.9 L 187.3 9.1" stroke-width="2.60"/>
<path d="M 187.3 9.1 L 187.1 10.8" stroke-width="2.20"/>
<path d="M 187.1 10.8 L 186.8 12.9" stroke-width="1.80"/>
<path d="M 186.8 12.9 L 186.5 15.1" stroke-width="1.60"/>
<path d="M 186.5 15.1 L 186.3 17.3 L 186.1 19.5 L 185.9 21.4 L 185.8 23.0 L 185.9 24.1" stroke-width="1.40"/>
<path d="M 185.9 24.1 L 186.0 24.9" stroke-width="1.60"/>
<path d="M 186.0 24.9 L 186.3 25.2 L 186.5 25.3" stroke-width="1.80"/>
<circle cx="193.8" cy="16.3" r="0.63" fill="currentColor" stroke="none"/>
<path d="M 193.8 16.3 L 193.7 16.1" stroke-width="1.60"/>
<path d="M 193.7 16.1 L 193.5 16.0" stroke-width="2.20"/>
<path d="M 193.5 16.0 L 192.9 16.0 L 191.9 16.4" stroke-width="2.60"/>
<path d="M 191.9 16.4 L 190.6 17.1" stroke-width="2.20"/>
<path d="M 190.6 17.1 L 189.1 18.1" stroke-width="2.00"/>
<path d="M 189.1 18.1 L 187.7 19.2" stroke-width="1.80"/>
<path d="M 187.7 19.2 L 186.6 20.3 L 186.0 21.4" stroke-width="1.60"/>
<path d="M 186.0 21.4 L 186.1 22.3" stroke-width="1.80"/>
<path d="M 186.1 22.3 L 186.7 23.0 L 187.9 23.5" stroke-width="2.00"/>
<path d="M 187.9 23.5 L 189.7 23.9" stroke-width="1.80"/>
<path d="M 189.7 23.9 L 191.8 24.1" stroke-width="1.60"/>
<path d="M 191.8 24.1 L 194.0 24.2 L 196.1 24.2 L 198.0 24.1 L 199.5 23.9" stroke-width="1.40"/>
<path d="M 199.5 23.9 L 200.5 23.8" stroke-width="1.60"/>
<path d="M 200.5 23.8 L 201.1 23.6" stroke-width="1.80"/>
<path d="M 201.1 23.6 L 201.3 23.6" stroke-width="2.20"/>
<path d="M 201.3 23.6 L 201.3 23.6 L 201.2 23.7" stroke-width="2.40"/>
<path d="M 201.2 23.7 L 201.1 23.7" stroke-width="2.00"/>
<circle cx="207.7" cy="25.1" r="0.63" fill="currentColor" stroke="none"/>
<path d="M 207.7 25.1 L 207.7 25.1" stroke-width="1.60"/>
<path d="M 207.7 25.1 L 207.6 25.3" stroke-width="2.40"/>
<path d="M 207.6 25.3 L 207.5 25.8 L 207.2 26.5" stroke-width="2.60"/>
<path d="M 207.2 26.5 L 206.7 27.5" stroke-width="2.40"/>
<path d="M 206.7 27.5 L 206.1 28.7" stroke-width="2.20"/>
<path d="M 206.1 28.7 L 205.3 30.1" stroke-width="2.00"/>
<path d="M 205.3 30.1 L 204.5 31.6" stroke-width="1.80"/>
<path d="M 204.5 31.6 L 203.7 33.0 L 203.1 34.2 L 202.6 35.0 L 202.4 35.4" stroke-width="1.60"/>
<circle cx="227.4" cy="7.5" r="0.63" fill="currentColor" stroke="none"/>
<path d="M 227.4 7.5 L 227.4 7.6" stroke-width="1.60"/>
<path d="M 227.4 7.6 L 227.4 7.7" stroke-width="2.40"/>
<path d="M 227.4 7.7 L 227.4 8.2 L 227.3 9.1" stroke-width="2.60"/>
<path d="M 227.3 9.1 L 227.2 10.4" stroke-width="2.40"/>
<path d="M 227.2 10.4 L 226.9 12.2" stroke-width="2.00"/>
<path d="M 226.9 12.2 L 226.5 14.2" stroke-width="1.80"/>
<path d="M 226.5 14.2 L 226.0 16.5" stroke-width="1.60"/>
<path d="M 226.0 16.5 L 225.4 18.8" stroke-width="1.40"/>
<path d="M 225.4 18.8 L 224.9 21.0 L 224.5 23.0" stroke-width="1.20"/>
<path d="M 224.5 23.0 L 224.1 24.7 L 223.8 26.0" stroke-width="1.40"/>
<path d="M 223.8 26.0 L 223.6 26.9 L 223.5 27.4" stroke-width="1.60"/>
<path d="M 223.5 27.4 L 223.5 27.6" stroke-width="1.80"/>
<circle cx="220.4" cy="17.0" r="0.63" fill="currentColor" stroke="none"/>
<path d="M 220.4 17.0 L 220.7 16.9" stroke-width="1.60"/>
<path d="M 220.7 16.9 L 221.4 16.9 L 222.5 16.9" stroke-width="2.20"/>
<path d="M 222.5 16.9 L 224.1 16.8" stroke-width="2.00"/>
<path d="M 224.1 16.8 L 226.0 16.6" stroke-width="1.80"/>
<path d="M 226.0 16.6 L 227.9 16.3" stroke-width="1.60"/>
<path d="M 227.9 16.3 L 229.5 15.9" stroke-width="1.40"/>
<path d="M 229.5 15.9 L 230.4 15.7" stroke-width="1.20"/>
<circle cx="235.7" cy="8.5" r="0.63" fill="currentColor" stroke="none"/>
<path d="M 235.7 8.5 L 235.8 8.8" stroke-width="1.60"/>
<path d="M 235.8 8.8 L 235.9 9.5 L 235.9 10.6" stroke-width="2.20"/>
<path d="M 235.9 10.6 L 235.9 12.0" stroke-width="2.00"/>
<path d="M 235.9 12.0 L 235.7 13.8" stroke-width="1.80"/>
<path d="M 235.7 13.8 L 235.3 15.8 L 234.8 17.8" stroke-width="1.60"/>
<path d="M 234.8 17.8 L 234.2 19.8 L 233.7 21.6 L 233.3 23.0" stroke-width="1.40"/>
<path d="M 233.3 23.0 L 233.1 23.9" stroke-width="1.60"/>
<path d="M 233.1 23.9 L 233.1 24.4" stroke-width="1.80"/>
<path d="M 233.1 24.4 L 233.2 24.3" stroke-width="2.20"/>
<path d="M 233.2 24.3 L 233.6 23.8 L 234.2 22.8" stroke-width="2.40"/>
<path d="M 234.2 22.8 L 235.0 21.4" stroke-width="2.20"/>
<path d="M 235.0 21.4 L 236.1 19.9" stroke-width="1.80"/>
<path d="M 236.1 19.9 L 237.4 18.5 L 238.7 17.2 L 240.1 16.2 L 241.4 15.6 L 242.7 15.4 L 243.9 15.5" stroke-width="1.60"/>
<path d="M 243.9 15.5 L 244.8 16.1 L 245.5 17.0 L 245.8 18.3 L 245.7 19.8 L 245.5 21.4" stroke-width="1.80"/>
<path d="M 245.5 21.4 L 245.2 23.0 L 244.9 24.2 L 244.7 25.1 L 244.7 25.5" stroke-width="1.60"/>
<circle cx="251.3" cy="16.9" r="0.63" fill="currentColor" stroke="none"/>
<path d="M 251.3 16.9 L 251.4 17.1" stroke-width="1.60"/>
<path d="M 251.4 17.1 L 251.5 17.6" stroke-width="2.20"/>
<path d="M 251.5 17.6 L 251.6 18.5" stroke-width="2.40"/>
<path d="M 251.6 18.5 L 251.5 19.7" stroke-width="2.20"/>
<path d="M 251.5 19.7 L 251.3 21.1 L 250.9 22.5" stroke-width="2.00"/>
<path d="M 250.9 22.5 L 250.6 23.6" stroke-width="1.80"/>
<path d="M 250.6 23.6 L 250.4 24.2" stroke-width="1.60"/>
<circle cx="252.5" cy="9.2" r="0.63" fill="currentColor" stroke="none"/>
<path d="M 252.5 9.2 L 252.6 9.2" stroke-width="1.60"/>
<path d="M 252.6 9.2 L 252.7 9.3 L 252.9 9.5" stroke-width="2.40"/>
<path d="M 252.9 9.5 L 253.0 9.7" stroke-width="2.00"/>
<circle cx="257.1" cy="17.9" r="0.63" fill="currentColor" stroke="none"/>
<path d="M 257.1 17.9 L 257.1 18.5" stroke-width="1.60"/>
<path d="M 257.1 18.5 L 256.9 19.6 L 256.7 21.1" stroke-width="2.00"/>
<path d="M 256.7 21.1 L 256.5 22.5 L 256.3 23.7 L 256.1 24.6" stroke-width="1.80"/>
<path d="M 256.1 24.6 L 256.0 25.2" stroke-width="2.00"/>
<path d="M 256.0 25.2 L 256.1 25.3" stroke-width="2.40"/>
<path d="M 256.1 25.3 L 256.3 25.0 L 256.7 24.2" stroke-width="2.60"/>
<path d="M 256.7 24.2 L 257.4 22.9" stroke-width="2.40"/>
<path d="M 257.4 22.9 L 258.4 21.4" stroke-width="2.00"/>
<path d="M 258.4 21.4 L 259.5 19.8" stroke-width="1.80"/>
<path d="M 259.5 19.8 L 260.8 18.3" stroke-width="1.60"/>
<path d="M 260.8 18.3 L 262.2 16.9 L 263.6 15.9 L 264.9 15.3" stroke-width="1.40"/>
<path d="M 264.9 15.3 L 266.2 15.1 L 267.4 15.3" stroke-width="1.60"/>
<path d="M 267.4 15.3 L 268.5 16.0 L 269.3 17.0 L 269.9 18.3" stroke-width="1.80"/>
<path d="M 269.9 18.3 L 270.2 19.9 L 270.3 21.4 L 270.3 23.0 L 270.2 24.3 L 270.2 25.2 L 270.2 25.7" stroke-width="1.60"/>
<circle cx="277.7" cy="8.9" r="0.63" fill="currentColor" stroke="none"/>
<path d="M 277.7 8.9 L 277.7 8.6" stroke-width="1.60"/>
<path d="M 277.7 8.6 L 277.8 8.3" stroke-width="2.20"/>
<path d="M 277.8 8.3 L 277.9 8.3 L 278.0 8.7 L 278.0 9.7" stroke-width="2.60"/>
<path d="M 278.0 9.7 L 277.8 11.3" stroke-width="2.40"/>
<path d="M 277.8 11.3 L 277.4 13.2" stroke-width="2.00"/>
<path d="M 277.4 13.2 L 276.9 15.4" stroke-width="1.60"/>
<path d="M 276.9 15.4 L 276.4 17.7 L 275.9 19.9 L 275.6 21.9 L 275.4 23.5 L 275.4 24.7" stroke-width="1.40"/>
<path d="M 275.4 24.7 L 275.5 25.5" stroke-width="1.60"/>
<path d="M 275.5 25.5 L 275.7 25.8 L 275.9 25.9" stroke-width="1.80"/>
<circle cx="282.8" cy="16.6" r="0.63" fill="currentColor" stroke="none"/>
<path d="M 282.8 16.6 L 282.8 16.3" stroke-width="1.60"/>
<path d="M 282.8 16.3 L 282.8 16.0" stroke-width="2.20"/>
<path d="M 282.8 16.0 L 282.6 15.8 L 282.1 15.9 L 281.2 16.4" stroke-width="2.60"/>
<path d="M 281.2 16.4 L 280.0 17.2" stroke-width="2.40"/>
<path d="M 280.0 17.2 L 278.7 18.2" stroke-width="2.00"/>
<path d="M 278.7 18.2 L 277.5 19.4 L 276.7 20.5 L 276.4 21.5 L 276.5 22.4" stroke-width="1.80"/>
<path d="M 276.5 22.4 L 277.2 23.0 L 278.4 23.4" stroke-width="2.00"/>
<path d="M 278.4 23.4 L 279.9 23.5 L 281.7 23.4" stroke-width="1.80"/>
<path d="M 281.7 23.4 L 283.7 22.9" stroke-width="1.60"/>
<path d="M 283.7 22.9 L 285.6 22.3 L 287.4 21.5 L 289.0 20.6 L 290.3 19.6 L 291.3 18.8" stroke-width="1.40"/>
<path d="M 291.3 18.8 L 292.0 18.2" stroke-width="1.60"/>
<path d="M 292.0 18.2 L 292.4 17.8" stroke-width="1.80"/>
<path d="M 292.4 17.8 L 292.5 17.6" stroke-width="2.20"/>
<path d="M 292.5 17.6 L 292.5 17.7 L 292.3 18.1 L 292.1 18.9 L 291.8 19.9" stroke-width="2.60"/>
<path d="M 291.8 19.9 L 291.6 21.1" stroke-width="2.40"/>
<path d="M 291.6 21.1 L 291.4 22.3" stroke-width="2.20"/>
<path d="M 291.4 22.3 L 291.2 23.3" stroke-width="2.00"/>
<path d="M 291.2 23.3 L 291.2 24.1" stroke-width="2.20"/>
<path d="M 291.2 24.1 L 291.3 24.4" stroke-width="2.40"/>
<path d="M 291.3 24.4 L 291.4 24.4" stroke-width="2.60"/>
<path d="M 291.4 24.4 L 291.6 24.2" stroke-width="2.40"/>
<path d="M 291.6 24.2 L 291.7 23.9" stroke-width="2.00"/>
<circle cx="293.0" cy="9.2" r="0.63" fill="currentColor" stroke="none"/>
<path d="M 293.0 9.2 L 293.1 9.1" stroke-width="1.60"/>
<path d="M 293.1 9.1 L 293.1 8.9 L 293.2 8.8" stroke-width="2.40"/>
<path d="M 293.2 8.8 L 293.3 8.8" stroke-width="2.00"/>
<circle cx="298.1" cy="15.8" r="0.63" fill="currentColor" stroke="none"/>
<path d="M 298.1 15.8 L 298.0 16.3" stroke-width="1.60"/>
<path d="M 298.0 16.3 L 297.9 17.2 L 297.8 18.5 L 297.6 19.9" stroke-width="2.00"/>
<path d="M 297.6 19.9 L 297.4 21.2 L 297.1 22.4 L 296.9 23.4" stroke-width="1.80"/>
<path d="M 296.9 23.4 L 296.7 24.1" stroke-width="2.00"/>
<path d="M 296.7 24.1 L 296.8 24.4" stroke-width="2.40"/>
<path d="M 296.8 24.4 L 296.9 24.2 L 297.3 23.7 L 298.0 22.7" stroke-width="2.60"/>
<path d="M 298.0 22.7 L 298.9 21.4" stroke-width="2.20"/>
<path d="M 298.9 21.4 L 300.1 20.0" stroke-width="1.80"/>
<path d="M 300.1 20.0 L 301.4 18.6 L 302.8 17.4" stroke-width="1.60"/>
<path d="M 302.8 17.4 L 304.3 16.4 L 305.8 15.7" stroke-width="1.40"/>
<path d="M 305.8 15.7 L 307.2 15.4 L 308.5 15.4 L 309.7 15.9" stroke-width="1.60"/>
<path d="M 309.7 15.9 L 310.7 16.7 L 311.4 17.8 L 311.9 19.0 L 312.1 20.3 L 312.2 21.5 L 312.2 22.4" stroke-width="1.80"/>
<path d="M 312.2 22.4 L 312.1 22.9" stroke-width="1.60"/>
<circle cx="323.7" cy="17.9" r="0.63" fill="currentColor" stroke="none"/>
<path d="M 323.7 17.9 L 323.7 17.6" stroke-width="1.60"/>
<path d="M 323.7 17.6 L 323.4 17.1" stroke-width="2.20"/>
<path d="M 323.4 17.1 L 322.9 16.6 L 322.2 16.5 L 321.1 16.7" stroke-width="2.40"/>
<path d="M 321.1 16.7 L 319.8 17.2" stroke-width="2.20"/>
<path d="M 319.8 17.2 L 318.5 18.1" stroke-width="2.00"/>
<path d="M 318.5 18.1 L 317.3 19.2 L 316.4 20.3 L 316.1 21.4 L 316.3 22.3" stroke-width="1.80"/>
<path d="M 316.3 22.3 L 317.0 22.8 L 318.1 22.9 L 319.6 22.7" stroke-width="2.00"/>
<path d="M 319.6 22.7 L 321.2 22.0" stroke-width="1.80"/>
<path d="M 321.2 22.0 L 322.8 21.1 L 324.2 20.0 L 325.4 18.9 L 326.2 17.8 L 326.6 17.0" stroke-width="1.60"/>
<path d="M 326.6 17.0 L 326.7 16.4" stroke-width="2.00"/>
<path d="M 326.7 16.4 L 326.6 16.0" stroke-width="2.20"/>
<path d="M 326.6 16.0 L 326.4 16.0" stroke-width="2.40"/>
<path d="M 326.4 16.0 L 326.1 16.2 L 325.8 16.9 L 325.5 18.0" stroke-width="2.60"/>
<path d="M 325.5 18.0 L 325.3 19.4" stroke-width="2.20"/>
<path d="M 325.3 19.4 L 325.1 21.1" stroke-width="2.00"/>
<path d="M 325.1 21.1 L 325.1 23.0" stroke-width="1.80"/>
<path d="M 325.1 23.0 L 325.2 25.0" stroke-width="1.60"/>
<path d="M 325.2 25.0 L 325.4 27.1 L 325.6 29.2 L 325.7 31.2 L 325.6 33.0 L 325.3 34.5 L 324.7 35.8" stroke-width="1.40"/>
<path d="M 324.7 35.8 L 323.6 36.8 L 322.2 37.4 L 320.5 37.6" stroke-width="1.60"/>
<path d="M 320.5 37.6 L 318.5 37.6 L 316.5 37.2 L 314.6 36.6 L 313.1 36.0" stroke-width="1.40"/>
<path d="M 313.1 36.0 L 312.2 35.6" stroke-width="1.20"/>
<circle cx="355.4" cy="17.0" r="0.63" fill="currentColor" stroke="none"/>
<path d="M 355.4 17.0 L 355.2 16.8" stroke-width="1.60"/>
<path d="M 355.2 16.8 L 354.9 16.5" stroke-width="2.20"/>
<path d="M 354.9 16.5 L 354.2 16.1 L 353.3 15.9" stroke-width="2.40"/>
<path d="M 353.3 15.9 L 352.1 15.9" stroke-width="2.20"/>
<path d="M 352.1 15.9 L 350.6 16.2" stroke-width="2.00"/>
<path d="M 350.6 16.2 L 348.9 16.9" stroke-width="1.80"/>
<path d="M 348.9 16.9 L 347.2 17.9" stroke-width="1.60"/>
<path d="M 347.2 17.9 L 345.5 19.1 L 344.2 20.5 L 343.2 21.9 L 342.8 23.2" stroke-width="1.40"/>
<path d="M 342.8 23.2 L 342.9 24.2" stroke-width="1.60"/>
<path d="M 342.9 24.2 L 343.6 24.9 L 344.7 25.2 L 346.1 25.0" stroke-width="1.80"/>
<path d="M 346.1 25.0 L 347.9 24.3 L 349.8 23.3" stroke-width="1.60"/>
<path d="M 349.8 23.3 L 351.7 22.1 L 353.6 20.7" stroke-width="1.40"/>
<path d="M 353.6 20.7 L 355.1 19.3" stroke-width="1.20"/>
<path d="M 355.1 19.3 L 356.4 18.0 L 357.2 17.1" stroke-width="1.40"/>
<path d="M 357.2 17.1 L 357.6 16.4" stroke-width="1.60"/>
<path d="M 357.6 16.4 L 357.8 16.1" stroke-width="1.80"/>
<path d="M 357.8 16.1 L 357.7 16.2" stroke-width="2.40"/>
<path d="M 357.7 16.2 L 357.4 16.7 L 356.9 17.7" stroke-width="2.60"/>
<path d="M 356.9 17.7 L 356.3 19.0" stroke-width="2.20"/>
<path d="M 356.3 19.0 L 355.7 20.5" stroke-width="2.00"/>
<path d="M 355.7 20.5 L 355.2 22.1 L 355.0 23.5 L 355.2 24.6 L 355.8 25.3" stroke-width="1.80"/>
<path d="M 355.8 25.3 L 356.9 25.5" stroke-width="2.00"/>
<path d="M 356.9 25.5 L 358.5 25.2" stroke-width="1.80"/>
<path d="M 358.5 25.2 L 360.3 24.5 L 362.3 23.3" stroke-width="1.60"/>
<path d="M 362.3 23.3 L 364.4 21.9" stroke-width="1.40"/>
<path d="M 364.4 21.9 L 366.4 20.4 L 368.3 18.9 L 370.0 17.4 L 371.4 16.2 L 372.6 15.2" stroke-width="1.20"/>
<path d="M 372.6 15.2 L 373.6 14.5" stroke-width="1.40"/>
<path d="M 373.6 14.5 L 374.5 14.1" stroke-width="1.60"/>
<path d="M 374.5 14.1 L 375.3 14.0" stroke-width="1.80"/>
<path d="M 375.3 14.0 L 376.0 14.4 L 376.8 15.0 L 377.6 15.9 L 378.2 17.1" stroke-width="2.00"/>
<path d="M 378.2 17.1 L 378.7 18.4 L 379.1 19.6 L 379.3 20.8 L 379.3 21.9" stroke-width="1.80"/>
<path d="M 379.3 21.9 L 379.0 22.8 L 378.3 23.4 L 377.4 23.9 L 376.0 24.2" stroke-width="2.00"/>
<path d="M 376.0 24.2 L 374.4 24.2 L 372.6 24.1" stroke-width="1.80"/>
<path d="M 372.6 24.1 L 371.0 23.9 L 369.7 23.6" stroke-width="1.60"/>
<path d="M 369.7 23.6 L 368.9 23.4" stroke-width="1.40"/>
<circle cx="395.6" cy="17.1" r="0.63" fill="currentColor" stroke="none"/>
<path d="M 395.6 17.1 L 395.6 17.3" stroke-width="1.60"/>
<path d="M 395.6 17.3 L 395.6 17.8" stroke-width="2.20"/>
<path d="M 395.6 17.8 L 395.7 18.7 L 395.7 19.7" stroke-width="2.40"/>
<path d="M 395.7 19.7 L 395.7 21.0" stroke-width="2.20"/>
<path d="M 395.7 21.0 L 395.6 22.2 L 395.3 23.4 L 395.0 24.4 L 394.8 25.1" stroke-width="2.00"/>
<path d="M 394.8 25.1 L 394.6 25.4 L 394.5 25.4" stroke-width="2.40"/>
<path d="M 394.5 25.4 L 394.5 25.2" stroke-width="2.00"/>
<circle cx="397.7" cy="7.8" r="0.63" fill="currentColor" stroke="none"/>
<path d="M 397.7 7.8 L 397.7 7.7" stroke-width="1.60"/>
<path d="M 397.7 7.7 L 397.7 7.6 L 397.8 7.5" stroke-width="2.40"/>
<path d="M 397.8 7.5 L 397.9 7.5" stroke-width="2.00"/>
<circle cx="406.3" cy="6.4" r="0.63" fill="currentColor" stroke="none"/>
<path d="M 406.3 6.4 L 406.2 7.0" stroke-width="1.60"/>
<path d="M 406.2 7.0 L 406.1 8.1 L 405.9 9.7" stroke-width="2.00"/>
<path d="M 405.9 9.7 L 405.5 11.5" stroke-width="1.80"/>
<path d="M 405.5 11.5 L 405.1 13.6" stroke-width="1.60"/>
<path d="M 405.1 13.6 L 404.5 15.7 L 403.9 17.9" stroke-width="1.40"/>
<path d="M 403.9 17.9 L 403.4 20.1 L 403.0 22.0" stroke-width="1.20"/>
<path d="M 403.0 22.0 L 402.8 23.6 L 402.7 24.7 L 402.7 25.3" stroke-width="1.40"/>
<circle cx="400.8" cy="17.1" r="0.63" fill="currentColor" stroke="none"/>
<path d="M 400.8 17.1 L 401.0 17.1" stroke-width="1.60"/>
<path d="M 401.0 17.1 L 401.4 17.1" stroke-width="2.20"/>
<path d="M 401.4 17.1 L 402.3 17.2" stroke-width="2.40"/>
<path d="M 402.3 17.2 L 403.8 17.3" stroke-width="2.20"/>
<path d="M 403.8 17.3 L 405.8 17.3" stroke-width="2.00"/>
<path d="M 405.8 17.3 L 408.1 17.3" stroke-width="1.60"/>
<path d="M 408.1 17.3 L 410.0 17.3" stroke-width="1.40"/>
<path d="M 410.0 17.3 L 411.3 17.3" stroke-width="1.20"/>
<circle cx="434.7" cy="17.9" r="0.63" fill="currentColor" stroke="none"/>
<path d="M 434.7 17.9 L 434.7 17.6" stroke-width="1.60"/>
<path d="M 434.7 17.6 L 434.5 17.2" stroke-width="2.20"/>
<path d="M 434.5 17.2 L 434.0 16.7 L 433.3 16.4" stroke-width="2.60"/>
<path d="M 433.3 16.4 L 432.1 16.4" stroke-width="2.40"/>
<path d="M 432.1 16.4 L 430.6 16.7" stroke-width="2.20"/>
<path d="M 430.6 16.7 L 429.0 17.3" stroke-width="1.80"/>
<path d="M 429.0 17.3 L 427.4 18.3 L 426.2 19.3 L 425.5 20.4" stroke-width="1.60"/>
<path d="M 425.5 20.4 L 425.5 21.2" stroke-width="1.80"/>
<path d="M 425.5 21.2 L 426.1 21.8 L 427.2 22.0 L 428.7 21.7" stroke-width="2.00"/>
<path d="M 428.7 21.7 L 430.5 21.2" stroke-width="1.80"/>
<path d="M 430.5 21.2 L 432.3 20.4" stroke-width="1.60"/>
<path d="M 432.3 20.4 L 434.1 19.5 L 435.5 18.5" stroke-width="1.40"/>
<path d="M 435.5 18.5 L 436.5 17.8 L 437.1 17.2" stroke-width="1.60"/>
<path d="M 437.1 17.2 L 437.4 17.0" stroke-width="2.00"/>
<path d="M 437.4 17.0 L 437.4 17.1" stroke-width="2.40"/>
<path d="M 437.4 17.1 L 437.1 17.6 L 436.8 18.6" stroke-width="2.60"/>
<path d="M 436.8 18.6 L 436.3 20.0" stroke-width="2.20"/>
<path d="M 436.3 20.0 L 435.8 21.7" stroke-width="2.00"/>
<path d="M 435.8 21.7 L 435.2 23.7 L 434.6 25.8" stroke-width="1.60"/>
<path d="M 434.6 25.8 L 434.0 27.9 L 433.2 29.9 L 432.1 31.7 L 430.8 33.2 L 429.4 34.4 L 427.8 35.1 L 426.2 35.4 L 424.7 35.2 L 423.3 34.5" stroke-width="1.40"/>
<path d="M 423.3 34.5 L 422.2 33.4" stroke-width="1.60"/>
<path d="M 422.2 33.4 L 421.4 32.4 L 421.1 31.6" stroke-width="1.40"/>
<circle cx="446.4" cy="16.6" r="0.63" fill="currentColor" stroke="none"/>
<path d="M 446.4 16.6 L 446.2 16.5" stroke-width="1.60"/>
<path d="M 446.2 16.5 L 445.7 16.3" stroke-width="2.20"/>
<path d="M 445.7 16.3 L 445.1 16.3" stroke-width="2.60"/>
<path d="M 445.1 16.3 L 444.2 16.6" stroke-width="2.40"/>
<path d="M 444.2 16.6 L 443.1 17.3" stroke-width="2.20"/>
<path d="M 443.1 17.3 L 441.9 18.3" stroke-width="2.00"/>
<path d="M 441.9 18.3 L 440.8 19.5 L 440.0 20.8 L 439.8 22.1 L 440.0 23.1 L 440.8 23.8 L 442.1 24.1 L 443.6 23.9" stroke-width="1.80"/>
<path d="M 443.6 23.9 L 445.3 23.3 L 447.1 22.3" stroke-width="1.60"/>
<path d="M 447.1 22.3 L 448.6 21.0 L 449.8 19.6 L 450.5 18.3" stroke-width="1.40"/>
<path d="M 450.5 18.3 L 450.8 17.1 L 450.6 16.2" stroke-width="1.60"/>
<path d="M 450.6 16.2 L 450.1 15.6" stroke-width="1.80"/>
<path d="M 450.1 15.6 L 449.4 15.3 L 448.8 15.2 L 448.4 15.2" stroke-width="2.00"/>
<circle cx="455.1" cy="20.3" r="0.63" fill="currentColor" stroke="none"/>
<path d="M 455.1 20.3 L 455.4 20.5" stroke-width="1.60"/>
<path d="M 455.4 20.5 L 456.0 20.6" stroke-width="2.20"/>
<path d="M 456.0 20.6 L 456.9 20.6" stroke-width="2.40"/>
<path d="M 456.9 20.6 L 457.9 20.4 L 459.1 19.9" stroke-width="2.20"/>
<path d="M 459.1 19.9 L 460.2 19.3 L 461.3 18.5" stroke-width="2.00"/>
<path d="M 461.3 18.5 L 462.2 17.6 L 462.9 16.8" stroke-width="1.80"/>
<path d="M 462.9 16.8 L 463.3 15.9 L 463.2 15.2" stroke-width="2.00"/>
<path d="M 463.2 15.2 L 462.8 14.6 L 462.0 14.4 L 460.8 14.5" stroke-width="2.20"/>
<path d="M 460.8 14.5 L 459.3 14.9" stroke-width="2.00"/>
<path d="M 459.3 14.9 L 457.7 15.7" stroke-width="1.80"/>
<path d="M 457.7 15.7 L 456.1 16.8 L 454.9 18.2 L 454.0 19.6 L 453.8 21.0 L 454.1 22.3 L 455.1 23.4 L 456.6 24.1 L 458.6 24.4" stroke-width="1.60"/>
<path d="M 458.6 24.4 L 461.0 24.3" stroke-width="1.40"/>
<path d="M 461.0 24.3 L 463.5 23.8 L 465.6 23.1" stroke-width="1.20"/>
<path d="M 465.6 23.1 L 467.0 22.6" stroke-width="1.00"/>
<circle cx="476.8" cy="15.3" r="0.63" fill="currentColor" stroke="none"/>
<path d="M 476.8 15.3 L 476.5 15.1" stroke-width="1.60"/>
<path d="M 476.5 15.1 L 475.9 14.8" stroke-width="2.00"/>
<path d="M 475.9 14.8 L 475.0 14.6 L 473.9 14.6 L 472.8 14.9" stroke-width="2.20"/>
<path d="M 472.8 14.9 L 471.8 15.3 L 471.0 15.9" stroke-width="2.00"/>
<path d="M 471.0 15.9 L 470.9 16.6 L 471.3 17.5 L 472.2 18.3" stroke-width="2.20"/>
<path d="M 472.2 18.3 L 473.7 19.2" stroke-width="2.00"/>
<path d="M 473.7 19.2 L 475.4 20.0" stroke-width="1.80"/>
<path d="M 475.4 20.0 L 477.1 20.8 L 478.6 21.6 L 479.8 22.3 L 480.5 22.9" stroke-width="1.60"/>
<path d="M 480.5 22.9 L 480.6 23.4" stroke-width="2.00"/>
<path d="M 480.6 23.4 L 480.2 23.8 L 479.0 24.1" stroke-width="2.20"/>
<path d="M 479.0 24.1 L 477.4 24.4" stroke-width="2.00"/>
<path d="M 477.4 24.4 L 475.2 24.5" stroke-width="1.80"/>
<path d="M 475.2 24.5 L 472.9 24.5 L 470.6 24.4 L 468.4 24.2" stroke-width="1.40"/>
<path d="M 468.4 24.2 L 466.5 23.9" stroke-width="1.20"/>
<path d="M 466.5 23.9 L 465.0 23.4 L 463.9 23.0 L 463.3 22.7" stroke-width="1.40"/>
</svg>
