<svg xmlns="http://www.w3.org/2000/svg" viewBox="0 0 546.3 45.8" fill="none" stroke="currentColor" stroke-linecap="round" stroke-linejoin="round" role="img">
<circle cx="6.2" cy="20.8" r="0.77" fill="currentColor" stroke="none"/>
<path d="M 6.2 20.8 L 6.1 20.8" stroke-width="2.00"/>
<path d="M 6.1 20.8 L 6.1 20.8 L 6.0 20.9" stroke-width="2.60"/>
<circle cx="39.1" cy="19.6" r="0.77" fill="currentColor" stroke="none"/>
<path d="M 39.1 19.6 L 38.8 19.4" stroke-width="2.00"/>
<path d="M 38.8 19.4 L 38.2 19.1" stroke-width="2.60"/>
<path d="M 38.2 19.1 L 37.4 18.8 L 36.4 18.8" stroke-width="2.80"/>
<path d="M 36.4 18.8 L 35.1 19.2" stroke-width="2.60"/>
<path d="M 35.1 19.2 L 33.5 20.0" stroke-width="2.40"/>
<path d="M 33.5 20.0 L 31.6 21.2" stroke-width="2.00"/>
<path d="M 31.6 21.2 L 29.8 22.9" stroke-width="1.80"/>
<path d="M 29.8 22.9 L 28.1 24.8 L 26.9 26.8 L 26.3 28.5 L 26.2 29.9" stroke-width="1.60"/>
<path d="M 26.2 29.9 L 26.8 30.8" stroke-width="1.80"/>
<path d="M 26.8 30.8 L 27.8 31.1" stroke-width="2.00"/>
<path d="M 27.8 31.1 L 29.3 30.8" stroke-width="2.20"/>
<path d="M 29.3 30.8 L 31.0 29.9" stroke-width="2.00"/>
<path d="M 31.0 29.9 L 33.0 28.4" stroke-width="1.80"/>
<path d="M 33.0 28.4 L 35.0 26.5" stroke-width="1.60"/>
<path d="M 35.0 26.5 L 36.9 24.4 L 38.7 22.4 L 40.1 20.8" stroke-width="1.40"/>
<path d="M 40.1 20.8 L 41.0 19.5" stroke-width="1.60"/>
<path d="M 41.0 19.5 L 41.5 18.9" stroke-width="1.80"/>
<path d="M 41.5 18.9 L 41.7 18.8" stroke-width="2.20"/>
<path d="M 41.7 18.8 L 41.6 19.4 L 41.3 20.5" stroke-width="2.60"/>
<path d="M 41.3 20.5 L 41.0 22.1" stroke-width="2.40"/>
<path d="M 41.0 22.1 L 40.7 24.0" stroke-width="2.20"/>
<path d="M 40.7 24.0 L 40.5 26.0" stroke-width="2.00"/>
<path d="M 40.5 26.0 L 40.7 27.8 L 41.2 29.3 L 42.1 30.5" stroke-width="1.80"/>
<path d="M 42.1 30.5 L 43.5 31.2" stroke-width="2.00"/>
<path d="M 43.5 31.2 L 45.3 31.5 L 46.9 31.5" stroke-width="1.80"/>
<path d="M 46.9 31.5 L 48.1 31.4" stroke-width="1.60"/>
<circle cx="77.4" cy="7.2" r="0.77" fill="currentColor" stroke="none"/>
<path d="M 77.4 7.2 L 77.5 7.3" stroke-width="2.00"/>
<path d="M 77.5 7.3 L 77.5 7.7" stroke-width="2.80"/>
<path d="M 77.5 7.7 L 77.5 8.5" stroke-width="3.20"/>
<path d="M 77.5 8.5 L 77.4 9.7" stroke-width="3.00"/>
<path d="M 77.4 9.7 L 77.1 11.3" stroke-width="2.60"/>
<path d="M 77.1 11.3 L 76.7 13.3" stroke-width="2.20"/>
<path d="M 76.7 13.3 L 76.2 15.6" stroke-width="2.00"/>
<path d="M 76.2 15.6 L 75.6 18.1" stroke-width="1.80"/>
<path d="M 75.6 18.1 L 75.0 20.7" stroke-width="1.60"/>
<path d="M 75.0 20.7 L 74.4 23.3 L 73.9 25.7 L 73.8 27.7" stroke-width="1.40"/>
<path d="M 73.8 27.7 L 74.0 29.2" stroke-width="1.60"/>
<path d="M 74.0 29.2 L 74.5 30.2 L 75.0 30.6 L 75.5 30.7" stroke-width="1.80"/>
<circle cx="85.0" cy="19.1" r="0.77" fill="currentColor" stroke="none"/>
<path d="M 85.0 19.1 L 85.0 19.1" stroke-width="2.00"/>
<path d="M 85.0 19.1 L 85.0 19.3" stroke-width="2.80"/>
<path d="M 85.0 19.3 L 84.9 19.9 L 84.8 20.9" stroke-width="3.20"/>
<path d="M 84.8 20.9 L 84.5 22.3" stroke-width="2.80"/>
<path d="M 84.5 22.3 L 84.2 23.8" stroke-width="2.40"/>
<path d="M 84.2 23.8 L 83.9 25.4 L 83.6 26.9 L 83.4 28.0" stroke-width="2.20"/>
<path d="M 83.4 28.0 L 83.2 28.7" stroke-width="2.40"/>
<path d="M 83.2 28.7 L 83.1 29.0" stroke-width="2.60"/>
<path d="M 83.1 29.0 L 83.1 29.1" stroke-width="2.40"/>
<circle cx="85.9" cy="11.9" r="0.77" fill="currentColor" stroke="none"/>
<path d="M 85.9 11.9 L 86.0 11.8" stroke-width="2.00"/>
<path d="M 86.0 11.8 L 86.0 11.8" stroke-width="2.80"/>
<path d="M 86.0 11.8 L 86.1 11.7" stroke-width="3.00"/>
<path d="M 86.1 11.7 L 86.1 11.8" stroke-width="2.60"/>
<circle cx="91.7" cy="17.9" r="0.77" fill="currentColor" stroke="none"/>
<path d="M 91.7 17.9 L 91.8 18.3" stroke-width="2.00"/>
<path d="M 91.8 18.3 L 91.8 19.1 L 91.8 20.3" stroke-width="2.60"/>
<path d="M 91.8 20.3 L 91.7 21.9" stroke-width="2.40"/>
<path d="M 91.7 21.9 L 91.4 23.6" stroke-width="2.20"/>
<path d="M 91.4 23.6 L 91.1 25.2 L 90.8 26.7 L 90.6 27.9" stroke-width="2.00"/>
<path d="M 90.6 27.9 L 90.5 28.6" stroke-width="2.20"/>
<path d="M 90.5 28.6 L 90.4 28.9" stroke-width="2.60"/>
<path d="M 90.4 28.9 L 90.5 28.7" stroke-width="3.00"/>
<path d="M 90.5 28.7 L 90.8 28.1" stroke-width="3.20"/>
<path d="M 90.8 28.1 L 91.2 26.9" stroke-width="3.00"/>
<path d="M 91.2 26.9 L 91.9 25.4" stroke-width="2.60"/>
<path d="M 91.9 25.4 L 92.8 23.7" stroke-width="2.20"/>
<path d="M 92.8 23.7 L 93.9 22.0" stroke-width="2.00"/>
<path d="M 93.9 22.0 L 95.2 20.5 L 96.7 19.2 L 98.3 18.3 L 100.0 17.9 L 101.6 17.9 L 103.0 18.4" stroke-width="1.80"/>
<path d="M 103.0 18.4 L 104.2 19.3 L 105.1 20.5 L 105.6 22.1 L 105.9 23.7 L 105.8 25.3 L 105.7 26.7 L 105.6 27.7" stroke-width="2.00"/>
<path d="M 105.6 27.7 L 105.6 28.2" stroke-width="2.40"/>
<path d="M 105.6 28.2 L 105.8 28.4" stroke-width="2.60"/>
<path d="M 105.8 28.4 L 106.0 28.4" stroke-width="2.40"/>
<circle cx="110.4" cy="25.6" r="0.77" fill="currentColor" stroke="none"/>
<path d="M 110.4 25.6 L 110.8 25.4" stroke-width="2.00"/>
<path d="M 110.8 25.4 L 111.6 24.9" stroke-width="2.40"/>
<path d="M 111.6 24.9 L 112.8 24.2" stroke-width="2.60"/>
<path d="M 112.8 24.2 L 114.1 23.2" stroke-width="2.40"/>
<path d="M 114.1 23.2 L 115.5 22.0" stroke-width="2.20"/>
<path d="M 115.5 22.0 L 116.7 20.8 L 117.6 19.5 L 118.1 18.4" stroke-width="2.00"/>
<path d="M 118.1 18.4 L 118.3 17.6" stroke-width="2.20"/>
<path d="M 118.3 17.6 L 118.0 17.0" stroke-width="2.40"/>
<path d="M 118.0 17.0 L 117.3 16.8" stroke-width="2.60"/>
<path d="M 117.3 16.8 L 116.3 17.0" stroke-width="2.80"/>
<path d="M 116.3 17.0 L 114.9 17.8" stroke-width="2.60"/>
<path d="M 114.9 17.8 L 113.4 18.9" stroke-width="2.20"/>
<path d="M 113.4 18.9 L 112.1 20.5" stroke-width="2.00"/>
<path d="M 112.1 20.5 L 111.1 22.2 L 110.7 23.9 L 111.1 25.4 L 112.3 26.7 L 114.2 27.6" stroke-width="1.80"/>
<path d="M 114.2 27.6 L 116.8 28.1" stroke-width="1.60"/>
<path d="M 116.8 28.1 L 119.8 28.2 L 122.3 28.1" stroke-width="1.40"/>
<path d="M 122.3 28.1 L 123.9 27.9" stroke-width="1.20"/>
<circle cx="150.3" cy="20.5" r="0.77" fill="currentColor" stroke="none"/>
<path d="M 150.3 20.5 L 150.2 20.2" stroke-width="2.00"/>
<path d="M 150.2 20.2 L 149.9 19.8" stroke-width="2.60"/>
<path d="M 149.9 19.8 L 149.6 19.4" stroke-width="3.00"/>
<path d="M 149.6 19.4 L 149.0 19.1 L 148.2 19.1" stroke-width="3.20"/>
<path d="M 148.2 19.1 L 147.2 19.4" stroke-width="3.00"/>
<path d="M 147.2 19.4 L 145.9 20.0" stroke-width="2.80"/>
<path d="M 145.9 20.0 L 144.5 20.9" stroke-width="2.40"/>
<path d="M 144.5 20.9 L 143.2 22.1" stroke-width="2.20"/>
<path d="M 143.2 22.1 L 142.2 23.6 L 141.5 25.2 L 141.4 26.7 L 141.8 28.0 L 142.7 28.9 L 144.3 29.3 L 146.2 29.1" stroke-width="2.00"/>
<path d="M 146.2 29.1 L 148.5 28.4" stroke-width="1.80"/>
<path d="M 148.5 28.4 L 150.8 27.3 L 152.9 25.9 L 154.4 24.5 L 155.4 23.1" stroke-width="1.60"/>
<path d="M 155.4 23.1 L 155.7 21.9" stroke-width="1.80"/>
<path d="M 155.7 21.9 L 155.5 20.9" stroke-width="2.00"/>
<path d="M 155.5 20.9 L 154.8 20.3 L 153.8 20.0" stroke-width="2.20"/>
<path d="M 153.8 20.0 L 152.7 20.0 L 151.9 20.2" stroke-width="2.40"/>
<path d="M 151.9 20.2 L 151.4 20.4" stroke-width="2.20"/>
<circle cx="171.6" cy="8.7" r="0.77" fill="currentColor" stroke="none"/>
<path d="M 171.6 8.7 L 171.3 8.1" stroke-width="1.80"/>
<path d="M 171.3 8.1 L 170.9 7.2" stroke-width="2.40"/>
<path d="M 170.9 7.2 L 170.1 6.4 L 169.2 6.0 L 168.2 6.1" stroke-width="2.60"/>
<path d="M 168.2 6.1 L 167.0 6.9" stroke-width="2.40"/>
<path d="M 167.0 6.9 L 165.8 8.3" stroke-width="2.20"/>
<path d="M 165.8 8.3 L 164.7 10.1" stroke-width="2.00"/>
<path d="M 164.7 10.1 L 163.7 12.5" stroke-width="1.80"/>
<path d="M 163.7 12.5 L 163.0 15.2" stroke-width="1.60"/>
<path d="M 163.0 15.2 L 162.4 18.1 L 161.9 21.2" stroke-width="1.40"/>
<path d="M 161.9 21.2 L 161.6 24.2 L 161.4 27.2 L 161.3 29.8" stroke-width="1.20"/>
<path d="M 161.3 29.8 L 161.3 32.0 L 161.4 33.5" stroke-width="1.40"/>
<path d="M 161.4 33.5 L 161.6 34.4" stroke-width="1.60"/>
<path d="M 161.6 34.4 L 161.7 34.7" stroke-width="1.80"/>
<path d="M 161.7 34.7 L 161.8 34.8" stroke-width="2.00"/>
<circle cx="157.8" cy="22.2" r="0.77" fill="currentColor" stroke="none"/>
<path d="M 157.8 22.2 L 158.0 22.1" stroke-width="2.00"/>
<path d="M 158.0 22.1 L 158.6 22.1" stroke-width="2.60"/>
<path d="M 158.6 22.1 L 159.7 22.0" stroke-width="2.80"/>
<path d="M 159.7 22.0 L 161.3 22.1" stroke-width="2.60"/>
<path d="M 161.3 22.1 L 163.3 22.2" stroke-width="2.20"/>
<path d="M 163.3 22.2 L 165.5 22.4" stroke-width="2.00"/>
<path d="M 165.5 22.4 L 167.2 22.6" stroke-width="1.80"/>
<path d="M 167.2 22.6 L 168.2 22.7" stroke-width="1.60"/>
<circle cx="189.4" cy="19.9" r="0.77" fill="currentColor" stroke="none"/>
<path d="M 189.4 19.9 L 189.4 20.2" stroke-width="2.00"/>
<path d="M 189.4 20.2 L 189.5 21.0" stroke-width="2.60"/>
<path d="M 189.5 21.0 L 189.6 22.0" stroke-width="2.80"/>
<path d="M 189.6 22.0 L 189.5 23.3" stroke-width="2.60"/>
<path d="M 189.5 23.3 L 189.4 24.7 L 189.2 26.0" stroke-width="2.40"/>
<path d="M 189.2 26.0 L 189.1 27.0" stroke-width="2.20"/>
<path d="M 189.1 27.0 L 188.9 27.6" stroke-width="2.00"/>
<circle cx="190.4" cy="10.2" r="0.77" fill="currentColor" stroke="none"/>
<path d="M 190.4 10.2 L 190.4 10.1" stroke-width="2.00"/>
<path d="M 190.4 10.1 L 190.4 10.0" stroke-width="2.80"/>
<path d="M 190.4 10.0 L 190.5 10.0" stroke-width="3.00"/>
<path d="M 190.5 10.0 L 190.6 10.0" stroke-width="2.60"/>
<circle cx="196.8" cy="18.4" r="0.77" fill="currentColor" stroke="none"/>
<path d="M 196.8 18.4 L 196.7 18.8" stroke-width="2.00"/>
<path d="M 196.7 18.8 L 196.5 19.7" stroke-width="2.40"/>
<path d="M 196.5 19.7 L 196.2 20.9" stroke-width="2.60"/>
<path d="M 196.2 20.9 L 195.9 22.4" stroke-width="2.40"/>
<path d="M 195.9 22.4 L 195.6 23.9 L 195.3 25.3 L 195.0 26.4" stroke-width="2.20"/>
<path d="M 195.0 26.4 L 194.9 27.2" stroke-width="2.40"/>
<path d="M 194.9 27.2 L 194.9 27.5" stroke-width="2.60"/>
<path d="M 194.9 27.5 L 195.1 27.2" stroke-width="3.00"/>
<path d="M 195.1 27.2 L 195.6 26.4" stroke-width="3.20"/>
<path d="M 195.6 26.4 L 196.3 25.1" stroke-width="2.80"/>
<path d="M 196.3 25.1 L 197.3 23.4" stroke-width="2.40"/>
<path d="M 197.3 23.4 L 198.6 21.7" stroke-width="2.00"/>
<path d="M 198.6 21.7 L 200.0 20.1 L 201.7 18.8" stroke-width="1.80"/>
<path d="M 201.7 18.8 L 203.3 17.8" stroke-width="1.60"/>
<path d="M 203.3 17.8 L 204.9 17.1 L 206.2 16.9" stroke-width="1.80"/>
<path d="M 206.2 16.9 L 207.2 17.2" stroke-width="2.00"/>
<path d="M 207.2 17.2 L 207.9 17.9 L 208.2 19.1 L 208.2 20.7" stroke-width="2.20"/>
<path d="M 208.2 20.7 L 207.9 22.5 L 207.5 24.4" stroke-width="2.00"/>
<path d="M 207.5 24.4 L 207.1 26.0 L 206.8 27.2" stroke-width="1.80"/>
<path d="M 206.8 27.2 L 206.6 27.9" stroke-width="1.60"/>
<circle cx="217.6" cy="9.3" r="0.77" fill="currentColor" stroke="none"/>
<path d="M 217.6 9.3 L 217.4 9.6" stroke-width="2.00"/>
<path d="M 217.4 9.6 L 217.1 10.5" stroke-width="2.40"/>
<path d="M 217.1 10.5 L 216.7 11.8" stroke-width="2.60"/>
<path d="M 216.7 11.8 L 216.3 13.5" stroke-width="2.40"/>
<path d="M 216.3 13.5 L 215.8 15.6" stroke-width="2.00"/>
<path d="M 215.8 15.6 L 215.3 18.0" stroke-width="1.80"/>
<path d="M 215.3 18.0 L 214.8 20.4 L 214.4 22.9 L 214.1 25.1 L 214.0 26.9 L 214.0 28.2" stroke-width="1.60"/>
<path d="M 214.0 28.2 L 214.0 28.9" stroke-width="2.00"/>
<path d="M 214.0 28.9 L 214.1 29.1" stroke-width="2.40"/>
<path d="M 214.1 29.1 L 214.3 28.8" stroke-width="2.80"/>
<path d="M 214.3 28.8 L 214.7 28.0" stroke-width="3.00"/>
<path d="M 214.7 28.0 L 215.4 26.7" stroke-width="2.80"/>
<path d="M 215.4 26.7 L 216.4 25.1" stroke-width="2.40"/>
<path d="M 216.4 25.1 L 217.7 23.3" stroke-width="2.00"/>
<path d="M 217.7 23.3 L 219.2 21.6" stroke-width="1.80"/>
<path d="M 219.2 21.6 L 220.8 20.0 L 222.4 18.6 L 223.9 17.6" stroke-width="1.60"/>
<path d="M 223.9 17.6 L 225.2 16.7 L 226.3 16.2" stroke-width="1.80"/>
<path d="M 226.3 16.2 L 227.1 16.0" stroke-width="2.00"/>
<path d="M 227.1 16.0 L 227.5 16.1" stroke-width="2.40"/>
<path d="M 227.5 16.1 L 227.7 16.3" stroke-width="2.60"/>
<path d="M 227.7 16.3 L 227.7 16.4" stroke-width="2.40"/>
<circle cx="218.6" cy="22.3" r="0.77" fill="currentColor" stroke="none"/>
<path d="M 218.6 22.3 L 218.6 22.8" stroke-width="1.80"/>
<path d="M 218.6 22.8 L 218.9 23.8 L 219.6 25.0" stroke-width="2.40"/>
<path d="M 219.6 25.0 L 220.8 26.2" stroke-width="2.20"/>
<path d="M 220.8 26.2 L 222.3 27.2 L 224.1 28.1" stroke-width="2.00"/>
<path d="M 224.1 28.1 L 225.8 28.8 L 227.6 29.3 L 229.2 29.5 L 230.6 29.5 L 231.6 29.3 L 232.1 29.1" stroke-width="1.80"/>
<circle cx="236.6" cy="28.8" r="0.77" fill="currentColor" stroke="none"/>
<path d="M 236.6 28.8 L 236.7 29.1" stroke-width="2.00"/>
<path d="M 236.7 29.1 L 236.8 29.7" stroke-width="2.60"/>
<path d="M 236.8 29.7 L 236.9 30.5" stroke-width="3.00"/>
<path d="M 236.9 30.5 L 236.8 31.6" stroke-width="2.80"/>
<path d="M 236.8 31.6 L 236.5 32.8" stroke-width="2.60"/>
<path d="M 236.5 32.8 L 236.0 34.2" stroke-width="2.40"/>
<path d="M 236.0 34.2 L 235.3 35.6 L 234.5 36.9 L 233.8 38.1 L 233.3 39.0" stroke-width="2.20"/>
<path d="M 233.3 39.0 L 232.9 39.6" stroke-width="2.40"/>
<path d="M 232.9 39.6 L 232.8 39.8" stroke-width="2.80"/>
<path d="M 232.8 39.8 L 232.9 39.8" stroke-width="3.00"/>
<path d="M 232.9 39.8 L 233.0 39.5" stroke-width="3.20"/>
<path d="M 233.0 39.5 L 233.2 39.2" stroke-width="3.00"/>
<path d="M 233.2 39.2 L 233.3 38.9" stroke-width="2.60"/>
<circle cx="259.2" cy="11.5" r="0.77" fill="currentColor" stroke="none"/>
<path d="M 259.2 11.5 L 259.2 11.8" stroke-width="2.00"/>
<path d="M 259.2 11.8 L 259.2 12.5" stroke-width="2.60"/>
<path d="M 259.2 12.5 L 259.2 13.6" stroke-width="2.80"/>
<path d="M 259.2 13.6 L 259.0 15.2" stroke-width="2.60"/>
<path d="M 259.0 15.2 L 258.8 17.1" stroke-width="2.20"/>
<path d="M 258.8 17.1 L 258.4 19.3" stroke-width="2.00"/>
<path d="M 258.4 19.3 L 258.1 21.5" stroke-width="1.80"/>
<path d="M 258.1 21.5 L 257.7 23.8 L 257.5 25.8 L 257.3 27.5 L 257.2 28.6 L 257.1 29.3" stroke-width="1.60"/>
<circle cx="252.3" cy="18.6" r="0.77" fill="currentColor" stroke="none"/>
<path d="M 252.3 18.6 L 252.5 18.6" stroke-width="2.00"/>
<path d="M 252.5 18.6 L 253.0 18.7 L 254.1 18.8" stroke-width="2.80"/>
<path d="M 254.1 18.8 L 255.7 18.8" stroke-width="2.60"/>
<path d="M 255.7 18.8 L 257.8 18.9" stroke-width="2.20"/>
<path d="M 257.8 18.9 L 260.2 18.8" stroke-width="2.00"/>
<path d="M 260.2 18.8 L 262.6 18.7" stroke-width="1.80"/>
<path d="M 262.6 18.7 L 264.8 18.3 L 266.9 17.7 L 268.6 16.8 L 269.9 16.0" stroke-width="1.60"/>
<path d="M 269.9 16.0 L 270.6 15.4" stroke-width="1.40"/>
<circle cx="272.5" cy="9.1" r="0.77" fill="currentColor" stroke="none"/>
<path d="M 272.5 9.1 L 272.5 9.5" stroke-width="2.00"/>
<path d="M 272.5 9.5 L 272.5 10.3 L 272.4 11.7" stroke-width="2.60"/>
<path d="M 272.4 11.7 L 272.3 13.6" stroke-width="2.40"/>
<path d="M 272.3 13.6 L 272.0 15.9" stroke-width="2.00"/>
<path d="M 272.0 15.9 L 271.6 18.2" stroke-width="1.80"/>
<path d="M 271.6 18.2 L 271.2 20.4 L 271.0 22.4 L 270.8 23.8" stroke-width="1.60"/>
<path d="M 270.8 23.8 L 270.9 24.8" stroke-width="1.80"/>
<path d="M 270.9 24.8 L 271.2 25.1" stroke-width="2.20"/>
<path d="M 271.2 25.1 L 271.6 24.9" stroke-width="2.60"/>
<path d="M 271.6 24.9 L 272.3 24.2" stroke-width="2.80"/>
<path d="M 272.3 24.2 L 273.3 23.0" stroke-width="2.60"/>
<path d="M 273.3 23.0 L 274.6 21.5" stroke-width="2.20"/>
<path d="M 274.6 21.5 L 276.1 20.0" stroke-width="2.00"/>
<path d="M 276.1 20.0 L 277.7 18.6 L 279.2 17.4 L 280.7 16.6 L 282.1 16.3" stroke-width="1.80"/>
<path d="M 282.1 16.3 L 283.3 16.3 L 284.3 16.9" stroke-width="2.00"/>
<path d="M 284.3 16.9 L 285.0 17.9 L 285.4 19.3" stroke-width="2.20"/>
<path d="M 285.4 19.3 L 285.5 21.0 L 285.4 22.7 L 285.2 24.3 L 285.1 25.5" stroke-width="2.00"/>
<path d="M 285.1 25.5 L 285.2 26.2" stroke-width="2.20"/>
<path d="M 285.2 26.2 L 285.6 26.4" stroke-width="2.60"/>
<path d="M 285.6 26.4 L 286.3 26.1" stroke-width="2.80"/>
<path d="M 286.3 26.1 L 287.4 25.2" stroke-width="2.60"/>
<path d="M 287.4 25.2 L 288.6 23.9" stroke-width="2.40"/>
<path d="M 288.6 23.9 L 290.0 22.4" stroke-width="2.00"/>
<path d="M 290.0 22.4 L 291.3 20.8 L 292.5 19.4 L 293.4 18.3" stroke-width="1.80"/>
<path d="M 293.4 18.3 L 294.0 17.5" stroke-width="2.00"/>
<path d="M 294.0 17.5 L 294.4 17.2" stroke-width="2.20"/>
<path d="M 294.4 17.2 L 294.4 17.4" stroke-width="2.80"/>
<path d="M 294.4 17.4 L 294.3 18.1 L 293.9 19.3" stroke-width="3.00"/>
<path d="M 293.9 19.3 L 293.4 20.8" stroke-width="2.60"/>
<path d="M 293.4 20.8 L 292.9 22.5" stroke-width="2.20"/>
<path d="M 292.9 22.5 L 292.3 24.0 L 292.0 25.3 L 291.8 26.0 L 291.7 26.4" stroke-width="2.00"/>
<circle cx="293.6" cy="8.2" r="0.77" fill="currentColor" stroke="none"/>
<path d="M 293.6 8.2 L 293.7 8.2" stroke-width="2.00"/>
<path d="M 293.7 8.2 L 293.8 8.2" stroke-width="2.80"/>
<path d="M 293.8 8.2 L 294.0 8.4" stroke-width="3.00"/>
<path d="M 294.0 8.4 L 294.2 8.5" stroke-width="2.60"/>
<circle cx="300.0" cy="16.2" r="0.77" fill="currentColor" stroke="none"/>
<path d="M 300.0 16.2 L 300.0 16.5" stroke-width="2.00"/>
<path d="M 300.0 16.5 L 299.9 17.2" stroke-width="2.60"/>
<path d="M 299.9 17.2 L 299.8 18.3" stroke-width="2.80"/>
<path d="M 299.8 18.3 L 299.6 19.6" stroke-width="2.60"/>
<path d="M 299.6 19.6 L 299.3 21.0" stroke-width="2.40"/>
<path d="M 299.3 21.0 L 298.9 22.3 L 298.5 23.5" stroke-width="2.20"/>
<path d="M 298.5 23.5 L 298.3 24.4" stroke-width="2.40"/>
<path d="M 298.3 24.4 L 298.1 25.0" stroke-width="2.60"/>
<path d="M 298.1 25.0 L 298.2 25.2" stroke-width="3.00"/>
<path d="M 298.2 25.2 L 298.4 24.9 L 298.7 24.2" stroke-width="3.20"/>
<path d="M 298.7 24.2 L 299.3 23.2" stroke-width="3.00"/>
<path d="M 299.3 23.2 L 300.1 21.9" stroke-width="2.80"/>
<path d="M 300.1 21.9 L 301.1 20.5" stroke-width="2.40"/>
<path d="M 301.1 20.5 L 302.3 19.1" stroke-width="2.20"/>
<path d="M 302.3 19.1 L 303.6 17.9 L 305.0 16.9 L 306.4 16.2 L 307.8 15.9 L 309.1 16.0" stroke-width="2.00"/>
<path d="M 309.1 16.0 L 310.2 16.5 L 311.0 17.5 L 311.5 18.9" stroke-width="2.20"/>
<path d="M 311.5 18.9 L 311.6 20.6 L 311.6 22.4 L 311.4 24.2 L 311.3 25.6 L 311.4 26.6" stroke-width="2.00"/>
<path d="M 311.4 26.6 L 311.7 26.9" stroke-width="2.40"/>
<path d="M 311.7 26.9 L 312.1 26.8" stroke-width="2.60"/>
<path d="M 312.1 26.8 L 312.4 26.6" stroke-width="2.40"/>
<circle cx="321.9" cy="8.7" r="0.77" fill="currentColor" stroke="none"/>
<path d="M 321.9 8.7 L 321.9 9.0" stroke-width="2.00"/>
<path d="M 321.9 9.0 L 322.0 9.6" stroke-width="2.60"/>
<path d="M 322.0 9.6 L 321.9 10.7" stroke-width="2.80"/>
<path d="M 321.9 10.7 L 321.7 12.2" stroke-width="2.60"/>
<path d="M 321.7 12.2 L 321.4 14.1" stroke-width="2.20"/>
<path d="M 321.4 14.1 L 320.9 16.3" stroke-width="2.00"/>
<path d="M 320.9 16.3 L 320.4 18.5" stroke-width="1.80"/>
<path d="M 320.4 18.5 L 320.0 20.6 L 319.6 22.4" stroke-width="1.60"/>
<path d="M 319.6 22.4 L 319.4 23.8 L 319.3 24.7 L 319.2 25.1" stroke-width="1.80"/>
<circle cx="326.1" cy="16.9" r="0.77" fill="currentColor" stroke="none"/>
<path d="M 326.1 16.9 L 325.8 16.8" stroke-width="2.00"/>
<path d="M 325.8 16.8 L 325.1 16.8" stroke-width="2.60"/>
<path d="M 325.1 16.8 L 324.0 17.0" stroke-width="2.80"/>
<path d="M 324.0 17.0 L 322.7 17.4" stroke-width="2.60"/>
<path d="M 322.7 17.4 L 321.3 18.2" stroke-width="2.40"/>
<path d="M 321.3 18.2 L 320.1 19.3 L 319.3 20.5 L 319.0 21.7 L 319.3 22.9 L 320.3 23.9 L 321.9 24.6" stroke-width="2.20"/>
<path d="M 321.9 24.6 L 323.8 24.9" stroke-width="2.00"/>
<path d="M 323.8 24.9 L 326.1 24.8" stroke-width="1.80"/>
<path d="M 326.1 24.8 L 328.4 24.3 L 330.6 23.5 L 332.7 22.3 L 334.3 21.0 L 335.6 19.8 L 336.5 18.8" stroke-width="1.60"/>
<path d="M 336.5 18.8 L 337.0 18.1" stroke-width="2.00"/>
<path d="M 337.0 18.1 L 337.2 17.9" stroke-width="2.40"/>
<path d="M 337.2 17.9 L 337.2 18.0" stroke-width="2.80"/>
<path d="M 337.2 18.0 L 337.0 18.5 L 336.8 19.4" stroke-width="3.20"/>
<path d="M 336.8 19.4 L 336.5 20.6" stroke-width="3.00"/>
<path d="M 336.5 20.6 L 336.3 21.8 L 336.1 23.0 L 336.2 24.0" stroke-width="2.60"/>
<path d="M 336.2 24.0 L 336.3 24.5" stroke-width="2.80"/>
<path d="M 336.3 24.5 L 336.6 24.5 L 336.8 24.3" stroke-width="3.00"/>
<path d="M 336.8 24.3 L 337.0 24.1" stroke-width="2.60"/>
<circle cx="338.0" cy="8.6" r="0.77" fill="currentColor" stroke="none"/>
<path d="M 338.0 8.6 L 338.0 8.4" stroke-width="2.00"/>
<path d="M 338.0 8.4 L 338.2 8.2" stroke-width="2.80"/>
<path d="M 338.2 8.2 L 338.5 8.1" stroke-width="3.00"/>
<path d="M 338.5 8.1 L 338.6 8.2" stroke-width="2.60"/>
<circle cx="344.3" cy="14.8" r="0.77" fill="currentColor" stroke="none"/>
<path d="M 344.3 14.8 L 344.4 15.0" stroke-width="2.00"/>
<path d="M 344.4 15.0 L 344.5 15.3" stroke-width="2.80"/>
<path d="M 344.5 15.3 L 344.7 15.9 L 344.7 16.8" stroke-width="3.20"/>
<path d="M 344.7 16.8 L 344.6 18.0" stroke-width="3.00"/>
<path d="M 344.6 18.0 L 344.5 19.3" stroke-width="2.60"/>
<path d="M 344.5 19.3 L 344.3 20.7 L 344.1 22.1 L 344.0 23.2 L 344.0 24.1" stroke-width="2.40"/>
<path d="M 344.0 24.1 L 344.2 24.5" stroke-width="2.60"/>
<path d="M 344.2 24.5 L 344.4 24.5" stroke-width="3.00"/>
<path d="M 344.4 24.5 L 344.9 24.0" stroke-width="3.20"/>
<path d="M 344.9 24.0 L 345.6 23.0" stroke-width="3.00"/>
<path d="M 345.6 23.0 L 346.6 21.8" stroke-width="2.60"/>
<path d="M 346.6 21.8 L 347.8 20.4" stroke-width="2.40"/>
<path d="M 347.8 20.4 L 349.1 19.1 L 350.6 17.9" stroke-width="2.00"/>
<path d="M 350.6 17.9 L 352.1 16.9 L 353.7 16.3 L 355.1 16.0" stroke-width="1.80"/>
<path d="M 355.1 16.0 L 356.3 16.2" stroke-width="2.00"/>
<path d="M 356.3 16.2 L 357.3 16.7 L 358.0 17.5 L 358.5 18.7 L 358.7 20.0 L 358.7 21.4 L 358.6 22.8 L 358.5 23.9" stroke-width="2.20"/>
<path d="M 358.5 23.9 L 358.5 24.8 L 358.5 25.3 L 358.5 25.6" stroke-width="2.40"/>
<circle cx="370.7" cy="18.4" r="0.77" fill="currentColor" stroke="none"/>
<path d="M 370.7 18.4 L 370.6 18.2" stroke-width="2.00"/>
<path d="M 370.6 18.2 L 370.3 17.8" stroke-width="2.80"/>
<path d="M 370.3 17.8 L 369.8 17.7 L 368.9 17.8" stroke-width="3.20"/>
<path d="M 368.9 17.8 L 367.7 18.2" stroke-width="2.80"/>
<path d="M 367.7 18.2 L 366.4 19.0" stroke-width="2.60"/>
<path d="M 366.4 19.0 L 365.2 20.0" stroke-width="2.40"/>
<path d="M 365.2 20.0 L 364.2 21.2 L 363.6 22.2 L 363.5 23.1" stroke-width="2.20"/>
<path d="M 363.5 23.1 L 364.0 23.6 L 364.9 23.8 L 366.1 23.5" stroke-width="2.60"/>
<path d="M 366.1 23.5 L 367.7 22.9" stroke-width="2.40"/>
<path d="M 367.7 22.9 L 369.3 22.1" stroke-width="2.20"/>
<path d="M 369.3 22.1 L 370.8 21.2 L 372.2 20.3 L 373.2 19.6" stroke-width="2.00"/>
<path d="M 373.2 19.6 L 373.9 19.1" stroke-width="2.20"/>
<path d="M 373.9 19.1 L 374.3 18.8" stroke-width="2.40"/>
<path d="M 374.3 18.8 L 374.4 18.8" stroke-width="3.00"/>
<path d="M 374.4 18.8 L 374.4 19.1 L 374.3 19.7 L 374.1 20.6" stroke-width="3.20"/>
<path d="M 374.1 20.6 L 374.0 21.9" stroke-width="3.00"/>
<path d="M 374.0 21.9 L 373.9 23.5" stroke-width="2.60"/>
<path d="M 373.9 23.5 L 373.7 25.2" stroke-width="2.20"/>
<path d="M 373.7 25.2 L 373.6 27.0 L 373.4 28.9" stroke-width="2.00"/>
<path d="M 373.4 28.9 L 373.1 30.7 L 372.7 32.5 L 372.1 34.1 L 371.2 35.5 L 370.1 36.7 L 368.8 37.5 L 367.2 38.1 L 365.6 38.3 L 363.9 38.2 L 362.3 37.9 L 360.8 37.3" stroke-width="1.80"/>
<path d="M 360.8 37.3 L 359.5 36.5 L 358.3 35.6 L 357.5 34.9" stroke-width="2.00"/>
<path d="M 357.5 34.9 L 357.0 34.5" stroke-width="1.80"/>
<circle cx="405.8" cy="20.2" r="0.77" fill="currentColor" stroke="none"/>
<path d="M 405.8 20.2 L 405.6 19.9" stroke-width="2.00"/>
<path d="M 405.6 19.9 L 405.3 19.4" stroke-width="2.60"/>
<path d="M 405.3 19.4 L 404.8 18.9 L 404.2 18.5 L 403.3 18.1" stroke-width="3.00"/>
<path d="M 403.3 18.1 L 402.1 18.1" stroke-width="2.80"/>
<path d="M 402.1 18.1 L 400.7 18.3" stroke-width="2.60"/>
<path d="M 400.7 18.3 L 399.2 18.7" stroke-width="2.40"/>
<path d="M 399.2 18.7 L 397.7 19.5" stroke-width="2.20"/>
<path d="M 397.7 19.5 L 396.3 20.6 L 395.0 21.8 L 394.1 23.2 L 393.6 24.6 L 393.4 25.8" stroke-width="2.00"/>
<path d="M 393.4 25.8 L 393.8 26.8 L 394.5 27.4" stroke-width="2.20"/>
<path d="M 394.5 27.4 L 395.6 27.6 L 397.0 27.3" stroke-width="2.40"/>
<path d="M 397.0 27.3 L 398.6 26.6" stroke-width="2.20"/>
<path d="M 398.6 26.6 L 400.4 25.6" stroke-width="2.00"/>
<path d="M 400.4 25.6 L 402.1 24.2" stroke-width="1.80"/>
<path d="M 402.1 24.2 L 403.8 22.8 L 405.2 21.3 L 406.4 20.1" stroke-width="1.60"/>
<path d="M 406.4 20.1 L 407.2 19.2" stroke-width="1.80"/>
<path d="M 407.2 19.2 L 407.7 18.5" stroke-width="2.00"/>
<path d="M 407.7 18.5 L 407.8 18.3" stroke-width="2.40"/>
<path d="M 407.8 18.3 L 407.7 18.4" stroke-width="3.00"/>
<path d="M 407.7 18.4 L 407.5 18.9 L 407.1 19.7" stroke-width="3.20"/>
<path d="M 407.1 19.7 L 406.7 20.9" stroke-width="3.00"/>
<path d="M 406.7 20.9 L 406.3 22.3" stroke-width="2.60"/>
<path d="M 406.3 22.3 L 406.0 23.6 L 406.0 24.8 L 406.3 25.7" stroke-width="2.40"/>
<path d="M 406.3 25.7 L 406.9 26.2 L 407.8 26.5 L 409.0 26.3" stroke-width="2.60"/>
<path d="M 409.0 26.3 L 410.3 25.7" stroke-width="2.40"/>
<path d="M 410.3 25.7 L 411.9 24.9" stroke-width="2.20"/>
<path d="M 411.9 24.9 L 413.6 23.8" stroke-width="2.00"/>
<path d="M 413.6 23.8 L 415.3 22.5 L 417.0 21.3 L 418.5 20.2 L 419.9 19.1 L 421.2 18.4" stroke-width="1.80"/>
<path d="M 421.2 18.4 L 422.3 17.9 L 423.2 17.7" stroke-width="2.00"/>
<path d="M 423.2 17.7 L 424.0 17.8" stroke-width="2.40"/>
<path d="M 424.0 17.8 L 424.7 18.3 L 425.3 19.0 L 425.8 20.1" stroke-width="2.60"/>
<path d="M 425.8 20.1 L 426.3 21.3 L 426.5 22.5 L 426.6 23.7 L 426.3 24.8 L 425.7 25.7 L 424.9 26.3 L 423.9 26.7 L 422.7 26.8 L 421.5 26.8 L 420.3 26.6 L 419.5 26.3" stroke-width="2.40"/>
<path d="M 419.5 26.3 L 419.0 26.1" stroke-width="2.00"/>
<circle cx="444.7" cy="21.2" r="0.77" fill="currentColor" stroke="none"/>
<path d="M 444.7 21.2 L 444.7 21.4" stroke-width="2.00"/>
<path d="M 444.7 21.4 L 444.6 21.8" stroke-width="2.80"/>
<path d="M 444.6 21.8 L 444.5 22.6 L 444.3 23.7" stroke-width="3.00"/>
<path d="M 444.3 23.7 L 444.0 25.0" stroke-width="2.60"/>
<path d="M 444.0 25.0 L 443.5 26.5" stroke-width="2.40"/>
<path d="M 443.5 26.5 L 443.0 28.0 L 442.5 29.1" stroke-width="2.20"/>
<path d="M 442.5 29.1 L 442.2 29.8" stroke-width="2.40"/>
<path d="M 442.2 29.8 L 442.1 30.0 L 442.1 29.8" stroke-width="2.80"/>
<path d="M 442.1 29.8 L 442.2 29.5" stroke-width="2.60"/>
<circle cx="447.0" cy="10.6" r="0.77" fill="currentColor" stroke="none"/>
<path d="M 447.0 10.6 L 447.1 10.2" stroke-width="2.00"/>
<path d="M 447.1 10.2 L 447.2 9.7" stroke-width="2.60"/>
<path d="M 447.2 9.7 L 447.3 9.2" stroke-width="2.80"/>
<path d="M 447.3 9.2 L 447.4 9.0" stroke-width="2.60"/>
<circle cx="456.3" cy="9.5" r="0.77" fill="currentColor" stroke="none"/>
<path d="M 456.3 9.5 L 456.3 9.5" stroke-width="2.00"/>
<path d="M 456.3 9.5 L 456.2 9.6" stroke-width="2.80"/>
<path d="M 456.2 9.6 L 456.1 10.1 L 455.9 11.0" stroke-width="3.20"/>
<path d="M 455.9 11.0 L 455.5 12.3" stroke-width="3.00"/>
<path d="M 455.5 12.3 L 455.0 13.9" stroke-width="2.60"/>
<path d="M 455.0 13.9 L 454.5 15.7" stroke-width="2.20"/>
<path d="M 454.5 15.7 L 453.9 17.7" stroke-width="2.00"/>
<path d="M 453.9 17.7 L 453.4 19.6 L 453.0 21.6 L 452.7 23.4 L 452.6 24.9 L 452.7 26.2" stroke-width="1.80"/>
<path d="M 452.7 26.2 L 452.9 27.0" stroke-width="2.00"/>
<path d="M 452.9 27.0 L 453.2 27.5 L 453.3 27.7" stroke-width="2.20"/>
<circle cx="450.2" cy="18.4" r="0.77" fill="currentColor" stroke="none"/>
<path d="M 450.2 18.4 L 450.6 18.4" stroke-width="2.00"/>
<path d="M 450.6 18.4 L 451.3 18.4 L 452.7 18.4" stroke-width="2.60"/>
<path d="M 452.7 18.4 L 454.5 18.4" stroke-width="2.40"/>
<path d="M 454.5 18.4 L 456.6 18.3" stroke-width="2.00"/>
<path d="M 456.6 18.3 L 458.7 18.2" stroke-width="1.80"/>
<path d="M 458.7 18.2 L 460.4 18.2" stroke-width="1.60"/>
<path d="M 460.4 18.2 L 461.4 18.1" stroke-width="1.40"/>
<circle cx="491.0" cy="19.8" r="1.10" fill="currentColor" stroke="none"/>
<circle cx="490.9" cy="18.5" r="0.77" fill="currentColor" stroke="none"/>
<path d="M 490.9 18.5 L 490.6 18.1" stroke-width="2.00"/>
<path d="M 490.6 18.1 L 489.9 17.7 L 488.9 17.4 L 487.6 17.2" stroke-width="2.60"/>
<path d="M 487.6 17.2 L 486.1 17.4" stroke-width="2.40"/>
<path d="M 486.1 17.4 L 484.4 17.8" stroke-width="2.20"/>
<path d="M 484.4 17.8 L 482.8 18.6 L 481.3 19.6 L 480.2 20.7 L 479.5 21.8 L 479.3 22.9" stroke-width="2.00"/>
<path d="M 479.3 22.9 L 479.6 23.6" stroke-width="2.20"/>
<path d="M 479.6 23.6 L 480.2 24.0" stroke-width="2.40"/>
<path d="M 480.2 24.0 L 481.3 24.0" stroke-width="2.60"/>
<path d="M 481.3 24.0 L 482.7 23.6" stroke-width="2.40"/>
<path d="M 482.7 23.6 L 484.3 22.8" stroke-width="2.20"/>
<path d="M 484.3 22.8 L 486.0 21.8" stroke-width="2.00"/>
<path d="M 486.0 21.8 L 487.6 20.6 L 489.0 19.4 L 490.0 18.4" stroke-width="1.80"/>
<path d="M 490.0 18.4 L 490.6 17.7" stroke-width="2.00"/>
<path d="M 490.6 17.7 L 490.9 17.3" stroke-width="2.20"/>
<path d="M 490.9 17.3 L 491.0 17.2" stroke-width="2.80"/>
<path d="M 491.0 17.2 L 490.9 17.5 L 490.7 18.3" stroke-width="3.20"/>
<path d="M 490.7 18.3 L 490.3 19.5" stroke-width="3.00"/>
<path d="M 490.3 19.5 L 489.8 21.2" stroke-width="2.60"/>
<path d="M 489.8 21.2 L 489.2 23.2" stroke-width="2.20"/>
<path d="M 489.2 23.2 L 488.5 25.4 L 487.7 27.7" stroke-width="1.80"/>
<path d="M 487.7 27.7 L 486.8 29.9 L 485.8 31.9 L 484.6 33.7 L 483.2 35.0 L 481.8 35.9" stroke-width="1.60"/>
<path d="M 481.8 35.9 L 480.4 36.3 L 479.0 36.4" stroke-width="1.80"/>
<path d="M 479.0 36.4 L 477.8 36.1 L 476.8 35.5" stroke-width="2.00"/>
<path d="M 476.8 35.5 L 476.4 34.6" stroke-width="2.20"/>
<path d="M 476.4 34.6 L 476.3 33.5" stroke-width="2.40"/>
<path d="M 476.3 33.5 L 476.6 32.5" stroke-width="2.20"/>
<path d="M 476.6 32.5 L 476.9 31.9" stroke-width="2.00"/>
<circle cx="501.4" cy="18.4" r="0.77" fill="currentColor" stroke="none"/>
<path d="M 501.4 18.4 L 501.1 18.3" stroke-width="2.00"/>
<path d="M 501.1 18.3 L 500.7 18.2" stroke-width="2.60"/>
<path d="M 500.7 18.2 L 499.9 18.3 L 499.0 18.6" stroke-width="3.00"/>
<path d="M 499.0 18.6 L 497.8 19.3" stroke-width="2.80"/>
<path d="M 497.8 19.3 L 496.6 20.3" stroke-width="2.40"/>
<path d="M 496.6 20.3 L 495.5 21.5 L 494.6 22.8" stroke-width="2.20"/>
<path d="M 494.6 22.8 L 494.2 24.2" stroke-width="2.00"/>
<path d="M 494.2 24.2 L 494.3 25.4 L 494.9 26.4 L 495.9 27.1 L 497.3 27.3 L 499.0 27.1" stroke-width="2.20"/>
<path d="M 499.0 27.1 L 500.9 26.4" stroke-width="2.00"/>
<path d="M 500.9 26.4 L 502.7 25.4 L 504.2 24.1 L 505.3 22.7 L 505.9 21.2 L 506.0 19.9" stroke-width="1.80"/>
<path d="M 506.0 19.9 L 505.5 18.8" stroke-width="2.00"/>
<path d="M 505.5 18.8 L 504.7 18.1 L 503.6 17.7 L 502.4 17.7 L 501.2 18.1" stroke-width="2.20"/>
<path d="M 501.2 18.1 L 500.3 18.7" stroke-width="2.40"/>
<path d="M 500.3 18.7 L 499.8 19.4" stroke-width="2.20"/>
<path d="M 499.8 19.4 L 499.5 19.9" stroke-width="2.00"/>
<circle cx="508.6" cy="23.3" r="0.77" fill="currentColor" stroke="none"/>
<path d="M 508.6 23.3 L 509.4 23.2" stroke-width="1.80"/>
<path d="M 509.4 23.2 L 510.7 22.9 L 512.4 22.3" stroke-width="2.20"/>
<path d="M 512.4 22.3 L 514.1 21.7 L 515.8 20.9" stroke-width="2.00"/>
<path d="M 515.8 20.9 L 517.3 20.0 L 518.6 19.1" stroke-width="1.80"/>
<path d="M 518.6 19.1 L 519.6 18.2" stroke-width="2.00"/>
<path d="M 519.6 18.2 L 520.1 17.5" stroke-width="2.20"/>
<path d="M 520.1 17.5 L 520.2 17.0" stroke-width="2.40"/>
<path d="M 520.2 17.0 L 519.8 16.7" stroke-width="2.80"/>
<path d="M 519.8 16.7 L 519.0 16.7" stroke-width="3.00"/>
<path d="M 519.0 16.7 L 517.8 17.0" stroke-width="2.80"/>
<path d="M 517.8 17.0 L 516.2 17.7" stroke-width="2.40"/>
<path d="M 516.2 17.7 L 514.5 18.8" stroke-width="2.20"/>
<path d="M 514.5 18.8 L 512.9 20.2" stroke-width="2.00"/>
<path d="M 512.9 20.2 L 511.5 21.7 L 510.5 23.3 L 510.0 24.8 L 510.2 26.0" stroke-width="1.80"/>
<path d="M 510.2 26.0 L 511.1 26.9 L 512.6 27.3 L 514.6 27.3" stroke-width="2.00"/>
<path d="M 514.6 27.3 L 516.9 26.9" stroke-width="1.80"/>
<path d="M 516.9 26.9 L 519.5 26.1" stroke-width="1.60"/>
<path d="M 519.5 26.1 L 522.1 25.1 L 524.6 23.9 L 526.7 22.6 L 528.5 21.2 L 529.8 20.0" stroke-width="1.40"/>
<path d="M 529.8 20.0 L 530.6 18.9" stroke-width="1.60"/>
<path d="M 530.6 18.9 L 531.1 18.2" stroke-width="1.80"/>
<path d="M 531.1 18.2 L 531.4 17.6" stroke-width="2.20"/>
<path d="M 531.4 17.6 L 531.4 17.4" stroke-width="2.60"/>
<path d="M 531.4 17.4 L 531.5 17.5" stroke-width="3.00"/>
<path d="M 531.5 17.5 L 531.6 17.9 L 532.0 18.6" stroke-width="3.20"/>
<path d="M 532.0 18.6 L 532.5 19.7" stroke-width="3.00"/>
<path d="M 532.5 19.7 L 533.4 20.9" stroke-width="2.80"/>
<path d="M 533.4 20.9 L 534.5 22.2" stroke-width="2.40"/>
<path d="M 534.5 22.2 L 535.7 23.6" stroke-width="2.20"/>
<path d="M 535.7 23.6 L 537.0 24.9" stroke-width="2.00"/>
<path d="M 537.0 24.9 L 538.2 26.2 L 539.3 27.3" stroke-width="1.80"/>
<path d="M 539.3 27.3 L 540.0 28.3" stroke-width="2.00"/>
<path d="M 540.0 28.3 L 540.3 29.1" stroke-width="2.20"/>
<path d="M 540.3 29.1 L 540.3 29.8" stroke-width="2.40"/>
<path d="M 540.3 29.8 L 539.9 30.3" stroke-width="2.60"/>
<path d="M 539.9 30.3 L 539.1 30.7" stroke-width="2.80"/>
<path d="M 539.1 30.7 L 537.8 30.9" stroke-width="2.60"/>
<path d="M 537.8 30.9 L 536.1 31.0" stroke-width="2.40"/>
<path d="M 536.1 31.0 L 534.2 30.9" stroke-width="2.20"/>
<path d="M 534.2 30.9 L 532.0 30.6" stroke-width="2.00"/>
<path d="M 532.0 30.6 L 529.9 30.1" stroke-width="1.80"/>
<path d="M 529.9 30.1 L 528.4 29.6" stroke-width="1.60"/>
<path d="M 528.4 29.6 L 527.4 29.3" stroke-width="1.40"/>
</svg>
