<svg xmlns="http://www.w3.org/2000/svg" viewBox="0 0 408.7 48.8" fill="none" stroke="currentColor" stroke-linecap="round" stroke-linejoin="round" role="img">
<circle cx="16.6" cy="19.0" r="0.63" fill="currentColor" stroke="none"/>
<path d="M 16.6 19.0 L 16.4 18.8" stroke-width="1.60"/>
<path d="M 16.4 18.8 L 16.1 18.5" stroke-width="2.20"/>
<path d="M 16.1 18.5 L 15.4 18.1 L 14.4 17.9" stroke-width="2.40"/>
<path d="M 14.4 17.9 L 13.2 18.0" stroke-width="2.20"/>
<path d="M 13.2 18.0 L 11.7 18.6" stroke-width="2.00"/>
<path d="M 11.7 18.6 L 10.2 19.6" stroke-width="1.80"/>
<path d="M 10.2 19.6 L 8.8 21.1" stroke-width="1.60"/>
<path d="M 8.8 21.1 L 7.6 23.0 L 6.7 25.1 L 6.2 27.3 L 6.0 29.3 L 6.2 31.0 L 6.8 32.1" stroke-width="1.40"/>
<path d="M 6.8 32.1 L 7.6 32.7" stroke-width="1.60"/>
<path d="M 7.6 32.7 L 8.8 32.7 L 10.2 32.1" stroke-width="1.80"/>
<path d="M 10.2 32.1 L 11.7 30.9" stroke-width="1.60"/>
<path d="M 11.7 30.9 L 13.2 29.0 L 14.7 26.8" stroke-width="1.40"/>
<path d="M 14.7 26.8 L 16.0 24.4 L 17.1 22.0 L 18.0 19.9 L 18.7 18.4" stroke-width="1.20"/>
<path d="M 18.7 18.4 L 19.1 17.4" stroke-width="1.40"/>
<path d="M 19.1 17.4 L 19.2 17.0" stroke-width="1.60"/>
<path d="M 19.2 17.0 L 19.1 17.2" stroke-width="2.00"/>
<path d="M 19.1 17.2 L 18.9 18.0 L 18.5 19.6" stroke-width="2.20"/>
<path d="M 18.5 19.6 L 18.1 21.7" stroke-width="1.80"/>
<path d="M 18.1 21.7 L 17.8 24.2" stroke-width="1.60"/>
<path d="M 17.8 24.2 L 17.6 26.7" stroke-width="1.40"/>
<path d="M 17.6 26.7 L 17.6 29.0" stroke-width="1.20"/>
<path d="M 17.6 29.0 L 17.8 30.7 L 18.2 31.8" stroke-width="1.40"/>
<path d="M 18.2 31.8 L 18.6 32.4" stroke-width="1.20"/>
<circle cx="45.2" cy="8.3" r="0.63" fill="currentColor" stroke="none"/>
<path d="M 45.2 8.3 L 45.5 8.0" stroke-width="1.60"/>
<path d="M 45.5 8.0 L 45.9 7.5" stroke-width="2.00"/>
<path d="M 45.9 7.5 L 46.2 7.0" stroke-width="2.40"/>
<path d="M 46.2 7.0 L 46.3 6.7 L 46.1 6.9 L 45.8 7.5" stroke-width="2.60"/>
<path d="M 45.8 7.5 L 45.2 8.8" stroke-width="2.40"/>
<path d="M 45.2 8.8 L 44.6 10.6" stroke-width="2.20"/>
<path d="M 44.6 10.6 L 44.0 12.9" stroke-width="1.80"/>
<path d="M 44.0 12.9 L 43.3 15.6" stroke-width="1.40"/>
<path d="M 43.3 15.6 L 42.6 18.5 L 42.0 21.6" stroke-width="1.20"/>
<path d="M 42.0 21.6 L 41.4 24.6 L 41.0 27.5 L 40.7 29.9" stroke-width="1.00"/>
<path d="M 40.7 29.9 L 40.7 31.7 L 41.1 32.9" stroke-width="1.20"/>
<path d="M 41.1 32.9 L 41.8 33.3" stroke-width="1.40"/>
<path d="M 41.8 33.3 L 42.5 33.2 L 43.1 33.0" stroke-width="1.60"/>
<circle cx="52.0" cy="17.1" r="0.63" fill="currentColor" stroke="none"/>
<path d="M 52.0 17.1 L 52.0 17.1" stroke-width="1.60"/>
<path d="M 52.0 17.1 L 51.9 17.2" stroke-width="2.40"/>
<path d="M 51.9 17.2 L 51.6 17.9" stroke-width="2.60"/>
<path d="M 51.6 17.9 L 51.2 19.2" stroke-width="2.40"/>
<path d="M 51.2 19.2 L 50.7 21.1" stroke-width="2.00"/>
<path d="M 50.7 21.1 L 50.2 23.5" stroke-width="1.60"/>
<path d="M 50.2 23.5 L 49.7 26.0 L 49.4 28.2 L 49.1 29.9 L 49.0 31.0" stroke-width="1.40"/>
<path d="M 49.0 31.0 L 49.0 31.6 L 49.0 31.7" stroke-width="1.60"/>
<circle cx="54.0" cy="9.5" r="0.63" fill="currentColor" stroke="none"/>
<path d="M 54.0 9.5 L 54.1 9.5" stroke-width="1.60"/>
<path d="M 54.1 9.5 L 54.2 9.7 L 54.2 9.8" stroke-width="2.40"/>
<path d="M 54.2 9.8 L 54.2 10.0" stroke-width="2.00"/>
<circle cx="58.4" cy="16.6" r="0.63" fill="currentColor" stroke="none"/>
<path d="M 58.4 16.6 L 58.4 16.9" stroke-width="1.60"/>
<path d="M 58.4 16.9 L 58.3 17.8" stroke-width="2.00"/>
<path d="M 58.3 17.8 L 58.1 19.1" stroke-width="2.20"/>
<path d="M 58.1 19.1 L 57.7 21.0" stroke-width="1.80"/>
<path d="M 57.7 21.0 L 57.3 23.3" stroke-width="1.60"/>
<path d="M 57.3 23.3 L 56.9 25.6 L 56.4 27.8 L 56.0 29.6 L 55.7 30.8" stroke-width="1.40"/>
<path d="M 55.7 30.8 L 55.5 31.3" stroke-width="1.60"/>
<path d="M 55.5 31.3 L 55.5 31.3" stroke-width="2.00"/>
<path d="M 55.5 31.3 L 55.8 30.7 L 56.2 29.5" stroke-width="2.40"/>
<path d="M 56.2 29.5 L 56.9 27.8" stroke-width="2.00"/>
<path d="M 56.9 27.8 L 57.7 25.6" stroke-width="1.60"/>
<path d="M 57.7 25.6 L 58.8 23.3 L 60.1 21.1" stroke-width="1.40"/>
<path d="M 60.1 21.1 L 61.4 19.3 L 62.9 18.0" stroke-width="1.20"/>
<path d="M 62.9 18.0 L 64.3 17.2 L 65.6 16.9" stroke-width="1.40"/>
<path d="M 65.6 16.9 L 66.7 17.1 L 67.6 17.9" stroke-width="1.60"/>
<path d="M 67.6 17.9 L 68.3 19.1" stroke-width="1.80"/>
<path d="M 68.3 19.1 L 68.7 20.8 L 68.8 22.8" stroke-width="1.60"/>
<path d="M 68.8 22.8 L 68.8 24.9 L 68.7 26.8 L 68.6 28.2" stroke-width="1.40"/>
<path d="M 68.6 28.2 L 68.5 29.2" stroke-width="1.60"/>
<path d="M 68.5 29.2 L 68.7 29.8" stroke-width="1.80"/>
<path d="M 68.7 29.8 L 69.0 29.8" stroke-width="2.20"/>
<path d="M 69.0 29.8 L 69.6 29.5 L 70.5 28.7" stroke-width="2.40"/>
<path d="M 70.5 28.7 L 71.6 27.6" stroke-width="2.20"/>
<path d="M 71.6 27.6 L 72.8 26.2" stroke-width="1.80"/>
<path d="M 72.8 26.2 L 74.1 24.5" stroke-width="1.60"/>
<path d="M 74.1 24.5 L 75.3 22.7 L 76.3 20.9 L 77.1 19.3 L 77.5 17.8" stroke-width="1.40"/>
<path d="M 77.5 17.8 L 77.7 16.7" stroke-width="1.60"/>
<path d="M 77.7 16.7 L 77.6 16.0" stroke-width="1.80"/>
<path d="M 77.6 16.0 L 77.2 15.7" stroke-width="2.00"/>
<path d="M 77.2 15.7 L 76.6 15.7" stroke-width="2.20"/>
<path d="M 76.6 15.7 L 75.8 16.3" stroke-width="2.40"/>
<path d="M 75.8 16.3 L 75.0 17.3" stroke-width="2.20"/>
<path d="M 75.0 17.3 L 74.1 18.8" stroke-width="2.00"/>
<path d="M 74.1 18.8 L 73.5 20.7" stroke-width="1.80"/>
<path d="M 73.5 20.7 L 73.2 22.8" stroke-width="1.60"/>
<path d="M 73.2 22.8 L 73.2 24.8 L 73.6 26.7 L 74.4 28.2 L 75.5 29.4" stroke-width="1.40"/>
<path d="M 75.5 29.4 L 76.9 30.1 L 78.5 30.3 L 80.2 30.1 L 81.9 29.4" stroke-width="1.60"/>
<path d="M 81.9 29.4 L 83.3 28.7" stroke-width="1.40"/>
<path d="M 83.3 28.7 L 84.2 28.2" stroke-width="1.20"/>
<circle cx="104.0" cy="17.9" r="0.63" fill="currentColor" stroke="none"/>
<path d="M 104.0 17.9 L 104.0 17.7" stroke-width="1.60"/>
<path d="M 104.0 17.7 L 103.9 17.3" stroke-width="2.20"/>
<path d="M 103.9 17.3 L 103.7 16.7 L 103.2 16.1 L 102.4 15.6" stroke-width="2.60"/>
<path d="M 102.4 15.6 L 101.5 15.3" stroke-width="2.40"/>
<path d="M 101.5 15.3 L 100.5 15.3 L 99.3 15.8" stroke-width="2.20"/>
<path d="M 99.3 15.8 L 98.2 16.7" stroke-width="2.00"/>
<path d="M 98.2 16.7 L 97.1 18.1" stroke-width="1.80"/>
<path d="M 97.1 18.1 L 96.3 19.7 L 95.7 21.6 L 95.5 23.5" stroke-width="1.60"/>
<path d="M 95.5 23.5 L 95.8 25.2 L 96.4 26.7" stroke-width="1.40"/>
<path d="M 96.4 26.7 L 97.3 27.9 L 98.5 28.5 L 99.9 28.7 L 101.3 28.4 L 102.8 27.5 L 104.0 26.2 L 105.1 24.7" stroke-width="1.60"/>
<path d="M 105.1 24.7 L 105.8 22.9 L 106.3 21.2 L 106.5 19.7" stroke-width="1.40"/>
<path d="M 106.5 19.7 L 106.4 18.3 L 106.3 17.3" stroke-width="1.60"/>
<path d="M 106.3 17.3 L 106.1 16.8" stroke-width="1.40"/>
<circle cx="116.2" cy="17.7" r="0.63" fill="currentColor" stroke="none"/>
<path d="M 116.2 17.7 L 116.8 17.1" stroke-width="1.60"/>
<path d="M 116.8 17.1 L 117.6 16.0 L 118.5 14.4" stroke-width="1.80"/>
<path d="M 118.5 14.4 L 119.2 12.7 L 119.7 10.8 L 120.1 9.2 L 120.2 7.8 L 120.0 6.7" stroke-width="1.60"/>
<path d="M 120.0 6.7 L 119.6 6.1" stroke-width="1.80"/>
<path d="M 119.6 6.1 L 119.0 6.0" stroke-width="2.00"/>
<path d="M 119.0 6.0 L 118.2 6.5" stroke-width="2.20"/>
<path d="M 118.2 6.5 L 117.3 7.7" stroke-width="2.00"/>
<path d="M 117.3 7.7 L 116.3 9.6" stroke-width="1.80"/>
<path d="M 116.3 9.6 L 115.3 12.2" stroke-width="1.60"/>
<path d="M 115.3 12.2 L 114.5 15.4" stroke-width="1.20"/>
<path d="M 114.5 15.4 L 113.7 18.9 L 113.1 22.6 L 112.5 26.3 L 112.0 29.8 L 111.6 32.9 L 111.3 35.3 L 111.0 36.8" stroke-width="1.00"/>
<path d="M 111.0 36.8 L 110.8 37.6 L 110.7 37.9" stroke-width="1.20"/>
<circle cx="111.3" cy="22.6" r="0.63" fill="currentColor" stroke="none"/>
<path d="M 111.3 22.6 L 111.4 22.6" stroke-width="1.60"/>
<path d="M 111.4 22.6 L 111.5 22.6" stroke-width="2.40"/>
<path d="M 111.5 22.6 L 111.7 22.6 L 112.0 22.6 L 112.6 22.5 L 113.4 22.3" stroke-width="2.60"/>
<path d="M 113.4 22.3 L 114.1 22.1" stroke-width="2.40"/>
<path d="M 114.1 22.1 L 114.7 22.0" stroke-width="2.00"/>
<circle cx="136.8" cy="17.6" r="0.63" fill="currentColor" stroke="none"/>
<path d="M 136.8 17.6 L 136.7 18.4" stroke-width="1.60"/>
<path d="M 136.7 18.4 L 136.4 19.8 L 135.9 21.7" stroke-width="1.80"/>
<path d="M 135.9 21.7 L 135.4 23.9" stroke-width="1.60"/>
<path d="M 135.4 23.9 L 134.9 26.2 L 134.5 28.3" stroke-width="1.40"/>
<path d="M 134.5 28.3 L 134.2 29.8 L 134.1 30.7" stroke-width="1.20"/>
<circle cx="137.7" cy="8.3" r="0.63" fill="currentColor" stroke="none"/>
<path d="M 137.7 8.3 L 137.8 8.3" stroke-width="1.60"/>
<path d="M 137.8 8.3 L 137.9 8.3" stroke-width="2.40"/>
<path d="M 137.9 8.3 L 137.9 8.4 L 137.9 8.5 L 138.0 8.6 L 138.1 8.7" stroke-width="2.60"/>
<path d="M 138.1 8.7 L 138.2 8.8" stroke-width="2.40"/>
<path d="M 138.2 8.8 L 138.4 8.9" stroke-width="2.00"/>
<circle cx="141.6" cy="15.6" r="0.63" fill="currentColor" stroke="none"/>
<path d="M 141.6 15.6 L 141.6 15.6" stroke-width="1.60"/>
<path d="M 141.6 15.6 L 141.5 15.7" stroke-width="2.40"/>
<path d="M 141.5 15.7 L 141.4 16.2 L 141.2 17.1" stroke-width="2.60"/>
<path d="M 141.2 17.1 L 141.0 18.5" stroke-width="2.40"/>
<path d="M 141.0 18.5 L 140.7 20.4" stroke-width="2.00"/>
<path d="M 140.7 20.4 L 140.4 22.6" stroke-width="1.80"/>
<path d="M 140.4 22.6 L 140.0 24.8" stroke-width="1.60"/>
<path d="M 140.0 24.8 L 139.5 26.7 L 139.1 28.2" stroke-width="1.40"/>
<path d="M 139.1 28.2 L 138.7 29.1" stroke-width="1.60"/>
<path d="M 138.7 29.1 L 138.6 29.5" stroke-width="1.80"/>
<path d="M 138.6 29.5 L 138.5 29.4" stroke-width="2.20"/>
<path d="M 138.5 29.4 L 138.7 28.8" stroke-width="2.60"/>
<path d="M 138.7 28.8 L 139.1 27.5" stroke-width="2.40"/>
<path d="M 139.1 27.5 L 139.7 25.7" stroke-width="2.00"/>
<path d="M 139.7 25.7 L 140.5 23.6" stroke-width="1.60"/>
<path d="M 140.5 23.6 L 141.6 21.3 L 142.8 19.2" stroke-width="1.40"/>
<path d="M 142.8 19.2 L 144.1 17.5 L 145.5 16.1" stroke-width="1.20"/>
<path d="M 145.5 16.1 L 146.8 15.3 L 148.0 15.1" stroke-width="1.40"/>
<path d="M 148.0 15.1 L 149.0 15.4" stroke-width="1.60"/>
<path d="M 149.0 15.4 L 149.7 16.3 L 150.3 17.8" stroke-width="1.80"/>
<path d="M 150.3 17.8 L 150.7 19.8" stroke-width="1.60"/>
<path d="M 150.7 19.8 L 150.8 22.0 L 150.8 24.2 L 150.6 26.3 L 150.4 28.1 L 150.1 29.4" stroke-width="1.40"/>
<path d="M 150.1 29.4 L 150.0 30.2" stroke-width="1.60"/>
<path d="M 150.0 30.2 L 150.1 30.3" stroke-width="2.00"/>
<path d="M 150.1 30.3 L 150.2 30.1" stroke-width="2.20"/>
<path d="M 150.2 30.1 L 150.4 29.8" stroke-width="2.00"/>
<circle cx="161.1" cy="7.9" r="0.63" fill="currentColor" stroke="none"/>
<path d="M 161.1 7.9 L 161.2 7.6" stroke-width="1.60"/>
<path d="M 161.2 7.6 L 161.3 7.4" stroke-width="2.20"/>
<path d="M 161.3 7.4 L 161.3 7.5 L 161.1 8.2" stroke-width="2.60"/>
<path d="M 161.1 8.2 L 160.8 9.6" stroke-width="2.40"/>
<path d="M 160.8 9.6 L 160.3 11.7" stroke-width="2.00"/>
<path d="M 160.3 11.7 L 159.8 14.3" stroke-width="1.60"/>
<path d="M 159.8 14.3 L 159.2 17.2" stroke-width="1.40"/>
<path d="M 159.2 17.2 L 158.6 20.2 L 157.9 23.0" stroke-width="1.20"/>
<path d="M 157.9 23.0 L 157.3 25.4" stroke-width="1.00"/>
<path d="M 157.3 25.4 L 156.8 27.3 L 156.6 28.6" stroke-width="1.20"/>
<path d="M 156.6 28.6 L 156.6 29.1" stroke-width="1.60"/>
<path d="M 156.6 29.1 L 156.7 29.1 L 156.9 29.0" stroke-width="1.80"/>
<circle cx="167.1" cy="16.5" r="0.63" fill="currentColor" stroke="none"/>
<path d="M 167.1 16.5 L 167.2 16.5" stroke-width="1.60"/>
<path d="M 167.2 16.5 L 167.1 16.5" stroke-width="2.40"/>
<path d="M 167.1 16.5 L 166.6 16.7 L 165.7 17.0" stroke-width="2.60"/>
<path d="M 165.7 17.0 L 164.5 17.6" stroke-width="2.40"/>
<path d="M 164.5 17.6 L 163.0 18.3" stroke-width="2.00"/>
<path d="M 163.0 18.3 L 161.5 19.0 L 160.3 19.7 L 159.4 20.2" stroke-width="1.80"/>
<path d="M 159.4 20.2 L 158.9 20.5" stroke-width="2.00"/>
<path d="M 158.9 20.5 L 158.9 20.7" stroke-width="2.40"/>
<path d="M 158.9 20.7 L 159.2 20.9 L 159.9 21.2" stroke-width="2.60"/>
<path d="M 159.9 21.2 L 161.0 21.8" stroke-width="2.40"/>
<path d="M 161.0 21.8 L 162.4 22.6" stroke-width="2.20"/>
<path d="M 162.4 22.6 L 163.9 23.6" stroke-width="1.80"/>
<path d="M 163.9 23.6 L 165.4 24.7 L 166.8 26.0 L 168.0 27.3 L 169.0 28.4 L 169.7 29.2" stroke-width="1.60"/>
<path d="M 169.7 29.2 L 170.1 29.7" stroke-width="1.80"/>
<path d="M 170.1 29.7 L 170.3 29.9" stroke-width="2.20"/>
<path d="M 170.3 29.9 L 170.4 29.9" stroke-width="2.40"/>
<path d="M 170.4 29.9 L 170.4 29.8 L 170.3 29.7" stroke-width="2.60"/>
<path d="M 170.3 29.7 L 170.2 29.5" stroke-width="2.40"/>
<path d="M 170.2 29.5 L 170.0 29.4" stroke-width="2.00"/>
<circle cx="179.4" cy="26.8" r="0.63" fill="currentColor" stroke="none"/>
<path d="M 179.4 26.8 L 179.5 26.8" stroke-width="1.60"/>
<path d="M 179.5 26.8 L 179.4 26.9" stroke-width="2.40"/>
<path d="M 179.4 26.9 L 179.3 27.3 L 178.9 28.2" stroke-width="2.60"/>
<path d="M 178.9 28.2 L 178.4 29.7" stroke-width="2.40"/>
<path d="M 178.4 29.7 L 177.7 31.5" stroke-width="2.00"/>
<path d="M 177.7 31.5 L 177.0 33.6" stroke-width="1.60"/>
<path d="M 177.0 33.6 L 176.3 35.7 L 175.8 37.4" stroke-width="1.40"/>
<path d="M 175.8 37.4 L 175.5 38.6 L 175.5 39.3 L 175.6 39.5" stroke-width="1.60"/>
<circle cx="197.8" cy="9.0" r="0.63" fill="currentColor" stroke="none"/>
<path d="M 197.8 9.0 L 197.8 9.0" stroke-width="1.60"/>
<path d="M 197.8 9.0 L 197.8 9.2" stroke-width="2.40"/>
<path d="M 197.8 9.2 L 197.6 9.6 L 197.3 10.6" stroke-width="2.60"/>
<path d="M 197.3 10.6 L 196.9 12.3" stroke-width="2.40"/>
<path d="M 196.9 12.3 L 196.5 14.4" stroke-width="1.80"/>
<path d="M 196.5 14.4 L 196.1 17.0" stroke-width="1.60"/>
<path d="M 196.1 17.0 L 195.7 19.9" stroke-width="1.40"/>
<path d="M 195.7 19.9 L 195.2 22.7 L 194.7 25.4 L 194.1 27.7 L 193.7 29.4" stroke-width="1.20"/>
<path d="M 193.7 29.4 L 193.5 30.5" stroke-width="1.40"/>
<path d="M 193.5 30.5 L 193.4 30.7" stroke-width="1.60"/>
<path d="M 193.4 30.7 L 193.4 30.4" stroke-width="2.00"/>
<path d="M 193.4 30.4 L 193.5 30.1" stroke-width="1.80"/>
<circle cx="197.0" cy="16.7" r="0.63" fill="currentColor" stroke="none"/>
<path d="M 197.0 16.7 L 196.9 16.6" stroke-width="1.60"/>
<path d="M 196.9 16.6 L 196.5 16.6" stroke-width="2.20"/>
<path d="M 196.5 16.6 L 196.0 16.6 L 195.2 16.9 L 194.4 17.2" stroke-width="2.60"/>
<path d="M 194.4 17.2 L 193.6 17.5 L 192.9 17.8" stroke-width="2.40"/>
<path d="M 192.9 17.8 L 192.4 17.9 L 192.3 17.8 L 192.5 17.5" stroke-width="2.60"/>
<path d="M 192.5 17.5 L 192.9 17.1" stroke-width="2.40"/>
<path d="M 192.9 17.1 L 193.2 16.7" stroke-width="2.00"/>
<circle cx="204.5" cy="8.6" r="0.63" fill="currentColor" stroke="none"/>
<path d="M 204.5 8.6 L 204.5 8.6" stroke-width="1.60"/>
<path d="M 204.5 8.6 L 204.5 8.8" stroke-width="2.40"/>
<path d="M 204.5 8.8 L 204.4 9.4 L 204.2 10.6" stroke-width="2.60"/>
<path d="M 204.2 10.6 L 203.8 12.3" stroke-width="2.20"/>
<path d="M 203.8 12.3 L 203.4 14.5" stroke-width="1.80"/>
<path d="M 203.4 14.5 L 203.0 17.0" stroke-width="1.60"/>
<path d="M 203.0 17.0 L 202.5 19.6" stroke-width="1.40"/>
<path d="M 202.5 19.6 L 202.0 22.2 L 201.5 24.6 L 201.0 26.5" stroke-width="1.20"/>
<path d="M 201.0 26.5 L 200.6 27.9 L 200.3 28.7" stroke-width="1.40"/>
<path d="M 200.3 28.7 L 200.2 29.0" stroke-width="1.80"/>
<path d="M 200.2 29.0 L 200.2 28.8" stroke-width="2.20"/>
<path d="M 200.2 28.8 L 200.3 28.0" stroke-width="2.40"/>
<path d="M 200.3 28.0 L 200.7 26.7" stroke-width="2.20"/>
<path d="M 200.7 26.7 L 201.3 24.9" stroke-width="2.00"/>
<path d="M 201.3 24.9 L 202.0 22.9" stroke-width="1.80"/>
<path d="M 202.0 22.9 L 203.0 20.9" stroke-width="1.60"/>
<path d="M 203.0 20.9 L 204.1 19.1 L 205.2 17.6 L 206.4 16.4 L 207.6 15.8" stroke-width="1.40"/>
<path d="M 207.6 15.8 L 208.6 15.6" stroke-width="1.60"/>
<path d="M 208.6 15.6 L 209.5 15.8 L 210.3 16.5" stroke-width="1.80"/>
<path d="M 210.3 16.5 L 210.8 17.6" stroke-width="2.00"/>
<path d="M 210.8 17.6 L 211.2 19.0 L 211.3 20.6" stroke-width="1.80"/>
<path d="M 211.3 20.6 L 211.4 22.3 L 211.3 24.0 L 211.2 25.5 L 211.1 26.7" stroke-width="1.60"/>
<path d="M 211.1 26.7 L 210.9 27.5" stroke-width="1.80"/>
<path d="M 210.9 27.5 L 210.8 27.8" stroke-width="2.20"/>
<path d="M 210.8 27.8 L 210.9 27.7" stroke-width="2.40"/>
<path d="M 210.9 27.7 L 211.1 27.3" stroke-width="2.60"/>
<path d="M 211.1 27.3 L 211.5 26.7" stroke-width="2.40"/>
<path d="M 211.5 26.7 L 211.7 26.3" stroke-width="2.00"/>
<circle cx="218.0" cy="17.3" r="0.63" fill="currentColor" stroke="none"/>
<path d="M 218.0 17.3 L 218.0 17.5" stroke-width="1.60"/>
<path d="M 218.0 17.5 L 217.8 18.1" stroke-width="2.20"/>
<path d="M 217.8 18.1 L 217.5 19.1" stroke-width="2.40"/>
<path d="M 217.5 19.1 L 217.1 20.8" stroke-width="2.00"/>
<path d="M 217.1 20.8 L 216.6 22.8" stroke-width="1.80"/>
<path d="M 216.6 22.8 L 216.2 25.0" stroke-width="1.60"/>
<path d="M 216.2 25.0 L 215.8 27.1 L 215.5 28.6" stroke-width="1.40"/>
<path d="M 215.5 28.6 L 215.3 29.5" stroke-width="1.60"/>
<path d="M 215.3 29.5 L 215.3 29.7" stroke-width="2.00"/>
<path d="M 215.3 29.7 L 215.3 29.4" stroke-width="2.20"/>
<path d="M 215.3 29.4 L 215.4 29.0" stroke-width="2.00"/>
<circle cx="219.7" cy="10.2" r="0.63" fill="currentColor" stroke="none"/>
<path d="M 219.7 10.2 L 219.7 10.3" stroke-width="1.60"/>
<path d="M 219.7 10.3 L 219.8 10.4 L 219.8 10.5" stroke-width="2.40"/>
<path d="M 219.8 10.5 L 219.9 10.7" stroke-width="2.00"/>
<circle cx="225.6" cy="16.1" r="0.63" fill="currentColor" stroke="none"/>
<path d="M 225.6 16.1 L 225.6 16.2" stroke-width="1.60"/>
<path d="M 225.6 16.2 L 225.4 16.7" stroke-width="2.20"/>
<path d="M 225.4 16.7 L 225.1 17.5" stroke-width="2.40"/>
<path d="M 225.1 17.5 L 224.7 18.9" stroke-width="2.20"/>
<path d="M 224.7 18.9 L 224.2 20.8" stroke-width="2.00"/>
<path d="M 224.2 20.8 L 223.6 22.9" stroke-width="1.60"/>
<path d="M 223.6 22.9 L 223.0 25.2 L 222.4 27.2 L 222.0 28.9 L 221.7 30.0" stroke-width="1.40"/>
<path d="M 221.7 30.0 L 221.5 30.6" stroke-width="1.60"/>
<path d="M 221.5 30.6 L 221.5 30.6" stroke-width="2.20"/>
<path d="M 221.5 30.6 L 221.8 30.0 L 222.3 28.7" stroke-width="2.40"/>
<path d="M 222.3 28.7 L 223.1 26.8" stroke-width="2.00"/>
<path d="M 223.1 26.8 L 224.0 24.6" stroke-width="1.60"/>
<path d="M 224.0 24.6 L 225.2 22.2" stroke-width="1.40"/>
<path d="M 225.2 22.2 L 226.5 20.0 L 228.0 18.2 L 229.4 16.8" stroke-width="1.20"/>
<path d="M 229.4 16.8 L 230.8 16.0 L 231.9 15.7" stroke-width="1.40"/>
<path d="M 231.9 15.7 L 232.8 16.0" stroke-width="1.60"/>
<path d="M 232.8 16.0 L 233.4 16.8 L 233.8 18.3" stroke-width="1.80"/>
<path d="M 233.8 18.3 L 234.0 20.2 L 234.0 22.5" stroke-width="1.60"/>
<path d="M 234.0 22.5 L 233.8 24.9 L 233.6 26.9 L 233.3 28.6 L 233.2 29.6 L 233.1 30.2" stroke-width="1.40"/>
<circle cx="244.0" cy="9.3" r="0.63" fill="currentColor" stroke="none"/>
<path d="M 244.0 9.3 L 244.2 9.0" stroke-width="1.60"/>
<path d="M 244.2 9.0 L 244.5 8.6" stroke-width="2.20"/>
<path d="M 244.5 8.6 L 244.7 8.6 L 244.6 9.2" stroke-width="2.60"/>
<path d="M 244.6 9.2 L 244.4 10.5" stroke-width="2.40"/>
<path d="M 244.4 10.5 L 244.1 12.6" stroke-width="2.00"/>
<path d="M 244.1 12.6 L 243.7 15.2" stroke-width="1.60"/>
<path d="M 243.7 15.2 L 243.2 18.2" stroke-width="1.40"/>
<path d="M 243.2 18.2 L 242.6 21.1 L 242.0 23.7 L 241.5 25.9 L 241.0 27.4" stroke-width="1.20"/>
<path d="M 241.0 27.4 L 240.7 28.2" stroke-width="1.40"/>
<path d="M 240.7 28.2 L 240.7 28.3" stroke-width="1.80"/>
<path d="M 240.7 28.3 L 240.9 28.1 L 241.1 27.7" stroke-width="2.00"/>
<circle cx="250.8" cy="16.3" r="0.63" fill="currentColor" stroke="none"/>
<path d="M 250.8 16.3 L 250.7 16.2" stroke-width="1.60"/>
<path d="M 250.7 16.2 L 250.5 16.1" stroke-width="2.40"/>
<path d="M 250.5 16.1 L 249.8 16.2 L 248.8 16.6" stroke-width="2.60"/>
<path d="M 248.8 16.6 L 247.4 17.2" stroke-width="2.20"/>
<path d="M 247.4 17.2 L 245.9 17.9" stroke-width="2.00"/>
<path d="M 245.9 17.9 L 244.4 18.7 L 243.2 19.3 L 242.3 19.9" stroke-width="1.80"/>
<path d="M 242.3 19.9 L 241.9 20.2" stroke-width="2.00"/>
<path d="M 241.9 20.2 L 242.0 20.4" stroke-width="2.40"/>
<path d="M 242.0 20.4 L 242.6 20.7" stroke-width="2.60"/>
<path d="M 242.6 20.7 L 243.7 21.3" stroke-width="2.40"/>
<path d="M 243.7 21.3 L 245.2 22.1" stroke-width="2.20"/>
<path d="M 245.2 22.1 L 246.8 23.3" stroke-width="1.80"/>
<path d="M 246.8 23.3 L 248.5 24.8" stroke-width="1.60"/>
<path d="M 248.5 24.8 L 250.0 26.4 L 251.4 27.9 L 252.3 29.0" stroke-width="1.40"/>
<path d="M 252.3 29.0 L 252.8 29.6" stroke-width="1.20"/>
<circle cx="257.4" cy="16.5" r="0.63" fill="currentColor" stroke="none"/>
<path d="M 257.4 16.5 L 257.4 16.6" stroke-width="1.60"/>
<path d="M 257.4 16.6 L 257.4 17.0" stroke-width="2.20"/>
<path d="M 257.4 17.0 L 257.3 18.0" stroke-width="2.60"/>
<path d="M 257.3 18.0 L 257.1 19.5" stroke-width="2.20"/>
<path d="M 257.1 19.5 L 256.9 21.5" stroke-width="2.00"/>
<path d="M 256.9 21.5 L 256.6 23.8" stroke-width="1.60"/>
<path d="M 256.6 23.8 L 256.2 26.0 L 255.9 27.8 L 255.6 29.0" stroke-width="1.40"/>
<path d="M 255.6 29.0 L 255.5 29.4" stroke-width="1.80"/>
<path d="M 255.5 29.4 L 255.5 29.3 L 255.6 29.1" stroke-width="2.00"/>
<circle cx="259.3" cy="8.9" r="0.63" fill="currentColor" stroke="none"/>
<path d="M 259.3 8.9 L 259.3 8.9" stroke-width="1.60"/>
<path d="M 259.3 8.9 L 259.4 8.8 L 259.4 8.8" stroke-width="2.40"/>
<path d="M 259.4 8.8 L 259.4 8.8" stroke-width="2.00"/>
<circle cx="264.5" cy="15.8" r="0.63" fill="currentColor" stroke="none"/>
<path d="M 264.5 15.8 L 264.4 16.4" stroke-width="1.60"/>
<path d="M 264.4 16.4 L 264.1 17.6 L 263.7 19.4" stroke-width="1.80"/>
<path d="M 263.7 19.4 L 263.2 21.5" stroke-width="1.60"/>
<path d="M 263.2 21.5 L 262.7 23.7 L 262.2 25.8 L 261.7 27.6 L 261.4 28.9" stroke-width="1.40"/>
<path d="M 261.4 28.9 L 261.1 29.8" stroke-width="1.60"/>
<path d="M 261.1 29.8 L 261.0 30.1" stroke-width="1.80"/>
<path d="M 261.0 30.1 L 261.0 29.9" stroke-width="2.20"/>
<path d="M 261.0 29.9 L 261.2 29.1" stroke-width="2.40"/>
<path d="M 261.2 29.1 L 261.6 27.7" stroke-width="2.20"/>
<path d="M 261.6 27.7 L 262.3 25.9" stroke-width="2.00"/>
<path d="M 262.3 25.9 L 263.1 23.9" stroke-width="1.60"/>
<path d="M 263.1 23.9 L 264.2 21.8 L 265.4 19.9 L 266.8 18.3 L 268.3 17.2 L 269.8 16.6 L 271.1 16.5" stroke-width="1.40"/>
<path d="M 271.1 16.5 L 272.3 16.9 L 273.2 17.8 L 273.8 19.2 L 274.1 21.0 L 274.2 23.0" stroke-width="1.60"/>
<path d="M 274.2 23.0 L 274.0 25.1 L 273.8 26.8 L 273.5 28.2" stroke-width="1.40"/>
<path d="M 273.5 28.2 L 273.4 29.1" stroke-width="1.60"/>
<path d="M 273.4 29.1 L 273.4 29.6 L 273.5 29.7" stroke-width="1.80"/>
<circle cx="285.8" cy="20.1" r="0.63" fill="currentColor" stroke="none"/>
<path d="M 285.8 20.1 L 285.9 19.6" stroke-width="1.60"/>
<path d="M 285.9 19.6 L 285.9 18.9" stroke-width="2.00"/>
<path d="M 285.9 18.9 L 285.6 18.2 L 285.0 17.5" stroke-width="2.40"/>
<path d="M 285.0 17.5 L 284.1 17.2 L 282.8 17.1" stroke-width="2.20"/>
<path d="M 282.8 17.1 L 281.4 17.6" stroke-width="2.00"/>
<path d="M 281.4 17.6 L 280.0 18.4 L 278.7 19.7" stroke-width="1.80"/>
<path d="M 278.7 19.7 L 277.6 21.3 L 276.9 23.0" stroke-width="1.60"/>
<path d="M 276.9 23.0 L 276.7 24.8 L 276.9 26.4" stroke-width="1.40"/>
<path d="M 276.9 26.4 L 277.5 27.7 L 278.4 28.4" stroke-width="1.60"/>
<path d="M 278.4 28.4 L 279.6 28.6 L 281.0 28.1" stroke-width="1.80"/>
<path d="M 281.0 28.1 L 282.4 27.1 L 283.7 25.6" stroke-width="1.60"/>
<path d="M 283.7 25.6 L 284.8 23.9 L 285.8 22.2 L 286.4 20.7" stroke-width="1.40"/>
<path d="M 286.4 20.7 L 286.8 19.6" stroke-width="1.60"/>
<path d="M 286.8 19.6 L 287.0 18.8" stroke-width="1.80"/>
<path d="M 287.0 18.8 L 287.0 18.4" stroke-width="2.00"/>
<path d="M 287.0 18.4 L 286.9 18.5" stroke-width="2.40"/>
<path d="M 286.9 18.5 L 286.8 19.1 L 286.5 20.2" stroke-width="2.60"/>
<path d="M 286.5 20.2 L 286.2 22.0" stroke-width="2.20"/>
<path d="M 286.2 22.0 L 285.9 24.2" stroke-width="1.80"/>
<path d="M 285.9 24.2 L 285.7 26.8" stroke-width="1.60"/>
<path d="M 285.7 26.8 L 285.4 29.6" stroke-width="1.40"/>
<path d="M 285.4 29.6 L 285.2 32.4 L 284.9 35.1 L 284.5 37.6 L 283.9 39.6 L 283.3 41.2" stroke-width="1.20"/>
<path d="M 283.3 41.2 L 282.5 42.3" stroke-width="1.40"/>
<path d="M 282.5 42.3 L 281.6 42.8 L 280.6 42.8" stroke-width="1.60"/>
<path d="M 280.6 42.8 L 279.6 42.3 L 278.6 41.4 L 277.7 40.2 L 277.1 38.7" stroke-width="1.80"/>
<path d="M 277.1 38.7 L 276.8 37.2 L 276.8 35.8 L 277.0 34.7" stroke-width="1.60"/>
<path d="M 277.0 34.7 L 277.2 34.0" stroke-width="1.40"/>
<circle cx="314.3" cy="20.2" r="0.63" fill="currentColor" stroke="none"/>
<path d="M 314.3 20.2 L 314.3 19.8" stroke-width="1.60"/>
<path d="M 314.3 19.8 L 314.0 19.1" stroke-width="2.00"/>
<path d="M 314.0 19.1 L 313.6 18.3 L 312.8 17.5 L 311.7 17.1" stroke-width="2.20"/>
<path d="M 311.7 17.1 L 310.3 16.9" stroke-width="2.00"/>
<path d="M 310.3 16.9 L 308.8 17.2 L 307.2 17.8" stroke-width="1.80"/>
<path d="M 307.2 17.8 L 305.6 19.0 L 304.2 20.5" stroke-width="1.60"/>
<path d="M 304.2 20.5 L 303.1 22.4 L 302.4 24.6 L 302.2 26.7 L 302.3 28.5 L 302.9 29.9" stroke-width="1.40"/>
<path d="M 302.9 29.9 L 303.8 30.7 L 304.9 31.0" stroke-width="1.60"/>
<path d="M 304.9 31.0 L 306.2 30.5" stroke-width="1.80"/>
<path d="M 306.2 30.5 L 307.6 29.4 L 309.1 27.8" stroke-width="1.60"/>
<path d="M 309.1 27.8 L 310.5 25.8" stroke-width="1.40"/>
<path d="M 310.5 25.8 L 311.9 23.7 L 313.0 21.7 L 313.8 20.1" stroke-width="1.20"/>
<path d="M 313.8 20.1 L 314.4 19.1" stroke-width="1.40"/>
<path d="M 314.4 19.1 L 314.7 18.5" stroke-width="1.60"/>
<path d="M 314.7 18.5 L 314.7 18.4" stroke-width="2.00"/>
<path d="M 314.7 18.4 L 314.6 18.8 L 314.2 19.8" stroke-width="2.40"/>
<path d="M 314.2 19.8 L 313.7 21.3" stroke-width="2.20"/>
<path d="M 313.7 21.3 L 313.2 23.3" stroke-width="1.80"/>
<path d="M 313.2 23.3 L 312.7 25.5" stroke-width="1.60"/>
<path d="M 312.7 25.5 L 312.4 27.7 L 312.3 29.4 L 312.4 30.6 L 312.5 31.3" stroke-width="1.40"/>
<circle cx="324.3" cy="18.2" r="0.63" fill="currentColor" stroke="none"/>
<path d="M 324.3 18.2 L 324.3 17.9" stroke-width="1.60"/>
<path d="M 324.3 17.9 L 324.3 17.3" stroke-width="2.20"/>
<path d="M 324.3 17.3 L 324.0 16.8" stroke-width="2.40"/>
<path d="M 324.0 16.8 L 323.3 16.6" stroke-width="2.60"/>
<path d="M 323.3 16.6 L 322.4 16.6 L 321.3 16.9" stroke-width="2.40"/>
<path d="M 321.3 16.9 L 320.2 17.4 L 319.3 18.0 L 318.6 18.8 L 318.4 19.7 L 318.5 20.7 L 319.1 21.8" stroke-width="2.20"/>
<path d="M 319.1 21.8 L 320.0 23.0" stroke-width="2.00"/>
<path d="M 320.0 23.0 L 321.2 24.3" stroke-width="1.80"/>
<path d="M 321.2 24.3 L 322.4 25.7 L 323.6 27.2 L 324.5 28.5 L 325.1 29.5" stroke-width="1.60"/>
<path d="M 325.1 29.5 L 325.3 30.3" stroke-width="1.80"/>
<path d="M 325.3 30.3 L 325.0 30.8" stroke-width="2.00"/>
<path d="M 325.0 30.8 L 324.4 31.1 L 323.4 31.1 L 322.2 31.0" stroke-width="2.20"/>
<path d="M 322.2 31.0 L 320.9 30.6 L 319.6 30.2" stroke-width="2.00"/>
<path d="M 319.6 30.2 L 318.5 29.7 L 317.8 29.2 L 317.4 29.0" stroke-width="1.80"/>
<circle cx="342.7" cy="17.1" r="0.63" fill="currentColor" stroke="none"/>
<path d="M 342.7 17.1 L 342.6 17.2" stroke-width="1.60"/>
<path d="M 342.6 17.2 L 342.5 17.7" stroke-width="2.20"/>
<path d="M 342.5 17.7 L 342.2 18.6" stroke-width="2.40"/>
<path d="M 342.2 18.6 L 341.7 20.0" stroke-width="2.20"/>
<path d="M 341.7 20.0 L 341.3 21.9" stroke-width="2.00"/>
<path d="M 341.3 21.9 L 340.8 24.2" stroke-width="1.60"/>
<path d="M 340.8 24.2 L 340.5 26.5 L 340.2 28.5 L 340.0 30.0" stroke-width="1.40"/>
<path d="M 340.0 30.0 L 339.9 30.8" stroke-width="1.60"/>
<path d="M 339.9 30.8 L 339.9 30.9 L 340.0 30.8" stroke-width="1.80"/>
<circle cx="345.1" cy="6.3" r="0.63" fill="currentColor" stroke="none"/>
<path d="M 345.1 6.3 L 345.1 6.3" stroke-width="1.60"/>
<path d="M 345.1 6.3 L 345.2 6.3 L 345.2 6.2" stroke-width="2.40"/>
<path d="M 345.2 6.2 L 345.2 6.2" stroke-width="2.00"/>
<circle cx="352.8" cy="6.7" r="0.63" fill="currentColor" stroke="none"/>
<path d="M 352.8 6.7 L 352.6 7.0" stroke-width="1.60"/>
<path d="M 352.6 7.0 L 352.3 7.6 L 351.7 8.9" stroke-width="2.20"/>
<path d="M 351.7 8.9 L 351.1 10.7" stroke-width="2.00"/>
<path d="M 351.1 10.7 L 350.3 13.2" stroke-width="1.60"/>
<path d="M 350.3 13.2 L 349.6 16.0" stroke-width="1.40"/>
<path d="M 349.6 16.0 L 348.9 19.1" stroke-width="1.20"/>
<path d="M 348.9 19.1 L 348.2 22.0 L 347.7 24.6" stroke-width="1.00"/>
<path d="M 347.7 24.6 L 347.2 26.6 L 346.9 27.9 L 346.7 28.5" stroke-width="1.20"/>
<circle cx="350.6" cy="18.0" r="0.63" fill="currentColor" stroke="none"/>
<path d="M 350.6 18.0 L 350.4 17.8" stroke-width="1.60"/>
<path d="M 350.4 17.8 L 350.1 17.6" stroke-width="2.20"/>
<path d="M 350.1 17.6 L 349.4 17.3 L 348.6 17.2" stroke-width="2.60"/>
<path d="M 348.6 17.2 L 347.7 17.1 L 346.9 17.1 L 346.3 17.2" stroke-width="2.40"/>
<path d="M 346.3 17.2 L 346.0 17.2" stroke-width="2.00"/>
<circle cx="372.5" cy="17.7" r="0.63" fill="currentColor" stroke="none"/>
<path d="M 372.5 17.7 L 372.6 17.3" stroke-width="1.60"/>
<path d="M 372.6 17.3 L 372.6 16.6" stroke-width="2.00"/>
<path d="M 372.6 16.6 L 372.3 15.7 L 371.7 15.0 L 370.8 14.6 L 369.7 14.5" stroke-width="2.20"/>
<path d="M 369.7 14.5 L 368.4 15.0 L 367.2 16.0" stroke-width="2.00"/>
<path d="M 367.2 16.0 L 366.2 17.5" stroke-width="1.80"/>
<path d="M 366.2 17.5 L 365.3 19.4" stroke-width="1.60"/>
<path d="M 365.3 19.4 L 364.9 21.3 L 364.8 23.2 L 365.0 24.6" stroke-width="1.40"/>
<path d="M 365.0 24.6 L 365.6 25.5" stroke-width="1.60"/>
<path d="M 365.6 25.5 L 366.5 25.9 L 367.6 25.6 L 368.8 24.7 L 369.9 23.4" stroke-width="1.80"/>
<path d="M 369.9 23.4 L 371.0 21.8 L 371.8 20.3 L 372.3 19.1" stroke-width="1.60"/>
<path d="M 372.3 19.1 L 372.6 18.3" stroke-width="1.80"/>
<path d="M 372.6 18.3 L 372.7 17.9" stroke-width="2.00"/>
<path d="M 372.7 17.9 L 372.7 18.0" stroke-width="2.40"/>
<path d="M 372.7 18.0 L 372.6 18.8" stroke-width="2.60"/>
<path d="M 372.6 18.8 L 372.4 20.1" stroke-width="2.40"/>
<path d="M 372.4 20.1 L 372.1 22.1" stroke-width="2.00"/>
<path d="M 372.1 22.1 L 371.8 24.6" stroke-width="1.60"/>
<path d="M 371.8 24.6 L 371.3 27.4" stroke-width="1.40"/>
<path d="M 371.3 27.4 L 370.8 30.2 L 370.3 33.0 L 369.6 35.6 L 368.8 37.8 L 367.8 39.4 L 366.8 40.5" stroke-width="1.20"/>
<path d="M 366.8 40.5 L 365.8 40.9" stroke-width="1.40"/>
<path d="M 365.8 40.9 L 364.8 40.7" stroke-width="1.60"/>
<path d="M 364.8 40.7 L 363.9 40.0 L 363.3 39.2" stroke-width="1.80"/>
<path d="M 363.3 39.2 L 363.0 38.6" stroke-width="1.60"/>
<circle cx="384.1" cy="18.5" r="0.63" fill="currentColor" stroke="none"/>
<path d="M 384.1 18.5 L 384.2 18.1" stroke-width="1.60"/>
<path d="M 384.2 18.1 L 384.1 17.5" stroke-width="2.20"/>
<path d="M 384.1 17.5 L 383.7 16.7 L 383.1 16.0" stroke-width="2.40"/>
<path d="M 383.1 16.0 L 382.2 15.5 L 381.0 15.3" stroke-width="2.20"/>
<path d="M 381.0 15.3 L 379.8 15.6 L 378.6 16.3" stroke-width="2.00"/>
<path d="M 378.6 16.3 L 377.5 17.5 L 376.7 19.0" stroke-width="1.80"/>
<path d="M 376.7 19.0 L 376.2 20.8 L 376.1 22.6 L 376.4 24.2 L 377.1 25.5 L 378.1 26.3 L 379.3 26.6" stroke-width="1.60"/>
<path d="M 379.3 26.6 L 380.6 26.4 L 381.9 25.6" stroke-width="1.80"/>
<path d="M 381.9 25.6 L 383.1 24.3 L 384.0 22.7 L 384.6 21.0 L 384.9 19.4 L 385.0 18.1 L 385.0 17.1" stroke-width="1.60"/>
<path d="M 385.0 17.1 L 385.0 16.6" stroke-width="2.00"/>
<path d="M 385.0 16.6 L 385.0 16.3" stroke-width="2.20"/>
<path d="M 385.0 16.3 L 385.0 16.3" stroke-width="2.40"/>
<path d="M 385.0 16.3 L 385.0 16.3" stroke-width="2.00"/>
<circle cx="387.0" cy="21.7" r="0.63" fill="currentColor" stroke="none"/>
<path d="M 387.0 21.7 L 387.5 21.6" stroke-width="1.60"/>
<path d="M 387.5 21.6 L 388.4 21.3 L 389.6 20.8 L 390.9 20.2" stroke-width="2.00"/>
<path d="M 390.9 20.2 L 392.2 19.4 L 393.3 18.5 L 394.3 17.5 L 394.9 16.5 L 395.2 15.6" stroke-width="1.80"/>
<path d="M 395.2 15.6 L 395.1 14.8" stroke-width="2.00"/>
<path d="M 395.1 14.8 L 394.6 14.3 L 393.8 14.1 L 392.8 14.3 L 391.7 15.1" stroke-width="2.20"/>
<path d="M 391.7 15.1 L 390.6 16.3" stroke-width="2.00"/>
<path d="M 390.6 16.3 L 389.6 17.8" stroke-width="1.80"/>
<path d="M 389.6 17.8 L 388.9 19.6 L 388.6 21.5 L 388.7 23.2 L 389.1 24.6 L 390.0 25.6 L 391.1 26.1 L 392.1 26.2 L 392.8 26.1" stroke-width="1.60"/>
<circle cx="402.7" cy="15.1" r="0.63" fill="currentColor" stroke="none"/>
<path d="M 402.7 15.1 L 402.6 14.8" stroke-width="1.60"/>
<path d="M 402.6 14.8 L 402.2 14.5" stroke-width="2.20"/>
<path d="M 402.2 14.5 L 401.6 14.2 L 400.7 14.2 L 399.7 14.6" stroke-width="2.40"/>
<path d="M 399.7 14.6 L 398.9 15.3 L 398.2 16.2 L 397.8 17.2" stroke-width="2.20"/>
<path d="M 397.8 17.2 L 397.9 18.3 L 398.3 19.5 L 399.0 20.7" stroke-width="2.00"/>
<path d="M 399.0 20.7 L 399.9 22.0 L 400.8 23.3" stroke-width="1.80"/>
<path d="M 400.8 23.3 L 401.5 24.6" stroke-width="1.60"/>
<path d="M 401.5 24.6 L 401.9 25.8 L 401.9 26.7" stroke-width="1.80"/>
<path d="M 401.9 26.7 L 401.5 27.3" stroke-width="2.00"/>
<path d="M 401.5 27.3 L 400.8 27.6 L 399.8 27.6 L 398.6 27.4" stroke-width="2.20"/>
<path d="M 398.6 27.4 L 397.4 26.9 L 396.3 26.4" stroke-width="2.00"/>
<path d="M 396.3 26.4 L 395.5 25.9" stroke-width="1.80"/>
<path d="M 395.5 25.9 L 395.0 25.6" stroke-width="1.60"/>
</svg>
