<svg xmlns="http://www.w3.org/2000/svg" viewBox="0 0 570.0 53.3" fill="none" stroke="currentColor" stroke-linecap="round" stroke-linejoin="round" role="img">
<circle cx="21.3" cy="28.4" r="0.77" fill="currentColor" stroke="none"/>
<path d="M 21.3 28.4 L 21.2 28.0" stroke-width="2.00"/>
<path d="M 21.2 28.0 L 20.9 27.3" stroke-width="2.60"/>
<path d="M 20.9 27.3 L 20.3 26.6 L 19.5 25.9" stroke-width="2.80"/>
<path d="M 19.5 25.9 L 18.3 25.5" stroke-width="2.60"/>
<path d="M 18.3 25.5 L 16.8 25.3" stroke-width="2.40"/>
<path d="M 16.8 25.3 L 15.1 25.4" stroke-width="2.20"/>
<path d="M 15.1 25.4 L 13.2 25.8 L 11.3 26.6" stroke-width="2.00"/>
<path d="M 11.3 26.6 L 9.5 27.8 L 7.9 29.3" stroke-width="1.80"/>
<path d="M 7.9 29.3 L 6.7 30.8" stroke-width="1.60"/>
<path d="M 6.7 30.8 L 6.0 32.4 L 6.0 33.9" stroke-width="1.80"/>
<path d="M 6.0 33.9 L 6.7 35.1 L 8.0 35.9 L 9.8 36.2" stroke-width="2.00"/>
<path d="M 9.8 36.2 L 12.0 36.1 L 14.4 35.4" stroke-width="1.80"/>
<path d="M 14.4 35.4 L 16.8 34.4 L 19.0 32.9" stroke-width="1.60"/>
<path d="M 19.0 32.9 L 20.8 31.3 L 22.3 29.6" stroke-width="1.40"/>
<path d="M 22.3 29.6 L 23.4 28.0 L 24.1 26.7" stroke-width="1.60"/>
<path d="M 24.1 26.7 L 24.5 25.7" stroke-width="1.80"/>
<path d="M 24.5 25.7 L 24.6 25.1" stroke-width="2.20"/>
<path d="M 24.6 25.1 L 24.5 25.1" stroke-width="2.60"/>
<path d="M 24.5 25.1 L 24.2 25.5 L 23.9 26.4" stroke-width="3.00"/>
<path d="M 23.9 26.4 L 23.6 27.8" stroke-width="2.80"/>
<path d="M 23.6 27.8 L 23.4 29.4" stroke-width="2.60"/>
<path d="M 23.4 29.4 L 23.3 31.1 L 23.5 32.8" stroke-width="2.20"/>
<path d="M 23.5 32.8 L 23.9 34.4 L 24.9 35.7 L 26.3 36.7 L 28.1 37.3" stroke-width="2.00"/>
<path d="M 28.1 37.3 L 29.7 37.5" stroke-width="1.80"/>
<path d="M 29.7 37.5 L 30.9 37.6" stroke-width="1.60"/>
<circle cx="61.4" cy="6.0" r="0.77" fill="currentColor" stroke="none"/>
<path d="M 61.4 6.0 L 61.4 6.0" stroke-width="2.00"/>
<path d="M 61.4 6.0 L 61.4 6.2" stroke-width="2.80"/>
<path d="M 61.4 6.2 L 61.3 6.6 L 61.2 7.4" stroke-width="3.20"/>
<path d="M 61.2 7.4 L 61.0 8.6" stroke-width="3.00"/>
<path d="M 61.0 8.6 L 60.6 10.2" stroke-width="2.80"/>
<path d="M 60.6 10.2 L 60.2 12.1" stroke-width="2.40"/>
<path d="M 60.2 12.1 L 59.7 14.5" stroke-width="2.00"/>
<path d="M 59.7 14.5 L 59.1 17.1" stroke-width="1.80"/>
<path d="M 59.1 17.1 L 58.5 20.1" stroke-width="1.60"/>
<path d="M 58.5 20.1 L 57.8 23.2 L 57.3 26.3" stroke-width="1.40"/>
<path d="M 57.3 26.3 L 57.0 29.2 L 56.9 31.7" stroke-width="1.20"/>
<path d="M 56.9 31.7 L 57.1 33.8 L 57.7 35.3" stroke-width="1.40"/>
<path d="M 57.7 35.3 L 58.7 36.1" stroke-width="1.60"/>
<path d="M 58.7 36.1 L 60.1 36.2 L 61.7 35.7 L 63.6 34.7 L 65.5 33.3" stroke-width="1.80"/>
<path d="M 65.5 33.3 L 67.5 31.6 L 69.2 29.9 L 70.8 28.2 L 72.0 26.7 L 72.9 25.6" stroke-width="1.60"/>
<path d="M 72.9 25.6 L 73.4 24.8" stroke-width="1.80"/>
<path d="M 73.4 24.8 L 73.6 24.5" stroke-width="2.20"/>
<path d="M 73.6 24.5 L 73.6 24.6" stroke-width="2.80"/>
<path d="M 73.6 24.6 L 73.4 25.3 L 73.0 26.5" stroke-width="3.00"/>
<path d="M 73.0 26.5 L 72.6 28.0" stroke-width="2.60"/>
<path d="M 72.6 28.0 L 72.1 29.8" stroke-width="2.20"/>
<path d="M 72.1 29.8 L 71.8 31.7 L 71.6 33.3 L 71.5 34.6" stroke-width="2.00"/>
<path d="M 71.5 34.6 L 71.6 35.4" stroke-width="2.20"/>
<path d="M 71.6 35.4 L 71.8 35.6" stroke-width="2.60"/>
<path d="M 71.8 35.6 L 72.0 35.5" stroke-width="2.80"/>
<path d="M 72.0 35.5 L 72.1 35.3" stroke-width="2.60"/>
<circle cx="75.5" cy="15.4" r="0.77" fill="currentColor" stroke="none"/>
<path d="M 75.5 15.4 L 75.5 15.0" stroke-width="2.00"/>
<path d="M 75.5 15.0 L 75.6 14.3" stroke-width="2.60"/>
<path d="M 75.6 14.3 L 75.7 13.8" stroke-width="2.80"/>
<path d="M 75.7 13.8 L 75.7 13.5" stroke-width="2.40"/>
<circle cx="82.1" cy="24.9" r="0.77" fill="currentColor" stroke="none"/>
<path d="M 82.1 24.9 L 82.1 25.2" stroke-width="2.00"/>
<path d="M 82.1 25.2 L 81.9 25.8" stroke-width="2.60"/>
<path d="M 81.9 25.8 L 81.6 26.8 L 81.3 28.1" stroke-width="2.80"/>
<path d="M 81.3 28.1 L 80.8 29.5" stroke-width="2.40"/>
<path d="M 80.8 29.5 L 80.4 31.2 L 80.0 32.7" stroke-width="2.20"/>
<path d="M 80.0 32.7 L 79.7 34.2" stroke-width="2.00"/>
<path d="M 79.7 34.2 L 79.6 35.3" stroke-width="2.20"/>
<path d="M 79.6 35.3 L 79.6 35.9" stroke-width="2.40"/>
<path d="M 79.6 35.9 L 79.8 36.0" stroke-width="2.80"/>
<path d="M 79.8 36.0 L 80.1 35.5" stroke-width="3.20"/>
<path d="M 80.1 35.5 L 80.5 34.4" stroke-width="3.00"/>
<path d="M 80.5 34.4 L 81.1 33.0" stroke-width="2.80"/>
<path d="M 81.1 33.0 L 81.9 31.2" stroke-width="2.40"/>
<path d="M 81.9 31.2 L 82.8 29.3" stroke-width="2.00"/>
<path d="M 82.8 29.3 L 83.8 27.4 L 85.0 25.5" stroke-width="1.80"/>
<path d="M 85.0 25.5 L 86.4 23.9 L 87.9 22.5 L 89.5 21.6" stroke-width="1.60"/>
<path d="M 89.5 21.6 L 91.0 21.1 L 92.4 21.2" stroke-width="1.80"/>
<path d="M 92.4 21.2 L 93.6 21.7 L 94.6 22.7 L 95.3 24.1 L 95.7 25.7 L 95.8 27.4 L 95.8 29.1 L 95.6 30.7" stroke-width="2.00"/>
<path d="M 95.6 30.7 L 95.5 32.0 L 95.4 32.7" stroke-width="1.80"/>
<circle cx="100.6" cy="30.8" r="0.77" fill="currentColor" stroke="none"/>
<path d="M 100.6 30.8 L 100.9 30.8" stroke-width="2.00"/>
<path d="M 100.9 30.8 L 101.6 30.6" stroke-width="2.60"/>
<path d="M 101.6 30.6 L 102.6 30.4" stroke-width="2.80"/>
<path d="M 102.6 30.4 L 103.9 30.0" stroke-width="2.60"/>
<path d="M 103.9 30.0 L 105.5 29.4" stroke-width="2.40"/>
<path d="M 105.5 29.4 L 107.3 28.7" stroke-width="2.20"/>
<path d="M 107.3 28.7 L 109.0 27.9 L 110.5 27.0 L 111.7 26.1 L 112.5 25.2" stroke-width="2.00"/>
<path d="M 112.5 25.2 L 112.7 24.4" stroke-width="2.20"/>
<path d="M 112.7 24.4 L 112.2 23.8" stroke-width="2.40"/>
<path d="M 112.2 23.8 L 111.2 23.5" stroke-width="2.60"/>
<path d="M 111.2 23.5 L 109.7 23.5" stroke-width="2.40"/>
<path d="M 109.7 23.5 L 107.7 23.9" stroke-width="2.20"/>
<path d="M 107.7 23.9 L 105.6 24.7" stroke-width="2.00"/>
<path d="M 105.6 24.7 L 103.7 25.9" stroke-width="1.80"/>
<path d="M 103.7 25.9 L 102.1 27.3 L 101.1 28.8" stroke-width="1.60"/>
<path d="M 101.1 28.8 L 100.8 30.4 L 101.5 31.8 L 103.0 33.0 L 105.4 33.9" stroke-width="1.80"/>
<path d="M 105.4 33.9 L 108.5 34.4" stroke-width="1.60"/>
<path d="M 108.5 34.4 L 112.1 34.7" stroke-width="1.40"/>
<path d="M 112.1 34.7 L 115.8 34.7 L 118.8 34.7" stroke-width="1.20"/>
<path d="M 118.8 34.7 L 120.7 34.6" stroke-width="1.00"/>
<circle cx="152.6" cy="26.8" r="0.77" fill="currentColor" stroke="none"/>
<path d="M 152.6 26.8 L 152.7 26.3" stroke-width="2.00"/>
<path d="M 152.7 26.3 L 152.9 25.6" stroke-width="2.60"/>
<path d="M 152.9 25.6 L 152.8 24.7 L 152.4 24.0 L 151.6 23.5 L 150.5 23.3" stroke-width="2.80"/>
<path d="M 150.5 23.3 L 149.0 23.4" stroke-width="2.60"/>
<path d="M 149.0 23.4 L 147.2 23.9" stroke-width="2.20"/>
<path d="M 147.2 23.9 L 145.4 24.9" stroke-width="2.00"/>
<path d="M 145.4 24.9 L 143.6 26.2 L 142.1 27.7 L 141.1 29.4 L 140.7 31.1 L 141.0 32.6 L 142.1 33.8 L 143.8 34.4 L 146.1 34.5" stroke-width="1.80"/>
<path d="M 146.1 34.5 L 148.6 34.1 L 151.1 33.2" stroke-width="1.60"/>
<path d="M 151.1 33.2 L 153.3 32.0 L 155.1 30.5" stroke-width="1.40"/>
<path d="M 155.1 30.5 L 156.2 29.0 L 156.8 27.6" stroke-width="1.60"/>
<path d="M 156.8 27.6 L 156.6 26.3" stroke-width="1.80"/>
<path d="M 156.6 26.3 L 155.9 25.4 L 154.9 24.8 L 153.9 24.5 L 153.2 24.4" stroke-width="2.00"/>
<circle cx="174.3" cy="17.0" r="0.77" fill="currentColor" stroke="none"/>
<path d="M 174.3 17.0 L 174.3 15.9" stroke-width="1.80"/>
<path d="M 174.3 15.9 L 174.2 14.2 L 174.0 12.3 L 173.5 10.7 L 172.8 9.4 L 171.8 8.7" stroke-width="2.00"/>
<path d="M 171.8 8.7 L 170.7 8.5 L 169.4 8.8 L 168.1 9.9" stroke-width="2.20"/>
<path d="M 168.1 9.9 L 166.8 11.5" stroke-width="2.00"/>
<path d="M 166.8 11.5 L 165.5 13.8" stroke-width="1.80"/>
<path d="M 165.5 13.8 L 164.2 16.5" stroke-width="1.60"/>
<path d="M 164.2 16.5 L 163.1 19.6" stroke-width="1.40"/>
<path d="M 163.1 19.6 L 162.1 23.0 L 161.3 26.4 L 160.7 29.7 L 160.4 32.7 L 160.2 35.2" stroke-width="1.20"/>
<path d="M 160.2 35.2 L 160.2 37.2" stroke-width="1.40"/>
<path d="M 160.2 37.2 L 160.4 38.3" stroke-width="1.60"/>
<path d="M 160.4 38.3 L 160.7 38.7" stroke-width="1.80"/>
<path d="M 160.7 38.7 L 160.9 38.3" stroke-width="2.20"/>
<path d="M 160.9 38.3 L 161.2 37.7" stroke-width="2.40"/>
<path d="M 161.2 37.7 L 161.3 37.1" stroke-width="2.20"/>
<circle cx="156.5" cy="25.6" r="0.77" fill="currentColor" stroke="none"/>
<path d="M 156.5 25.6 L 156.6 25.5" stroke-width="2.00"/>
<path d="M 156.6 25.5 L 157.1 25.4" stroke-width="2.80"/>
<path d="M 157.1 25.4 L 158.2 25.3" stroke-width="3.00"/>
<path d="M 158.2 25.3 L 159.9 25.4" stroke-width="2.60"/>
<path d="M 159.9 25.4 L 162.1 25.7" stroke-width="2.20"/>
<path d="M 162.1 25.7 L 164.7 26.0" stroke-width="1.80"/>
<path d="M 164.7 26.0 L 167.4 26.3 L 170.1 26.6" stroke-width="1.60"/>
<path d="M 170.1 26.6 L 172.6 26.9 L 174.8 27.1 L 176.3 27.2 L 177.2 27.3" stroke-width="1.40"/>
<circle cx="194.8" cy="25.1" r="0.77" fill="currentColor" stroke="none"/>
<path d="M 194.8 25.1 L 194.8 25.1" stroke-width="2.00"/>
<path d="M 194.8 25.1 L 194.8 25.2" stroke-width="2.80"/>
<path d="M 194.8 25.2 L 194.8 25.5 L 194.7 26.0 L 194.5 26.8 L 194.4 27.9" stroke-width="3.20"/>
<path d="M 194.4 27.9 L 194.3 29.2" stroke-width="2.80"/>
<path d="M 194.3 29.2 L 194.2 30.6" stroke-width="2.60"/>
<path d="M 194.2 30.6 L 194.1 31.9 L 194.1 33.1 L 194.0 33.9" stroke-width="2.40"/>
<path d="M 194.0 33.9 L 193.9 34.3" stroke-width="2.20"/>
<circle cx="193.8" cy="17.0" r="0.77" fill="currentColor" stroke="none"/>
<path d="M 193.8 17.0 L 193.8 16.8" stroke-width="2.00"/>
<path d="M 193.8 16.8 L 193.8 16.6" stroke-width="2.80"/>
<path d="M 193.8 16.6 L 193.8 16.4" stroke-width="3.00"/>
<path d="M 193.8 16.4 L 193.8 16.3" stroke-width="2.60"/>
<circle cx="201.0" cy="26.4" r="0.77" fill="currentColor" stroke="none"/>
<path d="M 201.0 26.4 L 201.0 26.4" stroke-width="2.00"/>
<path d="M 201.0 26.4 L 201.0 26.4" stroke-width="2.80"/>
<path d="M 201.0 26.4 L 201.1 26.7 L 201.0 27.2 L 200.9 28.0 L 200.8 29.1" stroke-width="3.20"/>
<path d="M 200.8 29.1 L 200.6 30.5" stroke-width="2.80"/>
<path d="M 200.6 30.5 L 200.4 31.9" stroke-width="2.60"/>
<path d="M 200.4 31.9 L 200.3 33.3 L 200.2 34.5 L 200.3 35.3" stroke-width="2.40"/>
<path d="M 200.3 35.3 L 200.3 35.8" stroke-width="2.80"/>
<path d="M 200.3 35.8 L 200.4 35.8" stroke-width="3.00"/>
<path d="M 200.4 35.8 L 200.4 35.4 L 200.5 34.6" stroke-width="3.20"/>
<path d="M 200.5 34.6 L 200.8 33.4" stroke-width="3.00"/>
<path d="M 200.8 33.4 L 201.3 31.9" stroke-width="2.80"/>
<path d="M 201.3 31.9 L 201.9 30.3" stroke-width="2.40"/>
<path d="M 201.9 30.3 L 202.8 28.7" stroke-width="2.20"/>
<path d="M 202.8 28.7 L 203.8 27.2 L 205.0 25.8 L 206.3 24.8 L 207.7 24.0 L 209.1 23.7 L 210.5 23.8 L 211.8 24.2" stroke-width="2.00"/>
<path d="M 211.8 24.2 L 212.9 25.1 L 213.8 26.3" stroke-width="2.20"/>
<path d="M 213.8 26.3 L 214.5 27.7 L 214.9 29.3 L 215.0 30.9 L 215.1 32.4 L 215.2 33.7" stroke-width="2.00"/>
<path d="M 215.2 33.7 L 215.4 34.6" stroke-width="2.20"/>
<path d="M 215.4 34.6 L 215.7 35.1" stroke-width="2.40"/>
<path d="M 215.7 35.1 L 216.0 35.4" stroke-width="2.20"/>
<circle cx="225.8" cy="15.4" r="0.77" fill="currentColor" stroke="none"/>
<path d="M 225.8 15.4 L 225.8 15.4" stroke-width="2.00"/>
<path d="M 225.8 15.4 L 225.8 15.6" stroke-width="2.80"/>
<path d="M 225.8 15.6 L 225.9 16.2 L 225.8 17.2" stroke-width="3.20"/>
<path d="M 225.8 17.2 L 225.7 18.6" stroke-width="3.00"/>
<path d="M 225.7 18.6 L 225.4 20.4" stroke-width="2.40"/>
<path d="M 225.4 20.4 L 225.0 22.5" stroke-width="2.20"/>
<path d="M 225.0 22.5 L 224.5 24.8 L 224.1 27.1" stroke-width="1.80"/>
<path d="M 224.1 27.1 L 223.7 29.4 L 223.4 31.4 L 223.3 33.1" stroke-width="1.60"/>
<path d="M 223.3 33.1 L 223.3 34.3" stroke-width="1.80"/>
<path d="M 223.3 34.3 L 223.5 35.0" stroke-width="2.00"/>
<path d="M 223.5 35.0 L 223.9 35.1" stroke-width="2.40"/>
<path d="M 223.9 35.1 L 224.5 34.6" stroke-width="2.80"/>
<path d="M 224.5 34.6 L 225.6 33.7" stroke-width="2.60"/>
<path d="M 225.6 33.7 L 226.9 32.4" stroke-width="2.40"/>
<path d="M 226.9 32.4 L 228.4 31.0" stroke-width="2.00"/>
<path d="M 228.4 31.0 L 230.1 29.5 L 231.7 28.0" stroke-width="1.80"/>
<path d="M 231.7 28.0 L 233.3 26.6 L 234.8 25.3" stroke-width="1.60"/>
<path d="M 234.8 25.3 L 236.0 24.3 L 236.9 23.5" stroke-width="1.80"/>
<path d="M 236.9 23.5 L 237.4 23.0" stroke-width="2.20"/>
<path d="M 237.4 23.0 L 237.5 22.7 L 237.5 22.7" stroke-width="2.40"/>
<circle cx="228.5" cy="28.9" r="0.77" fill="currentColor" stroke="none"/>
<path d="M 228.5 28.9 L 228.8 29.1" stroke-width="2.00"/>
<path d="M 228.8 29.1 L 229.4 29.5" stroke-width="2.60"/>
<path d="M 229.4 29.5 L 230.3 30.1" stroke-width="2.80"/>
<path d="M 230.3 30.1 L 231.4 30.8" stroke-width="2.60"/>
<path d="M 231.4 30.8 L 232.7 31.6" stroke-width="2.40"/>
<path d="M 232.7 31.6 L 234.0 32.3 L 235.4 33.1 L 236.8 33.7" stroke-width="2.20"/>
<path d="M 236.8 33.7 L 238.2 34.1 L 239.7 34.3 L 240.8 34.3" stroke-width="2.00"/>
<path d="M 240.8 34.3 L 241.5 34.3" stroke-width="1.80"/>
<circle cx="250.1" cy="34.2" r="0.77" fill="currentColor" stroke="none"/>
<path d="M 250.1 34.2 L 250.3 34.5" stroke-width="2.00"/>
<path d="M 250.3 34.5 L 250.4 35.0" stroke-width="2.60"/>
<path d="M 250.4 35.0 L 250.4 35.8 L 250.2 36.8" stroke-width="3.00"/>
<path d="M 250.2 36.8 L 249.8 38.1" stroke-width="2.80"/>
<path d="M 249.8 38.1 L 249.2 39.4" stroke-width="2.60"/>
<path d="M 249.2 39.4 L 248.6 40.7" stroke-width="2.40"/>
<path d="M 248.6 40.7 L 248.2 41.9" stroke-width="2.20"/>
<path d="M 248.2 41.9 L 247.9 43.0 L 247.7 43.8" stroke-width="2.40"/>
<path d="M 247.7 43.8 L 247.7 44.2" stroke-width="2.60"/>
<path d="M 247.7 44.2 L 247.7 44.4" stroke-width="2.40"/>
<circle cx="271.2" cy="14.8" r="0.77" fill="currentColor" stroke="none"/>
<path d="M 271.2 14.8 L 271.2 14.6" stroke-width="2.00"/>
<path d="M 271.2 14.6 L 271.4 14.5" stroke-width="2.80"/>
<path d="M 271.4 14.5 L 271.5 14.5 L 271.5 15.0 L 271.5 15.9" stroke-width="3.20"/>
<path d="M 271.5 15.9 L 271.3 17.3" stroke-width="3.00"/>
<path d="M 271.3 17.3 L 271.0 19.1" stroke-width="2.60"/>
<path d="M 271.0 19.1 L 270.6 21.2" stroke-width="2.20"/>
<path d="M 270.6 21.2 L 270.2 23.5" stroke-width="2.00"/>
<path d="M 270.2 23.5 L 269.9 25.9" stroke-width="1.80"/>
<path d="M 269.9 25.9 L 269.5 28.2 L 269.2 30.5 L 268.9 32.4 L 268.7 34.0" stroke-width="1.60"/>
<path d="M 268.7 34.0 L 268.6 35.0" stroke-width="1.80"/>
<path d="M 268.6 35.0 L 268.5 35.5" stroke-width="1.60"/>
<circle cx="263.4" cy="25.8" r="0.77" fill="currentColor" stroke="none"/>
<path d="M 263.4 25.8 L 263.5 25.7" stroke-width="2.00"/>
<path d="M 263.5 25.7 L 263.9 25.6" stroke-width="2.80"/>
<path d="M 263.9 25.6 L 264.7 25.6" stroke-width="3.20"/>
<path d="M 264.7 25.6 L 266.0 25.6" stroke-width="3.00"/>
<path d="M 266.0 25.6 L 267.8 25.7" stroke-width="2.60"/>
<path d="M 267.8 25.7 L 269.9 25.6" stroke-width="2.20"/>
<path d="M 269.9 25.6 L 272.1 25.5" stroke-width="2.00"/>
<path d="M 272.1 25.5 L 274.4 25.1" stroke-width="1.80"/>
<path d="M 274.4 25.1 L 276.6 24.5 L 278.6 23.6 L 280.0 22.8" stroke-width="1.60"/>
<path d="M 280.0 22.8 L 280.8 22.3" stroke-width="1.40"/>
<circle cx="281.7" cy="12.9" r="0.77" fill="currentColor" stroke="none"/>
<path d="M 281.7 12.9 L 281.8 12.7" stroke-width="2.00"/>
<path d="M 281.8 12.7 L 282.0 12.6" stroke-width="2.80"/>
<path d="M 282.0 12.6 L 282.2 12.7 L 282.2 13.3 L 282.1 14.4" stroke-width="3.20"/>
<path d="M 282.1 14.4 L 281.9 16.0" stroke-width="2.80"/>
<path d="M 281.9 16.0 L 281.5 17.9" stroke-width="2.40"/>
<path d="M 281.5 17.9 L 281.2 20.2" stroke-width="2.00"/>
<path d="M 281.2 20.2 L 280.8 22.5" stroke-width="1.80"/>
<path d="M 280.8 22.5 L 280.3 24.9 L 279.9 27.1 L 279.6 29.1 L 279.4 30.6" stroke-width="1.60"/>
<path d="M 279.4 30.6 L 279.4 31.7" stroke-width="1.80"/>
<path d="M 279.4 31.7 L 279.5 32.2" stroke-width="2.20"/>
<path d="M 279.5 32.2 L 279.8 32.1" stroke-width="2.60"/>
<path d="M 279.8 32.1 L 280.4 31.5 L 281.2 30.4" stroke-width="2.80"/>
<path d="M 281.2 30.4 L 282.3 29.0" stroke-width="2.40"/>
<path d="M 282.3 29.0 L 283.6 27.4" stroke-width="2.20"/>
<path d="M 283.6 27.4 L 284.9 25.8" stroke-width="2.00"/>
<path d="M 284.9 25.8 L 286.3 24.3 L 287.6 23.1 L 288.9 22.2" stroke-width="1.80"/>
<path d="M 288.9 22.2 L 290.0 21.7" stroke-width="2.00"/>
<path d="M 290.0 21.7 L 291.0 21.6" stroke-width="2.20"/>
<path d="M 291.0 21.6 L 291.7 22.1 L 292.3 22.9 L 292.6 24.1 L 292.8 25.6" stroke-width="2.40"/>
<path d="M 292.8 25.6 L 292.9 27.2 L 292.9 28.9" stroke-width="2.20"/>
<path d="M 292.9 28.9 L 292.9 30.4 L 293.0 31.7" stroke-width="2.00"/>
<path d="M 293.0 31.7 L 293.4 32.7" stroke-width="2.20"/>
<path d="M 293.4 32.7 L 294.0 33.1" stroke-width="2.40"/>
<path d="M 294.0 33.1 L 294.9 33.1 L 296.1 32.5" stroke-width="2.60"/>
<path d="M 296.1 32.5 L 297.4 31.4" stroke-width="2.40"/>
<path d="M 297.4 31.4 L 298.7 30.1" stroke-width="2.20"/>
<path d="M 298.7 30.1 L 300.0 28.7 L 301.1 27.3 L 301.9 26.1 L 302.4 25.2" stroke-width="2.00"/>
<path d="M 302.4 25.2 L 302.6 24.6" stroke-width="2.40"/>
<path d="M 302.6 24.6 L 302.7 24.4" stroke-width="2.80"/>
<path d="M 302.7 24.4 L 302.7 24.6 L 302.7 25.2 L 302.5 26.1" stroke-width="3.20"/>
<path d="M 302.5 26.1 L 302.4 27.3" stroke-width="3.00"/>
<path d="M 302.4 27.3 L 302.2 28.7" stroke-width="2.80"/>
<path d="M 302.2 28.7 L 302.1 29.9" stroke-width="2.60"/>
<path d="M 302.1 29.9 L 302.0 31.1" stroke-width="2.40"/>
<path d="M 302.0 31.1 L 302.1 32.0" stroke-width="2.60"/>
<path d="M 302.1 32.0 L 302.2 32.5" stroke-width="2.80"/>
<path d="M 302.2 32.5 L 302.2 32.8" stroke-width="3.00"/>
<path d="M 302.2 32.8 L 302.3 32.6" stroke-width="3.20"/>
<path d="M 302.3 32.6 L 302.4 32.3" stroke-width="3.00"/>
<path d="M 302.4 32.3 L 302.5 32.1" stroke-width="2.60"/>
<circle cx="302.3" cy="14.0" r="0.77" fill="currentColor" stroke="none"/>
<path d="M 302.3 14.0 L 302.4 13.7" stroke-width="2.00"/>
<path d="M 302.4 13.7 L 302.4 13.3" stroke-width="2.80"/>
<path d="M 302.4 13.3 L 302.5 13.1" stroke-width="3.00"/>
<path d="M 302.5 13.1 L 302.5 12.9" stroke-width="2.60"/>
<circle cx="309.0" cy="23.3" r="0.77" fill="currentColor" stroke="none"/>
<path d="M 309.0 23.3 L 309.1 23.3" stroke-width="2.00"/>
<path d="M 309.1 23.3 L 309.1 23.5" stroke-width="2.80"/>
<path d="M 309.1 23.5 L 309.1 23.9 L 309.0 24.5 L 308.9 25.4" stroke-width="3.20"/>
<path d="M 308.9 25.4 L 308.7 26.7" stroke-width="3.00"/>
<path d="M 308.7 26.7 L 308.5 28.1" stroke-width="2.80"/>
<path d="M 308.5 28.1 L 308.3 29.5 L 308.3 30.9 L 308.3 32.1 L 308.4 32.9" stroke-width="2.40"/>
<path d="M 308.4 32.9 L 308.5 33.3" stroke-width="2.80"/>
<path d="M 308.5 33.3 L 308.7 33.3" stroke-width="3.00"/>
<path d="M 308.7 33.3 L 308.9 32.7 L 309.3 31.8" stroke-width="3.20"/>
<path d="M 309.3 31.8 L 309.9 30.4" stroke-width="2.80"/>
<path d="M 309.9 30.4 L 310.7 28.9" stroke-width="2.40"/>
<path d="M 310.7 28.9 L 311.7 27.3" stroke-width="2.20"/>
<path d="M 311.7 27.3 L 312.9 25.8 L 314.2 24.5" stroke-width="2.00"/>
<path d="M 314.2 24.5 L 315.6 23.5 L 317.1 22.8" stroke-width="1.80"/>
<path d="M 317.1 22.8 L 318.6 22.5 L 320.0 22.6 L 321.3 23.1" stroke-width="2.00"/>
<path d="M 321.3 23.1 L 322.3 23.9 L 323.0 24.9 L 323.5 26.2 L 323.7 27.6 L 323.8 29.0 L 323.8 30.3 L 323.9 31.5" stroke-width="2.20"/>
<path d="M 323.9 31.5 L 324.1 32.3" stroke-width="2.40"/>
<path d="M 324.1 32.3 L 324.4 32.8" stroke-width="2.60"/>
<path d="M 324.4 32.8 L 324.7 32.9" stroke-width="2.80"/>
<path d="M 324.7 32.9 L 325.0 32.8" stroke-width="2.60"/>
<circle cx="330.4" cy="12.2" r="0.77" fill="currentColor" stroke="none"/>
<path d="M 330.4 12.2 L 330.5 12.1" stroke-width="2.00"/>
<path d="M 330.5 12.1 L 330.8 12.2" stroke-width="2.80"/>
<path d="M 330.8 12.2 L 331.0 12.5 L 331.3 13.2 L 331.5 14.3" stroke-width="3.20"/>
<path d="M 331.5 14.3 L 331.6 15.8" stroke-width="2.80"/>
<path d="M 331.6 15.8 L 331.7 17.6" stroke-width="2.40"/>
<path d="M 331.7 17.6 L 331.7 19.7" stroke-width="2.20"/>
<path d="M 331.7 19.7 L 331.7 22.1 L 331.7 24.5" stroke-width="1.80"/>
<path d="M 331.7 24.5 L 331.7 26.8 L 331.7 28.9 L 331.8 30.5" stroke-width="1.60"/>
<path d="M 331.8 30.5 L 331.9 31.7" stroke-width="1.80"/>
<path d="M 331.9 31.7 L 332.0 32.4" stroke-width="2.00"/>
<path d="M 332.0 32.4 L 332.1 32.6" stroke-width="2.60"/>
<path d="M 332.1 32.6 L 332.3 32.4" stroke-width="3.00"/>
<path d="M 332.3 32.4 L 332.5 31.8 L 333.1 30.9" stroke-width="3.20"/>
<path d="M 333.1 30.9 L 333.9 29.8" stroke-width="2.80"/>
<path d="M 333.9 29.8 L 334.9 28.4" stroke-width="2.40"/>
<path d="M 334.9 28.4 L 336.2 27.0" stroke-width="2.20"/>
<path d="M 336.2 27.0 L 337.7 25.6" stroke-width="2.00"/>
<path d="M 337.7 25.6 L 339.1 24.2 L 340.5 23.0 L 341.7 21.9 L 342.6 21.1 L 343.0 20.7" stroke-width="1.80"/>
<circle cx="334.8" cy="25.1" r="0.77" fill="currentColor" stroke="none"/>
<path d="M 334.8 25.1 L 335.1 25.4" stroke-width="2.00"/>
<path d="M 335.1 25.4 L 335.7 26.1" stroke-width="2.40"/>
<path d="M 335.7 26.1 L 336.4 26.9 L 337.3 27.9" stroke-width="2.60"/>
<path d="M 337.3 27.9 L 338.3 28.8 L 339.3 29.7" stroke-width="2.40"/>
<path d="M 339.3 29.7 L 340.4 30.6 L 341.6 31.4 L 342.8 31.9 L 344.0 32.2 L 345.0 32.2" stroke-width="2.20"/>
<path d="M 345.0 32.2 L 345.6 32.1" stroke-width="2.00"/>
<circle cx="349.5" cy="24.3" r="0.77" fill="currentColor" stroke="none"/>
<path d="M 349.5 24.3 L 349.5 24.4" stroke-width="2.00"/>
<path d="M 349.5 24.4 L 349.6 24.7" stroke-width="2.80"/>
<path d="M 349.6 24.7 L 349.7 25.2 L 349.7 25.9 L 349.7 26.9" stroke-width="3.20"/>
<path d="M 349.7 26.9 L 349.6 28.2" stroke-width="3.00"/>
<path d="M 349.6 28.2 L 349.5 29.6" stroke-width="2.60"/>
<path d="M 349.5 29.6 L 349.4 31.1 L 349.4 32.4 L 349.6 33.4 L 349.7 34.0" stroke-width="2.40"/>
<path d="M 349.7 34.0 L 349.8 34.3" stroke-width="2.20"/>
<circle cx="350.7" cy="14.3" r="0.77" fill="currentColor" stroke="none"/>
<path d="M 350.7 14.3 L 350.7 14.3" stroke-width="2.00"/>
<path d="M 350.7 14.3 L 350.8 14.3" stroke-width="2.80"/>
<path d="M 350.8 14.3 L 350.9 14.4 L 351.0 14.6 L 351.1 14.9 L 351.3 15.1" stroke-width="3.20"/>
<path d="M 351.3 15.1 L 351.5 15.4" stroke-width="3.00"/>
<path d="M 351.5 15.4 L 351.7 15.5" stroke-width="2.60"/>
<circle cx="357.7" cy="24.1" r="0.77" fill="currentColor" stroke="none"/>
<path d="M 357.7 24.1 L 357.7 24.2" stroke-width="2.00"/>
<path d="M 357.7 24.2 L 357.7 24.5" stroke-width="2.80"/>
<path d="M 357.7 24.5 L 357.7 25.1 L 357.7 25.9" stroke-width="3.20"/>
<path d="M 357.7 25.9 L 357.5 27.0" stroke-width="3.00"/>
<path d="M 357.5 27.0 L 357.4 28.3" stroke-width="2.80"/>
<path d="M 357.4 28.3 L 357.1 29.7" stroke-width="2.60"/>
<path d="M 357.1 29.7 L 357.0 31.0 L 356.8 32.2 L 356.7 33.1" stroke-width="2.40"/>
<path d="M 356.7 33.1 L 356.7 33.7" stroke-width="2.60"/>
<path d="M 356.7 33.7 L 356.6 33.9" stroke-width="3.00"/>
<path d="M 356.6 33.9 L 356.6 33.7 L 356.8 33.1 L 357.1 32.1" stroke-width="3.20"/>
<path d="M 357.1 32.1 L 357.6 30.9" stroke-width="3.00"/>
<path d="M 357.6 30.9 L 358.3 29.6" stroke-width="2.60"/>
<path d="M 358.3 29.6 L 359.1 28.2" stroke-width="2.40"/>
<path d="M 359.1 28.2 L 360.1 26.9 L 361.2 25.7" stroke-width="2.20"/>
<path d="M 361.2 25.7 L 362.4 24.6 L 363.7 23.9 L 365.0 23.5" stroke-width="2.00"/>
<path d="M 365.0 23.5 L 366.3 23.5 L 367.5 23.8 L 368.6 24.5 L 369.4 25.4 L 370.1 26.7 L 370.5 28.0 L 370.8 29.5 L 370.9 30.8 L 371.0 32.0" stroke-width="2.20"/>
<path d="M 371.0 32.0 L 371.1 32.9" stroke-width="2.40"/>
<path d="M 371.1 32.9 L 371.4 33.5 L 371.7 33.7" stroke-width="2.60"/>
<path d="M 371.7 33.7 L 372.0 33.8" stroke-width="2.40"/>
<circle cx="383.9" cy="28.5" r="0.77" fill="currentColor" stroke="none"/>
<path d="M 383.9 28.5 L 384.0 28.1" stroke-width="2.00"/>
<path d="M 384.0 28.1 L 384.0 27.4" stroke-width="2.60"/>
<path d="M 384.0 27.4 L 383.9 26.5 L 383.4 25.7 L 382.6 25.0" stroke-width="2.80"/>
<path d="M 382.6 25.0 L 381.5 24.5" stroke-width="2.60"/>
<path d="M 381.5 24.5 L 380.1 24.3 L 378.5 24.3" stroke-width="2.40"/>
<path d="M 378.5 24.3 L 377.0 24.7 L 375.7 25.3 L 374.7 26.2 L 374.2 27.2" stroke-width="2.20"/>
<path d="M 374.2 27.2 L 374.3 28.3 L 375.0 29.2 L 376.2 30.0" stroke-width="2.40"/>
<path d="M 376.2 30.0 L 378.0 30.4" stroke-width="2.20"/>
<path d="M 378.0 30.4 L 380.0 30.6" stroke-width="2.00"/>
<path d="M 380.0 30.6 L 382.1 30.4 L 384.0 30.0 L 385.7 29.4 L 387.0 28.7" stroke-width="1.80"/>
<path d="M 387.0 28.7 L 387.8 28.1" stroke-width="2.00"/>
<path d="M 387.8 28.1 L 388.2 27.6" stroke-width="2.20"/>
<path d="M 388.2 27.6 L 388.3 27.3" stroke-width="2.60"/>
<path d="M 388.3 27.3 L 388.2 27.3" stroke-width="3.00"/>
<path d="M 388.2 27.3 L 388.0 27.7 L 387.8 28.4 L 387.6 29.5" stroke-width="3.20"/>
<path d="M 387.6 29.5 L 387.5 30.9" stroke-width="2.80"/>
<path d="M 387.5 30.9 L 387.6 32.6" stroke-width="2.40"/>
<path d="M 387.6 32.6 L 387.9 34.6" stroke-width="2.20"/>
<path d="M 387.9 34.6 L 388.2 36.8" stroke-width="2.00"/>
<path d="M 388.2 36.8 L 388.4 39.0 L 388.5 41.1" stroke-width="1.80"/>
<path d="M 388.5 41.1 L 388.3 43.0" stroke-width="1.60"/>
<path d="M 388.3 43.0 L 387.8 44.7 L 387.0 45.9 L 385.8 46.8" stroke-width="1.80"/>
<path d="M 385.8 46.8 L 384.4 47.3 L 382.9 47.3 L 381.2 47.0 L 379.4 46.4" stroke-width="2.00"/>
<path d="M 379.4 46.4 L 377.7 45.5 L 376.1 44.6 L 374.7 43.5 L 373.7 42.4" stroke-width="1.80"/>
<path d="M 373.7 42.4 L 373.0 41.4" stroke-width="2.00"/>
<path d="M 373.0 41.4 L 372.7 40.5" stroke-width="2.20"/>
<path d="M 372.7 40.5 L 372.8 39.6 L 373.3 38.8 L 373.8 38.3" stroke-width="2.40"/>
<path d="M 373.8 38.3 L 374.3 38.0" stroke-width="2.20"/>
<circle cx="423.7" cy="27.7" r="0.77" fill="currentColor" stroke="none"/>
<path d="M 423.7 27.7 L 423.7 27.3" stroke-width="2.00"/>
<path d="M 423.7 27.3 L 423.6 26.7" stroke-width="2.60"/>
<path d="M 423.6 26.7 L 423.3 25.9 L 422.8 25.0 L 422.0 24.2" stroke-width="2.80"/>
<path d="M 422.0 24.2 L 420.9 23.5" stroke-width="2.60"/>
<path d="M 420.9 23.5 L 419.4 23.1" stroke-width="2.40"/>
<path d="M 419.4 23.1 L 417.7 22.9" stroke-width="2.20"/>
<path d="M 417.7 22.9 L 415.7 23.0" stroke-width="2.00"/>
<path d="M 415.7 23.0 L 413.7 23.5 L 411.8 24.3 L 410.2 25.3 L 409.1 26.5 L 408.6 27.7" stroke-width="1.80"/>
<path d="M 408.6 27.7 L 408.8 28.8" stroke-width="2.00"/>
<path d="M 408.8 28.8 L 409.6 29.7 L 411.0 30.3" stroke-width="2.20"/>
<path d="M 411.0 30.3 L 412.9 30.4" stroke-width="2.00"/>
<path d="M 412.9 30.4 L 415.1 30.1 L 417.4 29.4" stroke-width="1.80"/>
<path d="M 417.4 29.4 L 419.7 28.5 L 421.7 27.3 L 423.4 26.1 L 424.7 25.0" stroke-width="1.60"/>
<path d="M 424.7 25.0 L 425.5 24.1" stroke-width="1.80"/>
<path d="M 425.5 24.1 L 426.0 23.4" stroke-width="2.00"/>
<path d="M 426.0 23.4 L 426.2 23.0" stroke-width="2.40"/>
<path d="M 426.2 23.0 L 426.1 22.9" stroke-width="2.80"/>
<path d="M 426.1 22.9 L 425.9 23.2 L 425.5 23.9 L 425.0 24.8" stroke-width="3.20"/>
<path d="M 425.0 24.8 L 424.7 26.1" stroke-width="2.80"/>
<path d="M 424.7 26.1 L 424.4 27.4" stroke-width="2.60"/>
<path d="M 424.4 27.4 L 424.4 28.8 L 424.5 29.8" stroke-width="2.40"/>
<path d="M 424.5 29.8 L 424.7 30.3" stroke-width="2.00"/>
<circle cx="440.9" cy="22.3" r="0.77" fill="currentColor" stroke="none"/>
<path d="M 440.9 22.3 L 440.7 21.9" stroke-width="2.00"/>
<path d="M 440.7 21.9 L 440.3 21.1" stroke-width="2.40"/>
<path d="M 440.3 21.1 L 439.4 20.4 L 438.1 19.8" stroke-width="2.60"/>
<path d="M 438.1 19.8 L 436.5 19.5" stroke-width="2.40"/>
<path d="M 436.5 19.5 L 434.7 19.5" stroke-width="2.20"/>
<path d="M 434.7 19.5 L 433.1 19.7 L 431.8 20.0" stroke-width="2.00"/>
<path d="M 431.8 20.0 L 431.0 20.6" stroke-width="2.20"/>
<path d="M 431.0 20.6 L 430.9 21.3" stroke-width="2.40"/>
<path d="M 430.9 21.3 L 431.4 22.2" stroke-width="2.60"/>
<path d="M 431.4 22.2 L 432.5 23.2" stroke-width="2.40"/>
<path d="M 432.5 23.2 L 434.1 24.2" stroke-width="2.20"/>
<path d="M 434.1 24.2 L 436.0 25.3" stroke-width="2.00"/>
<path d="M 436.0 25.3 L 438.0 26.3 L 440.0 27.2 L 441.6 28.0 L 442.7 28.6" stroke-width="1.80"/>
<path d="M 442.7 28.6 L 443.3 29.1" stroke-width="2.00"/>
<path d="M 443.3 29.1 L 443.3 29.4" stroke-width="2.40"/>
<path d="M 443.3 29.4 L 442.6 29.6 L 441.4 29.7" stroke-width="2.80"/>
<path d="M 441.4 29.7 L 439.6 29.7" stroke-width="2.40"/>
<path d="M 439.6 29.7 L 437.4 29.5" stroke-width="2.20"/>
<path d="M 437.4 29.5 L 434.9 29.4" stroke-width="1.80"/>
<path d="M 434.9 29.4 L 432.4 29.1 L 430.6 28.9" stroke-width="1.60"/>
<path d="M 430.6 28.9 L 429.5 28.8" stroke-width="1.40"/>
<circle cx="463.1" cy="21.7" r="0.77" fill="currentColor" stroke="none"/>
<path d="M 463.1 21.7 L 463.2 21.7" stroke-width="2.00"/>
<path d="M 463.2 21.7 L 463.3 21.8" stroke-width="2.80"/>
<path d="M 463.3 21.8 L 463.4 22.0 L 463.4 22.6 L 463.4 23.5" stroke-width="3.20"/>
<path d="M 463.4 23.5 L 463.2 24.7" stroke-width="3.00"/>
<path d="M 463.2 24.7 L 463.1 26.1" stroke-width="2.80"/>
<path d="M 463.1 26.1 L 462.9 27.7 L 462.8 29.2" stroke-width="2.40"/>
<path d="M 462.8 29.2 L 462.7 30.6 L 462.6 31.6" stroke-width="2.20"/>
<path d="M 462.6 31.6 L 462.6 32.2" stroke-width="2.00"/>
<circle cx="463.5" cy="10.4" r="0.77" fill="currentColor" stroke="none"/>
<path d="M 463.5 10.4 L 463.5 10.3" stroke-width="2.00"/>
<path d="M 463.5 10.3 L 463.5 10.2" stroke-width="2.80"/>
<path d="M 463.5 10.2 L 463.5 10.2" stroke-width="3.00"/>
<path d="M 463.5 10.2 L 463.6 10.3" stroke-width="2.60"/>
<circle cx="474.4" cy="8.9" r="0.77" fill="currentColor" stroke="none"/>
<path d="M 474.4 8.9 L 474.5 9.1" stroke-width="2.00"/>
<path d="M 474.5 9.1 L 474.5 9.6" stroke-width="2.80"/>
<path d="M 474.5 9.6 L 474.4 10.5" stroke-width="3.00"/>
<path d="M 474.4 10.5 L 474.2 11.8" stroke-width="2.80"/>
<path d="M 474.2 11.8 L 473.8 13.5" stroke-width="2.60"/>
<path d="M 473.8 13.5 L 473.4 15.6" stroke-width="2.20"/>
<path d="M 473.4 15.6 L 472.9 18.0" stroke-width="1.80"/>
<path d="M 472.9 18.0 L 472.5 20.5 L 472.1 23.1 L 471.9 25.5 L 471.8 27.7 L 471.7 29.4" stroke-width="1.60"/>
<path d="M 471.7 29.4 L 471.6 30.6" stroke-width="1.80"/>
<path d="M 471.6 30.6 L 471.6 31.3" stroke-width="2.00"/>
<path d="M 471.6 31.3 L 471.6 31.6" stroke-width="2.20"/>
<path d="M 471.6 31.6 L 471.7 31.6" stroke-width="2.40"/>
<circle cx="468.3" cy="24.1" r="0.77" fill="currentColor" stroke="none"/>
<path d="M 468.3 24.1 L 468.7 24.0" stroke-width="2.00"/>
<path d="M 468.7 24.0 L 469.6 23.9 L 470.7 23.8" stroke-width="2.40"/>
<path d="M 470.7 23.8 L 471.6 23.7" stroke-width="2.00"/>
<circle cx="508.8" cy="27.0" r="0.77" fill="currentColor" stroke="none"/>
<path d="M 508.8 27.0 L 508.9 26.5" stroke-width="1.80"/>
<path d="M 508.9 26.5 L 508.9 25.7" stroke-width="2.40"/>
<path d="M 508.9 25.7 L 508.6 24.6 L 508.1 23.7 L 507.1 22.9" stroke-width="2.60"/>
<path d="M 507.1 22.9 L 505.8 22.3 L 504.3 22.1" stroke-width="2.40"/>
<path d="M 504.3 22.1 L 502.7 22.3 L 501.2 23.0" stroke-width="2.20"/>
<path d="M 501.2 23.0 L 500.0 24.0 L 499.0 25.3 L 498.6 26.7 L 498.7 28.1 L 499.5 29.3" stroke-width="2.00"/>
<path d="M 499.5 29.3 L 500.8 30.0" stroke-width="2.20"/>
<path d="M 500.8 30.0 L 502.6 30.2 L 504.6 29.9" stroke-width="2.00"/>
<path d="M 504.6 29.9 L 506.6 29.3 L 508.4 28.4 L 509.7 27.4 L 510.4 26.5" stroke-width="1.80"/>
<path d="M 510.4 26.5 L 510.7 25.6" stroke-width="2.00"/>
<path d="M 510.7 25.6 L 510.7 25.1" stroke-width="2.40"/>
<path d="M 510.7 25.1 L 510.5 24.8" stroke-width="2.80"/>
<path d="M 510.5 24.8 L 510.2 24.8" stroke-width="3.00"/>
<path d="M 510.2 24.8 L 509.9 25.3 L 509.7 26.1" stroke-width="3.20"/>
<path d="M 509.7 26.1 L 509.6 27.3" stroke-width="3.00"/>
<path d="M 509.6 27.3 L 509.7 28.9" stroke-width="2.60"/>
<path d="M 509.7 28.9 L 509.9 30.6" stroke-width="2.40"/>
<path d="M 509.9 30.6 L 510.2 32.6" stroke-width="2.20"/>
<path d="M 510.2 32.6 L 510.5 34.6" stroke-width="2.00"/>
<path d="M 510.5 34.6 L 510.7 36.7 L 510.7 38.7 L 510.4 40.5 L 509.9 42.0 L 509.1 43.3" stroke-width="1.80"/>
<path d="M 509.1 43.3 L 508.0 44.1 L 506.6 44.6 L 505.1 44.6 L 503.4 44.4 L 501.9 43.8 L 500.5 42.9 L 499.5 41.9 L 499.0 40.6" stroke-width="2.00"/>
<path d="M 499.0 40.6 L 499.1 39.3" stroke-width="2.20"/>
<path d="M 499.1 39.3 L 499.4 38.2" stroke-width="2.00"/>
<path d="M 499.4 38.2 L 499.8 37.4" stroke-width="1.80"/>
<circle cx="526.7" cy="27.7" r="0.77" fill="currentColor" stroke="none"/>
<path d="M 526.7 27.7 L 526.8 27.2" stroke-width="2.00"/>
<path d="M 526.8 27.2 L 526.7 26.4" stroke-width="2.60"/>
<path d="M 526.7 26.4 L 526.5 25.5" stroke-width="2.80"/>
<path d="M 526.5 25.5 L 525.8 24.5 L 524.8 23.7" stroke-width="2.60"/>
<path d="M 524.8 23.7 L 523.3 23.0" stroke-width="2.40"/>
<path d="M 523.3 23.0 L 521.7 22.6" stroke-width="2.20"/>
<path d="M 521.7 22.6 L 519.8 22.6 L 518.1 22.9 L 516.5 23.5 L 515.3 24.5 L 514.6 25.6 L 514.4 26.9" stroke-width="2.00"/>
<path d="M 514.4 26.9 L 514.9 28.2 L 515.8 29.3" stroke-width="2.20"/>
<path d="M 515.8 29.3 L 517.3 30.0 L 519.1 30.4" stroke-width="2.00"/>
<path d="M 519.1 30.4 L 521.1 30.3 L 523.1 29.9 L 524.9 29.1 L 526.4 28.0 L 527.4 26.9" stroke-width="1.80"/>
<path d="M 527.4 26.9 L 528.1 25.8 L 528.4 24.8" stroke-width="2.00"/>
<path d="M 528.4 24.8 L 528.5 24.1" stroke-width="2.40"/>
<path d="M 528.5 24.1 L 528.4 23.7" stroke-width="2.60"/>
<path d="M 528.4 23.7 L 528.3 23.5" stroke-width="2.80"/>
<path d="M 528.3 23.5 L 528.3 23.5" stroke-width="2.60"/>
<circle cx="534.4" cy="29.6" r="0.77" fill="currentColor" stroke="none"/>
<path d="M 534.4 29.6 L 534.6 29.7" stroke-width="2.00"/>
<path d="M 534.6 29.7 L 535.2 29.7" stroke-width="2.60"/>
<path d="M 535.2 29.7 L 536.1 29.6" stroke-width="3.00"/>
<path d="M 536.1 29.6 L 537.3 29.3" stroke-width="2.80"/>
<path d="M 537.3 29.3 L 538.6 28.8" stroke-width="2.60"/>
<path d="M 538.6 28.8 L 540.1 28.1" stroke-width="2.40"/>
<path d="M 540.1 28.1 L 541.6 27.4 L 542.8 26.6 L 543.8 25.8 L 544.3 25.0" stroke-width="2.20"/>
<path d="M 544.3 25.0 L 544.4 24.3" stroke-width="2.40"/>
<path d="M 544.4 24.3 L 543.8 23.7" stroke-width="2.60"/>
<path d="M 543.8 23.7 L 542.8 23.3" stroke-width="2.80"/>
<path d="M 542.8 23.3 L 541.4 23.2" stroke-width="2.60"/>
<path d="M 541.4 23.2 L 539.6 23.5" stroke-width="2.40"/>
<path d="M 539.6 23.5 L 537.7 24.1 L 535.8 25.0" stroke-width="2.00"/>
<path d="M 535.8 25.0 L 534.1 26.2 L 532.9 27.5 L 532.2 28.9" stroke-width="1.80"/>
<path d="M 532.2 28.9 L 532.2 30.2 L 533.0 31.4 L 534.3 32.3 L 536.3 33.0" stroke-width="2.00"/>
<path d="M 536.3 33.0 L 538.7 33.2" stroke-width="1.80"/>
<path d="M 538.7 33.2 L 541.4 33.2" stroke-width="1.60"/>
<path d="M 541.4 33.2 L 543.6 32.9" stroke-width="1.40"/>
<path d="M 543.6 32.9 L 545.1 32.7" stroke-width="1.20"/>
<circle cx="557.9" cy="24.5" r="0.77" fill="currentColor" stroke="none"/>
<path d="M 557.9 24.5 L 557.7 24.0" stroke-width="1.80"/>
<path d="M 557.7 24.0 L 557.1 23.3" stroke-width="2.40"/>
<path d="M 557.1 23.3 L 556.1 22.6" stroke-width="2.60"/>
<path d="M 556.1 22.6 L 554.6 22.2" stroke-width="2.40"/>
<path d="M 554.6 22.2 L 552.9 22.0 L 551.2 22.2" stroke-width="2.20"/>
<path d="M 551.2 22.2 L 549.6 22.5 L 548.6 23.0" stroke-width="2.00"/>
<path d="M 548.6 23.0 L 548.3 23.6" stroke-width="2.40"/>
<path d="M 548.3 23.6 L 548.9 24.3" stroke-width="2.60"/>
<path d="M 548.9 24.3 L 550.4 25.1" stroke-width="2.40"/>
<path d="M 550.4 25.1 L 552.4 26.0" stroke-width="2.20"/>
<path d="M 552.4 26.0 L 554.9 26.9" stroke-width="1.80"/>
<path d="M 554.9 26.9 L 557.5 27.8 L 559.8 28.7 L 561.8 29.6 L 563.2 30.4" stroke-width="1.60"/>
<path d="M 563.2 30.4 L 563.9 31.1" stroke-width="1.80"/>
<path d="M 563.9 31.1 L 564.0 31.7" stroke-width="2.20"/>
<path d="M 564.0 31.7 L 563.3 32.1 L 562.0 32.4" stroke-width="2.40"/>
<path d="M 562.0 32.4 L 560.2 32.6" stroke-width="2.20"/>
<path d="M 560.2 32.6 L 558.0 32.7" stroke-width="2.00"/>
<path d="M 558.0 32.7 L 555.6 32.7" stroke-width="1.80"/>
<path d="M 555.6 32.7 L 553.1 32.6 L 550.6 32.4" stroke-width="1.60"/>
<path d="M 550.6 32.4 L 548.7 32.3 L 547.5 32.2" stroke-width="1.40"/>
</svg>
