<svg xmlns="http://www.w3.org/2000/svg" viewBox="0 0 544.6 45.6" fill="none" stroke="currentColor" stroke-linecap="round" stroke-linejoin="round" role="img">
<circle cx="20.2" cy="19.7" r="0.77" fill="currentColor" stroke="none"/>
<path d="M 20.2 19.7 L 19.7 19.4" stroke-width="1.80"/>
<path d="M 19.7 19.4 L 18.7 18.9 L 17.3 18.5" stroke-width="2.40"/>
<path d="M 17.3 18.5 L 15.6 18.3" stroke-width="2.20"/>
<path d="M 15.6 18.3 L 13.6 18.4 L 11.7 18.9" stroke-width="2.00"/>
<path d="M 11.7 18.9 L 9.9 19.6 L 8.3 20.7 L 7.1 22.0 L 6.3 23.5 L 6.0 24.9" stroke-width="1.80"/>
<path d="M 6.0 24.9 L 6.3 26.3 L 7.1 27.4 L 8.3 28.2 L 9.9 28.6 L 11.6 28.6 L 13.4 28.2" stroke-width="2.00"/>
<path d="M 13.4 28.2 L 15.2 27.4 L 16.8 26.3 L 18.2 24.9 L 19.2 23.4 L 20.0 22.0 L 20.6 20.8" stroke-width="1.80"/>
<path d="M 20.6 20.8 L 20.9 20.1" stroke-width="2.00"/>
<path d="M 20.9 20.1 L 21.1 19.8" stroke-width="2.40"/>
<path d="M 21.1 19.8 L 21.2 20.0" stroke-width="3.00"/>
<path d="M 21.2 20.0 L 21.2 20.7" stroke-width="3.20"/>
<path d="M 21.2 20.7 L 21.2 21.9" stroke-width="3.00"/>
<path d="M 21.2 21.9 L 21.3 23.4" stroke-width="2.60"/>
<path d="M 21.3 23.4 L 21.6 25.1" stroke-width="2.40"/>
<path d="M 21.6 25.1 L 22.1 26.9" stroke-width="2.20"/>
<path d="M 22.1 26.9 L 22.8 28.4 L 23.9 29.6 L 25.3 30.4" stroke-width="2.00"/>
<path d="M 25.3 30.4 L 26.6 30.9" stroke-width="1.80"/>
<path d="M 26.6 30.9 L 27.5 31.1" stroke-width="1.60"/>
<circle cx="61.7" cy="9.0" r="0.77" fill="currentColor" stroke="none"/>
<path d="M 61.7 9.0 L 61.5 9.9" stroke-width="1.80"/>
<path d="M 61.5 9.9 L 61.2 11.3 L 60.8 13.2" stroke-width="2.20"/>
<path d="M 60.8 13.2 L 60.4 15.4" stroke-width="2.00"/>
<path d="M 60.4 15.4 L 60.0 17.7" stroke-width="1.80"/>
<path d="M 60.0 17.7 L 59.8 20.2 L 59.7 22.6 L 59.7 24.8 L 59.8 26.5" stroke-width="1.60"/>
<path d="M 59.8 26.5 L 59.8 27.8 L 59.9 28.5 L 60.0 28.8" stroke-width="1.80"/>
<circle cx="68.2" cy="19.0" r="0.77" fill="currentColor" stroke="none"/>
<path d="M 68.2 19.0 L 68.1 19.4" stroke-width="2.00"/>
<path d="M 68.1 19.4 L 68.0 20.2" stroke-width="2.40"/>
<path d="M 68.0 20.2 L 67.9 21.4 L 67.9 22.6" stroke-width="2.60"/>
<path d="M 67.9 22.6 L 68.0 23.9 L 68.1 25.0 L 68.2 25.9" stroke-width="2.40"/>
<path d="M 68.2 25.9 L 68.3 26.4" stroke-width="2.20"/>
<circle cx="68.3" cy="12.2" r="1.10" fill="currentColor" stroke="none"/>
<circle cx="78.0" cy="19.2" r="0.77" fill="currentColor" stroke="none"/>
<path d="M 78.0 19.2 L 77.9 19.7" stroke-width="2.00"/>
<path d="M 77.9 19.7 L 77.7 20.6" stroke-width="2.40"/>
<path d="M 77.7 20.6 L 77.5 21.7 L 77.3 22.8 L 77.2 23.9 L 77.1 24.8 L 77.1 25.5" stroke-width="2.60"/>
<path d="M 77.1 25.5 L 77.1 25.8" stroke-width="2.40"/>
<circle cx="76.8" cy="26.5" r="0.77" fill="currentColor" stroke="none"/>
<path d="M 76.8 26.5 L 76.7 26.2" stroke-width="2.00"/>
<path d="M 76.7 26.2 L 76.5 25.6" stroke-width="2.60"/>
<path d="M 76.5 25.6 L 76.3 24.7 L 76.3 23.7" stroke-width="2.80"/>
<path d="M 76.3 23.7 L 76.5 22.5 L 76.9 21.3" stroke-width="2.60"/>
<path d="M 76.9 21.3 L 77.6 20.2 L 78.5 19.2" stroke-width="2.40"/>
<path d="M 78.5 19.2 L 79.7 18.4 L 81.1 17.8 L 82.7 17.6" stroke-width="2.20"/>
<path d="M 82.7 17.6 L 84.3 17.7 L 86.1 18.1" stroke-width="2.00"/>
<path d="M 86.1 18.1 L 87.9 18.8 L 89.5 19.7 L 91.0 20.8 L 92.3 22.1 L 93.3 23.3 L 94.1 24.5" stroke-width="1.80"/>
<path d="M 94.1 24.5 L 94.7 25.5" stroke-width="2.00"/>
<path d="M 94.7 25.5 L 95.0 26.3" stroke-width="2.20"/>
<path d="M 95.0 26.3 L 95.2 26.8" stroke-width="2.40"/>
<path d="M 95.2 26.8 L 95.2 27.1" stroke-width="2.20"/>
<circle cx="101.4" cy="21.2" r="0.77" fill="currentColor" stroke="none"/>
<path d="M 101.4 21.2 L 102.0 21.1" stroke-width="1.80"/>
<path d="M 102.0 21.1 L 103.0 21.0" stroke-width="2.40"/>
<path d="M 103.0 21.0 L 104.3 20.8" stroke-width="2.60"/>
<path d="M 104.3 20.8 L 105.6 20.5 L 106.8 20.0 L 107.7 19.4 L 108.3 18.8" stroke-width="2.40"/>
<path d="M 108.3 18.8 L 108.4 18.2" stroke-width="2.60"/>
<path d="M 108.4 18.2 L 108.0 17.6" stroke-width="2.80"/>
<path d="M 108.0 17.6 L 107.2 17.1" stroke-width="3.00"/>
<path d="M 107.2 17.1 L 106.1 16.9" stroke-width="2.80"/>
<path d="M 106.1 16.9 L 104.6 16.8" stroke-width="2.60"/>
<path d="M 104.6 16.8 L 103.1 17.1" stroke-width="2.40"/>
<path d="M 103.1 17.1 L 101.7 17.7 L 100.5 18.5 L 99.6 19.6 L 99.2 20.8 L 99.1 22.2 L 99.5 23.5 L 100.5 24.7" stroke-width="2.20"/>
<path d="M 100.5 24.7 L 101.8 25.8 L 103.7 26.5" stroke-width="2.00"/>
<path d="M 103.7 26.5 L 105.7 26.9 L 108.0 27.0" stroke-width="1.80"/>
<path d="M 108.0 27.0 L 110.3 26.7 L 112.5 26.3 L 114.1 25.7" stroke-width="1.60"/>
<path d="M 114.1 25.7 L 115.1 25.4" stroke-width="1.40"/>
<circle cx="146.8" cy="19.1" r="1.10" fill="currentColor" stroke="none"/>
<circle cx="143.6" cy="17.9" r="0.77" fill="currentColor" stroke="none"/>
<path d="M 143.6 17.9 L 142.6 17.9" stroke-width="1.80"/>
<path d="M 142.6 17.9 L 141.0 17.9" stroke-width="2.20"/>
<path d="M 141.0 17.9 L 139.0 18.1 L 137.3 18.6 L 135.8 19.4 L 134.9 20.4 L 134.5 21.6 L 134.6 23.0" stroke-width="2.00"/>
<path d="M 134.6 23.0 L 135.3 24.2" stroke-width="2.20"/>
<path d="M 135.3 24.2 L 136.5 25.4 L 138.2 26.2" stroke-width="2.00"/>
<path d="M 138.2 26.2 L 140.1 26.7 L 142.3 26.9" stroke-width="1.80"/>
<path d="M 142.3 26.9 L 144.5 26.5 L 146.5 25.8 L 148.3 24.8 L 149.7 23.5 L 150.6 22.0" stroke-width="1.60"/>
<path d="M 150.6 22.0 L 151.0 20.6" stroke-width="1.80"/>
<path d="M 151.0 20.6 L 150.9 19.5" stroke-width="2.00"/>
<path d="M 150.9 19.5 L 150.6 18.6 L 150.3 18.1 L 150.0 17.9" stroke-width="2.20"/>
<circle cx="166.6" cy="10.6" r="0.77" fill="currentColor" stroke="none"/>
<path d="M 166.6 10.6 L 166.3 9.8" stroke-width="1.80"/>
<path d="M 166.3 9.8 L 165.7 8.7" stroke-width="2.20"/>
<path d="M 165.7 8.7 L 164.9 7.4" stroke-width="2.40"/>
<path d="M 164.9 7.4 L 163.9 6.5 L 162.9 6.0" stroke-width="2.20"/>
<path d="M 162.9 6.0 L 161.9 6.1 L 160.9 6.7 L 160.1 8.0" stroke-width="2.40"/>
<path d="M 160.1 8.0 L 159.4 9.9" stroke-width="2.20"/>
<path d="M 159.4 9.9 L 158.9 12.2" stroke-width="1.80"/>
<path d="M 158.9 12.2 L 158.6 15.0" stroke-width="1.60"/>
<path d="M 158.6 15.0 L 158.5 18.1 L 158.5 21.3" stroke-width="1.40"/>
<path d="M 158.5 21.3 L 158.5 24.5 L 158.6 27.4 L 158.6 29.9" stroke-width="1.20"/>
<path d="M 158.6 29.9 L 158.6 31.7" stroke-width="1.40"/>
<path d="M 158.6 31.7 L 158.4 32.7" stroke-width="1.60"/>
<path d="M 158.4 32.7 L 158.3 33.0" stroke-width="1.80"/>
<path d="M 158.3 33.0 L 158.2 33.0" stroke-width="2.00"/>
<circle cx="159.3" cy="21.3" r="0.77" fill="currentColor" stroke="none"/>
<path d="M 159.3 21.3 L 160.0 21.3" stroke-width="1.80"/>
<path d="M 160.0 21.3 L 161.1 21.2 L 162.2 21.2" stroke-width="2.40"/>
<path d="M 162.2 21.2 L 162.9 21.2" stroke-width="2.00"/>
<circle cx="188.4" cy="19.9" r="0.77" fill="currentColor" stroke="none"/>
<path d="M 188.4 19.9 L 188.3 20.6" stroke-width="1.80"/>
<path d="M 188.3 20.6 L 188.1 21.6 L 187.9 23.0 L 187.8 24.4" stroke-width="2.40"/>
<path d="M 187.8 24.4 L 187.7 25.8 L 187.7 27.1 L 187.7 28.0" stroke-width="2.20"/>
<path d="M 187.7 28.0 L 187.8 28.6" stroke-width="2.00"/>
<circle cx="189.0" cy="12.9" r="0.77" fill="currentColor" stroke="none"/>
<path d="M 189.0 12.9 L 189.0 12.9" stroke-width="2.00"/>
<path d="M 189.0 12.9 L 189.1 12.9" stroke-width="2.80"/>
<path d="M 189.1 12.9 L 189.1 13.0" stroke-width="3.00"/>
<path d="M 189.1 13.0 L 189.1 13.1" stroke-width="2.60"/>
<circle cx="194.4" cy="19.7" r="0.77" fill="currentColor" stroke="none"/>
<path d="M 194.4 19.7 L 194.3 20.3" stroke-width="1.80"/>
<path d="M 194.3 20.3 L 194.0 21.2" stroke-width="2.40"/>
<path d="M 194.0 21.2 L 193.7 22.5" stroke-width="2.60"/>
<path d="M 193.7 22.5 L 193.4 23.9" stroke-width="2.40"/>
<path d="M 193.4 23.9 L 193.2 25.3 L 193.0 26.5" stroke-width="2.20"/>
<path d="M 193.0 26.5 L 192.9 27.5" stroke-width="2.40"/>
<path d="M 192.9 27.5 L 192.8 28.2" stroke-width="2.60"/>
<path d="M 192.8 28.2 L 192.8 28.4" stroke-width="3.00"/>
<path d="M 192.8 28.4 L 192.8 28.2 L 192.9 27.5 L 193.0 26.4" stroke-width="3.20"/>
<path d="M 193.0 26.4 L 193.3 25.2" stroke-width="3.00"/>
<path d="M 193.3 25.2 L 193.8 23.9" stroke-width="2.60"/>
<path d="M 193.8 23.9 L 194.5 22.6" stroke-width="2.40"/>
<path d="M 194.5 22.6 L 195.4 21.4 L 196.5 20.3 L 197.8 19.6" stroke-width="2.20"/>
<path d="M 197.8 19.6 L 199.3 19.1 L 201.0 18.9 L 202.7 19.2 L 204.3 19.7 L 205.8 20.5 L 207.1 21.6 L 208.1 22.8 L 208.9 24.1 L 209.4 25.4 L 209.9 26.7" stroke-width="2.00"/>
<path d="M 209.9 26.7 L 210.2 27.7" stroke-width="2.20"/>
<path d="M 210.2 27.7 L 210.5 28.4 L 210.8 28.7 L 210.9 28.8" stroke-width="2.40"/>
<circle cx="216.4" cy="14.5" r="0.77" fill="currentColor" stroke="none"/>
<path d="M 216.4 14.5 L 216.3 15.2" stroke-width="1.80"/>
<path d="M 216.3 15.2 L 216.2 16.5 L 216.0 18.2" stroke-width="2.20"/>
<path d="M 216.0 18.2 L 215.9 20.0 L 215.9 21.8 L 215.7 23.4" stroke-width="2.00"/>
<path d="M 215.7 23.4 L 215.6 24.6 L 215.5 25.3" stroke-width="1.80"/>
<circle cx="219.1" cy="20.7" r="0.77" fill="currentColor" stroke="none"/>
<path d="M 219.1 20.7 L 218.7 20.9" stroke-width="2.00"/>
<path d="M 218.7 20.9 L 218.0 21.3 L 217.0 21.8 L 216.1 22.5 L 215.2 23.2 L 214.6 23.9 L 214.3 24.7" stroke-width="2.60"/>
<path d="M 214.3 24.7 L 214.5 25.4 L 215.1 26.0 L 216.2 26.5" stroke-width="2.80"/>
<path d="M 216.2 26.5 L 217.8 27.0" stroke-width="2.40"/>
<path d="M 217.8 27.0 L 219.8 27.3" stroke-width="2.20"/>
<path d="M 219.8 27.3 L 222.1 27.7" stroke-width="2.00"/>
<path d="M 222.1 27.7 L 224.5 28.0" stroke-width="1.80"/>
<path d="M 224.5 28.0 L 226.3 28.3" stroke-width="1.60"/>
<path d="M 226.3 28.3 L 227.5 28.5" stroke-width="1.40"/>
<circle cx="232.8" cy="29.8" r="0.77" fill="currentColor" stroke="none"/>
<path d="M 232.8 29.8 L 232.5 30.5" stroke-width="1.80"/>
<path d="M 232.5 30.5 L 231.8 31.6 L 230.8 33.2" stroke-width="2.20"/>
<path d="M 230.8 33.2 L 229.6 34.9" stroke-width="2.00"/>
<path d="M 229.6 34.9 L 228.2 36.6 L 226.9 38.0" stroke-width="1.80"/>
<path d="M 226.9 38.0 L 225.9 39.0 L 225.3 39.6" stroke-width="1.60"/>
<circle cx="258.1" cy="14.7" r="0.77" fill="currentColor" stroke="none"/>
<path d="M 258.1 14.7 L 258.0 15.8" stroke-width="1.80"/>
<path d="M 258.0 15.8 L 257.8 17.6 L 257.5 19.8" stroke-width="2.00"/>
<path d="M 257.5 19.8 L 257.3 22.1" stroke-width="1.80"/>
<path d="M 257.3 22.1 L 257.2 24.3 L 257.2 26.4 L 257.2 28.0" stroke-width="1.60"/>
<path d="M 257.2 28.0 L 257.2 29.0" stroke-width="1.40"/>
<circle cx="253.0" cy="19.9" r="0.77" fill="currentColor" stroke="none"/>
<path d="M 253.0 19.9 L 253.5 19.8" stroke-width="2.00"/>
<path d="M 253.5 19.8 L 254.4 19.7" stroke-width="2.40"/>
<path d="M 254.4 19.7 L 255.9 19.7" stroke-width="2.60"/>
<path d="M 255.9 19.7 L 257.8 19.6" stroke-width="2.20"/>
<path d="M 257.8 19.6 L 260.1 19.6" stroke-width="2.00"/>
<path d="M 260.1 19.6 L 262.6 19.6" stroke-width="1.80"/>
<path d="M 262.6 19.6 L 264.7 19.6" stroke-width="1.60"/>
<path d="M 264.7 19.6 L 266.1 19.5" stroke-width="1.40"/>
<circle cx="271.7" cy="14.5" r="0.77" fill="currentColor" stroke="none"/>
<path d="M 271.7 14.5 L 271.6 15.4" stroke-width="1.80"/>
<path d="M 271.6 15.4 L 271.4 16.7 L 271.1 18.4" stroke-width="2.20"/>
<path d="M 271.1 18.4 L 270.7 20.3 L 270.3 22.2" stroke-width="2.00"/>
<path d="M 270.3 22.2 L 270.0 23.9 L 269.7 25.4" stroke-width="1.80"/>
<path d="M 269.7 25.4 L 269.6 26.6" stroke-width="2.00"/>
<path d="M 269.6 26.6 L 269.5 27.3" stroke-width="2.20"/>
<path d="M 269.5 27.3 L 269.5 27.5" stroke-width="2.60"/>
<path d="M 269.5 27.5 L 269.6 27.2" stroke-width="3.00"/>
<path d="M 269.6 27.2 L 269.8 26.5" stroke-width="3.20"/>
<path d="M 269.8 26.5 L 270.2 25.5" stroke-width="3.00"/>
<path d="M 270.2 25.5 L 270.8 24.2" stroke-width="2.80"/>
<path d="M 270.8 24.2 L 271.7 22.9" stroke-width="2.40"/>
<path d="M 271.7 22.9 L 272.9 21.6 L 274.2 20.6" stroke-width="2.20"/>
<path d="M 274.2 20.6 L 275.7 19.8 L 277.3 19.4 L 278.9 19.2 L 280.6 19.4 L 282.2 19.9 L 283.7 20.6 L 284.9 21.7 L 285.9 22.9 L 286.6 24.1 L 287.1 25.4" stroke-width="2.00"/>
<path d="M 287.1 25.4 L 287.5 26.5 L 287.8 27.4" stroke-width="2.20"/>
<path d="M 287.8 27.4 L 288.1 27.9" stroke-width="2.60"/>
<path d="M 288.1 27.9 L 288.4 28.1" stroke-width="2.80"/>
<path d="M 288.4 28.1 L 288.9 28.0 L 289.3 27.5 L 289.9 26.7" stroke-width="3.20"/>
<path d="M 289.9 26.7 L 290.3 25.9" stroke-width="2.80"/>
<path d="M 290.3 25.9 L 290.6 25.3" stroke-width="2.40"/>
<circle cx="293.5" cy="20.3" r="0.77" fill="currentColor" stroke="none"/>
<path d="M 293.5 20.3 L 293.5 20.6" stroke-width="2.00"/>
<path d="M 293.5 20.6 L 293.5 21.3" stroke-width="2.60"/>
<path d="M 293.5 21.3 L 293.6 22.2 L 293.7 23.3" stroke-width="2.80"/>
<path d="M 293.7 23.3 L 293.9 24.5 L 294.1 25.6 L 294.3 26.5" stroke-width="2.60"/>
<path d="M 294.3 26.5 L 294.4 26.9" stroke-width="2.80"/>
<path d="M 294.4 26.9 L 294.4 26.9 L 294.4 26.6" stroke-width="3.00"/>
<path d="M 294.4 26.6 L 294.4 26.2" stroke-width="2.60"/>
<circle cx="294.3" cy="14.4" r="0.77" fill="currentColor" stroke="none"/>
<path d="M 294.3 14.4 L 294.3 14.4" stroke-width="2.00"/>
<path d="M 294.3 14.4 L 294.4 14.4" stroke-width="2.80"/>
<path d="M 294.4 14.4 L 294.5 14.4" stroke-width="3.00"/>
<path d="M 294.5 14.4 L 294.6 14.5" stroke-width="2.60"/>
<circle cx="301.4" cy="17.8" r="0.77" fill="currentColor" stroke="none"/>
<path d="M 301.4 17.8 L 301.4 18.1" stroke-width="2.00"/>
<path d="M 301.4 18.1 L 301.5 18.7" stroke-width="2.60"/>
<path d="M 301.5 18.7 L 301.5 19.6 L 301.5 20.8" stroke-width="2.80"/>
<path d="M 301.5 20.8 L 301.5 22.0 L 301.6 23.2 L 301.6 24.2 L 301.6 25.0" stroke-width="2.60"/>
<path d="M 301.6 25.0 L 301.6 25.4" stroke-width="2.80"/>
<path d="M 301.6 25.4 L 301.5 25.5 L 301.5 25.2 L 301.5 24.6 L 301.7 23.6" stroke-width="3.20"/>
<path d="M 301.7 23.6 L 302.1 22.5" stroke-width="3.00"/>
<path d="M 302.1 22.5 L 302.6 21.3" stroke-width="2.80"/>
<path d="M 302.6 21.3 L 303.4 20.1" stroke-width="2.60"/>
<path d="M 303.4 20.1 L 304.4 19.0" stroke-width="2.40"/>
<path d="M 304.4 19.0 L 305.5 18.2 L 306.9 17.6 L 308.3 17.3 L 309.8 17.3" stroke-width="2.20"/>
<path d="M 309.8 17.3 L 311.3 17.7 L 312.7 18.3 L 314.0 19.1 L 315.2 20.1 L 316.2 21.2 L 317.1 22.4 L 317.7 23.6" stroke-width="2.00"/>
<path d="M 317.7 23.6 L 318.1 24.5" stroke-width="2.20"/>
<path d="M 318.1 24.5 L 318.4 25.2 L 318.5 25.7 L 318.6 25.9" stroke-width="2.40"/>
<circle cx="321.8" cy="16.2" r="0.77" fill="currentColor" stroke="none"/>
<path d="M 321.8 16.2 L 321.6 17.2" stroke-width="1.80"/>
<path d="M 321.6 17.2 L 321.4 18.6 L 321.2 20.4" stroke-width="2.20"/>
<path d="M 321.2 20.4 L 320.9 22.1 L 320.7 23.6 L 320.6 24.6" stroke-width="2.00"/>
<path d="M 320.6 24.6 L 320.5 25.3" stroke-width="2.20"/>
<path d="M 320.5 25.3 L 320.4 25.7" stroke-width="2.00"/>
<circle cx="328.4" cy="17.2" r="1.10" fill="currentColor" stroke="none"/>
<circle cx="324.1" cy="16.9" r="0.77" fill="currentColor" stroke="none"/>
<path d="M 324.1 16.9 L 322.8 16.9 L 321.1 16.9" stroke-width="1.80"/>
<path d="M 321.1 16.9 L 319.6 16.9" stroke-width="1.60"/>
<circle cx="313.4" cy="17.4" r="0.77" fill="currentColor" stroke="none"/>
<path d="M 313.4 17.4 L 312.7 17.5" stroke-width="1.80"/>
<path d="M 312.7 17.5 L 311.9 17.9" stroke-width="2.40"/>
<path d="M 311.9 17.9 L 311.3 18.3" stroke-width="2.60"/>
<path d="M 311.3 18.3 L 311.3 18.8" stroke-width="2.80"/>
<path d="M 311.3 18.8 L 312.1 19.5" stroke-width="3.00"/>
<path d="M 312.1 19.5 L 313.5 20.2" stroke-width="2.60"/>
<path d="M 313.5 20.2 L 315.4 21.0" stroke-width="2.20"/>
<path d="M 315.4 21.0 L 317.8 21.8" stroke-width="2.00"/>
<path d="M 317.8 21.8 L 320.4 22.7 L 323.1 23.5" stroke-width="1.60"/>
<path d="M 323.1 23.5 L 325.9 24.3 L 328.6 25.0 L 330.9 25.4 L 332.6 25.6 L 333.5 25.7" stroke-width="1.40"/>
<circle cx="335.4" cy="19.3" r="1.10" fill="currentColor" stroke="none"/>
<circle cx="336.5" cy="19.8" r="0.77" fill="currentColor" stroke="none"/>
<path d="M 336.5 19.8 L 336.5 20.3" stroke-width="2.00"/>
<path d="M 336.5 20.3 L 336.5 21.0" stroke-width="2.60"/>
<path d="M 336.5 21.0 L 336.5 21.8 L 336.4 22.7 L 336.2 23.4 L 336.2 24.0" stroke-width="2.80"/>
<path d="M 336.2 24.0 L 336.1 24.3" stroke-width="2.40"/>
<circle cx="335.8" cy="15.9" r="0.77" fill="currentColor" stroke="none"/>
<path d="M 335.8 15.9 L 335.8 15.8" stroke-width="2.00"/>
<path d="M 335.8 15.8 L 336.0 15.6" stroke-width="2.80"/>
<path d="M 336.0 15.6 L 336.1 15.4" stroke-width="3.00"/>
<path d="M 336.1 15.4 L 336.2 15.3" stroke-width="2.60"/>
<circle cx="341.5" cy="18.4" r="0.77" fill="currentColor" stroke="none"/>
<path d="M 341.5 18.4 L 341.6 18.7" stroke-width="2.00"/>
<path d="M 341.6 18.7 L 341.7 19.3" stroke-width="2.60"/>
<path d="M 341.7 19.3 L 341.7 20.1 L 341.7 21.0" stroke-width="3.00"/>
<path d="M 341.7 21.0 L 341.7 22.0 L 341.7 22.9 L 341.7 23.6" stroke-width="2.80"/>
<path d="M 341.7 23.6 L 341.7 24.2" stroke-width="3.00"/>
<path d="M 341.7 24.2 L 341.7 24.4 L 341.7 24.3 L 341.9 23.9 L 342.1 23.2 L 342.6 22.3" stroke-width="3.20"/>
<path d="M 342.6 22.3 L 343.1 21.2" stroke-width="3.00"/>
<path d="M 343.1 21.2 L 343.9 20.2" stroke-width="2.80"/>
<path d="M 343.9 20.2 L 344.8 19.1" stroke-width="2.60"/>
<path d="M 344.8 19.1 L 346.0 18.3" stroke-width="2.40"/>
<path d="M 346.0 18.3 L 347.3 17.6 L 348.7 17.2 L 350.2 17.1" stroke-width="2.20"/>
<path d="M 350.2 17.1 L 351.8 17.3 L 353.3 17.9 L 354.7 18.8 L 355.9 19.9 L 357.0 21.2 L 358.0 22.4 L 359.0 23.5 L 359.9 24.5" stroke-width="2.00"/>
<path d="M 359.9 24.5 L 360.9 25.1 L 361.8 25.3" stroke-width="2.20"/>
<path d="M 361.8 25.3 L 362.5 25.3" stroke-width="2.40"/>
<path d="M 362.5 25.3 L 363.0 25.2" stroke-width="2.20"/>
<circle cx="370.0" cy="17.1" r="0.77" fill="currentColor" stroke="none"/>
<path d="M 370.0 17.1 L 369.1 17.1" stroke-width="1.80"/>
<path d="M 369.1 17.1 L 367.8 17.1 L 366.2 17.3 L 364.8 17.8 L 363.7 18.5 L 363.1 19.4" stroke-width="2.20"/>
<path d="M 363.1 19.4 L 363.0 20.2" stroke-width="2.40"/>
<path d="M 363.0 20.2 L 363.4 20.9 L 364.3 21.4 L 365.6 21.5" stroke-width="2.60"/>
<path d="M 365.6 21.5 L 367.1 21.3" stroke-width="2.40"/>
<path d="M 367.1 21.3 L 368.7 20.9" stroke-width="2.20"/>
<path d="M 368.7 20.9 L 370.3 20.3 L 371.6 19.7" stroke-width="2.00"/>
<path d="M 371.6 19.7 L 372.6 19.3" stroke-width="2.20"/>
<path d="M 372.6 19.3 L 373.2 19.1" stroke-width="2.40"/>
<path d="M 373.2 19.1 L 373.6 19.3" stroke-width="2.60"/>
<path d="M 373.6 19.3 L 373.8 19.8 L 373.9 20.8" stroke-width="3.00"/>
<path d="M 373.9 20.8 L 373.9 22.1" stroke-width="2.80"/>
<path d="M 373.9 22.1 L 373.8 23.8" stroke-width="2.40"/>
<path d="M 373.8 23.8 L 373.6 25.8" stroke-width="2.20"/>
<path d="M 373.6 25.8 L 373.3 28.0" stroke-width="2.00"/>
<path d="M 373.3 28.0 L 372.9 30.2" stroke-width="1.80"/>
<path d="M 372.9 30.2 L 372.2 32.1 L 371.3 33.8" stroke-width="1.60"/>
<path d="M 371.3 33.8 L 370.2 35.0 L 368.7 35.7 L 367.1 35.9 L 365.4 35.6 L 363.7 34.9 L 362.3 33.8 L 361.2 32.3 L 360.6 30.7 L 360.4 29.3" stroke-width="1.80"/>
<path d="M 360.4 29.3 L 360.4 28.4" stroke-width="1.60"/>
<circle cx="398.8" cy="18.9" r="0.77" fill="currentColor" stroke="none"/>
<path d="M 398.8 18.9 L 398.0 19.2" stroke-width="1.80"/>
<path d="M 398.0 19.2 L 396.7 19.8 L 395.4 20.6 L 394.4 21.5 L 393.9 22.4" stroke-width="2.20"/>
<path d="M 393.9 22.4 L 393.9 23.3" stroke-width="2.40"/>
<path d="M 393.9 23.3 L 394.2 24.1 L 395.0 24.7 L 396.1 25.0 L 397.3 25.0" stroke-width="2.60"/>
<path d="M 397.3 25.0 L 398.7 24.7" stroke-width="2.40"/>
<path d="M 398.7 24.7 L 400.0 24.0 L 401.2 23.1 L 402.1 22.0 L 402.8 20.8 L 403.2 19.7" stroke-width="2.20"/>
<path d="M 403.2 19.7 L 403.3 18.7" stroke-width="2.40"/>
<path d="M 403.3 18.7 L 403.4 18.1" stroke-width="2.60"/>
<path d="M 403.4 18.1 L 403.3 17.8" stroke-width="2.80"/>
<path d="M 403.3 17.8 L 403.2 17.9 L 403.1 18.4 L 403.0 19.3" stroke-width="3.20"/>
<path d="M 403.0 19.3 L 403.0 20.5" stroke-width="3.00"/>
<path d="M 403.0 20.5 L 403.2 21.8" stroke-width="2.80"/>
<path d="M 403.2 21.8 L 403.6 23.2" stroke-width="2.60"/>
<path d="M 403.6 23.2 L 404.4 24.6" stroke-width="2.40"/>
<path d="M 404.4 24.6 L 405.4 25.8" stroke-width="2.20"/>
<path d="M 405.4 25.8 L 406.7 26.7 L 408.3 27.2 L 410.0 27.3" stroke-width="2.00"/>
<path d="M 410.0 27.3 L 411.4 27.0" stroke-width="1.80"/>
<path d="M 411.4 27.0 L 412.3 26.8" stroke-width="1.60"/>
<circle cx="421.4" cy="17.0" r="1.10" fill="currentColor" stroke="none"/>
<circle cx="418.6" cy="16.8" r="0.77" fill="currentColor" stroke="none"/>
<path d="M 418.6 16.8 L 417.8 17.0" stroke-width="1.80"/>
<path d="M 417.8 17.0 L 416.6 17.2" stroke-width="2.20"/>
<path d="M 416.6 17.2 L 415.5 17.6 L 414.9 18.1" stroke-width="2.40"/>
<path d="M 414.9 18.1 L 415.0 18.6 L 415.8 19.2" stroke-width="2.80"/>
<path d="M 415.8 19.2 L 417.1 19.9" stroke-width="2.60"/>
<path d="M 417.1 19.9 L 418.9 20.5" stroke-width="2.40"/>
<path d="M 418.9 20.5 L 421.0 21.2" stroke-width="2.00"/>
<path d="M 421.0 21.2 L 423.0 21.8 L 424.8 22.5 L 426.3 23.1" stroke-width="1.80"/>
<path d="M 426.3 23.1 L 427.2 23.7" stroke-width="2.00"/>
<path d="M 427.2 23.7 L 427.5 24.2" stroke-width="2.20"/>
<path d="M 427.5 24.2 L 427.2 24.7 L 426.3 25.0 L 424.8 25.3" stroke-width="2.60"/>
<path d="M 424.8 25.3 L 422.8 25.3" stroke-width="2.20"/>
<path d="M 422.8 25.3 L 420.6 25.2" stroke-width="2.00"/>
<path d="M 420.6 25.2 L 418.3 24.8" stroke-width="1.80"/>
<path d="M 418.3 24.8 L 416.1 24.2 L 414.3 23.5 L 412.9 22.6" stroke-width="1.60"/>
<path d="M 412.9 22.6 L 412.0 21.7" stroke-width="1.80"/>
<path d="M 412.0 21.7 L 411.6 20.8" stroke-width="2.00"/>
<path d="M 411.6 20.8 L 411.4 20.2" stroke-width="2.20"/>
<path d="M 411.4 20.2 L 411.4 19.8" stroke-width="2.00"/>
<circle cx="450.7" cy="17.2" r="0.77" fill="currentColor" stroke="none"/>
<path d="M 450.7 17.2 L 450.7 17.9" stroke-width="1.80"/>
<path d="M 450.7 17.9 L 450.7 19.0 L 450.7 20.3 L 450.7 21.6 L 450.8 22.9 L 450.8 23.9 L 450.9 24.6" stroke-width="2.40"/>
<path d="M 450.9 24.6 L 450.9 24.9" stroke-width="2.20"/>
<circle cx="450.9" cy="8.9" r="1.10" fill="currentColor" stroke="none"/>
<circle cx="458.7" cy="14.8" r="0.77" fill="currentColor" stroke="none"/>
<path d="M 458.7 14.8 L 458.6 15.5" stroke-width="1.80"/>
<path d="M 458.6 15.5 L 458.4 16.6 L 458.1 18.0" stroke-width="2.40"/>
<path d="M 458.1 18.0 L 457.9 19.7" stroke-width="2.20"/>
<path d="M 457.9 19.7 L 457.9 21.4 L 457.9 23.1 L 457.9 24.4" stroke-width="2.00"/>
<path d="M 457.9 24.4 L 458.0 25.2" stroke-width="1.80"/>
<circle cx="456.4" cy="18.2" r="1.10" fill="currentColor" stroke="none"/>
<circle cx="458.7" cy="18.9" r="0.77" fill="currentColor" stroke="none"/>
<path d="M 458.7 18.9 L 459.8 19.0" stroke-width="1.80"/>
<path d="M 459.8 19.0 L 461.2 19.3" stroke-width="2.00"/>
<path d="M 461.2 19.3 L 462.3 19.4" stroke-width="1.80"/>
<circle cx="494.1" cy="21.5" r="0.77" fill="currentColor" stroke="none"/>
<path d="M 494.1 21.5 L 493.8 21.1" stroke-width="2.00"/>
<path d="M 493.8 21.1 L 493.3 20.4" stroke-width="2.40"/>
<path d="M 493.3 20.4 L 492.3 19.5" stroke-width="2.60"/>
<path d="M 492.3 19.5 L 490.9 18.8" stroke-width="2.40"/>
<path d="M 490.9 18.8 L 489.2 18.2" stroke-width="2.20"/>
<path d="M 489.2 18.2 L 487.4 18.0 L 485.6 18.1" stroke-width="2.00"/>
<path d="M 485.6 18.1 L 484.0 18.5" stroke-width="1.80"/>
<path d="M 484.0 18.5 L 482.7 19.3 L 482.1 20.2" stroke-width="2.00"/>
<path d="M 482.1 20.2 L 482.1 21.3 L 482.7 22.4 L 484.0 23.3 L 485.7 23.9" stroke-width="2.20"/>
<path d="M 485.7 23.9 L 487.7 24.1" stroke-width="2.00"/>
<path d="M 487.7 24.1 L 489.8 24.0 L 491.8 23.6 L 493.6 23.1 L 495.0 22.4 L 496.0 21.8" stroke-width="1.80"/>
<path d="M 496.0 21.8 L 496.6 21.4" stroke-width="2.20"/>
<path d="M 496.6 21.4 L 496.9 21.2" stroke-width="2.40"/>
<path d="M 496.9 21.2 L 497.0 21.3" stroke-width="3.00"/>
<path d="M 497.0 21.3 L 497.0 21.8 L 496.8 22.7" stroke-width="3.20"/>
<path d="M 496.8 22.7 L 496.7 24.1" stroke-width="3.00"/>
<path d="M 496.7 24.1 L 496.6 25.9" stroke-width="2.60"/>
<path d="M 496.6 25.9 L 496.4 27.9" stroke-width="2.20"/>
<path d="M 496.4 27.9 L 496.2 30.2" stroke-width="2.00"/>
<path d="M 496.2 30.2 L 495.8 32.5" stroke-width="1.80"/>
<path d="M 495.8 32.5 L 495.2 34.8 L 494.1 36.7 L 492.6 38.2 L 490.6 39.2 L 488.3 39.4 L 486.0 39.1 L 483.8 38.1" stroke-width="1.60"/>
<path d="M 483.8 38.1 L 482.0 36.7 L 480.6 35.0" stroke-width="1.40"/>
<path d="M 480.6 35.0 L 479.7 33.0 L 479.5 31.0 L 480.0 29.1 L 480.7 27.6" stroke-width="1.60"/>
<path d="M 480.7 27.6 L 481.3 26.7" stroke-width="1.40"/>
<circle cx="507.8" cy="18.7" r="0.77" fill="currentColor" stroke="none"/>
<path d="M 507.8 18.7 L 507.2 18.5" stroke-width="1.80"/>
<path d="M 507.2 18.5 L 506.3 18.2 L 504.9 18.1 L 503.4 18.1" stroke-width="2.40"/>
<path d="M 503.4 18.1 L 501.9 18.4 L 500.5 19.0 L 499.5 19.8 L 499.0 20.7" stroke-width="2.20"/>
<path d="M 499.0 20.7 L 499.0 21.7 L 499.6 22.7 L 500.7 23.6" stroke-width="2.40"/>
<path d="M 500.7 23.6 L 502.1 24.1 L 503.9 24.4" stroke-width="2.20"/>
<path d="M 503.9 24.4 L 505.7 24.2 L 507.4 23.8" stroke-width="2.00"/>
<path d="M 507.4 23.8 L 508.9 22.9" stroke-width="1.80"/>
<path d="M 508.9 22.9 L 510.0 21.8 L 510.6 20.6 L 510.9 19.5" stroke-width="2.00"/>
<path d="M 510.9 19.5 L 510.9 18.8" stroke-width="1.80"/>
<circle cx="516.1" cy="21.1" r="1.10" fill="currentColor" stroke="none"/>
<circle cx="518.5" cy="21.2" r="0.77" fill="currentColor" stroke="none"/>
<path d="M 518.5 21.2 L 519.3 21.0" stroke-width="1.80"/>
<path d="M 519.3 21.0 L 520.7 20.7 L 522.2 20.1 L 523.6 19.5 L 524.7 18.7 L 525.4 18.0" stroke-width="2.20"/>
<path d="M 525.4 18.0 L 525.7 17.4" stroke-width="2.40"/>
<path d="M 525.7 17.4 L 525.6 16.9" stroke-width="2.80"/>
<path d="M 525.6 16.9 L 524.9 16.7 L 523.8 16.7" stroke-width="3.00"/>
<path d="M 523.8 16.7 L 522.4 17.0" stroke-width="2.60"/>
<path d="M 522.4 17.0 L 520.8 17.6" stroke-width="2.40"/>
<path d="M 520.8 17.6 L 519.2 18.4" stroke-width="2.20"/>
<path d="M 519.2 18.4 L 517.9 19.4 L 516.9 20.4 L 516.3 21.5" stroke-width="2.00"/>
<path d="M 516.3 21.5 L 516.3 22.6 L 516.8 23.6 L 518.0 24.5 L 519.7 25.1" stroke-width="2.20"/>
<path d="M 519.7 25.1 L 521.9 25.4" stroke-width="2.00"/>
<path d="M 521.9 25.4 L 523.8 25.6" stroke-width="1.80"/>
<path d="M 523.8 25.6 L 525.1 25.6" stroke-width="1.40"/>
<circle cx="536.5" cy="16.5" r="0.77" fill="currentColor" stroke="none"/>
<path d="M 536.5 16.5 L 535.7 16.3" stroke-width="1.80"/>
<path d="M 535.7 16.3 L 534.5 16.2" stroke-width="2.20"/>
<path d="M 534.5 16.2 L 533.0 16.0" stroke-width="2.40"/>
<path d="M 533.0 16.0 L 531.7 16.0 L 530.6 16.3" stroke-width="2.20"/>
<path d="M 530.6 16.3 L 530.1 16.6" stroke-width="2.40"/>
<path d="M 530.1 16.6 L 530.2 17.2" stroke-width="2.80"/>
<path d="M 530.2 17.2 L 530.8 17.8" stroke-width="3.00"/>
<path d="M 530.8 17.8 L 531.9 18.6" stroke-width="2.80"/>
<path d="M 531.9 18.6 L 533.3 19.4" stroke-width="2.40"/>
<path d="M 533.3 19.4 L 534.9 20.3" stroke-width="2.20"/>
<path d="M 534.9 20.3 L 536.4 21.2 L 537.7 22.1 L 538.4 23.0" stroke-width="2.00"/>
<path d="M 538.4 23.0 L 538.6 23.6" stroke-width="2.20"/>
<path d="M 538.6 23.6 L 538.2 24.1 L 537.2 24.3 L 535.6 24.3" stroke-width="2.60"/>
<path d="M 535.6 24.3 L 533.7 24.1" stroke-width="2.20"/>
<path d="M 533.7 24.1 L 531.5 23.7" stroke-width="2.00"/>
<path d="M 531.5 23.7 L 529.2 23.2" stroke-width="1.80"/>
<path d="M 529.2 23.2 L 527.0 22.5 L 525.3 21.9" stroke-width="1.60"/>
<path d="M 525.3 21.9 L 524.2 21.5" stroke-width="1.40"/>
</svg>
