<svg xmlns="http://www.w3.org/2000/svg" viewBox="0 0 532.1 58.3" fill="none" stroke="currentColor" stroke-linecap="round" stroke-linejoin="round" role="img">
<circle cx="6.0" cy="52.3" r="0.77" fill="currentColor" stroke="none"/>
<path d="M 6.0 52.3 L 6.1 51.9" stroke-width="2.00"/>
<path d="M 6.1 51.9 L 6.2 51.5 L 6.3 51.1" stroke-width="2.40"/>
<circle cx="39.9" cy="25.1" r="0.77" fill="currentColor" stroke="none"/>
<path d="M 39.9 25.1 L 39.7 24.9" stroke-width="2.00"/>
<path d="M 39.7 24.9 L 39.4 24.6" stroke-width="2.60"/>
<path d="M 39.4 24.6 L 38.9 24.3" stroke-width="3.00"/>
<path d="M 38.9 24.3 L 38.3 24.1 L 37.4 24.1" stroke-width="3.20"/>
<path d="M 37.4 24.1 L 36.3 24.4" stroke-width="3.00"/>
<path d="M 36.3 24.4 L 35.0 25.0" stroke-width="2.60"/>
<path d="M 35.0 25.0 L 33.4 25.9" stroke-width="2.40"/>
<path d="M 33.4 25.9 L 31.9 27.1" stroke-width="2.00"/>
<path d="M 31.9 27.1 L 30.4 28.7 L 29.2 30.5" stroke-width="1.80"/>
<path d="M 29.2 30.5 L 28.3 32.4 L 27.8 34.3 L 27.7 36.1" stroke-width="1.60"/>
<path d="M 27.7 36.1 L 27.9 37.6 L 28.6 38.5" stroke-width="1.80"/>
<path d="M 28.6 38.5 L 29.5 39.0" stroke-width="2.00"/>
<path d="M 29.5 39.0 L 30.8 38.8 L 32.2 38.2" stroke-width="2.20"/>
<path d="M 32.2 38.2 L 33.8 37.1" stroke-width="2.00"/>
<path d="M 33.8 37.1 L 35.5 35.7" stroke-width="1.80"/>
<path d="M 35.5 35.7 L 37.0 34.0 L 38.3 32.1 L 39.3 30.3 L 40.1 28.7 L 40.6 27.3" stroke-width="1.60"/>
<path d="M 40.6 27.3 L 40.8 26.2" stroke-width="1.80"/>
<path d="M 40.8 26.2 L 40.9 25.5" stroke-width="2.20"/>
<path d="M 40.9 25.5 L 40.9 25.2" stroke-width="2.40"/>
<path d="M 40.9 25.2 L 40.9 25.1" stroke-width="3.00"/>
<path d="M 40.9 25.1 L 40.9 25.5 L 40.9 26.2 L 41.0 27.2" stroke-width="3.20"/>
<path d="M 41.0 27.2 L 41.2 28.7" stroke-width="2.80"/>
<path d="M 41.2 28.7 L 41.4 30.3" stroke-width="2.40"/>
<path d="M 41.4 30.3 L 41.8 31.9" stroke-width="2.20"/>
<path d="M 41.8 31.9 L 42.3 33.6 L 42.8 35.0 L 43.4 36.3 L 44.0 37.2" stroke-width="2.00"/>
<path d="M 44.0 37.2 L 44.6 37.8" stroke-width="2.20"/>
<path d="M 44.6 37.8 L 45.2 38.1" stroke-width="2.40"/>
<path d="M 45.2 38.1 L 45.5 38.2" stroke-width="2.60"/>
<path d="M 45.5 38.2 L 45.8 38.2" stroke-width="2.40"/>
<circle cx="63.6" cy="10.1" r="0.77" fill="currentColor" stroke="none"/>
<path d="M 63.6 10.1 L 63.6 10.7" stroke-width="1.80"/>
<path d="M 63.6 10.7 L 63.5 11.9 L 63.5 13.5" stroke-width="2.40"/>
<path d="M 63.5 13.5 L 63.5 15.4" stroke-width="2.20"/>
<path d="M 63.5 15.4 L 63.5 17.5" stroke-width="2.00"/>
<path d="M 63.5 17.5 L 63.4 19.9" stroke-width="1.80"/>
<path d="M 63.4 19.9 L 63.4 22.4 L 63.4 24.9" stroke-width="1.60"/>
<path d="M 63.4 24.9 L 63.5 27.5 L 63.6 29.8 L 63.7 31.9" stroke-width="1.40"/>
<path d="M 63.7 31.9 L 63.9 33.5 L 64.1 34.8" stroke-width="1.60"/>
<path d="M 64.1 34.8 L 64.4 35.5" stroke-width="2.00"/>
<path d="M 64.4 35.5 L 64.9 35.8" stroke-width="2.20"/>
<path d="M 64.9 35.8 L 65.6 35.6 L 66.4 34.9" stroke-width="2.60"/>
<path d="M 66.4 34.9 L 67.3 33.8" stroke-width="2.40"/>
<path d="M 67.3 33.8 L 68.4 32.3" stroke-width="2.20"/>
<path d="M 68.4 32.3 L 69.5 30.7" stroke-width="2.00"/>
<path d="M 69.5 30.7 L 70.6 29.0 L 71.7 27.5 L 72.7 26.3 L 73.4 25.3" stroke-width="1.80"/>
<path d="M 73.4 25.3 L 74.0 24.8" stroke-width="2.20"/>
<path d="M 74.0 24.8 L 74.3 24.7" stroke-width="2.40"/>
<path d="M 74.3 24.7 L 74.5 25.0 L 74.5 25.7 L 74.6 26.9" stroke-width="3.00"/>
<path d="M 74.6 26.9 L 74.5 28.4" stroke-width="2.60"/>
<path d="M 74.5 28.4 L 74.5 30.2" stroke-width="2.20"/>
<path d="M 74.5 30.2 L 74.4 32.0 L 74.4 33.6 L 74.4 35.0 L 74.5 36.0" stroke-width="2.00"/>
<path d="M 74.5 36.0 L 74.6 36.6" stroke-width="2.40"/>
<path d="M 74.6 36.6 L 74.7 36.6" stroke-width="2.80"/>
<path d="M 74.7 36.6 L 74.8 36.1" stroke-width="3.20"/>
<path d="M 74.8 36.1 L 74.9 35.5" stroke-width="3.00"/>
<path d="M 74.9 35.5 L 75.0 34.9" stroke-width="2.60"/>
<circle cx="74.1" cy="9.9" r="0.77" fill="currentColor" stroke="none"/>
<path d="M 74.1 9.9 L 74.1 9.9" stroke-width="2.00"/>
<path d="M 74.1 9.9 L 74.2 10.1" stroke-width="2.80"/>
<path d="M 74.2 10.1 L 74.3 10.3" stroke-width="3.00"/>
<path d="M 74.3 10.3 L 74.4 10.5" stroke-width="2.60"/>
<circle cx="81.6" cy="23.7" r="0.77" fill="currentColor" stroke="none"/>
<path d="M 81.6 23.7 L 81.7 23.7" stroke-width="2.00"/>
<path d="M 81.7 23.7 L 81.8 23.8" stroke-width="2.80"/>
<path d="M 81.8 23.8 L 81.9 24.3 L 81.9 25.0" stroke-width="3.20"/>
<path d="M 81.9 25.0 L 81.9 26.2" stroke-width="3.00"/>
<path d="M 81.9 26.2 L 81.7 27.7" stroke-width="2.60"/>
<path d="M 81.7 27.7 L 81.5 29.4" stroke-width="2.40"/>
<path d="M 81.5 29.4 L 81.3 31.1" stroke-width="2.20"/>
<path d="M 81.3 31.1 L 81.1 32.5" stroke-width="2.00"/>
<path d="M 81.1 32.5 L 81.0 33.7 L 81.0 34.4" stroke-width="2.20"/>
<path d="M 81.0 34.4 L 81.1 34.7" stroke-width="2.60"/>
<path d="M 81.1 34.7 L 81.2 34.6" stroke-width="3.00"/>
<path d="M 81.2 34.6 L 81.4 33.9" stroke-width="3.20"/>
<path d="M 81.4 33.9 L 81.6 32.8" stroke-width="3.00"/>
<path d="M 81.6 32.8 L 82.0 31.2" stroke-width="2.60"/>
<path d="M 82.0 31.2 L 82.5 29.5" stroke-width="2.40"/>
<path d="M 82.5 29.5 L 83.2 27.6" stroke-width="2.00"/>
<path d="M 83.2 27.6 L 84.0 25.8 L 85.0 24.2 L 86.2 22.7 L 87.3 21.7 L 88.5 21.0" stroke-width="1.80"/>
<path d="M 88.5 21.0 L 89.7 20.7 L 90.9 20.9" stroke-width="2.00"/>
<path d="M 90.9 20.9 L 92.0 21.5 L 93.0 22.5 L 93.9 23.8" stroke-width="2.20"/>
<path d="M 93.9 23.8 L 94.6 25.4 L 95.1 27.1" stroke-width="2.00"/>
<path d="M 95.1 27.1 L 95.5 28.9 L 95.8 30.6 L 96.1 32.2" stroke-width="1.80"/>
<path d="M 96.1 32.2 L 96.2 33.4 L 96.4 34.4" stroke-width="2.00"/>
<path d="M 96.4 34.4 L 96.6 35.0" stroke-width="2.40"/>
<path d="M 96.6 35.0 L 96.7 35.3" stroke-width="2.60"/>
<path d="M 96.7 35.3 L 96.9 35.3 L 97.1 35.2" stroke-width="3.00"/>
<path d="M 97.1 35.2 L 97.2 35.0" stroke-width="2.60"/>
<circle cx="102.5" cy="29.5" r="0.77" fill="currentColor" stroke="none"/>
<path d="M 102.5 29.5 L 102.9 29.4" stroke-width="2.00"/>
<path d="M 102.9 29.4 L 103.6 29.1" stroke-width="2.60"/>
<path d="M 103.6 29.1 L 104.6 28.7" stroke-width="2.80"/>
<path d="M 104.6 28.7 L 105.8 28.2" stroke-width="2.60"/>
<path d="M 105.8 28.2 L 107.1 27.4" stroke-width="2.40"/>
<path d="M 107.1 27.4 L 108.3 26.5 L 109.4 25.5 L 110.3 24.5 L 111.0 23.6 L 111.3 22.7" stroke-width="2.20"/>
<path d="M 111.3 22.7 L 111.2 22.0" stroke-width="2.40"/>
<path d="M 111.2 22.0 L 110.8 21.4" stroke-width="2.60"/>
<path d="M 110.8 21.4 L 110.1 21.0 L 109.1 20.8" stroke-width="2.80"/>
<path d="M 109.1 20.8 L 107.9 20.9 L 106.7 21.4" stroke-width="2.60"/>
<path d="M 106.7 21.4 L 105.4 22.1" stroke-width="2.40"/>
<path d="M 105.4 22.1 L 104.1 23.2" stroke-width="2.20"/>
<path d="M 104.1 23.2 L 103.0 24.5 L 102.1 26.0" stroke-width="2.00"/>
<path d="M 102.1 26.0 L 101.6 27.6 L 101.4 29.3 L 101.7 31.0 L 102.4 32.5 L 103.6 33.8 L 105.2 34.9 L 107.2 35.6" stroke-width="1.80"/>
<path d="M 107.2 35.6 L 109.4 35.9 L 111.7 35.8 L 114.0 35.5 L 116.1 35.0 L 117.8 34.5 L 119.1 34.1" stroke-width="1.60"/>
<path d="M 119.1 34.1 L 120.1 33.8" stroke-width="1.80"/>
<path d="M 120.1 33.8 L 120.6 33.6 L 120.9 33.4" stroke-width="2.00"/>
<circle cx="143.9" cy="24.5" r="0.77" fill="currentColor" stroke="none"/>
<path d="M 143.9 24.5 L 143.5 24.3" stroke-width="2.00"/>
<path d="M 143.5 24.3 L 143.0 24.0" stroke-width="2.60"/>
<path d="M 143.0 24.0 L 142.2 23.7 L 141.2 23.7 L 140.2 24.0" stroke-width="2.80"/>
<path d="M 140.2 24.0 L 139.1 24.6" stroke-width="2.60"/>
<path d="M 139.1 24.6 L 137.9 25.5" stroke-width="2.40"/>
<path d="M 137.9 25.5 L 136.8 26.8" stroke-width="2.20"/>
<path d="M 136.8 26.8 L 135.9 28.2 L 135.3 29.9" stroke-width="2.00"/>
<path d="M 135.3 29.9 L 135.0 31.6 L 135.2 33.3 L 135.8 34.8 L 136.7 36.0" stroke-width="1.80"/>
<path d="M 136.7 36.0 L 138.1 36.7 L 139.7 37.1" stroke-width="2.00"/>
<path d="M 139.7 37.1 L 141.5 37.0 L 143.2 36.5 L 144.9 35.5 L 146.4 34.3 L 147.6 32.8 L 148.5 31.2 L 149.0 29.5 L 149.1 27.9 L 148.8 26.4 L 148.2 25.1" stroke-width="1.80"/>
<path d="M 148.2 25.1 L 147.3 24.1 L 146.2 23.5" stroke-width="2.00"/>
<path d="M 146.2 23.5 L 145.1 23.1 L 144.1 23.1" stroke-width="2.20"/>
<path d="M 144.1 23.1 L 143.2 23.2" stroke-width="2.40"/>
<path d="M 143.2 23.2 L 142.7 23.4" stroke-width="2.60"/>
<path d="M 142.7 23.4 L 142.5 23.5" stroke-width="3.00"/>
<path d="M 142.5 23.5 L 142.9 23.4" stroke-width="3.20"/>
<path d="M 142.9 23.4 L 143.5 23.2" stroke-width="3.00"/>
<path d="M 143.5 23.2 L 143.9 23.1" stroke-width="2.60"/>
<circle cx="165.4" cy="9.1" r="0.77" fill="currentColor" stroke="none"/>
<path d="M 165.4 9.1 L 165.1 8.5" stroke-width="1.80"/>
<path d="M 165.1 8.5 L 164.4 7.6 L 163.6 6.7 L 162.6 6.1 L 161.6 6.0 L 160.5 6.3 L 159.4 7.0" stroke-width="2.40"/>
<path d="M 159.4 7.0 L 158.4 8.1 L 157.5 9.7" stroke-width="2.20"/>
<path d="M 157.5 9.7 L 156.7 11.6" stroke-width="2.00"/>
<path d="M 156.7 11.6 L 156.1 13.9" stroke-width="1.80"/>
<path d="M 156.1 13.9 L 155.8 16.5" stroke-width="1.60"/>
<path d="M 155.8 16.5 L 155.8 19.2 L 156.1 22.1 L 156.5 24.9" stroke-width="1.40"/>
<path d="M 156.5 24.9 L 157.0 27.6 L 157.5 30.2" stroke-width="1.20"/>
<path d="M 157.5 30.2 L 158.0 32.5 L 158.2 34.5 L 158.4 36.2" stroke-width="1.40"/>
<path d="M 158.4 36.2 L 158.4 37.6" stroke-width="1.60"/>
<path d="M 158.4 37.6 L 158.4 38.7" stroke-width="1.80"/>
<path d="M 158.4 38.7 L 158.3 39.3 L 158.3 39.5" stroke-width="2.00"/>
<circle cx="150.7" cy="24.5" r="0.77" fill="currentColor" stroke="none"/>
<path d="M 150.7 24.5 L 151.1 24.6" stroke-width="2.00"/>
<path d="M 151.1 24.6 L 151.9 24.6 L 153.1 24.6" stroke-width="2.60"/>
<path d="M 153.1 24.6 L 154.7 24.6" stroke-width="2.40"/>
<path d="M 154.7 24.6 L 156.6 24.5" stroke-width="2.20"/>
<path d="M 156.6 24.5 L 158.6 24.5" stroke-width="2.00"/>
<path d="M 158.6 24.5 L 160.7 24.6 L 162.8 24.8" stroke-width="1.80"/>
<path d="M 162.8 24.8 L 164.8 25.0 L 166.6 25.2 L 168.0 25.4 L 168.9 25.4" stroke-width="1.60"/>
<circle cx="183.1" cy="25.5" r="0.77" fill="currentColor" stroke="none"/>
<path d="M 183.1 25.5 L 183.0 25.7" stroke-width="2.00"/>
<path d="M 183.0 25.7 L 183.0 26.3" stroke-width="2.60"/>
<path d="M 183.0 26.3 L 183.0 27.1" stroke-width="3.00"/>
<path d="M 183.0 27.1 L 183.0 28.1" stroke-width="2.80"/>
<path d="M 183.0 28.1 L 183.1 29.4" stroke-width="2.60"/>
<path d="M 183.1 29.4 L 183.1 30.9" stroke-width="2.40"/>
<path d="M 183.1 30.9 L 183.1 32.4 L 183.1 34.0 L 183.1 35.3 L 183.2 36.4 L 183.3 37.1 L 183.3 37.4" stroke-width="2.20"/>
<circle cx="183.6" cy="13.6" r="0.77" fill="currentColor" stroke="none"/>
<path d="M 183.6 13.6 L 183.7 13.6" stroke-width="2.00"/>
<path d="M 183.7 13.6 L 183.7 13.6" stroke-width="2.80"/>
<path d="M 183.7 13.6 L 183.7 13.6" stroke-width="3.00"/>
<path d="M 183.7 13.6 L 183.7 13.5" stroke-width="2.60"/>
<circle cx="188.5" cy="23.8" r="0.77" fill="currentColor" stroke="none"/>
<path d="M 188.5 23.8 L 188.6 24.3" stroke-width="2.00"/>
<path d="M 188.6 24.3 L 188.8 25.1" stroke-width="2.40"/>
<path d="M 188.8 25.1 L 189.0 26.4" stroke-width="2.60"/>
<path d="M 189.0 26.4 L 189.3 27.8" stroke-width="2.40"/>
<path d="M 189.3 27.8 L 189.4 29.4" stroke-width="2.20"/>
<path d="M 189.4 29.4 L 189.6 31.1 L 189.6 32.7 L 189.7 34.1 L 189.7 35.2" stroke-width="2.00"/>
<path d="M 189.7 35.2 L 189.7 35.8" stroke-width="2.20"/>
<path d="M 189.7 35.8 L 189.7 36.1" stroke-width="2.80"/>
<path d="M 189.7 36.1 L 189.7 35.8" stroke-width="3.00"/>
<path d="M 189.7 35.8 L 189.8 35.1" stroke-width="3.20"/>
<path d="M 189.8 35.1 L 190.0 34.0" stroke-width="3.00"/>
<path d="M 190.0 34.0 L 190.4 32.5" stroke-width="2.60"/>
<path d="M 190.4 32.5 L 191.0 30.7" stroke-width="2.20"/>
<path d="M 191.0 30.7 L 191.9 28.9" stroke-width="2.00"/>
<path d="M 191.9 28.9 L 192.9 27.1 L 194.1 25.6 L 195.4 24.3 L 196.7 23.3 L 198.1 22.7" stroke-width="1.80"/>
<path d="M 198.1 22.7 L 199.4 22.5 L 200.6 22.9 L 201.6 23.6" stroke-width="2.00"/>
<path d="M 201.6 23.6 L 202.4 24.8" stroke-width="2.20"/>
<path d="M 202.4 24.8 L 203.1 26.2 L 203.6 27.8 L 204.0 29.5" stroke-width="2.00"/>
<path d="M 204.0 29.5 L 204.4 31.2 L 204.7 32.8" stroke-width="1.80"/>
<path d="M 204.7 32.8 L 204.9 34.2 L 205.1 35.3" stroke-width="2.00"/>
<path d="M 205.1 35.3 L 205.3 36.0" stroke-width="2.20"/>
<path d="M 205.3 36.0 L 205.4 36.4 L 205.5 36.5" stroke-width="2.40"/>
<circle cx="211.2" cy="11.4" r="0.77" fill="currentColor" stroke="none"/>
<path d="M 211.2 11.4 L 211.3 11.6" stroke-width="2.00"/>
<path d="M 211.3 11.6 L 211.4 12.0" stroke-width="2.80"/>
<path d="M 211.4 12.0 L 211.6 12.8 L 211.7 13.9" stroke-width="3.00"/>
<path d="M 211.7 13.9 L 211.8 15.4" stroke-width="2.60"/>
<path d="M 211.8 15.4 L 211.9 17.1" stroke-width="2.40"/>
<path d="M 211.9 17.1 L 212.0 19.1" stroke-width="2.00"/>
<path d="M 212.0 19.1 L 212.1 21.3 L 212.3 23.6" stroke-width="1.80"/>
<path d="M 212.3 23.6 L 212.5 25.9 L 212.7 28.2 L 213.0 30.3 L 213.3 32.2 L 213.5 33.7" stroke-width="1.60"/>
<path d="M 213.5 33.7 L 213.7 34.9" stroke-width="1.80"/>
<path d="M 213.7 34.9 L 213.9 35.6" stroke-width="2.00"/>
<path d="M 213.9 35.6 L 214.1 35.9" stroke-width="2.40"/>
<path d="M 214.1 35.9 L 214.4 35.7" stroke-width="2.80"/>
<path d="M 214.4 35.7 L 214.7 35.4" stroke-width="3.00"/>
<path d="M 214.7 35.4 L 214.9 35.2" stroke-width="2.60"/>
<circle cx="221.7" cy="24.3" r="0.77" fill="currentColor" stroke="none"/>
<path d="M 221.7 24.3 L 221.7 24.2" stroke-width="2.00"/>
<path d="M 221.7 24.2 L 221.6 24.2" stroke-width="2.80"/>
<path d="M 221.6 24.2 L 221.2 24.3 L 220.7 24.5 L 219.9 24.9" stroke-width="3.20"/>
<path d="M 219.9 24.9 L 218.9 25.4" stroke-width="3.00"/>
<path d="M 218.9 25.4 L 217.8 26.2" stroke-width="2.80"/>
<path d="M 217.8 26.2 L 216.7 27.0 L 215.6 27.9" stroke-width="2.40"/>
<path d="M 215.6 27.9 L 214.7 28.8" stroke-width="2.20"/>
<path d="M 214.7 28.8 L 214.2 29.6 L 214.0 30.5" stroke-width="2.40"/>
<path d="M 214.0 30.5 L 214.3 31.2 L 215.0 32.0 L 216.1 32.6" stroke-width="2.60"/>
<path d="M 216.1 32.6 L 217.6 33.1" stroke-width="2.40"/>
<path d="M 217.6 33.1 L 219.4 33.5" stroke-width="2.20"/>
<path d="M 219.4 33.5 L 221.4 33.9" stroke-width="2.00"/>
<path d="M 221.4 33.9 L 223.3 34.1 L 225.2 34.2 L 226.7 34.4 L 228.0 34.4" stroke-width="1.80"/>
<path d="M 228.0 34.4 L 228.8 34.4" stroke-width="2.00"/>
<path d="M 228.8 34.4 L 229.4 34.4" stroke-width="2.40"/>
<path d="M 229.4 34.4 L 229.6 34.2" stroke-width="2.80"/>
<path d="M 229.6 34.2 L 229.7 34.1" stroke-width="3.00"/>
<path d="M 229.7 34.1 L 229.8 34.0" stroke-width="2.60"/>
<circle cx="235.2" cy="34.1" r="0.77" fill="currentColor" stroke="none"/>
<path d="M 235.2 34.1 L 235.1 34.7" stroke-width="1.80"/>
<path d="M 235.1 34.7 L 234.7 35.8 L 234.1 37.2" stroke-width="2.40"/>
<path d="M 234.1 37.2 L 233.4 38.8" stroke-width="2.20"/>
<path d="M 233.4 38.8 L 232.6 40.4 L 231.7 41.9" stroke-width="2.00"/>
<path d="M 231.7 41.9 L 230.9 43.4" stroke-width="1.80"/>
<path d="M 230.9 43.4 L 230.2 44.6 L 229.7 45.4" stroke-width="2.00"/>
<path d="M 229.7 45.4 L 229.5 45.8" stroke-width="2.40"/>
<path d="M 229.5 45.8 L 229.5 45.9 L 229.6 45.8" stroke-width="2.60"/>
<circle cx="251.2" cy="11.6" r="0.77" fill="currentColor" stroke="none"/>
<path d="M 251.2 11.6 L 251.2 11.7" stroke-width="2.00"/>
<path d="M 251.2 11.7 L 251.2 12.0" stroke-width="2.80"/>
<path d="M 251.2 12.0 L 251.3 12.7" stroke-width="3.20"/>
<path d="M 251.3 12.7 L 251.4 13.8" stroke-width="3.00"/>
<path d="M 251.4 13.8 L 251.6 15.2" stroke-width="2.80"/>
<path d="M 251.6 15.2 L 251.7 17.0" stroke-width="2.40"/>
<path d="M 251.7 17.0 L 251.7 19.0" stroke-width="2.00"/>
<path d="M 251.7 19.0 L 251.7 21.2 L 251.7 23.4" stroke-width="1.80"/>
<path d="M 251.7 23.4 L 251.6 25.6 L 251.6 27.6 L 251.6 29.5 L 251.6 31.0" stroke-width="1.60"/>
<path d="M 251.6 31.0 L 251.5 32.2" stroke-width="1.80"/>
<path d="M 251.5 32.2 L 251.5 32.9" stroke-width="2.00"/>
<path d="M 251.5 32.9 L 251.4 33.2" stroke-width="2.40"/>
<path d="M 251.4 33.2 L 251.4 33.1" stroke-width="3.00"/>
<path d="M 251.4 33.1 L 251.4 32.6" stroke-width="3.20"/>
<path d="M 251.4 32.6 L 251.3 32.0" stroke-width="3.00"/>
<path d="M 251.3 32.0 L 251.3 31.6" stroke-width="2.60"/>
<circle cx="244.8" cy="21.9" r="0.77" fill="currentColor" stroke="none"/>
<path d="M 244.8 21.9 L 244.9 21.9" stroke-width="2.00"/>
<path d="M 244.9 21.9 L 245.2 22.0" stroke-width="2.80"/>
<path d="M 245.2 22.0 L 245.8 22.2" stroke-width="3.20"/>
<path d="M 245.8 22.2 L 246.9 22.4" stroke-width="3.00"/>
<path d="M 246.9 22.4 L 248.4 22.6" stroke-width="2.80"/>
<path d="M 248.4 22.6 L 250.2 22.7" stroke-width="2.40"/>
<path d="M 250.2 22.7 L 252.1 22.7 L 254.0 22.5" stroke-width="2.00"/>
<path d="M 254.0 22.5 L 255.8 22.2 L 257.6 21.8 L 259.1 21.3 L 260.5 20.8" stroke-width="1.80"/>
<path d="M 260.5 20.8 L 261.5 20.1 L 262.3 19.4" stroke-width="2.00"/>
<path d="M 262.3 19.4 L 262.9 18.9" stroke-width="2.20"/>
<path d="M 262.9 18.9 L 263.2 18.6" stroke-width="2.00"/>
<circle cx="266.3" cy="9.6" r="0.77" fill="currentColor" stroke="none"/>
<path d="M 266.3 9.6 L 266.2 9.9" stroke-width="2.00"/>
<path d="M 266.2 9.9 L 266.1 10.5" stroke-width="2.60"/>
<path d="M 266.1 10.5 L 266.1 11.4 L 266.0 12.6" stroke-width="2.80"/>
<path d="M 266.0 12.6 L 266.0 14.0" stroke-width="2.60"/>
<path d="M 266.0 14.0 L 266.0 15.7" stroke-width="2.20"/>
<path d="M 266.0 15.7 L 265.9 17.6" stroke-width="2.00"/>
<path d="M 265.9 17.6 L 265.7 19.8 L 265.5 22.0" stroke-width="1.80"/>
<path d="M 265.5 22.0 L 265.4 24.3 L 265.2 26.4 L 265.2 28.3 L 265.1 29.8" stroke-width="1.60"/>
<path d="M 265.1 29.8 L 265.1 30.8" stroke-width="1.80"/>
<path d="M 265.1 30.8 L 265.2 31.5" stroke-width="2.20"/>
<path d="M 265.2 31.5 L 265.2 31.6" stroke-width="2.60"/>
<path d="M 265.2 31.6 L 265.3 31.4" stroke-width="3.00"/>
<path d="M 265.3 31.4 L 265.4 30.8 L 265.6 29.8" stroke-width="3.20"/>
<path d="M 265.6 29.8 L 266.0 28.5" stroke-width="2.80"/>
<path d="M 266.0 28.5 L 266.5 27.0" stroke-width="2.40"/>
<path d="M 266.5 27.0 L 267.2 25.4" stroke-width="2.20"/>
<path d="M 267.2 25.4 L 268.1 23.9 L 269.1 22.6 L 270.2 21.6 L 271.5 20.9 L 272.8 20.6 L 274.1 20.6" stroke-width="2.00"/>
<path d="M 274.1 20.6 L 275.4 21.1 L 276.4 22.0 L 277.3 23.2" stroke-width="2.20"/>
<path d="M 277.3 23.2 L 278.0 24.6 L 278.5 26.1 L 278.9 27.7 L 279.1 29.2 L 279.2 30.5" stroke-width="2.00"/>
<path d="M 279.2 30.5 L 279.4 31.5" stroke-width="2.20"/>
<path d="M 279.4 31.5 L 279.5 32.2" stroke-width="2.40"/>
<path d="M 279.5 32.2 L 279.6 32.6" stroke-width="2.60"/>
<path d="M 279.6 32.6 L 279.7 32.8" stroke-width="3.00"/>
<path d="M 279.7 32.8 L 279.8 32.6 L 280.0 32.3" stroke-width="3.20"/>
<path d="M 280.0 32.3 L 280.1 31.9" stroke-width="3.00"/>
<path d="M 280.1 31.9 L 280.2 31.6" stroke-width="2.60"/>
<circle cx="285.2" cy="22.3" r="0.77" fill="currentColor" stroke="none"/>
<path d="M 285.2 22.3 L 285.3 22.5" stroke-width="2.00"/>
<path d="M 285.3 22.5 L 285.3 22.9" stroke-width="2.80"/>
<path d="M 285.3 22.9 L 285.4 23.6 L 285.5 24.6" stroke-width="3.00"/>
<path d="M 285.5 24.6 L 285.7 25.7" stroke-width="2.80"/>
<path d="M 285.7 25.7 L 285.8 27.0" stroke-width="2.60"/>
<path d="M 285.8 27.0 L 285.8 28.4 L 285.9 29.8" stroke-width="2.40"/>
<path d="M 285.9 29.8 L 286.0 30.9" stroke-width="2.20"/>
<path d="M 286.0 30.9 L 286.1 31.8" stroke-width="2.40"/>
<path d="M 286.1 31.8 L 286.2 32.4" stroke-width="2.60"/>
<path d="M 286.2 32.4 L 286.3 32.6" stroke-width="3.00"/>
<path d="M 286.3 32.6 L 286.4 32.5 L 286.5 32.1" stroke-width="3.20"/>
<path d="M 286.5 32.1 L 286.5 31.5" stroke-width="3.00"/>
<path d="M 286.5 31.5 L 286.6 31.1" stroke-width="2.60"/>
<circle cx="286.1" cy="12.1" r="0.77" fill="currentColor" stroke="none"/>
<path d="M 286.1 12.1 L 286.1 12.1" stroke-width="2.00"/>
<path d="M 286.1 12.1 L 286.1 12.0" stroke-width="2.80"/>
<path d="M 286.1 12.0 L 286.2 12.0 L 286.3 12.1 L 286.5 12.1 L 286.7 12.2" stroke-width="3.20"/>
<path d="M 286.7 12.2 L 286.9 12.2" stroke-width="3.00"/>
<path d="M 286.9 12.2 L 287.0 12.3" stroke-width="2.60"/>
<circle cx="291.5" cy="21.5" r="0.77" fill="currentColor" stroke="none"/>
<path d="M 291.5 21.5 L 291.5 22.1" stroke-width="1.80"/>
<path d="M 291.5 22.1 L 291.5 23.2 L 291.6 24.7" stroke-width="2.40"/>
<path d="M 291.6 24.7 L 291.7 26.3 L 291.9 27.8" stroke-width="2.20"/>
<path d="M 291.9 27.8 L 292.0 29.3 L 292.0 30.6" stroke-width="2.00"/>
<path d="M 292.0 30.6 L 292.0 31.7" stroke-width="2.20"/>
<path d="M 292.0 31.7 L 291.9 32.4" stroke-width="2.40"/>
<path d="M 291.9 32.4 L 291.9 32.7" stroke-width="2.80"/>
<path d="M 291.9 32.7 L 291.9 32.8" stroke-width="3.00"/>
<path d="M 291.9 32.8 L 291.9 32.5 L 291.9 31.8 L 291.9 30.8" stroke-width="3.20"/>
<path d="M 291.9 30.8 L 291.9 29.5" stroke-width="3.00"/>
<path d="M 291.9 29.5 L 292.0 28.0" stroke-width="2.60"/>
<path d="M 292.0 28.0 L 292.2 26.4" stroke-width="2.40"/>
<path d="M 292.2 26.4 L 292.6 24.8" stroke-width="2.20"/>
<path d="M 292.6 24.8 L 293.1 23.3 L 293.8 22.0 L 294.6 21.0 L 295.6 20.2" stroke-width="2.00"/>
<path d="M 295.6 20.2 L 296.7 19.8 L 297.9 19.7 L 299.2 20.0 L 300.4 20.6 L 301.5 21.6" stroke-width="2.20"/>
<path d="M 301.5 21.6 L 302.5 22.9 L 303.2 24.4 L 303.8 26.0 L 304.3 27.6" stroke-width="2.00"/>
<path d="M 304.3 27.6 L 304.5 29.2 L 304.7 30.8" stroke-width="1.80"/>
<path d="M 304.7 30.8 L 304.8 32.1 L 304.8 33.1" stroke-width="2.00"/>
<path d="M 304.8 33.1 L 304.9 33.9" stroke-width="2.20"/>
<path d="M 304.9 33.9 L 305.1 34.2" stroke-width="2.60"/>
<path d="M 305.1 34.2 L 305.3 34.2 L 305.4 33.9" stroke-width="3.00"/>
<path d="M 305.4 33.9 L 305.5 33.6" stroke-width="2.60"/>
<circle cx="309.5" cy="10.0" r="0.77" fill="currentColor" stroke="none"/>
<path d="M 309.5 10.0 L 309.6 10.1" stroke-width="2.00"/>
<path d="M 309.6 10.1 L 309.7 10.3" stroke-width="2.80"/>
<path d="M 309.7 10.3 L 309.9 10.9 L 310.0 11.9" stroke-width="3.20"/>
<path d="M 310.0 11.9 L 310.2 13.3" stroke-width="2.80"/>
<path d="M 310.2 13.3 L 310.3 15.0" stroke-width="2.40"/>
<path d="M 310.3 15.0 L 310.4 17.1" stroke-width="2.20"/>
<path d="M 310.4 17.1 L 310.5 19.3" stroke-width="1.80"/>
<path d="M 310.5 19.3 L 310.5 21.8 L 310.5 24.2 L 310.6 26.6" stroke-width="1.60"/>
<path d="M 310.6 26.6 L 310.7 28.7" stroke-width="1.40"/>
<path d="M 310.7 28.7 L 310.9 30.6 L 311.1 32.0" stroke-width="1.60"/>
<path d="M 311.1 32.0 L 311.3 32.9 L 311.4 33.3" stroke-width="1.80"/>
<circle cx="315.7" cy="22.3" r="0.77" fill="currentColor" stroke="none"/>
<path d="M 315.7 22.3 L 315.6 22.2" stroke-width="2.00"/>
<path d="M 315.6 22.2 L 315.4 22.2" stroke-width="2.80"/>
<path d="M 315.4 22.2 L 315.1 22.3 L 314.6 22.7 L 314.0 23.3" stroke-width="3.20"/>
<path d="M 314.0 23.3 L 313.4 24.2" stroke-width="3.00"/>
<path d="M 313.4 24.2 L 312.8 25.4" stroke-width="2.80"/>
<path d="M 312.8 25.4 L 312.3 26.6" stroke-width="2.60"/>
<path d="M 312.3 26.6 L 311.9 27.8 L 311.8 28.9 L 312.1 29.9 L 312.7 30.8 L 313.6 31.4 L 314.9 31.7" stroke-width="2.40"/>
<path d="M 314.9 31.7 L 316.5 31.7 L 318.1 31.4" stroke-width="2.20"/>
<path d="M 318.1 31.4 L 319.7 30.8 L 321.3 29.9" stroke-width="2.00"/>
<path d="M 321.3 29.9 L 322.8 28.8 L 324.0 27.7 L 325.1 26.6" stroke-width="1.80"/>
<path d="M 325.1 26.6 L 325.8 25.5 L 326.4 24.6" stroke-width="2.00"/>
<path d="M 326.4 24.6 L 326.7 24.0" stroke-width="2.20"/>
<path d="M 326.7 24.0 L 326.9 23.6" stroke-width="2.60"/>
<path d="M 326.9 23.6 L 326.9 23.5" stroke-width="3.00"/>
<path d="M 326.9 23.5 L 326.9 23.7 L 326.8 24.2 L 326.8 25.1" stroke-width="3.20"/>
<path d="M 326.8 25.1 L 326.7 26.3" stroke-width="3.00"/>
<path d="M 326.7 26.3 L 326.6 27.6" stroke-width="2.80"/>
<path d="M 326.6 27.6 L 326.5 29.0" stroke-width="2.60"/>
<path d="M 326.5 29.0 L 326.5 30.3 L 326.6 31.3 L 326.8 32.1" stroke-width="2.40"/>
<path d="M 326.8 32.1 L 327.0 32.5" stroke-width="2.80"/>
<path d="M 327.0 32.5 L 327.2 32.2" stroke-width="3.00"/>
<path d="M 327.2 32.2 L 327.4 31.3" stroke-width="3.20"/>
<path d="M 327.4 31.3 L 327.5 30.2" stroke-width="2.80"/>
<path d="M 327.5 30.2 L 327.6 29.4" stroke-width="2.20"/>
<circle cx="327.0" cy="12.0" r="0.77" fill="currentColor" stroke="none"/>
<path d="M 327.0 12.0 L 327.0 12.0" stroke-width="2.00"/>
<path d="M 327.0 12.0 L 327.1 12.0" stroke-width="2.80"/>
<path d="M 327.1 12.0 L 327.2 12.0" stroke-width="3.00"/>
<path d="M 327.2 12.0 L 327.2 12.0" stroke-width="2.60"/>
<circle cx="333.3" cy="21.5" r="0.77" fill="currentColor" stroke="none"/>
<path d="M 333.3 21.5 L 333.3 21.9" stroke-width="2.00"/>
<path d="M 333.3 21.9 L 333.3 22.7 L 333.3 23.9" stroke-width="2.60"/>
<path d="M 333.3 23.9 L 333.2 25.4" stroke-width="2.40"/>
<path d="M 333.2 25.4 L 333.1 27.0 L 333.0 28.6" stroke-width="2.20"/>
<path d="M 333.0 28.6 L 332.8 30.2 L 332.7 31.5" stroke-width="2.00"/>
<path d="M 332.7 31.5 L 332.6 32.5" stroke-width="2.20"/>
<path d="M 332.6 32.5 L 332.6 33.2" stroke-width="2.40"/>
<path d="M 332.6 33.2 L 332.6 33.4" stroke-width="2.80"/>
<path d="M 332.6 33.4 L 332.7 33.2" stroke-width="3.00"/>
<path d="M 332.7 33.2 L 332.7 32.6 L 332.8 31.5" stroke-width="3.20"/>
<path d="M 332.8 31.5 L 333.0 30.1" stroke-width="2.80"/>
<path d="M 333.0 30.1 L 333.2 28.4" stroke-width="2.40"/>
<path d="M 333.2 28.4 L 333.6 26.6" stroke-width="2.20"/>
<path d="M 333.6 26.6 L 334.2 24.9" stroke-width="2.00"/>
<path d="M 334.2 24.9 L 334.9 23.3 L 335.8 21.8 L 336.8 20.7" stroke-width="1.80"/>
<path d="M 336.8 20.7 L 337.9 19.9 L 339.0 19.5" stroke-width="2.00"/>
<path d="M 339.0 19.5 L 340.1 19.5 L 341.1 20.0 L 342.0 20.8 L 342.7 22.0 L 343.3 23.5" stroke-width="2.20"/>
<path d="M 343.3 23.5 L 343.7 25.1 L 343.9 26.8 L 344.0 28.4 L 344.0 29.7 L 344.0 30.8" stroke-width="2.00"/>
<path d="M 344.0 30.8 L 344.1 31.6" stroke-width="2.20"/>
<path d="M 344.1 31.6 L 344.2 32.0 L 344.3 32.2" stroke-width="2.40"/>
<circle cx="355.5" cy="21.9" r="0.77" fill="currentColor" stroke="none"/>
<path d="M 355.5 21.9 L 355.3 21.6" stroke-width="2.00"/>
<path d="M 355.3 21.6 L 355.0 21.1" stroke-width="2.60"/>
<path d="M 355.0 21.1 L 354.3 20.7 L 353.5 20.4 L 352.3 20.5" stroke-width="2.80"/>
<path d="M 352.3 20.5 L 351.0 20.9" stroke-width="2.60"/>
<path d="M 351.0 20.9 L 349.7 21.7" stroke-width="2.40"/>
<path d="M 349.7 21.7 L 348.4 22.7" stroke-width="2.20"/>
<path d="M 348.4 22.7 L 347.4 23.8 L 346.7 25.1 L 346.6 26.4" stroke-width="2.00"/>
<path d="M 346.6 26.4 L 346.9 27.5 L 347.8 28.4 L 349.0 28.9 L 350.6 29.0" stroke-width="2.20"/>
<path d="M 350.6 29.0 L 352.4 28.6 L 354.1 28.0" stroke-width="2.00"/>
<path d="M 354.1 28.0 L 355.8 27.0 L 357.3 25.9 L 358.4 24.7 L 359.3 23.6" stroke-width="1.80"/>
<path d="M 359.3 23.6 L 359.9 22.7" stroke-width="2.00"/>
<path d="M 359.9 22.7 L 360.2 22.0" stroke-width="2.20"/>
<path d="M 360.2 22.0 L 360.3 21.5" stroke-width="2.60"/>
<path d="M 360.3 21.5 L 360.3 21.3" stroke-width="3.00"/>
<path d="M 360.3 21.3 L 360.2 21.4 L 360.0 21.9 L 359.8 22.7" stroke-width="3.20"/>
<path d="M 359.8 22.7 L 359.7 23.9" stroke-width="3.00"/>
<path d="M 359.7 23.9 L 359.6 25.4" stroke-width="2.80"/>
<path d="M 359.6 25.4 L 359.7 27.1" stroke-width="2.40"/>
<path d="M 359.7 27.1 L 359.9 29.0 L 360.4 31.0" stroke-width="2.00"/>
<path d="M 360.4 31.0 L 360.9 33.0 L 361.4 35.0" stroke-width="1.80"/>
<path d="M 361.4 35.0 L 361.8 36.8" stroke-width="1.60"/>
<path d="M 361.8 36.8 L 362.2 38.4 L 362.3 39.7" stroke-width="1.80"/>
<path d="M 362.3 39.7 L 362.2 40.7" stroke-width="2.00"/>
<path d="M 362.2 40.7 L 361.9 41.5" stroke-width="2.20"/>
<path d="M 361.9 41.5 L 361.2 41.9" stroke-width="2.40"/>
<path d="M 361.2 41.9 L 360.2 42.0" stroke-width="2.60"/>
<path d="M 360.2 42.0 L 358.9 41.9" stroke-width="2.40"/>
<path d="M 358.9 41.9 L 357.2 41.7" stroke-width="2.20"/>
<path d="M 357.2 41.7 L 355.4 41.2" stroke-width="2.00"/>
<path d="M 355.4 41.2 L 353.3 40.7 L 351.2 40.2" stroke-width="1.80"/>
<path d="M 351.2 40.2 L 349.0 39.7 L 347.0 39.3 L 345.2 38.9" stroke-width="1.60"/>
<path d="M 345.2 38.9 L 343.8 38.5 L 342.8 38.1" stroke-width="1.80"/>
<path d="M 342.8 38.1 L 342.2 37.8" stroke-width="2.20"/>
<path d="M 342.2 37.8 L 342.1 37.5" stroke-width="2.60"/>
<path d="M 342.1 37.5 L 342.1 37.3" stroke-width="2.80"/>
<path d="M 342.1 37.3 L 342.3 37.2" stroke-width="2.60"/>
<circle cx="383.1" cy="21.8" r="0.77" fill="currentColor" stroke="none"/>
<path d="M 383.1 21.8 L 382.8 21.5" stroke-width="2.00"/>
<path d="M 382.8 21.5 L 382.3 21.2" stroke-width="2.60"/>
<path d="M 382.3 21.2 L 381.6 20.9 L 380.7 20.7 L 379.7 20.8" stroke-width="2.80"/>
<path d="M 379.7 20.8 L 378.4 21.2" stroke-width="2.60"/>
<path d="M 378.4 21.2 L 377.2 21.9" stroke-width="2.40"/>
<path d="M 377.2 21.9 L 375.9 22.9" stroke-width="2.20"/>
<path d="M 375.9 22.9 L 374.8 24.2 L 374.0 25.7 L 373.6 27.2 L 373.6 28.7 L 374.1 30.0 L 375.0 31.1 L 376.2 31.8 L 377.7 32.1 L 379.4 32.0 L 381.0 31.4" stroke-width="2.00"/>
<path d="M 381.0 31.4 L 382.7 30.4 L 384.2 29.1 L 385.5 27.6" stroke-width="1.80"/>
<path d="M 385.5 27.6 L 386.5 26.0" stroke-width="1.60"/>
<path d="M 386.5 26.0 L 387.2 24.4 L 387.7 23.0 L 387.8 21.8" stroke-width="1.80"/>
<path d="M 387.8 21.8 L 387.8 20.9" stroke-width="2.00"/>
<path d="M 387.8 20.9 L 387.7 20.4" stroke-width="2.40"/>
<path d="M 387.7 20.4 L 387.5 20.2" stroke-width="2.80"/>
<path d="M 387.5 20.2 L 387.3 20.5 L 387.2 21.1 L 387.2 22.1" stroke-width="3.20"/>
<path d="M 387.2 22.1 L 387.2 23.5" stroke-width="2.80"/>
<path d="M 387.2 23.5 L 387.4 25.0" stroke-width="2.60"/>
<path d="M 387.4 25.0 L 387.7 26.6 L 388.1 28.1" stroke-width="2.20"/>
<path d="M 388.1 28.1 L 388.6 29.4" stroke-width="2.00"/>
<path d="M 388.6 29.4 L 389.2 30.5 L 389.9 31.2" stroke-width="2.20"/>
<path d="M 389.9 31.2 L 390.7 31.6" stroke-width="2.40"/>
<path d="M 390.7 31.6 L 391.5 31.5 L 392.4 31.1 L 393.3 30.3" stroke-width="2.60"/>
<path d="M 393.3 30.3 L 394.2 29.3" stroke-width="2.40"/>
<path d="M 394.2 29.3 L 395.2 28.1 L 396.1 26.8" stroke-width="2.20"/>
<path d="M 396.1 26.8 L 397.1 25.5 L 398.1 24.2 L 399.0 23.1 L 399.8 22.1" stroke-width="2.00"/>
<path d="M 399.8 22.1 L 400.6 21.3 L 401.3 20.7" stroke-width="2.20"/>
<path d="M 401.3 20.7 L 402.0 20.4" stroke-width="2.40"/>
<path d="M 402.0 20.4 L 402.6 20.2" stroke-width="2.60"/>
<path d="M 402.6 20.2 L 403.2 20.3" stroke-width="2.80"/>
<path d="M 403.2 20.3 L 403.9 20.5 L 404.7 21.1" stroke-width="3.00"/>
<path d="M 404.7 21.1 L 405.6 21.8" stroke-width="2.80"/>
<path d="M 405.6 21.8 L 406.5 22.7" stroke-width="2.60"/>
<path d="M 406.5 22.7 L 407.6 23.7" stroke-width="2.40"/>
<path d="M 407.6 23.7 L 408.6 24.9 L 409.6 26.0 L 410.6 27.0 L 411.4 28.0 L 411.9 28.9" stroke-width="2.20"/>
<path d="M 411.9 28.9 L 412.1 29.7" stroke-width="2.40"/>
<path d="M 412.1 29.7 L 411.9 30.4" stroke-width="2.60"/>
<path d="M 411.9 30.4 L 411.3 30.9" stroke-width="2.80"/>
<path d="M 411.3 30.9 L 410.3 31.4 L 408.9 31.6" stroke-width="2.60"/>
<path d="M 408.9 31.6 L 407.3 31.8" stroke-width="2.40"/>
<path d="M 407.3 31.8 L 405.5 31.9" stroke-width="2.20"/>
<path d="M 405.5 31.9 L 403.7 31.9 L 402.1 31.8 L 400.8 31.7 L 400.1 31.6 L 399.8 31.5" stroke-width="2.00"/>
<circle cx="427.3" cy="23.9" r="0.77" fill="currentColor" stroke="none"/>
<path d="M 427.3 23.9 L 427.3 23.9" stroke-width="2.00"/>
<path d="M 427.3 23.9 L 427.3 24.0" stroke-width="2.80"/>
<path d="M 427.3 24.0 L 427.3 24.4 L 427.3 25.2" stroke-width="3.20"/>
<path d="M 427.3 25.2 L 427.4 26.3" stroke-width="3.00"/>
<path d="M 427.4 26.3 L 427.4 27.7" stroke-width="2.80"/>
<path d="M 427.4 27.7 L 427.4 29.2" stroke-width="2.40"/>
<path d="M 427.4 29.2 L 427.4 30.8 L 427.4 32.3 L 427.5 33.5 L 427.6 34.4" stroke-width="2.20"/>
<path d="M 427.6 34.4 L 427.7 34.9" stroke-width="2.00"/>
<circle cx="428.3" cy="13.6" r="0.77" fill="currentColor" stroke="none"/>
<path d="M 428.3 13.6 L 428.3 13.6" stroke-width="2.00"/>
<path d="M 428.3 13.6 L 428.3 13.6" stroke-width="2.80"/>
<path d="M 428.3 13.6 L 428.4 13.7" stroke-width="3.00"/>
<path d="M 428.4 13.7 L 428.5 13.8" stroke-width="2.60"/>
<circle cx="439.8" cy="13.4" r="0.77" fill="currentColor" stroke="none"/>
<path d="M 439.8 13.4 L 439.8 13.8" stroke-width="2.00"/>
<path d="M 439.8 13.8 L 439.7 14.5" stroke-width="2.60"/>
<path d="M 439.7 14.5 L 439.5 15.7" stroke-width="2.80"/>
<path d="M 439.5 15.7 L 439.4 17.1" stroke-width="2.60"/>
<path d="M 439.4 17.1 L 439.1 18.7" stroke-width="2.20"/>
<path d="M 439.1 18.7 L 438.8 20.6" stroke-width="2.00"/>
<path d="M 438.8 20.6 L 438.6 22.7 L 438.3 24.9" stroke-width="1.80"/>
<path d="M 438.3 24.9 L 438.1 27.0 L 438.0 29.1 L 438.0 30.9 L 438.1 32.5" stroke-width="1.60"/>
<path d="M 438.1 32.5 L 438.4 33.7" stroke-width="1.80"/>
<path d="M 438.4 33.7 L 438.7 34.6" stroke-width="2.00"/>
<path d="M 438.7 34.6 L 439.0 35.1" stroke-width="2.20"/>
<path d="M 439.0 35.1 L 439.1 35.3" stroke-width="2.80"/>
<path d="M 439.1 35.3 L 439.1 35.1" stroke-width="3.00"/>
<path d="M 439.1 35.1 L 439.0 34.6" stroke-width="3.20"/>
<path d="M 439.0 34.6 L 438.8 34.0" stroke-width="3.00"/>
<path d="M 438.8 34.0 L 438.7 33.5" stroke-width="2.60"/>
<circle cx="433.5" cy="24.8" r="0.77" fill="currentColor" stroke="none"/>
<path d="M 433.5 24.8 L 433.9 24.9" stroke-width="2.00"/>
<path d="M 433.9 24.9 L 434.7 24.9 L 435.9 25.0" stroke-width="2.60"/>
<path d="M 435.9 25.0 L 437.5 25.0" stroke-width="2.40"/>
<path d="M 437.5 25.0 L 439.5 25.0" stroke-width="2.20"/>
<path d="M 439.5 25.0 L 441.6 25.0" stroke-width="2.00"/>
<path d="M 441.6 25.0 L 443.8 24.9" stroke-width="1.80"/>
<path d="M 443.8 24.9 L 445.9 24.9 L 447.9 24.8 L 449.5 24.8" stroke-width="1.60"/>
<path d="M 449.5 24.8 L 450.6 24.8" stroke-width="1.80"/>
<path d="M 450.6 24.8 L 451.1 24.8" stroke-width="1.60"/>
<circle cx="473.6" cy="25.1" r="0.77" fill="currentColor" stroke="none"/>
<path d="M 473.6 25.1 L 473.4 24.9" stroke-width="2.00"/>
<path d="M 473.4 24.9 L 473.0 24.6" stroke-width="2.60"/>
<path d="M 473.0 24.6 L 472.2 24.5 L 471.3 24.7" stroke-width="3.00"/>
<path d="M 471.3 24.7 L 470.0 25.2" stroke-width="2.80"/>
<path d="M 470.0 25.2 L 468.6 26.1" stroke-width="2.40"/>
<path d="M 468.6 26.1 L 467.3 27.2" stroke-width="2.20"/>
<path d="M 467.3 27.2 L 466.1 28.6 L 465.3 29.9 L 465.1 31.2" stroke-width="2.00"/>
<path d="M 465.1 31.2 L 465.4 32.2 L 466.2 32.9" stroke-width="2.20"/>
<path d="M 466.2 32.9 L 467.3 33.2" stroke-width="2.40"/>
<path d="M 467.3 33.2 L 468.7 33.0 L 470.3 32.4" stroke-width="2.20"/>
<path d="M 470.3 32.4 L 472.0 31.5" stroke-width="2.00"/>
<path d="M 472.0 31.5 L 473.7 30.3 L 475.1 28.9 L 476.2 27.5 L 476.9 26.2" stroke-width="1.80"/>
<path d="M 476.9 26.2 L 477.3 25.2" stroke-width="2.00"/>
<path d="M 477.3 25.2 L 477.4 24.5" stroke-width="2.20"/>
<path d="M 477.4 24.5 L 477.3 24.1" stroke-width="2.60"/>
<path d="M 477.3 24.1 L 477.1 24.1" stroke-width="3.00"/>
<path d="M 477.1 24.1 L 476.9 24.3 L 476.6 25.0 L 476.4 26.0" stroke-width="3.20"/>
<path d="M 476.4 26.0 L 476.3 27.3" stroke-width="2.80"/>
<path d="M 476.3 27.3 L 476.3 28.9" stroke-width="2.60"/>
<path d="M 476.3 28.9 L 476.4 30.8" stroke-width="2.20"/>
<path d="M 476.4 30.8 L 476.6 32.7" stroke-width="2.00"/>
<path d="M 476.6 32.7 L 476.8 34.7 L 477.1 36.6 L 477.5 38.5 L 477.8 40.1 L 478.0 41.6" stroke-width="1.80"/>
<path d="M 478.0 41.6 L 478.1 42.9 L 477.9 43.9" stroke-width="2.00"/>
<path d="M 477.9 43.9 L 477.6 44.6" stroke-width="2.20"/>
<path d="M 477.6 44.6 L 477.0 45.2" stroke-width="2.40"/>
<path d="M 477.0 45.2 L 476.2 45.5 L 475.1 45.6 L 473.8 45.5" stroke-width="2.60"/>
<path d="M 473.8 45.5 L 472.3 45.2" stroke-width="2.40"/>
<path d="M 472.3 45.2 L 470.7 44.9" stroke-width="2.20"/>
<path d="M 470.7 44.9 L 469.1 44.4 L 467.6 43.8 L 466.2 43.2 L 464.9 42.6 L 463.9 41.9 L 463.3 41.4 L 462.9 41.1" stroke-width="2.00"/>
<circle cx="487.9" cy="25.2" r="0.77" fill="currentColor" stroke="none"/>
<path d="M 487.9 25.2 L 487.7 25.0" stroke-width="2.00"/>
<path d="M 487.7 25.0 L 487.3 24.7" stroke-width="2.60"/>
<path d="M 487.3 24.7 L 486.7 24.5 L 485.8 24.4 L 484.8 24.7" stroke-width="3.00"/>
<path d="M 484.8 24.7 L 483.5 25.2" stroke-width="2.60"/>
<path d="M 483.5 25.2 L 482.1 26.1" stroke-width="2.40"/>
<path d="M 482.1 26.1 L 480.9 27.2" stroke-width="2.20"/>
<path d="M 480.9 27.2 L 479.9 28.5 L 479.2 30.0 L 479.0 31.3 L 479.1 32.6" stroke-width="2.00"/>
<path d="M 479.1 32.6 L 479.8 33.6 L 481.0 34.3" stroke-width="2.20"/>
<path d="M 481.0 34.3 L 482.6 34.7 L 484.6 34.6" stroke-width="2.00"/>
<path d="M 484.6 34.6 L 486.7 34.2 L 488.7 33.5" stroke-width="1.80"/>
<path d="M 488.7 33.5 L 490.6 32.4 L 492.0 31.2 L 493.0 29.9" stroke-width="1.60"/>
<path d="M 493.0 29.9 L 493.5 28.5 L 493.4 27.2" stroke-width="1.80"/>
<path d="M 493.4 27.2 L 492.8 26.0 L 491.9 25.0 L 490.7 24.3 L 489.4 23.8" stroke-width="2.00"/>
<path d="M 489.4 23.8 L 488.1 23.6 L 487.0 23.6" stroke-width="2.20"/>
<path d="M 487.0 23.6 L 486.2 23.8 L 485.7 24.0 L 485.5 24.2" stroke-width="2.40"/>
<circle cx="496.5" cy="28.5" r="0.77" fill="currentColor" stroke="none"/>
<path d="M 496.5 28.5 L 496.8 28.5" stroke-width="2.00"/>
<path d="M 496.8 28.5 L 497.5 28.4" stroke-width="2.60"/>
<path d="M 497.5 28.4 L 498.4 28.2" stroke-width="2.80"/>
<path d="M 498.4 28.2 L 499.6 27.8" stroke-width="2.60"/>
<path d="M 499.6 27.8 L 501.0 27.3" stroke-width="2.40"/>
<path d="M 501.0 27.3 L 502.3 26.6 L 503.6 25.9 L 504.8 25.1 L 505.6 24.4" stroke-width="2.20"/>
<path d="M 505.6 24.4 L 506.1 23.7" stroke-width="2.40"/>
<path d="M 506.1 23.7 L 506.3 23.1" stroke-width="2.60"/>
<path d="M 506.3 23.1 L 506.0 22.6" stroke-width="2.80"/>
<path d="M 506.0 22.6 L 505.3 22.3" stroke-width="3.00"/>
<path d="M 505.3 22.3 L 504.2 22.3" stroke-width="2.80"/>
<path d="M 504.2 22.3 L 502.9 22.6" stroke-width="2.60"/>
<path d="M 502.9 22.6 L 501.4 23.2" stroke-width="2.40"/>
<path d="M 501.4 23.2 L 499.8 24.1" stroke-width="2.20"/>
<path d="M 499.8 24.1 L 498.4 25.2 L 497.2 26.5" stroke-width="2.00"/>
<path d="M 497.2 26.5 L 496.4 27.9" stroke-width="1.80"/>
<path d="M 496.4 27.9 L 496.1 29.3 L 496.3 30.5 L 497.0 31.7 L 498.2 32.6 L 499.9 33.2" stroke-width="2.00"/>
<path d="M 499.9 33.2 L 501.9 33.4 L 504.1 33.4" stroke-width="1.80"/>
<path d="M 504.1 33.4 L 506.2 32.9 L 508.3 32.2 L 510.2 31.2 L 511.6 30.3" stroke-width="1.60"/>
<path d="M 511.6 30.3 L 512.5 29.7" stroke-width="1.40"/>
<circle cx="518.3" cy="22.2" r="0.77" fill="currentColor" stroke="none"/>
<path d="M 518.3 22.2 L 518.2 22.1" stroke-width="2.00"/>
<path d="M 518.2 22.1 L 517.9 21.9" stroke-width="2.80"/>
<path d="M 517.9 21.9 L 517.4 21.9 L 516.6 22.0" stroke-width="3.20"/>
<path d="M 516.6 22.0 L 515.6 22.3" stroke-width="3.00"/>
<path d="M 515.6 22.3 L 514.5 22.8" stroke-width="2.80"/>
<path d="M 514.5 22.8 L 513.6 23.3 L 513.0 23.9" stroke-width="2.60"/>
<path d="M 513.0 23.9 L 512.7 24.6 L 513.0 25.3 L 513.8 26.0" stroke-width="2.80"/>
<path d="M 513.8 26.0 L 515.2 26.7" stroke-width="2.60"/>
<path d="M 515.2 26.7 L 517.0 27.4" stroke-width="2.20"/>
<path d="M 517.0 27.4 L 519.1 28.1" stroke-width="2.00"/>
<path d="M 519.1 28.1 L 521.1 28.9" stroke-width="1.80"/>
<path d="M 521.1 28.9 L 523.0 29.7 L 524.5 30.4" stroke-width="1.60"/>
<path d="M 524.5 30.4 L 525.6 31.1" stroke-width="1.80"/>
<path d="M 525.6 31.1 L 526.1 31.6" stroke-width="2.00"/>
<path d="M 526.1 31.6 L 526.1 32.1" stroke-width="2.40"/>
<path d="M 526.1 32.1 L 525.7 32.5" stroke-width="2.60"/>
<path d="M 525.7 32.5 L 524.8 32.8" stroke-width="2.80"/>
<path d="M 524.8 32.8 L 523.3 33.0" stroke-width="2.60"/>
<path d="M 523.3 33.0 L 521.5 33.0" stroke-width="2.20"/>
<path d="M 521.5 33.0 L 519.3 32.9" stroke-width="2.00"/>
<path d="M 519.3 32.9 L 517.0 32.6" stroke-width="1.80"/>
<path d="M 517.0 32.6 L 514.7 32.2 L 512.4 31.8 L 510.3 31.3 L 508.5 30.8 L 507.1 30.3" stroke-width="1.60"/>
<path d="M 507.1 30.3 L 506.3 30.1" stroke-width="1.80"/>
<path d="M 506.3 30.1 L 506.0 29.9" stroke-width="2.20"/>
<path d="M 506.0 29.9 L 506.2 29.9" stroke-width="2.80"/>
<path d="M 506.2 29.9 L 506.5 30.0" stroke-width="3.00"/>
<path d="M 506.5 30.0 L 506.8 30.0" stroke-width="2.60"/>
</svg>
