<svg xmlns="http://www.w3.org/2000/svg" viewBox="0 0 472.3 55.3" fill="none" stroke="currentColor" stroke-linecap="round" stroke-linejoin="round" role="img">
<circle cx="13.8" cy="21.8" r="0.77" fill="currentColor" stroke="none"/>
<path d="M 13.8 21.8 L 13.7 21.7" stroke-width="2.00"/>
<path d="M 13.7 21.7 L 13.3 21.5" stroke-width="2.80"/>
<path d="M 13.3 21.5 L 12.6 21.4 L 11.6 21.7" stroke-width="3.20"/>
<path d="M 11.6 21.7 L 10.4 22.3" stroke-width="2.80"/>
<path d="M 10.4 22.3 L 9.1 23.5" stroke-width="2.60"/>
<path d="M 9.1 23.5 L 7.9 25.0" stroke-width="2.20"/>
<path d="M 7.9 25.0 L 6.9 26.8 L 6.2 28.7 L 6.0 30.4 L 6.2 31.8" stroke-width="2.00"/>
<path d="M 6.2 31.8 L 6.7 32.8" stroke-width="2.20"/>
<path d="M 6.7 32.8 L 7.5 33.2 L 8.5 33.0 L 9.7 32.2" stroke-width="2.40"/>
<path d="M 9.7 32.2 L 11.0 30.8" stroke-width="2.20"/>
<path d="M 11.0 30.8 L 12.3 29.0" stroke-width="2.00"/>
<path d="M 12.3 29.0 L 13.5 27.0 L 14.4 25.0 L 15.1 23.3 L 15.4 22.0" stroke-width="1.80"/>
<path d="M 15.4 22.0 L 15.5 21.2" stroke-width="2.20"/>
<path d="M 15.5 21.2 L 15.5 21.1" stroke-width="2.60"/>
<path d="M 15.5 21.1 L 15.3 21.6 L 15.0 22.8" stroke-width="3.00"/>
<path d="M 15.0 22.8 L 14.8 24.6" stroke-width="2.60"/>
<path d="M 14.8 24.6 L 14.8 26.8" stroke-width="2.20"/>
<path d="M 14.8 26.8 L 15.0 29.2" stroke-width="2.00"/>
<path d="M 15.0 29.2 L 15.7 31.5 L 16.7 33.5" stroke-width="1.80"/>
<path d="M 16.7 33.5 L 17.7 34.8" stroke-width="1.60"/>
<path d="M 17.7 34.8 L 18.5 35.5" stroke-width="1.40"/>
<circle cx="40.7" cy="29.0" r="0.77" fill="currentColor" stroke="none"/>
<path d="M 40.7 29.0 L 41.2 28.5" stroke-width="1.80"/>
<path d="M 41.2 28.5 L 42.1 27.4" stroke-width="2.40"/>
<path d="M 42.1 27.4 L 43.3 25.8" stroke-width="2.20"/>
<path d="M 43.3 25.8 L 44.8 23.8" stroke-width="2.00"/>
<path d="M 44.8 23.8 L 46.3 21.3" stroke-width="1.80"/>
<path d="M 46.3 21.3 L 47.7 18.7" stroke-width="1.60"/>
<path d="M 47.7 18.7 L 49.0 15.9 L 50.1 13.1 L 50.9 10.6 L 51.3 8.6" stroke-width="1.40"/>
<path d="M 51.3 8.6 L 51.3 7.0" stroke-width="1.60"/>
<path d="M 51.3 7.0 L 50.9 6.1" stroke-width="1.80"/>
<path d="M 50.9 6.1 L 50.1 6.0" stroke-width="2.00"/>
<path d="M 50.1 6.0 L 48.9 6.7 L 47.5 8.3" stroke-width="2.20"/>
<path d="M 47.5 8.3 L 45.9 10.8" stroke-width="1.80"/>
<path d="M 45.9 10.8 L 44.3 14.0" stroke-width="1.60"/>
<path d="M 44.3 14.0 L 43.0 17.7" stroke-width="1.40"/>
<path d="M 43.0 17.7 L 42.2 21.5 L 41.8 25.2 L 42.1 28.4 L 42.9 30.8" stroke-width="1.20"/>
<path d="M 42.9 30.8 L 44.3 32.4 L 46.1 33.0" stroke-width="1.40"/>
<path d="M 46.1 33.0 L 48.2 32.6 L 50.5 31.4" stroke-width="1.60"/>
<path d="M 50.5 31.4 L 52.8 29.5 L 54.8 27.2 L 56.5 25.0 L 57.8 23.1" stroke-width="1.40"/>
<path d="M 57.8 23.1 L 58.7 21.7" stroke-width="1.60"/>
<path d="M 58.7 21.7 L 59.1 20.9" stroke-width="1.80"/>
<path d="M 59.1 20.9 L 59.2 20.8" stroke-width="2.20"/>
<path d="M 59.2 20.8 L 59.0 21.4" stroke-width="2.60"/>
<path d="M 59.0 21.4 L 58.6 22.6" stroke-width="2.80"/>
<path d="M 58.6 22.6 L 58.0 24.4" stroke-width="2.40"/>
<path d="M 58.0 24.4 L 57.6 26.6" stroke-width="2.20"/>
<path d="M 57.6 26.6 L 57.3 28.8" stroke-width="2.00"/>
<path d="M 57.3 28.8 L 57.3 30.9 L 57.5 32.4" stroke-width="1.80"/>
<path d="M 57.5 32.4 L 58.0 33.3" stroke-width="2.00"/>
<path d="M 58.0 33.3 L 58.6 33.4 L 59.1 33.1" stroke-width="2.40"/>
<path d="M 59.1 33.1 L 59.5 32.7" stroke-width="2.20"/>
<circle cx="62.1" cy="13.6" r="0.77" fill="currentColor" stroke="none"/>
<path d="M 62.1 13.6 L 62.0 13.4" stroke-width="2.00"/>
<path d="M 62.0 13.4 L 62.0 13.1" stroke-width="2.80"/>
<path d="M 62.0 13.1 L 62.1 12.8" stroke-width="3.00"/>
<path d="M 62.1 12.8 L 62.1 12.7" stroke-width="2.60"/>
<circle cx="65.8" cy="24.8" r="0.77" fill="currentColor" stroke="none"/>
<path d="M 65.8 24.8 L 65.7 25.5" stroke-width="1.80"/>
<path d="M 65.7 25.5 L 65.5 26.6 L 65.3 28.0 L 64.9 29.5 L 64.7 30.8 L 64.4 31.9" stroke-width="2.40"/>
<path d="M 64.4 31.9 L 64.3 32.6" stroke-width="2.60"/>
<path d="M 64.3 32.6 L 64.3 32.9" stroke-width="2.80"/>
<path d="M 64.3 32.9 L 64.6 32.7 L 65.1 31.9" stroke-width="3.20"/>
<path d="M 65.1 31.9 L 65.9 30.6" stroke-width="3.00"/>
<path d="M 65.9 30.6 L 67.0 28.9" stroke-width="2.60"/>
<path d="M 67.0 28.9 L 68.4 27.1" stroke-width="2.20"/>
<path d="M 68.4 27.1 L 69.9 25.4" stroke-width="2.00"/>
<path d="M 69.9 25.4 L 71.4 24.0 L 72.7 23.0" stroke-width="1.80"/>
<path d="M 72.7 23.0 L 73.8 22.6" stroke-width="2.00"/>
<path d="M 73.8 22.6 L 74.6 22.6" stroke-width="2.20"/>
<path d="M 74.6 22.6 L 75.0 23.2" stroke-width="2.40"/>
<path d="M 75.0 23.2 L 75.2 24.2 L 75.2 25.6" stroke-width="2.60"/>
<path d="M 75.2 25.6 L 75.1 27.1 L 75.1 28.6 L 75.3 29.9 L 75.8 30.9 L 76.7 31.4" stroke-width="2.40"/>
<path d="M 76.7 31.4 L 77.9 31.4" stroke-width="2.60"/>
<path d="M 77.9 31.4 L 79.2 30.9" stroke-width="2.40"/>
<path d="M 79.2 30.9 L 80.8 29.8" stroke-width="2.20"/>
<path d="M 80.8 29.8 L 82.3 28.3 L 83.5 26.5" stroke-width="2.00"/>
<path d="M 83.5 26.5 L 84.5 24.6 L 85.0 22.8 L 85.1 21.5" stroke-width="1.80"/>
<path d="M 85.1 21.5 L 84.8 20.6" stroke-width="2.00"/>
<path d="M 84.8 20.6 L 84.1 20.3" stroke-width="2.40"/>
<path d="M 84.1 20.3 L 83.2 20.6 L 82.3 21.4" stroke-width="2.60"/>
<path d="M 82.3 21.4 L 81.5 22.8" stroke-width="2.40"/>
<path d="M 81.5 22.8 L 81.0 24.6" stroke-width="2.20"/>
<path d="M 81.0 24.6 L 80.9 26.7 L 81.4 28.6" stroke-width="2.00"/>
<path d="M 81.4 28.6 L 82.6 30.5 L 84.4 31.9" stroke-width="1.80"/>
<path d="M 84.4 31.9 L 86.9 32.9 L 89.8 33.3" stroke-width="1.60"/>
<path d="M 89.8 33.3 L 92.3 33.4" stroke-width="1.40"/>
<path d="M 92.3 33.4 L 94.0 33.3" stroke-width="1.20"/>
<circle cx="112.1" cy="25.3" r="0.77" fill="currentColor" stroke="none"/>
<path d="M 112.1 25.3 L 112.0 25.1" stroke-width="2.00"/>
<path d="M 112.0 25.1 L 111.8 24.7" stroke-width="2.80"/>
<path d="M 111.8 24.7 L 111.4 24.4 L 110.8 24.3 L 110.0 24.6" stroke-width="3.20"/>
<path d="M 110.0 24.6 L 109.1 25.3" stroke-width="3.00"/>
<path d="M 109.1 25.3 L 108.2 26.4" stroke-width="2.80"/>
<path d="M 108.2 26.4 L 107.5 27.8" stroke-width="2.60"/>
<path d="M 107.5 27.8 L 107.0 29.3" stroke-width="2.40"/>
<path d="M 107.0 29.3 L 107.0 30.7 L 107.4 31.9" stroke-width="2.20"/>
<path d="M 107.4 31.9 L 108.2 32.8 L 109.2 33.3 L 110.4 33.3 L 111.7 32.7 L 112.9 31.6" stroke-width="2.40"/>
<path d="M 112.9 31.6 L 114.0 30.0" stroke-width="2.20"/>
<path d="M 114.0 30.0 L 114.8 28.0" stroke-width="2.00"/>
<path d="M 114.8 28.0 L 115.3 26.0 L 115.5 24.0 L 115.3 22.4" stroke-width="1.80"/>
<path d="M 115.3 22.4 L 114.9 21.3" stroke-width="2.00"/>
<path d="M 114.9 21.3 L 114.4 20.7" stroke-width="2.20"/>
<path d="M 114.4 20.7 L 114.0 20.7" stroke-width="2.60"/>
<path d="M 114.0 20.7 L 113.7 21.2 L 113.7 22.1" stroke-width="3.00"/>
<path d="M 113.7 22.1 L 114.0 23.4" stroke-width="2.80"/>
<path d="M 114.0 23.4 L 114.6 24.6" stroke-width="2.60"/>
<path d="M 114.6 24.6 L 115.7 25.7 L 117.2 26.3" stroke-width="2.40"/>
<path d="M 117.2 26.3 L 119.1 26.4" stroke-width="2.20"/>
<path d="M 119.1 26.4 L 121.2 25.7" stroke-width="2.00"/>
<path d="M 121.2 25.7 L 123.4 24.4" stroke-width="1.80"/>
<path d="M 123.4 24.4 L 125.6 22.4" stroke-width="1.60"/>
<path d="M 125.6 22.4 L 127.7 19.9 L 129.5 17.1 L 130.9 14.4 L 131.8 12.0 L 132.4 10.2" stroke-width="1.40"/>
<path d="M 132.4 10.2 L 132.6 9.0" stroke-width="1.60"/>
<path d="M 132.6 9.0 L 132.5 8.5" stroke-width="2.00"/>
<path d="M 132.5 8.5 L 132.2 8.8" stroke-width="2.40"/>
<path d="M 132.2 8.8 L 131.6 9.9" stroke-width="2.60"/>
<path d="M 131.6 9.9 L 130.7 12.0" stroke-width="2.40"/>
<path d="M 130.7 12.0 L 129.7 15.0" stroke-width="1.80"/>
<path d="M 129.7 15.0 L 128.6 18.8" stroke-width="1.60"/>
<path d="M 128.6 18.8 L 127.6 23.1 L 126.7 27.8 L 126.0 32.6 L 125.6 37.3 L 125.4 41.5 L 125.5 45.0 L 125.8 47.4 L 126.2 48.8" stroke-width="1.20"/>
<path d="M 126.2 48.8 L 126.6 49.3" stroke-width="1.40"/>
<path d="M 126.6 49.3 L 126.9 49.3" stroke-width="1.60"/>
<circle cx="122.8" cy="31.1" r="0.77" fill="currentColor" stroke="none"/>
<path d="M 122.8 31.1 L 122.7 31.0" stroke-width="2.00"/>
<path d="M 122.7 31.0 L 122.8 30.8" stroke-width="2.80"/>
<path d="M 122.8 30.8 L 123.2 30.6 L 124.2 30.5" stroke-width="3.20"/>
<path d="M 124.2 30.5 L 125.8 30.4" stroke-width="3.00"/>
<path d="M 125.8 30.4 L 127.8 30.3" stroke-width="2.40"/>
<path d="M 127.8 30.3 L 130.2 30.2" stroke-width="2.00"/>
<path d="M 130.2 30.2 L 132.8 29.9" stroke-width="1.80"/>
<path d="M 132.8 29.9 L 135.4 29.4 L 137.9 28.7" stroke-width="1.60"/>
<path d="M 137.9 28.7 L 139.8 28.0 L 140.9 27.5" stroke-width="1.40"/>
<circle cx="151.8" cy="23.7" r="0.77" fill="currentColor" stroke="none"/>
<path d="M 151.8 23.7 L 151.7 24.0" stroke-width="2.00"/>
<path d="M 151.7 24.0 L 151.6 24.5" stroke-width="2.60"/>
<path d="M 151.6 24.5 L 151.5 25.5" stroke-width="3.00"/>
<path d="M 151.5 25.5 L 151.3 26.8" stroke-width="2.80"/>
<path d="M 151.3 26.8 L 151.1 28.3" stroke-width="2.60"/>
<path d="M 151.1 28.3 L 150.9 29.9" stroke-width="2.40"/>
<path d="M 150.9 29.9 L 150.8 31.5 L 150.8 32.9" stroke-width="2.20"/>
<path d="M 150.8 32.9 L 151.0 34.0" stroke-width="2.40"/>
<path d="M 151.0 34.0 L 151.3 34.4" stroke-width="2.60"/>
<path d="M 151.3 34.4 L 151.6 34.5" stroke-width="2.80"/>
<path d="M 151.6 34.5 L 151.8 34.4" stroke-width="2.60"/>
<circle cx="153.7" cy="15.7" r="0.77" fill="currentColor" stroke="none"/>
<path d="M 153.7 15.7 L 153.8 15.7" stroke-width="2.00"/>
<path d="M 153.8 15.7 L 153.9 15.7" stroke-width="2.80"/>
<path d="M 153.9 15.7 L 154.0 15.7" stroke-width="3.00"/>
<path d="M 154.0 15.7 L 154.1 15.8" stroke-width="2.60"/>
<circle cx="156.8" cy="25.3" r="0.77" fill="currentColor" stroke="none"/>
<path d="M 156.8 25.3 L 156.9 25.6" stroke-width="2.00"/>
<path d="M 156.9 25.6 L 157.1 26.2" stroke-width="2.60"/>
<path d="M 157.1 26.2 L 157.2 27.2" stroke-width="3.00"/>
<path d="M 157.2 27.2 L 157.2 28.4" stroke-width="2.80"/>
<path d="M 157.2 28.4 L 157.2 29.8" stroke-width="2.60"/>
<path d="M 157.2 29.8 L 157.1 31.2 L 156.9 32.4" stroke-width="2.40"/>
<path d="M 156.9 32.4 L 156.7 33.3" stroke-width="2.60"/>
<path d="M 156.7 33.3 L 156.6 33.9" stroke-width="2.80"/>
<path d="M 156.6 33.9 L 156.6 34.0" stroke-width="3.00"/>
<path d="M 156.6 34.0 L 156.7 33.7 L 157.0 32.9" stroke-width="3.20"/>
<path d="M 157.0 32.9 L 157.6 31.7" stroke-width="3.00"/>
<path d="M 157.6 31.7 L 158.5 30.1" stroke-width="2.60"/>
<path d="M 158.5 30.1 L 159.6 28.4" stroke-width="2.40"/>
<path d="M 159.6 28.4 L 160.9 26.9 L 162.2 25.7 L 163.4 24.9" stroke-width="2.00"/>
<path d="M 163.4 24.9 L 164.5 24.6" stroke-width="2.20"/>
<path d="M 164.5 24.6 L 165.5 24.7 L 166.1 25.4" stroke-width="2.40"/>
<path d="M 166.1 25.4 L 166.6 26.6" stroke-width="2.60"/>
<path d="M 166.6 26.6 L 166.8 28.2" stroke-width="2.40"/>
<path d="M 166.8 28.2 L 167.0 30.1" stroke-width="2.20"/>
<path d="M 167.0 30.1 L 167.2 31.9 L 167.4 33.5 L 167.8 34.8" stroke-width="2.00"/>
<path d="M 167.8 34.8 L 168.2 35.6" stroke-width="2.20"/>
<path d="M 168.2 35.6 L 168.6 35.9" stroke-width="2.60"/>
<path d="M 168.6 35.9 L 169.2 35.7" stroke-width="2.80"/>
<path d="M 169.2 35.7 L 169.9 34.9" stroke-width="3.00"/>
<path d="M 169.9 34.9 L 170.7 33.6" stroke-width="2.80"/>
<path d="M 170.7 33.6 L 171.7 31.7" stroke-width="2.40"/>
<path d="M 171.7 31.7 L 172.8 29.4" stroke-width="2.00"/>
<path d="M 172.8 29.4 L 173.9 26.8" stroke-width="1.80"/>
<path d="M 173.9 26.8 L 174.9 24.1" stroke-width="1.60"/>
<path d="M 174.9 24.1 L 175.8 21.4 L 176.7 18.7 L 177.4 16.2 L 178.0 14.1" stroke-width="1.40"/>
<path d="M 178.0 14.1 L 178.4 12.3" stroke-width="1.60"/>
<path d="M 178.4 12.3 L 178.7 11.1" stroke-width="1.80"/>
<path d="M 178.7 11.1 L 178.8 10.4" stroke-width="2.00"/>
<path d="M 178.8 10.4 L 178.7 10.3" stroke-width="2.40"/>
<path d="M 178.7 10.3 L 178.6 10.7 L 178.2 11.7" stroke-width="3.00"/>
<path d="M 178.2 11.7 L 177.8 13.3" stroke-width="2.80"/>
<path d="M 177.8 13.3 L 177.3 15.4" stroke-width="2.40"/>
<path d="M 177.3 15.4 L 176.8 18.0" stroke-width="2.00"/>
<path d="M 176.8 18.0 L 176.5 20.7" stroke-width="1.80"/>
<path d="M 176.5 20.7 L 176.2 23.5 L 176.1 26.2" stroke-width="1.60"/>
<path d="M 176.1 26.2 L 176.0 28.7" stroke-width="1.40"/>
<path d="M 176.0 28.7 L 176.0 30.8 L 176.1 32.3" stroke-width="1.60"/>
<path d="M 176.1 32.3 L 176.1 33.2" stroke-width="1.80"/>
<path d="M 176.1 33.2 L 176.2 33.4" stroke-width="2.20"/>
<path d="M 176.2 33.4 L 176.4 33.0 L 176.8 32.0" stroke-width="2.80"/>
<path d="M 176.8 32.0 L 177.3 30.6" stroke-width="2.60"/>
<path d="M 177.3 30.6 L 178.2 28.7" stroke-width="2.40"/>
<path d="M 178.2 28.7 L 179.3 26.7" stroke-width="2.00"/>
<path d="M 179.3 26.7 L 180.7 24.8 L 182.2 23.2 L 183.6 21.9 L 184.9 21.1" stroke-width="1.80"/>
<path d="M 184.9 21.1 L 185.9 20.7" stroke-width="2.00"/>
<path d="M 185.9 20.7 L 186.5 20.7" stroke-width="2.20"/>
<path d="M 186.5 20.7 L 186.6 21.1" stroke-width="2.60"/>
<path d="M 186.6 21.1 L 186.2 21.8" stroke-width="3.00"/>
<path d="M 186.2 21.8 L 185.3 22.7" stroke-width="2.80"/>
<path d="M 185.3 22.7 L 183.9 23.8" stroke-width="2.60"/>
<path d="M 183.9 23.8 L 182.4 24.9 L 181.0 25.8 L 180.0 26.5" stroke-width="2.20"/>
<path d="M 180.0 26.5 L 179.4 27.1" stroke-width="2.40"/>
<path d="M 179.4 27.1 L 179.3 27.6" stroke-width="2.60"/>
<path d="M 179.3 27.6 L 179.6 28.0" stroke-width="3.00"/>
<path d="M 179.6 28.0 L 180.1 28.3 L 180.8 28.7 L 181.6 29.2" stroke-width="3.20"/>
<path d="M 181.6 29.2 L 182.5 29.6" stroke-width="3.00"/>
<path d="M 182.5 29.6 L 183.6 30.1 L 184.8 30.5" stroke-width="2.80"/>
<path d="M 184.8 30.5 L 186.0 30.9 L 187.2 31.1" stroke-width="2.60"/>
<path d="M 187.2 31.1 L 188.1 31.2" stroke-width="2.40"/>
<path d="M 188.1 31.2 L 188.6 31.2" stroke-width="2.20"/>
<circle cx="195.9" cy="30.8" r="0.77" fill="currentColor" stroke="none"/>
<path d="M 195.9 30.8 L 196.0 30.8" stroke-width="2.00"/>
<path d="M 196.0 30.8 L 196.0 30.9" stroke-width="2.80"/>
<path d="M 196.0 30.9 L 196.2 31.0 L 196.4 31.3 L 196.5 31.8 L 196.5 32.8" stroke-width="3.20"/>
<path d="M 196.5 32.8 L 196.2 34.1" stroke-width="3.00"/>
<path d="M 196.2 34.1 L 195.7 35.7" stroke-width="2.80"/>
<path d="M 195.7 35.7 L 194.9 37.5" stroke-width="2.40"/>
<path d="M 194.9 37.5 L 194.0 39.3" stroke-width="2.20"/>
<path d="M 194.0 39.3 L 193.3 40.6" stroke-width="2.00"/>
<path d="M 193.3 40.6 L 192.9 41.3" stroke-width="1.80"/>
<circle cx="210.7" cy="13.6" r="0.77" fill="currentColor" stroke="none"/>
<path d="M 210.7 13.6 L 210.7 13.6" stroke-width="2.00"/>
<path d="M 210.7 13.6 L 210.7 13.7" stroke-width="2.80"/>
<path d="M 210.7 13.7 L 210.7 14.2 L 210.8 15.2" stroke-width="3.20"/>
<path d="M 210.8 15.2 L 210.9 16.6" stroke-width="3.00"/>
<path d="M 210.9 16.6 L 210.8 18.5" stroke-width="2.60"/>
<path d="M 210.8 18.5 L 210.7 20.7" stroke-width="2.20"/>
<path d="M 210.7 20.7 L 210.6 23.1" stroke-width="2.00"/>
<path d="M 210.6 23.1 L 210.4 25.5" stroke-width="1.80"/>
<path d="M 210.4 25.5 L 210.4 28.0 L 210.4 30.2 L 210.4 32.1" stroke-width="1.60"/>
<path d="M 210.4 32.1 L 210.5 33.3" stroke-width="1.80"/>
<path d="M 210.5 33.3 L 210.6 34.0" stroke-width="2.00"/>
<path d="M 210.6 34.0 L 210.7 34.1 L 210.8 34.0" stroke-width="2.40"/>
<circle cx="206.6" cy="20.5" r="0.77" fill="currentColor" stroke="none"/>
<path d="M 206.6 20.5 L 206.9 20.8" stroke-width="2.00"/>
<path d="M 206.9 20.8 L 207.5 21.2" stroke-width="2.60"/>
<path d="M 207.5 21.2 L 208.5 21.6" stroke-width="2.80"/>
<path d="M 208.5 21.6 L 210.0 21.9" stroke-width="2.60"/>
<path d="M 210.0 21.9 L 211.7 21.9" stroke-width="2.40"/>
<path d="M 211.7 21.9 L 213.5 21.5" stroke-width="2.20"/>
<path d="M 213.5 21.5 L 215.4 20.6" stroke-width="2.00"/>
<path d="M 215.4 20.6 L 217.2 19.2 L 218.9 17.6" stroke-width="1.80"/>
<path d="M 218.9 17.6 L 220.2 15.6 L 221.3 13.7 L 222.0 11.9" stroke-width="1.60"/>
<path d="M 222.0 11.9 L 222.5 10.4" stroke-width="1.80"/>
<path d="M 222.5 10.4 L 222.7 9.5" stroke-width="2.00"/>
<path d="M 222.7 9.5 L 222.6 9.1" stroke-width="2.40"/>
<path d="M 222.6 9.1 L 222.5 9.4" stroke-width="2.80"/>
<path d="M 222.5 9.4 L 222.1 10.3" stroke-width="3.00"/>
<path d="M 222.1 10.3 L 221.6 12.0" stroke-width="2.80"/>
<path d="M 221.6 12.0 L 221.0 14.3" stroke-width="2.20"/>
<path d="M 221.0 14.3 L 220.4 17.2" stroke-width="1.80"/>
<path d="M 220.4 17.2 L 219.7 20.3" stroke-width="1.60"/>
<path d="M 219.7 20.3 L 219.2 23.4 L 218.9 26.2 L 218.7 28.5" stroke-width="1.40"/>
<path d="M 218.7 28.5 L 218.6 30.1" stroke-width="1.60"/>
<path d="M 218.6 30.1 L 218.7 31.0" stroke-width="1.80"/>
<path d="M 218.7 31.0 L 218.9 31.1" stroke-width="2.20"/>
<path d="M 218.9 31.1 L 219.3 30.6 L 219.9 29.5" stroke-width="2.60"/>
<path d="M 219.9 29.5 L 220.8 28.0" stroke-width="2.40"/>
<path d="M 220.8 28.0 L 222.0 26.3" stroke-width="2.20"/>
<path d="M 222.0 26.3 L 223.3 24.5" stroke-width="2.00"/>
<path d="M 223.3 24.5 L 224.6 22.9 L 225.8 21.7" stroke-width="1.80"/>
<path d="M 225.8 21.7 L 226.9 20.9" stroke-width="2.00"/>
<path d="M 226.9 20.9 L 227.8 20.6" stroke-width="2.20"/>
<path d="M 227.8 20.6 L 228.5 20.8" stroke-width="2.40"/>
<path d="M 228.5 20.8 L 229.0 21.5 L 229.2 22.6 L 229.3 24.1" stroke-width="2.60"/>
<path d="M 229.3 24.1 L 229.2 25.6" stroke-width="2.40"/>
<path d="M 229.2 25.6 L 229.1 27.2 L 229.1 28.4" stroke-width="2.20"/>
<path d="M 229.1 28.4 L 229.3 29.4" stroke-width="2.40"/>
<path d="M 229.3 29.4 L 229.7 29.9" stroke-width="2.60"/>
<path d="M 229.7 29.9 L 230.3 29.9" stroke-width="2.80"/>
<path d="M 230.3 29.9 L 231.3 29.3" stroke-width="3.00"/>
<path d="M 231.3 29.3 L 232.4 28.3" stroke-width="2.80"/>
<path d="M 232.4 28.3 L 233.7 27.0" stroke-width="2.40"/>
<path d="M 233.7 27.0 L 235.0 25.6" stroke-width="2.20"/>
<path d="M 235.0 25.6 L 236.1 24.2 L 237.0 23.1" stroke-width="2.00"/>
<path d="M 237.0 23.1 L 237.7 22.4" stroke-width="2.20"/>
<path d="M 237.7 22.4 L 238.1 22.1" stroke-width="2.40"/>
<path d="M 238.1 22.1 L 238.3 22.1" stroke-width="3.00"/>
<path d="M 238.3 22.1 L 238.3 22.6 L 238.2 23.5" stroke-width="3.20"/>
<path d="M 238.2 23.5 L 238.0 24.9" stroke-width="3.00"/>
<path d="M 238.0 24.9 L 237.7 26.7" stroke-width="2.60"/>
<path d="M 237.7 26.7 L 237.5 28.5 L 237.3 30.3 L 237.3 31.7" stroke-width="2.20"/>
<path d="M 237.3 31.7 L 237.4 32.7 L 237.5 33.1" stroke-width="2.00"/>
<circle cx="238.4" cy="13.0" r="0.77" fill="currentColor" stroke="none"/>
<path d="M 238.4 13.0 L 238.5 12.8" stroke-width="2.00"/>
<path d="M 238.5 12.8 L 238.6 12.6" stroke-width="2.80"/>
<path d="M 238.6 12.6 L 238.7 12.5" stroke-width="3.00"/>
<path d="M 238.7 12.5 L 238.8 12.5" stroke-width="2.60"/>
<circle cx="244.1" cy="22.1" r="0.77" fill="currentColor" stroke="none"/>
<path d="M 244.1 22.1 L 244.1 22.5" stroke-width="2.00"/>
<path d="M 244.1 22.5 L 244.2 23.3 L 244.2 24.6 L 244.1 26.1" stroke-width="2.60"/>
<path d="M 244.1 26.1 L 244.0 27.6" stroke-width="2.40"/>
<path d="M 244.0 27.6 L 243.8 29.1" stroke-width="2.20"/>
<path d="M 243.8 29.1 L 243.7 30.3 L 243.7 31.2" stroke-width="2.40"/>
<path d="M 243.7 31.2 L 243.7 31.6" stroke-width="2.80"/>
<path d="M 243.7 31.6 L 243.7 31.7" stroke-width="3.00"/>
<path d="M 243.7 31.7 L 243.9 31.3 L 244.3 30.4" stroke-width="3.20"/>
<path d="M 244.3 30.4 L 244.8 29.1" stroke-width="3.00"/>
<path d="M 244.8 29.1 L 245.7 27.5" stroke-width="2.60"/>
<path d="M 245.7 27.5 L 246.7 25.9" stroke-width="2.40"/>
<path d="M 246.7 25.9 L 247.9 24.4 L 249.2 23.2 L 250.4 22.4" stroke-width="2.00"/>
<path d="M 250.4 22.4 L 251.6 22.2 L 252.6 22.4" stroke-width="2.20"/>
<path d="M 252.6 22.4 L 253.3 23.1 L 253.9 24.2 L 254.2 25.7" stroke-width="2.40"/>
<path d="M 254.2 25.7 L 254.3 27.4 L 254.4 29.1 L 254.4 30.6 L 254.4 31.5" stroke-width="2.20"/>
<path d="M 254.4 31.5 L 254.5 32.0" stroke-width="2.00"/>
<circle cx="260.8" cy="11.6" r="0.77" fill="currentColor" stroke="none"/>
<path d="M 260.8 11.6 L 260.9 11.8" stroke-width="2.00"/>
<path d="M 260.9 11.8 L 261.1 12.3" stroke-width="2.80"/>
<path d="M 261.1 12.3 L 261.2 13.3" stroke-width="3.00"/>
<path d="M 261.2 13.3 L 261.3 14.9" stroke-width="2.80"/>
<path d="M 261.3 14.9 L 261.3 16.9" stroke-width="2.40"/>
<path d="M 261.3 16.9 L 261.2 19.2" stroke-width="2.00"/>
<path d="M 261.2 19.2 L 261.1 21.6 L 260.9 23.9 L 260.8 26.0 L 260.8 27.7" stroke-width="1.80"/>
<path d="M 260.8 27.7 L 260.8 28.8" stroke-width="2.00"/>
<path d="M 260.8 28.8 L 260.9 29.4" stroke-width="2.20"/>
<path d="M 260.9 29.4 L 261.2 29.5" stroke-width="2.60"/>
<path d="M 261.2 29.5 L 261.7 29.0 L 262.4 28.0" stroke-width="3.00"/>
<path d="M 262.4 28.0 L 263.5 26.7" stroke-width="2.60"/>
<path d="M 263.5 26.7 L 264.7 25.0" stroke-width="2.20"/>
<path d="M 264.7 25.0 L 266.1 23.3" stroke-width="2.00"/>
<path d="M 266.1 23.3 L 267.5 21.7 L 268.8 20.4 L 269.8 19.3" stroke-width="1.80"/>
<path d="M 269.8 19.3 L 270.5 18.7" stroke-width="2.00"/>
<path d="M 270.5 18.7 L 270.8 18.3 L 270.8 18.2" stroke-width="2.20"/>
<circle cx="264.9" cy="24.2" r="0.77" fill="currentColor" stroke="none"/>
<path d="M 264.9 24.2 L 265.0 25.0" stroke-width="1.80"/>
<path d="M 265.0 25.0 L 265.3 26.2 L 265.8 27.7" stroke-width="2.40"/>
<path d="M 265.8 27.7 L 266.7 29.2 L 267.8 30.4 L 269.1 31.4 L 270.6 31.9 L 272.1 31.9" stroke-width="2.20"/>
<path d="M 272.1 31.9 L 273.8 31.3 L 275.4 30.2" stroke-width="2.00"/>
<path d="M 275.4 30.2 L 276.9 28.7 L 278.2 27.0 L 279.3 25.4 L 280.0 24.0" stroke-width="1.80"/>
<path d="M 280.0 24.0 L 280.5 23.0" stroke-width="2.00"/>
<path d="M 280.5 23.0 L 280.7 22.4" stroke-width="2.20"/>
<path d="M 280.7 22.4 L 280.7 22.3" stroke-width="2.80"/>
<path d="M 280.7 22.3 L 280.5 22.8 L 280.3 23.7" stroke-width="3.20"/>
<path d="M 280.3 23.7 L 280.0 25.0" stroke-width="3.00"/>
<path d="M 280.0 25.0 L 279.8 26.6" stroke-width="2.60"/>
<path d="M 279.8 26.6 L 279.7 28.2" stroke-width="2.40"/>
<path d="M 279.7 28.2 L 279.8 29.8 L 280.1 31.1" stroke-width="2.20"/>
<path d="M 280.1 31.1 L 280.5 31.9" stroke-width="2.40"/>
<path d="M 280.5 31.9 L 280.9 32.2" stroke-width="2.60"/>
<path d="M 280.9 32.2 L 281.2 32.2" stroke-width="2.80"/>
<path d="M 281.2 32.2 L 281.4 31.9" stroke-width="2.60"/>
<circle cx="282.5" cy="15.1" r="0.77" fill="currentColor" stroke="none"/>
<path d="M 282.5 15.1 L 282.5 14.9" stroke-width="2.00"/>
<path d="M 282.5 14.9 L 282.5 14.6" stroke-width="2.80"/>
<path d="M 282.5 14.6 L 282.5 14.4" stroke-width="3.00"/>
<path d="M 282.5 14.4 L 282.5 14.4" stroke-width="2.60"/>
<circle cx="288.3" cy="21.5" r="0.77" fill="currentColor" stroke="none"/>
<path d="M 288.3 21.5 L 288.3 22.0" stroke-width="2.00"/>
<path d="M 288.3 22.0 L 288.2 22.9 L 288.0 24.2" stroke-width="2.60"/>
<path d="M 288.0 24.2 L 287.8 25.8" stroke-width="2.40"/>
<path d="M 287.8 25.8 L 287.4 27.5 L 287.2 29.0 L 287.0 30.1" stroke-width="2.20"/>
<path d="M 287.0 30.1 L 287.0 30.9" stroke-width="2.40"/>
<path d="M 287.0 30.9 L 287.0 31.3" stroke-width="2.80"/>
<path d="M 287.0 31.3 L 287.3 31.2" stroke-width="3.00"/>
<path d="M 287.3 31.2 L 287.7 30.7" stroke-width="3.20"/>
<path d="M 287.7 30.7 L 288.5 29.6" stroke-width="3.00"/>
<path d="M 288.5 29.6 L 289.5 28.2" stroke-width="2.80"/>
<path d="M 289.5 28.2 L 290.8 26.7" stroke-width="2.40"/>
<path d="M 290.8 26.7 L 292.2 25.2 L 293.6 23.9 L 295.0 22.9 L 296.2 22.3" stroke-width="2.00"/>
<path d="M 296.2 22.3 L 297.2 22.1" stroke-width="2.20"/>
<path d="M 297.2 22.1 L 297.9 22.5" stroke-width="2.40"/>
<path d="M 297.9 22.5 L 298.5 23.3 L 298.8 24.5" stroke-width="2.60"/>
<path d="M 298.8 24.5 L 298.9 26.0 L 298.9 27.6" stroke-width="2.40"/>
<path d="M 298.9 27.6 L 299.0 29.1 L 299.2 30.4 L 299.5 31.3" stroke-width="2.20"/>
<path d="M 299.5 31.3 L 299.8 31.8" stroke-width="2.00"/>
<circle cx="310.6" cy="25.2" r="0.77" fill="currentColor" stroke="none"/>
<path d="M 310.6 25.2 L 310.5 24.7" stroke-width="2.00"/>
<path d="M 310.5 24.7 L 310.2 24.0" stroke-width="2.60"/>
<path d="M 310.2 24.0 L 309.7 23.4" stroke-width="2.80"/>
<path d="M 309.7 23.4 L 308.9 23.1" stroke-width="3.00"/>
<path d="M 308.9 23.1 L 307.8 23.1 L 306.5 23.6" stroke-width="2.80"/>
<path d="M 306.5 23.6 L 305.1 24.5 L 303.9 25.6" stroke-width="2.40"/>
<path d="M 303.9 25.6 L 303.1 26.8 L 302.8 28.0" stroke-width="2.20"/>
<path d="M 302.8 28.0 L 303.0 29.1 L 303.8 29.9 L 305.0 30.4 L 306.4 30.4 L 307.9 30.0" stroke-width="2.40"/>
<path d="M 307.9 30.0 L 309.5 29.2 L 310.8 28.1" stroke-width="2.20"/>
<path d="M 310.8 28.1 L 311.8 26.7 L 312.5 25.4" stroke-width="2.00"/>
<path d="M 312.5 25.4 L 312.9 24.2 L 313.0 23.1" stroke-width="2.20"/>
<path d="M 313.0 23.1 L 312.9 22.4" stroke-width="2.40"/>
<path d="M 312.9 22.4 L 312.8 22.1" stroke-width="2.80"/>
<path d="M 312.8 22.1 L 312.7 22.1 L 312.5 22.6 L 312.4 23.6" stroke-width="3.20"/>
<path d="M 312.4 23.6 L 312.4 25.1" stroke-width="3.00"/>
<path d="M 312.4 25.1 L 312.3 27.0" stroke-width="2.60"/>
<path d="M 312.3 27.0 L 312.4 29.3" stroke-width="2.20"/>
<path d="M 312.4 29.3 L 312.5 31.8" stroke-width="2.00"/>
<path d="M 312.5 31.8 L 312.5 34.5" stroke-width="1.80"/>
<path d="M 312.5 34.5 L 312.5 37.2 L 312.3 39.9" stroke-width="1.60"/>
<path d="M 312.3 39.9 L 311.9 42.4" stroke-width="1.40"/>
<path d="M 311.9 42.4 L 311.3 44.6 L 310.3 46.4 L 309.1 47.7" stroke-width="1.60"/>
<path d="M 309.1 47.7 L 307.6 48.5 L 305.9 48.7 L 304.2 48.3 L 302.7 47.4 L 301.3 46.1 L 300.5 44.4 L 300.3 42.4 L 300.8 40.4 L 302.0 38.3" stroke-width="1.80"/>
<path d="M 302.0 38.3 L 303.9 36.4 L 306.5 34.7" stroke-width="1.60"/>
<path d="M 306.5 34.7 L 309.6 33.3 L 312.9 32.1" stroke-width="1.40"/>
<path d="M 312.9 32.1 L 315.6 31.3" stroke-width="1.20"/>
<path d="M 315.6 31.3 L 317.3 30.9" stroke-width="1.00"/>
<circle cx="341.2" cy="23.2" r="0.77" fill="currentColor" stroke="none"/>
<path d="M 341.2 23.2 L 341.2 23.0" stroke-width="2.00"/>
<path d="M 341.2 23.0 L 341.0 22.6" stroke-width="2.80"/>
<path d="M 341.0 22.6 L 340.6 22.2 L 339.8 22.0" stroke-width="3.20"/>
<path d="M 339.8 22.0 L 338.7 22.1" stroke-width="3.00"/>
<path d="M 338.7 22.1 L 337.3 22.7" stroke-width="2.80"/>
<path d="M 337.3 22.7 L 335.7 23.6" stroke-width="2.40"/>
<path d="M 335.7 23.6 L 334.0 25.0" stroke-width="2.20"/>
<path d="M 334.0 25.0 L 332.6 26.5 L 331.6 28.1 L 331.2 29.5 L 331.3 30.6" stroke-width="2.00"/>
<path d="M 331.3 30.6 L 331.8 31.3" stroke-width="2.20"/>
<path d="M 331.8 31.3 L 332.7 31.5" stroke-width="2.40"/>
<path d="M 332.7 31.5 L 333.8 31.1" stroke-width="2.60"/>
<path d="M 333.8 31.1 L 335.3 30.2" stroke-width="2.40"/>
<path d="M 335.3 30.2 L 336.8 28.8" stroke-width="2.20"/>
<path d="M 336.8 28.8 L 338.5 27.2" stroke-width="2.00"/>
<path d="M 338.5 27.2 L 339.9 25.5 L 341.1 24.0 L 341.9 22.8" stroke-width="1.80"/>
<path d="M 341.9 22.8 L 342.4 22.0" stroke-width="2.00"/>
<path d="M 342.4 22.0 L 342.5 21.7" stroke-width="2.40"/>
<path d="M 342.5 21.7 L 342.3 21.8" stroke-width="3.00"/>
<path d="M 342.3 21.8 L 342.0 22.5" stroke-width="3.20"/>
<path d="M 342.0 22.5 L 341.5 23.6" stroke-width="3.00"/>
<path d="M 341.5 23.6 L 341.0 25.2" stroke-width="2.80"/>
<path d="M 341.0 25.2 L 340.5 26.9" stroke-width="2.40"/>
<path d="M 340.5 26.9 L 340.2 28.6 L 340.2 30.0 L 340.5 31.0" stroke-width="2.20"/>
<path d="M 340.5 31.0 L 341.2 31.5" stroke-width="2.40"/>
<path d="M 341.2 31.5 L 342.2 31.4 L 343.5 30.7" stroke-width="2.60"/>
<path d="M 343.5 30.7 L 345.2 29.5" stroke-width="2.20"/>
<path d="M 345.2 29.5 L 347.2 27.9" stroke-width="2.00"/>
<path d="M 347.2 27.9 L 349.2 26.1" stroke-width="1.80"/>
<path d="M 349.2 26.1 L 351.1 24.2 L 353.0 22.4 L 354.6 20.8 L 356.0 19.7" stroke-width="1.60"/>
<path d="M 356.0 19.7 L 357.3 19.0" stroke-width="1.80"/>
<path d="M 357.3 19.0 L 358.3 18.8" stroke-width="2.00"/>
<path d="M 358.3 18.8 L 359.1 19.0" stroke-width="2.20"/>
<path d="M 359.1 19.0 L 359.8 19.8 L 360.3 20.9 L 360.8 22.3 L 361.0 23.8" stroke-width="2.40"/>
<path d="M 361.0 23.8 L 361.1 25.3 L 361.0 26.6" stroke-width="2.20"/>
<path d="M 361.0 26.6 L 360.8 27.7 L 360.2 28.5" stroke-width="2.40"/>
<path d="M 360.2 28.5 L 359.5 29.0 L 358.6 29.3" stroke-width="2.60"/>
<path d="M 358.6 29.3 L 357.6 29.2 L 356.6 29.0 L 355.9 28.6" stroke-width="2.80"/>
<path d="M 355.9 28.6 L 355.4 28.1 L 355.2 27.7" stroke-width="3.00"/>
<path d="M 355.2 27.7 L 355.2 27.4" stroke-width="2.60"/>
<circle cx="375.6" cy="21.4" r="0.77" fill="currentColor" stroke="none"/>
<path d="M 375.6 21.4 L 375.6 21.5" stroke-width="2.00"/>
<path d="M 375.6 21.5 L 375.5 21.9" stroke-width="2.80"/>
<path d="M 375.5 21.9 L 375.3 22.6 L 375.0 23.6" stroke-width="3.20"/>
<path d="M 375.0 23.6 L 374.6 24.9" stroke-width="2.80"/>
<path d="M 374.6 24.9 L 374.2 26.4" stroke-width="2.60"/>
<path d="M 374.2 26.4 L 374.0 28.0 L 373.9 29.3 L 374.1 30.3" stroke-width="2.40"/>
<path d="M 374.1 30.3 L 374.5 30.8" stroke-width="2.60"/>
<path d="M 374.5 30.8 L 374.9 30.8" stroke-width="2.80"/>
<path d="M 374.9 30.8 L 375.2 30.7" stroke-width="2.60"/>
<circle cx="377.1" cy="10.4" r="0.77" fill="currentColor" stroke="none"/>
<path d="M 377.1 10.4 L 377.1 10.4" stroke-width="2.00"/>
<path d="M 377.1 10.4 L 377.2 10.4" stroke-width="2.80"/>
<path d="M 377.2 10.4 L 377.3 10.5" stroke-width="3.00"/>
<path d="M 377.3 10.5 L 377.4 10.5" stroke-width="2.60"/>
<circle cx="385.4" cy="9.7" r="0.77" fill="currentColor" stroke="none"/>
<path d="M 385.4 9.7 L 385.3 10.0" stroke-width="2.00"/>
<path d="M 385.3 10.0 L 385.2 10.8" stroke-width="2.60"/>
<path d="M 385.2 10.8 L 384.9 12.1" stroke-width="2.80"/>
<path d="M 384.9 12.1 L 384.3 13.9" stroke-width="2.40"/>
<path d="M 384.3 13.9 L 383.7 16.0" stroke-width="2.20"/>
<path d="M 383.7 16.0 L 382.9 18.5 L 382.3 21.1" stroke-width="1.80"/>
<path d="M 382.3 21.1 L 381.8 23.6 L 381.6 25.8 L 381.7 27.8" stroke-width="1.60"/>
<path d="M 381.7 27.8 L 382.2 29.2 L 383.1 30.1" stroke-width="1.80"/>
<path d="M 383.1 30.1 L 384.3 30.4" stroke-width="2.00"/>
<path d="M 384.3 30.4 L 385.7 30.1" stroke-width="2.20"/>
<path d="M 385.7 30.1 L 386.9 29.5" stroke-width="2.00"/>
<path d="M 386.9 29.5 L 387.7 29.0" stroke-width="1.80"/>
<circle cx="380.2" cy="18.0" r="0.77" fill="currentColor" stroke="none"/>
<path d="M 380.2 18.0 L 380.5 18.0" stroke-width="2.00"/>
<path d="M 380.5 18.0 L 381.3 18.0" stroke-width="2.60"/>
<path d="M 381.3 18.0 L 382.6 18.0" stroke-width="2.80"/>
<path d="M 382.6 18.0 L 384.5 17.9" stroke-width="2.40"/>
<path d="M 384.5 17.9 L 386.8 17.9" stroke-width="2.20"/>
<path d="M 386.8 17.9 L 389.2 17.8" stroke-width="1.80"/>
<path d="M 389.2 17.8 L 391.2 17.8" stroke-width="1.60"/>
<path d="M 391.2 17.8 L 392.4 17.7" stroke-width="1.40"/>
<circle cx="416.3" cy="21.8" r="0.77" fill="currentColor" stroke="none"/>
<path d="M 416.3 21.8 L 416.1 21.6" stroke-width="2.00"/>
<path d="M 416.1 21.6 L 415.8 21.4" stroke-width="2.80"/>
<path d="M 415.8 21.4 L 415.3 21.2 L 414.4 21.3" stroke-width="3.20"/>
<path d="M 414.4 21.3 L 413.3 21.8" stroke-width="3.00"/>
<path d="M 413.3 21.8 L 411.9 22.6" stroke-width="2.80"/>
<path d="M 411.9 22.6 L 410.6 23.8" stroke-width="2.40"/>
<path d="M 410.6 23.8 L 409.5 25.0 L 408.9 26.1" stroke-width="2.20"/>
<path d="M 408.9 26.1 L 408.8 27.0" stroke-width="2.40"/>
<path d="M 408.8 27.0 L 409.2 27.6" stroke-width="2.60"/>
<path d="M 409.2 27.6 L 410.0 27.7 L 411.2 27.3" stroke-width="2.80"/>
<path d="M 411.2 27.3 L 412.7 26.4" stroke-width="2.60"/>
<path d="M 412.7 26.4 L 414.3 25.2" stroke-width="2.20"/>
<path d="M 414.3 25.2 L 415.8 23.9 L 416.9 22.6 L 417.7 21.5" stroke-width="2.00"/>
<path d="M 417.7 21.5 L 418.1 20.8" stroke-width="2.20"/>
<path d="M 418.1 20.8 L 418.2 20.6" stroke-width="2.60"/>
<path d="M 418.2 20.6 L 418.2 20.7" stroke-width="3.00"/>
<path d="M 418.2 20.7 L 418.1 21.3 L 417.9 22.4" stroke-width="3.20"/>
<path d="M 417.9 22.4 L 417.6 24.1" stroke-width="2.80"/>
<path d="M 417.6 24.1 L 417.3 26.2" stroke-width="2.40"/>
<path d="M 417.3 26.2 L 417.0 28.6" stroke-width="2.00"/>
<path d="M 417.0 28.6 L 416.7 31.3" stroke-width="1.80"/>
<path d="M 416.7 31.3 L 416.4 34.0 L 415.9 36.7" stroke-width="1.60"/>
<path d="M 415.9 36.7 L 415.2 39.2 L 414.3 41.5" stroke-width="1.40"/>
<path d="M 414.3 41.5 L 413.2 43.4 L 412.0 44.9 L 410.7 45.8" stroke-width="1.60"/>
<path d="M 410.7 45.8 L 409.4 46.2" stroke-width="1.80"/>
<path d="M 409.4 46.2 L 408.1 46.0" stroke-width="2.00"/>
<path d="M 408.1 46.0 L 407.0 45.3 L 406.2 44.2 L 405.8 42.7 L 405.9 40.8" stroke-width="2.20"/>
<path d="M 405.9 40.8 L 406.6 38.8" stroke-width="2.00"/>
<path d="M 406.6 38.8 L 408.0 36.7" stroke-width="1.80"/>
<path d="M 408.0 36.7 L 410.0 34.6" stroke-width="1.60"/>
<path d="M 410.0 34.6 L 412.5 32.6 L 415.3 30.7" stroke-width="1.40"/>
<path d="M 415.3 30.7 L 418.3 29.0 L 421.3 27.5 L 424.3 26.1 L 427.1 24.9 L 429.6 23.7" stroke-width="1.20"/>
<path d="M 429.6 23.7 L 431.5 22.7 L 432.8 21.9" stroke-width="1.40"/>
<path d="M 432.8 21.9 L 433.6 21.3" stroke-width="1.80"/>
<path d="M 433.6 21.3 L 433.7 21.0" stroke-width="2.20"/>
<path d="M 433.7 21.0 L 433.3 20.9" stroke-width="2.60"/>
<path d="M 433.3 20.9 L 432.5 21.1 L 431.2 21.7" stroke-width="2.80"/>
<path d="M 431.2 21.7 L 429.7 22.7" stroke-width="2.40"/>
<path d="M 429.7 22.7 L 428.1 24.1" stroke-width="2.20"/>
<path d="M 428.1 24.1 L 426.8 25.7 L 425.9 27.3 L 425.5 28.7 L 425.8 29.8" stroke-width="2.00"/>
<path d="M 425.8 29.8 L 426.5 30.5" stroke-width="2.20"/>
<path d="M 426.5 30.5 L 427.6 30.7 L 429.0 30.4" stroke-width="2.40"/>
<path d="M 429.0 30.4 L 430.5 29.5 L 432.0 28.3" stroke-width="2.20"/>
<path d="M 432.0 28.3 L 433.2 26.8 L 433.9 25.1 L 434.3 23.6 L 434.3 22.2" stroke-width="2.00"/>
<path d="M 434.3 22.2 L 434.0 21.2" stroke-width="2.20"/>
<path d="M 434.0 21.2 L 433.7 20.7" stroke-width="2.40"/>
<path d="M 433.7 20.7 L 433.4 20.5" stroke-width="2.80"/>
<path d="M 433.4 20.5 L 433.4 20.6 L 433.8 21.1 L 434.6 21.7" stroke-width="3.20"/>
<path d="M 434.6 21.7 L 435.9 22.4" stroke-width="3.00"/>
<path d="M 435.9 22.4 L 437.6 22.9" stroke-width="2.60"/>
<path d="M 437.6 22.9 L 439.8 23.3" stroke-width="2.20"/>
<path d="M 439.8 23.3 L 442.1 23.3" stroke-width="2.00"/>
<path d="M 442.1 23.3 L 444.5 23.0 L 446.7 22.5 L 448.5 21.7 L 449.7 20.8" stroke-width="1.80"/>
<path d="M 449.7 20.8 L 450.3 19.8" stroke-width="2.00"/>
<path d="M 450.3 19.8 L 450.2 19.0" stroke-width="2.20"/>
<path d="M 450.2 19.0 L 449.6 18.4" stroke-width="2.40"/>
<path d="M 449.6 18.4 L 448.4 18.1" stroke-width="2.60"/>
<path d="M 448.4 18.1 L 446.9 18.3" stroke-width="2.40"/>
<path d="M 446.9 18.3 L 445.1 19.0" stroke-width="2.20"/>
<path d="M 445.1 19.0 L 443.4 20.2 L 441.9 21.7" stroke-width="2.00"/>
<path d="M 441.9 21.7 L 441.0 23.4 L 440.6 25.1 L 440.8 26.8" stroke-width="1.80"/>
<path d="M 440.8 26.8 L 441.5 28.1 L 442.7 29.1 L 444.3 29.6 L 446.2 29.6 L 448.2 29.0" stroke-width="2.00"/>
<path d="M 448.2 29.0 L 450.4 28.0" stroke-width="1.80"/>
<path d="M 450.4 28.0 L 452.5 26.6 L 454.6 25.0 L 456.5 23.3 L 458.2 21.8 L 459.7 20.5 L 461.1 19.6" stroke-width="1.60"/>
<path d="M 461.1 19.6 L 462.3 19.1" stroke-width="1.80"/>
<path d="M 462.3 19.1 L 463.3 19.1" stroke-width="2.00"/>
<path d="M 463.3 19.1 L 464.3 19.4" stroke-width="2.20"/>
<path d="M 464.3 19.4 L 465.1 20.3 L 465.8 21.4 L 466.2 22.9" stroke-width="2.40"/>
<path d="M 466.2 22.9 L 466.3 24.4 L 466.0 25.8 L 465.4 27.2 L 464.4 28.3 L 463.1 29.1 L 461.6 29.6 L 459.9 29.8" stroke-width="2.20"/>
<path d="M 459.9 29.8 L 458.5 29.7" stroke-width="2.00"/>
<path d="M 458.5 29.7 L 457.6 29.6" stroke-width="1.80"/>
</svg>
