<svg xmlns="http://www.w3.org/2000/svg" viewBox="0 0 405.0 43.0" fill="none" stroke="currentColor" stroke-linecap="round" stroke-linejoin="round" role="img">
<circle cx="14.6" cy="15.5" r="0.77" fill="currentColor" stroke="none"/>
<path d="M 14.6 15.5 L 14.4 15.3" stroke-width="2.00"/>
<path d="M 14.4 15.3 L 13.9 15.0" stroke-width="2.60"/>
<path d="M 13.9 15.0 L 13.2 14.8 L 12.2 15.0" stroke-width="3.00"/>
<path d="M 12.2 15.0 L 11.1 15.5" stroke-width="2.80"/>
<path d="M 11.1 15.5 L 9.7 16.6" stroke-width="2.40"/>
<path d="M 9.7 16.6 L 8.4 18.2" stroke-width="2.20"/>
<path d="M 8.4 18.2 L 7.2 20.0 L 6.4 22.0 L 6.0 23.8 L 6.1 25.3" stroke-width="1.80"/>
<path d="M 6.1 25.3 L 6.6 26.2" stroke-width="2.00"/>
<path d="M 6.6 26.2 L 7.5 26.5 L 8.6 26.0 L 10.0 25.0" stroke-width="2.20"/>
<path d="M 10.0 25.0 L 11.4 23.4" stroke-width="2.00"/>
<path d="M 11.4 23.4 L 12.7 21.6" stroke-width="1.80"/>
<path d="M 12.7 21.6 L 14.0 19.6 L 14.9 17.8 L 15.6 16.3" stroke-width="1.60"/>
<path d="M 15.6 16.3 L 16.0 15.2" stroke-width="1.80"/>
<path d="M 16.0 15.2 L 16.1 14.6" stroke-width="2.00"/>
<path d="M 16.1 14.6 L 16.1 14.6" stroke-width="2.60"/>
<path d="M 16.1 14.6 L 16.0 15.2 L 15.8 16.4" stroke-width="3.00"/>
<path d="M 15.8 16.4 L 15.6 18.2" stroke-width="2.60"/>
<path d="M 15.6 18.2 L 15.4 20.5" stroke-width="2.20"/>
<path d="M 15.4 20.5 L 15.3 22.9" stroke-width="1.80"/>
<path d="M 15.3 22.9 L 15.5 25.2 L 15.9 27.1 L 16.4 28.4 L 16.7 29.0" stroke-width="1.60"/>
<circle cx="36.7" cy="8.4" r="0.77" fill="currentColor" stroke="none"/>
<path d="M 36.7 8.4 L 36.5 9.1" stroke-width="1.80"/>
<path d="M 36.5 9.1 L 36.3 10.3 L 36.1 12.2" stroke-width="2.20"/>
<path d="M 36.1 12.2 L 35.8 14.5" stroke-width="2.00"/>
<path d="M 35.8 14.5 L 35.6 17.0" stroke-width="1.80"/>
<path d="M 35.6 17.0 L 35.4 19.6" stroke-width="1.60"/>
<path d="M 35.4 19.6 L 35.2 22.0 L 35.3 24.1" stroke-width="1.40"/>
<path d="M 35.3 24.1 L 35.5 25.7" stroke-width="1.60"/>
<path d="M 35.5 25.7 L 36.0 26.6" stroke-width="1.80"/>
<path d="M 36.0 26.6 L 36.8 26.8" stroke-width="2.00"/>
<path d="M 36.8 26.8 L 37.8 26.1 L 39.1 24.8" stroke-width="2.20"/>
<path d="M 39.1 24.8 L 40.4 23.1" stroke-width="2.00"/>
<path d="M 40.4 23.1 L 41.8 21.1" stroke-width="1.80"/>
<path d="M 41.8 21.1 L 42.9 19.2 L 43.9 17.6" stroke-width="1.60"/>
<path d="M 43.9 17.6 L 44.5 16.5" stroke-width="1.80"/>
<path d="M 44.5 16.5 L 44.9 15.9" stroke-width="2.00"/>
<path d="M 44.9 15.9 L 45.0 15.9" stroke-width="2.40"/>
<path d="M 45.0 15.9 L 45.0 16.4 L 44.9 17.5" stroke-width="2.80"/>
<path d="M 44.9 17.5 L 44.7 19.2" stroke-width="2.60"/>
<path d="M 44.7 19.2 L 44.6 21.1" stroke-width="2.20"/>
<path d="M 44.6 21.1 L 44.6 22.9 L 44.6 24.4 L 44.7 25.4" stroke-width="2.00"/>
<path d="M 44.7 25.4 L 44.8 25.9" stroke-width="1.80"/>
<circle cx="46.0" cy="10.0" r="0.77" fill="currentColor" stroke="none"/>
<path d="M 46.0 10.0 L 46.0 10.0" stroke-width="2.00"/>
<path d="M 46.0 10.0 L 46.2 10.1" stroke-width="2.80"/>
<path d="M 46.2 10.1 L 46.4 10.3" stroke-width="3.00"/>
<path d="M 46.4 10.3 L 46.5 10.5" stroke-width="2.60"/>
<circle cx="50.7" cy="16.7" r="0.77" fill="currentColor" stroke="none"/>
<path d="M 50.7 16.7 L 50.6 17.3" stroke-width="1.80"/>
<path d="M 50.6 17.3 L 50.4 18.5 L 50.2 20.1" stroke-width="2.40"/>
<path d="M 50.2 20.1 L 49.9 22.0" stroke-width="2.20"/>
<path d="M 49.9 22.0 L 49.8 23.8 L 49.7 25.3 L 49.6 26.5" stroke-width="2.00"/>
<path d="M 49.6 26.5 L 49.8 27.2" stroke-width="2.20"/>
<path d="M 49.8 27.2 L 50.0 27.3" stroke-width="2.60"/>
<path d="M 50.0 27.3 L 50.3 26.8" stroke-width="3.00"/>
<path d="M 50.3 26.8 L 50.8 25.6" stroke-width="2.80"/>
<path d="M 50.8 25.6 L 51.5 24.0" stroke-width="2.60"/>
<path d="M 51.5 24.0 L 52.4 22.2" stroke-width="2.20"/>
<path d="M 52.4 22.2 L 53.5 20.3" stroke-width="2.00"/>
<path d="M 53.5 20.3 L 54.6 18.7 L 55.9 17.4 L 57.1 16.6" stroke-width="1.80"/>
<path d="M 57.1 16.6 L 58.2 16.3" stroke-width="2.00"/>
<path d="M 58.2 16.3 L 59.2 16.5 L 59.9 17.3 L 60.4 18.6 L 60.6 20.4" stroke-width="2.20"/>
<path d="M 60.6 20.4 L 60.6 22.3" stroke-width="2.00"/>
<path d="M 60.6 22.3 L 60.5 24.2 L 60.4 25.9" stroke-width="1.80"/>
<path d="M 60.4 25.9 L 60.5 27.1 L 60.6 27.8 L 60.8 28.1" stroke-width="2.00"/>
<circle cx="65.4" cy="23.5" r="0.77" fill="currentColor" stroke="none"/>
<path d="M 65.4 23.5 L 65.8 23.3" stroke-width="2.00"/>
<path d="M 65.8 23.3 L 66.5 22.7" stroke-width="2.40"/>
<path d="M 66.5 22.7 L 67.5 21.8" stroke-width="2.60"/>
<path d="M 67.5 21.8 L 68.6 20.7" stroke-width="2.40"/>
<path d="M 68.6 20.7 L 69.5 19.4 L 70.2 18.0 L 70.6 16.8 L 70.6 15.7" stroke-width="2.20"/>
<path d="M 70.6 15.7 L 70.4 14.9" stroke-width="2.40"/>
<path d="M 70.4 14.9 L 69.9 14.5" stroke-width="2.60"/>
<path d="M 69.9 14.5 L 69.1 14.6 L 68.2 15.2" stroke-width="2.80"/>
<path d="M 68.2 15.2 L 67.1 16.4" stroke-width="2.60"/>
<path d="M 67.1 16.4 L 66.1 18.0" stroke-width="2.20"/>
<path d="M 66.1 18.0 L 65.4 20.0" stroke-width="2.00"/>
<path d="M 65.4 20.0 L 65.0 22.1 L 65.3 24.1 L 66.1 25.6 L 67.5 26.7 L 69.5 27.1" stroke-width="1.80"/>
<path d="M 69.5 27.1 L 71.9 26.7 L 74.6 25.8" stroke-width="1.60"/>
<path d="M 74.6 25.8 L 76.9 24.7" stroke-width="1.40"/>
<path d="M 76.9 24.7 L 78.4 23.8" stroke-width="1.20"/>
<circle cx="91.9" cy="16.6" r="0.77" fill="currentColor" stroke="none"/>
<path d="M 91.9 16.6 L 91.7 16.5" stroke-width="2.00"/>
<path d="M 91.7 16.5 L 91.3 16.4" stroke-width="2.80"/>
<path d="M 91.3 16.4 L 90.6 16.5 L 89.8 16.9" stroke-width="3.00"/>
<path d="M 89.8 16.9 L 88.8 17.8" stroke-width="2.80"/>
<path d="M 88.8 17.8 L 87.8 19.1" stroke-width="2.40"/>
<path d="M 87.8 19.1 L 87.0 20.7" stroke-width="2.20"/>
<path d="M 87.0 20.7 L 86.6 22.5 L 86.6 24.2 L 87.2 25.5 L 88.2 26.3 L 89.6 26.6 L 91.2 26.2 L 92.8 25.3" stroke-width="2.00"/>
<path d="M 92.8 25.3 L 94.4 24.0 L 95.6 22.3 L 96.4 20.6 L 96.6 18.9 L 96.3 17.5" stroke-width="1.80"/>
<path d="M 96.3 17.5 L 95.5 16.5 L 94.5 15.8" stroke-width="2.00"/>
<path d="M 94.5 15.8 L 93.3 15.6 L 92.4 15.7" stroke-width="2.20"/>
<path d="M 92.4 15.7 L 91.9 15.9" stroke-width="2.00"/>
<circle cx="109.1" cy="9.2" r="0.77" fill="currentColor" stroke="none"/>
<path d="M 109.1 9.2 L 108.9 8.5" stroke-width="1.80"/>
<path d="M 108.9 8.5 L 108.5 7.6" stroke-width="2.40"/>
<path d="M 108.5 7.6 L 107.9 6.7 L 107.3 6.1" stroke-width="2.60"/>
<path d="M 107.3 6.1 L 106.6 6.0 L 105.9 6.5" stroke-width="2.80"/>
<path d="M 105.9 6.5 L 105.2 7.7" stroke-width="2.60"/>
<path d="M 105.2 7.7 L 104.4 9.5" stroke-width="2.40"/>
<path d="M 104.4 9.5 L 103.8 11.9" stroke-width="2.00"/>
<path d="M 103.8 11.9 L 103.4 14.7" stroke-width="1.60"/>
<path d="M 103.4 14.7 L 103.1 17.9 L 103.0 21.3" stroke-width="1.40"/>
<path d="M 103.0 21.3 L 103.1 24.5 L 103.3 27.5 L 103.5 29.6 L 103.7 30.9" stroke-width="1.20"/>
<circle cx="100.7" cy="18.3" r="0.77" fill="currentColor" stroke="none"/>
<path d="M 100.7 18.3 L 101.0 18.3" stroke-width="2.00"/>
<path d="M 101.0 18.3 L 101.7 18.3" stroke-width="2.60"/>
<path d="M 101.7 18.3 L 102.8 18.4" stroke-width="2.80"/>
<path d="M 102.8 18.4 L 104.4 18.4" stroke-width="2.60"/>
<path d="M 104.4 18.4 L 106.4 18.5" stroke-width="2.20"/>
<path d="M 106.4 18.5 L 108.6 18.6" stroke-width="2.00"/>
<path d="M 108.6 18.6 L 110.4 18.6" stroke-width="1.80"/>
<path d="M 110.4 18.6 L 111.6 18.7" stroke-width="1.40"/>
<circle cx="123.3" cy="16.5" r="0.77" fill="currentColor" stroke="none"/>
<path d="M 123.3 16.5 L 123.3 16.6" stroke-width="2.00"/>
<path d="M 123.3 16.6 L 123.2 17.0" stroke-width="2.80"/>
<path d="M 123.2 17.0 L 123.1 17.7" stroke-width="3.20"/>
<path d="M 123.1 17.7 L 122.9 18.8" stroke-width="3.00"/>
<path d="M 122.9 18.8 L 122.7 20.3" stroke-width="2.60"/>
<path d="M 122.7 20.3 L 122.5 22.1" stroke-width="2.40"/>
<path d="M 122.5 22.1 L 122.3 23.8" stroke-width="2.20"/>
<path d="M 122.3 23.8 L 122.3 25.4 L 122.4 26.6" stroke-width="2.00"/>
<path d="M 122.4 26.6 L 122.7 27.3" stroke-width="2.20"/>
<path d="M 122.7 27.3 L 122.9 27.5 L 123.1 27.5" stroke-width="2.40"/>
<circle cx="123.7" cy="9.7" r="0.77" fill="currentColor" stroke="none"/>
<path d="M 123.7 9.7 L 123.7 9.7" stroke-width="2.00"/>
<path d="M 123.7 9.7 L 123.8 9.8" stroke-width="2.80"/>
<path d="M 123.8 9.8 L 123.9 9.8" stroke-width="3.00"/>
<path d="M 123.9 9.8 L 124.0 9.9" stroke-width="2.60"/>
<circle cx="128.2" cy="16.4" r="0.77" fill="currentColor" stroke="none"/>
<path d="M 128.2 16.4 L 128.2 16.5" stroke-width="2.00"/>
<path d="M 128.2 16.5 L 128.2 16.7" stroke-width="2.80"/>
<path d="M 128.2 16.7 L 128.2 17.3 L 128.1 18.3" stroke-width="3.20"/>
<path d="M 128.1 18.3 L 128.1 19.7" stroke-width="2.80"/>
<path d="M 128.1 19.7 L 128.0 21.2" stroke-width="2.60"/>
<path d="M 128.0 21.2 L 127.9 22.7" stroke-width="2.40"/>
<path d="M 127.9 22.7 L 127.9 24.0" stroke-width="2.20"/>
<path d="M 127.9 24.0 L 127.9 24.9" stroke-width="2.40"/>
<path d="M 127.9 24.9 L 128.1 25.3" stroke-width="2.60"/>
<path d="M 128.1 25.3 L 128.4 25.3" stroke-width="3.00"/>
<path d="M 128.4 25.3 L 128.8 24.7" stroke-width="3.20"/>
<path d="M 128.8 24.7 L 129.4 23.6" stroke-width="3.00"/>
<path d="M 129.4 23.6 L 130.1 22.0" stroke-width="2.60"/>
<path d="M 130.1 22.0 L 131.1 20.3" stroke-width="2.20"/>
<path d="M 131.1 20.3 L 132.2 18.6" stroke-width="2.00"/>
<path d="M 132.2 18.6 L 133.4 17.1 L 134.6 16.0 L 135.8 15.3" stroke-width="1.80"/>
<path d="M 135.8 15.3 L 136.8 15.0" stroke-width="2.00"/>
<path d="M 136.8 15.0 L 137.7 15.2" stroke-width="2.20"/>
<path d="M 137.7 15.2 L 138.4 16.0 L 138.9 17.1" stroke-width="2.40"/>
<path d="M 138.9 17.1 L 139.1 18.8" stroke-width="2.20"/>
<path d="M 139.1 18.8 L 139.2 20.7 L 139.2 22.6" stroke-width="2.00"/>
<path d="M 139.2 22.6 L 139.1 24.1" stroke-width="1.80"/>
<path d="M 139.1 24.1 L 139.1 25.0" stroke-width="1.60"/>
<circle cx="145.9" cy="8.6" r="0.77" fill="currentColor" stroke="none"/>
<path d="M 145.9 8.6 L 145.9 8.9" stroke-width="2.00"/>
<path d="M 145.9 8.9 L 146.0 9.5" stroke-width="2.60"/>
<path d="M 146.0 9.5 L 146.0 10.6" stroke-width="2.80"/>
<path d="M 146.0 10.6 L 146.1 12.2" stroke-width="2.60"/>
<path d="M 146.1 12.2 L 146.0 14.1" stroke-width="2.20"/>
<path d="M 146.0 14.1 L 145.9 16.3" stroke-width="2.00"/>
<path d="M 145.9 16.3 L 145.7 18.6" stroke-width="1.80"/>
<path d="M 145.7 18.6 L 145.3 20.8 L 144.9 22.8 L 144.5 24.5" stroke-width="1.60"/>
<path d="M 144.5 24.5 L 144.1 25.7" stroke-width="1.80"/>
<path d="M 144.1 25.7 L 143.9 26.5" stroke-width="2.00"/>
<path d="M 143.9 26.5 L 143.9 26.6" stroke-width="2.40"/>
<path d="M 143.9 26.6 L 144.2 26.1 L 144.8 25.0" stroke-width="2.80"/>
<path d="M 144.8 25.0 L 145.8 23.4" stroke-width="2.40"/>
<path d="M 145.8 23.4 L 147.0 21.6" stroke-width="2.00"/>
<path d="M 147.0 21.6 L 148.5 19.7" stroke-width="1.80"/>
<path d="M 148.5 19.7 L 150.1 18.0 L 151.7 16.5 L 153.1 15.3" stroke-width="1.60"/>
<path d="M 153.1 15.3 L 154.2 14.5 L 154.9 14.1 L 155.2 13.9" stroke-width="1.80"/>
<circle cx="147.5" cy="20.2" r="0.77" fill="currentColor" stroke="none"/>
<path d="M 147.5 20.2 L 147.8 20.6" stroke-width="1.80"/>
<path d="M 147.8 20.6 L 148.4 21.4" stroke-width="2.40"/>
<path d="M 148.4 21.4 L 149.3 22.4" stroke-width="2.60"/>
<path d="M 149.3 22.4 L 150.2 23.5" stroke-width="2.40"/>
<path d="M 150.2 23.5 L 151.0 24.7 L 151.8 25.7 L 152.2 26.5" stroke-width="2.20"/>
<path d="M 152.2 26.5 L 152.5 27.0" stroke-width="2.00"/>
<circle cx="159.2" cy="26.3" r="0.77" fill="currentColor" stroke="none"/>
<path d="M 159.2 26.3 L 159.2 26.6" stroke-width="2.00"/>
<path d="M 159.2 26.6 L 159.2 27.4" stroke-width="2.60"/>
<path d="M 159.2 27.4 L 159.1 28.5" stroke-width="2.80"/>
<path d="M 159.1 28.5 L 158.8 29.8" stroke-width="2.60"/>
<path d="M 158.8 29.8 L 158.4 31.3" stroke-width="2.40"/>
<path d="M 158.4 31.3 L 158.0 32.8" stroke-width="2.20"/>
<path d="M 158.0 32.8 L 157.6 33.8" stroke-width="2.00"/>
<path d="M 157.6 33.8 L 157.4 34.4" stroke-width="1.80"/>
<circle cx="177.6" cy="11.9" r="0.77" fill="currentColor" stroke="none"/>
<path d="M 177.6 11.9 L 177.7 12.1" stroke-width="2.00"/>
<path d="M 177.7 12.1 L 177.7 12.6" stroke-width="2.80"/>
<path d="M 177.7 12.6 L 177.6 13.5" stroke-width="3.00"/>
<path d="M 177.6 13.5 L 177.5 14.9" stroke-width="2.80"/>
<path d="M 177.5 14.9 L 177.4 16.7" stroke-width="2.40"/>
<path d="M 177.4 16.7 L 177.2 18.8" stroke-width="2.00"/>
<path d="M 177.2 18.8 L 177.1 21.1" stroke-width="1.80"/>
<path d="M 177.1 21.1 L 177.1 23.4 L 177.1 25.5 L 177.3 27.3 L 177.4 28.4 L 177.5 29.1" stroke-width="1.60"/>
<circle cx="171.6" cy="19.7" r="0.77" fill="currentColor" stroke="none"/>
<path d="M 171.6 19.7 L 171.7 19.6" stroke-width="2.00"/>
<path d="M 171.7 19.6 L 172.1 19.6" stroke-width="2.80"/>
<path d="M 172.1 19.6 L 172.9 19.7" stroke-width="3.20"/>
<path d="M 172.9 19.7 L 174.2 19.7" stroke-width="3.00"/>
<path d="M 174.2 19.7 L 176.1 19.6" stroke-width="2.40"/>
<path d="M 176.1 19.6 L 178.2 19.5" stroke-width="2.20"/>
<path d="M 178.2 19.5 L 180.0 19.3" stroke-width="1.80"/>
<path d="M 180.0 19.3 L 181.2 19.1" stroke-width="1.60"/>
<circle cx="186.2" cy="12.0" r="0.77" fill="currentColor" stroke="none"/>
<path d="M 186.2 12.0 L 186.2 12.3" stroke-width="2.00"/>
<path d="M 186.2 12.3 L 186.3 13.0" stroke-width="2.60"/>
<path d="M 186.3 13.0 L 186.4 14.1" stroke-width="2.80"/>
<path d="M 186.4 14.1 L 186.5 15.7" stroke-width="2.60"/>
<path d="M 186.5 15.7 L 186.5 17.5" stroke-width="2.20"/>
<path d="M 186.5 17.5 L 186.4 19.6" stroke-width="2.00"/>
<path d="M 186.4 19.6 L 186.3 21.7 L 186.1 23.6 L 186.1 25.1" stroke-width="1.80"/>
<path d="M 186.1 25.1 L 186.3 26.1" stroke-width="2.00"/>
<path d="M 186.3 26.1 L 186.6 26.4" stroke-width="2.20"/>
<path d="M 186.6 26.4 L 187.1 26.1 L 187.8 25.2 L 188.6 23.9" stroke-width="2.60"/>
<path d="M 188.6 23.9 L 189.5 22.4" stroke-width="2.20"/>
<path d="M 189.5 22.4 L 190.6 20.8 L 191.7 19.3" stroke-width="2.00"/>
<path d="M 191.7 19.3 L 192.8 18.1" stroke-width="1.80"/>
<path d="M 192.8 18.1 L 193.9 17.3 L 195.0 16.8" stroke-width="2.00"/>
<path d="M 195.0 16.8 L 195.9 16.9" stroke-width="2.20"/>
<path d="M 195.9 16.9 L 196.7 17.4 L 197.2 18.4 L 197.5 19.7" stroke-width="2.40"/>
<path d="M 197.5 19.7 L 197.7 21.3 L 197.8 23.0" stroke-width="2.20"/>
<path d="M 197.8 23.0 L 197.9 24.5 L 198.2 25.7" stroke-width="2.00"/>
<path d="M 198.2 25.7 L 198.6 26.4" stroke-width="2.20"/>
<path d="M 198.6 26.4 L 199.3 26.6" stroke-width="2.40"/>
<path d="M 199.3 26.6 L 200.2 26.2 L 201.3 25.3" stroke-width="2.60"/>
<path d="M 201.3 25.3 L 202.4 24.0" stroke-width="2.20"/>
<path d="M 202.4 24.0 L 203.6 22.3" stroke-width="2.00"/>
<path d="M 203.6 22.3 L 204.6 20.6 L 205.5 19.1 L 206.2 17.9" stroke-width="1.80"/>
<path d="M 206.2 17.9 L 206.6 17.2" stroke-width="2.00"/>
<path d="M 206.6 17.2 L 206.8 16.9" stroke-width="2.40"/>
<path d="M 206.8 16.9 L 206.8 17.1" stroke-width="2.80"/>
<path d="M 206.8 17.1 L 206.6 17.9" stroke-width="3.20"/>
<path d="M 206.6 17.9 L 206.4 19.2" stroke-width="2.80"/>
<path d="M 206.4 19.2 L 206.2 20.9" stroke-width="2.60"/>
<path d="M 206.2 20.9 L 206.0 22.6" stroke-width="2.20"/>
<path d="M 206.0 22.6 L 206.0 24.2 L 206.0 25.4" stroke-width="2.00"/>
<path d="M 206.0 25.4 L 206.2 26.2" stroke-width="2.20"/>
<path d="M 206.2 26.2 L 206.4 26.4" stroke-width="2.60"/>
<path d="M 206.4 26.4 L 206.6 26.2" stroke-width="3.00"/>
<path d="M 206.6 26.2 L 206.7 25.5" stroke-width="3.20"/>
<path d="M 206.7 25.5 L 206.9 24.7" stroke-width="3.00"/>
<path d="M 206.9 24.7 L 206.9 24.0" stroke-width="2.40"/>
<circle cx="205.8" cy="9.7" r="0.77" fill="currentColor" stroke="none"/>
<path d="M 205.8 9.7 L 205.8 9.7" stroke-width="2.00"/>
<path d="M 205.8 9.7 L 205.9 9.6" stroke-width="2.80"/>
<path d="M 205.9 9.6 L 206.0 9.6" stroke-width="3.00"/>
<path d="M 206.0 9.6 L 206.1 9.5" stroke-width="2.60"/>
<circle cx="212.3" cy="14.6" r="0.77" fill="currentColor" stroke="none"/>
<path d="M 212.3 14.6 L 212.2 15.2" stroke-width="1.80"/>
<path d="M 212.2 15.2 L 212.2 16.3 L 212.1 17.8" stroke-width="2.40"/>
<path d="M 212.1 17.8 L 212.0 19.5" stroke-width="2.20"/>
<path d="M 212.0 19.5 L 211.9 21.2 L 211.9 22.8 L 211.9 24.1" stroke-width="2.00"/>
<path d="M 211.9 24.1 L 212.0 25.0" stroke-width="2.20"/>
<path d="M 212.0 25.0 L 212.2 25.3" stroke-width="2.40"/>
<path d="M 212.2 25.3 L 212.5 25.1 L 212.9 24.4" stroke-width="3.00"/>
<path d="M 212.9 24.4 L 213.5 23.2" stroke-width="2.80"/>
<path d="M 213.5 23.2 L 214.2 21.6" stroke-width="2.40"/>
<path d="M 214.2 21.6 L 215.0 19.9" stroke-width="2.20"/>
<path d="M 215.0 19.9 L 216.0 18.1" stroke-width="2.00"/>
<path d="M 216.0 18.1 L 217.0 16.6 L 218.0 15.5" stroke-width="1.80"/>
<path d="M 218.0 15.5 L 218.9 14.8" stroke-width="2.00"/>
<path d="M 218.9 14.8 L 219.7 14.5" stroke-width="2.20"/>
<path d="M 219.7 14.5 L 220.3 14.8" stroke-width="2.40"/>
<path d="M 220.3 14.8 L 220.8 15.6 L 221.1 16.9" stroke-width="2.60"/>
<path d="M 221.1 16.9 L 221.2 18.6" stroke-width="2.40"/>
<path d="M 221.2 18.6 L 221.2 20.5 L 221.1 22.4" stroke-width="2.00"/>
<path d="M 221.1 22.4 L 221.1 24.0 L 221.1 25.1 L 221.2 25.7" stroke-width="1.80"/>
<circle cx="227.4" cy="8.0" r="0.77" fill="currentColor" stroke="none"/>
<path d="M 227.4 8.0 L 227.5 8.2" stroke-width="2.00"/>
<path d="M 227.5 8.2 L 227.7 8.5" stroke-width="2.80"/>
<path d="M 227.7 8.5 L 227.8 9.3 L 227.9 10.6" stroke-width="3.00"/>
<path d="M 227.9 10.6 L 227.8 12.2" stroke-width="2.60"/>
<path d="M 227.8 12.2 L 227.6 14.1" stroke-width="2.20"/>
<path d="M 227.6 14.1 L 227.3 16.2" stroke-width="2.00"/>
<path d="M 227.3 16.2 L 227.0 18.3 L 226.7 20.2 L 226.4 21.9 L 226.3 23.1" stroke-width="1.80"/>
<path d="M 226.3 23.1 L 226.3 23.9" stroke-width="2.00"/>
<path d="M 226.3 23.9 L 226.5 24.2" stroke-width="2.40"/>
<path d="M 226.5 24.2 L 227.0 24.0 L 227.7 23.2" stroke-width="2.80"/>
<path d="M 227.7 23.2 L 228.8 22.1" stroke-width="2.60"/>
<path d="M 228.8 22.1 L 230.0 20.7" stroke-width="2.20"/>
<path d="M 230.0 20.7 L 231.3 19.3 L 232.6 18.0" stroke-width="2.00"/>
<path d="M 232.6 18.0 L 233.9 16.9 L 235.0 16.0" stroke-width="1.80"/>
<path d="M 235.0 16.0 L 235.9 15.4 L 236.5 14.9 L 236.8 14.7" stroke-width="2.00"/>
<circle cx="231.0" cy="18.2" r="0.77" fill="currentColor" stroke="none"/>
<path d="M 231.0 18.2 L 231.1 18.5" stroke-width="2.00"/>
<path d="M 231.1 18.5 L 231.3 19.1" stroke-width="2.60"/>
<path d="M 231.3 19.1 L 231.6 20.0" stroke-width="2.80"/>
<path d="M 231.6 20.0 L 232.1 21.2" stroke-width="2.60"/>
<path d="M 232.1 21.2 L 232.8 22.4 L 233.5 23.6" stroke-width="2.40"/>
<path d="M 233.5 23.6 L 234.5 24.7 L 235.6 25.5 L 236.8 25.8 L 238.1 25.5" stroke-width="2.20"/>
<path d="M 238.1 25.5 L 239.1 24.9" stroke-width="2.00"/>
<path d="M 239.1 24.9 L 239.8 24.4" stroke-width="1.80"/>
<circle cx="242.1" cy="16.7" r="0.77" fill="currentColor" stroke="none"/>
<path d="M 242.1 16.7 L 242.1 17.0" stroke-width="2.00"/>
<path d="M 242.1 17.0 L 242.1 17.8" stroke-width="2.60"/>
<path d="M 242.1 17.8 L 242.1 18.9" stroke-width="2.80"/>
<path d="M 242.1 18.9 L 242.2 20.3" stroke-width="2.60"/>
<path d="M 242.2 20.3 L 242.3 22.0" stroke-width="2.40"/>
<path d="M 242.3 22.0 L 242.5 23.6" stroke-width="2.20"/>
<path d="M 242.5 23.6 L 242.7 25.0" stroke-width="2.00"/>
<path d="M 242.7 25.0 L 243.0 26.0" stroke-width="2.20"/>
<path d="M 243.0 26.0 L 243.2 26.3" stroke-width="2.40"/>
<path d="M 243.2 26.3 L 243.4 26.3" stroke-width="2.80"/>
<path d="M 243.4 26.3 L 243.5 26.0" stroke-width="2.60"/>
<circle cx="243.3" cy="9.6" r="0.77" fill="currentColor" stroke="none"/>
<path d="M 243.3 9.6 L 243.4 9.6" stroke-width="2.00"/>
<path d="M 243.4 9.6 L 243.4 9.6" stroke-width="2.80"/>
<path d="M 243.4 9.6 L 243.5 9.7" stroke-width="3.20"/>
<path d="M 243.5 9.7 L 243.6 9.8" stroke-width="3.00"/>
<path d="M 243.6 9.8 L 243.7 9.9" stroke-width="2.60"/>
<circle cx="249.1" cy="15.6" r="0.77" fill="currentColor" stroke="none"/>
<path d="M 249.1 15.6 L 249.2 16.1" stroke-width="2.00"/>
<path d="M 249.2 16.1 L 249.3 16.9" stroke-width="2.40"/>
<path d="M 249.3 16.9 L 249.3 18.2" stroke-width="2.60"/>
<path d="M 249.3 18.2 L 249.4 19.8" stroke-width="2.40"/>
<path d="M 249.4 19.8 L 249.4 21.4 L 249.4 22.9" stroke-width="2.20"/>
<path d="M 249.4 22.9 L 249.3 24.2" stroke-width="2.00"/>
<path d="M 249.3 24.2 L 249.4 25.1" stroke-width="2.20"/>
<path d="M 249.4 25.1 L 249.5 25.5" stroke-width="2.60"/>
<path d="M 249.5 25.5 L 249.8 25.3 L 250.3 24.5" stroke-width="3.00"/>
<path d="M 250.3 24.5 L 250.9 23.3" stroke-width="2.80"/>
<path d="M 250.9 23.3 L 251.8 21.7" stroke-width="2.40"/>
<path d="M 251.8 21.7 L 252.8 20.1" stroke-width="2.20"/>
<path d="M 252.8 20.1 L 254.0 18.5" stroke-width="2.00"/>
<path d="M 254.0 18.5 L 255.3 17.1 L 256.6 16.1 L 257.8 15.4" stroke-width="1.80"/>
<path d="M 257.8 15.4 L 258.8 15.1" stroke-width="2.00"/>
<path d="M 258.8 15.1 L 259.7 15.3" stroke-width="2.20"/>
<path d="M 259.7 15.3 L 260.5 16.0 L 261.0 17.1 L 261.3 18.5" stroke-width="2.40"/>
<path d="M 261.3 18.5 L 261.4 20.2" stroke-width="2.20"/>
<path d="M 261.4 20.2 L 261.5 21.9 L 261.7 23.5 L 261.8 24.6" stroke-width="2.00"/>
<path d="M 261.8 24.6 L 262.0 25.3" stroke-width="1.80"/>
<circle cx="273.4" cy="17.6" r="0.77" fill="currentColor" stroke="none"/>
<path d="M 273.4 17.6 L 273.2 17.3" stroke-width="2.00"/>
<path d="M 273.2 17.3 L 272.7 16.9" stroke-width="2.60"/>
<path d="M 272.7 16.9 L 271.9 16.5 L 270.9 16.4" stroke-width="2.80"/>
<path d="M 270.9 16.4 L 269.6 16.6" stroke-width="2.60"/>
<path d="M 269.6 16.6 L 268.3 17.2 L 267.1 18.0" stroke-width="2.40"/>
<path d="M 267.1 18.0 L 266.2 19.1 L 265.8 20.2" stroke-width="2.20"/>
<path d="M 265.8 20.2 L 266.0 21.2 L 266.6 22.0 L 267.8 22.5 L 269.3 22.7" stroke-width="2.40"/>
<path d="M 269.3 22.7 L 270.9 22.4" stroke-width="2.20"/>
<path d="M 270.9 22.4 L 272.6 21.7 L 274.1 20.7" stroke-width="2.00"/>
<path d="M 274.1 20.7 L 275.3 19.7" stroke-width="1.80"/>
<path d="M 275.3 19.7 L 276.1 18.7" stroke-width="2.00"/>
<path d="M 276.1 18.7 L 276.5 17.9" stroke-width="2.20"/>
<path d="M 276.5 17.9 L 276.6 17.4" stroke-width="2.40"/>
<path d="M 276.6 17.4 L 276.6 17.1" stroke-width="2.80"/>
<path d="M 276.6 17.1 L 276.5 17.2 L 276.4 17.7 L 276.3 18.6" stroke-width="3.20"/>
<path d="M 276.3 18.6 L 276.2 20.0" stroke-width="3.00"/>
<path d="M 276.2 20.0 L 276.2 21.7" stroke-width="2.60"/>
<path d="M 276.2 21.7 L 276.3 23.6" stroke-width="2.20"/>
<path d="M 276.3 23.6 L 276.5 25.6" stroke-width="2.00"/>
<path d="M 276.5 25.6 L 276.8 27.7 L 277.0 29.8" stroke-width="1.80"/>
<path d="M 277.0 29.8 L 277.0 31.7" stroke-width="1.60"/>
<path d="M 277.0 31.7 L 276.8 33.5 L 276.3 34.9 L 275.3 36.0 L 274.0 36.8" stroke-width="1.80"/>
<path d="M 274.0 36.8 L 272.4 37.0" stroke-width="2.00"/>
<path d="M 272.4 37.0 L 270.5 36.9 L 268.7 36.5 L 267.2 36.0" stroke-width="1.80"/>
<path d="M 267.2 36.0 L 266.3 35.7" stroke-width="1.60"/>
<circle cx="301.8" cy="16.8" r="0.77" fill="currentColor" stroke="none"/>
<path d="M 301.8 16.8 L 301.5 16.5" stroke-width="2.00"/>
<path d="M 301.5 16.5 L 300.9 16.2" stroke-width="2.60"/>
<path d="M 300.9 16.2 L 300.1 15.9 L 299.0 16.0" stroke-width="2.80"/>
<path d="M 299.0 16.0 L 297.6 16.3" stroke-width="2.60"/>
<path d="M 297.6 16.3 L 296.2 17.1" stroke-width="2.40"/>
<path d="M 296.2 17.1 L 294.8 18.2" stroke-width="2.20"/>
<path d="M 294.8 18.2 L 293.5 19.7" stroke-width="2.00"/>
<path d="M 293.5 19.7 L 292.6 21.3 L 292.0 23.0 L 292.0 24.5" stroke-width="1.80"/>
<path d="M 292.0 24.5 L 292.5 25.7 L 293.4 26.4" stroke-width="2.00"/>
<path d="M 293.4 26.4 L 294.5 26.5 L 295.9 26.1" stroke-width="2.20"/>
<path d="M 295.9 26.1 L 297.4 25.1 L 298.9 23.7" stroke-width="2.00"/>
<path d="M 298.9 23.7 L 300.2 22.0" stroke-width="1.80"/>
<path d="M 300.2 22.0 L 301.4 20.2 L 302.2 18.6" stroke-width="1.60"/>
<path d="M 302.2 18.6 L 302.8 17.2" stroke-width="1.80"/>
<path d="M 302.8 17.2 L 303.2 16.3" stroke-width="2.00"/>
<path d="M 303.2 16.3 L 303.3 15.9" stroke-width="2.20"/>
<path d="M 303.3 15.9 L 303.3 15.9" stroke-width="2.80"/>
<path d="M 303.3 15.9 L 303.2 16.5" stroke-width="3.20"/>
<path d="M 303.2 16.5 L 303.0 17.6" stroke-width="3.00"/>
<path d="M 303.0 17.6 L 302.8 19.3" stroke-width="2.60"/>
<path d="M 302.8 19.3 L 302.7 21.3" stroke-width="2.20"/>
<path d="M 302.7 21.3 L 302.7 23.3" stroke-width="2.00"/>
<path d="M 302.7 23.3 L 303.0 25.2 L 303.4 26.5" stroke-width="1.80"/>
<path d="M 303.4 26.5 L 303.7 27.3" stroke-width="1.60"/>
<circle cx="316.7" cy="16.1" r="0.77" fill="currentColor" stroke="none"/>
<path d="M 316.7 16.1 L 316.1 15.9" stroke-width="1.80"/>
<path d="M 316.1 15.9 L 315.2 15.8 L 313.8 15.8 L 312.4 16.0" stroke-width="2.40"/>
<path d="M 312.4 16.0 L 311.0 16.6 L 309.9 17.4 L 309.4 18.3" stroke-width="2.20"/>
<path d="M 309.4 18.3 L 309.6 19.4 L 310.3 20.5" stroke-width="2.40"/>
<path d="M 310.3 20.5 L 311.6 21.7" stroke-width="2.20"/>
<path d="M 311.6 21.7 L 313.0 22.8 L 314.4 23.9 L 315.4 24.8 L 316.0 25.6" stroke-width="2.00"/>
<path d="M 316.0 25.6 L 316.0 26.1" stroke-width="2.40"/>
<path d="M 316.0 26.1 L 315.3 26.5 L 314.1 26.6" stroke-width="2.60"/>
<path d="M 314.1 26.6 L 312.4 26.5" stroke-width="2.40"/>
<path d="M 312.4 26.5 L 310.9 26.4" stroke-width="2.00"/>
<path d="M 310.9 26.4 L 309.9 26.2" stroke-width="1.80"/>
<circle cx="331.6" cy="15.9" r="0.77" fill="currentColor" stroke="none"/>
<path d="M 331.6 15.9 L 331.6 16.4" stroke-width="2.00"/>
<path d="M 331.6 16.4 L 331.5 17.2" stroke-width="2.40"/>
<path d="M 331.5 17.2 L 331.4 18.5" stroke-width="2.60"/>
<path d="M 331.4 18.5 L 331.3 20.1" stroke-width="2.40"/>
<path d="M 331.3 20.1 L 331.1 21.8" stroke-width="2.20"/>
<path d="M 331.1 21.8 L 331.0 23.6 L 331.0 25.2 L 331.0 26.5" stroke-width="2.00"/>
<path d="M 331.0 26.5 L 331.2 27.3" stroke-width="2.20"/>
<path d="M 331.2 27.3 L 331.4 27.4" stroke-width="2.60"/>
<path d="M 331.4 27.4 L 331.6 27.2" stroke-width="2.80"/>
<path d="M 331.6 27.2 L 331.7 26.8" stroke-width="2.60"/>
<circle cx="332.8" cy="8.0" r="0.77" fill="currentColor" stroke="none"/>
<path d="M 332.8 8.0 L 332.8 7.8" stroke-width="2.00"/>
<path d="M 332.8 7.8 L 332.8 7.7" stroke-width="2.80"/>
<path d="M 332.8 7.7 L 333.0 7.6 L 333.2 7.6 L 333.5 7.6 L 333.8 7.6" stroke-width="3.20"/>
<path d="M 333.8 7.6 L 334.2 7.6" stroke-width="3.00"/>
<path d="M 334.2 7.6 L 334.4 7.5" stroke-width="2.60"/>
<circle cx="342.7" cy="6.1" r="0.77" fill="currentColor" stroke="none"/>
<path d="M 342.7 6.1 L 342.6 6.6" stroke-width="2.00"/>
<path d="M 342.6 6.6 L 342.5 7.5" stroke-width="2.40"/>
<path d="M 342.5 7.5 L 342.3 9.0" stroke-width="2.60"/>
<path d="M 342.3 9.0 L 342.0 10.8" stroke-width="2.20"/>
<path d="M 342.0 10.8 L 341.7 13.0" stroke-width="2.00"/>
<path d="M 341.7 13.0 L 341.3 15.5" stroke-width="1.80"/>
<path d="M 341.3 15.5 L 341.0 18.0" stroke-width="1.60"/>
<path d="M 341.0 18.0 L 340.8 20.6 L 340.7 22.9 L 340.8 24.9 L 341.0 26.4 L 341.2 27.2" stroke-width="1.40"/>
<circle cx="337.6" cy="18.1" r="0.77" fill="currentColor" stroke="none"/>
<path d="M 337.6 18.1 L 338.2 18.1" stroke-width="1.80"/>
<path d="M 338.2 18.1 L 339.4 18.2" stroke-width="2.40"/>
<path d="M 339.4 18.2 L 340.6 18.2" stroke-width="2.20"/>
<path d="M 340.6 18.2 L 341.6 18.3" stroke-width="2.00"/>
<circle cx="365.7" cy="18.4" r="0.77" fill="currentColor" stroke="none"/>
<path d="M 365.7 18.4 L 365.3 18.0" stroke-width="1.80"/>
<path d="M 365.3 18.0 L 364.5 17.4" stroke-width="2.40"/>
<path d="M 364.5 17.4 L 363.5 16.8" stroke-width="2.60"/>
<path d="M 363.5 16.8 L 362.3 16.4 L 360.9 16.4" stroke-width="2.40"/>
<path d="M 360.9 16.4 L 359.5 16.8 L 358.3 17.5 L 357.4 18.6 L 356.9 19.8 L 356.9 21.1 L 357.3 22.2 L 358.1 23.0" stroke-width="2.20"/>
<path d="M 358.1 23.0 L 359.1 23.4 L 360.4 23.2" stroke-width="2.40"/>
<path d="M 360.4 23.2 L 361.8 22.6 L 363.2 21.7" stroke-width="2.20"/>
<path d="M 363.2 21.7 L 364.4 20.4 L 365.4 19.1 L 366.0 17.8 L 366.5 16.7" stroke-width="2.00"/>
<path d="M 366.5 16.7 L 366.8 15.9" stroke-width="2.20"/>
<path d="M 366.8 15.9 L 366.9 15.5" stroke-width="2.60"/>
<path d="M 366.9 15.5 L 367.0 15.5" stroke-width="3.00"/>
<path d="M 367.0 15.5 L 367.0 15.9 L 367.1 16.9" stroke-width="3.20"/>
<path d="M 367.1 16.9 L 367.2 18.3" stroke-width="3.00"/>
<path d="M 367.2 18.3 L 367.4 20.1" stroke-width="2.40"/>
<path d="M 367.4 20.1 L 367.5 22.3" stroke-width="2.20"/>
<path d="M 367.5 22.3 L 367.6 24.6" stroke-width="1.80"/>
<path d="M 367.6 24.6 L 367.6 27.0 L 367.4 29.3 L 367.1 31.3 L 366.4 33.0 L 365.4 34.1" stroke-width="1.60"/>
<path d="M 365.4 34.1 L 364.2 34.8" stroke-width="1.80"/>
<path d="M 364.2 34.8 L 362.8 34.9 L 361.4 34.5 L 360.2 33.7" stroke-width="2.00"/>
<path d="M 360.2 33.7 L 359.2 32.7 L 358.7 32.1" stroke-width="1.80"/>
<circle cx="377.0" cy="16.6" r="0.77" fill="currentColor" stroke="none"/>
<path d="M 377.0 16.6 L 376.9 16.3" stroke-width="2.00"/>
<path d="M 376.9 16.3 L 376.5 16.0" stroke-width="2.60"/>
<path d="M 376.5 16.0 L 376.0 15.7" stroke-width="3.00"/>
<path d="M 376.0 15.7 L 375.2 15.6" stroke-width="3.20"/>
<path d="M 375.2 15.6 L 374.3 15.8" stroke-width="3.00"/>
<path d="M 374.3 15.8 L 373.2 16.4" stroke-width="2.80"/>
<path d="M 373.2 16.4 L 372.1 17.4" stroke-width="2.60"/>
<path d="M 372.1 17.4 L 371.3 18.7" stroke-width="2.40"/>
<path d="M 371.3 18.7 L 370.7 20.0 L 370.6 21.4 L 370.9 22.5 L 371.7 23.4 L 372.8 23.8 L 374.2 23.8 L 375.8 23.3" stroke-width="2.20"/>
<path d="M 375.8 23.3 L 377.3 22.3 L 378.7 21.0" stroke-width="2.00"/>
<path d="M 378.7 21.0 L 379.7 19.6 L 380.3 18.0 L 380.4 16.5" stroke-width="1.80"/>
<path d="M 380.4 16.5 L 380.0 15.2 L 379.4 14.2 L 378.8 13.6 L 378.3 13.2" stroke-width="2.00"/>
<circle cx="385.1" cy="20.1" r="0.77" fill="currentColor" stroke="none"/>
<path d="M 385.1 20.1 L 385.4 19.8" stroke-width="2.00"/>
<path d="M 385.4 19.8 L 386.0 19.2 L 386.7 18.3 L 387.4 17.3" stroke-width="2.60"/>
<path d="M 387.4 17.3 L 388.0 16.3 L 388.3 15.3" stroke-width="2.40"/>
<path d="M 388.3 15.3 L 388.4 14.5" stroke-width="2.60"/>
<path d="M 388.4 14.5 L 388.3 13.8" stroke-width="2.80"/>
<path d="M 388.3 13.8 L 388.0 13.5" stroke-width="3.00"/>
<path d="M 388.0 13.5 L 387.3 13.4 L 386.5 13.7" stroke-width="3.20"/>
<path d="M 386.5 13.7 L 385.5 14.5" stroke-width="2.80"/>
<path d="M 385.5 14.5 L 384.4 15.6" stroke-width="2.60"/>
<path d="M 384.4 15.6 L 383.6 17.1" stroke-width="2.20"/>
<path d="M 383.6 17.1 L 383.0 18.8 L 382.9 20.5 L 383.4 22.1 L 384.4 23.3" stroke-width="2.00"/>
<path d="M 384.4 23.3 L 385.5 24.0" stroke-width="1.80"/>
<path d="M 385.5 24.0 L 386.4 24.4" stroke-width="1.60"/>
<circle cx="399.0" cy="14.0" r="0.77" fill="currentColor" stroke="none"/>
<path d="M 399.0 14.0 L 398.6 13.7" stroke-width="2.00"/>
<path d="M 398.6 13.7 L 397.9 13.2" stroke-width="2.40"/>
<path d="M 397.9 13.2 L 396.9 12.9 L 395.7 13.0 L 394.6 13.3" stroke-width="2.60"/>
<path d="M 394.6 13.3 L 393.7 14.0 L 393.3 14.9 L 393.4 16.1 L 394.0 17.4" stroke-width="2.40"/>
<path d="M 394.0 17.4 L 395.1 18.9" stroke-width="2.20"/>
<path d="M 395.1 18.9 L 396.4 20.4" stroke-width="2.00"/>
<path d="M 396.4 20.4 L 397.6 21.9 L 398.5 23.2" stroke-width="1.80"/>
<path d="M 398.5 23.2 L 398.9 24.3" stroke-width="2.00"/>
<path d="M 398.9 24.3 L 398.9 25.1" stroke-width="2.20"/>
<path d="M 398.9 25.1 L 398.2 25.7 L 396.9 26.1" stroke-width="2.40"/>
<path d="M 396.9 26.1 L 395.2 26.2" stroke-width="2.20"/>
<path d="M 395.2 26.2 L 393.6 26.1" stroke-width="2.00"/>
<path d="M 393.6 26.1 L 392.6 26.0" stroke-width="1.60"/>
</svg>
