<svg xmlns="http://www.w3.org/2000/svg" viewBox="0 0 460.7 52.5" fill="none" stroke="currentColor" stroke-linecap="round" stroke-linejoin="round" role="img">
<circle cx="17.4" cy="20.1" r="0.63" fill="currentColor" stroke="none"/>
<path d="M 17.4 20.1 L 17.1 19.7" stroke-width="1.60"/>
<path d="M 17.1 19.7 L 16.6 19.1" stroke-width="2.00"/>
<path d="M 16.6 19.1 L 16.0 18.5 L 15.2 18.0 L 14.2 17.7 L 13.0 17.9" stroke-width="2.20"/>
<path d="M 13.0 17.9 L 11.5 18.6" stroke-width="2.00"/>
<path d="M 11.5 18.6 L 10.0 20.0" stroke-width="1.80"/>
<path d="M 10.0 20.0 L 8.4 22.0" stroke-width="1.60"/>
<path d="M 8.4 22.0 L 7.2 24.4" stroke-width="1.40"/>
<path d="M 7.2 24.4 L 6.3 26.8 L 6.0 28.9" stroke-width="1.20"/>
<path d="M 6.0 28.9 L 6.2 30.4 L 7.0 31.2" stroke-width="1.40"/>
<path d="M 7.0 31.2 L 8.2 31.3" stroke-width="1.60"/>
<path d="M 8.2 31.3 L 9.6 30.8" stroke-width="1.80"/>
<path d="M 9.6 30.8 L 11.2 29.7 L 12.9 28.0" stroke-width="1.60"/>
<path d="M 12.9 28.0 L 14.4 26.0" stroke-width="1.40"/>
<path d="M 14.4 26.0 L 15.7 23.7 L 16.7 21.6 L 17.4 19.9" stroke-width="1.20"/>
<path d="M 17.4 19.9 L 17.8 18.8" stroke-width="1.40"/>
<path d="M 17.8 18.8 L 17.9 18.3" stroke-width="1.60"/>
<path d="M 17.9 18.3 L 18.0 18.4" stroke-width="2.00"/>
<path d="M 18.0 18.4 L 18.1 19.1" stroke-width="2.40"/>
<path d="M 18.1 19.1 L 18.3 20.5" stroke-width="2.20"/>
<path d="M 18.3 20.5 L 18.6 22.4" stroke-width="2.00"/>
<path d="M 18.6 22.4 L 19.0 24.6" stroke-width="1.80"/>
<path d="M 19.0 24.6 L 19.4 26.8" stroke-width="1.60"/>
<path d="M 19.4 26.8 L 19.9 28.7 L 20.5 30.0" stroke-width="1.40"/>
<path d="M 20.5 30.0 L 21.2 30.9" stroke-width="1.60"/>
<path d="M 21.2 30.9 L 22.0 31.3 L 22.7 31.4 L 23.1 31.3" stroke-width="1.80"/>
<circle cx="44.7" cy="8.6" r="0.63" fill="currentColor" stroke="none"/>
<path d="M 44.7 8.6 L 44.7 8.5" stroke-width="1.60"/>
<path d="M 44.7 8.5 L 44.8 8.4" stroke-width="2.40"/>
<path d="M 44.8 8.4 L 44.8 8.6 L 44.9 9.2 L 45.0 10.4" stroke-width="2.60"/>
<path d="M 45.0 10.4 L 45.0 12.3" stroke-width="2.20"/>
<path d="M 45.0 12.3 L 45.0 14.6" stroke-width="1.80"/>
<path d="M 45.0 14.6 L 45.0 17.2" stroke-width="1.60"/>
<path d="M 45.0 17.2 L 45.0 19.9" stroke-width="1.40"/>
<path d="M 45.0 19.9 L 44.9 22.5 L 44.9 24.9 L 44.9 27.1 L 45.0 29.0" stroke-width="1.20"/>
<path d="M 45.0 29.0 L 45.1 30.5 L 45.2 31.5 L 45.3 32.0" stroke-width="1.40"/>
<circle cx="51.2" cy="19.4" r="0.63" fill="currentColor" stroke="none"/>
<path d="M 51.2 19.4 L 51.3 19.4" stroke-width="1.60"/>
<path d="M 51.3 19.4 L 51.5 19.6" stroke-width="2.40"/>
<path d="M 51.5 19.6 L 51.7 20.1 L 51.9 21.3" stroke-width="2.60"/>
<path d="M 51.9 21.3 L 52.1 22.8" stroke-width="2.20"/>
<path d="M 52.1 22.8 L 52.2 24.6" stroke-width="2.00"/>
<path d="M 52.2 24.6 L 52.2 26.5" stroke-width="1.80"/>
<path d="M 52.2 26.5 L 52.2 28.1 L 52.2 29.4" stroke-width="1.60"/>
<path d="M 52.2 29.4 L 52.3 30.3" stroke-width="1.80"/>
<path d="M 52.3 30.3 L 52.4 30.8" stroke-width="2.00"/>
<path d="M 52.4 30.8 L 52.5 30.9" stroke-width="1.80"/>
<circle cx="51.8" cy="12.9" r="0.63" fill="currentColor" stroke="none"/>
<path d="M 51.8 12.9 L 51.9 12.8" stroke-width="1.60"/>
<path d="M 51.9 12.8 L 51.9 12.7 L 52.0 12.7" stroke-width="2.40"/>
<path d="M 52.0 12.7 L 52.1 12.7" stroke-width="2.00"/>
<circle cx="57.7" cy="20.0" r="0.63" fill="currentColor" stroke="none"/>
<path d="M 57.7 20.0 L 57.8 20.4" stroke-width="1.60"/>
<path d="M 57.8 20.4 L 57.8 21.2" stroke-width="2.00"/>
<path d="M 57.8 21.2 L 58.0 22.5" stroke-width="2.20"/>
<path d="M 58.0 22.5 L 58.2 24.2" stroke-width="2.00"/>
<path d="M 58.2 24.2 L 58.4 26.0" stroke-width="1.80"/>
<path d="M 58.4 26.0 L 58.5 27.8 L 58.6 29.4 L 58.6 30.6" stroke-width="1.60"/>
<path d="M 58.6 30.6 L 58.6 31.4" stroke-width="1.80"/>
<path d="M 58.6 31.4 L 58.7 31.8" stroke-width="2.20"/>
<path d="M 58.7 31.8 L 58.8 31.9" stroke-width="2.40"/>
<path d="M 58.8 31.9 L 58.8 31.5 L 58.7 30.6" stroke-width="2.60"/>
<path d="M 58.7 30.6 L 58.7 29.1" stroke-width="2.40"/>
<path d="M 58.7 29.1 L 58.9 27.2" stroke-width="2.00"/>
<path d="M 58.9 27.2 L 59.3 25.1" stroke-width="1.80"/>
<path d="M 59.3 25.1 L 60.0 23.2 L 61.0 21.6 L 62.2 20.5 L 63.5 19.8 L 65.0 19.7 L 66.4 20.1 L 67.8 21.0 L 68.9 22.5 L 69.8 24.3" stroke-width="1.60"/>
<path d="M 69.8 24.3 L 70.5 26.2 L 70.9 28.0 L 71.2 29.6" stroke-width="1.40"/>
<path d="M 71.2 29.6 L 71.4 30.7" stroke-width="1.60"/>
<path d="M 71.4 30.7 L 71.5 31.5" stroke-width="1.80"/>
<path d="M 71.5 31.5 L 71.6 31.9" stroke-width="2.00"/>
<path d="M 71.6 31.9 L 71.7 31.9" stroke-width="2.40"/>
<path d="M 71.7 31.9 L 71.9 31.7 L 72.2 31.1 L 72.8 30.0" stroke-width="2.60"/>
<path d="M 72.8 30.0 L 73.6 28.5" stroke-width="2.20"/>
<path d="M 73.6 28.5 L 74.7 26.8" stroke-width="2.00"/>
<path d="M 74.7 26.8 L 75.8 25.1 L 76.8 23.4 L 77.6 22.0 L 78.1 20.9" stroke-width="1.60"/>
<path d="M 78.1 20.9 L 78.4 20.0" stroke-width="1.80"/>
<path d="M 78.4 20.0 L 78.3 19.3" stroke-width="2.00"/>
<path d="M 78.3 19.3 L 78.0 18.8" stroke-width="2.20"/>
<path d="M 78.0 18.8 L 77.4 18.7 L 76.5 19.0 L 75.4 19.7" stroke-width="2.40"/>
<path d="M 75.4 19.7 L 74.3 20.9" stroke-width="2.00"/>
<path d="M 74.3 20.9 L 73.3 22.5" stroke-width="1.80"/>
<path d="M 73.3 22.5 L 72.6 24.2 L 72.5 26.0 L 72.9 27.7 L 73.9 29.0 L 75.4 30.0 L 77.4 30.6" stroke-width="1.60"/>
<path d="M 77.4 30.6 L 79.7 30.8 L 82.3 30.6" stroke-width="1.40"/>
<path d="M 82.3 30.6 L 84.8 30.1 L 86.9 29.6" stroke-width="1.20"/>
<path d="M 86.9 29.6 L 88.1 29.3" stroke-width="1.00"/>
<circle cx="109.4" cy="23.5" r="0.63" fill="currentColor" stroke="none"/>
<path d="M 109.4 23.5 L 109.3 23.1" stroke-width="1.60"/>
<path d="M 109.3 23.1 L 109.2 22.5" stroke-width="2.20"/>
<path d="M 109.2 22.5 L 109.0 21.8 L 108.7 21.1" stroke-width="2.40"/>
<path d="M 108.7 21.1 L 108.2 20.5 L 107.5 20.1" stroke-width="2.60"/>
<path d="M 107.5 20.1 L 106.5 19.9" stroke-width="2.40"/>
<path d="M 106.5 19.9 L 105.2 20.0 L 103.9 20.5" stroke-width="2.20"/>
<path d="M 103.9 20.5 L 102.5 21.4" stroke-width="2.00"/>
<path d="M 102.5 21.4 L 101.2 22.8" stroke-width="1.80"/>
<path d="M 101.2 22.8 L 100.1 24.6" stroke-width="1.60"/>
<path d="M 100.1 24.6 L 99.4 26.7 L 99.2 28.7 L 99.5 30.3" stroke-width="1.40"/>
<path d="M 99.5 30.3 L 100.3 31.5 L 101.7 31.9 L 103.5 31.8 L 105.5 31.1" stroke-width="1.60"/>
<path d="M 105.5 31.1 L 107.4 30.0 L 109.1 28.7 L 110.3 27.2 L 111.1 25.7 L 111.4 24.2" stroke-width="1.40"/>
<path d="M 111.4 24.2 L 111.4 23.0" stroke-width="1.60"/>
<path d="M 111.4 23.0 L 111.2 22.1" stroke-width="1.80"/>
<path d="M 111.2 22.1 L 110.8 21.5" stroke-width="2.00"/>
<path d="M 110.8 21.5 L 110.6 21.3" stroke-width="2.20"/>
<path d="M 110.6 21.3 L 110.5 21.3 L 110.7 21.5 L 111.2 21.5 L 112.0 21.4 L 113.2 20.9" stroke-width="2.60"/>
<path d="M 113.2 20.9 L 114.6 20.0" stroke-width="2.20"/>
<path d="M 114.6 20.0 L 116.2 18.6" stroke-width="2.00"/>
<path d="M 116.2 18.6 L 117.7 17.0" stroke-width="1.60"/>
<path d="M 117.7 17.0 L 119.0 15.1 L 120.2 13.2 L 121.0 11.3 L 121.5 9.5 L 121.6 8.1" stroke-width="1.40"/>
<path d="M 121.6 8.1 L 121.4 7.0" stroke-width="1.60"/>
<path d="M 121.4 7.0 L 121.0 6.3" stroke-width="1.80"/>
<path d="M 121.0 6.3 L 120.5 6.0" stroke-width="2.00"/>
<path d="M 120.5 6.0 L 119.9 6.2" stroke-width="2.20"/>
<path d="M 119.9 6.2 L 119.4 7.1" stroke-width="2.40"/>
<path d="M 119.4 7.1 L 118.8 8.6" stroke-width="2.20"/>
<path d="M 118.8 8.6 L 118.2 10.7" stroke-width="1.80"/>
<path d="M 118.2 10.7 L 117.8 13.4" stroke-width="1.60"/>
<path d="M 117.8 13.4 L 117.6 16.5" stroke-width="1.40"/>
<path d="M 117.6 16.5 L 117.5 19.8" stroke-width="1.20"/>
<path d="M 117.5 19.8 L 117.6 23.2 L 117.7 26.7 L 117.8 30.1 L 117.9 33.2 L 118.0 36.0 L 118.0 38.3" stroke-width="1.00"/>
<path d="M 118.0 38.3 L 118.0 40.0" stroke-width="1.20"/>
<path d="M 118.0 40.0 L 118.0 41.0" stroke-width="1.40"/>
<path d="M 118.0 41.0 L 118.0 41.5" stroke-width="1.60"/>
<path d="M 118.0 41.5 L 118.0 41.6" stroke-width="2.00"/>
<path d="M 118.0 41.6 L 117.9 41.1 L 117.7 40.0" stroke-width="2.40"/>
<path d="M 117.7 40.0 L 117.5 38.4" stroke-width="2.20"/>
<path d="M 117.5 38.4 L 117.2 36.4" stroke-width="1.80"/>
<path d="M 117.2 36.4 L 116.8 34.2 L 116.3 32.1" stroke-width="1.60"/>
<path d="M 116.3 32.1 L 115.9 30.3" stroke-width="1.40"/>
<path d="M 115.9 30.3 L 115.5 28.8 L 115.2 27.7" stroke-width="1.60"/>
<path d="M 115.2 27.7 L 115.1 26.8" stroke-width="1.80"/>
<path d="M 115.1 26.8 L 115.3 26.2" stroke-width="2.00"/>
<path d="M 115.3 26.2 L 115.8 25.8" stroke-width="2.20"/>
<path d="M 115.8 25.8 L 116.8 25.6" stroke-width="2.40"/>
<path d="M 116.8 25.6 L 118.2 25.4" stroke-width="2.20"/>
<path d="M 118.2 25.4 L 120.0 25.3" stroke-width="2.00"/>
<path d="M 120.0 25.3 L 121.9 25.2" stroke-width="1.80"/>
<path d="M 121.9 25.2 L 123.8 25.1 L 125.5 24.9 L 127.0 24.7 L 128.2 24.5" stroke-width="1.60"/>
<path d="M 128.2 24.5 L 129.2 24.3 L 129.8 24.1 L 130.1 24.0" stroke-width="1.80"/>
<circle cx="144.6" cy="20.8" r="0.63" fill="currentColor" stroke="none"/>
<path d="M 144.6 20.8 L 144.6 20.8" stroke-width="1.60"/>
<path d="M 144.6 20.8 L 144.7 21.0" stroke-width="2.40"/>
<path d="M 144.7 21.0 L 144.9 21.5 L 145.2 22.4" stroke-width="2.60"/>
<path d="M 145.2 22.4 L 145.5 23.7" stroke-width="2.40"/>
<path d="M 145.5 23.7 L 145.8 25.3" stroke-width="2.20"/>
<path d="M 145.8 25.3 L 146.0 27.0" stroke-width="2.00"/>
<path d="M 146.0 27.0 L 146.1 28.7 L 146.1 30.2 L 145.9 31.3 L 145.8 32.0 L 145.7 32.4" stroke-width="1.80"/>
<circle cx="143.8" cy="12.9" r="0.63" fill="currentColor" stroke="none"/>
<path d="M 143.8 12.9 L 143.9 12.9" stroke-width="1.60"/>
<path d="M 143.9 12.9 L 144.1 13.0 L 144.4 13.1" stroke-width="2.40"/>
<path d="M 144.4 13.1 L 144.6 13.3" stroke-width="2.00"/>
<circle cx="150.7" cy="21.1" r="0.63" fill="currentColor" stroke="none"/>
<path d="M 150.7 21.1 L 150.7 21.1" stroke-width="1.60"/>
<path d="M 150.7 21.1 L 150.8 21.1" stroke-width="2.40"/>
<path d="M 150.8 21.1 L 151.0 21.5 L 151.2 22.4" stroke-width="2.60"/>
<path d="M 151.2 22.4 L 151.3 23.8" stroke-width="2.40"/>
<path d="M 151.3 23.8 L 151.4 25.6" stroke-width="2.20"/>
<path d="M 151.4 25.6 L 151.4 27.6" stroke-width="1.80"/>
<path d="M 151.4 27.6 L 151.5 29.6 L 151.5 31.1 L 151.6 32.2" stroke-width="1.60"/>
<path d="M 151.6 32.2 L 151.7 32.7" stroke-width="2.00"/>
<path d="M 151.7 32.7 L 151.8 32.9" stroke-width="2.20"/>
<path d="M 151.8 32.9 L 151.8 32.6 L 151.9 31.7" stroke-width="2.60"/>
<path d="M 151.9 31.7 L 152.1 30.2" stroke-width="2.40"/>
<path d="M 152.1 30.2 L 152.4 28.3" stroke-width="2.00"/>
<path d="M 152.4 28.3 L 153.1 26.2" stroke-width="1.80"/>
<path d="M 153.1 26.2 L 154.1 24.2" stroke-width="1.60"/>
<path d="M 154.1 24.2 L 155.3 22.7 L 156.8 21.8" stroke-width="1.40"/>
<path d="M 156.8 21.8 L 158.3 21.4 L 159.8 21.6 L 161.1 22.3 L 162.3 23.5 L 163.2 25.3" stroke-width="1.60"/>
<path d="M 163.2 25.3 L 163.8 27.4 L 164.2 29.5 L 164.4 31.4 L 164.5 32.8" stroke-width="1.40"/>
<path d="M 164.5 32.8 L 164.7 33.6" stroke-width="1.60"/>
<path d="M 164.7 33.6 L 164.8 33.9 L 164.9 33.9" stroke-width="1.80"/>
<circle cx="169.5" cy="10.9" r="0.63" fill="currentColor" stroke="none"/>
<path d="M 169.5 10.9 L 169.6 10.8" stroke-width="1.60"/>
<path d="M 169.6 10.8 L 169.7 11.0" stroke-width="2.40"/>
<path d="M 169.7 11.0 L 170.0 11.8" stroke-width="2.60"/>
<path d="M 170.0 11.8 L 170.3 13.2" stroke-width="2.40"/>
<path d="M 170.3 13.2 L 170.6 15.3" stroke-width="2.00"/>
<path d="M 170.6 15.3 L 170.8 17.9" stroke-width="1.60"/>
<path d="M 170.8 17.9 L 170.8 20.6" stroke-width="1.40"/>
<path d="M 170.8 20.6 L 170.7 23.3 L 170.5 25.8 L 170.4 27.9" stroke-width="1.20"/>
<path d="M 170.4 27.9 L 170.4 29.6 L 170.5 30.7" stroke-width="1.40"/>
<path d="M 170.5 30.7 L 170.6 31.2" stroke-width="1.80"/>
<path d="M 170.6 31.2 L 170.7 31.0" stroke-width="2.20"/>
<path d="M 170.7 31.0 L 170.8 30.7" stroke-width="2.40"/>
<path d="M 170.8 30.7 L 170.9 30.3" stroke-width="2.00"/>
<circle cx="177.2" cy="20.5" r="0.63" fill="currentColor" stroke="none"/>
<path d="M 177.2 20.5 L 177.3 20.4" stroke-width="1.60"/>
<path d="M 177.3 20.4 L 177.3 20.2" stroke-width="2.20"/>
<path d="M 177.3 20.2 L 176.9 20.3 L 176.0 20.8" stroke-width="2.60"/>
<path d="M 176.0 20.8 L 174.7 21.7" stroke-width="2.40"/>
<path d="M 174.7 21.7 L 173.1 22.9" stroke-width="2.00"/>
<path d="M 173.1 22.9 L 171.5 24.0" stroke-width="1.80"/>
<path d="M 171.5 24.0 L 170.3 25.1" stroke-width="1.60"/>
<path d="M 170.3 25.1 L 169.7 25.9" stroke-width="1.80"/>
<path d="M 169.7 25.9 L 169.7 26.5" stroke-width="2.00"/>
<path d="M 169.7 26.5 L 170.3 27.0 L 171.3 27.6" stroke-width="2.20"/>
<path d="M 171.3 27.6 L 172.6 28.1 L 174.2 28.7" stroke-width="2.00"/>
<path d="M 174.2 28.7 L 175.9 29.3" stroke-width="1.80"/>
<path d="M 175.9 29.3 L 177.6 29.9 L 179.2 30.4 L 180.5 30.8" stroke-width="1.60"/>
<path d="M 180.5 30.8 L 181.4 31.0" stroke-width="1.80"/>
<path d="M 181.4 31.0 L 181.9 31.2" stroke-width="2.00"/>
<path d="M 181.9 31.2 L 182.2 31.2" stroke-width="2.40"/>
<path d="M 182.2 31.2 L 182.3 31.2 L 182.3 31.2 L 182.3 31.3 L 182.3 31.3" stroke-width="2.60"/>
<path d="M 182.3 31.3 L 182.4 31.3" stroke-width="2.40"/>
<path d="M 182.4 31.3 L 182.4 31.3" stroke-width="2.00"/>
<circle cx="191.3" cy="31.7" r="0.63" fill="currentColor" stroke="none"/>
<path d="M 191.3 31.7 L 191.4 31.7" stroke-width="1.60"/>
<path d="M 191.4 31.7 L 191.4 31.6" stroke-width="2.40"/>
<path d="M 191.4 31.6 L 191.5 31.6 L 191.5 31.7 L 191.6 32.0 L 191.5 32.5 L 191.4 33.3 L 191.1 34.5" stroke-width="2.60"/>
<path d="M 191.1 34.5 L 190.7 35.9" stroke-width="2.40"/>
<path d="M 190.7 35.9 L 190.3 37.5" stroke-width="2.00"/>
<path d="M 190.3 37.5 L 189.7 39.1 L 189.2 40.8" stroke-width="1.80"/>
<path d="M 189.2 40.8 L 188.8 42.3" stroke-width="1.60"/>
<path d="M 188.8 42.3 L 188.4 43.5 L 188.3 44.2" stroke-width="1.80"/>
<path d="M 188.3 44.2 L 188.2 44.6" stroke-width="1.60"/>
<circle cx="209.1" cy="8.9" r="0.63" fill="currentColor" stroke="none"/>
<path d="M 209.1 8.9 L 209.1 9.0" stroke-width="1.60"/>
<path d="M 209.1 9.0 L 209.2 9.3" stroke-width="2.40"/>
<path d="M 209.2 9.3 L 209.4 10.0" stroke-width="2.60"/>
<path d="M 209.4 10.0 L 209.6 11.2" stroke-width="2.40"/>
<path d="M 209.6 11.2 L 209.7 13.0" stroke-width="2.20"/>
<path d="M 209.7 13.0 L 209.8 15.1" stroke-width="1.80"/>
<path d="M 209.8 15.1 L 209.9 17.6" stroke-width="1.60"/>
<path d="M 209.9 17.6 L 209.8 20.2 L 209.7 22.7" stroke-width="1.40"/>
<path d="M 209.7 22.7 L 209.7 25.1 L 209.8 27.2" stroke-width="1.20"/>
<path d="M 209.8 27.2 L 209.8 28.9 L 209.8 30.2" stroke-width="1.40"/>
<path d="M 209.8 30.2 L 209.8 30.8" stroke-width="1.60"/>
<path d="M 209.8 30.8 L 209.7 31.1 L 209.6 31.0" stroke-width="1.80"/>
<circle cx="204.5" cy="22.1" r="0.63" fill="currentColor" stroke="none"/>
<path d="M 204.5 22.1 L 204.6 22.1" stroke-width="1.60"/>
<path d="M 204.6 22.1 L 205.1 21.9" stroke-width="2.20"/>
<path d="M 205.1 21.9 L 206.0 21.6" stroke-width="2.40"/>
<path d="M 206.0 21.6 L 207.4 21.0" stroke-width="2.20"/>
<path d="M 207.4 21.0 L 209.2 20.3" stroke-width="2.00"/>
<path d="M 209.2 20.3 L 211.1 19.3" stroke-width="1.80"/>
<path d="M 211.1 19.3 L 213.1 18.1" stroke-width="1.60"/>
<path d="M 213.1 18.1 L 214.8 16.6 L 216.3 15.0 L 217.5 13.2 L 218.4 11.6 L 219.0 10.2" stroke-width="1.40"/>
<path d="M 219.0 10.2 L 219.2 9.3" stroke-width="1.60"/>
<path d="M 219.2 9.3 L 219.3 8.9" stroke-width="1.80"/>
<path d="M 219.3 8.9 L 219.3 8.9" stroke-width="2.20"/>
<path d="M 219.3 8.9 L 219.2 9.6" stroke-width="2.60"/>
<path d="M 219.2 9.6 L 219.1 10.8" stroke-width="2.40"/>
<path d="M 219.1 10.8 L 218.9 12.7" stroke-width="2.20"/>
<path d="M 218.9 12.7 L 218.6 15.0" stroke-width="1.80"/>
<path d="M 218.6 15.0 L 218.4 17.6" stroke-width="1.60"/>
<path d="M 218.4 17.6 L 218.3 20.2" stroke-width="1.40"/>
<path d="M 218.3 20.2 L 218.2 22.6 L 218.3 24.7" stroke-width="1.20"/>
<path d="M 218.3 24.7 L 218.4 26.3" stroke-width="1.40"/>
<path d="M 218.4 26.3 L 218.5 27.3" stroke-width="1.60"/>
<path d="M 218.5 27.3 L 218.6 27.8" stroke-width="1.80"/>
<path d="M 218.6 27.8 L 218.6 27.9" stroke-width="2.20"/>
<path d="M 218.6 27.9 L 218.7 27.5 L 218.7 26.7" stroke-width="2.60"/>
<path d="M 218.7 26.7 L 218.9 25.3" stroke-width="2.40"/>
<path d="M 218.9 25.3 L 219.3 23.5" stroke-width="2.00"/>
<path d="M 219.3 23.5 L 219.9 21.6" stroke-width="1.80"/>
<path d="M 219.9 21.6 L 220.9 19.9 L 222.0 18.6 L 223.3 17.8 L 224.6 17.5 L 226.0 17.7" stroke-width="1.60"/>
<path d="M 226.0 17.7 L 227.2 18.5" stroke-width="1.80"/>
<path d="M 227.2 18.5 L 228.3 19.8 L 229.1 21.6 L 229.6 23.6" stroke-width="1.60"/>
<path d="M 229.6 23.6 L 229.9 25.7 L 230.1 27.5 L 230.3 29.0" stroke-width="1.40"/>
<path d="M 230.3 29.0 L 230.5 29.9" stroke-width="1.60"/>
<path d="M 230.5 29.9 L 230.9 30.2" stroke-width="2.00"/>
<path d="M 230.9 30.2 L 231.4 29.8 L 232.1 28.8" stroke-width="2.20"/>
<path d="M 232.1 28.8 L 233.0 27.2" stroke-width="2.00"/>
<path d="M 233.0 27.2 L 234.0 25.3" stroke-width="1.80"/>
<path d="M 234.0 25.3 L 234.9 23.5 L 235.7 22.1 L 236.2 21.3" stroke-width="1.60"/>
<path d="M 236.2 21.3 L 236.6 20.9" stroke-width="2.00"/>
<path d="M 236.6 20.9 L 236.8 21.1" stroke-width="2.20"/>
<path d="M 236.8 21.1 L 237.1 21.7" stroke-width="2.60"/>
<path d="M 237.1 21.7 L 237.3 22.7" stroke-width="2.40"/>
<path d="M 237.3 22.7 L 237.4 24.1" stroke-width="2.20"/>
<path d="M 237.4 24.1 L 237.4 25.7 L 237.3 27.1 L 237.2 28.1 L 237.2 28.8" stroke-width="2.00"/>
<path d="M 237.2 28.8 L 237.2 29.1" stroke-width="2.20"/>
<path d="M 237.2 29.1 L 237.2 29.2" stroke-width="2.00"/>
<circle cx="236.0" cy="13.1" r="0.63" fill="currentColor" stroke="none"/>
<path d="M 236.0 13.1 L 236.1 13.1" stroke-width="1.60"/>
<path d="M 236.1 13.1 L 236.3 13.2 L 236.5 13.3" stroke-width="2.40"/>
<path d="M 236.5 13.3 L 236.8 13.4" stroke-width="2.00"/>
<circle cx="242.1" cy="19.3" r="0.63" fill="currentColor" stroke="none"/>
<path d="M 242.1 19.3 L 242.2 19.3" stroke-width="1.60"/>
<path d="M 242.2 19.3 L 242.3 19.3" stroke-width="2.40"/>
<path d="M 242.3 19.3 L 242.4 19.4 L 242.6 19.9 L 242.7 20.9" stroke-width="2.60"/>
<path d="M 242.7 20.9 L 242.7 22.4" stroke-width="2.40"/>
<path d="M 242.7 22.4 L 242.6 24.1" stroke-width="2.20"/>
<path d="M 242.6 24.1 L 242.6 25.8 L 242.6 27.4 L 242.6 28.6 L 242.8 29.5" stroke-width="1.80"/>
<path d="M 242.8 29.5 L 242.9 30.0" stroke-width="2.20"/>
<path d="M 242.9 30.0 L 243.0 30.2" stroke-width="2.40"/>
<path d="M 243.0 30.2 L 243.1 29.9 L 243.1 29.1 L 243.3 27.8" stroke-width="2.60"/>
<path d="M 243.3 27.8 L 243.7 26.0" stroke-width="2.20"/>
<path d="M 243.7 26.0 L 244.4 24.1" stroke-width="1.80"/>
<path d="M 244.4 24.1 L 245.4 22.1 L 246.6 20.6" stroke-width="1.60"/>
<path d="M 246.6 20.6 L 248.1 19.4 L 249.6 18.8" stroke-width="1.40"/>
<path d="M 249.6 18.8 L 251.2 18.7 L 252.6 19.2 L 253.9 20.2 L 255.0 21.7 L 255.7 23.5 L 256.2 25.3 L 256.4 26.9 L 256.6 28.2 L 256.7 29.0 L 256.7 29.4" stroke-width="1.60"/>
<circle cx="260.0" cy="10.7" r="0.63" fill="currentColor" stroke="none"/>
<path d="M 260.0 10.7 L 260.1 10.9" stroke-width="1.60"/>
<path d="M 260.1 10.9 L 260.4 11.5" stroke-width="2.20"/>
<path d="M 260.4 11.5 L 260.8 12.6" stroke-width="2.40"/>
<path d="M 260.8 12.6 L 261.3 14.3" stroke-width="2.00"/>
<path d="M 261.3 14.3 L 261.6 16.3" stroke-width="1.80"/>
<path d="M 261.6 16.3 L 261.8 18.6" stroke-width="1.60"/>
<path d="M 261.8 18.6 L 261.8 20.8 L 261.7 23.1 L 261.7 25.1 L 261.7 26.9 L 261.8 28.2" stroke-width="1.40"/>
<path d="M 261.8 28.2 L 261.9 29.0" stroke-width="1.60"/>
<path d="M 261.9 29.0 L 262.0 29.3" stroke-width="2.00"/>
<path d="M 262.0 29.3 L 262.1 29.0" stroke-width="2.40"/>
<path d="M 262.1 29.0 L 262.3 28.3" stroke-width="2.60"/>
<path d="M 262.3 28.3 L 262.7 27.1" stroke-width="2.40"/>
<path d="M 262.7 27.1 L 263.4 25.6" stroke-width="2.20"/>
<path d="M 263.4 25.6 L 264.5 23.9" stroke-width="1.80"/>
<path d="M 264.5 23.9 L 265.8 22.2 L 267.4 20.7" stroke-width="1.60"/>
<path d="M 267.4 20.7 L 269.0 19.5 L 270.4 18.7" stroke-width="1.40"/>
<path d="M 270.4 18.7 L 271.5 18.1" stroke-width="1.60"/>
<path d="M 271.5 18.1 L 272.2 17.9" stroke-width="1.80"/>
<path d="M 272.2 17.9 L 272.5 17.8" stroke-width="2.00"/>
<path d="M 272.5 17.8 L 272.3 17.9" stroke-width="2.40"/>
<path d="M 272.3 17.9 L 271.5 18.2" stroke-width="2.60"/>
<path d="M 271.5 18.2 L 270.2 18.8" stroke-width="2.40"/>
<path d="M 270.2 18.8 L 268.4 19.6" stroke-width="2.00"/>
<path d="M 268.4 19.6 L 266.3 20.6" stroke-width="1.80"/>
<path d="M 266.3 20.6 L 264.2 21.7" stroke-width="1.60"/>
<path d="M 264.2 21.7 L 262.5 22.8 L 261.4 23.8" stroke-width="1.40"/>
<path d="M 261.4 23.8 L 261.0 24.9" stroke-width="1.60"/>
<path d="M 261.0 24.9 L 261.2 25.8 L 262.1 26.6 L 263.4 27.2 L 265.1 27.5" stroke-width="1.80"/>
<path d="M 265.1 27.5 L 267.0 27.6 L 268.9 27.4 L 270.8 26.8 L 272.5 26.1 L 273.9 25.2 L 275.1 24.1 L 276.0 23.0 L 276.6 22.0" stroke-width="1.60"/>
<path d="M 276.6 22.0 L 277.0 21.1" stroke-width="1.80"/>
<path d="M 277.0 21.1 L 277.2 20.4" stroke-width="2.00"/>
<path d="M 277.2 20.4 L 277.4 20.1" stroke-width="2.20"/>
<path d="M 277.4 20.1 L 277.5 20.1 L 277.6 20.5 L 277.7 21.3 L 277.9 22.4" stroke-width="2.60"/>
<path d="M 277.9 22.4 L 278.1 23.8" stroke-width="2.40"/>
<path d="M 278.1 23.8 L 278.3 25.3" stroke-width="2.20"/>
<path d="M 278.3 25.3 L 278.4 26.7 L 278.5 27.9 L 278.5 28.8 L 278.6 29.4 L 278.6 29.6" stroke-width="2.00"/>
<circle cx="277.0" cy="10.8" r="0.63" fill="currentColor" stroke="none"/>
<path d="M 277.0 10.8 L 277.1 10.7" stroke-width="1.60"/>
<path d="M 277.1 10.7 L 277.3 10.6 L 277.5 10.6" stroke-width="2.40"/>
<path d="M 277.5 10.6 L 277.7 10.7" stroke-width="2.00"/>
<circle cx="283.8" cy="19.6" r="0.63" fill="currentColor" stroke="none"/>
<path d="M 283.8 19.6 L 283.8 19.9" stroke-width="1.60"/>
<path d="M 283.8 19.9 L 284.0 20.5" stroke-width="2.20"/>
<path d="M 284.0 20.5 L 284.2 21.6" stroke-width="2.40"/>
<path d="M 284.2 21.6 L 284.3 23.0" stroke-width="2.20"/>
<path d="M 284.3 23.0 L 284.4 24.5" stroke-width="2.00"/>
<path d="M 284.4 24.5 L 284.4 26.0 L 284.3 27.3" stroke-width="1.80"/>
<path d="M 284.3 27.3 L 284.2 28.3 L 284.2 29.0" stroke-width="2.00"/>
<path d="M 284.2 29.0 L 284.2 29.3" stroke-width="2.40"/>
<path d="M 284.2 29.3 L 284.2 29.1 L 284.3 28.5 L 284.5 27.3" stroke-width="2.60"/>
<path d="M 284.5 27.3 L 284.8 25.7" stroke-width="2.40"/>
<path d="M 284.8 25.7 L 285.3 23.9" stroke-width="2.00"/>
<path d="M 285.3 23.9 L 286.1 22.1" stroke-width="1.80"/>
<path d="M 286.1 22.1 L 287.0 20.5 L 288.1 19.3 L 289.3 18.6 L 290.6 18.3" stroke-width="1.60"/>
<path d="M 290.6 18.3 L 292.0 18.5 L 293.2 19.3 L 294.3 20.5" stroke-width="1.80"/>
<path d="M 294.3 20.5 L 295.2 22.2 L 295.7 24.0 L 296.0 25.8" stroke-width="1.60"/>
<path d="M 296.0 25.8 L 296.1 27.2 L 296.1 28.1" stroke-width="1.40"/>
<circle cx="304.2" cy="22.1" r="0.63" fill="currentColor" stroke="none"/>
<path d="M 304.2 22.1 L 304.1 21.6" stroke-width="1.60"/>
<path d="M 304.1 21.6 L 303.9 20.8" stroke-width="2.00"/>
<path d="M 303.9 20.8 L 303.5 20.1" stroke-width="2.20"/>
<path d="M 303.5 20.1 L 302.9 19.8 L 302.0 19.9 L 300.9 20.4" stroke-width="2.40"/>
<path d="M 300.9 20.4 L 299.7 21.4" stroke-width="2.20"/>
<path d="M 299.7 21.4 L 298.6 22.7" stroke-width="2.00"/>
<path d="M 298.6 22.7 L 297.9 24.0 L 297.8 25.2" stroke-width="1.80"/>
<path d="M 297.8 25.2 L 298.2 26.1 L 299.1 26.6 L 300.5 26.7" stroke-width="2.00"/>
<path d="M 300.5 26.7 L 302.0 26.5 L 303.6 25.9 L 305.1 25.1" stroke-width="1.80"/>
<path d="M 305.1 25.1 L 306.2 24.2" stroke-width="1.60"/>
<path d="M 306.2 24.2 L 307.0 23.4 L 307.4 22.6" stroke-width="1.80"/>
<path d="M 307.4 22.6 L 307.6 22.1" stroke-width="2.20"/>
<path d="M 307.6 22.1 L 307.6 21.8" stroke-width="2.40"/>
<path d="M 307.6 21.8 L 307.6 21.9 L 307.7 22.3 L 308.0 23.2 L 308.3 24.4" stroke-width="2.60"/>
<path d="M 308.3 24.4 L 308.7 26.0" stroke-width="2.20"/>
<path d="M 308.7 26.0 L 309.2 27.9" stroke-width="2.00"/>
<path d="M 309.2 27.9 L 309.7 30.0 L 310.1 32.2" stroke-width="1.60"/>
<path d="M 310.1 32.2 L 310.5 34.5 L 310.5 36.7 L 310.3 38.8 L 309.7 40.8 L 308.7 42.6 L 307.3 44.1 L 305.5 45.2 L 303.4 46.0 L 301.0 46.4" stroke-width="1.40"/>
<path d="M 301.0 46.4 L 298.5 46.5 L 296.0 46.2 L 293.4 45.5 L 290.9 44.6 L 288.7 43.5 L 286.5 42.3 L 284.6 41.2 L 282.9 40.1 L 281.7 39.3 L 280.9 38.9" stroke-width="1.20"/>
<circle cx="333.1" cy="21.9" r="0.63" fill="currentColor" stroke="none"/>
<path d="M 333.1 21.9 L 333.1 21.6" stroke-width="1.60"/>
<path d="M 333.1 21.6 L 333.1 21.1" stroke-width="2.20"/>
<path d="M 333.1 21.1 L 333.4 20.5 L 333.8 19.8 L 334.4 19.3" stroke-width="2.60"/>
<path d="M 334.4 19.3 L 335.2 18.8 L 336.1 18.5 L 337.1 18.4" stroke-width="2.40"/>
<path d="M 337.1 18.4 L 338.3 18.6 L 339.4 19.0" stroke-width="2.20"/>
<path d="M 339.4 19.0 L 340.5 19.8 L 341.5 20.8 L 342.2 22.0" stroke-width="2.00"/>
<path d="M 342.2 22.0 L 342.7 23.3 L 342.8 24.6 L 342.6 25.8" stroke-width="1.80"/>
<path d="M 342.6 25.8 L 342.1 26.8 L 341.3 27.6 L 340.4 28.1 L 339.3 28.3 L 338.2 28.2 L 337.0 27.8 L 335.8 27.1 L 334.7 26.2" stroke-width="2.00"/>
<path d="M 334.7 26.2 L 333.6 25.4 L 332.7 24.6" stroke-width="1.80"/>
<path d="M 332.7 24.6 L 331.9 24.1" stroke-width="2.00"/>
<path d="M 331.9 24.1 L 331.2 23.9 L 330.5 24.0" stroke-width="2.20"/>
<path d="M 330.5 24.0 L 330.0 24.5 L 329.6 25.3 L 329.5 26.3" stroke-width="2.40"/>
<path d="M 329.5 26.3 L 329.6 27.4 L 330.2 28.4 L 331.2 29.1" stroke-width="2.20"/>
<path d="M 331.2 29.1 L 332.5 29.4 L 334.1 29.4" stroke-width="2.00"/>
<path d="M 334.1 29.4 L 335.9 29.0" stroke-width="1.80"/>
<path d="M 335.9 29.0 L 337.8 28.2 L 339.7 27.1" stroke-width="1.60"/>
<path d="M 339.7 27.1 L 341.5 25.8 L 343.0 24.3 L 344.4 22.9 L 345.5 21.6 L 346.4 20.4" stroke-width="1.40"/>
<path d="M 346.4 20.4 L 347.1 19.6" stroke-width="1.60"/>
<path d="M 347.1 19.6 L 347.6 19.0" stroke-width="1.80"/>
<path d="M 347.6 19.0 L 348.2 18.8" stroke-width="2.00"/>
<path d="M 348.2 18.8 L 348.7 18.8 L 349.3 19.1 L 350.2 19.7" stroke-width="2.40"/>
<path d="M 350.2 19.7 L 351.2 20.6" stroke-width="2.20"/>
<path d="M 351.2 20.6 L 352.4 21.7" stroke-width="2.00"/>
<path d="M 352.4 21.7 L 353.5 22.9 L 354.5 24.1 L 355.2 25.3 L 355.6 26.3" stroke-width="1.80"/>
<path d="M 355.6 26.3 L 355.6 27.2" stroke-width="2.00"/>
<path d="M 355.6 27.2 L 355.2 27.9 L 354.5 28.4 L 353.4 28.7" stroke-width="2.20"/>
<path d="M 353.4 28.7 L 352.0 28.7 L 350.4 28.6" stroke-width="2.00"/>
<path d="M 350.4 28.6 L 349.0 28.4 L 347.7 28.1" stroke-width="1.80"/>
<path d="M 347.7 28.1 L 346.8 27.7 L 346.3 27.3" stroke-width="2.00"/>
<path d="M 346.3 27.3 L 346.1 27.1" stroke-width="1.80"/>
<circle cx="375.1" cy="20.1" r="0.63" fill="currentColor" stroke="none"/>
<path d="M 375.1 20.1 L 375.1 20.2" stroke-width="1.60"/>
<path d="M 375.1 20.2 L 375.2 20.6" stroke-width="2.40"/>
<path d="M 375.2 20.6 L 375.4 21.2 L 375.6 22.2" stroke-width="2.60"/>
<path d="M 375.6 22.2 L 375.8 23.4" stroke-width="2.40"/>
<path d="M 375.8 23.4 L 375.9 25.0" stroke-width="2.20"/>
<path d="M 375.9 25.0 L 375.9 26.6" stroke-width="2.00"/>
<path d="M 375.9 26.6 L 375.9 28.3 L 375.8 29.8 L 375.6 30.8 L 375.5 31.5 L 375.4 31.8" stroke-width="1.80"/>
<circle cx="374.7" cy="11.7" r="0.63" fill="currentColor" stroke="none"/>
<path d="M 374.7 11.7 L 374.7 11.1" stroke-width="1.60"/>
<path d="M 374.7 11.1 L 374.8 10.3" stroke-width="2.00"/>
<path d="M 374.8 10.3 L 374.9 9.4" stroke-width="2.20"/>
<path d="M 374.9 9.4 L 375.0 9.0" stroke-width="1.80"/>
<circle cx="382.9" cy="7.4" r="0.63" fill="currentColor" stroke="none"/>
<path d="M 382.9 7.4 L 382.9 7.9" stroke-width="1.60"/>
<path d="M 382.9 7.9 L 383.0 9.0 L 383.2 10.6" stroke-width="2.00"/>
<path d="M 383.2 10.6 L 383.4 12.6" stroke-width="1.80"/>
<path d="M 383.4 12.6 L 383.4 15.0" stroke-width="1.60"/>
<path d="M 383.4 15.0 L 383.3 17.6" stroke-width="1.40"/>
<path d="M 383.3 17.6 L 383.2 20.4 L 383.0 23.1 L 382.8 25.6 L 382.7 27.7 L 382.7 29.4" stroke-width="1.20"/>
<path d="M 382.7 29.4 L 382.8 30.4" stroke-width="1.40"/>
<path d="M 382.8 30.4 L 382.7 30.6" stroke-width="1.80"/>
<path d="M 382.7 30.6 L 382.6 30.2 L 382.4 29.4" stroke-width="2.20"/>
<path d="M 382.4 29.4 L 382.2 28.7" stroke-width="1.80"/>
<circle cx="380.4" cy="21.4" r="0.63" fill="currentColor" stroke="none"/>
<path d="M 380.4 21.4 L 380.5 21.4" stroke-width="1.60"/>
<path d="M 380.5 21.4 L 380.9 21.4" stroke-width="2.40"/>
<path d="M 380.9 21.4 L 381.8 21.5" stroke-width="2.60"/>
<path d="M 381.8 21.5 L 383.3 21.5" stroke-width="2.40"/>
<path d="M 383.3 21.5 L 385.4 21.4" stroke-width="2.00"/>
<path d="M 385.4 21.4 L 387.4 21.3" stroke-width="1.60"/>
<path d="M 387.4 21.3 L 388.7 21.1" stroke-width="1.40"/>
<circle cx="408.4" cy="22.3" r="0.63" fill="currentColor" stroke="none"/>
<path d="M 408.4 22.3 L 408.4 21.8" stroke-width="1.60"/>
<path d="M 408.4 21.8 L 408.4 21.1" stroke-width="2.20"/>
<path d="M 408.4 21.1 L 408.2 20.3 L 407.8 19.6 L 407.0 19.1 L 405.9 19.1" stroke-width="2.40"/>
<path d="M 405.9 19.1 L 404.4 19.5" stroke-width="2.20"/>
<path d="M 404.4 19.5 L 402.8 20.4" stroke-width="2.00"/>
<path d="M 402.8 20.4 L 401.4 21.9" stroke-width="1.80"/>
<path d="M 401.4 21.9 L 400.3 23.5 L 399.9 25.2 L 400.0 26.6 L 400.8 27.7" stroke-width="1.60"/>
<path d="M 400.8 27.7 L 401.9 28.3 L 403.4 28.3 L 405.1 27.9" stroke-width="1.80"/>
<path d="M 405.1 27.9 L 406.8 27.0 L 408.3 25.8 L 409.6 24.4 L 410.6 23.1 L 411.2 22.1" stroke-width="1.60"/>
<path d="M 411.2 22.1 L 411.5 21.4" stroke-width="1.80"/>
<path d="M 411.5 21.4 L 411.5 21.1" stroke-width="2.20"/>
<path d="M 411.5 21.1 L 411.5 21.2" stroke-width="2.40"/>
<path d="M 411.5 21.2 L 411.6 21.7 L 411.7 22.9" stroke-width="2.60"/>
<path d="M 411.7 22.9 L 411.9 24.6" stroke-width="2.40"/>
<path d="M 411.9 24.6 L 412.1 26.7" stroke-width="1.80"/>
<path d="M 412.1 26.7 L 412.4 29.3" stroke-width="1.60"/>
<path d="M 412.4 29.3 L 412.6 32.1" stroke-width="1.40"/>
<path d="M 412.6 32.1 L 412.6 34.9 L 412.5 37.7 L 412.0 40.1 L 411.2 42.2 L 410.0 43.9 L 408.5 45.0" stroke-width="1.20"/>
<path d="M 408.5 45.0 L 406.7 45.6 L 404.8 45.7 L 402.9 45.3 L 401.2 44.4 L 399.7 43.0 L 398.7 41.2 L 398.1 39.7" stroke-width="1.40"/>
<path d="M 398.1 39.7 L 397.9 38.6" stroke-width="1.20"/>
<circle cx="420.0" cy="21.0" r="0.63" fill="currentColor" stroke="none"/>
<path d="M 420.0 21.0 L 419.9 20.6" stroke-width="1.60"/>
<path d="M 419.9 20.6 L 419.8 20.0" stroke-width="2.20"/>
<path d="M 419.8 20.0 L 419.6 19.3 L 419.2 18.6 L 418.5 18.2 L 417.6 18.2 L 416.5 18.5" stroke-width="2.40"/>
<path d="M 416.5 18.5 L 415.3 19.3" stroke-width="2.20"/>
<path d="M 415.3 19.3 L 414.2 20.6" stroke-width="2.00"/>
<path d="M 414.2 20.6 L 413.4 22.2 L 413.1 23.8" stroke-width="1.80"/>
<path d="M 413.1 23.8 L 413.3 25.4 L 413.9 26.6" stroke-width="1.60"/>
<path d="M 413.9 26.6 L 415.0 27.4 L 416.4 27.8 L 418.1 27.7" stroke-width="1.80"/>
<path d="M 418.1 27.7 L 419.8 27.1 L 421.4 26.2 L 422.6 25.0 L 423.4 23.5 L 423.9 22.1 L 423.9 20.9" stroke-width="1.60"/>
<path d="M 423.9 20.9 L 423.7 20.1" stroke-width="1.80"/>
<path d="M 423.7 20.1 L 423.4 19.5" stroke-width="2.00"/>
<path d="M 423.4 19.5 L 423.1 19.3" stroke-width="2.40"/>
<path d="M 423.1 19.3 L 423.0 19.4 L 423.2 19.8 L 423.6 20.5 L 424.5 21.2" stroke-width="2.60"/>
<path d="M 424.5 21.2 L 425.7 21.9" stroke-width="2.40"/>
<path d="M 425.7 21.9 L 427.2 22.2" stroke-width="2.20"/>
<path d="M 427.2 22.2 L 428.9 22.3" stroke-width="2.00"/>
<path d="M 428.9 22.3 L 430.6 22.0" stroke-width="1.80"/>
<path d="M 430.6 22.0 L 432.2 21.4 L 433.6 20.5 L 434.6 19.6" stroke-width="1.60"/>
<path d="M 434.6 19.6 L 435.1 18.6 L 435.3 17.7" stroke-width="1.80"/>
<path d="M 435.3 17.7 L 434.9 17.0" stroke-width="2.00"/>
<path d="M 434.9 17.0 L 434.2 16.6 L 433.1 16.6 L 431.8 17.1" stroke-width="2.20"/>
<path d="M 431.8 17.1 L 430.4 18.0" stroke-width="2.00"/>
<path d="M 430.4 18.0 L 429.2 19.3" stroke-width="1.80"/>
<path d="M 429.2 19.3 L 428.2 20.9 L 427.7 22.6 L 427.7 24.3 L 428.2 25.7 L 429.3 26.8 L 430.8 27.5 L 432.6 27.7 L 434.6 27.5" stroke-width="1.60"/>
<path d="M 434.6 27.5 L 436.7 26.9 L 438.7 26.0 L 440.4 24.7 L 441.8 23.2 L 443.0 21.6 L 443.9 20.1 L 444.7 18.8" stroke-width="1.40"/>
<path d="M 444.7 18.8 L 445.4 17.7" stroke-width="1.60"/>
<path d="M 445.4 17.7 L 446.0 17.0 L 446.6 16.5" stroke-width="1.80"/>
<path d="M 446.6 16.5 L 447.4 16.3" stroke-width="2.00"/>
<path d="M 447.4 16.3 L 448.4 16.4 L 449.6 16.8" stroke-width="2.20"/>
<path d="M 449.6 16.8 L 451.0 17.6" stroke-width="2.00"/>
<path d="M 451.0 17.6 L 452.3 18.5 L 453.4 19.7 L 454.2 21.0 L 454.6 22.3 L 454.7 23.5 L 454.4 24.7 L 453.6 25.8 L 452.5 26.7 L 451.1 27.2 L 449.4 27.4" stroke-width="1.80"/>
<path d="M 449.4 27.4 L 447.5 27.3 L 445.6 26.9" stroke-width="1.60"/>
<path d="M 445.6 26.9 L 444.0 26.5" stroke-width="1.40"/>
<path d="M 444.0 26.5 L 443.0 26.1" stroke-width="1.20"/>
</svg>
