<svg xmlns="http://www.w3.org/2000/svg" viewBox="0 0 462.0 55.3" fill="none" stroke="currentColor" stroke-linecap="round" stroke-linejoin="round" role="img">
<circle cx="14.1" cy="21.6" r="0.63" fill="currentColor" stroke="none"/>
<path d="M 14.1 21.6 L 13.9 21.4" stroke-width="1.60"/>
<path d="M 13.9 21.4 L 13.5 21.2" stroke-width="2.20"/>
<path d="M 13.5 21.2 L 12.9 21.1 L 11.9 21.2" stroke-width="2.60"/>
<path d="M 11.9 21.2 L 10.7 21.8" stroke-width="2.40"/>
<path d="M 10.7 21.8 L 9.4 22.8" stroke-width="2.00"/>
<path d="M 9.4 22.8 L 8.1 24.2" stroke-width="1.80"/>
<path d="M 8.1 24.2 L 7.1 26.0 L 6.3 27.8 L 6.0 29.5 L 6.1 31.0 L 6.5 32.0" stroke-width="1.60"/>
<path d="M 6.5 32.0 L 7.3 32.4" stroke-width="1.80"/>
<path d="M 7.3 32.4 L 8.3 32.3 L 9.5 31.6" stroke-width="2.00"/>
<path d="M 9.5 31.6 L 10.8 30.2" stroke-width="1.80"/>
<path d="M 10.8 30.2 L 12.2 28.4" stroke-width="1.60"/>
<path d="M 12.2 28.4 L 13.4 26.4 L 14.4 24.5 L 15.1 22.8 L 15.5 21.5" stroke-width="1.40"/>
<path d="M 15.5 21.5 L 15.7 20.8" stroke-width="1.60"/>
<path d="M 15.7 20.8 L 15.6 20.7" stroke-width="2.00"/>
<path d="M 15.6 20.7 L 15.4 21.2 L 15.1 22.5" stroke-width="2.40"/>
<path d="M 15.1 22.5 L 14.9 24.3" stroke-width="2.00"/>
<path d="M 14.9 24.3 L 14.8 26.4" stroke-width="1.80"/>
<path d="M 14.8 26.4 L 15.1 28.8" stroke-width="1.60"/>
<path d="M 15.1 28.8 L 15.8 31.0 L 16.8 32.9 L 17.9 34.1" stroke-width="1.40"/>
<path d="M 17.9 34.1 L 18.7 34.8" stroke-width="1.20"/>
<circle cx="40.2" cy="28.7" r="0.63" fill="currentColor" stroke="none"/>
<path d="M 40.2 28.7 L 40.7 28.2" stroke-width="1.60"/>
<path d="M 40.7 28.2 L 41.6 27.2 L 42.9 25.6" stroke-width="1.80"/>
<path d="M 42.9 25.6 L 44.3 23.6" stroke-width="1.60"/>
<path d="M 44.3 23.6 L 45.8 21.2" stroke-width="1.40"/>
<path d="M 45.8 21.2 L 47.3 18.5 L 48.6 15.7" stroke-width="1.20"/>
<path d="M 48.6 15.7 L 49.7 13.0 L 50.4 10.6" stroke-width="1.00"/>
<path d="M 50.4 10.6 L 50.9 8.5 L 50.9 7.0" stroke-width="1.20"/>
<path d="M 50.9 7.0 L 50.5 6.1" stroke-width="1.40"/>
<path d="M 50.5 6.1 L 49.7 6.0" stroke-width="1.60"/>
<path d="M 49.7 6.0 L 48.6 6.7 L 47.2 8.3" stroke-width="1.80"/>
<path d="M 47.2 8.3 L 45.6 10.8" stroke-width="1.40"/>
<path d="M 45.6 10.8 L 44.1 14.0" stroke-width="1.20"/>
<path d="M 44.1 14.0 L 42.8 17.7 L 42.0 21.5 L 41.6 25.1 L 41.9 28.3 L 42.7 30.7 L 44.0 32.2" stroke-width="1.00"/>
<path d="M 44.0 32.2 L 45.8 32.7 L 47.9 32.3 L 50.1 31.1 L 52.3 29.2 L 54.3 27.0" stroke-width="1.20"/>
<path d="M 54.3 27.0 L 56.0 24.8" stroke-width="1.00"/>
<path d="M 56.0 24.8 L 57.3 23.0 L 58.1 21.6" stroke-width="1.20"/>
<path d="M 58.1 21.6 L 58.5 20.9" stroke-width="1.40"/>
<path d="M 58.5 20.9 L 58.6 20.8" stroke-width="1.80"/>
<path d="M 58.6 20.8 L 58.4 21.4 L 58.0 22.6" stroke-width="2.20"/>
<path d="M 58.0 22.6 L 57.5 24.4" stroke-width="2.00"/>
<path d="M 57.5 24.4 L 57.1 26.5" stroke-width="1.80"/>
<path d="M 57.1 26.5 L 56.8 28.7" stroke-width="1.60"/>
<path d="M 56.8 28.7 L 56.8 30.6" stroke-width="1.40"/>
<path d="M 56.8 30.6 L 57.0 32.0 L 57.4 32.7" stroke-width="1.60"/>
<path d="M 57.4 32.7 L 57.9 32.7 L 58.4 32.3 L 58.7 31.8" stroke-width="2.00"/>
<circle cx="61.1" cy="13.5" r="0.63" fill="currentColor" stroke="none"/>
<path d="M 61.1 13.5 L 61.1 13.2" stroke-width="1.60"/>
<path d="M 61.1 13.2 L 61.1 12.9" stroke-width="2.20"/>
<path d="M 61.1 12.9 L 61.1 12.6" stroke-width="2.40"/>
<path d="M 61.1 12.6 L 61.2 12.4" stroke-width="2.00"/>
<circle cx="64.8" cy="24.4" r="0.63" fill="currentColor" stroke="none"/>
<path d="M 64.8 24.4 L 64.7 25.1" stroke-width="1.60"/>
<path d="M 64.7 25.1 L 64.5 26.2 L 64.3 27.7" stroke-width="2.00"/>
<path d="M 64.3 27.7 L 64.0 29.1 L 63.7 30.5 L 63.5 31.5" stroke-width="1.80"/>
<path d="M 63.5 31.5 L 63.4 32.2" stroke-width="2.00"/>
<path d="M 63.4 32.2 L 63.4 32.5" stroke-width="2.40"/>
<path d="M 63.4 32.5 L 63.7 32.2 L 64.2 31.4" stroke-width="2.60"/>
<path d="M 64.2 31.4 L 65.0 30.1" stroke-width="2.40"/>
<path d="M 65.0 30.1 L 66.1 28.4" stroke-width="2.00"/>
<path d="M 66.1 28.4 L 67.5 26.7" stroke-width="1.80"/>
<path d="M 67.5 26.7 L 69.0 25.2" stroke-width="1.60"/>
<path d="M 69.0 25.2 L 70.5 23.9 L 71.8 23.2" stroke-width="1.40"/>
<path d="M 71.8 23.2 L 72.9 22.9" stroke-width="1.60"/>
<path d="M 72.9 22.9 L 73.7 23.2" stroke-width="1.80"/>
<path d="M 73.7 23.2 L 74.1 24.0 L 74.3 25.2 L 74.3 26.6" stroke-width="2.00"/>
<path d="M 74.3 26.6 L 74.3 28.1 L 74.4 29.6 L 74.7 30.7" stroke-width="1.80"/>
<path d="M 74.7 30.7 L 75.4 31.4 L 76.4 31.7 L 77.7 31.4" stroke-width="2.00"/>
<path d="M 77.7 31.4 L 79.1 30.5 L 80.7 29.2" stroke-width="1.80"/>
<path d="M 80.7 29.2 L 82.1 27.5" stroke-width="1.60"/>
<path d="M 82.1 27.5 L 83.2 25.6 L 83.9 23.8 L 84.2 22.3" stroke-width="1.40"/>
<path d="M 84.2 22.3 L 84.0 21.2" stroke-width="1.60"/>
<path d="M 84.0 21.2 L 83.5 20.7" stroke-width="1.80"/>
<path d="M 83.5 20.7 L 82.7 20.7 L 81.7 21.3 L 80.8 22.5" stroke-width="2.00"/>
<path d="M 80.8 22.5 L 80.1 24.1" stroke-width="1.80"/>
<path d="M 80.1 24.1 L 79.9 26.0 L 80.2 28.0 L 81.2 29.8" stroke-width="1.60"/>
<path d="M 81.2 29.8 L 82.8 31.4 L 85.0 32.6" stroke-width="1.40"/>
<path d="M 85.0 32.6 L 87.7 33.2 L 90.7 33.4" stroke-width="1.20"/>
<path d="M 90.7 33.4 L 93.2 33.2 L 94.9 33.0" stroke-width="1.00"/>
<circle cx="111.6" cy="25.4" r="0.63" fill="currentColor" stroke="none"/>
<path d="M 111.6 25.4 L 111.4 25.1" stroke-width="1.60"/>
<path d="M 111.4 25.1 L 111.2 24.8" stroke-width="2.20"/>
<path d="M 111.2 24.8 L 110.8 24.5 L 110.2 24.4 L 109.4 24.7" stroke-width="2.60"/>
<path d="M 109.4 24.7 L 108.4 25.4" stroke-width="2.40"/>
<path d="M 108.4 25.4 L 107.5 26.5" stroke-width="2.20"/>
<path d="M 107.5 26.5 L 106.8 27.9" stroke-width="2.00"/>
<path d="M 106.8 27.9 L 106.3 29.5 L 106.3 30.9 L 106.7 32.2 L 107.5 33.1 L 108.6 33.5" stroke-width="1.80"/>
<path d="M 108.6 33.5 L 109.9 33.5" stroke-width="2.00"/>
<path d="M 109.9 33.5 L 111.2 32.9 L 112.4 31.7" stroke-width="1.80"/>
<path d="M 112.4 31.7 L 113.5 30.1 L 114.2 28.2" stroke-width="1.60"/>
<path d="M 114.2 28.2 L 114.7 26.2 L 114.8 24.3 L 114.5 22.7" stroke-width="1.40"/>
<path d="M 114.5 22.7 L 114.0 21.6" stroke-width="1.60"/>
<path d="M 114.0 21.6 L 113.5 21.1" stroke-width="1.80"/>
<path d="M 113.5 21.1 L 113.1 21.1" stroke-width="2.00"/>
<path d="M 113.1 21.1 L 112.8 21.6 L 112.8 22.5 L 113.2 23.6" stroke-width="2.40"/>
<path d="M 113.2 23.6 L 114.0 24.7" stroke-width="2.20"/>
<path d="M 114.0 24.7 L 115.3 25.6" stroke-width="2.00"/>
<path d="M 115.3 25.6 L 116.9 26.0 L 118.9 25.9" stroke-width="1.80"/>
<path d="M 118.9 25.9 L 121.1 25.0" stroke-width="1.60"/>
<path d="M 121.1 25.0 L 123.3 23.5" stroke-width="1.40"/>
<path d="M 123.3 23.5 L 125.5 21.4 L 127.5 18.9" stroke-width="1.20"/>
<path d="M 127.5 18.9 L 129.2 16.2 L 130.4 13.7 L 131.2 11.5" stroke-width="1.00"/>
<path d="M 131.2 11.5 L 131.6 9.9" stroke-width="1.20"/>
<path d="M 131.6 9.9 L 131.6 8.9" stroke-width="1.40"/>
<path d="M 131.6 8.9 L 131.5 8.7" stroke-width="1.60"/>
<path d="M 131.5 8.7 L 131.1 9.2 L 130.5 10.6" stroke-width="2.00"/>
<path d="M 130.5 10.6 L 129.6 12.9" stroke-width="1.80"/>
<path d="M 129.6 12.9 L 128.6 16.2" stroke-width="1.40"/>
<path d="M 128.6 16.2 L 127.6 20.1" stroke-width="1.20"/>
<path d="M 127.6 20.1 L 126.6 24.6 L 125.8 29.3 L 125.2 34.1 L 124.8 38.6 L 124.7 42.6 L 124.8 45.8 L 125.1 48.0 L 125.6 49.1" stroke-width="1.00"/>
<path d="M 125.6 49.1 L 126.0 49.3" stroke-width="1.20"/>
<path d="M 126.0 49.3 L 126.2 49.2" stroke-width="1.40"/>
<circle cx="122.0" cy="31.1" r="0.63" fill="currentColor" stroke="none"/>
<path d="M 122.0 31.1 L 121.9 30.9" stroke-width="1.60"/>
<path d="M 121.9 30.9 L 122.0 30.7" stroke-width="2.20"/>
<path d="M 122.0 30.7 L 122.5 30.5 L 123.6 30.3" stroke-width="2.60"/>
<path d="M 123.6 30.3 L 125.2 30.2" stroke-width="2.20"/>
<path d="M 125.2 30.2 L 127.4 30.2" stroke-width="2.00"/>
<path d="M 127.4 30.2 L 129.8 30.0" stroke-width="1.60"/>
<path d="M 129.8 30.0 L 132.5 29.7" stroke-width="1.40"/>
<path d="M 132.5 29.7 L 135.2 29.2 L 137.8 28.5 L 139.9 27.7" stroke-width="1.20"/>
<path d="M 139.9 27.7 L 141.2 27.1" stroke-width="1.00"/>
<circle cx="151.4" cy="23.8" r="0.63" fill="currentColor" stroke="none"/>
<path d="M 151.4 23.8 L 151.4 24.1" stroke-width="1.60"/>
<path d="M 151.4 24.1 L 151.3 24.8" stroke-width="2.20"/>
<path d="M 151.3 24.8 L 151.1 25.9" stroke-width="2.40"/>
<path d="M 151.1 25.9 L 150.8 27.3" stroke-width="2.20"/>
<path d="M 150.8 27.3 L 150.6 28.8" stroke-width="2.00"/>
<path d="M 150.6 28.8 L 150.4 30.5 L 150.3 32.1 L 150.4 33.5 L 150.6 34.5" stroke-width="1.80"/>
<path d="M 150.6 34.5 L 150.9 34.9" stroke-width="2.00"/>
<path d="M 150.9 34.9 L 151.3 35.0" stroke-width="2.20"/>
<path d="M 151.3 35.0 L 151.5 34.8" stroke-width="2.00"/>
<circle cx="153.5" cy="16.1" r="0.63" fill="currentColor" stroke="none"/>
<path d="M 153.5 16.1 L 153.6 16.1" stroke-width="1.60"/>
<path d="M 153.6 16.1 L 153.6 16.1 L 153.8 16.1" stroke-width="2.40"/>
<path d="M 153.8 16.1 L 153.9 16.2" stroke-width="2.00"/>
<circle cx="156.7" cy="25.5" r="0.63" fill="currentColor" stroke="none"/>
<path d="M 156.7 25.5 L 156.8 25.8" stroke-width="1.60"/>
<path d="M 156.8 25.8 L 156.9 26.5" stroke-width="2.20"/>
<path d="M 156.9 26.5 L 156.9 27.5" stroke-width="2.40"/>
<path d="M 156.9 27.5 L 156.9 28.8" stroke-width="2.20"/>
<path d="M 156.9 28.8 L 156.8 30.2 L 156.7 31.5 L 156.6 32.6" stroke-width="2.00"/>
<path d="M 156.6 32.6 L 156.5 33.3" stroke-width="2.20"/>
<path d="M 156.5 33.3 L 156.5 33.6" stroke-width="2.40"/>
<path d="M 156.5 33.6 L 156.5 33.6 L 156.7 33.1 L 157.2 32.1" stroke-width="2.60"/>
<path d="M 157.2 32.1 L 157.9 30.8" stroke-width="2.40"/>
<path d="M 157.9 30.8 L 158.9 29.2" stroke-width="2.00"/>
<path d="M 158.9 29.2 L 160.1 27.7" stroke-width="1.80"/>
<path d="M 160.1 27.7 L 161.4 26.4 L 162.6 25.5 L 163.7 24.9" stroke-width="1.60"/>
<path d="M 163.7 24.9 L 164.6 24.9" stroke-width="1.80"/>
<path d="M 164.6 24.9 L 165.3 25.3 L 165.8 26.3 L 166.0 27.7" stroke-width="2.00"/>
<path d="M 166.0 27.7 L 166.2 29.5 L 166.3 31.3" stroke-width="1.80"/>
<path d="M 166.3 31.3 L 166.5 33.0 L 166.8 34.4" stroke-width="1.60"/>
<path d="M 166.8 34.4 L 167.3 35.4" stroke-width="1.80"/>
<path d="M 167.3 35.4 L 167.9 35.8 L 168.8 35.6 L 169.8 34.7" stroke-width="2.00"/>
<path d="M 169.8 34.7 L 171.0 33.2" stroke-width="1.80"/>
<path d="M 171.0 33.2 L 172.4 31.0" stroke-width="1.60"/>
<path d="M 172.4 31.0 L 173.8 28.5" stroke-width="1.40"/>
<path d="M 173.8 28.5 L 175.1 25.6 L 176.2 22.6" stroke-width="1.20"/>
<path d="M 176.2 22.6 L 177.2 19.8 L 178.0 17.2 L 178.6 14.9" stroke-width="1.00"/>
<path d="M 178.6 14.9 L 179.0 13.2" stroke-width="1.20"/>
<path d="M 179.0 13.2 L 179.3 12.0" stroke-width="1.40"/>
<path d="M 179.3 12.0 L 179.4 11.4" stroke-width="1.60"/>
<path d="M 179.4 11.4 L 179.4 11.4" stroke-width="2.00"/>
<path d="M 179.4 11.4 L 179.3 12.1" stroke-width="2.40"/>
<path d="M 179.3 12.1 L 179.0 13.4" stroke-width="2.20"/>
<path d="M 179.0 13.4 L 178.5 15.3" stroke-width="2.00"/>
<path d="M 178.5 15.3 L 177.9 17.7" stroke-width="1.60"/>
<path d="M 177.9 17.7 L 177.3 20.5" stroke-width="1.40"/>
<path d="M 177.3 20.5 L 176.8 23.3 L 176.5 26.1 L 176.3 28.6 L 176.2 30.7" stroke-width="1.20"/>
<path d="M 176.2 30.7 L 176.3 32.1 L 176.4 33.0" stroke-width="1.40"/>
<path d="M 176.4 33.0 L 176.7 33.2" stroke-width="1.80"/>
<path d="M 176.7 33.2 L 176.9 32.9" stroke-width="2.20"/>
<path d="M 176.9 32.9 L 177.4 32.0" stroke-width="2.40"/>
<path d="M 177.4 32.0 L 178.0 30.6" stroke-width="2.20"/>
<path d="M 178.0 30.6 L 178.8 29.0" stroke-width="2.00"/>
<path d="M 178.8 29.0 L 179.8 27.1" stroke-width="1.80"/>
<path d="M 179.8 27.1 L 180.9 25.3" stroke-width="1.60"/>
<path d="M 180.9 25.3 L 182.2 23.7 L 183.6 22.5 L 185.0 21.6" stroke-width="1.40"/>
<path d="M 185.0 21.6 L 186.2 21.2" stroke-width="1.60"/>
<path d="M 186.2 21.2 L 187.2 21.1" stroke-width="1.80"/>
<path d="M 187.2 21.1 L 187.9 21.3" stroke-width="2.00"/>
<path d="M 187.9 21.3 L 188.1 21.8" stroke-width="2.20"/>
<path d="M 188.1 21.8 L 187.9 22.3 L 187.1 22.9" stroke-width="2.40"/>
<path d="M 187.1 22.9 L 185.7 23.5" stroke-width="2.20"/>
<path d="M 185.7 23.5 L 184.0 24.1" stroke-width="2.00"/>
<path d="M 184.0 24.1 L 182.2 24.6" stroke-width="1.80"/>
<path d="M 182.2 24.6 L 180.5 25.1 L 179.2 25.4" stroke-width="1.60"/>
<path d="M 179.2 25.4 L 178.4 25.7" stroke-width="1.80"/>
<path d="M 178.4 25.7 L 178.1 26.0" stroke-width="2.00"/>
<path d="M 178.1 26.0 L 178.3 26.4" stroke-width="2.40"/>
<path d="M 178.3 26.4 L 178.9 26.8" stroke-width="2.60"/>
<path d="M 178.9 26.8 L 179.8 27.5" stroke-width="2.40"/>
<path d="M 179.8 27.5 L 181.0 28.2" stroke-width="2.20"/>
<path d="M 181.0 28.2 L 182.3 29.1" stroke-width="2.00"/>
<path d="M 182.3 29.1 L 183.7 29.9 L 185.3 30.8" stroke-width="1.80"/>
<path d="M 185.3 30.8 L 186.8 31.5 L 188.3 32.0 L 189.6 32.3 L 190.6 32.3 L 191.2 32.3" stroke-width="1.60"/>
<circle cx="197.6" cy="31.4" r="0.63" fill="currentColor" stroke="none"/>
<path d="M 197.6 31.4 L 197.7 31.5" stroke-width="1.60"/>
<path d="M 197.7 31.5 L 197.8 31.6" stroke-width="2.40"/>
<path d="M 197.8 31.6 L 197.9 32.0 L 197.9 32.8 L 197.9 33.9" stroke-width="2.60"/>
<path d="M 197.9 33.9 L 197.7 35.3" stroke-width="2.40"/>
<path d="M 197.7 35.3 L 197.5 36.5" stroke-width="2.00"/>
<path d="M 197.5 36.5 L 197.3 37.3" stroke-width="1.60"/>
<circle cx="216.7" cy="12.3" r="0.63" fill="currentColor" stroke="none"/>
<path d="M 216.7 12.3 L 216.7 12.7" stroke-width="1.60"/>
<path d="M 216.7 12.7 L 216.6 13.7 L 216.5 15.2" stroke-width="2.00"/>
<path d="M 216.5 15.2 L 216.3 17.3" stroke-width="1.80"/>
<path d="M 216.3 17.3 L 216.1 19.7" stroke-width="1.60"/>
<path d="M 216.1 19.7 L 215.7 22.4" stroke-width="1.40"/>
<path d="M 215.7 22.4 L 215.3 25.3 L 215.0 28.2 L 214.8 30.8 L 214.8 33.0 L 215.0 34.4 L 215.1 35.2" stroke-width="1.20"/>
<circle cx="210.7" cy="21.6" r="0.63" fill="currentColor" stroke="none"/>
<path d="M 210.7 21.6 L 210.9 21.6" stroke-width="1.60"/>
<path d="M 210.9 21.6 L 211.6 21.7" stroke-width="2.20"/>
<path d="M 211.6 21.7 L 212.7 21.8" stroke-width="2.40"/>
<path d="M 212.7 21.8 L 214.3 21.7" stroke-width="2.20"/>
<path d="M 214.3 21.7 L 216.2 21.4" stroke-width="1.80"/>
<path d="M 216.2 21.4 L 218.3 20.6 L 220.2 19.5" stroke-width="1.60"/>
<path d="M 220.2 19.5 L 222.0 18.0 L 223.5 16.3 L 224.7 14.6 L 225.5 13.0 L 226.0 11.7" stroke-width="1.40"/>
<path d="M 226.0 11.7 L 226.2 10.9" stroke-width="1.60"/>
<path d="M 226.2 10.9 L 226.2 10.7" stroke-width="2.00"/>
<path d="M 226.2 10.7 L 226.1 11.1 L 225.8 12.2" stroke-width="2.40"/>
<path d="M 225.8 12.2 L 225.4 14.0" stroke-width="2.20"/>
<path d="M 225.4 14.0 L 224.8 16.3" stroke-width="1.80"/>
<path d="M 224.8 16.3 L 224.3 19.1 L 223.9 21.9" stroke-width="1.40"/>
<path d="M 223.9 21.9 L 223.7 24.5 L 223.7 26.7 L 223.7 28.3" stroke-width="1.20"/>
<path d="M 223.7 28.3 L 224.0 29.3" stroke-width="1.40"/>
<path d="M 224.0 29.3 L 224.3 29.7" stroke-width="1.80"/>
<path d="M 224.3 29.7 L 224.8 29.4" stroke-width="2.00"/>
<path d="M 224.8 29.4 L 225.6 28.5" stroke-width="2.20"/>
<path d="M 225.6 28.5 L 226.7 27.2" stroke-width="2.00"/>
<path d="M 226.7 27.2 L 227.8 25.7" stroke-width="1.80"/>
<path d="M 227.8 25.7 L 229.0 24.3 L 230.1 23.1 L 230.9 22.3" stroke-width="1.60"/>
<path d="M 230.9 22.3 L 231.5 22.0" stroke-width="1.80"/>
<path d="M 231.5 22.0 L 231.8 22.1" stroke-width="2.20"/>
<path d="M 231.8 22.1 L 231.9 22.7 L 231.8 23.8" stroke-width="2.40"/>
<path d="M 231.8 23.8 L 231.7 25.2" stroke-width="2.20"/>
<path d="M 231.7 25.2 L 231.7 26.7 L 232.0 28.1 L 232.4 29.2 L 233.2 29.9 L 234.2 30.0 L 235.5 29.5" stroke-width="2.00"/>
<path d="M 235.5 29.5 L 236.9 28.4" stroke-width="1.80"/>
<path d="M 236.9 28.4 L 238.4 27.0 L 239.7 25.3" stroke-width="1.60"/>
<path d="M 239.7 25.3 L 240.7 23.7" stroke-width="1.40"/>
<path d="M 240.7 23.7 L 241.4 22.4 L 241.8 21.5" stroke-width="1.60"/>
<path d="M 241.8 21.5 L 242.0 21.1" stroke-width="2.00"/>
<path d="M 242.0 21.1 L 241.9 21.2" stroke-width="2.40"/>
<path d="M 241.9 21.2 L 241.7 21.9" stroke-width="2.60"/>
<path d="M 241.7 21.9 L 241.4 23.2" stroke-width="2.40"/>
<path d="M 241.4 23.2 L 241.2 24.8" stroke-width="2.20"/>
<path d="M 241.2 24.8 L 241.0 26.5" stroke-width="2.00"/>
<path d="M 241.0 26.5 L 241.1 28.2 L 241.3 29.6 L 241.8 30.6" stroke-width="1.80"/>
<path d="M 241.8 30.6 L 242.5 31.1 L 243.5 31.0 L 244.7 30.3" stroke-width="2.00"/>
<path d="M 244.7 30.3 L 246.1 29.0" stroke-width="1.80"/>
<path d="M 246.1 29.0 L 247.6 27.3" stroke-width="1.60"/>
<path d="M 247.6 27.3 L 249.1 25.5 L 250.4 23.9 L 251.5 22.6" stroke-width="1.40"/>
<path d="M 251.5 22.6 L 252.1 21.9" stroke-width="1.60"/>
<path d="M 252.1 21.9 L 252.4 21.7" stroke-width="1.80"/>
<path d="M 252.4 21.7 L 252.4 22.0" stroke-width="2.20"/>
<path d="M 252.4 22.0 L 252.2 22.8 L 251.9 24.0" stroke-width="2.40"/>
<path d="M 251.9 24.0 L 251.6 25.4" stroke-width="2.20"/>
<path d="M 251.6 25.4 L 251.3 26.9 L 251.2 28.1 L 251.2 29.0" stroke-width="2.00"/>
<path d="M 251.2 29.0 L 251.4 29.4" stroke-width="2.20"/>
<path d="M 251.4 29.4 L 251.9 29.4" stroke-width="2.40"/>
<path d="M 251.9 29.4 L 252.7 28.9" stroke-width="2.60"/>
<path d="M 252.7 28.9 L 253.7 27.9" stroke-width="2.40"/>
<path d="M 253.7 27.9 L 255.0 26.7" stroke-width="2.00"/>
<path d="M 255.0 26.7 L 256.4 25.4" stroke-width="1.80"/>
<path d="M 256.4 25.4 L 257.7 24.2 L 258.8 23.3" stroke-width="1.60"/>
<path d="M 258.8 23.3 L 259.5 22.8" stroke-width="1.80"/>
<path d="M 259.5 22.8 L 260.0 22.7" stroke-width="2.00"/>
<path d="M 260.0 22.7 L 260.3 22.9" stroke-width="2.40"/>
<path d="M 260.3 22.9 L 260.3 23.6 L 260.3 24.6" stroke-width="2.60"/>
<path d="M 260.3 24.6 L 260.2 25.9" stroke-width="2.40"/>
<path d="M 260.2 25.9 L 260.2 27.2" stroke-width="2.20"/>
<path d="M 260.2 27.2 L 260.3 28.4" stroke-width="2.00"/>
<path d="M 260.3 28.4 L 260.6 29.2 L 261.0 29.7" stroke-width="2.20"/>
<path d="M 261.0 29.7 L 261.5 29.8 L 261.9 29.6" stroke-width="2.40"/>
<path d="M 261.9 29.6 L 262.1 29.3" stroke-width="2.00"/>
<circle cx="261.4" cy="13.3" r="0.63" fill="currentColor" stroke="none"/>
<path d="M 261.4 13.3 L 261.5 13.4" stroke-width="1.60"/>
<path d="M 261.5 13.4 L 261.6 13.7 L 261.9 14.0" stroke-width="2.40"/>
<path d="M 261.9 14.0 L 262.0 14.2" stroke-width="2.00"/>
<circle cx="268.5" cy="10.7" r="0.63" fill="currentColor" stroke="none"/>
<path d="M 268.5 10.7 L 268.5 10.7" stroke-width="1.60"/>
<path d="M 268.5 10.7 L 268.3 11.0" stroke-width="2.40"/>
<path d="M 268.3 11.0 L 268.0 11.6" stroke-width="2.60"/>
<path d="M 268.0 11.6 L 267.5 12.8" stroke-width="2.40"/>
<path d="M 267.5 12.8 L 267.0 14.4" stroke-width="2.20"/>
<path d="M 267.0 14.4 L 266.5 16.4" stroke-width="1.80"/>
<path d="M 266.5 16.4 L 266.1 18.6" stroke-width="1.60"/>
<path d="M 266.1 18.6 L 265.7 20.9 L 265.5 23.2 L 265.5 25.3 L 265.7 27.1 L 265.9 28.4" stroke-width="1.40"/>
<path d="M 265.9 28.4 L 266.2 29.2" stroke-width="1.60"/>
<path d="M 266.2 29.2 L 266.5 29.4" stroke-width="2.00"/>
<path d="M 266.5 29.4 L 266.8 29.1" stroke-width="2.20"/>
<path d="M 266.8 29.1 L 267.2 28.3" stroke-width="2.40"/>
<path d="M 267.2 28.3 L 267.8 27.0" stroke-width="2.20"/>
<path d="M 267.8 27.0 L 268.6 25.4" stroke-width="2.00"/>
<path d="M 268.6 25.4 L 269.5 23.6" stroke-width="1.80"/>
<path d="M 269.5 23.6 L 270.5 22.0 L 271.6 20.5 L 272.7 19.5 L 273.5 18.8" stroke-width="1.60"/>
<path d="M 273.5 18.8 L 274.2 18.5" stroke-width="1.80"/>
<path d="M 274.2 18.5 L 274.6 18.6" stroke-width="2.20"/>
<path d="M 274.6 18.6 L 274.6 19.0" stroke-width="2.40"/>
<path d="M 274.6 19.0 L 274.3 19.7" stroke-width="2.60"/>
<path d="M 274.3 19.7 L 273.6 20.6" stroke-width="2.40"/>
<path d="M 273.6 20.6 L 272.8 21.6" stroke-width="2.20"/>
<path d="M 272.8 21.6 L 271.9 22.7 L 271.1 23.8 L 270.5 24.7 L 270.2 25.6" stroke-width="2.00"/>
<path d="M 270.2 25.6 L 270.3 26.3 L 270.7 27.0" stroke-width="2.20"/>
<path d="M 270.7 27.0 L 271.4 27.6 L 272.3 27.9" stroke-width="2.40"/>
<path d="M 272.3 27.9 L 273.5 28.1 L 274.8 28.0" stroke-width="2.20"/>
<path d="M 274.8 28.0 L 276.3 27.6" stroke-width="2.00"/>
<path d="M 276.3 27.6 L 277.8 26.9 L 279.3 26.0" stroke-width="1.80"/>
<path d="M 279.3 26.0 L 280.7 24.9 L 281.8 23.7 L 282.7 22.5" stroke-width="1.60"/>
<path d="M 282.7 22.5 L 283.4 21.5 L 283.7 20.8" stroke-width="1.80"/>
<path d="M 283.7 20.8 L 283.9 20.4" stroke-width="2.20"/>
<path d="M 283.9 20.4 L 283.8 20.3" stroke-width="2.40"/>
<path d="M 283.8 20.3 L 283.6 20.7 L 283.2 21.5" stroke-width="2.60"/>
<path d="M 283.2 21.5 L 282.8 22.7" stroke-width="2.40"/>
<path d="M 282.8 22.7 L 282.5 24.2" stroke-width="2.20"/>
<path d="M 282.5 24.2 L 282.3 25.7" stroke-width="2.00"/>
<path d="M 282.3 25.7 L 282.4 27.2 L 282.6 28.5" stroke-width="1.80"/>
<path d="M 282.6 28.5 L 283.0 29.3" stroke-width="2.00"/>
<path d="M 283.0 29.3 L 283.6 29.6 L 284.0 29.6" stroke-width="2.20"/>
<path d="M 284.0 29.6 L 284.3 29.4" stroke-width="2.00"/>
<circle cx="283.6" cy="15.5" r="0.63" fill="currentColor" stroke="none"/>
<path d="M 283.6 15.5 L 283.6 15.5" stroke-width="1.60"/>
<path d="M 283.6 15.5 L 283.8 15.4 L 284.0 15.4" stroke-width="2.40"/>
<path d="M 284.0 15.4 L 284.2 15.4" stroke-width="2.00"/>
<circle cx="289.0" cy="21.9" r="0.63" fill="currentColor" stroke="none"/>
<path d="M 289.0 21.9 L 289.1 22.0" stroke-width="1.60"/>
<path d="M 289.1 22.0 L 289.3 22.3" stroke-width="2.40"/>
<path d="M 289.3 22.3 L 289.4 22.9 L 289.5 23.7 L 289.5 24.7" stroke-width="2.60"/>
<path d="M 289.5 24.7 L 289.4 25.9" stroke-width="2.40"/>
<path d="M 289.4 25.9 L 289.2 27.1 L 289.1 28.2 L 289.1 29.1 L 289.1 29.8" stroke-width="2.20"/>
<path d="M 289.1 29.8 L 289.1 30.0" stroke-width="2.40"/>
<path d="M 289.1 30.0 L 289.3 29.9 L 289.7 29.3 L 290.4 28.2" stroke-width="2.60"/>
<path d="M 290.4 28.2 L 291.3 26.7" stroke-width="2.20"/>
<path d="M 291.3 26.7 L 292.5 25.1" stroke-width="1.80"/>
<path d="M 292.5 25.1 L 293.8 23.5 L 295.2 22.3 L 296.4 21.4 L 297.4 20.9" stroke-width="1.60"/>
<path d="M 297.4 20.9 L 298.1 20.8" stroke-width="1.80"/>
<path d="M 298.1 20.8 L 298.6 21.2" stroke-width="2.00"/>
<path d="M 298.6 21.2 L 298.8 22.1 L 298.9 23.4" stroke-width="2.20"/>
<path d="M 298.9 23.4 L 298.8 25.0" stroke-width="2.00"/>
<path d="M 298.8 25.0 L 298.7 26.7 L 298.8 28.3 L 299.1 29.6 L 299.8 30.4" stroke-width="1.80"/>
<path d="M 299.8 30.4 L 300.9 30.8" stroke-width="2.00"/>
<path d="M 300.9 30.8 L 301.9 30.8" stroke-width="1.80"/>
<path d="M 301.9 30.8 L 302.6 30.6" stroke-width="1.60"/>
<circle cx="308.8" cy="23.4" r="0.63" fill="currentColor" stroke="none"/>
<path d="M 308.8 23.4 L 308.5 23.1" stroke-width="1.60"/>
<path d="M 308.5 23.1 L 307.8 22.9" stroke-width="2.00"/>
<path d="M 307.8 22.9 L 306.8 22.8 L 305.7 23.2 L 304.6 23.8" stroke-width="2.20"/>
<path d="M 304.6 23.8 L 303.7 24.7 L 303.1 25.7 L 303.1 26.6" stroke-width="2.00"/>
<path d="M 303.1 26.6 L 303.5 27.3 L 304.2 27.7 L 305.3 27.7 L 306.7 27.4" stroke-width="2.20"/>
<path d="M 306.7 27.4 L 308.0 26.7" stroke-width="2.00"/>
<path d="M 308.0 26.7 L 309.3 25.7 L 310.2 24.5 L 310.9 23.4 L 311.2 22.4" stroke-width="1.80"/>
<path d="M 311.2 22.4 L 311.2 21.7" stroke-width="2.00"/>
<path d="M 311.2 21.7 L 311.2 21.4" stroke-width="2.40"/>
<path d="M 311.2 21.4 L 311.0 21.6 L 310.7 22.1 L 310.4 23.3" stroke-width="2.60"/>
<path d="M 310.4 23.3 L 310.2 25.0" stroke-width="2.20"/>
<path d="M 310.2 25.0 L 310.0 27.1" stroke-width="2.00"/>
<path d="M 310.0 27.1 L 309.9 29.6" stroke-width="1.60"/>
<path d="M 309.9 29.6 L 310.0 32.4" stroke-width="1.40"/>
<path d="M 310.0 32.4 L 310.0 35.3 L 309.9 38.3 L 309.7 41.1 L 309.2 43.5 L 308.4 45.5 L 307.3 46.9" stroke-width="1.20"/>
<path d="M 307.3 46.9 L 306.0 47.7 L 304.6 47.9" stroke-width="1.40"/>
<path d="M 304.6 47.9 L 303.1 47.3 L 301.7 46.2 L 300.7 44.6" stroke-width="1.60"/>
<path d="M 300.7 44.6 L 300.2 43.1" stroke-width="1.40"/>
<path d="M 300.2 43.1 L 299.9 42.0" stroke-width="1.20"/>
<circle cx="334.4" cy="23.2" r="0.63" fill="currentColor" stroke="none"/>
<path d="M 334.4 23.2 L 334.4 22.8" stroke-width="1.60"/>
<path d="M 334.4 22.8 L 334.3 22.2" stroke-width="2.20"/>
<path d="M 334.3 22.2 L 334.1 21.5 L 333.7 20.8 L 333.1 20.3 L 332.1 20.2" stroke-width="2.40"/>
<path d="M 332.1 20.2 L 330.8 20.5" stroke-width="2.20"/>
<path d="M 330.8 20.5 L 329.4 21.3" stroke-width="2.00"/>
<path d="M 329.4 21.3 L 327.9 22.6" stroke-width="1.80"/>
<path d="M 327.9 22.6 L 326.6 24.2 L 325.7 26.0" stroke-width="1.60"/>
<path d="M 325.7 26.0 L 325.1 27.7" stroke-width="1.40"/>
<path d="M 325.1 27.7 L 325.1 29.3 L 325.4 30.4" stroke-width="1.60"/>
<path d="M 325.4 30.4 L 326.2 31.0" stroke-width="1.80"/>
<path d="M 326.2 31.0 L 327.2 31.1 L 328.4 30.7" stroke-width="2.00"/>
<path d="M 328.4 30.7 L 329.8 29.6" stroke-width="1.80"/>
<path d="M 329.8 29.6 L 331.3 28.2 L 332.6 26.4" stroke-width="1.60"/>
<path d="M 332.6 26.4 L 333.7 24.5 L 334.5 22.9 L 335.0 21.5" stroke-width="1.40"/>
<path d="M 335.0 21.5 L 335.3 20.7" stroke-width="1.60"/>
<path d="M 335.3 20.7 L 335.3 20.3" stroke-width="2.00"/>
<path d="M 335.3 20.3 L 335.2 20.4" stroke-width="2.40"/>
<path d="M 335.2 20.4 L 334.9 21.1" stroke-width="2.60"/>
<path d="M 334.9 21.1 L 334.5 22.3" stroke-width="2.40"/>
<path d="M 334.5 22.3 L 333.9 23.9" stroke-width="2.20"/>
<path d="M 333.9 23.9 L 333.5 25.8" stroke-width="1.80"/>
<path d="M 333.5 25.8 L 333.3 27.7 L 333.3 29.3 L 333.7 30.5" stroke-width="1.60"/>
<path d="M 333.7 30.5 L 334.3 31.3" stroke-width="1.80"/>
<path d="M 334.3 31.3 L 335.2 31.5 L 336.2 31.1 L 337.6 30.1" stroke-width="2.00"/>
<path d="M 337.6 30.1 L 339.1 28.7" stroke-width="1.80"/>
<path d="M 339.1 28.7 L 340.7 26.8" stroke-width="1.60"/>
<path d="M 340.7 26.8 L 342.4 24.9" stroke-width="1.40"/>
<path d="M 342.4 24.9 L 344.0 23.0 L 345.7 21.3 L 347.2 20.0" stroke-width="1.20"/>
<path d="M 347.2 20.0 L 348.7 19.1 L 350.0 18.8" stroke-width="1.40"/>
<path d="M 350.0 18.8 L 351.2 18.9 L 352.3 19.6" stroke-width="1.60"/>
<path d="M 352.3 19.6 L 353.0 20.8 L 353.5 22.3 L 353.5 23.9" stroke-width="1.80"/>
<path d="M 353.5 23.9 L 353.2 25.5 L 352.5 26.8 L 351.5 27.9" stroke-width="1.60"/>
<path d="M 351.5 27.9 L 350.4 28.5 L 349.3 28.6 L 348.2 28.3" stroke-width="1.80"/>
<path d="M 348.2 28.3 L 347.4 27.6 L 346.9 26.6 L 346.7 25.7" stroke-width="2.00"/>
<path d="M 346.7 25.7 L 346.7 25.0" stroke-width="1.80"/>
<circle cx="368.1" cy="23.3" r="0.63" fill="currentColor" stroke="none"/>
<path d="M 368.1 23.3 L 368.1 23.3" stroke-width="1.60"/>
<path d="M 368.1 23.3 L 368.2 23.3" stroke-width="2.40"/>
<path d="M 368.2 23.3 L 368.3 23.4 L 368.4 23.6 L 368.4 24.1 L 368.4 24.8 L 368.2 25.8 L 367.9 27.0" stroke-width="2.60"/>
<path d="M 367.9 27.0 L 367.7 28.2" stroke-width="2.40"/>
<path d="M 367.7 28.2 L 367.4 29.4 L 367.3 30.5 L 367.4 31.3" stroke-width="2.20"/>
<path d="M 367.4 31.3 L 367.6 31.7" stroke-width="2.40"/>
<path d="M 367.6 31.7 L 367.9 31.7" stroke-width="2.60"/>
<path d="M 367.9 31.7 L 368.3 31.3" stroke-width="2.40"/>
<path d="M 368.3 31.3 L 368.6 31.0" stroke-width="2.00"/>
<circle cx="369.8" cy="11.9" r="0.63" fill="currentColor" stroke="none"/>
<path d="M 369.8 11.9 L 369.8 11.7" stroke-width="1.60"/>
<path d="M 369.8 11.7 L 369.8 11.4" stroke-width="2.20"/>
<path d="M 369.8 11.4 L 369.8 11.2" stroke-width="2.40"/>
<path d="M 369.8 11.2 L 369.9 11.1" stroke-width="2.00"/>
<circle cx="378.2" cy="8.4" r="0.63" fill="currentColor" stroke="none"/>
<path d="M 378.2 8.4 L 378.2 8.6" stroke-width="1.60"/>
<path d="M 378.2 8.6 L 378.2 9.3" stroke-width="2.20"/>
<path d="M 378.2 9.3 L 378.0 10.4" stroke-width="2.40"/>
<path d="M 378.0 10.4 L 377.6 12.1" stroke-width="2.20"/>
<path d="M 377.6 12.1 L 377.0 14.1" stroke-width="1.80"/>
<path d="M 377.0 14.1 L 376.2 16.5" stroke-width="1.60"/>
<path d="M 376.2 16.5 L 375.5 19.1" stroke-width="1.40"/>
<path d="M 375.5 19.1 L 374.8 21.8 L 374.4 24.5 L 374.2 27.0 L 374.4 29.1 L 375.1 30.6" stroke-width="1.20"/>
<path d="M 375.1 30.6 L 376.0 31.5" stroke-width="1.40"/>
<path d="M 376.0 31.5 L 377.2 31.7 L 378.2 31.5" stroke-width="1.60"/>
<path d="M 378.2 31.5 L 378.9 31.2" stroke-width="1.40"/>
<circle cx="371.4" cy="18.5" r="0.63" fill="currentColor" stroke="none"/>
<path d="M 371.4 18.5 L 371.7 18.5" stroke-width="1.60"/>
<path d="M 371.7 18.5 L 372.6 18.4" stroke-width="2.00"/>
<path d="M 372.6 18.4 L 374.1 18.4" stroke-width="2.20"/>
<path d="M 374.1 18.4 L 376.1 18.4" stroke-width="1.80"/>
<path d="M 376.1 18.4 L 378.4 18.3" stroke-width="1.60"/>
<path d="M 378.4 18.3 L 380.8 18.3 L 382.7 18.3" stroke-width="1.40"/>
<path d="M 382.7 18.3 L 383.8 18.3" stroke-width="1.20"/>
<circle cx="406.9" cy="23.3" r="0.63" fill="currentColor" stroke="none"/>
<path d="M 406.9 23.3 L 406.9 22.9" stroke-width="1.60"/>
<path d="M 406.9 22.9 L 406.8 22.4" stroke-width="2.20"/>
<path d="M 406.8 22.4 L 406.5 21.8" stroke-width="2.40"/>
<path d="M 406.5 21.8 L 406.0 21.3 L 405.2 21.1" stroke-width="2.60"/>
<path d="M 405.2 21.1 L 404.0 21.4" stroke-width="2.40"/>
<path d="M 404.0 21.4 L 402.7 22.2" stroke-width="2.20"/>
<path d="M 402.7 22.2 L 401.2 23.5 L 400.0 25.0" stroke-width="1.80"/>
<path d="M 400.0 25.0 L 399.2 26.6 L 398.9 28.0" stroke-width="1.60"/>
<path d="M 398.9 28.0 L 399.1 29.1 L 399.7 29.7" stroke-width="1.80"/>
<path d="M 399.7 29.7 L 400.7 29.7 L 402.0 29.2" stroke-width="2.00"/>
<path d="M 402.0 29.2 L 403.4 28.2 L 404.9 26.7" stroke-width="1.80"/>
<path d="M 404.9 26.7 L 406.1 25.2 L 407.1 23.7 L 407.7 22.6" stroke-width="1.60"/>
<path d="M 407.7 22.6 L 407.9 21.8" stroke-width="1.80"/>
<path d="M 407.9 21.8 L 408.0 21.6" stroke-width="2.00"/>
<path d="M 408.0 21.6 L 407.9 21.8" stroke-width="2.40"/>
<path d="M 407.9 21.8 L 407.9 22.7" stroke-width="2.60"/>
<path d="M 407.9 22.7 L 407.7 24.1" stroke-width="2.40"/>
<path d="M 407.7 24.1 L 407.5 26.2" stroke-width="2.00"/>
<path d="M 407.5 26.2 L 407.3 28.7" stroke-width="1.60"/>
<path d="M 407.3 28.7 L 407.0 31.6" stroke-width="1.40"/>
<path d="M 407.0 31.6 L 406.6 34.5 L 406.2 37.5 L 405.6 40.2 L 404.8 42.6 L 403.8 44.6 L 402.6 46.1" stroke-width="1.20"/>
<path d="M 402.6 46.1 L 401.3 46.9 L 399.9 47.2" stroke-width="1.40"/>
<path d="M 399.9 47.2 L 398.6 47.0 L 397.5 46.2 L 396.8 44.9 L 396.5 43.2 L 396.7 41.3 L 397.5 39.2" stroke-width="1.60"/>
<path d="M 397.5 39.2 L 398.9 37.0" stroke-width="1.40"/>
<path d="M 398.9 37.0 L 400.9 34.9 L 403.3 32.9" stroke-width="1.20"/>
<path d="M 403.3 32.9 L 406.1 31.0 L 409.1 29.3 L 412.1 27.7 L 415.0 26.4 L 417.6 25.1 L 419.8 24.1" stroke-width="1.00"/>
<path d="M 419.8 24.1 L 421.5 23.1 L 422.7 22.3" stroke-width="1.20"/>
<path d="M 422.7 22.3 L 423.4 21.7" stroke-width="1.40"/>
<path d="M 423.4 21.7 L 423.5 21.3" stroke-width="1.80"/>
<path d="M 423.5 21.3 L 423.1 21.1" stroke-width="2.00"/>
<path d="M 423.1 21.1 L 422.3 21.2 L 421.1 21.6" stroke-width="2.20"/>
<path d="M 421.1 21.6 L 419.7 22.4" stroke-width="2.00"/>
<path d="M 419.7 22.4 L 418.2 23.6" stroke-width="1.80"/>
<path d="M 418.2 23.6 L 416.9 25.0 L 415.9 26.4 L 415.3 27.9 L 415.3 29.2" stroke-width="1.60"/>
<path d="M 415.3 29.2 L 415.8 30.1 L 416.9 30.7 L 418.3 30.7 L 419.9 30.3" stroke-width="1.80"/>
<path d="M 419.9 30.3 L 421.5 29.4 L 422.8 28.1 L 423.8 26.6 L 424.4 25.1 L 424.5 23.7 L 424.2 22.5" stroke-width="1.60"/>
<path d="M 424.2 22.5 L 423.7 21.7" stroke-width="1.80"/>
<path d="M 423.7 21.7 L 423.2 21.3" stroke-width="2.00"/>
<path d="M 423.2 21.3 L 422.9 21.2" stroke-width="2.40"/>
<path d="M 422.9 21.2 L 422.8 21.5 L 423.1 21.9 L 423.8 22.6" stroke-width="2.60"/>
<path d="M 423.8 22.6 L 425.0 23.3" stroke-width="2.40"/>
<path d="M 425.0 23.3 L 426.7 23.8" stroke-width="2.00"/>
<path d="M 426.7 23.8 L 428.8 24.2" stroke-width="1.80"/>
<path d="M 428.8 24.2 L 431.1 24.2" stroke-width="1.60"/>
<path d="M 431.1 24.2 L 433.4 23.8 L 435.5 23.2 L 437.1 22.4 L 438.3 21.4" stroke-width="1.40"/>
<path d="M 438.3 21.4 L 438.9 20.4" stroke-width="1.60"/>
<path d="M 438.9 20.4 L 438.8 19.5" stroke-width="1.80"/>
<path d="M 438.8 19.5 L 438.2 18.8 L 437.2 18.5 L 435.8 18.6" stroke-width="2.00"/>
<path d="M 435.8 18.6 L 434.3 19.3 L 432.7 20.4" stroke-width="1.80"/>
<path d="M 432.7 20.4 L 431.4 21.8 L 430.5 23.5 L 430.2 25.2 L 430.5 26.8 L 431.4 28.2 L 432.8 29.2 L 434.7 29.7" stroke-width="1.60"/>
<path d="M 434.7 29.7 L 436.8 29.7 L 439.2 29.2 L 441.5 28.2" stroke-width="1.40"/>
<path d="M 441.5 28.2 L 443.7 26.8 L 445.7 25.2 L 447.4 23.6 L 448.8 22.0 L 450.0 20.8" stroke-width="1.20"/>
<path d="M 450.0 20.8 L 450.9 19.8" stroke-width="1.40"/>
<path d="M 450.9 19.8 L 451.7 19.3" stroke-width="1.60"/>
<path d="M 451.7 19.3 L 452.4 19.2" stroke-width="1.80"/>
<path d="M 452.4 19.2 L 453.1 19.5" stroke-width="2.00"/>
<path d="M 453.1 19.5 L 453.9 20.2" stroke-width="2.20"/>
<path d="M 453.9 20.2 L 454.6 21.3 L 455.3 22.7" stroke-width="2.00"/>
<path d="M 455.3 22.7 L 455.7 24.3 L 456.0 25.9 L 455.8 27.3 L 455.3 28.6 L 454.4 29.7 L 453.2 30.5 L 451.7 31.0" stroke-width="1.80"/>
<path d="M 451.7 31.0 L 450.0 31.1 L 448.3 30.9 L 446.9 30.5" stroke-width="1.60"/>
<path d="M 446.9 30.5 L 446.1 30.2" stroke-width="1.40"/>
</svg>
