<svg xmlns="http://www.w3.org/2000/svg" viewBox="0 0 384.0 46.2" fill="none" stroke="currentColor" stroke-linecap="round" stroke-linejoin="round" role="img">
<circle cx="14.9" cy="17.0" r="0.63" fill="currentColor" stroke="none"/>
<path d="M 14.9 17.0 L 14.7 16.7" stroke-width="1.60"/>
<path d="M 14.7 16.7 L 14.1 16.4" stroke-width="2.20"/>
<path d="M 14.1 16.4 L 13.1 16.1" stroke-width="2.40"/>
<path d="M 13.1 16.1 L 12.0 16.2" stroke-width="2.20"/>
<path d="M 12.0 16.2 L 10.6 16.8" stroke-width="2.00"/>
<path d="M 10.6 16.8 L 9.2 18.0" stroke-width="1.80"/>
<path d="M 9.2 18.0 L 7.9 19.6 L 6.8 21.6" stroke-width="1.60"/>
<path d="M 6.8 21.6 L 6.2 23.7 L 6.0 25.7 L 6.3 27.4 L 6.9 28.6" stroke-width="1.40"/>
<path d="M 6.9 28.6 L 7.9 29.2" stroke-width="1.60"/>
<path d="M 7.9 29.2 L 9.0 29.1 L 10.3 28.4" stroke-width="1.80"/>
<path d="M 10.3 28.4 L 11.6 27.0 L 12.8 25.3" stroke-width="1.60"/>
<path d="M 12.8 25.3 L 13.9 23.2 L 14.8 21.0" stroke-width="1.40"/>
<path d="M 14.8 21.0 L 15.5 18.9" stroke-width="1.20"/>
<path d="M 15.5 18.9 L 16.0 17.0 L 16.3 15.6" stroke-width="1.40"/>
<path d="M 16.3 15.6 L 16.4 14.8" stroke-width="1.60"/>
<path d="M 16.4 14.8 L 16.4 14.6" stroke-width="2.00"/>
<path d="M 16.4 14.6 L 16.4 15.2" stroke-width="2.20"/>
<path d="M 16.4 15.2 L 16.2 16.4" stroke-width="2.40"/>
<path d="M 16.2 16.4 L 16.1 18.2" stroke-width="2.00"/>
<path d="M 16.1 18.2 L 16.0 20.5" stroke-width="1.80"/>
<path d="M 16.0 20.5 L 16.0 23.0 L 16.1 25.5" stroke-width="1.40"/>
<path d="M 16.1 25.5 L 16.3 27.8 L 16.6 29.7" stroke-width="1.20"/>
<path d="M 16.6 29.7 L 17.1 31.0" stroke-width="1.40"/>
<path d="M 17.1 31.0 L 17.8 31.7 L 18.4 32.0 L 18.8 32.0" stroke-width="1.60"/>
<circle cx="38.3" cy="6.8" r="0.63" fill="currentColor" stroke="none"/>
<path d="M 38.3 6.8 L 38.2 7.3" stroke-width="1.60"/>
<path d="M 38.2 7.3 L 38.1 8.2 L 37.9 9.7" stroke-width="2.00"/>
<path d="M 37.9 9.7 L 37.6 11.7" stroke-width="1.80"/>
<path d="M 37.6 11.7 L 37.3 14.1" stroke-width="1.60"/>
<path d="M 37.3 14.1 L 37.0 16.8" stroke-width="1.40"/>
<path d="M 37.0 16.8 L 36.8 19.7 L 36.6 22.6 L 36.5 25.2 L 36.6 27.4 L 36.9 29.1" stroke-width="1.20"/>
<path d="M 36.9 29.1 L 37.3 30.1" stroke-width="1.40"/>
<path d="M 37.3 30.1 L 37.8 30.4" stroke-width="1.60"/>
<path d="M 37.8 30.4 L 38.4 30.1" stroke-width="1.80"/>
<path d="M 38.4 30.1 L 39.2 29.2" stroke-width="2.00"/>
<path d="M 39.2 29.2 L 40.2 27.8 L 41.2 26.0" stroke-width="1.80"/>
<path d="M 41.2 26.0 L 42.4 24.0" stroke-width="1.60"/>
<path d="M 42.4 24.0 L 43.5 21.9 L 44.6 20.1 L 45.6 18.5 L 46.5 17.4" stroke-width="1.40"/>
<path d="M 46.5 17.4 L 47.1 16.8" stroke-width="1.60"/>
<path d="M 47.1 16.8 L 47.6 16.8" stroke-width="1.80"/>
<path d="M 47.6 16.8 L 47.8 17.5 L 47.8 18.8" stroke-width="2.20"/>
<path d="M 47.8 18.8 L 47.7 20.5" stroke-width="2.00"/>
<path d="M 47.7 20.5 L 47.5 22.6" stroke-width="1.80"/>
<path d="M 47.5 22.6 L 47.3 24.7" stroke-width="1.60"/>
<path d="M 47.3 24.7 L 47.1 26.7 L 46.9 28.3" stroke-width="1.40"/>
<path d="M 46.9 28.3 L 46.8 29.5" stroke-width="1.60"/>
<path d="M 46.8 29.5 L 46.8 30.1" stroke-width="1.80"/>
<path d="M 46.8 30.1 L 46.8 30.2" stroke-width="2.20"/>
<path d="M 46.8 30.2 L 46.9 29.9" stroke-width="2.40"/>
<path d="M 46.9 29.9 L 46.9 29.5" stroke-width="2.00"/>
<circle cx="47.9" cy="9.0" r="0.63" fill="currentColor" stroke="none"/>
<path d="M 47.9 9.0 L 47.9 8.9" stroke-width="1.60"/>
<path d="M 47.9 8.9 L 48.0 8.9 L 48.1 8.8" stroke-width="2.40"/>
<path d="M 48.1 8.8 L 48.2 8.9" stroke-width="2.00"/>
<circle cx="52.4" cy="18.4" r="0.63" fill="currentColor" stroke="none"/>
<path d="M 52.4 18.4 L 52.5 18.1" stroke-width="1.60"/>
<path d="M 52.5 18.1 L 52.6 17.7" stroke-width="2.20"/>
<path d="M 52.6 17.7 L 52.7 17.6 L 52.7 17.9 L 52.8 18.8" stroke-width="2.60"/>
<path d="M 52.8 18.8 L 52.7 20.3" stroke-width="2.40"/>
<path d="M 52.7 20.3 L 52.6 22.2" stroke-width="2.00"/>
<path d="M 52.6 22.2 L 52.4 24.3" stroke-width="1.80"/>
<path d="M 52.4 24.3 L 52.3 26.3 L 52.2 28.1 L 52.2 29.4" stroke-width="1.60"/>
<path d="M 52.2 29.4 L 52.2 30.2" stroke-width="1.80"/>
<path d="M 52.2 30.2 L 52.4 30.3" stroke-width="2.00"/>
<path d="M 52.4 30.3 L 52.6 29.9 L 53.0 28.8" stroke-width="2.40"/>
<path d="M 53.0 28.8 L 53.5 27.1" stroke-width="2.20"/>
<path d="M 53.5 27.1 L 54.2 25.1" stroke-width="1.80"/>
<path d="M 54.2 25.1 L 55.2 22.9" stroke-width="1.60"/>
<path d="M 55.2 22.9 L 56.3 20.9 L 57.5 19.0 L 58.7 17.6 L 59.9 16.7" stroke-width="1.40"/>
<path d="M 59.9 16.7 L 60.8 16.4" stroke-width="1.60"/>
<path d="M 60.8 16.4 L 61.6 16.6" stroke-width="1.80"/>
<path d="M 61.6 16.6 L 62.2 17.5 L 62.6 18.8" stroke-width="2.00"/>
<path d="M 62.6 18.8 L 62.7 20.5" stroke-width="1.80"/>
<path d="M 62.7 20.5 L 62.7 22.5 L 62.7 24.5 L 62.6 26.3" stroke-width="1.60"/>
<path d="M 62.6 26.3 L 62.5 27.6 L 62.5 28.4" stroke-width="1.40"/>
<circle cx="65.5" cy="24.9" r="0.63" fill="currentColor" stroke="none"/>
<path d="M 65.5 24.9 L 65.8 24.6" stroke-width="1.60"/>
<path d="M 65.8 24.6 L 66.5 24.0" stroke-width="2.00"/>
<path d="M 66.5 24.0 L 67.3 23.1" stroke-width="2.20"/>
<path d="M 67.3 23.1 L 68.3 22.0" stroke-width="2.00"/>
<path d="M 68.3 22.0 L 69.3 20.6 L 70.1 19.2" stroke-width="1.80"/>
<path d="M 70.1 19.2 L 70.8 17.8" stroke-width="1.60"/>
<path d="M 70.8 17.8 L 71.2 16.6 L 71.4 15.6" stroke-width="1.80"/>
<path d="M 71.4 15.6 L 71.2 14.9" stroke-width="2.00"/>
<path d="M 71.2 14.9 L 70.7 14.8" stroke-width="2.20"/>
<path d="M 70.7 14.8 L 69.9 15.3" stroke-width="2.40"/>
<path d="M 69.9 15.3 L 68.9 16.3" stroke-width="2.20"/>
<path d="M 68.9 16.3 L 68.0 17.9" stroke-width="2.00"/>
<path d="M 68.0 17.9 L 67.3 19.9" stroke-width="1.80"/>
<path d="M 67.3 19.9 L 66.9 22.0" stroke-width="1.60"/>
<path d="M 66.9 22.0 L 67.0 24.1 L 67.7 25.9 L 68.8 27.4 L 70.3 28.3 L 72.1 28.8 L 74.1 28.7 L 75.7 28.5" stroke-width="1.40"/>
<path d="M 75.7 28.5 L 76.7 28.2" stroke-width="1.20"/>
<circle cx="92.2" cy="18.6" r="0.63" fill="currentColor" stroke="none"/>
<path d="M 92.2 18.6 L 92.1 18.3" stroke-width="1.60"/>
<path d="M 92.1 18.3 L 91.8 17.9" stroke-width="2.20"/>
<path d="M 91.8 17.9 L 91.2 17.5 L 90.3 17.4 L 89.3 17.6" stroke-width="2.40"/>
<path d="M 89.3 17.6 L 88.1 18.2" stroke-width="2.20"/>
<path d="M 88.1 18.2 L 86.9 19.3" stroke-width="2.00"/>
<path d="M 86.9 19.3 L 85.8 20.8" stroke-width="1.80"/>
<path d="M 85.8 20.8 L 85.0 22.6 L 84.7 24.6 L 84.8 26.3 L 85.5 27.7 L 86.7 28.5 L 88.3 28.8 L 90.2 28.5" stroke-width="1.60"/>
<path d="M 90.2 28.5 L 92.1 27.6 L 93.8 26.2 L 95.1 24.6 L 95.9 22.8 L 96.2 21.1 L 96.0 19.6" stroke-width="1.40"/>
<path d="M 96.0 19.6 L 95.3 18.5 L 94.3 17.7" stroke-width="1.60"/>
<path d="M 94.3 17.7 L 93.1 17.5 L 92.1 17.6" stroke-width="1.80"/>
<path d="M 92.1 17.6 L 91.3 18.0 L 90.8 18.5" stroke-width="2.00"/>
<path d="M 90.8 18.5 L 90.6 18.9" stroke-width="1.80"/>
<circle cx="107.7" cy="9.0" r="0.63" fill="currentColor" stroke="none"/>
<path d="M 107.7 9.0 L 107.6 8.3" stroke-width="1.60"/>
<path d="M 107.6 8.3 L 107.2 7.4 L 106.7 6.5" stroke-width="2.00"/>
<path d="M 106.7 6.5 L 105.9 6.0 L 105.0 6.1 L 104.1 6.8" stroke-width="2.20"/>
<path d="M 104.1 6.8 L 103.2 8.2" stroke-width="2.00"/>
<path d="M 103.2 8.2 L 102.4 10.2" stroke-width="1.80"/>
<path d="M 102.4 10.2 L 101.7 12.8" stroke-width="1.40"/>
<path d="M 101.7 12.8 L 101.2 15.9 L 100.8 19.3" stroke-width="1.20"/>
<path d="M 100.8 19.3 L 100.7 22.7 L 100.8 26.1 L 101.1 29.2 L 101.5 31.9 L 102.0 34.0" stroke-width="1.00"/>
<path d="M 102.0 34.0 L 102.5 35.4" stroke-width="1.20"/>
<path d="M 102.5 35.4 L 102.9 35.9" stroke-width="1.40"/>
<path d="M 102.9 35.9 L 103.1 36.0 L 103.3 35.8" stroke-width="1.60"/>
<circle cx="97.0" cy="21.3" r="0.63" fill="currentColor" stroke="none"/>
<path d="M 97.0 21.3 L 97.0 21.3" stroke-width="1.60"/>
<path d="M 97.0 21.3 L 97.1 21.3" stroke-width="2.40"/>
<path d="M 97.1 21.3 L 97.6 21.4 L 98.5 21.5" stroke-width="2.60"/>
<path d="M 98.5 21.5 L 99.8 21.7" stroke-width="2.40"/>
<path d="M 99.8 21.7 L 101.5 21.8" stroke-width="2.20"/>
<path d="M 101.5 21.8 L 103.0 21.9" stroke-width="1.80"/>
<path d="M 103.0 21.9 L 104.1 22.0" stroke-width="1.40"/>
<circle cx="121.3" cy="17.6" r="0.63" fill="currentColor" stroke="none"/>
<path d="M 121.3 17.6 L 121.2 18.0" stroke-width="1.60"/>
<path d="M 121.2 18.0 L 121.0 18.8" stroke-width="2.00"/>
<path d="M 121.0 18.8 L 120.8 20.0" stroke-width="2.20"/>
<path d="M 120.8 20.0 L 120.5 21.5" stroke-width="2.00"/>
<path d="M 120.5 21.5 L 120.2 23.4" stroke-width="1.80"/>
<path d="M 120.2 23.4 L 120.0 25.3 L 119.9 27.2 L 119.9 28.8 L 120.0 30.0" stroke-width="1.60"/>
<path d="M 120.0 30.0 L 120.2 30.6" stroke-width="1.80"/>
<path d="M 120.2 30.6 L 120.5 30.8 L 120.6 30.8" stroke-width="2.00"/>
<circle cx="120.7" cy="9.5" r="0.63" fill="currentColor" stroke="none"/>
<path d="M 120.7 9.5 L 120.8 9.2" stroke-width="1.60"/>
<path d="M 120.8 9.2 L 120.8 8.9" stroke-width="2.20"/>
<path d="M 120.8 8.9 L 120.9 8.6 L 121.0 8.5 L 121.1 8.7 L 121.3 8.9" stroke-width="2.60"/>
<path d="M 121.3 8.9 L 121.5 9.2" stroke-width="2.40"/>
<path d="M 121.5 9.2 L 121.7 9.4" stroke-width="2.00"/>
<circle cx="124.9" cy="16.0" r="0.63" fill="currentColor" stroke="none"/>
<path d="M 124.9 16.0 L 125.0 16.0" stroke-width="1.60"/>
<path d="M 125.0 16.0 L 125.0 16.1" stroke-width="2.40"/>
<path d="M 125.0 16.1 L 125.1 16.4 L 125.1 17.1 L 125.2 18.2" stroke-width="2.60"/>
<path d="M 125.2 18.2 L 125.2 19.7" stroke-width="2.40"/>
<path d="M 125.2 19.7 L 125.2 21.5" stroke-width="2.00"/>
<path d="M 125.2 21.5 L 125.1 23.3" stroke-width="1.80"/>
<path d="M 125.1 23.3 L 125.0 25.1 L 124.9 26.6 L 124.8 27.8" stroke-width="1.60"/>
<path d="M 124.8 27.8 L 124.8 28.6" stroke-width="1.80"/>
<path d="M 124.8 28.6 L 124.8 28.8" stroke-width="2.20"/>
<path d="M 124.8 28.8 L 124.8 28.5" stroke-width="2.40"/>
<path d="M 124.8 28.5 L 125.0 27.5" stroke-width="2.60"/>
<path d="M 125.0 27.5 L 125.4 26.1" stroke-width="2.40"/>
<path d="M 125.4 26.1 L 125.9 24.3" stroke-width="2.00"/>
<path d="M 125.9 24.3 L 126.7 22.3" stroke-width="1.80"/>
<path d="M 126.7 22.3 L 127.7 20.3" stroke-width="1.60"/>
<path d="M 127.7 20.3 L 128.9 18.6 L 130.2 17.2 L 131.4 16.3" stroke-width="1.40"/>
<path d="M 131.4 16.3 L 132.6 15.9 L 133.6 16.2" stroke-width="1.60"/>
<path d="M 133.6 16.2 L 134.5 17.1 L 135.1 18.5" stroke-width="1.80"/>
<path d="M 135.1 18.5 L 135.4 20.3 L 135.5 22.4" stroke-width="1.60"/>
<path d="M 135.5 22.4 L 135.5 24.5 L 135.3 26.4 L 135.1 28.1" stroke-width="1.40"/>
<path d="M 135.1 28.1 L 135.0 29.4" stroke-width="1.60"/>
<path d="M 135.0 29.4 L 135.0 30.0" stroke-width="1.80"/>
<path d="M 135.0 30.0 L 135.2 30.1" stroke-width="2.00"/>
<path d="M 135.2 30.1 L 135.4 29.8" stroke-width="2.40"/>
<path d="M 135.4 29.8 L 135.6 29.5" stroke-width="2.00"/>
<circle cx="142.5" cy="7.7" r="0.63" fill="currentColor" stroke="none"/>
<path d="M 142.5 7.7 L 142.4 7.5" stroke-width="1.60"/>
<path d="M 142.4 7.5 L 142.4 7.3" stroke-width="2.20"/>
<path d="M 142.4 7.3 L 142.4 7.4 L 142.4 8.2" stroke-width="2.60"/>
<path d="M 142.4 8.2 L 142.3 9.6" stroke-width="2.40"/>
<path d="M 142.3 9.6 L 142.2 11.6" stroke-width="2.20"/>
<path d="M 142.2 11.6 L 142.0 14.1" stroke-width="1.60"/>
<path d="M 142.0 14.1 L 141.9 16.9" stroke-width="1.40"/>
<path d="M 141.9 16.9 L 141.6 19.8 L 141.4 22.5 L 141.2 24.9 L 141.0 26.7" stroke-width="1.20"/>
<path d="M 141.0 26.7 L 141.1 28.0" stroke-width="1.40"/>
<path d="M 141.1 28.0 L 141.3 28.5" stroke-width="1.60"/>
<path d="M 141.3 28.5 L 141.5 28.6 L 141.7 28.4" stroke-width="1.80"/>
<circle cx="148.2" cy="18.9" r="0.63" fill="currentColor" stroke="none"/>
<path d="M 148.2 18.9 L 148.2 18.7" stroke-width="1.60"/>
<path d="M 148.2 18.7 L 148.0 18.5" stroke-width="2.20"/>
<path d="M 148.0 18.5 L 147.4 18.5 L 146.5 18.8" stroke-width="2.60"/>
<path d="M 146.5 18.8 L 145.1 19.5" stroke-width="2.40"/>
<path d="M 145.1 19.5 L 143.7 20.4" stroke-width="2.00"/>
<path d="M 143.7 20.4 L 142.3 21.6" stroke-width="1.80"/>
<path d="M 142.3 21.6 L 141.2 22.7" stroke-width="1.60"/>
<path d="M 141.2 22.7 L 140.7 23.9 L 140.9 24.9 L 141.9 25.7 L 143.5 26.3" stroke-width="1.80"/>
<path d="M 143.5 26.3 L 145.5 26.8 L 147.7 27.0" stroke-width="1.60"/>
<path d="M 147.7 27.0 L 149.9 27.1 L 151.9 27.0 L 153.4 26.9" stroke-width="1.40"/>
<path d="M 153.4 26.9 L 154.5 26.6 L 155.0 26.5 L 155.2 26.3" stroke-width="1.60"/>
<circle cx="159.1" cy="25.8" r="0.63" fill="currentColor" stroke="none"/>
<path d="M 159.1 25.8 L 159.2 26.1" stroke-width="1.60"/>
<path d="M 159.2 26.1 L 159.3 26.7" stroke-width="2.20"/>
<path d="M 159.3 26.7 L 159.3 27.6" stroke-width="2.40"/>
<path d="M 159.3 27.6 L 159.2 28.8" stroke-width="2.20"/>
<path d="M 159.2 28.8 L 158.9 30.3" stroke-width="2.00"/>
<path d="M 158.9 30.3 L 158.3 31.9 L 157.6 33.6" stroke-width="1.80"/>
<path d="M 157.6 33.6 L 156.9 35.3 L 156.3 36.7 L 156.0 37.7" stroke-width="1.60"/>
<path d="M 156.0 37.7 L 155.8 38.3 L 155.8 38.5" stroke-width="1.80"/>
<circle cx="172.0" cy="8.3" r="0.63" fill="currentColor" stroke="none"/>
<path d="M 172.0 8.3 L 172.0 8.4" stroke-width="1.60"/>
<path d="M 172.0 8.4 L 172.1 8.9" stroke-width="2.20"/>
<path d="M 172.1 8.9 L 172.2 9.6" stroke-width="2.60"/>
<path d="M 172.2 9.6 L 172.3 10.8" stroke-width="2.40"/>
<path d="M 172.3 10.8 L 172.3 12.4" stroke-width="2.20"/>
<path d="M 172.3 12.4 L 172.2 14.4" stroke-width="1.80"/>
<path d="M 172.2 14.4 L 172.2 16.8" stroke-width="1.60"/>
<path d="M 172.2 16.8 L 172.2 19.2 L 172.2 21.8" stroke-width="1.40"/>
<path d="M 172.2 21.8 L 172.2 24.2 L 172.2 26.3" stroke-width="1.20"/>
<path d="M 172.2 26.3 L 172.2 27.9 L 172.3 29.0" stroke-width="1.40"/>
<path d="M 172.3 29.0 L 172.4 29.3" stroke-width="1.80"/>
<path d="M 172.4 29.3 L 172.5 29.3 L 172.5 29.1" stroke-width="2.00"/>
<circle cx="166.5" cy="18.2" r="0.63" fill="currentColor" stroke="none"/>
<path d="M 166.5 18.2 L 166.8 18.3" stroke-width="1.60"/>
<path d="M 166.8 18.3 L 167.4 18.4" stroke-width="2.20"/>
<path d="M 167.4 18.4 L 168.4 18.5" stroke-width="2.40"/>
<path d="M 168.4 18.5 L 169.8 18.6" stroke-width="2.20"/>
<path d="M 169.8 18.6 L 171.6 18.5" stroke-width="2.00"/>
<path d="M 171.6 18.5 L 173.5 18.2" stroke-width="1.80"/>
<path d="M 173.5 18.2 L 175.5 17.8 L 177.4 17.2" stroke-width="1.60"/>
<path d="M 177.4 17.2 L 179.1 16.3 L 180.5 15.2 L 181.5 14.1" stroke-width="1.40"/>
<path d="M 181.5 14.1 L 182.0 13.4" stroke-width="1.20"/>
<circle cx="182.1" cy="6.8" r="0.63" fill="currentColor" stroke="none"/>
<path d="M 182.1 6.8 L 181.9 6.7" stroke-width="1.60"/>
<path d="M 181.9 6.7 L 181.7 6.7" stroke-width="2.20"/>
<path d="M 181.7 6.7 L 181.5 7.0 L 181.3 7.9" stroke-width="2.60"/>
<path d="M 181.3 7.9 L 181.3 9.4" stroke-width="2.40"/>
<path d="M 181.3 9.4 L 181.2 11.3" stroke-width="2.00"/>
<path d="M 181.2 11.3 L 181.2 13.6" stroke-width="1.80"/>
<path d="M 181.2 13.6 L 181.2 16.1 L 181.1 18.7" stroke-width="1.40"/>
<path d="M 181.1 18.7 L 181.1 21.2 L 181.0 23.4 L 180.9 25.1" stroke-width="1.20"/>
<path d="M 180.9 25.1 L 180.9 26.2" stroke-width="1.40"/>
<path d="M 180.9 26.2 L 181.0 26.6" stroke-width="1.80"/>
<path d="M 181.0 26.6 L 181.3 26.2" stroke-width="2.00"/>
<path d="M 181.3 26.2 L 181.7 25.3" stroke-width="2.20"/>
<path d="M 181.7 25.3 L 182.3 23.8" stroke-width="2.00"/>
<path d="M 182.3 23.8 L 183.2 22.0" stroke-width="1.80"/>
<path d="M 183.2 22.0 L 184.2 20.2" stroke-width="1.60"/>
<path d="M 184.2 20.2 L 185.3 18.4 L 186.5 17.0 L 187.6 15.9" stroke-width="1.40"/>
<path d="M 187.6 15.9 L 188.6 15.4" stroke-width="1.60"/>
<path d="M 188.6 15.4 L 189.4 15.5" stroke-width="1.80"/>
<path d="M 189.4 15.5 L 189.9 16.0 L 190.2 17.1 L 190.2 18.7" stroke-width="2.00"/>
<path d="M 190.2 18.7 L 190.1 20.5" stroke-width="1.80"/>
<path d="M 190.1 20.5 L 189.9 22.3 L 189.6 24.1 L 189.5 25.5" stroke-width="1.60"/>
<path d="M 189.5 25.5 L 189.7 26.4" stroke-width="1.80"/>
<path d="M 189.7 26.4 L 190.0 26.8" stroke-width="2.00"/>
<path d="M 190.0 26.8 L 190.5 26.7" stroke-width="2.20"/>
<path d="M 190.5 26.7 L 190.9 26.5" stroke-width="2.00"/>
<circle cx="195.6" cy="16.8" r="0.63" fill="currentColor" stroke="none"/>
<path d="M 195.6 16.8 L 195.6 16.6" stroke-width="1.60"/>
<path d="M 195.6 16.6 L 195.6 16.4" stroke-width="2.20"/>
<path d="M 195.6 16.4 L 195.6 16.5 L 195.5 17.0 L 195.3 18.1" stroke-width="2.60"/>
<path d="M 195.3 18.1 L 195.0 19.5" stroke-width="2.40"/>
<path d="M 195.0 19.5 L 194.8 21.1" stroke-width="2.00"/>
<path d="M 194.8 21.1 L 194.6 22.8 L 194.5 24.3 L 194.5 25.5" stroke-width="1.80"/>
<path d="M 194.5 25.5 L 194.6 26.3" stroke-width="2.00"/>
<path d="M 194.6 26.3 L 194.9 26.6" stroke-width="2.20"/>
<path d="M 194.9 26.6 L 195.2 26.3 L 195.6 25.9" stroke-width="2.40"/>
<path d="M 195.6 25.9 L 195.8 25.4" stroke-width="2.00"/>
<circle cx="196.5" cy="9.7" r="0.63" fill="currentColor" stroke="none"/>
<path d="M 196.5 9.7 L 196.5 9.4" stroke-width="1.60"/>
<path d="M 196.5 9.4 L 196.5 9.0" stroke-width="2.20"/>
<path d="M 196.5 9.0 L 196.6 8.7" stroke-width="2.40"/>
<path d="M 196.6 8.7 L 196.6 8.5" stroke-width="2.00"/>
<circle cx="200.6" cy="15.4" r="0.63" fill="currentColor" stroke="none"/>
<path d="M 200.6 15.4 L 200.6 15.8" stroke-width="1.60"/>
<path d="M 200.6 15.8 L 200.6 16.5" stroke-width="2.00"/>
<path d="M 200.6 16.5 L 200.5 17.7" stroke-width="2.20"/>
<path d="M 200.5 17.7 L 200.4 19.2" stroke-width="2.00"/>
<path d="M 200.4 19.2 L 200.2 21.0 L 199.9 22.8" stroke-width="1.80"/>
<path d="M 199.9 22.8 L 199.6 24.6 L 199.4 26.2 L 199.3 27.4" stroke-width="1.60"/>
<path d="M 199.3 27.4 L 199.4 28.0" stroke-width="1.80"/>
<path d="M 199.4 28.0 L 199.5 28.1" stroke-width="2.20"/>
<path d="M 199.5 28.1 L 199.8 27.6 L 200.2 26.5" stroke-width="2.40"/>
<path d="M 200.2 26.5 L 200.7 24.9" stroke-width="2.20"/>
<path d="M 200.7 24.9 L 201.4 23.0" stroke-width="1.80"/>
<path d="M 201.4 23.0 L 202.3 21.0" stroke-width="1.60"/>
<path d="M 202.3 21.0 L 203.3 19.1 L 204.4 17.5 L 205.6 16.2 L 206.8 15.4" stroke-width="1.40"/>
<path d="M 206.8 15.4 L 207.9 15.2" stroke-width="1.60"/>
<path d="M 207.9 15.2 L 208.9 15.4 L 209.8 16.2 L 210.4 17.5 L 210.7 19.1" stroke-width="1.80"/>
<path d="M 210.7 19.1 L 210.8 20.9 L 210.7 22.7 L 210.5 24.4 L 210.4 25.7" stroke-width="1.60"/>
<path d="M 210.4 25.7 L 210.4 26.7 L 210.4 27.2 L 210.5 27.4" stroke-width="1.80"/>
<circle cx="217.1" cy="8.3" r="0.63" fill="currentColor" stroke="none"/>
<path d="M 217.1 8.3 L 217.2 8.6" stroke-width="1.60"/>
<path d="M 217.2 8.6 L 217.3 9.2" stroke-width="2.20"/>
<path d="M 217.3 9.2 L 217.4 10.2" stroke-width="2.40"/>
<path d="M 217.4 10.2 L 217.4 11.8" stroke-width="2.20"/>
<path d="M 217.4 11.8 L 217.3 13.8" stroke-width="1.80"/>
<path d="M 217.3 13.8 L 217.1 16.1" stroke-width="1.60"/>
<path d="M 217.1 16.1 L 216.9 18.5 L 216.6 20.8 L 216.4 23.0 L 216.2 24.7 L 216.0 25.9" stroke-width="1.40"/>
<path d="M 216.0 25.9 L 216.0 26.5" stroke-width="1.60"/>
<path d="M 216.0 26.5 L 216.1 26.5" stroke-width="2.00"/>
<path d="M 216.1 26.5 L 216.4 25.9 L 216.8 24.9" stroke-width="2.40"/>
<path d="M 216.8 24.9 L 217.6 23.5" stroke-width="2.20"/>
<path d="M 217.6 23.5 L 218.6 21.8" stroke-width="1.80"/>
<path d="M 218.6 21.8 L 219.9 20.1" stroke-width="1.60"/>
<path d="M 219.9 20.1 L 221.3 18.4 L 222.9 16.9 L 224.3 15.7 L 225.6 14.7 L 226.6 14.1 L 227.1 13.9" stroke-width="1.40"/>
<circle cx="219.4" cy="18.8" r="0.63" fill="currentColor" stroke="none"/>
<path d="M 219.4 18.8 L 219.6 19.3" stroke-width="1.60"/>
<path d="M 219.6 19.3 L 220.1 20.1 L 220.9 21.2 L 221.8 22.4" stroke-width="2.00"/>
<path d="M 221.8 22.4 L 222.8 23.5 L 223.9 24.5 L 224.8 25.2" stroke-width="1.80"/>
<path d="M 224.8 25.2 L 225.4 25.6" stroke-width="1.60"/>
<circle cx="230.7" cy="17.2" r="0.63" fill="currentColor" stroke="none"/>
<path d="M 230.7 17.2 L 230.7 17.1" stroke-width="1.60"/>
<path d="M 230.7 17.1 L 230.8 17.3" stroke-width="2.40"/>
<path d="M 230.8 17.3 L 230.8 17.6 L 230.8 18.4 L 230.7 19.5" stroke-width="2.60"/>
<path d="M 230.7 19.5 L 230.6 21.0" stroke-width="2.40"/>
<path d="M 230.6 21.0 L 230.5 22.7" stroke-width="2.00"/>
<path d="M 230.5 22.7 L 230.3 24.4 L 230.3 26.0 L 230.4 27.2 L 230.5 27.8 L 230.7 28.1" stroke-width="1.80"/>
<circle cx="232.0" cy="10.7" r="0.63" fill="currentColor" stroke="none"/>
<path d="M 232.0 10.7 L 232.1 10.6" stroke-width="1.60"/>
<path d="M 232.1 10.6 L 232.1 10.5 L 232.2 10.4" stroke-width="2.40"/>
<path d="M 232.2 10.4 L 232.2 10.4" stroke-width="2.00"/>
<circle cx="236.9" cy="17.2" r="0.63" fill="currentColor" stroke="none"/>
<path d="M 236.9 17.2 L 236.9 17.5" stroke-width="1.60"/>
<path d="M 236.9 17.5 L 236.8 18.2" stroke-width="2.20"/>
<path d="M 236.8 18.2 L 236.7 19.2" stroke-width="2.40"/>
<path d="M 236.7 19.2 L 236.5 20.5" stroke-width="2.20"/>
<path d="M 236.5 20.5 L 236.2 22.0" stroke-width="2.00"/>
<path d="M 236.2 22.0 L 236.0 23.4 L 235.9 24.8 L 235.8 25.9" stroke-width="1.80"/>
<path d="M 235.8 25.9 L 235.7 26.7" stroke-width="2.00"/>
<path d="M 235.7 26.7 L 235.8 27.0" stroke-width="2.20"/>
<path d="M 235.8 27.0 L 235.8 26.8 L 235.9 26.2 L 236.2 25.0" stroke-width="2.60"/>
<path d="M 236.2 25.0 L 236.6 23.4" stroke-width="2.20"/>
<path d="M 236.6 23.4 L 237.2 21.7" stroke-width="2.00"/>
<path d="M 237.2 21.7 L 238.0 20.0" stroke-width="1.80"/>
<path d="M 238.0 20.0 L 239.0 18.4 L 240.1 17.1 L 241.3 16.2 L 242.6 15.7" stroke-width="1.60"/>
<path d="M 242.6 15.7 L 243.7 15.8 L 244.7 16.3 L 245.5 17.4 L 246.0 18.8 L 246.3 20.5" stroke-width="1.80"/>
<path d="M 246.3 20.5 L 246.3 22.2 L 246.1 23.9 L 245.9 25.3" stroke-width="1.60"/>
<path d="M 245.9 25.3 L 245.8 26.4 L 245.9 27.1" stroke-width="1.80"/>
<path d="M 245.9 27.1 L 246.1 27.5 L 246.2 27.6" stroke-width="2.00"/>
<circle cx="256.3" cy="20.4" r="0.63" fill="currentColor" stroke="none"/>
<path d="M 256.3 20.4 L 256.2 19.8" stroke-width="1.60"/>
<path d="M 256.2 19.8 L 256.1 18.9" stroke-width="2.00"/>
<path d="M 256.1 18.9 L 255.6 17.8" stroke-width="2.20"/>
<path d="M 255.6 17.8 L 254.9 17.1 L 253.9 16.7 L 252.7 16.8 L 251.4 17.4" stroke-width="2.00"/>
<path d="M 251.4 17.4 L 250.2 18.4 L 249.3 19.7 L 248.9 21.2 L 249.0 22.6 L 249.7 23.7 L 250.7 24.5 L 252.0 24.8 L 253.5 24.6 L 254.9 23.9" stroke-width="1.80"/>
<path d="M 254.9 23.9 L 256.2 22.9 L 257.3 21.7 L 258.0 20.4 L 258.3 19.2" stroke-width="1.60"/>
<path d="M 258.3 19.2 L 258.4 18.2" stroke-width="1.80"/>
<path d="M 258.4 18.2 L 258.2 17.6" stroke-width="2.00"/>
<path d="M 258.2 17.6 L 257.8 17.4" stroke-width="2.20"/>
<path d="M 257.8 17.4 L 257.5 17.6 L 257.2 18.3" stroke-width="2.60"/>
<path d="M 257.2 18.3 L 257.1 19.5" stroke-width="2.40"/>
<path d="M 257.1 19.5 L 257.2 21.1" stroke-width="2.20"/>
<path d="M 257.2 21.1 L 257.4 23.1" stroke-width="1.80"/>
<path d="M 257.4 23.1 L 257.8 25.4" stroke-width="1.60"/>
<path d="M 257.8 25.4 L 258.2 27.7 L 258.6 30.2" stroke-width="1.40"/>
<path d="M 258.6 30.2 L 258.8 32.5 L 258.7 34.5" stroke-width="1.20"/>
<path d="M 258.7 34.5 L 258.4 36.2 L 257.8 37.5" stroke-width="1.40"/>
<path d="M 257.8 37.5 L 256.9 38.3 L 255.7 38.6" stroke-width="1.60"/>
<path d="M 255.7 38.6 L 254.3 38.5 L 252.9 38.0 L 251.6 37.2" stroke-width="1.80"/>
<path d="M 251.6 37.2 L 250.5 36.1" stroke-width="1.60"/>
<path d="M 250.5 36.1 L 249.8 35.0" stroke-width="1.80"/>
<path d="M 249.8 35.0 L 249.4 34.1 L 249.3 33.5" stroke-width="1.60"/>
<circle cx="280.0" cy="19.7" r="0.63" fill="currentColor" stroke="none"/>
<path d="M 280.0 19.7 L 280.0 19.2" stroke-width="1.60"/>
<path d="M 280.0 19.2 L 279.8 18.4" stroke-width="2.00"/>
<path d="M 279.8 18.4 L 279.4 17.5 L 278.7 16.8 L 277.7 16.3" stroke-width="2.20"/>
<path d="M 277.7 16.3 L 276.3 16.3 L 274.8 16.7" stroke-width="2.00"/>
<path d="M 274.8 16.7 L 273.2 17.5" stroke-width="1.80"/>
<path d="M 273.2 17.5 L 271.7 18.8 L 270.5 20.3 L 269.7 21.9 L 269.6 23.3 L 270.0 24.5" stroke-width="1.60"/>
<path d="M 270.0 24.5 L 270.9 25.2 L 272.3 25.4 L 273.9 25.0" stroke-width="1.80"/>
<path d="M 273.9 25.0 L 275.6 24.0 L 277.3 22.7" stroke-width="1.60"/>
<path d="M 277.3 22.7 L 278.8 21.1 L 280.1 19.4 L 281.0 18.0 L 281.5 16.8" stroke-width="1.40"/>
<path d="M 281.5 16.8 L 281.8 16.1" stroke-width="1.60"/>
<path d="M 281.8 16.1 L 281.8 16.0" stroke-width="2.00"/>
<path d="M 281.8 16.0 L 281.6 16.3 L 281.3 17.3" stroke-width="2.40"/>
<path d="M 281.3 17.3 L 281.0 18.7" stroke-width="2.20"/>
<path d="M 281.0 18.7 L 280.7 20.4" stroke-width="2.00"/>
<path d="M 280.7 20.4 L 280.5 22.3" stroke-width="1.80"/>
<path d="M 280.5 22.3 L 280.5 24.1 L 280.6 25.7 L 281.0 27.0" stroke-width="1.60"/>
<path d="M 281.0 27.0 L 281.5 27.7" stroke-width="1.80"/>
<path d="M 281.5 27.7 L 282.3 28.0 L 282.9 27.9" stroke-width="2.00"/>
<path d="M 282.9 27.9 L 283.4 27.7" stroke-width="1.80"/>
<circle cx="293.0" cy="15.3" r="0.63" fill="currentColor" stroke="none"/>
<path d="M 293.0 15.3 L 292.7 14.9" stroke-width="1.60"/>
<path d="M 292.7 14.9 L 292.0 14.6" stroke-width="2.00"/>
<path d="M 292.0 14.6 L 291.0 14.3 L 289.8 14.5" stroke-width="2.20"/>
<path d="M 289.8 14.5 L 288.5 15.0 L 287.4 15.8 L 286.7 16.8 L 286.5 17.9 L 286.9 19.1" stroke-width="2.00"/>
<path d="M 286.9 19.1 L 287.9 20.2 L 289.4 21.3" stroke-width="1.80"/>
<path d="M 289.4 21.3 L 291.1 22.2 L 292.8 23.1 L 294.1 23.8 L 294.9 24.4" stroke-width="1.60"/>
<path d="M 294.9 24.4 L 295.1 25.0" stroke-width="1.80"/>
<path d="M 295.1 25.0 L 294.5 25.3 L 293.4 25.6" stroke-width="2.20"/>
<path d="M 293.4 25.6 L 291.9 25.7" stroke-width="2.00"/>
<path d="M 291.9 25.7 L 290.1 25.7 L 288.4 25.7" stroke-width="1.80"/>
<path d="M 288.4 25.7 L 287.0 25.6 L 286.1 25.4 L 285.7 25.3" stroke-width="1.60"/>
<circle cx="308.6" cy="16.4" r="0.63" fill="currentColor" stroke="none"/>
<path d="M 308.6 16.4 L 308.6 16.7" stroke-width="1.60"/>
<path d="M 308.6 16.7 L 308.6 17.4 L 308.5 18.5 L 308.4 19.9" stroke-width="2.20"/>
<path d="M 308.4 19.9 L 308.2 21.5" stroke-width="2.00"/>
<path d="M 308.2 21.5 L 308.0 23.1 L 307.8 24.6 L 307.8 25.9 L 308.0 26.6" stroke-width="1.80"/>
<path d="M 308.0 26.6 L 308.3 26.9" stroke-width="2.20"/>
<path d="M 308.3 26.9 L 308.6 26.7" stroke-width="2.40"/>
<path d="M 308.6 26.7 L 308.8 26.4" stroke-width="2.00"/>
<circle cx="310.4" cy="9.4" r="0.63" fill="currentColor" stroke="none"/>
<path d="M 310.4 9.4 L 310.3 9.2" stroke-width="1.60"/>
<path d="M 310.3 9.2 L 310.4 8.9" stroke-width="2.20"/>
<path d="M 310.4 8.9 L 310.4 8.7" stroke-width="2.40"/>
<path d="M 310.4 8.7 L 310.4 8.7" stroke-width="2.00"/>
<circle cx="319.2" cy="7.5" r="0.63" fill="currentColor" stroke="none"/>
<path d="M 319.2 7.5 L 319.1 7.9" stroke-width="1.60"/>
<path d="M 319.1 7.9 L 318.8 8.8" stroke-width="2.00"/>
<path d="M 318.8 8.8 L 318.4 10.1" stroke-width="2.20"/>
<path d="M 318.4 10.1 L 318.0 11.9" stroke-width="2.00"/>
<path d="M 318.0 11.9 L 317.5 14.0 L 317.0 16.2" stroke-width="1.60"/>
<path d="M 317.0 16.2 L 316.6 18.6 L 316.3 21.0" stroke-width="1.40"/>
<path d="M 316.3 21.0 L 316.2 23.2" stroke-width="1.20"/>
<path d="M 316.2 23.2 L 316.1 24.9 L 316.2 26.2" stroke-width="1.40"/>
<path d="M 316.2 26.2 L 316.2 26.8" stroke-width="1.20"/>
<circle cx="313.4" cy="17.2" r="0.63" fill="currentColor" stroke="none"/>
<path d="M 313.4 17.2 L 313.7 17.1" stroke-width="1.60"/>
<path d="M 313.7 17.1 L 314.4 16.9 L 315.6 16.7" stroke-width="2.20"/>
<path d="M 315.6 16.7 L 317.2 16.6" stroke-width="2.00"/>
<path d="M 317.2 16.6 L 319.2 16.5" stroke-width="1.80"/>
<path d="M 319.2 16.5 L 321.3 16.4" stroke-width="1.60"/>
<path d="M 321.3 16.4 L 323.1 16.3" stroke-width="1.40"/>
<path d="M 323.1 16.3 L 324.2 16.3" stroke-width="1.20"/>
<circle cx="340.3" cy="18.2" r="0.63" fill="currentColor" stroke="none"/>
<path d="M 340.3 18.2 L 340.1 17.8" stroke-width="1.60"/>
<path d="M 340.1 17.8 L 339.6 17.3" stroke-width="2.00"/>
<path d="M 339.6 17.3 L 338.8 16.8 L 337.6 16.6" stroke-width="2.20"/>
<path d="M 337.6 16.6 L 336.2 16.8" stroke-width="2.00"/>
<path d="M 336.2 16.8 L 334.7 17.4 L 333.2 18.5" stroke-width="1.80"/>
<path d="M 333.2 18.5 L 332.1 19.7 L 331.5 21.0" stroke-width="1.60"/>
<path d="M 331.5 21.0 L 331.6 22.1 L 332.2 23.0" stroke-width="1.80"/>
<path d="M 332.2 23.0 L 333.3 23.4" stroke-width="2.00"/>
<path d="M 333.3 23.4 L 334.8 23.3 L 336.4 22.9" stroke-width="1.80"/>
<path d="M 336.4 22.9 L 337.9 22.0 L 339.3 20.9 L 340.3 19.6 L 340.9 18.5" stroke-width="1.60"/>
<path d="M 340.9 18.5 L 341.2 17.5" stroke-width="1.80"/>
<path d="M 341.2 17.5 L 341.3 16.9" stroke-width="2.00"/>
<path d="M 341.3 16.9 L 341.2 16.6" stroke-width="2.20"/>
<path d="M 341.2 16.6 L 341.1 16.7 L 341.0 17.3 L 340.9 18.5" stroke-width="2.60"/>
<path d="M 340.9 18.5 L 341.0 20.1" stroke-width="2.20"/>
<path d="M 341.0 20.1 L 341.2 22.1" stroke-width="2.00"/>
<path d="M 341.2 22.1 L 341.4 24.5" stroke-width="1.60"/>
<path d="M 341.4 24.5 L 341.7 27.1" stroke-width="1.40"/>
<path d="M 341.7 27.1 L 342.0 29.8 L 342.0 32.4 L 341.8 34.9 L 341.2 37.0 L 340.4 38.6" stroke-width="1.20"/>
<path d="M 340.4 38.6 L 339.3 39.7 L 338.1 40.2" stroke-width="1.40"/>
<path d="M 338.1 40.2 L 336.7 40.1 L 335.3 39.3 L 334.1 38.1 L 333.3 36.9" stroke-width="1.60"/>
<path d="M 333.3 36.9 L 332.9 36.0" stroke-width="1.40"/>
<circle cx="350.8" cy="18.1" r="0.63" fill="currentColor" stroke="none"/>
<path d="M 350.8 18.1 L 350.2 18.1" stroke-width="1.60"/>
<path d="M 350.2 18.1 L 349.3 18.3" stroke-width="2.00"/>
<path d="M 349.3 18.3 L 348.1 18.7" stroke-width="2.20"/>
<path d="M 348.1 18.7 L 346.8 19.5" stroke-width="2.00"/>
<path d="M 346.8 19.5 L 345.7 20.7 L 345.0 22.0 L 344.8 23.4 L 345.0 24.6 L 345.9 25.5 L 347.1 26.0 L 348.7 25.8" stroke-width="1.80"/>
<path d="M 348.7 25.8 L 350.4 25.2 L 351.9 24.2 L 353.1 22.8 L 353.8 21.4 L 353.9 20.0 L 353.5 18.8" stroke-width="1.60"/>
<path d="M 353.5 18.8 L 352.6 18.0 L 351.5 17.5 L 350.4 17.5" stroke-width="1.80"/>
<path d="M 350.4 17.5 L 349.4 17.8 L 348.8 18.5 L 348.5 19.2" stroke-width="2.00"/>
<path d="M 348.5 19.2 L 348.4 19.6" stroke-width="1.80"/>
<circle cx="358.0" cy="22.2" r="0.63" fill="currentColor" stroke="none"/>
<path d="M 358.0 22.2 L 358.5 21.9" stroke-width="1.60"/>
<path d="M 358.5 21.9 L 359.4 21.3 L 360.4 20.4 L 361.5 19.5" stroke-width="2.00"/>
<path d="M 361.5 19.5 L 362.4 18.5 L 363.1 17.6" stroke-width="1.80"/>
<path d="M 363.1 17.6 L 363.5 16.8" stroke-width="2.00"/>
<path d="M 363.5 16.8 L 363.5 16.3" stroke-width="2.20"/>
<path d="M 363.5 16.3 L 363.1 16.0" stroke-width="2.40"/>
<path d="M 363.1 16.0 L 362.3 16.1" stroke-width="2.60"/>
<path d="M 362.3 16.1 L 361.2 16.6" stroke-width="2.40"/>
<path d="M 361.2 16.6 L 359.9 17.6" stroke-width="2.20"/>
<path d="M 359.9 17.6 L 358.6 18.9" stroke-width="1.80"/>
<path d="M 358.6 18.9 L 357.6 20.5 L 356.9 22.2 L 357.0 23.7 L 357.7 24.9 L 359.0 25.8 L 360.4 26.3" stroke-width="1.60"/>
<path d="M 360.4 26.3 L 361.5 26.5" stroke-width="1.40"/>
<circle cx="374.9" cy="17.7" r="0.63" fill="currentColor" stroke="none"/>
<path d="M 374.9 17.7 L 374.5 17.3" stroke-width="1.60"/>
<path d="M 374.5 17.3 L 373.8 16.7 L 372.5 16.2 L 371.0 16.0" stroke-width="2.00"/>
<path d="M 371.0 16.0 L 369.3 16.2 L 367.9 16.7 L 367.0 17.5 L 366.9 18.4" stroke-width="1.80"/>
<path d="M 366.9 18.4 L 367.6 19.5" stroke-width="2.00"/>
<path d="M 367.6 19.5 L 369.1 20.6" stroke-width="1.80"/>
<path d="M 369.1 20.6 L 371.1 21.7" stroke-width="1.60"/>
<path d="M 371.1 21.7 L 373.4 22.8 L 375.5 23.8 L 377.1 24.6 L 378.0 25.3" stroke-width="1.40"/>
<path d="M 378.0 25.3 L 378.0 25.9" stroke-width="1.60"/>
<path d="M 378.0 25.9 L 377.2 26.2 L 375.7 26.4" stroke-width="2.00"/>
<path d="M 375.7 26.4 L 373.8 26.5" stroke-width="1.80"/>
<path d="M 373.8 26.5 L 371.6 26.5" stroke-width="1.60"/>
<path d="M 371.6 26.5 L 369.4 26.4 L 367.7 26.2 L 366.6 26.0 L 366.0 25.9" stroke-width="1.40"/>
</svg>
