<svg xmlns="http://www.w3.org/2000/svg" viewBox="0 0 417.1 51.1" fill="none" stroke="currentColor" stroke-linecap="round" stroke-linejoin="round" role="img">
<circle cx="16.3" cy="18.4" r="0.77" fill="currentColor" stroke="none"/>
<path d="M 16.3 18.4 L 16.1 18.2" stroke-width="2.00"/>
<path d="M 16.1 18.2 L 15.6 17.9" stroke-width="2.60"/>
<path d="M 15.6 17.9 L 14.7 17.7 L 13.5 17.7" stroke-width="2.80"/>
<path d="M 13.5 17.7 L 12.1 18.1" stroke-width="2.60"/>
<path d="M 12.1 18.1 L 10.6 19.0" stroke-width="2.20"/>
<path d="M 10.6 19.0 L 9.2 20.3" stroke-width="2.00"/>
<path d="M 9.2 20.3 L 7.9 22.2 L 6.9 24.3" stroke-width="1.80"/>
<path d="M 6.9 24.3 L 6.3 26.5 L 6.0 28.6 L 6.1 30.3" stroke-width="1.60"/>
<path d="M 6.1 30.3 L 6.5 31.6" stroke-width="1.80"/>
<path d="M 6.5 31.6 L 7.3 32.4 L 8.4 32.6" stroke-width="2.00"/>
<path d="M 8.4 32.6 L 9.6 32.1" stroke-width="2.20"/>
<path d="M 9.6 32.1 L 11.1 31.1 L 12.6 29.5" stroke-width="2.00"/>
<path d="M 12.6 29.5 L 14.1 27.4" stroke-width="1.80"/>
<path d="M 14.1 27.4 L 15.4 25.0" stroke-width="1.60"/>
<path d="M 15.4 25.0 L 16.6 22.6 L 17.6 20.3 L 18.3 18.5" stroke-width="1.40"/>
<path d="M 18.3 18.5 L 18.8 17.3" stroke-width="1.60"/>
<path d="M 18.8 17.3 L 19.1 16.6" stroke-width="1.80"/>
<path d="M 19.1 16.6 L 19.1 16.4" stroke-width="2.20"/>
<path d="M 19.1 16.4 L 19.0 16.8" stroke-width="2.80"/>
<path d="M 19.0 16.8 L 18.8 17.7" stroke-width="3.00"/>
<path d="M 18.8 17.7 L 18.4 19.3" stroke-width="2.60"/>
<path d="M 18.4 19.3 L 18.0 21.5" stroke-width="2.20"/>
<path d="M 18.0 21.5 L 17.7 24.1" stroke-width="1.80"/>
<path d="M 17.7 24.1 L 17.6 26.6 L 17.6 28.7 L 17.9 30.4 L 18.3 31.5 L 18.7 32.0" stroke-width="1.60"/>
<circle cx="46.2" cy="8.1" r="0.77" fill="currentColor" stroke="none"/>
<path d="M 46.2 8.1 L 46.6 7.7" stroke-width="1.80"/>
<path d="M 46.6 7.7 L 47.0 7.1" stroke-width="2.40"/>
<path d="M 47.0 7.1 L 47.4 6.5" stroke-width="2.80"/>
<path d="M 47.4 6.5 L 47.6 6.1" stroke-width="3.00"/>
<path d="M 47.6 6.1 L 47.5 6.0 L 47.3 6.3 L 46.9 6.9 L 46.4 8.0" stroke-width="3.20"/>
<path d="M 46.4 8.0 L 45.8 9.6" stroke-width="2.80"/>
<path d="M 45.8 9.6 L 45.2 11.7" stroke-width="2.20"/>
<path d="M 45.2 11.7 L 44.5 14.3" stroke-width="1.80"/>
<path d="M 44.5 14.3 L 43.8 17.2" stroke-width="1.60"/>
<path d="M 43.8 17.2 L 43.1 20.3 L 42.5 23.5" stroke-width="1.40"/>
<path d="M 42.5 23.5 L 42.1 26.4 L 41.8 29.0" stroke-width="1.20"/>
<path d="M 41.8 29.0 L 41.8 30.9 L 42.1 32.2" stroke-width="1.40"/>
<path d="M 42.1 32.2 L 42.8 32.8" stroke-width="1.80"/>
<path d="M 42.8 32.8 L 43.8 32.6 L 45.2 31.9 L 46.7 30.5" stroke-width="2.00"/>
<path d="M 46.7 30.5 L 48.4 28.6" stroke-width="1.80"/>
<path d="M 48.4 28.6 L 50.1 26.5" stroke-width="1.60"/>
<path d="M 50.1 26.5 L 51.7 24.3 L 53.1 22.2 L 54.3 20.3 L 55.3 18.9" stroke-width="1.40"/>
<path d="M 55.3 18.9 L 55.9 17.8" stroke-width="1.60"/>
<path d="M 55.9 17.8 L 56.3 17.2" stroke-width="2.00"/>
<path d="M 56.3 17.2 L 56.3 17.1" stroke-width="2.40"/>
<path d="M 56.3 17.1 L 56.2 17.5" stroke-width="2.80"/>
<path d="M 56.2 17.5 L 55.8 18.4" stroke-width="3.00"/>
<path d="M 55.8 18.4 L 55.2 20.0" stroke-width="2.60"/>
<path d="M 55.2 20.0 L 54.6 22.2" stroke-width="2.20"/>
<path d="M 54.6 22.2 L 54.0 24.7" stroke-width="1.80"/>
<path d="M 54.0 24.7 L 53.5 27.3 L 53.2 29.5" stroke-width="1.60"/>
<path d="M 53.2 29.5 L 53.1 31.1 L 53.2 32.0" stroke-width="1.40"/>
<circle cx="57.9" cy="8.0" r="0.77" fill="currentColor" stroke="none"/>
<path d="M 57.9 8.0 L 58.0 8.0" stroke-width="2.00"/>
<path d="M 58.0 8.0 L 58.1 8.2" stroke-width="2.80"/>
<path d="M 58.1 8.2 L 58.2 8.4" stroke-width="3.00"/>
<path d="M 58.2 8.4 L 58.2 8.6" stroke-width="2.60"/>
<circle cx="62.3" cy="19.3" r="0.77" fill="currentColor" stroke="none"/>
<path d="M 62.3 19.3 L 62.2 20.0" stroke-width="1.80"/>
<path d="M 62.2 20.0 L 61.9 21.2" stroke-width="2.40"/>
<path d="M 61.9 21.2 L 61.6 23.0" stroke-width="2.20"/>
<path d="M 61.6 23.0 L 61.1 25.0" stroke-width="2.00"/>
<path d="M 61.1 25.0 L 60.5 27.1 L 60.0 29.1 L 59.6 30.6 L 59.3 31.7" stroke-width="1.80"/>
<path d="M 59.3 31.7 L 59.1 32.2" stroke-width="2.20"/>
<path d="M 59.1 32.2 L 59.1 32.1" stroke-width="2.60"/>
<path d="M 59.1 32.1 L 59.3 31.6 L 59.8 30.4" stroke-width="3.00"/>
<path d="M 59.8 30.4 L 60.5 28.7" stroke-width="2.60"/>
<path d="M 60.5 28.7 L 61.5 26.6" stroke-width="2.20"/>
<path d="M 61.5 26.6 L 62.7 24.3" stroke-width="1.80"/>
<path d="M 62.7 24.3 L 64.0 22.1 L 65.4 20.3 L 66.7 18.9 L 67.9 18.0" stroke-width="1.60"/>
<path d="M 67.9 18.0 L 69.0 17.6" stroke-width="1.80"/>
<path d="M 69.0 17.6 L 69.9 17.6" stroke-width="2.00"/>
<path d="M 69.9 17.6 L 70.6 18.0" stroke-width="2.20"/>
<path d="M 70.6 18.0 L 71.2 18.9 L 71.5 20.2" stroke-width="2.40"/>
<path d="M 71.5 20.2 L 71.7 21.9" stroke-width="2.20"/>
<path d="M 71.7 21.9 L 71.8 23.9" stroke-width="2.00"/>
<path d="M 71.8 23.9 L 71.7 25.9 L 71.6 27.7 L 71.6 29.3" stroke-width="1.80"/>
<path d="M 71.6 29.3 L 71.6 30.4" stroke-width="2.00"/>
<path d="M 71.6 30.4 L 71.7 31.0" stroke-width="2.20"/>
<path d="M 71.7 31.0 L 72.0 31.3" stroke-width="2.60"/>
<path d="M 72.0 31.3 L 72.5 31.1 L 73.1 30.6" stroke-width="3.00"/>
<path d="M 73.1 30.6 L 74.0 29.8" stroke-width="2.80"/>
<path d="M 74.0 29.8 L 75.1 28.6" stroke-width="2.60"/>
<path d="M 75.1 28.6 L 76.3 27.1" stroke-width="2.20"/>
<path d="M 76.3 27.1 L 77.6 25.5" stroke-width="2.00"/>
<path d="M 77.6 25.5 L 78.9 23.8 L 80.0 22.1 L 81.0 20.6 L 81.7 19.3" stroke-width="1.80"/>
<path d="M 81.7 19.3 L 82.1 18.2" stroke-width="2.00"/>
<path d="M 82.1 18.2 L 82.2 17.4" stroke-width="2.20"/>
<path d="M 82.2 17.4 L 82.1 16.8" stroke-width="2.40"/>
<path d="M 82.1 16.8 L 81.7 16.6" stroke-width="2.80"/>
<path d="M 81.7 16.6 L 81.1 16.8 L 80.4 17.4" stroke-width="3.00"/>
<path d="M 80.4 17.4 L 79.5 18.4" stroke-width="2.80"/>
<path d="M 79.5 18.4 L 78.6 19.8" stroke-width="2.40"/>
<path d="M 78.6 19.8 L 77.8 21.6" stroke-width="2.20"/>
<path d="M 77.8 21.6 L 77.2 23.6" stroke-width="2.00"/>
<path d="M 77.2 23.6 L 77.0 25.5 L 77.2 27.4 L 77.8 29.0 L 78.8 30.3 L 80.2 31.0 L 82.0 31.2 L 83.5 31.0" stroke-width="1.80"/>
<path d="M 83.5 31.0 L 84.6 30.8" stroke-width="1.60"/>
<circle cx="108.0" cy="19.0" r="0.77" fill="currentColor" stroke="none"/>
<path d="M 108.0 19.0 L 108.0 18.9" stroke-width="2.00"/>
<path d="M 108.0 18.9 L 108.0 18.8" stroke-width="2.80"/>
<path d="M 108.0 18.8 L 107.9 18.5 L 107.7 18.3 L 107.4 17.9 L 106.9 17.6 L 106.3 17.3 L 105.6 17.3 L 104.8 17.4" stroke-width="3.20"/>
<path d="M 104.8 17.4 L 103.8 18.0" stroke-width="3.00"/>
<path d="M 103.8 18.0 L 102.9 18.9" stroke-width="2.80"/>
<path d="M 102.9 18.9 L 102.0 20.2" stroke-width="2.40"/>
<path d="M 102.0 20.2 L 101.3 21.9" stroke-width="2.20"/>
<path d="M 101.3 21.9 L 100.7 23.9" stroke-width="2.00"/>
<path d="M 100.7 23.9 L 100.5 25.9 L 100.6 27.9 L 101.0 29.5 L 101.8 30.8" stroke-width="1.80"/>
<path d="M 101.8 30.8 L 102.8 31.4 L 104.0 31.5" stroke-width="2.00"/>
<path d="M 104.0 31.5 L 105.3 31.1" stroke-width="2.20"/>
<path d="M 105.3 31.1 L 106.6 30.0 L 107.7 28.6" stroke-width="2.00"/>
<path d="M 107.7 28.6 L 108.6 26.8 L 109.3 25.0 L 109.6 23.3 L 109.7 21.7 L 109.7 20.4" stroke-width="1.80"/>
<path d="M 109.7 20.4 L 109.5 19.4" stroke-width="2.00"/>
<path d="M 109.5 19.4 L 109.2 18.7" stroke-width="2.20"/>
<path d="M 109.2 18.7 L 109.0 18.4" stroke-width="2.60"/>
<path d="M 109.0 18.4 L 108.8 18.4" stroke-width="3.00"/>
<path d="M 108.8 18.4 L 108.7 18.6 L 108.8 19.0 L 109.1 19.5 L 109.7 20.0 L 110.6 20.4" stroke-width="3.20"/>
<path d="M 110.6 20.4 L 111.9 20.6" stroke-width="3.00"/>
<path d="M 111.9 20.6 L 113.4 20.5" stroke-width="2.60"/>
<path d="M 113.4 20.5 L 115.0 20.0" stroke-width="2.40"/>
<path d="M 115.0 20.0 L 116.7 19.1 L 118.4 17.9" stroke-width="2.00"/>
<path d="M 118.4 17.9 L 119.9 16.3" stroke-width="1.80"/>
<path d="M 119.9 16.3 L 121.3 14.5 L 122.4 12.6 L 123.2 10.9 L 123.6 9.4" stroke-width="1.60"/>
<path d="M 123.6 9.4 L 123.7 8.2" stroke-width="1.80"/>
<path d="M 123.7 8.2 L 123.5 7.5" stroke-width="2.00"/>
<path d="M 123.5 7.5 L 123.0 7.3" stroke-width="2.40"/>
<path d="M 123.0 7.3 L 122.4 7.6 L 121.5 8.6" stroke-width="2.60"/>
<path d="M 121.5 8.6 L 120.6 10.1" stroke-width="2.40"/>
<path d="M 120.6 10.1 L 119.7 12.2" stroke-width="2.00"/>
<path d="M 119.7 12.2 L 118.7 14.9" stroke-width="1.80"/>
<path d="M 118.7 14.9 L 117.7 18.0 L 116.9 21.5" stroke-width="1.40"/>
<path d="M 116.9 21.5 L 116.2 25.2 L 115.5 28.8 L 115.0 32.3 L 114.5 35.2 L 114.2 37.4 L 114.1 38.8 L 114.0 39.5" stroke-width="1.20"/>
<circle cx="114.4" cy="24.8" r="0.77" fill="currentColor" stroke="none"/>
<path d="M 114.4 24.8 L 114.5 24.8" stroke-width="2.00"/>
<path d="M 114.5 24.8 L 114.7 24.7" stroke-width="2.80"/>
<path d="M 114.7 24.7 L 115.0 24.7 L 115.5 24.7 L 116.2 24.7 L 117.2 24.8" stroke-width="3.20"/>
<path d="M 117.2 24.8 L 118.1 24.9" stroke-width="2.80"/>
<path d="M 118.1 24.9 L 118.8 25.0" stroke-width="2.40"/>
<circle cx="135.7" cy="18.6" r="0.77" fill="currentColor" stroke="none"/>
<path d="M 135.7 18.6 L 135.7 18.6" stroke-width="2.00"/>
<path d="M 135.7 18.6 L 135.7 18.8" stroke-width="2.80"/>
<path d="M 135.7 18.8 L 135.5 19.3 L 135.2 20.3" stroke-width="3.20"/>
<path d="M 135.2 20.3 L 134.9 21.9" stroke-width="2.80"/>
<path d="M 134.9 21.9 L 134.5 23.8" stroke-width="2.40"/>
<path d="M 134.5 23.8 L 134.1 26.0" stroke-width="2.00"/>
<path d="M 134.1 26.0 L 133.7 28.1 L 133.3 29.9 L 133.0 31.2 L 132.7 32.1 L 132.6 32.4" stroke-width="1.80"/>
<circle cx="136.4" cy="10.3" r="0.77" fill="currentColor" stroke="none"/>
<path d="M 136.4 10.3 L 136.5 10.2" stroke-width="2.00"/>
<path d="M 136.5 10.2 L 136.5 10.2" stroke-width="2.80"/>
<path d="M 136.5 10.2 L 136.6 10.3" stroke-width="3.00"/>
<path d="M 136.6 10.3 L 136.6 10.3" stroke-width="2.60"/>
<circle cx="141.8" cy="18.1" r="0.77" fill="currentColor" stroke="none"/>
<path d="M 141.8 18.1 L 141.9 18.0" stroke-width="2.00"/>
<path d="M 141.9 18.0 L 141.8 18.1" stroke-width="2.80"/>
<path d="M 141.8 18.1 L 141.7 18.3 L 141.5 19.1" stroke-width="3.20"/>
<path d="M 141.5 19.1 L 141.2 20.4" stroke-width="3.00"/>
<path d="M 141.2 20.4 L 140.9 22.3" stroke-width="2.60"/>
<path d="M 140.9 22.3 L 140.5 24.6" stroke-width="2.20"/>
<path d="M 140.5 24.6 L 140.1 27.1" stroke-width="1.80"/>
<path d="M 140.1 27.1 L 139.8 29.3 L 139.5 30.9" stroke-width="1.60"/>
<path d="M 139.5 30.9 L 139.3 31.9" stroke-width="1.80"/>
<path d="M 139.3 31.9 L 139.2 32.2" stroke-width="2.20"/>
<path d="M 139.2 32.2 L 139.2 32.0" stroke-width="2.60"/>
<path d="M 139.2 32.0 L 139.4 31.3" stroke-width="3.00"/>
<path d="M 139.4 31.3 L 139.9 29.9" stroke-width="2.80"/>
<path d="M 139.9 29.9 L 140.5 28.0" stroke-width="2.40"/>
<path d="M 140.5 28.0 L 141.4 25.8" stroke-width="2.00"/>
<path d="M 141.4 25.8 L 142.5 23.5" stroke-width="1.80"/>
<path d="M 142.5 23.5 L 143.8 21.5 L 145.1 19.8 L 146.4 18.6 L 147.7 17.9" stroke-width="1.60"/>
<path d="M 147.7 17.9 L 148.9 17.6" stroke-width="1.80"/>
<path d="M 148.9 17.6 L 149.9 17.8" stroke-width="2.00"/>
<path d="M 149.9 17.8 L 150.7 18.6 L 151.3 19.9" stroke-width="2.20"/>
<path d="M 151.3 19.9 L 151.6 21.8 L 151.7 23.9" stroke-width="2.00"/>
<path d="M 151.7 23.9 L 151.6 26.1" stroke-width="1.80"/>
<path d="M 151.6 26.1 L 151.4 28.2 L 151.3 30.0" stroke-width="1.60"/>
<path d="M 151.3 30.0 L 151.3 31.4" stroke-width="1.80"/>
<path d="M 151.3 31.4 L 151.6 32.2" stroke-width="2.00"/>
<path d="M 151.6 32.2 L 152.2 32.4" stroke-width="2.20"/>
<path d="M 152.2 32.4 L 152.8 32.3" stroke-width="2.40"/>
<path d="M 152.8 32.3 L 153.2 32.0" stroke-width="2.20"/>
<circle cx="163.5" cy="10.5" r="0.77" fill="currentColor" stroke="none"/>
<path d="M 163.5 10.5 L 163.5 10.4" stroke-width="2.00"/>
<path d="M 163.5 10.4 L 163.4 10.5" stroke-width="2.80"/>
<path d="M 163.4 10.5 L 163.1 11.0" stroke-width="3.20"/>
<path d="M 163.1 11.0 L 162.8 12.1" stroke-width="3.00"/>
<path d="M 162.8 12.1 L 162.2 13.9" stroke-width="2.80"/>
<path d="M 162.2 13.9 L 161.7 16.1" stroke-width="2.20"/>
<path d="M 161.7 16.1 L 161.1 18.7" stroke-width="1.80"/>
<path d="M 161.1 18.7 L 160.5 21.4" stroke-width="1.60"/>
<path d="M 160.5 21.4 L 160.0 24.1 L 159.5 26.5 L 159.1 28.5" stroke-width="1.40"/>
<path d="M 159.1 28.5 L 158.8 29.9" stroke-width="1.60"/>
<path d="M 158.8 29.9 L 158.6 30.6" stroke-width="1.80"/>
<path d="M 158.6 30.6 L 158.7 30.7" stroke-width="2.20"/>
<path d="M 158.7 30.7 L 158.9 30.3" stroke-width="2.60"/>
<path d="M 158.9 30.3 L 159.1 29.9" stroke-width="2.40"/>
<circle cx="168.8" cy="18.4" r="0.77" fill="currentColor" stroke="none"/>
<path d="M 168.8 18.4 L 168.7 18.3" stroke-width="2.00"/>
<path d="M 168.7 18.3 L 168.4 18.2" stroke-width="2.80"/>
<path d="M 168.4 18.2 L 167.9 18.2 L 167.0 18.4" stroke-width="3.20"/>
<path d="M 167.0 18.4 L 165.9 18.8" stroke-width="3.00"/>
<path d="M 165.9 18.8 L 164.7 19.4" stroke-width="2.80"/>
<path d="M 164.7 19.4 L 163.6 20.1" stroke-width="2.60"/>
<path d="M 163.6 20.1 L 162.6 20.8 L 161.9 21.5" stroke-width="2.40"/>
<path d="M 161.9 21.5 L 161.4 22.1" stroke-width="2.60"/>
<path d="M 161.4 22.1 L 161.3 22.6" stroke-width="2.80"/>
<path d="M 161.3 22.6 L 161.6 23.1" stroke-width="3.00"/>
<path d="M 161.6 23.1 L 162.2 23.6" stroke-width="3.20"/>
<path d="M 162.2 23.6 L 163.2 24.3" stroke-width="3.00"/>
<path d="M 163.2 24.3 L 164.5 25.0" stroke-width="2.60"/>
<path d="M 164.5 25.0 L 165.9 25.9" stroke-width="2.40"/>
<path d="M 165.9 25.9 L 167.3 26.8" stroke-width="2.20"/>
<path d="M 167.3 26.8 L 168.6 27.6 L 169.8 28.3" stroke-width="2.00"/>
<path d="M 169.8 28.3 L 170.8 28.7 L 171.7 29.0" stroke-width="2.20"/>
<path d="M 171.7 29.0 L 172.5 29.2" stroke-width="2.40"/>
<path d="M 172.5 29.2 L 173.3 29.1" stroke-width="2.60"/>
<path d="M 173.3 29.1 L 174.1 29.0 L 174.9 28.7 L 175.6 28.2 L 176.2 27.8" stroke-width="2.80"/>
<path d="M 176.2 27.8 L 176.7 27.4" stroke-width="3.00"/>
<path d="M 176.7 27.4 L 176.9 27.2 L 177.0 27.1" stroke-width="3.20"/>
<path d="M 177.0 27.1 L 177.1 27.2" stroke-width="3.00"/>
<path d="M 177.1 27.2 L 177.1 27.2" stroke-width="2.60"/>
<circle cx="180.4" cy="29.1" r="0.77" fill="currentColor" stroke="none"/>
<path d="M 180.4 29.1 L 180.4 29.2" stroke-width="2.00"/>
<path d="M 180.4 29.2 L 180.4 29.4" stroke-width="2.80"/>
<path d="M 180.4 29.4 L 180.2 29.9 L 180.0 30.7" stroke-width="3.20"/>
<path d="M 180.0 30.7 L 179.6 31.8" stroke-width="3.00"/>
<path d="M 179.6 31.8 L 179.2 33.2" stroke-width="2.60"/>
<path d="M 179.2 33.2 L 178.8 34.9" stroke-width="2.40"/>
<path d="M 178.8 34.9 L 178.3 36.6" stroke-width="2.20"/>
<path d="M 178.3 36.6 L 177.9 38.2 L 177.5 39.5 L 177.2 40.3 L 177.1 40.8" stroke-width="2.00"/>
<circle cx="201.5" cy="11.8" r="0.77" fill="currentColor" stroke="none"/>
<path d="M 201.5 11.8 L 201.5 11.8" stroke-width="2.00"/>
<path d="M 201.5 11.8 L 201.5 11.8" stroke-width="2.80"/>
<path d="M 201.5 11.8 L 201.4 11.9 L 201.2 12.4 L 200.9 13.4" stroke-width="3.20"/>
<path d="M 200.9 13.4 L 200.6 15.1" stroke-width="2.80"/>
<path d="M 200.6 15.1 L 200.1 17.3" stroke-width="2.40"/>
<path d="M 200.1 17.3 L 199.6 19.9" stroke-width="1.80"/>
<path d="M 199.6 19.9 L 199.1 22.8" stroke-width="1.60"/>
<path d="M 199.1 22.8 L 198.6 25.6 L 198.0 28.3 L 197.6 30.5 L 197.3 32.0" stroke-width="1.40"/>
<path d="M 197.3 32.0 L 197.1 32.6" stroke-width="1.80"/>
<path d="M 197.1 32.6 L 197.1 32.6" stroke-width="2.00"/>
<path d="M 197.1 32.6 L 197.1 32.4" stroke-width="2.20"/>
<circle cx="199.1" cy="19.9" r="0.77" fill="currentColor" stroke="none"/>
<path d="M 199.1 19.9 L 198.9 19.8" stroke-width="2.00"/>
<path d="M 198.9 19.8 L 198.6 19.8" stroke-width="2.80"/>
<path d="M 198.6 19.8 L 198.1 19.8 L 197.5 19.9 L 196.7 20.1 L 196.0 20.3 L 195.4 20.5 L 194.9 20.6 L 194.8 20.6" stroke-width="3.20"/>
<path d="M 194.8 20.6 L 194.7 20.5" stroke-width="3.00"/>
<path d="M 194.7 20.5 L 194.8 20.4" stroke-width="2.60"/>
<circle cx="206.7" cy="9.6" r="0.77" fill="currentColor" stroke="none"/>
<path d="M 206.7 9.6 L 206.7 9.7" stroke-width="2.00"/>
<path d="M 206.7 9.7 L 206.6 10.0" stroke-width="2.80"/>
<path d="M 206.6 10.0 L 206.5 10.9" stroke-width="3.20"/>
<path d="M 206.5 10.9 L 206.3 12.3" stroke-width="2.80"/>
<path d="M 206.3 12.3 L 206.0 14.3" stroke-width="2.40"/>
<path d="M 206.0 14.3 L 205.7 16.8" stroke-width="2.00"/>
<path d="M 205.7 16.8 L 205.3 19.5 L 204.8 22.1" stroke-width="1.60"/>
<path d="M 204.8 22.1 L 204.3 24.6 L 203.9 26.5" stroke-width="1.40"/>
<path d="M 203.9 26.5 L 203.5 27.9" stroke-width="1.60"/>
<path d="M 203.5 27.9 L 203.2 28.6" stroke-width="1.80"/>
<path d="M 203.2 28.6 L 203.0 28.7" stroke-width="2.20"/>
<path d="M 203.0 28.7 L 203.1 28.3 L 203.3 27.3" stroke-width="2.80"/>
<path d="M 203.3 27.3 L 203.7 25.8" stroke-width="2.60"/>
<path d="M 203.7 25.8 L 204.4 23.9" stroke-width="2.20"/>
<path d="M 204.4 23.9 L 205.3 21.8" stroke-width="2.00"/>
<path d="M 205.3 21.8 L 206.4 19.8" stroke-width="1.80"/>
<path d="M 206.4 19.8 L 207.7 18.1 L 209.0 16.9" stroke-width="1.60"/>
<path d="M 209.0 16.9 L 210.2 16.1" stroke-width="1.80"/>
<path d="M 210.2 16.1 L 211.3 15.9" stroke-width="2.00"/>
<path d="M 211.3 15.9 L 212.1 16.2 L 212.7 17.1 L 213.2 18.4 L 213.4 20.2" stroke-width="2.20"/>
<path d="M 213.4 20.2 L 213.5 22.2" stroke-width="2.00"/>
<path d="M 213.5 22.2 L 213.5 24.1 L 213.4 25.9 L 213.4 27.4" stroke-width="1.80"/>
<path d="M 213.4 27.4 L 213.5 28.4" stroke-width="2.00"/>
<path d="M 213.5 28.4 L 213.7 29.1" stroke-width="2.20"/>
<path d="M 213.7 29.1 L 214.1 29.2" stroke-width="2.60"/>
<path d="M 214.1 29.2 L 214.8 28.8 L 215.8 27.9" stroke-width="2.80"/>
<path d="M 215.8 27.9 L 217.0 26.5" stroke-width="2.40"/>
<path d="M 217.0 26.5 L 218.3 24.7" stroke-width="2.00"/>
<path d="M 218.3 24.7 L 219.7 22.8" stroke-width="1.80"/>
<path d="M 219.7 22.8 L 221.0 20.9 L 222.0 19.2 L 222.9 17.8" stroke-width="1.60"/>
<path d="M 222.9 17.8 L 223.5 16.8" stroke-width="1.80"/>
<path d="M 223.5 16.8 L 223.7 16.3" stroke-width="2.20"/>
<path d="M 223.7 16.3 L 223.8 16.4" stroke-width="2.60"/>
<path d="M 223.8 16.4 L 223.6 17.1" stroke-width="3.00"/>
<path d="M 223.6 17.1 L 223.1 18.5" stroke-width="2.80"/>
<path d="M 223.1 18.5 L 222.6 20.4" stroke-width="2.40"/>
<path d="M 222.6 20.4 L 222.1 22.6" stroke-width="2.00"/>
<path d="M 222.1 22.6 L 221.7 24.9" stroke-width="1.80"/>
<path d="M 221.7 24.9 L 221.4 26.9" stroke-width="1.60"/>
<path d="M 221.4 26.9 L 221.3 28.4" stroke-width="1.80"/>
<path d="M 221.3 28.4 L 221.3 29.1" stroke-width="2.00"/>
<path d="M 221.3 29.1 L 221.4 29.1" stroke-width="2.40"/>
<path d="M 221.4 29.1 L 221.6 28.8" stroke-width="2.60"/>
<path d="M 221.6 28.8 L 221.7 28.4" stroke-width="2.40"/>
<circle cx="225.4" cy="8.7" r="0.77" fill="currentColor" stroke="none"/>
<path d="M 225.4 8.7 L 225.4 8.6" stroke-width="2.00"/>
<path d="M 225.4 8.6 L 225.5 8.6" stroke-width="2.80"/>
<path d="M 225.5 8.6 L 225.6 8.6" stroke-width="3.00"/>
<path d="M 225.6 8.6 L 225.6 8.7" stroke-width="2.60"/>
<circle cx="229.7" cy="16.6" r="0.77" fill="currentColor" stroke="none"/>
<path d="M 229.7 16.6 L 229.7 17.0" stroke-width="2.00"/>
<path d="M 229.7 17.0 L 229.6 17.9 L 229.5 19.3" stroke-width="2.60"/>
<path d="M 229.5 19.3 L 229.2 21.1" stroke-width="2.40"/>
<path d="M 229.2 21.1 L 228.9 23.1" stroke-width="2.00"/>
<path d="M 228.9 23.1 L 228.5 25.2 L 228.0 27.0 L 227.7 28.3" stroke-width="1.80"/>
<path d="M 227.7 28.3 L 227.5 29.0" stroke-width="2.00"/>
<path d="M 227.5 29.0 L 227.4 29.1" stroke-width="2.40"/>
<path d="M 227.4 29.1 L 227.5 28.7 L 227.9 27.6" stroke-width="3.00"/>
<path d="M 227.9 27.6 L 228.5 26.1" stroke-width="2.60"/>
<path d="M 228.5 26.1 L 229.4 24.2" stroke-width="2.20"/>
<path d="M 229.4 24.2 L 230.6 22.2" stroke-width="2.00"/>
<path d="M 230.6 22.2 L 231.9 20.1" stroke-width="1.80"/>
<path d="M 231.9 20.1 L 233.3 18.3 L 234.8 16.9 L 236.1 15.9" stroke-width="1.60"/>
<path d="M 236.1 15.9 L 237.3 15.3" stroke-width="1.80"/>
<path d="M 237.3 15.3 L 238.3 15.1" stroke-width="2.00"/>
<path d="M 238.3 15.1 L 238.9 15.3" stroke-width="2.20"/>
<path d="M 238.9 15.3 L 239.4 16.0" stroke-width="2.40"/>
<path d="M 239.4 16.0 L 239.6 17.1" stroke-width="2.60"/>
<path d="M 239.6 17.1 L 239.7 18.7" stroke-width="2.40"/>
<path d="M 239.7 18.7 L 239.6 20.8" stroke-width="2.20"/>
<path d="M 239.6 20.8 L 239.4 22.9 L 239.2 24.9 L 239.1 26.6 L 239.0 27.8" stroke-width="1.80"/>
<path d="M 239.0 27.8 L 239.0 28.4 L 239.0 28.7" stroke-width="2.00"/>
<circle cx="249.4" cy="8.5" r="0.77" fill="currentColor" stroke="none"/>
<path d="M 249.4 8.5 L 249.5 8.4" stroke-width="2.00"/>
<path d="M 249.5 8.4 L 249.5 8.6" stroke-width="2.80"/>
<path d="M 249.5 8.6 L 249.4 9.1 L 249.2 10.2" stroke-width="3.20"/>
<path d="M 249.2 10.2 L 249.0 11.9" stroke-width="2.80"/>
<path d="M 249.0 11.9 L 248.6 14.2" stroke-width="2.20"/>
<path d="M 248.6 14.2 L 248.2 17.0" stroke-width="1.80"/>
<path d="M 248.2 17.0 L 247.7 19.9" stroke-width="1.60"/>
<path d="M 247.7 19.9 L 247.2 22.7 L 246.7 25.1 L 246.4 26.8 L 246.2 27.6" stroke-width="1.40"/>
<circle cx="254.5" cy="16.0" r="1.10" fill="currentColor" stroke="none"/>
<circle cx="254.6" cy="15.4" r="0.77" fill="currentColor" stroke="none"/>
<path d="M 254.6 15.4 L 254.2 15.4" stroke-width="2.00"/>
<path d="M 254.2 15.4 L 253.6 15.6" stroke-width="2.60"/>
<path d="M 253.6 15.6 L 252.6 16.0" stroke-width="2.80"/>
<path d="M 252.6 16.0 L 251.5 16.7" stroke-width="2.60"/>
<path d="M 251.5 16.7 L 250.4 17.6 L 249.4 18.6" stroke-width="2.40"/>
<path d="M 249.4 18.6 L 248.7 19.6" stroke-width="2.20"/>
<path d="M 248.7 19.6 L 248.3 20.6 L 248.3 21.6 L 248.6 22.6 L 249.4 23.6 L 250.5 24.6" stroke-width="2.40"/>
<path d="M 250.5 24.6 L 251.8 25.6" stroke-width="2.20"/>
<path d="M 251.8 25.6 L 253.1 26.5 L 254.4 27.1" stroke-width="2.00"/>
<path d="M 254.4 27.1 L 255.6 27.3 L 256.7 26.9 L 257.5 26.4" stroke-width="2.20"/>
<path d="M 257.5 26.4 L 258.0 25.9" stroke-width="2.00"/>
<circle cx="260.5" cy="17.8" r="0.77" fill="currentColor" stroke="none"/>
<path d="M 260.5 17.8 L 260.5 17.9" stroke-width="2.00"/>
<path d="M 260.5 17.9 L 260.4 18.3" stroke-width="2.80"/>
<path d="M 260.4 18.3 L 260.2 19.2" stroke-width="3.00"/>
<path d="M 260.2 19.2 L 259.9 20.5" stroke-width="2.80"/>
<path d="M 259.9 20.5 L 259.6 22.3" stroke-width="2.40"/>
<path d="M 259.6 22.3 L 259.2 24.4" stroke-width="2.20"/>
<path d="M 259.2 24.4 L 258.9 26.4 L 258.7 28.0" stroke-width="1.80"/>
<path d="M 258.7 28.0 L 258.6 28.9" stroke-width="2.00"/>
<path d="M 258.6 28.9 L 258.6 29.2 L 258.6 29.1" stroke-width="2.20"/>
<circle cx="262.7" cy="11.0" r="0.77" fill="currentColor" stroke="none"/>
<path d="M 262.7 11.0 L 262.8 11.0" stroke-width="2.00"/>
<path d="M 262.8 11.0 L 262.9 11.0" stroke-width="2.80"/>
<path d="M 262.9 11.0 L 262.9 11.0" stroke-width="3.00"/>
<path d="M 262.9 11.0 L 263.0 11.0" stroke-width="2.60"/>
<circle cx="267.1" cy="17.2" r="0.77" fill="currentColor" stroke="none"/>
<path d="M 267.1 17.2 L 267.2 17.1" stroke-width="2.00"/>
<path d="M 267.2 17.1 L 267.2 17.0" stroke-width="2.80"/>
<path d="M 267.2 17.0 L 267.1 17.1 L 266.9 17.7 L 266.7 18.7" stroke-width="3.20"/>
<path d="M 266.7 18.7 L 266.3 20.3" stroke-width="2.80"/>
<path d="M 266.3 20.3 L 266.0 22.3" stroke-width="2.40"/>
<path d="M 266.0 22.3 L 265.6 24.4" stroke-width="2.00"/>
<path d="M 265.6 24.4 L 265.3 26.3 L 265.0 27.8" stroke-width="1.80"/>
<path d="M 265.0 27.8 L 264.8 28.7" stroke-width="2.00"/>
<path d="M 264.8 28.7 L 264.8 29.0" stroke-width="2.40"/>
<path d="M 264.8 29.0 L 264.9 28.9" stroke-width="2.80"/>
<path d="M 264.9 28.9 L 265.3 28.3" stroke-width="3.20"/>
<path d="M 265.3 28.3 L 265.8 27.2" stroke-width="3.00"/>
<path d="M 265.8 27.2 L 266.6 25.7" stroke-width="2.60"/>
<path d="M 266.6 25.7 L 267.6 23.8" stroke-width="2.20"/>
<path d="M 267.6 23.8 L 268.7 21.8 L 269.9 19.9" stroke-width="1.80"/>
<path d="M 269.9 19.9 L 271.2 18.4" stroke-width="1.60"/>
<path d="M 271.2 18.4 L 272.4 17.3 L 273.5 16.6" stroke-width="1.80"/>
<path d="M 273.5 16.6 L 274.5 16.4" stroke-width="2.00"/>
<path d="M 274.5 16.4 L 275.1 16.6" stroke-width="2.20"/>
<path d="M 275.1 16.6 L 275.6 17.3" stroke-width="2.40"/>
<path d="M 275.6 17.3 L 275.9 18.5" stroke-width="2.60"/>
<path d="M 275.9 18.5 L 276.0 20.1" stroke-width="2.40"/>
<path d="M 276.0 20.1 L 275.9 22.1" stroke-width="2.20"/>
<path d="M 275.9 22.1 L 275.9 24.0" stroke-width="2.00"/>
<path d="M 275.9 24.0 L 275.7 25.7" stroke-width="1.80"/>
<path d="M 275.7 25.7 L 275.6 27.1 L 275.6 28.0" stroke-width="2.00"/>
<path d="M 275.6 28.0 L 275.9 28.4" stroke-width="2.40"/>
<path d="M 275.9 28.4 L 276.3 28.4 L 276.8 28.1" stroke-width="2.80"/>
<path d="M 276.8 28.1 L 277.2 27.8" stroke-width="2.40"/>
<circle cx="286.1" cy="19.8" r="0.77" fill="currentColor" stroke="none"/>
<path d="M 286.1 19.8 L 286.1 19.4" stroke-width="2.00"/>
<path d="M 286.1 19.4 L 286.1 18.7" stroke-width="2.60"/>
<path d="M 286.1 18.7 L 286.0 18.0" stroke-width="2.80"/>
<path d="M 286.0 18.0 L 285.5 17.5 L 284.7 17.3 L 283.6 17.4" stroke-width="3.00"/>
<path d="M 283.6 17.4 L 282.5 18.0" stroke-width="2.80"/>
<path d="M 282.5 18.0 L 281.3 19.0" stroke-width="2.40"/>
<path d="M 281.3 19.0 L 280.4 20.3 L 279.7 21.9" stroke-width="2.20"/>
<path d="M 279.7 21.9 L 279.4 23.4 L 279.4 24.9 L 279.8 26.0" stroke-width="2.00"/>
<path d="M 279.8 26.0 L 280.4 26.8" stroke-width="2.20"/>
<path d="M 280.4 26.8 L 281.2 27.0 L 282.2 26.7 L 283.2 25.9 L 284.2 24.7" stroke-width="2.40"/>
<path d="M 284.2 24.7 L 285.0 23.2" stroke-width="2.20"/>
<path d="M 285.0 23.2 L 285.6 21.9" stroke-width="2.00"/>
<path d="M 285.6 21.9 L 286.1 20.7 L 286.4 20.0" stroke-width="2.20"/>
<path d="M 286.4 20.0 L 286.6 19.6" stroke-width="2.60"/>
<path d="M 286.6 19.6 L 286.7 19.7" stroke-width="3.00"/>
<path d="M 286.7 19.7 L 286.7 20.3" stroke-width="3.20"/>
<path d="M 286.7 20.3 L 286.6 21.4" stroke-width="3.00"/>
<path d="M 286.6 21.4 L 286.6 23.2" stroke-width="2.80"/>
<path d="M 286.6 23.2 L 286.5 25.5" stroke-width="2.20"/>
<path d="M 286.5 25.5 L 286.4 28.1" stroke-width="1.80"/>
<path d="M 286.4 28.1 L 286.3 30.9" stroke-width="1.60"/>
<path d="M 286.3 30.9 L 286.0 33.8 L 285.7 36.6 L 285.2 39.1 L 284.6 41.1 L 283.8 42.7" stroke-width="1.40"/>
<path d="M 283.8 42.7 L 282.9 43.6" stroke-width="1.60"/>
<path d="M 282.9 43.6 L 281.9 44.0" stroke-width="1.80"/>
<path d="M 281.9 44.0 L 280.8 43.8" stroke-width="2.00"/>
<path d="M 280.8 43.8 L 279.7 43.2 L 278.7 42.2 L 277.9 41.0 L 277.4 39.7 L 277.2 38.3" stroke-width="2.20"/>
<path d="M 277.2 38.3 L 277.3 36.8 L 277.7 35.4 L 278.3 34.0 L 279.2 32.8 L 280.3 31.7 L 281.7 31.0 L 283.3 30.4 L 285.0 30.2 L 286.6 30.1 L 288.0 30.2 L 289.0 30.3" stroke-width="2.00"/>
<path d="M 289.0 30.3 L 289.6 30.4 L 290.0 30.5" stroke-width="2.20"/>
<circle cx="316.6" cy="18.7" r="0.77" fill="currentColor" stroke="none"/>
<path d="M 316.6 18.7 L 316.5 18.5" stroke-width="2.00"/>
<path d="M 316.5 18.5 L 316.0 18.0" stroke-width="2.60"/>
<path d="M 316.0 18.0 L 315.3 17.6 L 314.2 17.2" stroke-width="2.80"/>
<path d="M 314.2 17.2 L 312.9 17.1" stroke-width="2.60"/>
<path d="M 312.9 17.1 L 311.4 17.3" stroke-width="2.40"/>
<path d="M 311.4 17.3 L 309.8 17.9" stroke-width="2.20"/>
<path d="M 309.8 17.9 L 308.3 18.9 L 307.0 20.3" stroke-width="2.00"/>
<path d="M 307.0 20.3 L 306.0 22.0 L 305.4 23.9 L 305.2 25.7 L 305.4 27.2" stroke-width="1.80"/>
<path d="M 305.4 27.2 L 306.0 28.3 L 306.9 28.9" stroke-width="2.00"/>
<path d="M 306.9 28.9 L 308.0 29.0 L 309.3 28.5 L 310.7 27.4" stroke-width="2.20"/>
<path d="M 310.7 27.4 L 312.2 25.8" stroke-width="2.00"/>
<path d="M 312.2 25.8 L 313.6 23.8" stroke-width="1.80"/>
<path d="M 313.6 23.8 L 314.9 21.8 L 315.9 20.1 L 316.6 18.7" stroke-width="1.60"/>
<path d="M 316.6 18.7 L 317.1 17.7" stroke-width="1.80"/>
<path d="M 317.1 17.7 L 317.3 17.1" stroke-width="2.00"/>
<path d="M 317.3 17.1 L 317.4 17.0" stroke-width="2.60"/>
<path d="M 317.4 17.0 L 317.2 17.4 L 317.0 18.4" stroke-width="3.00"/>
<path d="M 317.0 18.4 L 316.7 19.9" stroke-width="2.80"/>
<path d="M 316.7 19.9 L 316.4 21.9" stroke-width="2.40"/>
<path d="M 316.4 21.9 L 316.2 24.1" stroke-width="2.00"/>
<path d="M 316.2 24.1 L 316.2 26.1 L 316.4 27.8 L 316.8 29.0" stroke-width="1.80"/>
<path d="M 316.8 29.0 L 317.4 29.5" stroke-width="2.20"/>
<path d="M 317.4 29.5 L 318.2 29.3 L 319.3 28.5" stroke-width="2.40"/>
<path d="M 319.3 28.5 L 320.6 27.1" stroke-width="2.20"/>
<path d="M 320.6 27.1 L 321.9 25.3" stroke-width="2.00"/>
<path d="M 321.9 25.3 L 323.2 23.3" stroke-width="1.80"/>
<path d="M 323.2 23.3 L 324.5 21.4 L 325.8 19.6 L 327.0 18.2 L 328.2 17.1" stroke-width="1.60"/>
<path d="M 328.2 17.1 L 329.2 16.5" stroke-width="1.80"/>
<path d="M 329.2 16.5 L 330.2 16.3" stroke-width="2.00"/>
<path d="M 330.2 16.3 L 331.0 16.5" stroke-width="2.20"/>
<path d="M 331.0 16.5 L 331.6 17.2 L 332.1 18.2 L 332.3 19.5" stroke-width="2.40"/>
<path d="M 332.3 19.5 L 332.3 21.1 L 332.1 22.8" stroke-width="2.20"/>
<path d="M 332.1 22.8 L 331.6 24.5 L 330.9 26.0 L 330.0 27.2 L 329.0 28.1 L 327.8 28.5" stroke-width="2.00"/>
<path d="M 327.8 28.5 L 326.6 28.5 L 325.7 28.3" stroke-width="2.20"/>
<path d="M 325.7 28.3 L 325.1 28.1" stroke-width="2.00"/>
<circle cx="346.9" cy="17.4" r="0.77" fill="currentColor" stroke="none"/>
<path d="M 346.9 17.4 L 346.9 17.4" stroke-width="2.00"/>
<path d="M 346.9 17.4 L 346.9 17.4" stroke-width="2.80"/>
<path d="M 346.9 17.4 L 346.8 17.7 L 346.7 18.4" stroke-width="3.20"/>
<path d="M 346.7 18.4 L 346.4 19.8" stroke-width="3.00"/>
<path d="M 346.4 19.8 L 346.1 21.6" stroke-width="2.60"/>
<path d="M 346.1 21.6 L 345.6 23.9" stroke-width="2.20"/>
<path d="M 345.6 23.9 L 345.1 26.1 L 344.7 28.1" stroke-width="1.80"/>
<path d="M 344.7 28.1 L 344.3 29.5 L 344.1 30.2" stroke-width="1.60"/>
<circle cx="348.5" cy="8.1" r="0.77" fill="currentColor" stroke="none"/>
<path d="M 348.5 8.1 L 348.6 7.9" stroke-width="2.00"/>
<path d="M 348.6 7.9 L 348.6 7.8" stroke-width="2.80"/>
<path d="M 348.6 7.8 L 348.7 7.6" stroke-width="3.00"/>
<path d="M 348.7 7.6 L 348.7 7.6" stroke-width="2.60"/>
<circle cx="358.4" cy="7.6" r="0.77" fill="currentColor" stroke="none"/>
<path d="M 358.4 7.6 L 358.5 7.5" stroke-width="2.00"/>
<path d="M 358.5 7.5 L 358.6 7.5" stroke-width="2.80"/>
<path d="M 358.6 7.5 L 358.6 7.7 L 358.4 8.5" stroke-width="3.20"/>
<path d="M 358.4 8.5 L 358.0 9.9" stroke-width="3.00"/>
<path d="M 358.0 9.9 L 357.4 12.1" stroke-width="2.40"/>
<path d="M 357.4 12.1 L 356.7 14.7" stroke-width="2.00"/>
<path d="M 356.7 14.7 L 355.9 17.6" stroke-width="1.60"/>
<path d="M 355.9 17.6 L 355.2 20.4 L 354.5 23.1 L 353.9 25.3 L 353.5 27.0" stroke-width="1.40"/>
<path d="M 353.5 27.0 L 353.2 28.0" stroke-width="1.60"/>
<path d="M 353.2 28.0 L 353.0 28.2" stroke-width="2.00"/>
<path d="M 353.0 28.2 L 353.0 28.0 L 353.1 27.7" stroke-width="2.40"/>
<circle cx="356.0" cy="17.9" r="0.77" fill="currentColor" stroke="none"/>
<path d="M 356.0 17.9 L 355.9 17.8" stroke-width="2.00"/>
<path d="M 355.9 17.8 L 355.8 17.8" stroke-width="2.80"/>
<path d="M 355.8 17.8 L 355.6 17.8 L 355.5 17.8 L 355.6 17.9 L 355.7 18.0 L 355.9 18.0 L 356.1 18.0 L 356.2 18.0 L 356.3 18.0 L 356.3 18.0 L 356.3 18.1 L 356.3 18.1 L 356.3 18.1 L 356.3 18.2 L 356.4 18.3 L 356.4 18.3 L 356.5 18.4 L 356.5 18.4 L 356.5 18.4 L 356.5 18.4 L 356.5 18.4 L 356.5 18.4 L 356.5 18.4 L 356.6 18.4 L 356.6 18.4" stroke-width="3.20"/>
<path d="M 356.6 18.4 L 356.7 18.4" stroke-width="3.00"/>
<path d="M 356.7 18.4 L 356.7 18.4" stroke-width="2.60"/>
<circle cx="379.4" cy="21.5" r="0.77" fill="currentColor" stroke="none"/>
<path d="M 379.4 21.5 L 379.6 20.9" stroke-width="1.80"/>
<path d="M 379.6 20.9 L 379.8 19.9 L 380.0 18.6 L 379.9 17.2" stroke-width="2.40"/>
<path d="M 379.9 17.2 L 379.5 15.9 L 378.9 14.9" stroke-width="2.20"/>
<path d="M 378.9 14.9 L 378.0 14.3 L 376.7 14.3" stroke-width="2.40"/>
<path d="M 376.7 14.3 L 375.4 14.8 L 373.9 15.8" stroke-width="2.20"/>
<path d="M 373.9 15.8 L 372.6 17.2" stroke-width="2.00"/>
<path d="M 372.6 17.2 L 371.5 19.0 L 370.9 21.1" stroke-width="1.80"/>
<path d="M 370.9 21.1 L 370.6 23.1 L 370.7 25.0" stroke-width="1.60"/>
<path d="M 370.7 25.0 L 371.2 26.4 L 372.0 27.2" stroke-width="1.80"/>
<path d="M 372.0 27.2 L 373.0 27.3" stroke-width="2.00"/>
<path d="M 373.0 27.3 L 374.2 26.8 L 375.4 25.8" stroke-width="2.20"/>
<path d="M 375.4 25.8 L 376.5 24.3 L 377.5 22.7" stroke-width="2.00"/>
<path d="M 377.5 22.7 L 378.2 21.2" stroke-width="1.80"/>
<path d="M 378.2 21.2 L 378.7 20.1" stroke-width="2.00"/>
<path d="M 378.7 20.1 L 379.1 19.4" stroke-width="2.20"/>
<path d="M 379.1 19.4 L 379.2 19.2" stroke-width="2.60"/>
<path d="M 379.2 19.2 L 379.2 19.7 L 379.2 21.0" stroke-width="3.00"/>
<path d="M 379.2 21.0 L 379.0 23.0" stroke-width="2.40"/>
<path d="M 379.0 23.0 L 378.7 25.6" stroke-width="2.00"/>
<path d="M 378.7 25.6 L 378.3 28.8" stroke-width="1.60"/>
<path d="M 378.3 28.8 L 377.9 32.2" stroke-width="1.40"/>
<path d="M 377.9 32.2 L 377.4 35.5 L 376.8 38.6 L 376.2 41.2 L 375.4 43.2" stroke-width="1.20"/>
<path d="M 375.4 43.2 L 374.6 44.5" stroke-width="1.40"/>
<path d="M 374.6 44.5 L 373.8 45.1" stroke-width="1.60"/>
<path d="M 373.8 45.1 L 373.0 45.1" stroke-width="2.00"/>
<path d="M 373.0 45.1 L 372.3 44.5 L 371.7 43.4 L 371.4 41.8" stroke-width="2.20"/>
<path d="M 371.4 41.8 L 371.3 39.9" stroke-width="2.00"/>
<path d="M 371.3 39.9 L 371.6 37.7 L 372.3 35.4" stroke-width="1.80"/>
<path d="M 372.3 35.4 L 373.4 33.1 L 374.9 31.0" stroke-width="1.60"/>
<path d="M 374.9 31.0 L 376.7 29.1 L 378.8 27.3 L 381.0 25.7 L 383.3 24.3 L 385.5 23.2 L 387.4 22.2 L 389.0 21.3" stroke-width="1.40"/>
<path d="M 389.0 21.3 L 390.1 20.6" stroke-width="1.60"/>
<path d="M 390.1 20.6 L 390.6 20.0" stroke-width="1.80"/>
<path d="M 390.6 20.0 L 390.6 19.5" stroke-width="2.20"/>
<path d="M 390.6 19.5 L 390.2 19.2" stroke-width="2.60"/>
<path d="M 390.2 19.2 L 389.5 19.0 L 388.4 19.1" stroke-width="2.80"/>
<path d="M 388.4 19.1 L 387.2 19.7" stroke-width="2.60"/>
<path d="M 387.2 19.7 L 385.9 20.7" stroke-width="2.40"/>
<path d="M 385.9 20.7 L 384.8 22.1" stroke-width="2.20"/>
<path d="M 384.8 22.1 L 384.0 23.8 L 383.5 25.5 L 383.6 26.9 L 384.0 27.9" stroke-width="2.00"/>
<path d="M 384.0 27.9 L 384.7 28.4" stroke-width="2.20"/>
<path d="M 384.7 28.4 L 385.7 28.4 L 386.8 27.8 L 387.8 26.8" stroke-width="2.40"/>
<path d="M 387.8 26.8 L 388.7 25.3" stroke-width="2.20"/>
<path d="M 388.7 25.3 L 389.3 23.6 L 389.7 22.0 L 389.8 20.6" stroke-width="2.00"/>
<path d="M 389.8 20.6 L 389.8 19.7" stroke-width="2.20"/>
<path d="M 389.8 19.7 L 389.8 19.1" stroke-width="2.40"/>
<path d="M 389.8 19.1 L 389.9 19.0" stroke-width="2.80"/>
<path d="M 389.9 19.0 L 390.2 19.0 L 390.8 19.3 L 391.8 19.6" stroke-width="3.20"/>
<path d="M 391.8 19.6 L 393.1 19.8" stroke-width="3.00"/>
<path d="M 393.1 19.8 L 394.6 19.9" stroke-width="2.60"/>
<path d="M 394.6 19.9 L 396.1 19.7" stroke-width="2.40"/>
<path d="M 396.1 19.7 L 397.6 19.3 L 398.7 18.6 L 399.6 17.8" stroke-width="2.20"/>
<path d="M 399.6 17.8 L 400.0 17.1" stroke-width="2.40"/>
<path d="M 400.0 17.1 L 400.0 16.4" stroke-width="2.60"/>
<path d="M 400.0 16.4 L 399.6 15.9" stroke-width="2.80"/>
<path d="M 399.6 15.9 L 398.8 15.8" stroke-width="3.00"/>
<path d="M 398.8 15.8 L 397.8 16.0" stroke-width="2.80"/>
<path d="M 397.8 16.0 L 396.5 16.7" stroke-width="2.60"/>
<path d="M 396.5 16.7 L 395.3 17.8" stroke-width="2.40"/>
<path d="M 395.3 17.8 L 394.2 19.4" stroke-width="2.20"/>
<path d="M 394.2 19.4 L 393.4 21.2" stroke-width="2.00"/>
<path d="M 393.4 21.2 L 393.0 22.9 L 392.9 24.5" stroke-width="1.80"/>
<path d="M 392.9 24.5 L 393.3 25.7 L 393.9 26.5" stroke-width="2.00"/>
<path d="M 393.9 26.5 L 394.9 26.9" stroke-width="2.20"/>
<path d="M 394.9 26.9 L 396.0 26.9 L 397.3 26.5" stroke-width="2.40"/>
<path d="M 397.3 26.5 L 398.6 25.6" stroke-width="2.20"/>
<path d="M 398.6 25.6 L 400.1 24.3" stroke-width="2.00"/>
<path d="M 400.1 24.3 L 401.5 22.7 L 402.9 20.9" stroke-width="1.80"/>
<path d="M 402.9 20.9 L 404.3 19.3 L 405.5 17.8" stroke-width="1.60"/>
<path d="M 405.5 17.8 L 406.6 16.8 L 407.7 16.1" stroke-width="1.80"/>
<path d="M 407.7 16.1 L 408.7 16.0" stroke-width="2.00"/>
<path d="M 408.7 16.0 L 409.5 16.4" stroke-width="2.20"/>
<path d="M 409.5 16.4 L 410.3 17.3" stroke-width="2.40"/>
<path d="M 410.3 17.3 L 410.8 18.8" stroke-width="2.20"/>
<path d="M 410.8 18.8 L 411.1 20.6 L 411.1 22.6" stroke-width="2.00"/>
<path d="M 411.1 22.6 L 410.9 24.7 L 410.4 26.4 L 409.6 27.8 L 408.5 28.5" stroke-width="1.80"/>
<path d="M 408.5 28.5 L 407.1 28.7 L 405.9 28.6" stroke-width="2.00"/>
<path d="M 405.9 28.6 L 405.0 28.4" stroke-width="1.80"/>
</svg>
