<svg xmlns="http://www.w3.org/2000/svg" viewBox="0 0 374.3 53.5" fill="none" stroke="currentColor" stroke-linecap="round" stroke-linejoin="round" role="img">
<circle cx="14.5" cy="23.1" r="0.63" fill="currentColor" stroke="none"/>
<path d="M 14.5 23.1 L 14.5 22.8" stroke-width="1.60"/>
<path d="M 14.5 22.8 L 14.5 22.2" stroke-width="2.20"/>
<path d="M 14.5 22.2 L 14.5 21.5 L 14.4 20.8" stroke-width="2.40"/>
<path d="M 14.4 20.8 L 14.2 20.1 L 13.9 19.5 L 13.5 19.0 L 12.9 18.7 L 12.2 18.7 L 11.4 19.2" stroke-width="2.60"/>
<path d="M 11.4 19.2 L 10.4 20.1" stroke-width="2.40"/>
<path d="M 10.4 20.1 L 9.3 21.6" stroke-width="2.00"/>
<path d="M 9.3 21.6 L 8.2 23.8" stroke-width="1.60"/>
<path d="M 8.2 23.8 L 7.2 26.4" stroke-width="1.40"/>
<path d="M 7.2 26.4 L 6.5 29.1 L 6.1 31.6 L 6.0 33.7 L 6.2 35.0" stroke-width="1.20"/>
<path d="M 6.2 35.0 L 6.7 35.7" stroke-width="1.40"/>
<path d="M 6.7 35.7 L 7.3 35.6 L 8.1 34.8 L 9.2 33.2" stroke-width="1.80"/>
<path d="M 9.2 33.2 L 10.4 31.1" stroke-width="1.60"/>
<path d="M 10.4 31.1 L 11.7 28.6" stroke-width="1.40"/>
<path d="M 11.7 28.6 L 13.1 26.2 L 14.4 24.0 L 15.5 22.3 L 16.3 21.2" stroke-width="1.20"/>
<path d="M 16.3 21.2 L 16.8 20.5" stroke-width="1.40"/>
<path d="M 16.8 20.5 L 17.0 20.3" stroke-width="1.80"/>
<path d="M 17.0 20.3 L 16.9 20.6" stroke-width="2.20"/>
<path d="M 16.9 20.6 L 16.6 21.6" stroke-width="2.40"/>
<path d="M 16.6 21.6 L 16.2 23.3" stroke-width="2.20"/>
<path d="M 16.2 23.3 L 15.8 25.5" stroke-width="1.80"/>
<path d="M 15.8 25.5 L 15.4 28.1 L 15.1 30.7" stroke-width="1.40"/>
<path d="M 15.1 30.7 L 15.1 32.9 L 15.5 34.6" stroke-width="1.20"/>
<path d="M 15.5 34.6 L 16.1 35.7" stroke-width="1.40"/>
<path d="M 16.1 35.7 L 17.1 36.2 L 18.3 35.9 L 19.7 35.0 L 20.8 34.0" stroke-width="1.60"/>
<path d="M 20.8 34.0 L 21.6 33.2" stroke-width="1.40"/>
<circle cx="34.9" cy="10.3" r="0.63" fill="currentColor" stroke="none"/>
<path d="M 34.9 10.3 L 34.9 10.3" stroke-width="1.60"/>
<path d="M 34.9 10.3 L 34.9 10.5" stroke-width="2.40"/>
<path d="M 34.9 10.5 L 34.8 11.0 L 34.6 12.0" stroke-width="2.60"/>
<path d="M 34.6 12.0 L 34.3 13.7" stroke-width="2.20"/>
<path d="M 34.3 13.7 L 33.9 15.9" stroke-width="1.80"/>
<path d="M 33.9 15.9 L 33.4 18.6" stroke-width="1.60"/>
<path d="M 33.4 18.6 L 32.9 21.6 L 32.5 24.7" stroke-width="1.20"/>
<path d="M 32.5 24.7 L 32.2 27.7 L 32.2 30.3 L 32.3 32.4" stroke-width="1.00"/>
<path d="M 32.3 32.4 L 32.7 33.9" stroke-width="1.20"/>
<path d="M 32.7 33.9 L 33.2 34.6" stroke-width="1.40"/>
<path d="M 33.2 34.6 L 33.6 34.9 L 34.0 34.8" stroke-width="1.60"/>
<circle cx="40.7" cy="18.6" r="0.63" fill="currentColor" stroke="none"/>
<path d="M 40.7 18.6 L 40.7 18.5" stroke-width="1.60"/>
<path d="M 40.7 18.5 L 40.6 18.7" stroke-width="2.40"/>
<path d="M 40.6 18.7 L 40.5 19.2" stroke-width="2.60"/>
<path d="M 40.5 19.2 L 40.2 20.5" stroke-width="2.40"/>
<path d="M 40.2 20.5 L 39.8 22.5" stroke-width="2.20"/>
<path d="M 39.8 22.5 L 39.3 24.9" stroke-width="1.60"/>
<path d="M 39.3 24.9 L 38.8 27.6" stroke-width="1.40"/>
<path d="M 38.8 27.6 L 38.4 30.3 L 38.0 32.5 L 37.9 34.2" stroke-width="1.20"/>
<path d="M 37.9 34.2 L 37.8 35.3 L 37.8 35.7" stroke-width="1.40"/>
<circle cx="41.6" cy="13.7" r="0.63" fill="currentColor" stroke="none"/>
<path d="M 41.6 13.7 L 41.6 13.5" stroke-width="1.60"/>
<path d="M 41.6 13.5 L 41.6 13.2" stroke-width="2.20"/>
<path d="M 41.6 13.2 L 41.6 12.9 L 41.6 12.8 L 41.6 12.7 L 41.7 12.8" stroke-width="2.60"/>
<path d="M 41.7 12.8 L 41.8 12.8" stroke-width="2.40"/>
<path d="M 41.8 12.8 L 41.9 12.9" stroke-width="2.00"/>
<circle cx="45.3" cy="16.0" r="0.63" fill="currentColor" stroke="none"/>
<path d="M 45.3 16.0 L 45.3 16.3" stroke-width="1.60"/>
<path d="M 45.3 16.3 L 45.2 17.1" stroke-width="2.00"/>
<path d="M 45.2 17.1 L 45.0 18.4" stroke-width="2.20"/>
<path d="M 45.0 18.4 L 44.8 20.2" stroke-width="2.00"/>
<path d="M 44.8 20.2 L 44.4 22.5" stroke-width="1.60"/>
<path d="M 44.4 22.5 L 43.9 25.1" stroke-width="1.40"/>
<path d="M 43.9 25.1 L 43.4 27.7 L 43.0 30.1 L 42.7 32.1" stroke-width="1.20"/>
<path d="M 42.7 32.1 L 42.6 33.5" stroke-width="1.40"/>
<path d="M 42.6 33.5 L 42.6 34.2" stroke-width="1.60"/>
<path d="M 42.6 34.2 L 42.8 34.2" stroke-width="1.80"/>
<path d="M 42.8 34.2 L 43.1 33.5" stroke-width="2.20"/>
<path d="M 43.1 33.5 L 43.6 32.0" stroke-width="2.00"/>
<path d="M 43.6 32.0 L 44.3 29.8" stroke-width="1.80"/>
<path d="M 44.3 29.8 L 45.3 27.1" stroke-width="1.40"/>
<path d="M 45.3 27.1 L 46.5 24.4 L 47.9 21.8 L 49.3 19.7 L 50.7 18.1 L 52.0 17.0" stroke-width="1.20"/>
<path d="M 52.0 17.0 L 53.0 16.4" stroke-width="1.40"/>
<path d="M 53.0 16.4 L 53.7 16.5" stroke-width="1.60"/>
<path d="M 53.7 16.5 L 54.1 17.4 L 54.2 19.1" stroke-width="1.80"/>
<path d="M 54.2 19.1 L 53.9 21.4" stroke-width="1.60"/>
<path d="M 53.9 21.4 L 53.4 24.1" stroke-width="1.40"/>
<path d="M 53.4 24.1 L 52.9 26.8 L 52.4 29.2 L 52.0 31.2 L 51.9 32.6" stroke-width="1.20"/>
<path d="M 51.9 32.6 L 51.9 33.2" stroke-width="1.60"/>
<path d="M 51.9 33.2 L 52.0 33.0" stroke-width="1.80"/>
<path d="M 52.0 33.0 L 52.3 32.0" stroke-width="2.20"/>
<path d="M 52.3 32.0 L 52.6 30.9" stroke-width="2.00"/>
<path d="M 52.6 30.9 L 52.8 29.9" stroke-width="1.60"/>
<circle cx="55.1" cy="24.3" r="0.63" fill="currentColor" stroke="none"/>
<path d="M 55.1 24.3 L 55.3 24.1" stroke-width="1.60"/>
<path d="M 55.3 24.1 L 55.8 23.8" stroke-width="2.20"/>
<path d="M 55.8 23.8 L 56.5 23.5 L 57.4 23.0" stroke-width="2.40"/>
<path d="M 57.4 23.0 L 58.4 22.4" stroke-width="2.20"/>
<path d="M 58.4 22.4 L 59.5 21.5 L 60.6 20.5" stroke-width="2.00"/>
<path d="M 60.6 20.5 L 61.7 19.3 L 62.6 18.1 L 63.3 17.0 L 63.6 16.1" stroke-width="1.80"/>
<path d="M 63.6 16.1 L 63.6 15.3" stroke-width="2.00"/>
<path d="M 63.6 15.3 L 63.2 14.9" stroke-width="2.20"/>
<path d="M 63.2 14.9 L 62.5 14.7 L 61.5 15.1" stroke-width="2.40"/>
<path d="M 61.5 15.1 L 60.3 16.0" stroke-width="2.20"/>
<path d="M 60.3 16.0 L 59.0 17.5" stroke-width="1.80"/>
<path d="M 59.0 17.5 L 57.7 19.5" stroke-width="1.60"/>
<path d="M 57.7 19.5 L 56.6 21.9" stroke-width="1.40"/>
<path d="M 56.6 21.9 L 55.8 24.3 L 55.5 26.6 L 55.6 28.6" stroke-width="1.20"/>
<path d="M 55.6 28.6 L 56.2 30.1 L 57.2 31.1" stroke-width="1.40"/>
<path d="M 57.2 31.1 L 58.6 31.6 L 60.1 31.5 L 61.8 30.9" stroke-width="1.60"/>
<path d="M 61.8 30.9 L 63.5 29.9 L 65.2 28.5 L 66.8 26.9 L 68.2 25.4 L 69.3 23.9 L 70.3 22.8" stroke-width="1.40"/>
<path d="M 70.3 22.8 L 70.9 22.0" stroke-width="1.60"/>
<path d="M 70.9 22.0 L 71.3 21.5" stroke-width="1.80"/>
<path d="M 71.3 21.5 L 71.5 21.3" stroke-width="2.20"/>
<path d="M 71.5 21.3 L 71.6 21.3" stroke-width="2.40"/>
<path d="M 71.6 21.3 L 71.5 21.3 L 71.5 21.4 L 71.5 21.5 L 71.5 21.5 L 71.5 21.5 L 71.5 21.5 L 71.5 21.5 L 71.5 21.6 L 71.5 21.6 L 71.5 21.6 L 71.4 21.6 L 71.4 21.7 L 71.4 21.7 L 71.4 21.7 L 71.4 21.6 L 71.4 21.6" stroke-width="2.60"/>
<path d="M 71.4 21.6 L 71.4 21.7" stroke-width="2.40"/>
<path d="M 71.4 21.7 L 71.4 21.7" stroke-width="2.00"/>
<circle cx="90.6" cy="18.7" r="0.63" fill="currentColor" stroke="none"/>
<path d="M 90.6 18.7 L 90.5 18.4" stroke-width="1.60"/>
<path d="M 90.5 18.4 L 90.4 17.9" stroke-width="2.20"/>
<path d="M 90.4 17.9 L 90.1 17.4 L 89.7 16.9 L 89.2 16.6 L 88.5 16.5 L 87.6 16.8" stroke-width="2.60"/>
<path d="M 87.6 16.8 L 86.6 17.5" stroke-width="2.40"/>
<path d="M 86.6 17.5 L 85.5 18.9" stroke-width="2.00"/>
<path d="M 85.5 18.9 L 84.4 20.8" stroke-width="1.80"/>
<path d="M 84.4 20.8 L 83.4 23.2 L 82.6 25.9" stroke-width="1.40"/>
<path d="M 82.6 25.9 L 82.0 28.6 L 81.9 31.0 L 82.0 32.8" stroke-width="1.20"/>
<path d="M 82.0 32.8 L 82.6 33.9" stroke-width="1.40"/>
<path d="M 82.6 33.9 L 83.4 34.3 L 84.4 33.9" stroke-width="1.60"/>
<path d="M 84.4 33.9 L 85.6 32.9" stroke-width="1.80"/>
<path d="M 85.6 32.9 L 86.9 31.1" stroke-width="1.60"/>
<path d="M 86.9 31.1 L 88.1 28.9" stroke-width="1.40"/>
<path d="M 88.1 28.9 L 89.2 26.4 L 90.1 23.9 L 90.8 21.7 L 91.4 20.0" stroke-width="1.20"/>
<path d="M 91.4 20.0 L 91.7 18.6 L 91.8 17.7" stroke-width="1.40"/>
<path d="M 91.8 17.7 L 91.8 17.0" stroke-width="1.80"/>
<path d="M 91.8 17.0 L 91.8 16.6" stroke-width="2.00"/>
<path d="M 91.8 16.6 L 91.8 16.4" stroke-width="2.40"/>
<path d="M 91.8 16.4 L 91.9 16.3" stroke-width="2.60"/>
<path d="M 91.9 16.3 L 92.0 16.3" stroke-width="2.40"/>
<path d="M 92.0 16.3 L 92.1 16.3" stroke-width="2.00"/>
<circle cx="95.9" cy="17.5" r="0.63" fill="currentColor" stroke="none"/>
<path d="M 95.9 17.5 L 96.3 17.1" stroke-width="1.60"/>
<path d="M 96.3 17.1 L 97.0 16.3 L 98.0 15.1" stroke-width="2.00"/>
<path d="M 98.0 15.1 L 99.2 13.7" stroke-width="1.80"/>
<path d="M 99.2 13.7 L 100.4 12.2 L 101.5 10.7 L 102.4 9.3 L 103.1 8.1 L 103.4 7.1" stroke-width="1.60"/>
<path d="M 103.4 7.1 L 103.4 6.4" stroke-width="1.80"/>
<path d="M 103.4 6.4 L 103.2 6.0" stroke-width="2.20"/>
<path d="M 103.2 6.0 L 102.7 6.0 L 102.0 6.6" stroke-width="2.40"/>
<path d="M 102.0 6.6 L 101.1 7.8" stroke-width="2.20"/>
<path d="M 101.1 7.8 L 100.0 9.7" stroke-width="1.80"/>
<path d="M 100.0 9.7 L 98.8 12.3" stroke-width="1.60"/>
<path d="M 98.8 12.3 L 97.6 15.4" stroke-width="1.20"/>
<path d="M 97.6 15.4 L 96.4 18.9 L 95.4 22.8 L 94.5 26.8 L 93.9 30.7 L 93.4 34.3 L 93.2 37.3 L 93.2 39.8 L 93.3 41.4" stroke-width="1.00"/>
<path d="M 93.3 41.4 L 93.4 42.3" stroke-width="1.20"/>
<path d="M 93.4 42.3 L 93.5 42.6" stroke-width="1.40"/>
<path d="M 93.5 42.6 L 93.6 42.7" stroke-width="1.60"/>
<circle cx="92.2" cy="25.2" r="0.63" fill="currentColor" stroke="none"/>
<path d="M 92.2 25.2 L 92.4 25.0" stroke-width="1.60"/>
<path d="M 92.4 25.0 L 93.0 24.7 L 94.0 24.3" stroke-width="2.20"/>
<path d="M 94.0 24.3 L 95.5 23.9" stroke-width="2.00"/>
<path d="M 95.5 23.9 L 97.4 23.4" stroke-width="1.80"/>
<path d="M 97.4 23.4 L 99.4 22.9 L 101.4 22.5" stroke-width="1.60"/>
<path d="M 101.4 22.5 L 103.2 22.0 L 104.7 21.7" stroke-width="1.40"/>
<path d="M 104.7 21.7 L 105.7 21.5 L 106.3 21.4 L 106.6 21.4" stroke-width="1.60"/>
<circle cx="118.0" cy="16.6" r="0.63" fill="currentColor" stroke="none"/>
<path d="M 118.0 16.6 L 118.0 16.8" stroke-width="1.60"/>
<path d="M 118.0 16.8 L 118.0 17.3" stroke-width="2.20"/>
<path d="M 118.0 17.3 L 117.8 18.4" stroke-width="2.40"/>
<path d="M 117.8 18.4 L 117.6 20.0" stroke-width="2.20"/>
<path d="M 117.6 20.0 L 117.2 22.1" stroke-width="1.80"/>
<path d="M 117.2 22.1 L 116.8 24.5" stroke-width="1.60"/>
<path d="M 116.8 24.5 L 116.4 27.1" stroke-width="1.40"/>
<path d="M 116.4 27.1 L 116.0 29.5 L 115.7 31.7 L 115.6 33.4" stroke-width="1.20"/>
<path d="M 115.6 33.4 L 115.5 34.6" stroke-width="1.40"/>
<path d="M 115.5 34.6 L 115.5 35.1" stroke-width="1.20"/>
<circle cx="119.1" cy="10.2" r="0.63" fill="currentColor" stroke="none"/>
<path d="M 119.1 10.2 L 119.2 10.2" stroke-width="1.60"/>
<path d="M 119.2 10.2 L 119.4 10.4 L 119.6 10.5" stroke-width="2.40"/>
<path d="M 119.6 10.5 L 119.7 10.7" stroke-width="2.00"/>
<circle cx="124.2" cy="16.4" r="0.63" fill="currentColor" stroke="none"/>
<path d="M 124.2 16.4 L 124.3 16.4" stroke-width="1.60"/>
<path d="M 124.3 16.4 L 124.3 16.8" stroke-width="2.40"/>
<path d="M 124.3 16.8 L 124.3 17.6" stroke-width="2.60"/>
<path d="M 124.3 17.6 L 124.2 19.0" stroke-width="2.40"/>
<path d="M 124.2 19.0 L 123.9 20.8" stroke-width="2.00"/>
<path d="M 123.9 20.8 L 123.4 23.1" stroke-width="1.60"/>
<path d="M 123.4 23.1 L 122.8 25.5 L 122.2 28.0" stroke-width="1.40"/>
<path d="M 122.2 28.0 L 121.7 30.1" stroke-width="1.20"/>
<path d="M 121.7 30.1 L 121.4 31.7 L 121.2 32.8" stroke-width="1.40"/>
<path d="M 121.2 32.8 L 121.3 33.2" stroke-width="1.80"/>
<path d="M 121.3 33.2 L 121.5 33.0" stroke-width="2.00"/>
<path d="M 121.5 33.0 L 121.8 32.0" stroke-width="2.20"/>
<path d="M 121.8 32.0 L 122.4 30.4" stroke-width="2.00"/>
<path d="M 122.4 30.4 L 123.2 28.1" stroke-width="1.80"/>
<path d="M 123.2 28.1 L 124.3 25.4" stroke-width="1.40"/>
<path d="M 124.3 25.4 L 125.7 22.8 L 127.3 20.5 L 129.0 18.7 L 130.5 17.4 L 132.0 16.8" stroke-width="1.20"/>
<path d="M 132.0 16.8 L 133.1 16.7" stroke-width="1.40"/>
<path d="M 133.1 16.7 L 134.0 17.4 L 134.5 18.7 L 134.6 20.7" stroke-width="1.60"/>
<path d="M 134.6 20.7 L 134.4 23.2" stroke-width="1.40"/>
<path d="M 134.4 23.2 L 134.0 25.9 L 133.6 28.6 L 133.2 31.0 L 133.0 32.8" stroke-width="1.20"/>
<path d="M 133.0 32.8 L 133.0 34.0" stroke-width="1.40"/>
<path d="M 133.0 34.0 L 133.2 34.5" stroke-width="1.60"/>
<path d="M 133.2 34.5 L 133.5 34.3 L 133.7 33.8 L 133.9 33.3" stroke-width="2.00"/>
<circle cx="142.5" cy="8.6" r="0.63" fill="currentColor" stroke="none"/>
<path d="M 142.5 8.6 L 142.5 8.6" stroke-width="1.60"/>
<path d="M 142.5 8.6 L 142.6 8.7" stroke-width="2.40"/>
<path d="M 142.6 8.7 L 142.6 9.3" stroke-width="2.60"/>
<path d="M 142.6 9.3 L 142.6 10.5" stroke-width="2.40"/>
<path d="M 142.6 10.5 L 142.5 12.4" stroke-width="2.20"/>
<path d="M 142.5 12.4 L 142.3 14.8" stroke-width="1.80"/>
<path d="M 142.3 14.8 L 142.0 17.6" stroke-width="1.40"/>
<path d="M 142.0 17.6 L 141.6 20.5 L 141.2 23.4" stroke-width="1.20"/>
<path d="M 141.2 23.4 L 140.7 26.2 L 140.4 28.5" stroke-width="1.00"/>
<path d="M 140.4 28.5 L 140.1 30.3" stroke-width="1.20"/>
<path d="M 140.1 30.3 L 140.1 31.4" stroke-width="1.40"/>
<path d="M 140.1 31.4 L 140.1 31.8" stroke-width="1.60"/>
<path d="M 140.1 31.8 L 140.2 31.8" stroke-width="1.80"/>
<path d="M 140.2 31.8 L 140.3 31.6" stroke-width="2.00"/>
<circle cx="148.8" cy="17.9" r="0.63" fill="currentColor" stroke="none"/>
<path d="M 148.8 17.9 L 148.8 17.7" stroke-width="1.60"/>
<path d="M 148.8 17.7 L 148.7 17.5" stroke-width="2.20"/>
<path d="M 148.7 17.5 L 148.3 17.5 L 147.6 17.7 L 146.6 18.2" stroke-width="2.60"/>
<path d="M 146.6 18.2 L 145.4 19.0" stroke-width="2.20"/>
<path d="M 145.4 19.0 L 144.2 19.9" stroke-width="2.00"/>
<path d="M 144.2 19.9 L 143.0 20.9 L 142.0 21.7 L 141.4 22.4" stroke-width="1.80"/>
<path d="M 141.4 22.4 L 141.1 22.9" stroke-width="2.00"/>
<path d="M 141.1 22.9 L 141.1 23.4" stroke-width="2.40"/>
<path d="M 141.1 23.4 L 141.5 23.9 L 142.1 24.4" stroke-width="2.60"/>
<path d="M 142.1 24.4 L 143.0 25.0" stroke-width="2.40"/>
<path d="M 143.0 25.0 L 144.0 25.8" stroke-width="2.20"/>
<path d="M 144.0 25.8 L 145.2 26.6" stroke-width="2.00"/>
<path d="M 145.2 26.6 L 146.4 27.5 L 147.5 28.4 L 148.6 29.2 L 149.4 29.9" stroke-width="1.80"/>
<path d="M 149.4 29.9 L 150.0 30.4" stroke-width="2.00"/>
<path d="M 150.0 30.4 L 150.5 30.8" stroke-width="2.20"/>
<path d="M 150.5 30.8 L 150.7 30.9" stroke-width="2.40"/>
<path d="M 150.7 30.9 L 150.8 31.0 L 150.8 30.9 L 150.8 30.8 L 150.8 30.7 L 150.7 30.6 L 150.7 30.5 L 150.7 30.5 L 150.7 30.5 L 150.7 30.5 L 150.7 30.5 L 150.7 30.5 L 150.7 30.6 L 150.7 30.6 L 150.7 30.6 L 150.7 30.6 L 150.7 30.6 L 150.6 30.6 L 150.6 30.6" stroke-width="2.60"/>
<path d="M 150.6 30.6 L 150.6 30.6" stroke-width="2.40"/>
<path d="M 150.6 30.6 L 150.6 30.6" stroke-width="2.00"/>
<circle cx="156.7" cy="29.3" r="0.63" fill="currentColor" stroke="none"/>
<path d="M 156.7 29.3 L 156.7 29.3" stroke-width="1.60"/>
<path d="M 156.7 29.3 L 156.7 29.3" stroke-width="2.40"/>
<path d="M 156.7 29.3 L 156.7 29.2 L 156.8 29.1 L 156.8 29.0 L 156.7 29.0 L 156.6 29.2 L 156.2 29.8 L 155.8 30.7" stroke-width="2.60"/>
<path d="M 155.8 30.7 L 155.2 32.1" stroke-width="2.40"/>
<path d="M 155.2 32.1 L 154.6 33.8" stroke-width="2.00"/>
<path d="M 154.6 33.8 L 154.0 35.7" stroke-width="1.80"/>
<path d="M 154.0 35.7 L 153.4 37.6" stroke-width="1.60"/>
<path d="M 153.4 37.6 L 152.9 39.6 L 152.6 41.4 L 152.4 43.0" stroke-width="1.40"/>
<path d="M 152.4 43.0 L 152.4 44.3 L 152.5 45.3" stroke-width="1.60"/>
<path d="M 152.5 45.3 L 152.6 45.9 L 152.7 46.2" stroke-width="1.80"/>
<circle cx="174.6" cy="8.5" r="0.63" fill="currentColor" stroke="none"/>
<path d="M 174.6 8.5 L 174.6 8.5" stroke-width="1.60"/>
<path d="M 174.6 8.5 L 174.5 8.6" stroke-width="2.40"/>
<path d="M 174.5 8.6 L 174.4 9.0 L 174.2 9.8" stroke-width="2.60"/>
<path d="M 174.2 9.8 L 174.0 11.1" stroke-width="2.40"/>
<path d="M 174.0 11.1 L 173.6 13.0" stroke-width="2.00"/>
<path d="M 173.6 13.0 L 173.2 15.5" stroke-width="1.60"/>
<path d="M 173.2 15.5 L 172.7 18.3" stroke-width="1.40"/>
<path d="M 172.7 18.3 L 172.2 21.4 L 171.7 24.5" stroke-width="1.20"/>
<path d="M 171.7 24.5 L 171.3 27.4 L 171.2 29.9" stroke-width="1.00"/>
<path d="M 171.2 29.9 L 171.2 31.7 L 171.4 32.7" stroke-width="1.20"/>
<path d="M 171.4 32.7 L 171.6 33.1" stroke-width="1.40"/>
<path d="M 171.6 33.1 L 171.7 33.1" stroke-width="1.60"/>
<circle cx="169.9" cy="18.9" r="0.63" fill="currentColor" stroke="none"/>
<path d="M 169.9 18.9 L 170.0 18.9" stroke-width="1.60"/>
<path d="M 170.0 18.9 L 170.4 19.0" stroke-width="2.40"/>
<path d="M 170.4 19.0 L 171.1 19.1" stroke-width="2.60"/>
<path d="M 171.1 19.1 L 172.2 19.0" stroke-width="2.40"/>
<path d="M 172.2 19.0 L 173.5 18.8" stroke-width="2.20"/>
<path d="M 173.5 18.8 L 175.1 18.2" stroke-width="2.00"/>
<path d="M 175.1 18.2 L 176.7 17.2" stroke-width="1.80"/>
<path d="M 176.7 17.2 L 178.3 15.9" stroke-width="1.60"/>
<path d="M 178.3 15.9 L 179.8 14.4 L 181.2 12.6 L 182.3 10.9 L 183.2 9.3 L 183.8 8.0" stroke-width="1.40"/>
<path d="M 183.8 8.0 L 184.1 7.2" stroke-width="1.60"/>
<path d="M 184.1 7.2 L 184.2 7.0" stroke-width="1.80"/>
<path d="M 184.2 7.0 L 184.0 7.3" stroke-width="2.20"/>
<path d="M 184.0 7.3 L 183.7 8.4" stroke-width="2.40"/>
<path d="M 183.7 8.4 L 183.1 10.4" stroke-width="2.00"/>
<path d="M 183.1 10.4 L 182.5 13.0" stroke-width="1.60"/>
<path d="M 182.5 13.0 L 181.8 16.2" stroke-width="1.40"/>
<path d="M 181.8 16.2 L 181.1 19.6" stroke-width="1.20"/>
<path d="M 181.1 19.6 L 180.6 23.0 L 180.1 26.1 L 179.8 28.5 L 179.7 30.2" stroke-width="1.00"/>
<path d="M 179.7 30.2 L 179.6 31.2" stroke-width="1.20"/>
<path d="M 179.6 31.2 L 179.7 31.5" stroke-width="1.60"/>
<path d="M 179.7 31.5 L 179.9 31.1 L 180.2 30.0" stroke-width="2.00"/>
<path d="M 180.2 30.0 L 180.8 28.1" stroke-width="1.80"/>
<path d="M 180.8 28.1 L 181.8 25.7" stroke-width="1.60"/>
<path d="M 181.8 25.7 L 183.0 23.2" stroke-width="1.40"/>
<path d="M 183.0 23.2 L 184.6 20.9 L 186.3 19.1 L 188.0 18.0 L 189.5 17.5" stroke-width="1.20"/>
<path d="M 189.5 17.5 L 190.7 17.8" stroke-width="1.40"/>
<path d="M 190.7 17.8 L 191.5 18.7 L 191.9 20.2 L 191.9 22.3" stroke-width="1.60"/>
<path d="M 191.9 22.3 L 191.7 24.6 L 191.3 27.0" stroke-width="1.40"/>
<path d="M 191.3 27.0 L 191.0 29.1" stroke-width="1.20"/>
<path d="M 191.0 29.1 L 190.8 30.7 L 190.8 31.8" stroke-width="1.40"/>
<path d="M 190.8 31.8 L 190.9 32.3" stroke-width="1.80"/>
<path d="M 190.9 32.3 L 191.2 32.1" stroke-width="2.00"/>
<path d="M 191.2 32.1 L 191.7 31.2" stroke-width="2.20"/>
<path d="M 191.7 31.2 L 192.4 29.5" stroke-width="2.00"/>
<path d="M 192.4 29.5 L 193.3 27.3" stroke-width="1.60"/>
<path d="M 193.3 27.3 L 194.5 24.8" stroke-width="1.40"/>
<path d="M 194.5 24.8 L 195.8 22.4 L 197.0 20.4 L 198.1 18.8" stroke-width="1.20"/>
<path d="M 198.1 18.8 L 199.0 17.8" stroke-width="1.40"/>
<path d="M 199.0 17.8 L 199.5 17.5" stroke-width="1.60"/>
<path d="M 199.5 17.5 L 199.7 17.9" stroke-width="1.80"/>
<path d="M 199.7 17.9 L 199.7 19.1" stroke-width="2.00"/>
<path d="M 199.7 19.1 L 199.3 21.0" stroke-width="1.80"/>
<path d="M 199.3 21.0 L 198.9 23.4" stroke-width="1.60"/>
<path d="M 198.9 23.4 L 198.3 26.1" stroke-width="1.40"/>
<path d="M 198.3 26.1 L 197.9 28.5 L 197.6 30.6" stroke-width="1.20"/>
<path d="M 197.6 30.6 L 197.5 31.9" stroke-width="1.40"/>
<path d="M 197.5 31.9 L 197.6 32.5" stroke-width="1.60"/>
<path d="M 197.6 32.5 L 197.7 32.5" stroke-width="2.00"/>
<path d="M 197.7 32.5 L 197.9 32.0" stroke-width="2.20"/>
<path d="M 197.9 32.0 L 198.0 31.6" stroke-width="2.00"/>
<circle cx="200.9" cy="11.2" r="0.63" fill="currentColor" stroke="none"/>
<path d="M 200.9 11.2 L 200.9 11.1" stroke-width="1.60"/>
<path d="M 200.9 11.1 L 201.0 11.0 L 201.0 11.0" stroke-width="2.40"/>
<path d="M 201.0 11.0 L 201.1 10.9" stroke-width="2.00"/>
<circle cx="204.8" cy="14.9" r="0.63" fill="currentColor" stroke="none"/>
<path d="M 204.8 14.9 L 204.8 15.2" stroke-width="1.60"/>
<path d="M 204.8 15.2 L 204.7 15.8" stroke-width="2.20"/>
<path d="M 204.7 15.8 L 204.6 16.9" stroke-width="2.40"/>
<path d="M 204.6 16.9 L 204.4 18.5" stroke-width="2.00"/>
<path d="M 204.4 18.5 L 204.0 20.5" stroke-width="1.80"/>
<path d="M 204.0 20.5 L 203.6 22.9" stroke-width="1.60"/>
<path d="M 203.6 22.9 L 203.0 25.3" stroke-width="1.40"/>
<path d="M 203.0 25.3 L 202.5 27.7 L 202.0 29.6" stroke-width="1.20"/>
<path d="M 202.0 29.6 L 201.7 31.0" stroke-width="1.40"/>
<path d="M 201.7 31.0 L 201.6 31.8" stroke-width="1.60"/>
<path d="M 201.6 31.8 L 201.6 32.1" stroke-width="1.80"/>
<path d="M 201.6 32.1 L 201.8 31.7" stroke-width="2.20"/>
<path d="M 201.8 31.7 L 202.1 30.7" stroke-width="2.40"/>
<path d="M 202.1 30.7 L 202.7 29.0" stroke-width="2.00"/>
<path d="M 202.7 29.0 L 203.5 26.7" stroke-width="1.80"/>
<path d="M 203.5 26.7 L 204.7 24.1" stroke-width="1.40"/>
<path d="M 204.7 24.1 L 206.0 21.7 L 207.6 19.6 L 209.2 18.0 L 210.7 17.0" stroke-width="1.20"/>
<path d="M 210.7 17.0 L 212.0 16.4 L 213.0 16.5" stroke-width="1.40"/>
<path d="M 213.0 16.5 L 213.6 17.3" stroke-width="1.60"/>
<path d="M 213.6 17.3 L 213.9 18.8" stroke-width="1.80"/>
<path d="M 213.9 18.8 L 213.8 20.9" stroke-width="1.60"/>
<path d="M 213.8 20.9 L 213.4 23.4" stroke-width="1.40"/>
<path d="M 213.4 23.4 L 213.0 26.1 L 212.6 28.6 L 212.3 30.7 L 212.2 32.3" stroke-width="1.20"/>
<path d="M 212.2 32.3 L 212.2 33.2" stroke-width="1.40"/>
<path d="M 212.2 33.2 L 212.3 33.3" stroke-width="1.80"/>
<path d="M 212.3 33.3 L 212.6 32.7 L 212.9 31.8" stroke-width="2.00"/>
<path d="M 212.9 31.8 L 213.1 31.1" stroke-width="1.80"/>
<circle cx="221.2" cy="9.0" r="0.63" fill="currentColor" stroke="none"/>
<path d="M 221.2 9.0 L 221.4 8.6" stroke-width="1.60"/>
<path d="M 221.4 8.6 L 221.5 8.3" stroke-width="2.20"/>
<path d="M 221.5 8.3 L 221.7 8.3 L 221.6 8.8" stroke-width="2.60"/>
<path d="M 221.6 8.8 L 221.5 10.2" stroke-width="2.40"/>
<path d="M 221.5 10.2 L 221.1 12.2" stroke-width="2.20"/>
<path d="M 221.1 12.2 L 220.7 14.8" stroke-width="1.60"/>
<path d="M 220.7 14.8 L 220.2 17.8" stroke-width="1.40"/>
<path d="M 220.2 17.8 L 219.7 20.9" stroke-width="1.20"/>
<path d="M 219.7 20.9 L 219.2 23.9 L 218.8 26.7 L 218.5 28.9" stroke-width="1.00"/>
<path d="M 218.5 28.9 L 218.3 30.6" stroke-width="1.20"/>
<path d="M 218.3 30.6 L 218.1 31.6 L 218.1 32.2" stroke-width="1.40"/>
<path d="M 218.1 32.2 L 218.1 32.3" stroke-width="1.60"/>
<circle cx="226.5" cy="16.9" r="0.63" fill="currentColor" stroke="none"/>
<path d="M 226.5 16.9 L 226.6 16.8" stroke-width="1.60"/>
<path d="M 226.6 16.8 L 226.5 16.8" stroke-width="2.40"/>
<path d="M 226.5 16.8 L 226.1 17.0 L 225.3 17.5" stroke-width="2.60"/>
<path d="M 225.3 17.5 L 224.2 18.4" stroke-width="2.40"/>
<path d="M 224.2 18.4 L 222.8 19.4" stroke-width="2.00"/>
<path d="M 222.8 19.4 L 221.4 20.5" stroke-width="1.80"/>
<path d="M 221.4 20.5 L 220.1 21.6 L 219.1 22.5" stroke-width="1.60"/>
<path d="M 219.1 22.5 L 218.6 23.1" stroke-width="1.80"/>
<path d="M 218.6 23.1 L 218.5 23.7" stroke-width="2.00"/>
<path d="M 218.5 23.7 L 218.8 24.1" stroke-width="2.20"/>
<path d="M 218.8 24.1 L 219.5 24.5 L 220.5 25.1" stroke-width="2.40"/>
<path d="M 220.5 25.1 L 221.7 25.8" stroke-width="2.20"/>
<path d="M 221.7 25.8 L 223.0 26.7" stroke-width="2.00"/>
<path d="M 223.0 26.7 L 224.3 27.7 L 225.4 28.7" stroke-width="1.80"/>
<path d="M 225.4 28.7 L 226.3 29.8" stroke-width="1.60"/>
<path d="M 226.3 29.8 L 227.0 30.8 L 227.5 31.7" stroke-width="1.80"/>
<path d="M 227.5 31.7 L 227.8 32.3" stroke-width="2.00"/>
<path d="M 227.8 32.3 L 227.9 32.7" stroke-width="2.20"/>
<path d="M 227.9 32.7 L 227.9 32.9" stroke-width="2.40"/>
<path d="M 227.9 32.9 L 227.9 32.7 L 227.9 32.1" stroke-width="2.60"/>
<path d="M 227.9 32.1 L 228.0 31.5" stroke-width="2.40"/>
<path d="M 228.0 31.5 L 228.0 31.0" stroke-width="2.00"/>
<circle cx="232.2" cy="17.1" r="0.63" fill="currentColor" stroke="none"/>
<path d="M 232.2 17.1 L 232.2 17.1" stroke-width="1.60"/>
<path d="M 232.2 17.1 L 232.2 17.2" stroke-width="2.40"/>
<path d="M 232.2 17.2 L 232.1 17.7 L 232.0 18.8" stroke-width="2.60"/>
<path d="M 232.0 18.8 L 231.8 20.3" stroke-width="2.40"/>
<path d="M 231.8 20.3 L 231.6 22.3" stroke-width="2.00"/>
<path d="M 231.6 22.3 L 231.3 24.6" stroke-width="1.60"/>
<path d="M 231.3 24.6 L 231.0 26.9 L 230.8 29.0 L 230.7 30.8 L 230.7 32.2" stroke-width="1.40"/>
<path d="M 230.7 32.2 L 230.8 33.1" stroke-width="1.60"/>
<path d="M 230.8 33.1 L 230.9 33.4" stroke-width="1.80"/>
<path d="M 230.9 33.4 L 231.1 33.2" stroke-width="2.20"/>
<path d="M 231.1 33.2 L 231.2 32.8" stroke-width="2.40"/>
<path d="M 231.2 32.8 L 231.3 32.3" stroke-width="2.00"/>
<circle cx="234.0" cy="10.8" r="0.63" fill="currentColor" stroke="none"/>
<path d="M 234.0 10.8 L 234.0 10.8" stroke-width="1.60"/>
<path d="M 234.0 10.8 L 234.1 10.9 L 234.1 10.9" stroke-width="2.40"/>
<path d="M 234.1 10.9 L 234.2 11.0" stroke-width="2.00"/>
<circle cx="238.6" cy="15.9" r="0.63" fill="currentColor" stroke="none"/>
<path d="M 238.6 15.9 L 238.6 16.0" stroke-width="1.60"/>
<path d="M 238.6 16.0 L 238.7 16.3" stroke-width="2.40"/>
<path d="M 238.7 16.3 L 238.7 17.0" stroke-width="2.60"/>
<path d="M 238.7 17.0 L 238.5 18.3" stroke-width="2.40"/>
<path d="M 238.5 18.3 L 238.2 20.0" stroke-width="2.00"/>
<path d="M 238.2 20.0 L 237.6 22.2" stroke-width="1.80"/>
<path d="M 237.6 22.2 L 237.0 24.5" stroke-width="1.60"/>
<path d="M 237.0 24.5 L 236.4 26.8 L 235.9 29.0 L 235.6 30.7 L 235.5 32.0" stroke-width="1.40"/>
<path d="M 235.5 32.0 L 235.5 32.8" stroke-width="1.60"/>
<path d="M 235.5 32.8 L 235.5 33.0" stroke-width="2.00"/>
<path d="M 235.5 33.0 L 235.6 32.7 L 235.8 31.8" stroke-width="2.40"/>
<path d="M 235.8 31.8 L 236.2 30.2" stroke-width="2.20"/>
<path d="M 236.2 30.2 L 236.8 28.0" stroke-width="1.80"/>
<path d="M 236.8 28.0 L 237.7 25.5" stroke-width="1.60"/>
<path d="M 237.7 25.5 L 238.9 23.0" stroke-width="1.40"/>
<path d="M 238.9 23.0 L 240.4 20.8 L 242.0 19.0 L 243.6 17.7 L 245.0 16.9" stroke-width="1.20"/>
<path d="M 245.0 16.9 L 246.2 16.8" stroke-width="1.40"/>
<path d="M 246.2 16.8 L 247.0 17.3 L 247.5 18.6 L 247.6 20.4 L 247.4 22.6" stroke-width="1.60"/>
<path d="M 247.4 22.6 L 247.0 25.0" stroke-width="1.40"/>
<path d="M 247.0 25.0 L 246.5 27.3 L 246.0 29.4" stroke-width="1.20"/>
<path d="M 246.0 29.4 L 245.7 30.9 L 245.6 31.9" stroke-width="1.40"/>
<path d="M 245.6 31.9 L 245.8 32.4" stroke-width="1.80"/>
<path d="M 245.8 32.4 L 246.0 32.4 L 246.2 32.2" stroke-width="2.00"/>
<circle cx="257.4" cy="18.6" r="0.63" fill="currentColor" stroke="none"/>
<path d="M 257.4 18.6 L 257.5 18.2" stroke-width="1.60"/>
<path d="M 257.5 18.2 L 257.6 17.6" stroke-width="2.20"/>
<path d="M 257.6 17.6 L 257.6 17.0" stroke-width="2.40"/>
<path d="M 257.6 17.0 L 257.4 16.4 L 256.9 16.0 L 256.2 15.9 L 255.3 16.1" stroke-width="2.60"/>
<path d="M 255.3 16.1 L 254.2 16.7" stroke-width="2.40"/>
<path d="M 254.2 16.7 L 253.1 17.9" stroke-width="2.00"/>
<path d="M 253.1 17.9 L 252.0 19.6" stroke-width="1.80"/>
<path d="M 252.0 19.6 L 251.2 21.6" stroke-width="1.60"/>
<path d="M 251.2 21.6 L 250.8 23.7 L 250.7 25.6 L 251.1 27.2" stroke-width="1.40"/>
<path d="M 251.1 27.2 L 251.8 28.1 L 252.8 28.4" stroke-width="1.60"/>
<path d="M 252.8 28.4 L 254.1 28.0" stroke-width="1.80"/>
<path d="M 254.1 28.0 L 255.5 26.9 L 256.9 25.2" stroke-width="1.60"/>
<path d="M 256.9 25.2 L 258.1 23.2 L 259.2 21.1 L 260.0 19.4 L 260.5 18.2" stroke-width="1.40"/>
<path d="M 260.5 18.2 L 260.7 17.5" stroke-width="1.60"/>
<path d="M 260.7 17.5 L 260.7 17.5" stroke-width="2.00"/>
<path d="M 260.7 17.5 L 260.6 18.0 L 260.3 19.3" stroke-width="2.40"/>
<path d="M 260.3 19.3 L 259.9 21.1" stroke-width="2.00"/>
<path d="M 259.9 21.1 L 259.5 23.4" stroke-width="1.60"/>
<path d="M 259.5 23.4 L 259.1 26.0" stroke-width="1.40"/>
<path d="M 259.1 26.0 L 258.7 28.8 L 258.3 31.6 L 257.9 34.4" stroke-width="1.20"/>
<path d="M 257.9 34.4 L 257.3 37.0 L 256.7 39.4" stroke-width="1.00"/>
<path d="M 256.7 39.4 L 255.8 41.4 L 254.8 43.1 L 253.7 44.4" stroke-width="1.20"/>
<path d="M 253.7 44.4 L 252.4 45.4 L 251.0 45.9" stroke-width="1.40"/>
<path d="M 251.0 45.9 L 249.6 46.1 L 248.2 45.9 L 246.9 45.5 L 245.8 44.7 L 244.8 43.7" stroke-width="1.60"/>
<path d="M 244.8 43.7 L 244.2 42.6 L 244.0 41.4 L 244.2 40.0 L 244.8 38.7" stroke-width="1.80"/>
<path d="M 244.8 38.7 L 245.8 37.3 L 247.1 36.1 L 248.6 35.1 L 250.3 34.2" stroke-width="1.60"/>
<path d="M 250.3 34.2 L 251.9 33.6" stroke-width="1.40"/>
<path d="M 251.9 33.6 L 253.3 33.2 L 254.4 33.0" stroke-width="1.60"/>
<path d="M 254.4 33.0 L 255.2 32.9" stroke-width="1.80"/>
<path d="M 255.2 32.9 L 255.6 32.9" stroke-width="2.00"/>
<path d="M 255.6 32.9 L 255.8 33.0" stroke-width="2.40"/>
<path d="M 255.8 33.0 L 255.9 33.1 L 255.8 33.1 L 255.8 33.2 L 255.8 33.2" stroke-width="2.60"/>
<path d="M 255.8 33.2 L 255.8 33.3" stroke-width="2.40"/>
<path d="M 255.8 33.3 L 255.8 33.3" stroke-width="2.00"/>
<circle cx="283.2" cy="17.2" r="0.63" fill="currentColor" stroke="none"/>
<path d="M 283.2 17.2 L 283.1 16.8" stroke-width="1.60"/>
<path d="M 283.1 16.8 L 282.9 16.2" stroke-width="2.00"/>
<path d="M 282.9 16.2 L 282.4 15.5 L 281.8 15.1 L 281.0 14.9 L 279.9 15.1" stroke-width="2.40"/>
<path d="M 279.9 15.1 L 278.5 15.8" stroke-width="2.20"/>
<path d="M 278.5 15.8 L 277.1 16.9" stroke-width="1.80"/>
<path d="M 277.1 16.9 L 275.6 18.6" stroke-width="1.60"/>
<path d="M 275.6 18.6 L 274.2 20.8" stroke-width="1.40"/>
<path d="M 274.2 20.8 L 273.1 23.2 L 272.3 25.7 L 271.9 28.0 L 271.9 29.8" stroke-width="1.20"/>
<path d="M 271.9 29.8 L 272.4 30.9" stroke-width="1.40"/>
<path d="M 272.4 30.9 L 273.2 31.4" stroke-width="1.60"/>
<path d="M 273.2 31.4 L 274.2 31.2 L 275.4 30.2" stroke-width="1.80"/>
<path d="M 275.4 30.2 L 276.7 28.6" stroke-width="1.60"/>
<path d="M 276.7 28.6 L 278.0 26.5 L 279.4 24.2" stroke-width="1.40"/>
<path d="M 279.4 24.2 L 280.6 21.8 L 281.6 19.8 L 282.4 18.2" stroke-width="1.20"/>
<path d="M 282.4 18.2 L 282.8 17.2" stroke-width="1.40"/>
<path d="M 282.8 17.2 L 283.0 16.8" stroke-width="1.60"/>
<path d="M 283.0 16.8 L 283.0 17.0" stroke-width="2.00"/>
<path d="M 283.0 17.0 L 282.8 17.8 L 282.4 19.3" stroke-width="2.20"/>
<path d="M 282.4 19.3 L 282.0 21.5" stroke-width="1.80"/>
<path d="M 282.0 21.5 L 281.5 23.9" stroke-width="1.60"/>
<path d="M 281.5 23.9 L 281.1 26.4" stroke-width="1.40"/>
<path d="M 281.1 26.4 L 280.9 28.6" stroke-width="1.20"/>
<path d="M 280.9 28.6 L 281.0 30.2 L 281.2 31.1 L 281.4 31.6" stroke-width="1.40"/>
<circle cx="293.2" cy="15.4" r="0.63" fill="currentColor" stroke="none"/>
<path d="M 293.2 15.4 L 293.1 15.1" stroke-width="1.60"/>
<path d="M 293.1 15.1 L 292.7 14.7" stroke-width="2.20"/>
<path d="M 292.7 14.7 L 292.2 14.5 L 291.4 14.5 L 290.6 14.9" stroke-width="2.60"/>
<path d="M 290.6 14.9 L 289.8 15.7" stroke-width="2.40"/>
<path d="M 289.8 15.7 L 289.1 16.7" stroke-width="2.20"/>
<path d="M 289.1 16.7 L 288.7 18.0 L 288.7 19.5" stroke-width="2.00"/>
<path d="M 288.7 19.5 L 289.0 21.1" stroke-width="1.80"/>
<path d="M 289.0 21.1 L 289.6 22.7 L 290.3 24.3 L 291.0 25.8 L 291.6 27.1 L 291.8 28.3" stroke-width="1.60"/>
<path d="M 291.8 28.3 L 291.7 29.2" stroke-width="1.80"/>
<path d="M 291.7 29.2 L 291.2 29.9 L 290.3 30.5 L 289.3 30.9 L 288.3 31.1 L 287.2 31.1 L 286.3 30.9 L 285.7 30.6 L 285.3 30.4" stroke-width="2.00"/>
<circle cx="307.8" cy="15.8" r="0.63" fill="currentColor" stroke="none"/>
<path d="M 307.8 15.8 L 307.8 15.7" stroke-width="1.60"/>
<path d="M 307.8 15.7 L 307.8 15.7" stroke-width="2.40"/>
<path d="M 307.8 15.7 L 307.9 15.9 L 307.9 16.5 L 307.9 17.5" stroke-width="2.60"/>
<path d="M 307.9 17.5 L 307.7 19.1" stroke-width="2.40"/>
<path d="M 307.7 19.1 L 307.4 21.2" stroke-width="2.00"/>
<path d="M 307.4 21.2 L 307.0 23.6" stroke-width="1.60"/>
<path d="M 307.0 23.6 L 306.7 26.0 L 306.4 28.3" stroke-width="1.40"/>
<path d="M 306.4 28.3 L 306.2 30.3" stroke-width="1.20"/>
<path d="M 306.2 30.3 L 306.2 31.9" stroke-width="1.40"/>
<path d="M 306.2 31.9 L 306.3 32.8" stroke-width="1.60"/>
<path d="M 306.3 32.8 L 306.5 33.0" stroke-width="1.80"/>
<path d="M 306.5 33.0 L 306.8 32.9 L 306.9 32.5" stroke-width="2.00"/>
<circle cx="310.2" cy="7.6" r="0.63" fill="currentColor" stroke="none"/>
<path d="M 310.2 7.6 L 310.2 7.5" stroke-width="1.60"/>
<path d="M 310.2 7.5 L 310.2 7.4 L 310.1 7.4" stroke-width="2.40"/>
<path d="M 310.1 7.4 L 310.1 7.4" stroke-width="2.00"/>
<circle cx="318.7" cy="7.0" r="0.63" fill="currentColor" stroke="none"/>
<path d="M 318.7 7.0 L 318.4 7.6" stroke-width="1.60"/>
<path d="M 318.4 7.6 L 318.0 8.8 L 317.4 10.7" stroke-width="1.80"/>
<path d="M 317.4 10.7 L 316.7 13.1" stroke-width="1.60"/>
<path d="M 316.7 13.1 L 316.0 15.8" stroke-width="1.40"/>
<path d="M 316.0 15.8 L 315.4 18.8" stroke-width="1.20"/>
<path d="M 315.4 18.8 L 314.7 21.9 L 314.2 24.8 L 313.7 27.5 L 313.4 29.7" stroke-width="1.00"/>
<path d="M 313.4 29.7 L 313.2 31.3" stroke-width="1.20"/>
<path d="M 313.2 31.3 L 313.2 32.2" stroke-width="1.40"/>
<path d="M 313.2 32.2 L 313.1 32.5" stroke-width="1.60"/>
<path d="M 313.1 32.5 L 313.2 32.1" stroke-width="2.00"/>
<path d="M 313.2 32.1 L 313.3 31.5" stroke-width="2.20"/>
<path d="M 313.3 31.5 L 313.3 30.9" stroke-width="2.00"/>
<circle cx="312.8" cy="19.4" r="0.63" fill="currentColor" stroke="none"/>
<path d="M 312.8 19.4 L 312.8 19.4" stroke-width="1.60"/>
<path d="M 312.8 19.4 L 313.0 19.3" stroke-width="2.40"/>
<path d="M 313.0 19.3 L 313.5 19.2 L 314.5 19.0" stroke-width="2.60"/>
<path d="M 314.5 19.0 L 315.9 18.8" stroke-width="2.40"/>
<path d="M 315.9 18.8 L 317.6 18.5" stroke-width="2.00"/>
<path d="M 317.6 18.5 L 319.3 18.2" stroke-width="1.80"/>
<path d="M 319.3 18.2 L 321.0 17.9 L 322.5 17.7 L 323.6 17.5" stroke-width="1.60"/>
<path d="M 323.6 17.5 L 324.4 17.4" stroke-width="1.80"/>
<path d="M 324.4 17.4 L 324.8 17.4" stroke-width="2.20"/>
<path d="M 324.8 17.4 L 324.9 17.4 L 324.9 17.4" stroke-width="2.40"/>
<path d="M 324.9 17.4 L 324.9 17.5" stroke-width="2.00"/>
<circle cx="339.8" cy="18.6" r="0.63" fill="currentColor" stroke="none"/>
<path d="M 339.8 18.6 L 339.8 18.2" stroke-width="1.60"/>
<path d="M 339.8 18.2 L 339.8 17.4" stroke-width="2.00"/>
<path d="M 339.8 17.4 L 339.6 16.6" stroke-width="2.20"/>
<path d="M 339.6 16.6 L 339.3 15.9 L 338.8 15.5 L 337.9 15.5 L 336.8 15.9" stroke-width="2.40"/>
<path d="M 336.8 15.9 L 335.5 16.8" stroke-width="2.00"/>
<path d="M 335.5 16.8 L 334.2 18.3" stroke-width="1.80"/>
<path d="M 334.2 18.3 L 333.0 20.2" stroke-width="1.60"/>
<path d="M 333.0 20.2 L 332.1 22.5 L 331.5 24.9" stroke-width="1.40"/>
<path d="M 331.5 24.9 L 331.3 27.1 L 331.4 28.9" stroke-width="1.20"/>
<path d="M 331.4 28.9 L 332.0 30.1" stroke-width="1.40"/>
<path d="M 332.0 30.1 L 332.8 30.7 L 333.9 30.6" stroke-width="1.60"/>
<path d="M 333.9 30.6 L 335.1 29.8" stroke-width="1.80"/>
<path d="M 335.1 29.8 L 336.4 28.3" stroke-width="1.60"/>
<path d="M 336.4 28.3 L 337.7 26.2 L 338.9 23.8" stroke-width="1.40"/>
<path d="M 338.9 23.8 L 340.0 21.4 L 340.8 19.5 L 341.3 18.0" stroke-width="1.20"/>
<path d="M 341.3 18.0 L 341.6 17.2" stroke-width="1.40"/>
<path d="M 341.6 17.2 L 341.7 16.8" stroke-width="1.80"/>
<path d="M 341.7 16.8 L 341.6 17.0" stroke-width="2.20"/>
<path d="M 341.6 17.0 L 341.4 17.8" stroke-width="2.40"/>
<path d="M 341.4 17.8 L 341.1 19.2" stroke-width="2.20"/>
<path d="M 341.1 19.2 L 340.7 21.2" stroke-width="2.00"/>
<path d="M 340.7 21.2 L 340.3 23.7" stroke-width="1.60"/>
<path d="M 340.3 23.7 L 339.9 26.6" stroke-width="1.40"/>
<path d="M 339.9 26.6 L 339.6 29.6" stroke-width="1.20"/>
<path d="M 339.6 29.6 L 339.3 32.8 L 338.9 35.9 L 338.5 38.9 L 338.0 41.5 L 337.4 43.8" stroke-width="1.00"/>
<path d="M 337.4 43.8 L 336.6 45.5 L 335.8 46.7" stroke-width="1.20"/>
<path d="M 335.8 46.7 L 335.0 47.4" stroke-width="1.40"/>
<path d="M 335.0 47.4 L 334.1 47.5" stroke-width="1.60"/>
<path d="M 334.1 47.5 L 333.2 47.2 L 332.3 46.4 L 331.5 45.2 L 330.9 43.7" stroke-width="1.80"/>
<path d="M 330.9 43.7 L 330.5 41.9 L 330.5 40.0" stroke-width="1.60"/>
<path d="M 330.5 40.0 L 330.8 38.1 L 331.5 36.2 L 332.6 34.3 L 333.9 32.5" stroke-width="1.40"/>
<path d="M 333.9 32.5 L 335.5 30.8 L 337.2 29.2 L 339.1 27.7 L 341.0 26.5 L 342.8 25.3 L 344.4 24.2" stroke-width="1.20"/>
<path d="M 344.4 24.2 L 345.8 23.3 L 347.0 22.4 L 348.0 21.5" stroke-width="1.40"/>
<path d="M 348.0 21.5 L 348.8 20.7" stroke-width="1.60"/>
<path d="M 348.8 20.7 L 349.5 20.0" stroke-width="1.80"/>
<path d="M 349.5 20.0 L 349.9 19.4" stroke-width="2.00"/>
<path d="M 349.9 19.4 L 350.1 19.0" stroke-width="2.20"/>
<path d="M 350.1 19.0 L 350.2 18.7" stroke-width="2.40"/>
<path d="M 350.2 18.7 L 350.0 18.5 L 349.7 18.5 L 349.1 18.6 L 348.2 18.9" stroke-width="2.60"/>
<path d="M 348.2 18.9 L 347.1 19.5" stroke-width="2.40"/>
<path d="M 347.1 19.5 L 345.8 20.5" stroke-width="2.20"/>
<path d="M 345.8 20.5 L 344.5 21.8" stroke-width="1.80"/>
<path d="M 344.5 21.8 L 343.3 23.4 L 342.3 25.2" stroke-width="1.60"/>
<path d="M 342.3 25.2 L 341.7 27.0 L 341.5 28.5" stroke-width="1.40"/>
<path d="M 341.5 28.5 L 341.8 29.7" stroke-width="1.60"/>
<path d="M 341.8 29.7 L 342.6 30.3 L 343.7 30.3 L 345.1 29.7 L 346.5 28.7" stroke-width="1.80"/>
<path d="M 346.5 28.7 L 348.0 27.2" stroke-width="1.60"/>
<path d="M 348.0 27.2 L 349.2 25.5 L 350.1 23.6 L 350.6 21.9 L 350.7 20.4" stroke-width="1.40"/>
<path d="M 350.7 20.4 L 350.5 19.3" stroke-width="1.60"/>
<path d="M 350.5 19.3 L 350.2 18.5" stroke-width="1.80"/>
<path d="M 350.2 18.5 L 349.9 18.1" stroke-width="2.00"/>
<path d="M 349.9 18.1 L 349.8 18.0" stroke-width="2.40"/>
<path d="M 349.8 18.0 L 349.8 18.2 L 350.1 18.5 L 350.8 18.8 L 352.0 19.1" stroke-width="2.60"/>
<path d="M 352.0 19.1 L 353.5 19.2" stroke-width="2.20"/>
<path d="M 353.5 19.2 L 355.2 19.1" stroke-width="2.00"/>
<path d="M 355.2 19.1 L 357.0 18.7" stroke-width="1.80"/>
<path d="M 357.0 18.7 L 358.7 18.0 L 360.2 17.2 L 361.2 16.4 L 361.9 15.5" stroke-width="1.60"/>
<path d="M 361.9 15.5 L 362.1 14.8" stroke-width="1.80"/>
<path d="M 362.1 14.8 L 361.9 14.3" stroke-width="2.20"/>
<path d="M 361.9 14.3 L 361.4 14.1 L 360.4 14.2" stroke-width="2.40"/>
<path d="M 360.4 14.2 L 359.1 14.8" stroke-width="2.20"/>
<path d="M 359.1 14.8 L 357.5 15.9" stroke-width="2.00"/>
<path d="M 357.5 15.9 L 355.8 17.4" stroke-width="1.60"/>
<path d="M 355.8 17.4 L 354.3 19.3 L 353.1 21.4" stroke-width="1.40"/>
<path d="M 353.1 21.4 L 352.3 23.4 L 352.1 25.3" stroke-width="1.20"/>
<path d="M 352.1 25.3 L 352.5 26.8 L 353.5 27.9" stroke-width="1.40"/>
<path d="M 353.5 27.9 L 354.9 28.5 L 356.7 28.5" stroke-width="1.60"/>
<path d="M 356.7 28.5 L 358.6 28.0 L 360.5 27.0 L 362.3 25.6" stroke-width="1.40"/>
<path d="M 362.3 25.6 L 363.8 23.9 L 365.1 22.1 L 366.1 20.3" stroke-width="1.20"/>
<path d="M 366.1 20.3 L 366.9 18.6 L 367.5 17.3" stroke-width="1.40"/>
<path d="M 367.5 17.3 L 368.0 16.4" stroke-width="1.60"/>
<path d="M 368.0 16.4 L 368.2 15.9" stroke-width="1.80"/>
<path d="M 368.2 15.9 L 368.3 15.7" stroke-width="2.20"/>
<path d="M 368.3 15.7 L 368.3 15.9" stroke-width="2.40"/>
<path d="M 368.3 15.9 L 368.2 16.5 L 367.9 17.4" stroke-width="2.60"/>
<path d="M 367.9 17.4 L 367.6 18.6" stroke-width="2.40"/>
<path d="M 367.6 18.6 L 367.3 20.0" stroke-width="2.20"/>
<path d="M 367.3 20.0 L 367.1 21.6" stroke-width="2.00"/>
<path d="M 367.1 21.6 L 366.8 23.1 L 366.7 24.5 L 366.5 25.8 L 366.2 26.9 L 365.9 27.8" stroke-width="1.80"/>
<path d="M 365.9 27.8 L 365.4 28.5" stroke-width="2.00"/>
<path d="M 365.4 28.5 L 364.9 29.0 L 364.2 29.2" stroke-width="2.20"/>
<path d="M 364.2 29.2 L 363.5 29.3 L 362.7 29.1 L 361.8 28.8 L 361.1 28.4" stroke-width="2.40"/>
<path d="M 361.1 28.4 L 360.5 27.9" stroke-width="2.20"/>
<path d="M 360.5 27.9 L 360.1 27.6" stroke-width="2.00"/>
</svg>
