<svg xmlns="http://www.w3.org/2000/svg" viewBox="0 0 368.4 52.6" fill="none" stroke="currentColor" stroke-linecap="round" stroke-linejoin="round" role="img">
<circle cx="14.5" cy="23.0" r="0.77" fill="currentColor" stroke="none"/>
<path d="M 14.5 23.0 L 14.6 22.7" stroke-width="2.00"/>
<path d="M 14.6 22.7 L 14.6 22.2" stroke-width="2.60"/>
<path d="M 14.6 22.2 L 14.6 21.5 L 14.5 20.9" stroke-width="3.00"/>
<path d="M 14.5 20.9 L 14.3 20.2 L 13.9 19.6 L 13.5 19.1 L 13.0 18.8 L 12.4 18.8 L 11.6 19.2" stroke-width="3.20"/>
<path d="M 11.6 19.2 L 10.6 20.1" stroke-width="3.00"/>
<path d="M 10.6 20.1 L 9.5 21.5" stroke-width="2.40"/>
<path d="M 9.5 21.5 L 8.4 23.6" stroke-width="2.00"/>
<path d="M 8.4 23.6 L 7.3 26.2" stroke-width="1.80"/>
<path d="M 7.3 26.2 L 6.5 28.9" stroke-width="1.60"/>
<path d="M 6.5 28.9 L 6.1 31.5 L 6.0 33.6" stroke-width="1.40"/>
<path d="M 6.0 33.6 L 6.2 35.1" stroke-width="1.60"/>
<path d="M 6.2 35.1 L 6.7 35.9" stroke-width="1.80"/>
<path d="M 6.7 35.9 L 7.4 36.0" stroke-width="2.00"/>
<path d="M 7.4 36.0 L 8.3 35.3 L 9.4 33.8" stroke-width="2.20"/>
<path d="M 9.4 33.8 L 10.7 31.8" stroke-width="2.00"/>
<path d="M 10.7 31.8 L 12.1 29.3" stroke-width="1.60"/>
<path d="M 12.1 29.3 L 13.5 26.9 L 14.8 24.6 L 15.9 22.9" stroke-width="1.40"/>
<path d="M 15.9 22.9 L 16.6 21.6" stroke-width="1.60"/>
<path d="M 16.6 21.6 L 17.1 20.9" stroke-width="1.80"/>
<path d="M 17.1 20.9 L 17.3 20.6" stroke-width="2.20"/>
<path d="M 17.3 20.6 L 17.2 20.9" stroke-width="2.60"/>
<path d="M 17.2 20.9 L 16.9 21.9" stroke-width="2.80"/>
<path d="M 16.9 21.9 L 16.5 23.6" stroke-width="2.60"/>
<path d="M 16.5 23.6 L 16.0 25.9" stroke-width="2.20"/>
<path d="M 16.0 25.9 L 15.6 28.5" stroke-width="1.80"/>
<path d="M 15.6 28.5 L 15.4 31.0 L 15.4 33.3 L 15.8 35.0 L 16.5 36.1" stroke-width="1.60"/>
<path d="M 16.5 36.1 L 17.5 36.5" stroke-width="1.80"/>
<path d="M 17.5 36.5 L 18.8 36.2 L 20.3 35.2" stroke-width="2.00"/>
<path d="M 20.3 35.2 L 21.5 34.2" stroke-width="1.80"/>
<path d="M 21.5 34.2 L 22.4 33.4" stroke-width="1.60"/>
<circle cx="35.4" cy="10.4" r="0.77" fill="currentColor" stroke="none"/>
<path d="M 35.4 10.4 L 35.4 10.4" stroke-width="2.00"/>
<path d="M 35.4 10.4 L 35.3 10.5" stroke-width="2.80"/>
<path d="M 35.3 10.5 L 35.2 11.1 L 35.0 12.1" stroke-width="3.20"/>
<path d="M 35.0 12.1 L 34.7 13.8" stroke-width="2.80"/>
<path d="M 34.7 13.8 L 34.2 16.1" stroke-width="2.20"/>
<path d="M 34.2 16.1 L 33.7 18.9" stroke-width="1.80"/>
<path d="M 33.7 18.9 L 33.2 21.9" stroke-width="1.60"/>
<path d="M 33.2 21.9 L 32.7 25.0" stroke-width="1.40"/>
<path d="M 32.7 25.0 L 32.5 28.0 L 32.4 30.6" stroke-width="1.20"/>
<path d="M 32.4 30.6 L 32.6 32.7 L 33.0 34.1" stroke-width="1.40"/>
<path d="M 33.0 34.1 L 33.6 34.8" stroke-width="1.60"/>
<path d="M 33.6 34.8 L 34.1 34.9 L 34.5 34.9" stroke-width="1.80"/>
<circle cx="41.4" cy="19.0" r="0.77" fill="currentColor" stroke="none"/>
<path d="M 41.4 19.0 L 41.4 18.9" stroke-width="2.00"/>
<path d="M 41.4 18.9 L 41.3 19.0" stroke-width="2.80"/>
<path d="M 41.3 19.0 L 41.2 19.6" stroke-width="3.20"/>
<path d="M 41.2 19.6 L 40.9 20.9" stroke-width="3.00"/>
<path d="M 40.9 20.9 L 40.4 22.8" stroke-width="2.60"/>
<path d="M 40.4 22.8 L 39.9 25.3" stroke-width="2.00"/>
<path d="M 39.9 25.3 L 39.3 28.0" stroke-width="1.80"/>
<path d="M 39.3 28.0 L 38.8 30.7" stroke-width="1.60"/>
<path d="M 38.8 30.7 L 38.5 32.9" stroke-width="1.40"/>
<path d="M 38.5 32.9 L 38.3 34.7 L 38.2 35.8 L 38.2 36.2" stroke-width="1.60"/>
<circle cx="42.4" cy="14.2" r="0.77" fill="currentColor" stroke="none"/>
<path d="M 42.4 14.2 L 42.3 13.9" stroke-width="2.00"/>
<path d="M 42.3 13.9 L 42.3 13.6" stroke-width="2.80"/>
<path d="M 42.3 13.6 L 42.3 13.3 L 42.3 13.2 L 42.4 13.1 L 42.5 13.2" stroke-width="3.20"/>
<path d="M 42.5 13.2 L 42.6 13.3" stroke-width="3.00"/>
<path d="M 42.6 13.3 L 42.7 13.3" stroke-width="2.60"/>
<circle cx="46.1" cy="16.3" r="0.77" fill="currentColor" stroke="none"/>
<path d="M 46.1 16.3 L 46.0 16.6" stroke-width="2.00"/>
<path d="M 46.0 16.6 L 45.9 17.4 L 45.7 18.7" stroke-width="2.60"/>
<path d="M 45.7 18.7 L 45.4 20.6" stroke-width="2.40"/>
<path d="M 45.4 20.6 L 45.0 22.9" stroke-width="2.00"/>
<path d="M 45.0 22.9 L 44.5 25.4" stroke-width="1.80"/>
<path d="M 44.5 25.4 L 44.0 28.1" stroke-width="1.60"/>
<path d="M 44.0 28.1 L 43.5 30.5 L 43.2 32.5" stroke-width="1.40"/>
<path d="M 43.2 32.5 L 43.0 33.9" stroke-width="1.60"/>
<path d="M 43.0 33.9 L 43.1 34.6" stroke-width="1.80"/>
<path d="M 43.1 34.6 L 43.2 34.7" stroke-width="2.20"/>
<path d="M 43.2 34.7 L 43.6 34.0" stroke-width="2.60"/>
<path d="M 43.6 34.0 L 44.2 32.4" stroke-width="2.40"/>
<path d="M 44.2 32.4 L 45.0 30.2" stroke-width="2.20"/>
<path d="M 45.0 30.2 L 46.0 27.5" stroke-width="1.80"/>
<path d="M 46.0 27.5 L 47.2 24.8" stroke-width="1.60"/>
<path d="M 47.2 24.8 L 48.6 22.2 L 50.0 20.1 L 51.4 18.5 L 52.7 17.3" stroke-width="1.40"/>
<path d="M 52.7 17.3 L 53.7 16.8" stroke-width="1.60"/>
<path d="M 53.7 16.8 L 54.4 16.9" stroke-width="1.80"/>
<path d="M 54.4 16.9 L 54.8 17.7 L 54.9 19.4" stroke-width="2.20"/>
<path d="M 54.9 19.4 L 54.6 21.7" stroke-width="2.00"/>
<path d="M 54.6 21.7 L 54.1 24.4 L 53.5 27.2" stroke-width="1.60"/>
<path d="M 53.5 27.2 L 52.9 29.6 L 52.6 31.6" stroke-width="1.40"/>
<path d="M 52.6 31.6 L 52.4 32.9" stroke-width="1.60"/>
<path d="M 52.4 32.9 L 52.3 33.6" stroke-width="1.80"/>
<path d="M 52.3 33.6 L 52.4 33.6" stroke-width="2.40"/>
<path d="M 52.4 33.6 L 52.5 33.2" stroke-width="2.60"/>
<path d="M 52.5 33.2 L 52.6 32.9" stroke-width="2.40"/>
<circle cx="56.0" cy="25.4" r="0.77" fill="currentColor" stroke="none"/>
<path d="M 56.0 25.4 L 56.5 25.2" stroke-width="1.80"/>
<path d="M 56.5 25.2 L 57.5 24.8 L 58.9 24.1" stroke-width="2.40"/>
<path d="M 58.9 24.1 L 60.4 23.1" stroke-width="2.20"/>
<path d="M 60.4 23.1 L 61.9 21.9" stroke-width="2.00"/>
<path d="M 61.9 21.9 L 63.2 20.5 L 64.4 19.1 L 65.2 17.8" stroke-width="1.80"/>
<path d="M 65.2 17.8 L 65.8 16.7 L 66.0 15.8" stroke-width="2.00"/>
<path d="M 66.0 15.8 L 65.7 15.2" stroke-width="2.40"/>
<path d="M 65.7 15.2 L 65.0 15.0 L 63.9 15.3" stroke-width="2.60"/>
<path d="M 63.9 15.3 L 62.5 16.2" stroke-width="2.40"/>
<path d="M 62.5 16.2 L 60.9 17.8" stroke-width="2.00"/>
<path d="M 60.9 17.8 L 59.4 19.9" stroke-width="1.80"/>
<path d="M 59.4 19.9 L 58.2 22.5" stroke-width="1.60"/>
<path d="M 58.2 22.5 L 57.4 25.1 L 57.1 27.6 L 57.4 29.6" stroke-width="1.40"/>
<path d="M 57.4 29.6 L 58.3 31.0 L 59.6 31.7" stroke-width="1.60"/>
<path d="M 59.6 31.7 L 61.3 31.7 L 63.2 31.0" stroke-width="1.80"/>
<path d="M 63.2 31.0 L 65.2 29.9 L 67.1 28.4" stroke-width="1.60"/>
<path d="M 67.1 28.4 L 68.6 27.0" stroke-width="1.40"/>
<path d="M 68.6 27.0 L 69.5 26.1" stroke-width="1.20"/>
<circle cx="85.0" cy="15.2" r="0.77" fill="currentColor" stroke="none"/>
<path d="M 85.0 15.2 L 85.0 15.0" stroke-width="2.00"/>
<path d="M 85.0 15.0 L 84.8 14.7" stroke-width="2.80"/>
<path d="M 84.8 14.7 L 84.6 14.5 L 84.2 14.6 L 83.6 15.2" stroke-width="3.20"/>
<path d="M 83.6 15.2 L 82.8 16.4" stroke-width="3.00"/>
<path d="M 82.8 16.4 L 81.8 18.3" stroke-width="2.40"/>
<path d="M 81.8 18.3 L 80.9 20.7" stroke-width="2.00"/>
<path d="M 80.9 20.7 L 80.0 23.5" stroke-width="1.60"/>
<path d="M 80.0 23.5 L 79.4 26.4 L 79.2 29.0 L 79.2 31.1" stroke-width="1.40"/>
<path d="M 79.2 31.1 L 79.7 32.5" stroke-width="1.60"/>
<path d="M 79.7 32.5 L 80.3 33.1" stroke-width="1.80"/>
<path d="M 80.3 33.1 L 81.2 32.9" stroke-width="2.00"/>
<path d="M 81.2 32.9 L 82.1 32.0" stroke-width="2.20"/>
<path d="M 82.1 32.0 L 83.0 30.4" stroke-width="2.00"/>
<path d="M 83.0 30.4 L 83.9 28.3" stroke-width="1.80"/>
<path d="M 83.9 28.3 L 84.7 25.9 L 85.2 23.4 L 85.6 21.3 L 85.8 19.4 L 85.8 17.9" stroke-width="1.60"/>
<path d="M 85.8 17.9 L 85.7 16.7" stroke-width="1.80"/>
<path d="M 85.7 16.7 L 85.5 15.9" stroke-width="2.00"/>
<path d="M 85.5 15.9 L 85.3 15.3" stroke-width="2.20"/>
<path d="M 85.3 15.3 L 85.0 15.1" stroke-width="2.60"/>
<path d="M 85.0 15.1 L 84.9 15.0" stroke-width="3.00"/>
<path d="M 84.9 15.0 L 84.9 15.1 L 85.1 15.3 L 85.6 15.5 L 86.4 15.6 L 87.5 15.4" stroke-width="3.20"/>
<path d="M 87.5 15.4 L 88.9 15.0" stroke-width="2.80"/>
<path d="M 88.9 15.0 L 90.5 14.2" stroke-width="2.40"/>
<path d="M 90.5 14.2 L 92.1 13.2" stroke-width="2.20"/>
<path d="M 92.1 13.2 L 93.6 12.0" stroke-width="2.00"/>
<path d="M 93.6 12.0 L 95.0 10.7 L 96.0 9.4 L 96.8 8.2" stroke-width="1.80"/>
<path d="M 96.8 8.2 L 97.2 7.2" stroke-width="2.00"/>
<path d="M 97.2 7.2 L 97.2 6.4" stroke-width="2.20"/>
<path d="M 97.2 6.4 L 96.8 6.0" stroke-width="2.40"/>
<path d="M 96.8 6.0 L 96.2 6.1 L 95.3 6.7" stroke-width="2.80"/>
<path d="M 95.3 6.7 L 94.3 8.0" stroke-width="2.60"/>
<path d="M 94.3 8.0 L 93.3 10.0" stroke-width="2.20"/>
<path d="M 93.3 10.0 L 92.3 12.6" stroke-width="1.80"/>
<path d="M 92.3 12.6 L 91.5 15.5" stroke-width="1.60"/>
<path d="M 91.5 15.5 L 90.7 18.8" stroke-width="1.40"/>
<path d="M 90.7 18.8 L 90.1 22.2 L 89.8 25.7 L 89.6 29.2 L 89.5 32.5 L 89.5 35.3 L 89.6 37.5" stroke-width="1.20"/>
<path d="M 89.6 37.5 L 89.7 38.8" stroke-width="1.40"/>
<path d="M 89.7 38.8 L 89.9 39.3" stroke-width="1.60"/>
<path d="M 89.9 39.3 L 90.0 39.4 L 90.2 39.2" stroke-width="2.00"/>
<circle cx="88.7" cy="21.5" r="0.77" fill="currentColor" stroke="none"/>
<path d="M 88.7 21.5 L 88.8 21.5" stroke-width="2.00"/>
<path d="M 88.8 21.5 L 89.0 21.4" stroke-width="2.80"/>
<path d="M 89.0 21.4 L 89.6 21.3 L 90.5 21.2" stroke-width="3.20"/>
<path d="M 90.5 21.2 L 91.8 20.9" stroke-width="2.80"/>
<path d="M 91.8 20.9 L 93.5 20.6" stroke-width="2.40"/>
<path d="M 93.5 20.6 L 94.9 20.3" stroke-width="2.20"/>
<path d="M 94.9 20.3 L 95.9 20.0" stroke-width="1.80"/>
<circle cx="110.5" cy="15.5" r="0.77" fill="currentColor" stroke="none"/>
<path d="M 110.5 15.5 L 110.4 15.7" stroke-width="2.00"/>
<path d="M 110.4 15.7 L 110.3 16.3" stroke-width="2.60"/>
<path d="M 110.3 16.3 L 110.2 17.5" stroke-width="2.80"/>
<path d="M 110.2 17.5 L 110.0 19.2" stroke-width="2.40"/>
<path d="M 110.0 19.2 L 109.8 21.3" stroke-width="2.20"/>
<path d="M 109.8 21.3 L 109.5 23.8" stroke-width="1.80"/>
<path d="M 109.5 23.8 L 109.1 26.3 L 108.6 28.7 L 108.2 30.7 L 107.9 32.3 L 107.7 33.3 L 107.7 33.7" stroke-width="1.60"/>
<circle cx="112.4" cy="9.2" r="0.77" fill="currentColor" stroke="none"/>
<path d="M 112.4 9.2 L 112.4 9.2" stroke-width="2.00"/>
<path d="M 112.4 9.2 L 112.4 9.2" stroke-width="2.80"/>
<path d="M 112.4 9.2 L 112.4 9.3" stroke-width="3.00"/>
<path d="M 112.4 9.3 L 112.5 9.3" stroke-width="2.60"/>
<circle cx="115.0" cy="13.3" r="0.77" fill="currentColor" stroke="none"/>
<path d="M 115.0 13.3 L 115.1 13.1" stroke-width="2.00"/>
<path d="M 115.1 13.1 L 115.3 12.9" stroke-width="2.80"/>
<path d="M 115.3 12.9 L 115.4 12.9 L 115.5 13.4 L 115.4 14.5" stroke-width="3.20"/>
<path d="M 115.4 14.5 L 115.1 16.4" stroke-width="2.80"/>
<path d="M 115.1 16.4 L 114.7 18.8" stroke-width="2.20"/>
<path d="M 114.7 18.8 L 114.3 21.5" stroke-width="1.80"/>
<path d="M 114.3 21.5 L 113.9 24.3" stroke-width="1.60"/>
<path d="M 113.9 24.3 L 113.5 26.7 L 113.2 28.7" stroke-width="1.40"/>
<path d="M 113.2 28.7 L 113.0 30.1" stroke-width="1.60"/>
<path d="M 113.0 30.1 L 113.0 30.9" stroke-width="1.80"/>
<path d="M 113.0 30.9 L 113.1 31.1" stroke-width="2.20"/>
<path d="M 113.1 31.1 L 113.3 30.7" stroke-width="2.60"/>
<path d="M 113.3 30.7 L 113.6 29.5" stroke-width="2.80"/>
<path d="M 113.6 29.5 L 114.2 27.7" stroke-width="2.40"/>
<path d="M 114.2 27.7 L 115.1 25.2" stroke-width="2.00"/>
<path d="M 115.1 25.2 L 116.3 22.6" stroke-width="1.60"/>
<path d="M 116.3 22.6 L 117.7 20.1 L 119.3 18.0 L 121.0 16.3 L 122.5 15.2" stroke-width="1.40"/>
<path d="M 122.5 15.2 L 123.9 14.8" stroke-width="1.60"/>
<path d="M 123.9 14.8 L 124.9 15.1" stroke-width="1.80"/>
<path d="M 124.9 15.1 L 125.5 16.3 L 125.7 18.2" stroke-width="2.00"/>
<path d="M 125.7 18.2 L 125.5 20.7" stroke-width="1.80"/>
<path d="M 125.5 20.7 L 125.1 23.4" stroke-width="1.60"/>
<path d="M 125.1 23.4 L 124.6 26.0 L 124.3 28.4 L 124.1 30.3" stroke-width="1.40"/>
<path d="M 124.1 30.3 L 124.2 31.6" stroke-width="1.60"/>
<path d="M 124.2 31.6 L 124.4 32.3" stroke-width="1.80"/>
<path d="M 124.4 32.3 L 124.6 32.6" stroke-width="2.00"/>
<path d="M 124.6 32.6 L 124.8 32.7" stroke-width="2.20"/>
<circle cx="133.0" cy="8.9" r="0.77" fill="currentColor" stroke="none"/>
<path d="M 133.0 8.9 L 133.1 8.9" stroke-width="2.00"/>
<path d="M 133.1 8.9 L 133.1 9.2" stroke-width="2.80"/>
<path d="M 133.1 9.2 L 133.1 10.0" stroke-width="3.20"/>
<path d="M 133.1 10.0 L 133.1 11.4" stroke-width="3.00"/>
<path d="M 133.1 11.4 L 132.9 13.4" stroke-width="2.40"/>
<path d="M 132.9 13.4 L 132.7 15.9" stroke-width="2.00"/>
<path d="M 132.7 15.9 L 132.4 18.7" stroke-width="1.60"/>
<path d="M 132.4 18.7 L 132.0 21.5 L 131.7 24.2 L 131.5 26.7 L 131.3 28.6" stroke-width="1.40"/>
<path d="M 131.3 28.6 L 131.1 29.9" stroke-width="1.60"/>
<path d="M 131.1 29.9 L 131.1 30.6" stroke-width="1.80"/>
<path d="M 131.1 30.6 L 131.1 30.8" stroke-width="2.20"/>
<path d="M 131.1 30.8 L 131.2 30.8" stroke-width="2.80"/>
<path d="M 131.2 30.8 L 131.2 30.6 L 131.3 30.2 L 131.5 29.7" stroke-width="3.20"/>
<path d="M 131.5 29.7 L 131.6 29.1" stroke-width="3.00"/>
<path d="M 131.6 29.1 L 131.8 28.6" stroke-width="2.60"/>
<circle cx="138.6" cy="17.0" r="0.77" fill="currentColor" stroke="none"/>
<path d="M 138.6 17.0 L 138.7 16.9" stroke-width="2.00"/>
<path d="M 138.7 16.9 L 138.6 16.8" stroke-width="2.80"/>
<path d="M 138.6 16.8 L 138.4 16.8 L 137.9 17.1 L 137.0 17.7" stroke-width="3.20"/>
<path d="M 137.0 17.7 L 135.9 18.5" stroke-width="3.00"/>
<path d="M 135.9 18.5 L 134.6 19.4" stroke-width="2.60"/>
<path d="M 134.6 19.4 L 133.3 20.3 L 132.2 21.2 L 131.4 21.8" stroke-width="2.20"/>
<path d="M 131.4 21.8 L 130.9 22.3" stroke-width="2.40"/>
<path d="M 130.9 22.3 L 130.7 22.6" stroke-width="2.80"/>
<path d="M 130.7 22.6 L 130.9 22.9" stroke-width="3.00"/>
<path d="M 130.9 22.9 L 131.4 23.1 L 132.3 23.5" stroke-width="3.20"/>
<path d="M 132.3 23.5 L 133.5 24.0" stroke-width="2.80"/>
<path d="M 133.5 24.0 L 134.9 24.7" stroke-width="2.60"/>
<path d="M 134.9 24.7 L 136.5 25.5" stroke-width="2.20"/>
<path d="M 136.5 25.5 L 138.1 26.4 L 139.7 27.2" stroke-width="2.00"/>
<path d="M 139.7 27.2 L 141.0 28.0" stroke-width="1.80"/>
<path d="M 141.0 28.0 L 142.2 28.7 L 143.1 29.2" stroke-width="2.00"/>
<path d="M 143.1 29.2 L 143.7 29.4" stroke-width="2.40"/>
<path d="M 143.7 29.4 L 144.0 29.5" stroke-width="2.60"/>
<path d="M 144.0 29.5 L 144.2 29.5" stroke-width="3.00"/>
<path d="M 144.2 29.5 L 144.2 29.5 L 144.2 29.4 L 144.2 29.4 L 144.2 29.4" stroke-width="3.20"/>
<path d="M 144.2 29.4 L 144.2 29.4" stroke-width="3.00"/>
<path d="M 144.2 29.4 L 144.2 29.4" stroke-width="2.60"/>
<circle cx="150.4" cy="26.5" r="0.77" fill="currentColor" stroke="none"/>
<path d="M 150.4 26.5 L 150.3 26.8" stroke-width="2.00"/>
<path d="M 150.3 26.8 L 150.3 27.5" stroke-width="2.60"/>
<path d="M 150.3 27.5 L 150.2 28.6" stroke-width="2.80"/>
<path d="M 150.2 28.6 L 150.1 30.2" stroke-width="2.60"/>
<path d="M 150.1 30.2 L 149.9 31.9" stroke-width="2.20"/>
<path d="M 149.9 31.9 L 149.6 33.9" stroke-width="2.00"/>
<path d="M 149.6 33.9 L 149.1 35.9 L 148.5 37.9" stroke-width="1.80"/>
<path d="M 148.5 37.9 L 148.0 39.7" stroke-width="1.60"/>
<path d="M 148.0 39.7 L 147.5 41.2 L 147.1 42.2 L 146.9 42.6" stroke-width="1.80"/>
<circle cx="164.7" cy="10.7" r="0.77" fill="currentColor" stroke="none"/>
<path d="M 164.7 10.7 L 164.8 10.9" stroke-width="2.00"/>
<path d="M 164.8 10.9 L 164.8 11.3" stroke-width="2.80"/>
<path d="M 164.8 11.3 L 164.7 12.2" stroke-width="3.00"/>
<path d="M 164.7 12.2 L 164.6 13.6" stroke-width="2.80"/>
<path d="M 164.6 13.6 L 164.5 15.6" stroke-width="2.40"/>
<path d="M 164.5 15.6 L 164.2 18.0" stroke-width="2.00"/>
<path d="M 164.2 18.0 L 163.9 20.7 L 163.5 23.4" stroke-width="1.60"/>
<path d="M 163.5 23.4 L 163.2 25.9 L 163.0 28.1" stroke-width="1.40"/>
<path d="M 163.0 28.1 L 162.9 29.8 L 162.8 30.9" stroke-width="1.60"/>
<path d="M 162.8 30.9 L 162.8 31.4" stroke-width="2.00"/>
<path d="M 162.8 31.4 L 162.7 31.3" stroke-width="2.40"/>
<path d="M 162.7 31.3 L 162.7 30.9" stroke-width="2.80"/>
<path d="M 162.7 30.9 L 162.6 30.5" stroke-width="2.40"/>
<circle cx="159.7" cy="20.2" r="0.77" fill="currentColor" stroke="none"/>
<path d="M 159.7 20.2 L 159.9 20.2" stroke-width="2.00"/>
<path d="M 159.9 20.2 L 160.2 20.2" stroke-width="2.80"/>
<path d="M 160.2 20.2 L 160.8 20.1 L 161.7 20.0" stroke-width="3.20"/>
<path d="M 161.7 20.0 L 162.8 19.6" stroke-width="3.00"/>
<path d="M 162.8 19.6 L 164.0 19.0" stroke-width="2.60"/>
<path d="M 164.0 19.0 L 165.3 18.1" stroke-width="2.40"/>
<path d="M 165.3 18.1 L 166.5 16.9" stroke-width="2.20"/>
<path d="M 166.5 16.9 L 167.7 15.5 L 168.8 14.1" stroke-width="2.00"/>
<path d="M 168.8 14.1 L 169.8 12.6 L 170.7 11.1 L 171.4 9.9" stroke-width="1.80"/>
<path d="M 171.4 9.9 L 172.0 8.9" stroke-width="2.00"/>
<path d="M 172.0 8.9 L 172.3 8.2" stroke-width="2.20"/>
<path d="M 172.3 8.2 L 172.5 7.8" stroke-width="2.60"/>
<path d="M 172.5 7.8 L 172.5 7.7" stroke-width="3.00"/>
<path d="M 172.5 7.7 L 172.4 7.9 L 172.2 8.6" stroke-width="3.20"/>
<path d="M 172.2 8.6 L 171.8 9.7" stroke-width="3.00"/>
<path d="M 171.8 9.7 L 171.4 11.5" stroke-width="2.60"/>
<path d="M 171.4 11.5 L 170.8 13.8" stroke-width="2.20"/>
<path d="M 170.8 13.8 L 170.3 16.4" stroke-width="1.80"/>
<path d="M 170.3 16.4 L 169.7 19.2" stroke-width="1.60"/>
<path d="M 169.7 19.2 L 169.3 22.1 L 168.9 24.8 L 168.6 27.1 L 168.5 28.8" stroke-width="1.40"/>
<path d="M 168.5 28.8 L 168.5 29.9" stroke-width="1.60"/>
<path d="M 168.5 29.9 L 168.5 30.3" stroke-width="2.00"/>
<path d="M 168.5 30.3 L 168.6 30.3" stroke-width="2.40"/>
<path d="M 168.6 30.3 L 168.9 29.7 L 169.3 28.4" stroke-width="2.80"/>
<path d="M 169.3 28.4 L 169.9 26.5" stroke-width="2.40"/>
<path d="M 169.9 26.5 L 170.9 24.2" stroke-width="2.00"/>
<path d="M 170.9 24.2 L 172.0 21.8 L 173.4 19.6" stroke-width="1.60"/>
<path d="M 173.4 19.6 L 174.9 17.9" stroke-width="1.40"/>
<path d="M 174.9 17.9 L 176.3 16.8 L 177.4 16.4" stroke-width="1.60"/>
<path d="M 177.4 16.4 L 178.3 16.7" stroke-width="1.80"/>
<path d="M 178.3 16.7 L 178.7 17.7 L 178.8 19.5" stroke-width="2.00"/>
<path d="M 178.8 19.5 L 178.7 21.8" stroke-width="1.80"/>
<path d="M 178.7 21.8 L 178.5 24.2 L 178.3 26.5 L 178.1 28.3" stroke-width="1.60"/>
<path d="M 178.1 28.3 L 178.1 29.5" stroke-width="1.80"/>
<path d="M 178.1 29.5 L 178.1 30.2" stroke-width="2.00"/>
<path d="M 178.1 30.2 L 178.3 30.3" stroke-width="2.40"/>
<path d="M 178.3 30.3 L 178.6 29.9 L 179.1 28.9" stroke-width="2.80"/>
<path d="M 179.1 28.9 L 179.7 27.4" stroke-width="2.60"/>
<path d="M 179.7 27.4 L 180.5 25.5" stroke-width="2.20"/>
<path d="M 180.5 25.5 L 181.5 23.4" stroke-width="1.80"/>
<path d="M 181.5 23.4 L 182.7 21.3 L 183.9 19.6 L 185.0 18.4" stroke-width="1.60"/>
<path d="M 185.0 18.4 L 185.9 17.7" stroke-width="1.80"/>
<path d="M 185.9 17.7 L 186.6 17.5" stroke-width="2.00"/>
<path d="M 186.6 17.5 L 187.0 17.8" stroke-width="2.40"/>
<path d="M 187.0 17.8 L 187.0 18.8" stroke-width="2.60"/>
<path d="M 187.0 18.8 L 186.8 20.4" stroke-width="2.40"/>
<path d="M 186.8 20.4 L 186.4 22.5" stroke-width="2.20"/>
<path d="M 186.4 22.5 L 185.9 24.8" stroke-width="1.80"/>
<path d="M 185.9 24.8 L 185.3 27.0 L 184.9 29.0 L 184.7 30.4" stroke-width="1.60"/>
<path d="M 184.7 30.4 L 184.6 31.4" stroke-width="1.80"/>
<path d="M 184.6 31.4 L 184.7 31.9" stroke-width="2.20"/>
<path d="M 184.7 31.9 L 184.8 32.1" stroke-width="2.60"/>
<path d="M 184.8 32.1 L 184.9 32.0" stroke-width="3.00"/>
<path d="M 184.9 32.0 L 185.0 31.7" stroke-width="3.20"/>
<path d="M 185.0 31.7 L 185.0 31.4" stroke-width="3.00"/>
<path d="M 185.0 31.4 L 184.9 31.1" stroke-width="2.60"/>
<circle cx="186.2" cy="10.2" r="0.77" fill="currentColor" stroke="none"/>
<path d="M 186.2 10.2 L 186.2 10.1" stroke-width="2.00"/>
<path d="M 186.2 10.1 L 186.3 9.9" stroke-width="2.80"/>
<path d="M 186.3 9.9 L 186.3 9.8 L 186.4 9.8 L 186.5 9.9 L 186.7 10.1" stroke-width="3.20"/>
<path d="M 186.7 10.1 L 186.8 10.3" stroke-width="3.00"/>
<path d="M 186.8 10.3 L 186.9 10.4" stroke-width="2.60"/>
<circle cx="191.5" cy="13.7" r="0.77" fill="currentColor" stroke="none"/>
<path d="M 191.5 13.7 L 191.5 13.7" stroke-width="2.00"/>
<path d="M 191.5 13.7 L 191.6 13.8" stroke-width="2.80"/>
<path d="M 191.6 13.8 L 191.6 14.1 L 191.5 14.8" stroke-width="3.20"/>
<path d="M 191.5 14.8 L 191.4 16.0" stroke-width="3.00"/>
<path d="M 191.4 16.0 L 191.2 17.6" stroke-width="2.80"/>
<path d="M 191.2 17.6 L 190.9 19.6" stroke-width="2.20"/>
<path d="M 190.9 19.6 L 190.5 21.9" stroke-width="2.00"/>
<path d="M 190.5 21.9 L 190.2 24.3" stroke-width="1.80"/>
<path d="M 190.2 24.3 L 189.9 26.6 L 189.8 28.5 L 189.7 29.8" stroke-width="1.60"/>
<path d="M 189.7 29.8 L 189.7 30.6" stroke-width="2.00"/>
<path d="M 189.7 30.6 L 189.7 30.8" stroke-width="2.40"/>
<path d="M 189.7 30.8 L 189.8 30.5" stroke-width="2.80"/>
<path d="M 189.8 30.5 L 190.0 29.5" stroke-width="3.00"/>
<path d="M 190.0 29.5 L 190.4 27.8" stroke-width="2.60"/>
<path d="M 190.4 27.8 L 191.0 25.5" stroke-width="2.20"/>
<path d="M 191.0 25.5 L 192.0 22.9" stroke-width="1.80"/>
<path d="M 192.0 22.9 L 193.4 20.2" stroke-width="1.60"/>
<path d="M 193.4 20.2 L 195.1 17.9 L 196.9 16.1 L 198.7 14.9 L 200.2 14.5" stroke-width="1.40"/>
<path d="M 200.2 14.5 L 201.4 15.0" stroke-width="1.60"/>
<path d="M 201.4 15.0 L 202.2 16.2 L 202.6 18.1 L 202.6 20.4" stroke-width="1.80"/>
<path d="M 202.6 20.4 L 202.4 23.0" stroke-width="1.60"/>
<path d="M 202.4 23.0 L 202.1 25.5 L 201.7 27.8 L 201.5 29.6" stroke-width="1.40"/>
<path d="M 201.5 29.6 L 201.4 30.8" stroke-width="1.60"/>
<path d="M 201.4 30.8 L 201.5 31.4" stroke-width="2.00"/>
<path d="M 201.5 31.4 L 201.7 31.6 L 201.8 31.4" stroke-width="2.20"/>
<circle cx="208.0" cy="9.7" r="0.77" fill="currentColor" stroke="none"/>
<path d="M 208.0 9.7 L 208.1 9.7" stroke-width="2.00"/>
<path d="M 208.1 9.7 L 208.2 9.9" stroke-width="2.80"/>
<path d="M 208.2 9.9 L 208.3 10.6" stroke-width="3.20"/>
<path d="M 208.3 10.6 L 208.3 12.1" stroke-width="3.00"/>
<path d="M 208.3 12.1 L 208.2 14.1" stroke-width="2.40"/>
<path d="M 208.2 14.1 L 208.0 16.7" stroke-width="2.00"/>
<path d="M 208.0 16.7 L 207.7 19.6" stroke-width="1.60"/>
<path d="M 207.7 19.6 L 207.2 22.5 L 206.8 25.2 L 206.4 27.5 L 206.1 29.3" stroke-width="1.40"/>
<path d="M 206.1 29.3 L 205.9 30.3" stroke-width="1.60"/>
<path d="M 205.9 30.3 L 205.9 30.7" stroke-width="2.00"/>
<path d="M 205.9 30.7 L 206.0 30.6" stroke-width="2.40"/>
<path d="M 206.0 30.6 L 206.1 30.2" stroke-width="2.80"/>
<path d="M 206.1 30.2 L 206.2 29.8" stroke-width="2.40"/>
<circle cx="214.9" cy="15.0" r="0.77" fill="currentColor" stroke="none"/>
<path d="M 214.9 15.0 L 214.8 14.9" stroke-width="2.00"/>
<path d="M 214.8 14.9 L 214.5 15.0" stroke-width="2.80"/>
<path d="M 214.5 15.0 L 213.9 15.3" stroke-width="3.20"/>
<path d="M 213.9 15.3 L 212.9 16.0" stroke-width="3.00"/>
<path d="M 212.9 16.0 L 211.6 17.0" stroke-width="2.60"/>
<path d="M 211.6 17.0 L 210.2 18.2" stroke-width="2.20"/>
<path d="M 210.2 18.2 L 208.7 19.4 L 207.5 20.5 L 206.5 21.5 L 206.0 22.4" stroke-width="2.00"/>
<path d="M 206.0 22.4 L 205.8 23.0" stroke-width="2.20"/>
<path d="M 205.8 23.0 L 206.2 23.7 L 206.9 24.3 L 208.0 25.0" stroke-width="2.60"/>
<path d="M 208.0 25.0 L 209.3 25.8" stroke-width="2.40"/>
<path d="M 209.3 25.8 L 210.7 26.5" stroke-width="2.20"/>
<path d="M 210.7 26.5 L 212.1 27.3 L 213.4 27.9 L 214.5 28.5" stroke-width="2.00"/>
<path d="M 214.5 28.5 L 215.3 28.9" stroke-width="2.20"/>
<path d="M 215.3 28.9 L 215.9 29.2" stroke-width="2.40"/>
<path d="M 215.9 29.2 L 216.1 29.4" stroke-width="2.80"/>
<path d="M 216.1 29.4 L 216.2 29.5 L 216.2 29.4 L 216.1 28.9 L 216.1 28.1" stroke-width="3.20"/>
<path d="M 216.1 28.1 L 216.2 27.3" stroke-width="3.00"/>
<path d="M 216.2 27.3 L 216.2 26.6" stroke-width="2.60"/>
<circle cx="221.0" cy="16.6" r="0.77" fill="currentColor" stroke="none"/>
<path d="M 221.0 16.6 L 221.1 16.4" stroke-width="2.00"/>
<path d="M 221.1 16.4 L 221.3 16.2" stroke-width="2.80"/>
<path d="M 221.3 16.2 L 221.5 16.4 L 221.5 17.0" stroke-width="3.20"/>
<path d="M 221.5 17.0 L 221.3 18.2" stroke-width="3.00"/>
<path d="M 221.3 18.2 L 221.0 20.1" stroke-width="2.60"/>
<path d="M 221.0 20.1 L 220.6 22.3" stroke-width="2.20"/>
<path d="M 220.6 22.3 L 220.1 24.8" stroke-width="1.80"/>
<path d="M 220.1 24.8 L 219.6 27.1 L 219.3 29.2 L 219.2 30.8" stroke-width="1.60"/>
<path d="M 219.2 30.8 L 219.2 32.0" stroke-width="1.80"/>
<path d="M 219.2 32.0 L 219.4 32.6" stroke-width="2.00"/>
<path d="M 219.4 32.6 L 219.6 32.6" stroke-width="2.40"/>
<path d="M 219.6 32.6 L 219.7 32.4" stroke-width="2.80"/>
<path d="M 219.7 32.4 L 219.8 32.0" stroke-width="2.60"/>
<circle cx="222.3" cy="9.4" r="0.77" fill="currentColor" stroke="none"/>
<path d="M 222.3 9.4 L 222.5 9.0" stroke-width="2.00"/>
<path d="M 222.5 9.0 L 222.8 8.6" stroke-width="2.60"/>
<path d="M 222.8 8.6 L 223.1 8.0" stroke-width="3.00"/>
<path d="M 223.1 8.0 L 223.2 7.6 L 223.3 7.3 L 223.3 7.2" stroke-width="3.20"/>
<path d="M 223.3 7.2 L 223.3 7.2" stroke-width="3.00"/>
<path d="M 223.3 7.2 L 223.3 7.3" stroke-width="2.60"/>
<circle cx="225.4" cy="14.7" r="0.77" fill="currentColor" stroke="none"/>
<path d="M 225.4 14.7 L 225.4 15.0" stroke-width="2.00"/>
<path d="M 225.4 15.0 L 225.3 15.7" stroke-width="2.60"/>
<path d="M 225.3 15.7 L 225.3 16.8" stroke-width="2.80"/>
<path d="M 225.3 16.8 L 225.1 18.5" stroke-width="2.60"/>
<path d="M 225.1 18.5 L 224.9 20.5" stroke-width="2.20"/>
<path d="M 224.9 20.5 L 224.6 22.8 L 224.3 25.2" stroke-width="1.80"/>
<path d="M 224.3 25.2 L 224.1 27.3 L 223.9 29.1" stroke-width="1.60"/>
<path d="M 223.9 29.1 L 223.7 30.4" stroke-width="1.80"/>
<path d="M 223.7 30.4 L 223.7 31.1" stroke-width="2.00"/>
<path d="M 223.7 31.1 L 223.7 31.3" stroke-width="2.40"/>
<path d="M 223.7 31.3 L 223.8 30.9" stroke-width="2.80"/>
<path d="M 223.8 30.9 L 224.0 29.9" stroke-width="3.00"/>
<path d="M 224.0 29.9 L 224.4 28.2" stroke-width="2.60"/>
<path d="M 224.4 28.2 L 225.1 25.9" stroke-width="2.20"/>
<path d="M 225.1 25.9 L 226.0 23.3" stroke-width="1.80"/>
<path d="M 226.0 23.3 L 227.3 20.9" stroke-width="1.60"/>
<path d="M 227.3 20.9 L 228.8 18.7 L 230.4 17.0 L 231.9 15.8" stroke-width="1.40"/>
<path d="M 231.9 15.8 L 233.3 15.3" stroke-width="1.60"/>
<path d="M 233.3 15.3 L 234.5 15.5" stroke-width="1.80"/>
<path d="M 234.5 15.5 L 235.3 16.4 L 235.7 18.0" stroke-width="2.00"/>
<path d="M 235.7 18.0 L 235.7 20.3" stroke-width="1.80"/>
<path d="M 235.7 20.3 L 235.5 22.8 L 235.2 25.4" stroke-width="1.60"/>
<path d="M 235.2 25.4 L 234.8 27.7 L 234.5 29.6" stroke-width="1.40"/>
<path d="M 234.5 29.6 L 234.4 30.8" stroke-width="1.60"/>
<path d="M 234.4 30.8 L 234.4 31.4 L 234.5 31.6" stroke-width="1.80"/>
<circle cx="243.8" cy="17.7" r="0.77" fill="currentColor" stroke="none"/>
<path d="M 243.8 17.7 L 244.0 17.3" stroke-width="2.00"/>
<path d="M 244.0 17.3 L 244.2 16.8" stroke-width="2.60"/>
<path d="M 244.2 16.8 L 244.3 16.3" stroke-width="3.00"/>
<path d="M 244.3 16.3 L 244.2 16.0 L 243.6 16.1 L 242.7 16.6" stroke-width="3.20"/>
<path d="M 242.7 16.6 L 241.5 17.5" stroke-width="2.80"/>
<path d="M 241.5 17.5 L 240.2 18.9" stroke-width="2.40"/>
<path d="M 240.2 18.9 L 239.1 20.7" stroke-width="2.00"/>
<path d="M 239.1 20.7 L 238.3 22.6 L 237.9 24.5 L 238.0 25.9" stroke-width="1.80"/>
<path d="M 238.0 25.9 L 238.5 26.9" stroke-width="2.00"/>
<path d="M 238.5 26.9 L 239.3 27.4" stroke-width="2.20"/>
<path d="M 239.3 27.4 L 240.2 27.3 L 241.1 26.7 L 242.1 25.5" stroke-width="2.40"/>
<path d="M 242.1 25.5 L 243.0 23.9" stroke-width="2.20"/>
<path d="M 243.0 23.9 L 243.9 22.0" stroke-width="2.00"/>
<path d="M 243.9 22.0 L 244.7 20.2 L 245.2 18.7" stroke-width="1.80"/>
<path d="M 245.2 18.7 L 245.6 17.7" stroke-width="2.00"/>
<path d="M 245.6 17.7 L 245.8 17.3" stroke-width="2.20"/>
<path d="M 245.8 17.3 L 245.8 17.3" stroke-width="2.80"/>
<path d="M 245.8 17.3 L 245.7 17.9" stroke-width="3.20"/>
<path d="M 245.7 17.9 L 245.5 19.0" stroke-width="3.00"/>
<path d="M 245.5 19.0 L 245.3 20.8" stroke-width="2.60"/>
<path d="M 245.3 20.8 L 245.1 23.1" stroke-width="2.20"/>
<path d="M 245.1 23.1 L 244.9 25.6" stroke-width="1.80"/>
<path d="M 244.9 25.6 L 244.7 28.3" stroke-width="1.60"/>
<path d="M 244.7 28.3 L 244.5 30.9 L 244.2 33.4 L 243.8 35.8 L 243.3 38.0 L 242.6 39.9" stroke-width="1.40"/>
<path d="M 242.6 39.9 L 241.8 41.4 L 240.8 42.6" stroke-width="1.60"/>
<path d="M 240.8 42.6 L 239.8 43.3" stroke-width="1.80"/>
<path d="M 239.8 43.3 L 238.7 43.7 L 237.6 43.7" stroke-width="2.00"/>
<path d="M 237.6 43.7 L 236.5 43.4 L 235.5 42.9" stroke-width="2.20"/>
<path d="M 235.5 42.9 L 234.7 42.1 L 234.1 41.2 L 233.7 40.3 L 233.7 39.2 L 234.0 38.2 L 234.7 37.2 L 235.7 36.2" stroke-width="2.40"/>
<path d="M 235.7 36.2 L 237.0 35.3" stroke-width="2.20"/>
<path d="M 237.0 35.3 L 238.5 34.5 L 240.0 33.9 L 241.5 33.4 L 242.9 33.0 L 244.0 32.8" stroke-width="2.00"/>
<path d="M 244.0 32.8 L 244.8 32.6" stroke-width="2.20"/>
<path d="M 244.8 32.6 L 245.2 32.5" stroke-width="2.60"/>
<path d="M 245.2 32.5 L 245.4 32.5 L 245.5 32.5" stroke-width="3.00"/>
<path d="M 245.5 32.5 L 245.5 32.5" stroke-width="2.60"/>
<circle cx="273.4" cy="17.4" r="0.77" fill="currentColor" stroke="none"/>
<path d="M 273.4 17.4 L 273.3 17.0" stroke-width="2.00"/>
<path d="M 273.3 17.0 L 273.0 16.3" stroke-width="2.60"/>
<path d="M 273.0 16.3 L 272.6 15.5 L 272.0 14.8 L 271.2 14.2 L 270.3 13.9" stroke-width="2.80"/>
<path d="M 270.3 13.9 L 269.3 13.8 L 268.0 14.0" stroke-width="2.60"/>
<path d="M 268.0 14.0 L 266.7 14.7" stroke-width="2.40"/>
<path d="M 266.7 14.7 L 265.4 16.1" stroke-width="2.20"/>
<path d="M 265.4 16.1 L 264.0 18.0" stroke-width="2.00"/>
<path d="M 264.0 18.0 L 262.9 20.4" stroke-width="1.60"/>
<path d="M 262.9 20.4 L 262.0 23.2 L 261.4 25.9 L 261.2 28.3 L 261.4 30.1" stroke-width="1.40"/>
<path d="M 261.4 30.1 L 261.9 31.2" stroke-width="1.60"/>
<path d="M 261.9 31.2 L 262.7 31.5" stroke-width="1.80"/>
<path d="M 262.7 31.5 L 263.6 31.0" stroke-width="2.00"/>
<path d="M 263.6 31.0 L 264.6 29.8" stroke-width="2.20"/>
<path d="M 264.6 29.8 L 265.8 27.9" stroke-width="2.00"/>
<path d="M 265.8 27.9 L 267.1 25.6" stroke-width="1.80"/>
<path d="M 267.1 25.6 L 268.4 23.1" stroke-width="1.60"/>
<path d="M 268.4 23.1 L 269.5 20.8 L 270.5 18.8" stroke-width="1.40"/>
<path d="M 270.5 18.8 L 271.2 17.3 L 271.6 16.4" stroke-width="1.60"/>
<path d="M 271.6 16.4 L 271.8 15.9" stroke-width="2.00"/>
<path d="M 271.8 15.9 L 271.7 16.0" stroke-width="2.60"/>
<path d="M 271.7 16.0 L 271.5 16.6" stroke-width="3.00"/>
<path d="M 271.5 16.6 L 271.2 18.0" stroke-width="2.80"/>
<path d="M 271.2 18.0 L 270.7 19.9" stroke-width="2.40"/>
<path d="M 270.7 19.9 L 270.3 22.2" stroke-width="2.00"/>
<path d="M 270.3 22.2 L 270.0 24.6" stroke-width="1.80"/>
<path d="M 270.0 24.6 L 269.8 26.9 L 269.9 28.7" stroke-width="1.60"/>
<path d="M 269.9 28.7 L 270.2 30.0" stroke-width="1.80"/>
<path d="M 270.2 30.0 L 270.6 30.7" stroke-width="2.00"/>
<path d="M 270.6 30.7 L 271.0 31.0 L 271.3 31.0" stroke-width="2.20"/>
<circle cx="281.3" cy="16.1" r="0.77" fill="currentColor" stroke="none"/>
<path d="M 281.3 16.1 L 281.1 15.7" stroke-width="2.00"/>
<path d="M 281.1 15.7 L 280.9 15.2" stroke-width="2.60"/>
<path d="M 280.9 15.2 L 280.4 14.6" stroke-width="2.80"/>
<path d="M 280.4 14.6 L 279.7 14.2 L 278.9 14.1 L 278.0 14.4" stroke-width="3.00"/>
<path d="M 278.0 14.4 L 277.1 15.0" stroke-width="2.80"/>
<path d="M 277.1 15.0 L 276.4 16.0 L 275.9 17.1" stroke-width="2.60"/>
<path d="M 275.9 17.1 L 275.9 18.4" stroke-width="2.40"/>
<path d="M 275.9 18.4 L 276.3 19.9 L 276.9 21.4" stroke-width="2.20"/>
<path d="M 276.9 21.4 L 277.8 23.0 L 278.7 24.5" stroke-width="2.00"/>
<path d="M 278.7 24.5 L 279.5 26.0 L 280.0 27.4" stroke-width="1.80"/>
<path d="M 280.0 27.4 L 280.3 28.6" stroke-width="2.00"/>
<path d="M 280.3 28.6 L 280.3 29.6" stroke-width="2.20"/>
<path d="M 280.3 29.6 L 279.9 30.3 L 279.2 30.8" stroke-width="2.40"/>
<path d="M 279.2 30.8 L 278.3 31.0 L 277.3 31.1 L 276.2 30.9 L 275.2 30.6 L 274.3 30.2 L 273.5 29.7 L 273.1 29.4" stroke-width="2.60"/>
<path d="M 273.1 29.4 L 272.8 29.2" stroke-width="2.40"/>
<circle cx="296.7" cy="16.3" r="0.77" fill="currentColor" stroke="none"/>
<path d="M 296.7 16.3 L 296.7 16.4" stroke-width="2.00"/>
<path d="M 296.7 16.4 L 296.8 16.6" stroke-width="2.80"/>
<path d="M 296.8 16.6 L 296.8 17.1 L 296.7 18.1" stroke-width="3.20"/>
<path d="M 296.7 18.1 L 296.6 19.6" stroke-width="2.80"/>
<path d="M 296.6 19.6 L 296.4 21.5" stroke-width="2.40"/>
<path d="M 296.4 21.5 L 296.1 23.7" stroke-width="2.00"/>
<path d="M 296.1 23.7 L 295.9 26.1" stroke-width="1.80"/>
<path d="M 295.9 26.1 L 295.7 28.3 L 295.6 30.2 L 295.5 31.8" stroke-width="1.60"/>
<path d="M 295.5 31.8 L 295.6 32.8" stroke-width="1.80"/>
<path d="M 295.6 32.8 L 295.6 33.2" stroke-width="2.20"/>
<path d="M 295.6 33.2 L 295.8 33.0" stroke-width="2.60"/>
<path d="M 295.8 33.0 L 295.9 32.5" stroke-width="2.80"/>
<path d="M 295.9 32.5 L 296.0 32.1" stroke-width="2.60"/>
<circle cx="298.0" cy="8.3" r="0.77" fill="currentColor" stroke="none"/>
<path d="M 298.0 8.3 L 298.0 8.3" stroke-width="2.00"/>
<path d="M 298.0 8.3 L 298.0 8.3" stroke-width="2.80"/>
<path d="M 298.0 8.3 L 298.0 8.3 L 297.9 8.3 L 297.9 8.3 L 297.9 8.3 L 297.9 8.2 L 298.0 8.2 L 298.0 8.2 L 298.1 8.1 L 298.3 8.0 L 298.5 7.8 L 298.8 7.5 L 299.1 7.2" stroke-width="3.20"/>
<path d="M 299.1 7.2 L 299.3 6.9" stroke-width="3.00"/>
<path d="M 299.3 6.9 L 299.4 6.7" stroke-width="2.60"/>
<circle cx="308.3" cy="7.1" r="0.77" fill="currentColor" stroke="none"/>
<path d="M 308.3 7.1 L 308.1 7.9" stroke-width="1.80"/>
<path d="M 308.1 7.9 L 307.7 9.4" stroke-width="2.20"/>
<path d="M 307.7 9.4 L 307.3 11.5" stroke-width="2.00"/>
<path d="M 307.3 11.5 L 306.8 13.9" stroke-width="1.80"/>
<path d="M 306.8 13.9 L 306.3 16.7" stroke-width="1.60"/>
<path d="M 306.3 16.7 L 305.9 19.6 L 305.5 22.5" stroke-width="1.40"/>
<path d="M 305.5 22.5 L 305.2 25.4 L 305.0 27.9" stroke-width="1.20"/>
<path d="M 305.0 27.9 L 305.0 30.0 L 305.0 31.3" stroke-width="1.40"/>
<path d="M 305.0 31.3 L 305.1 32.0" stroke-width="1.80"/>
<path d="M 305.1 32.0 L 305.1 32.0" stroke-width="2.20"/>
<path d="M 305.1 32.0 L 305.1 31.6" stroke-width="2.60"/>
<path d="M 305.1 31.6 L 305.1 31.3" stroke-width="2.40"/>
<circle cx="303.9" cy="19.5" r="0.77" fill="currentColor" stroke="none"/>
<path d="M 303.9 19.5 L 304.1 19.5" stroke-width="2.00"/>
<path d="M 304.1 19.5 L 304.7 19.4" stroke-width="2.60"/>
<path d="M 304.7 19.4 L 305.6 19.3" stroke-width="3.00"/>
<path d="M 305.6 19.3 L 306.9 19.1" stroke-width="2.80"/>
<path d="M 306.9 19.1 L 308.4 18.7" stroke-width="2.40"/>
<path d="M 308.4 18.7 L 310.2 18.2" stroke-width="2.20"/>
<path d="M 310.2 18.2 L 312.1 17.8" stroke-width="2.00"/>
<path d="M 312.1 17.8 L 313.9 17.4 L 315.5 17.0 L 316.9 16.8" stroke-width="1.80"/>
<path d="M 316.9 16.8 L 317.8 16.7" stroke-width="2.00"/>
<path d="M 317.8 16.7 L 318.3 16.6" stroke-width="1.80"/>
<circle cx="331.8" cy="20.3" r="0.77" fill="currentColor" stroke="none"/>
<path d="M 331.8 20.3 L 331.8 19.9" stroke-width="2.00"/>
<path d="M 331.8 19.9 L 331.7 19.2" stroke-width="2.60"/>
<path d="M 331.7 19.2 L 331.4 18.3 L 331.0 17.6 L 330.3 17.1 L 329.3 17.1 L 328.2 17.5" stroke-width="2.80"/>
<path d="M 328.2 17.5 L 327.1 18.5" stroke-width="2.40"/>
<path d="M 327.1 18.5 L 326.0 20.1" stroke-width="2.20"/>
<path d="M 326.0 20.1 L 325.2 22.2" stroke-width="2.00"/>
<path d="M 325.2 22.2 L 324.8 24.4" stroke-width="1.80"/>
<path d="M 324.8 24.4 L 324.7 26.7 L 325.1 28.6 L 325.7 29.9" stroke-width="1.60"/>
<path d="M 325.7 29.9 L 326.7 30.6" stroke-width="1.80"/>
<path d="M 326.7 30.6 L 327.7 30.7" stroke-width="2.00"/>
<path d="M 327.7 30.7 L 328.8 30.1" stroke-width="2.20"/>
<path d="M 328.8 30.1 L 329.9 28.9 L 330.9 27.0" stroke-width="2.00"/>
<path d="M 330.9 27.0 L 331.8 24.9" stroke-width="1.80"/>
<path d="M 331.8 24.9 L 332.5 22.8 L 333.1 21.1" stroke-width="1.60"/>
<path d="M 333.1 21.1 L 333.4 19.9" stroke-width="1.80"/>
<path d="M 333.4 19.9 L 333.6 19.3" stroke-width="2.00"/>
<path d="M 333.6 19.3 L 333.6 19.3" stroke-width="2.60"/>
<path d="M 333.6 19.3 L 333.5 19.7 L 333.4 20.7" stroke-width="3.00"/>
<path d="M 333.4 20.7 L 333.2 22.2" stroke-width="2.80"/>
<path d="M 333.2 22.2 L 333.0 24.3" stroke-width="2.20"/>
<path d="M 333.0 24.3 L 332.8 26.9" stroke-width="1.80"/>
<path d="M 332.8 26.9 L 332.6 29.6" stroke-width="1.60"/>
<path d="M 332.6 29.6 L 332.4 32.5 L 332.0 35.3 L 331.5 38.0 L 330.8 40.5 L 330.0 42.6 L 329.1 44.4" stroke-width="1.40"/>
<path d="M 329.1 44.4 L 328.1 45.6 L 327.1 46.4" stroke-width="1.60"/>
<path d="M 327.1 46.4 L 326.0 46.6" stroke-width="1.80"/>
<path d="M 326.0 46.6 L 324.9 46.4" stroke-width="2.00"/>
<path d="M 324.9 46.4 L 323.8 45.7 L 322.9 44.7 L 322.2 43.4" stroke-width="2.20"/>
<path d="M 322.2 43.4 L 321.8 41.8 L 321.8 40.0" stroke-width="2.00"/>
<path d="M 321.8 40.0 L 322.2 38.1 L 323.0 36.0" stroke-width="1.80"/>
<path d="M 323.0 36.0 L 324.1 34.0 L 325.6 32.1 L 327.2 30.4" stroke-width="1.60"/>
<path d="M 327.2 30.4 L 329.0 29.0 L 330.8 27.9" stroke-width="1.40"/>
<path d="M 330.8 27.9 L 332.5 27.0 L 333.9 26.3" stroke-width="1.60"/>
<path d="M 333.9 26.3 L 334.7 25.9" stroke-width="1.40"/>
<circle cx="342.9" cy="17.6" r="0.77" fill="currentColor" stroke="none"/>
<path d="M 342.9 17.6 L 342.7 17.3" stroke-width="2.00"/>
<path d="M 342.7 17.3 L 342.4 17.0" stroke-width="2.60"/>
<path d="M 342.4 17.0 L 342.0 16.8 L 341.4 16.8 L 340.7 17.2" stroke-width="3.20"/>
<path d="M 340.7 17.2 L 339.8 18.2" stroke-width="3.00"/>
<path d="M 339.8 18.2 L 338.8 19.7" stroke-width="2.60"/>
<path d="M 338.8 19.7 L 337.9 21.7" stroke-width="2.20"/>
<path d="M 337.9 21.7 L 337.1 24.0" stroke-width="1.80"/>
<path d="M 337.1 24.0 L 336.6 26.4 L 336.5 28.5 L 336.7 30.1" stroke-width="1.60"/>
<path d="M 336.7 30.1 L 337.2 31.0" stroke-width="1.80"/>
<path d="M 337.2 31.0 L 337.8 31.3" stroke-width="2.00"/>
<path d="M 337.8 31.3 L 338.6 30.9 L 339.4 29.9" stroke-width="2.40"/>
<path d="M 339.4 29.9 L 340.2 28.4" stroke-width="2.20"/>
<path d="M 340.2 28.4 L 341.0 26.4" stroke-width="2.00"/>
<path d="M 341.0 26.4 L 341.7 24.2" stroke-width="1.80"/>
<path d="M 341.7 24.2 L 342.3 22.2 L 342.9 20.3" stroke-width="1.60"/>
<path d="M 342.9 20.3 L 343.3 18.9 L 343.7 17.8" stroke-width="1.80"/>
<path d="M 343.7 17.8 L 343.9 17.0" stroke-width="2.00"/>
<path d="M 343.9 17.0 L 344.2 16.6" stroke-width="2.40"/>
<path d="M 344.2 16.6 L 344.3 16.5" stroke-width="2.80"/>
<path d="M 344.3 16.5 L 344.4 16.7 L 344.5 17.1 L 344.6 17.6 L 344.7 18.2" stroke-width="3.20"/>
<path d="M 344.7 18.2 L 344.9 18.7" stroke-width="3.00"/>
<path d="M 344.9 18.7 L 345.0 18.9" stroke-width="2.60"/>
<circle cx="347.8" cy="24.1" r="0.77" fill="currentColor" stroke="none"/>
<path d="M 347.8 24.1 L 348.1 24.1" stroke-width="2.00"/>
<path d="M 348.1 24.1 L 348.6 23.9" stroke-width="2.60"/>
<path d="M 348.6 23.9 L 349.4 23.5" stroke-width="3.00"/>
<path d="M 349.4 23.5 L 350.3 22.9" stroke-width="2.80"/>
<path d="M 350.3 22.9 L 351.3 22.1" stroke-width="2.60"/>
<path d="M 351.3 22.1 L 352.3 21.0" stroke-width="2.40"/>
<path d="M 352.3 21.0 L 353.1 19.9 L 353.7 18.6 L 354.1 17.4 L 354.1 16.4" stroke-width="2.20"/>
<path d="M 354.1 16.4 L 353.8 15.7" stroke-width="2.40"/>
<path d="M 353.8 15.7 L 353.1 15.4 L 352.1 15.6 L 351.0 16.3" stroke-width="2.60"/>
<path d="M 351.0 16.3 L 349.7 17.5" stroke-width="2.20"/>
<path d="M 349.7 17.5 L 348.4 19.3" stroke-width="2.00"/>
<path d="M 348.4 19.3 L 347.4 21.4" stroke-width="1.80"/>
<path d="M 347.4 21.4 L 346.7 23.7 L 346.4 25.8 L 346.5 27.8 L 347.1 29.2" stroke-width="1.60"/>
<path d="M 347.1 29.2 L 348.0 30.2" stroke-width="1.80"/>
<path d="M 348.0 30.2 L 349.2 30.6 L 350.6 30.4 L 352.1 29.6" stroke-width="2.00"/>
<path d="M 352.1 29.6 L 353.7 28.2" stroke-width="1.80"/>
<path d="M 353.7 28.2 L 354.9 27.0" stroke-width="1.60"/>
<path d="M 354.9 27.0 L 355.7 26.0" stroke-width="1.40"/>
<circle cx="362.4" cy="16.3" r="0.77" fill="currentColor" stroke="none"/>
<path d="M 362.4 16.3 L 362.4 16.0" stroke-width="2.00"/>
<path d="M 362.4 16.0 L 362.3 15.6" stroke-width="2.60"/>
<path d="M 362.3 15.6 L 362.0 15.3 L 361.5 15.2 L 360.7 15.4" stroke-width="3.20"/>
<path d="M 360.7 15.4 L 359.9 16.0" stroke-width="3.00"/>
<path d="M 359.9 16.0 L 359.1 16.9" stroke-width="2.80"/>
<path d="M 359.1 16.9 L 358.4 18.1" stroke-width="2.60"/>
<path d="M 358.4 18.1 L 358.0 19.4 L 358.1 20.8" stroke-width="2.40"/>
<path d="M 358.1 20.8 L 358.6 22.2" stroke-width="2.20"/>
<path d="M 358.6 22.2 L 359.4 23.7 L 360.4 25.1 L 361.4 26.4 L 362.0 27.6 L 362.2 28.6" stroke-width="2.00"/>
<path d="M 362.2 28.6 L 362.0 29.5" stroke-width="2.20"/>
<path d="M 362.0 29.5 L 361.2 30.2 L 360.2 30.7 L 358.9 31.0" stroke-width="2.40"/>
<path d="M 358.9 31.0 L 357.5 31.0 L 356.3 30.8 L 355.4 30.6" stroke-width="2.20"/>
<path d="M 355.4 30.6 L 354.9 30.4" stroke-width="2.00"/>
</svg>
