<svg xmlns="http://www.w3.org/2000/svg" viewBox="0 0 387.2 42.9" fill="none" stroke="currentColor" stroke-linecap="round" stroke-linejoin="round" role="img">
<circle cx="13.4" cy="17.2" r="0.63" fill="currentColor" stroke="none"/>
<path d="M 13.4 17.2 L 13.1 17.0" stroke-width="1.60"/>
<path d="M 13.1 17.0 L 12.4 16.9 L 11.4 16.9 L 10.2 17.2" stroke-width="2.20"/>
<path d="M 10.2 17.2 L 8.9 18.0" stroke-width="2.00"/>
<path d="M 8.9 18.0 L 7.6 19.2" stroke-width="1.80"/>
<path d="M 7.6 19.2 L 6.6 20.7 L 6.0 22.4 L 6.0 23.9 L 6.4 25.2 L 7.3 25.9" stroke-width="1.60"/>
<path d="M 7.3 25.9 L 8.4 26.0 L 9.7 25.4" stroke-width="1.80"/>
<path d="M 9.7 25.4 L 11.0 24.2 L 12.3 22.5" stroke-width="1.60"/>
<path d="M 12.3 22.5 L 13.4 20.7 L 14.1 19.1 L 14.6 17.9" stroke-width="1.40"/>
<path d="M 14.6 17.9 L 14.7 17.2" stroke-width="1.60"/>
<path d="M 14.7 17.2 L 14.7 17.1" stroke-width="2.00"/>
<path d="M 14.7 17.1 L 14.6 17.5 L 14.5 18.6" stroke-width="2.40"/>
<path d="M 14.5 18.6 L 14.5 20.1" stroke-width="2.20"/>
<path d="M 14.5 20.1 L 14.9 22.0" stroke-width="1.80"/>
<path d="M 14.9 22.0 L 15.6 24.0" stroke-width="1.60"/>
<path d="M 15.6 24.0 L 16.7 25.9 L 17.7 27.2" stroke-width="1.40"/>
<path d="M 17.7 27.2 L 18.5 27.9" stroke-width="1.20"/>
<circle cx="31.6" cy="6.4" r="0.63" fill="currentColor" stroke="none"/>
<path d="M 31.6 6.4 L 31.5 6.9" stroke-width="1.60"/>
<path d="M 31.5 6.9 L 31.3 7.9 L 31.1 9.6" stroke-width="2.00"/>
<path d="M 31.1 9.6 L 30.8 11.8" stroke-width="1.60"/>
<path d="M 30.8 11.8 L 30.7 14.4" stroke-width="1.40"/>
<path d="M 30.7 14.4 L 30.6 17.2 L 30.7 20.1" stroke-width="1.20"/>
<path d="M 30.7 20.1 L 31.2 22.7" stroke-width="1.00"/>
<path d="M 31.2 22.7 L 32.0 24.8 L 33.2 26.2 L 34.7 26.6" stroke-width="1.20"/>
<path d="M 34.7 26.6 L 36.6 26.2" stroke-width="1.40"/>
<path d="M 36.6 26.2 L 38.5 24.9 L 40.3 23.2 L 41.9 21.2 L 43.0 19.5 L 43.8 18.1" stroke-width="1.20"/>
<path d="M 43.8 18.1 L 44.1 17.2" stroke-width="1.40"/>
<path d="M 44.1 17.2 L 44.2 16.9" stroke-width="1.80"/>
<path d="M 44.2 16.9 L 44.0 17.3" stroke-width="2.00"/>
<path d="M 44.0 17.3 L 43.8 18.2" stroke-width="2.20"/>
<path d="M 43.8 18.2 L 43.6 19.7" stroke-width="2.00"/>
<path d="M 43.6 19.7 L 43.4 21.5" stroke-width="1.80"/>
<path d="M 43.4 21.5 L 43.5 23.4 L 43.8 25.1 L 44.3 26.1 L 44.9 26.6 L 45.3 26.7" stroke-width="1.60"/>
<circle cx="45.7" cy="9.2" r="0.63" fill="currentColor" stroke="none"/>
<path d="M 45.7 9.2 L 45.7 9.2" stroke-width="1.60"/>
<path d="M 45.7 9.2 L 45.8 9.3 L 45.9 9.4" stroke-width="2.40"/>
<path d="M 45.9 9.4 L 46.1 9.6" stroke-width="2.00"/>
<circle cx="52.0" cy="16.4" r="0.63" fill="currentColor" stroke="none"/>
<path d="M 52.0 16.4 L 52.0 16.8" stroke-width="1.60"/>
<path d="M 52.0 16.8 L 52.0 17.6" stroke-width="2.00"/>
<path d="M 52.0 17.6 L 51.8 18.8" stroke-width="2.20"/>
<path d="M 51.8 18.8 L 51.7 20.3" stroke-width="2.00"/>
<path d="M 51.7 20.3 L 51.5 21.9 L 51.3 23.4 L 51.2 24.6 L 51.3 25.4" stroke-width="1.80"/>
<path d="M 51.3 25.4 L 51.5 25.6" stroke-width="2.20"/>
<path d="M 51.5 25.6 L 51.9 25.2 L 52.5 24.1" stroke-width="2.40"/>
<path d="M 52.5 24.1 L 53.4 22.7" stroke-width="2.00"/>
<path d="M 53.4 22.7 L 54.5 21.0" stroke-width="1.80"/>
<path d="M 54.5 21.0 L 55.7 19.4" stroke-width="1.60"/>
<path d="M 55.7 19.4 L 57.0 18.1 L 58.1 17.2" stroke-width="1.40"/>
<path d="M 58.1 17.2 L 59.2 16.8" stroke-width="1.60"/>
<path d="M 59.2 16.8 L 60.0 17.1 L 60.6 18.0 L 61.0 19.4 L 61.3 21.1" stroke-width="1.80"/>
<path d="M 61.3 21.1 L 61.5 22.8 L 61.7 24.5 L 62.2 25.7 L 62.9 26.4" stroke-width="1.60"/>
<path d="M 62.9 26.4 L 64.0 26.6 L 65.5 26.0" stroke-width="1.80"/>
<path d="M 65.5 26.0 L 67.0 24.9" stroke-width="1.60"/>
<path d="M 67.0 24.9 L 68.6 23.3 L 70.1 21.4" stroke-width="1.40"/>
<path d="M 70.1 21.4 L 71.1 19.5" stroke-width="1.20"/>
<path d="M 71.1 19.5 L 71.8 17.9 L 71.9 16.6" stroke-width="1.40"/>
<path d="M 71.9 16.6 L 71.6 15.7" stroke-width="1.60"/>
<path d="M 71.6 15.7 L 70.9 15.5" stroke-width="1.80"/>
<path d="M 70.9 15.5 L 69.9 15.9" stroke-width="2.00"/>
<path d="M 69.9 15.9 L 68.9 16.9 L 67.9 18.4" stroke-width="1.80"/>
<path d="M 67.9 18.4 L 67.3 20.2 L 67.4 22.1" stroke-width="1.60"/>
<path d="M 67.4 22.1 L 68.2 23.8 L 69.7 25.0 L 71.4 25.8" stroke-width="1.40"/>
<path d="M 71.4 25.8 L 72.6 26.1" stroke-width="1.20"/>
<circle cx="92.0" cy="17.5" r="0.63" fill="currentColor" stroke="none"/>
<path d="M 92.0 17.5 L 91.7 17.3" stroke-width="1.60"/>
<path d="M 91.7 17.3 L 91.1 17.2" stroke-width="2.20"/>
<path d="M 91.1 17.2 L 90.2 17.2" stroke-width="2.40"/>
<path d="M 90.2 17.2 L 89.1 17.7" stroke-width="2.20"/>
<path d="M 89.1 17.7 L 88.0 18.5" stroke-width="2.00"/>
<path d="M 88.0 18.5 L 87.0 19.7 L 86.3 21.1" stroke-width="1.80"/>
<path d="M 86.3 21.1 L 86.0 22.6 L 86.3 23.9" stroke-width="1.60"/>
<path d="M 86.3 23.9 L 87.1 24.9 L 88.3 25.3" stroke-width="1.80"/>
<path d="M 88.3 25.3 L 89.9 25.2 L 91.7 24.4" stroke-width="1.60"/>
<path d="M 91.7 24.4 L 93.4 23.1 L 94.8 21.5 L 95.6 19.8 L 95.9 18.2 L 95.6 16.8" stroke-width="1.40"/>
<path d="M 95.6 16.8 L 94.7 15.9 L 93.6 15.5" stroke-width="1.60"/>
<path d="M 93.6 15.5 L 92.4 15.7 L 91.5 16.3 L 90.9 17.0" stroke-width="1.80"/>
<path d="M 90.9 17.0 L 90.6 17.5" stroke-width="1.60"/>
<circle cx="106.7" cy="9.2" r="0.63" fill="currentColor" stroke="none"/>
<path d="M 106.7 9.2 L 106.6 8.5" stroke-width="1.60"/>
<path d="M 106.6 8.5 L 106.3 7.6" stroke-width="1.80"/>
<path d="M 106.3 7.6 L 105.8 6.6 L 105.1 6.0" stroke-width="2.00"/>
<path d="M 105.1 6.0 L 104.3 6.0 L 103.4 6.7" stroke-width="2.20"/>
<path d="M 103.4 6.7 L 102.6 8.0" stroke-width="2.00"/>
<path d="M 102.6 8.0 L 101.9 9.9" stroke-width="1.80"/>
<path d="M 101.9 9.9 L 101.5 12.3" stroke-width="1.60"/>
<path d="M 101.5 12.3 L 101.3 15.2" stroke-width="1.40"/>
<path d="M 101.3 15.2 L 101.4 18.3" stroke-width="1.20"/>
<path d="M 101.4 18.3 L 101.7 21.5 L 102.2 24.6 L 102.8 27.4 L 103.4 29.8 L 104.0 31.4" stroke-width="1.00"/>
<path d="M 104.0 31.4 L 104.6 32.1" stroke-width="1.20"/>
<path d="M 104.6 32.1 L 105.0 32.0" stroke-width="1.60"/>
<path d="M 105.0 32.0 L 105.3 31.6" stroke-width="1.80"/>
<path d="M 105.3 31.6 L 105.4 31.0" stroke-width="1.60"/>
<circle cx="99.2" cy="20.3" r="0.63" fill="currentColor" stroke="none"/>
<path d="M 99.2 20.3 L 99.7 20.3" stroke-width="1.60"/>
<path d="M 99.7 20.3 L 100.8 20.4 L 101.9 20.5" stroke-width="2.00"/>
<path d="M 101.9 20.5 L 102.9 20.6" stroke-width="1.60"/>
<circle cx="120.8" cy="17.7" r="0.63" fill="currentColor" stroke="none"/>
<path d="M 120.8 17.7 L 120.8 18.1" stroke-width="1.60"/>
<path d="M 120.8 18.1 L 120.8 18.9" stroke-width="2.00"/>
<path d="M 120.8 18.9 L 120.7 20.2" stroke-width="2.20"/>
<path d="M 120.7 20.2 L 120.6 21.7" stroke-width="2.00"/>
<path d="M 120.6 21.7 L 120.5 23.3 L 120.4 24.8" stroke-width="1.80"/>
<path d="M 120.4 24.8 L 120.4 25.9 L 120.5 26.5" stroke-width="1.60"/>
<circle cx="120.7" cy="11.7" r="0.63" fill="currentColor" stroke="none"/>
<path d="M 120.7 11.7 L 120.7 11.7" stroke-width="1.60"/>
<path d="M 120.7 11.7 L 120.8 11.8 L 120.9 11.9" stroke-width="2.40"/>
<path d="M 120.9 11.9 L 121.1 12.0" stroke-width="2.00"/>
<circle cx="125.0" cy="18.7" r="0.63" fill="currentColor" stroke="none"/>
<path d="M 125.0 18.7 L 125.0 19.4" stroke-width="1.60"/>
<path d="M 125.0 19.4 L 124.9 20.7 L 124.8 22.3 L 124.6 23.9" stroke-width="1.80"/>
<path d="M 124.6 23.9 L 124.6 25.2" stroke-width="1.60"/>
<path d="M 124.6 25.2 L 124.7 26.1" stroke-width="1.80"/>
<path d="M 124.7 26.1 L 124.9 26.4" stroke-width="2.00"/>
<path d="M 124.9 26.4 L 125.3 26.2 L 125.9 25.3" stroke-width="2.40"/>
<path d="M 125.9 25.3 L 126.9 24.1" stroke-width="2.20"/>
<path d="M 126.9 24.1 L 128.0 22.6" stroke-width="1.80"/>
<path d="M 128.0 22.6 L 129.1 21.1 L 130.2 20.0 L 131.2 19.2" stroke-width="1.60"/>
<path d="M 131.2 19.2 L 131.9 19.0" stroke-width="1.80"/>
<path d="M 131.9 19.0 L 132.4 19.4" stroke-width="2.00"/>
<path d="M 132.4 19.4 L 132.6 20.3" stroke-width="2.20"/>
<path d="M 132.6 20.3 L 132.7 21.7" stroke-width="2.00"/>
<path d="M 132.7 21.7 L 132.7 23.5" stroke-width="1.80"/>
<path d="M 132.7 23.5 L 132.7 25.3 L 132.8 26.8 L 133.2 27.7" stroke-width="1.60"/>
<path d="M 133.2 27.7 L 133.7 28.1" stroke-width="1.80"/>
<path d="M 133.7 28.1 L 134.1 28.1" stroke-width="1.60"/>
<circle cx="139.5" cy="9.0" r="0.63" fill="currentColor" stroke="none"/>
<path d="M 139.5 9.0 L 139.5 9.1" stroke-width="1.60"/>
<path d="M 139.5 9.1 L 139.4 9.7" stroke-width="2.20"/>
<path d="M 139.4 9.7 L 139.4 10.8" stroke-width="2.40"/>
<path d="M 139.4 10.8 L 139.3 12.5" stroke-width="2.00"/>
<path d="M 139.3 12.5 L 139.1 14.7" stroke-width="1.80"/>
<path d="M 139.1 14.7 L 139.0 17.1 L 138.8 19.6" stroke-width="1.40"/>
<path d="M 138.8 19.6 L 138.8 21.8 L 139.0 23.6" stroke-width="1.20"/>
<path d="M 139.0 23.6 L 139.4 24.9" stroke-width="1.40"/>
<path d="M 139.4 24.9 L 140.1 25.5" stroke-width="1.60"/>
<path d="M 140.1 25.5 L 141.1 25.3 L 142.3 24.6" stroke-width="1.80"/>
<path d="M 142.3 24.6 L 143.6 23.4 L 145.0 21.9" stroke-width="1.60"/>
<path d="M 145.0 21.9 L 146.3 20.3 L 147.4 18.8 L 148.3 17.5 L 148.8 16.5 L 149.0 16.0" stroke-width="1.40"/>
<circle cx="144.5" cy="20.6" r="0.63" fill="currentColor" stroke="none"/>
<path d="M 144.5 20.6 L 144.8 21.1" stroke-width="1.60"/>
<path d="M 144.8 21.1 L 145.3 22.1 L 146.2 23.3" stroke-width="2.00"/>
<path d="M 146.2 23.3 L 147.4 24.4" stroke-width="1.80"/>
<path d="M 147.4 24.4 L 148.8 25.4 L 150.4 26.2 L 152.0 26.7 L 153.6 26.9 L 155.0 26.7 L 156.2 26.2 L 156.9 25.6 L 157.3 25.2" stroke-width="1.60"/>
<circle cx="162.4" cy="24.6" r="0.63" fill="currentColor" stroke="none"/>
<path d="M 162.4 24.6 L 162.1 25.5" stroke-width="1.40"/>
<path d="M 162.1 25.5 L 161.6 27.0" stroke-width="1.80"/>
<path d="M 161.6 27.0 L 161.0 29.0" stroke-width="1.60"/>
<path d="M 161.0 29.0 L 160.2 31.1 L 159.4 33.1 L 158.7 34.7 L 158.2 35.7 L 158.0 36.2" stroke-width="1.40"/>
<circle cx="176.3" cy="11.2" r="0.63" fill="currentColor" stroke="none"/>
<path d="M 176.3 11.2 L 176.3 11.9" stroke-width="1.60"/>
<path d="M 176.3 11.9 L 176.2 13.2 L 176.2 15.2" stroke-width="1.80"/>
<path d="M 176.2 15.2 L 176.2 17.6" stroke-width="1.60"/>
<path d="M 176.2 17.6 L 176.1 20.1" stroke-width="1.40"/>
<path d="M 176.1 20.1 L 176.0 22.6 L 175.9 25.0 L 175.8 27.1 L 175.7 28.6" stroke-width="1.20"/>
<path d="M 175.7 28.6 L 175.5 29.4" stroke-width="1.40"/>
<path d="M 175.5 29.4 L 175.4 29.7" stroke-width="1.60"/>
<path d="M 175.4 29.7 L 175.3 29.6" stroke-width="1.80"/>
<circle cx="169.8" cy="20.1" r="0.63" fill="currentColor" stroke="none"/>
<path d="M 169.8 20.1 L 170.2 20.2" stroke-width="1.60"/>
<path d="M 170.2 20.2 L 171.1 20.4 L 172.5 20.5" stroke-width="2.00"/>
<path d="M 172.5 20.5 L 174.3 20.5" stroke-width="1.80"/>
<path d="M 174.3 20.5 L 176.4 20.2" stroke-width="1.60"/>
<path d="M 176.4 20.2 L 178.5 19.6 L 180.2 19.0" stroke-width="1.40"/>
<path d="M 180.2 19.0 L 181.1 18.5" stroke-width="1.20"/>
<circle cx="183.3" cy="10.7" r="0.63" fill="currentColor" stroke="none"/>
<path d="M 183.3 10.7 L 183.3 11.1" stroke-width="1.60"/>
<path d="M 183.3 11.1 L 183.3 12.1 L 183.4 13.6" stroke-width="2.00"/>
<path d="M 183.4 13.6 L 183.5 15.6" stroke-width="1.80"/>
<path d="M 183.5 15.6 L 183.5 17.8" stroke-width="1.60"/>
<path d="M 183.5 17.8 L 183.7 20.1 L 183.9 22.3 L 184.1 24.0 L 184.5 25.2" stroke-width="1.40"/>
<path d="M 184.5 25.2 L 185.1 25.7" stroke-width="1.60"/>
<path d="M 185.1 25.7 L 185.7 25.6" stroke-width="1.80"/>
<path d="M 185.7 25.6 L 186.6 24.8" stroke-width="2.00"/>
<path d="M 186.6 24.8 L 187.6 23.6 L 188.6 22.1" stroke-width="1.80"/>
<path d="M 188.6 22.1 L 189.7 20.6 L 190.6 19.3 L 191.4 18.4" stroke-width="1.60"/>
<path d="M 191.4 18.4 L 191.9 18.1" stroke-width="1.80"/>
<path d="M 191.9 18.1 L 192.2 18.2" stroke-width="2.20"/>
<path d="M 192.2 18.2 L 192.4 18.9" stroke-width="2.40"/>
<path d="M 192.4 18.9 L 192.5 20.1" stroke-width="2.20"/>
<path d="M 192.5 20.1 L 192.6 21.7" stroke-width="2.00"/>
<path d="M 192.6 21.7 L 192.8 23.3 L 193.1 24.7 L 193.7 25.6 L 194.6 26.0" stroke-width="1.80"/>
<path d="M 194.6 26.0 L 195.6 25.7" stroke-width="2.00"/>
<path d="M 195.6 25.7 L 196.9 24.9 L 198.1 23.6" stroke-width="1.80"/>
<path d="M 198.1 23.6 L 199.4 22.0" stroke-width="1.60"/>
<path d="M 199.4 22.0 L 200.5 20.4 L 201.3 19.2" stroke-width="1.40"/>
<path d="M 201.3 19.2 L 201.8 18.4" stroke-width="1.60"/>
<path d="M 201.8 18.4 L 202.0 18.2" stroke-width="1.80"/>
<path d="M 202.0 18.2 L 202.0 18.6" stroke-width="2.20"/>
<path d="M 202.0 18.6 L 201.9 19.6" stroke-width="2.40"/>
<path d="M 201.9 19.6 L 201.7 21.0" stroke-width="2.20"/>
<path d="M 201.7 21.0 L 201.5 22.7" stroke-width="2.00"/>
<path d="M 201.5 22.7 L 201.4 24.4" stroke-width="1.80"/>
<path d="M 201.4 24.4 L 201.5 25.7" stroke-width="1.60"/>
<path d="M 201.5 25.7 L 201.7 26.5" stroke-width="1.80"/>
<path d="M 201.7 26.5 L 202.1 26.6" stroke-width="2.00"/>
<path d="M 202.1 26.6 L 202.4 26.3" stroke-width="2.20"/>
<path d="M 202.4 26.3 L 202.6 25.9" stroke-width="2.00"/>
<circle cx="202.6" cy="11.0" r="0.63" fill="currentColor" stroke="none"/>
<path d="M 202.6 11.0 L 202.6 11.1" stroke-width="1.60"/>
<path d="M 202.6 11.1 L 202.8 11.2 L 203.0 11.4" stroke-width="2.40"/>
<path d="M 203.0 11.4 L 203.2 11.7" stroke-width="2.00"/>
<circle cx="208.9" cy="17.1" r="0.63" fill="currentColor" stroke="none"/>
<path d="M 208.9 17.1 L 209.0 17.5" stroke-width="1.60"/>
<path d="M 209.0 17.5 L 209.0 18.4" stroke-width="2.00"/>
<path d="M 209.0 18.4 L 209.0 19.6" stroke-width="2.20"/>
<path d="M 209.0 19.6 L 208.9 21.1" stroke-width="2.00"/>
<path d="M 208.9 21.1 L 208.8 22.6 L 208.8 23.9 L 208.9 24.9" stroke-width="1.80"/>
<path d="M 208.9 24.9 L 209.2 25.5" stroke-width="2.00"/>
<path d="M 209.2 25.5 L 209.7 25.5" stroke-width="2.20"/>
<path d="M 209.7 25.5 L 210.4 24.9" stroke-width="2.40"/>
<path d="M 210.4 24.9 L 211.4 23.9" stroke-width="2.20"/>
<path d="M 211.4 23.9 L 212.5 22.5" stroke-width="2.00"/>
<path d="M 212.5 22.5 L 213.7 21.1 L 214.9 19.8 L 216.0 18.7 L 217.0 18.1" stroke-width="1.60"/>
<path d="M 217.0 18.1 L 217.7 17.8" stroke-width="1.80"/>
<path d="M 217.7 17.8 L 218.2 18.0" stroke-width="2.00"/>
<path d="M 218.2 18.0 L 218.5 18.7 L 218.7 19.8" stroke-width="2.20"/>
<path d="M 218.7 19.8 L 218.7 21.3" stroke-width="2.00"/>
<path d="M 218.7 21.3 L 218.7 22.8 L 218.7 24.0" stroke-width="1.80"/>
<path d="M 218.7 24.0 L 218.7 24.7" stroke-width="1.60"/>
<circle cx="224.5" cy="9.5" r="0.63" fill="currentColor" stroke="none"/>
<path d="M 224.5 9.5 L 224.6 9.6" stroke-width="1.60"/>
<path d="M 224.6 9.6 L 224.8 9.8" stroke-width="2.40"/>
<path d="M 224.8 9.8 L 224.9 10.6" stroke-width="2.60"/>
<path d="M 224.9 10.6 L 224.9 11.9" stroke-width="2.40"/>
<path d="M 224.9 11.9 L 224.9 13.7" stroke-width="2.00"/>
<path d="M 224.9 13.7 L 224.7 15.8" stroke-width="1.80"/>
<path d="M 224.7 15.8 L 224.5 18.2 L 224.3 20.5 L 224.3 22.5 L 224.3 24.1 L 224.4 25.1" stroke-width="1.40"/>
<path d="M 224.4 25.1 L 224.7 25.4" stroke-width="1.80"/>
<path d="M 224.7 25.4 L 225.3 25.1 L 226.1 24.2" stroke-width="2.00"/>
<path d="M 226.1 24.2 L 227.2 22.8" stroke-width="1.80"/>
<path d="M 227.2 22.8 L 228.4 21.2 L 229.6 19.6" stroke-width="1.60"/>
<path d="M 229.6 19.6 L 230.6 18.2" stroke-width="1.40"/>
<path d="M 230.6 18.2 L 231.4 17.2 L 231.8 16.6" stroke-width="1.60"/>
<path d="M 231.8 16.6 L 231.8 16.5" stroke-width="2.00"/>
<path d="M 231.8 16.5 L 231.4 16.9 L 230.6 17.8" stroke-width="2.40"/>
<path d="M 230.6 17.8 L 229.7 19.1" stroke-width="2.20"/>
<path d="M 229.7 19.1 L 228.6 20.6" stroke-width="1.80"/>
<path d="M 228.6 20.6 L 227.7 22.3 L 227.1 23.9 L 227.1 25.3 L 227.5 26.3" stroke-width="1.60"/>
<path d="M 227.5 26.3 L 228.5 26.7 L 229.6 26.8" stroke-width="1.80"/>
<path d="M 229.6 26.8 L 230.3 26.8" stroke-width="1.60"/>
<circle cx="237.2" cy="18.1" r="0.63" fill="currentColor" stroke="none"/>
<path d="M 237.2 18.1 L 237.2 17.9" stroke-width="1.60"/>
<path d="M 237.2 17.9 L 237.0 17.9" stroke-width="2.40"/>
<path d="M 237.0 17.9 L 236.9 18.2 L 236.7 18.8 L 236.5 20.0" stroke-width="2.60"/>
<path d="M 236.5 20.0 L 236.2 21.4" stroke-width="2.20"/>
<path d="M 236.2 21.4 L 236.0 22.9" stroke-width="2.00"/>
<path d="M 236.0 22.9 L 236.0 24.3 L 236.1 25.3" stroke-width="1.80"/>
<path d="M 236.1 25.3 L 236.4 25.7" stroke-width="2.00"/>
<path d="M 236.4 25.7 L 236.7 25.8" stroke-width="2.20"/>
<path d="M 236.7 25.8 L 237.0 25.6" stroke-width="2.00"/>
<circle cx="239.0" cy="11.0" r="0.63" fill="currentColor" stroke="none"/>
<path d="M 239.0 11.0 L 239.0 10.9" stroke-width="1.60"/>
<path d="M 239.0 10.9 L 239.1 10.8 L 239.1 10.8" stroke-width="2.40"/>
<path d="M 239.1 10.8 L 239.2 10.8" stroke-width="2.00"/>
<circle cx="243.2" cy="18.4" r="0.63" fill="currentColor" stroke="none"/>
<path d="M 243.2 18.4 L 243.2 18.9" stroke-width="1.60"/>
<path d="M 243.2 18.9 L 243.2 19.8 L 243.2 21.1 L 243.1 22.4 L 242.9 23.6 L 242.9 24.6 L 243.0 25.4" stroke-width="2.00"/>
<path d="M 243.0 25.4 L 243.2 25.7" stroke-width="2.20"/>
<path d="M 243.2 25.7 L 243.5 25.6 L 244.1 25.0" stroke-width="2.60"/>
<path d="M 244.1 25.0 L 244.8 23.9" stroke-width="2.40"/>
<path d="M 244.8 23.9 L 245.7 22.6" stroke-width="2.20"/>
<path d="M 245.7 22.6 L 246.8 21.2" stroke-width="1.80"/>
<path d="M 246.8 21.2 L 248.0 19.9 L 249.3 18.8 L 250.5 18.1 L 251.6 17.7" stroke-width="1.60"/>
<path d="M 251.6 17.7 L 252.5 17.8" stroke-width="1.80"/>
<path d="M 252.5 17.8 L 253.2 18.4 L 253.6 19.5 L 253.8 20.9" stroke-width="2.00"/>
<path d="M 253.8 20.9 L 253.9 22.5" stroke-width="1.80"/>
<path d="M 253.9 22.5 L 254.0 23.8" stroke-width="1.60"/>
<path d="M 254.0 23.8 L 254.0 24.6" stroke-width="1.40"/>
<circle cx="264.6" cy="20.3" r="0.63" fill="currentColor" stroke="none"/>
<path d="M 264.6 20.3 L 264.6 19.8" stroke-width="1.60"/>
<path d="M 264.6 19.8 L 264.3 19.1" stroke-width="2.00"/>
<path d="M 264.3 19.1 L 263.8 18.5 L 262.9 18.1 L 261.7 18.1" stroke-width="2.20"/>
<path d="M 261.7 18.1 L 260.4 18.6" stroke-width="2.00"/>
<path d="M 260.4 18.6 L 259.1 19.4 L 258.1 20.3 L 257.7 21.3" stroke-width="1.80"/>
<path d="M 257.7 21.3 L 257.7 22.2 L 258.3 22.7 L 259.4 22.9 L 260.8 22.7" stroke-width="2.00"/>
<path d="M 260.8 22.7 L 262.3 22.2 L 263.8 21.5" stroke-width="1.80"/>
<path d="M 263.8 21.5 L 265.1 20.8 L 266.2 20.3" stroke-width="1.60"/>
<path d="M 266.2 20.3 L 266.9 19.9" stroke-width="1.80"/>
<path d="M 266.9 19.9 L 267.2 19.8" stroke-width="2.00"/>
<path d="M 267.2 19.8 L 267.4 20.0" stroke-width="2.40"/>
<path d="M 267.4 20.0 L 267.3 20.7" stroke-width="2.60"/>
<path d="M 267.3 20.7 L 267.2 21.8" stroke-width="2.40"/>
<path d="M 267.2 21.8 L 267.0 23.2" stroke-width="2.20"/>
<path d="M 267.0 23.2 L 266.9 24.9" stroke-width="2.00"/>
<path d="M 266.9 24.9 L 266.7 26.8" stroke-width="1.80"/>
<path d="M 266.7 26.8 L 266.6 28.8" stroke-width="1.60"/>
<path d="M 266.6 28.8 L 266.4 30.8 L 266.1 32.7 L 265.8 34.3 L 265.2 35.6" stroke-width="1.40"/>
<path d="M 265.2 35.6 L 264.5 36.5 L 263.5 36.9" stroke-width="1.60"/>
<path d="M 263.5 36.9 L 262.4 36.8 L 261.3 36.3 L 260.4 35.6" stroke-width="1.80"/>
<path d="M 260.4 35.6 L 259.9 35.1" stroke-width="1.60"/>
<circle cx="286.7" cy="18.2" r="0.63" fill="currentColor" stroke="none"/>
<path d="M 286.7 18.2 L 286.6 18.0" stroke-width="1.60"/>
<path d="M 286.6 18.0 L 286.3 17.6" stroke-width="2.20"/>
<path d="M 286.3 17.6 L 285.9 17.2 L 285.1 16.9" stroke-width="2.60"/>
<path d="M 285.1 16.9 L 284.1 16.9" stroke-width="2.40"/>
<path d="M 284.1 16.9 L 282.8 17.3" stroke-width="2.20"/>
<path d="M 282.8 17.3 L 281.3 18.1" stroke-width="2.00"/>
<path d="M 281.3 18.1 L 279.9 19.2" stroke-width="1.80"/>
<path d="M 279.9 19.2 L 278.8 20.6 L 278.1 22.0 L 277.9 23.2" stroke-width="1.60"/>
<path d="M 277.9 23.2 L 278.3 24.2 L 279.1 24.6 L 280.3 24.6 L 281.8 24.0" stroke-width="1.80"/>
<path d="M 281.8 24.0 L 283.4 23.0 L 285.0 21.7" stroke-width="1.60"/>
<path d="M 285.0 21.7 L 286.4 20.3 L 287.6 18.9 L 288.4 17.7" stroke-width="1.40"/>
<path d="M 288.4 17.7 L 288.9 16.9" stroke-width="1.60"/>
<path d="M 288.9 16.9 L 289.0 16.4" stroke-width="1.80"/>
<path d="M 289.0 16.4 L 289.0 16.4" stroke-width="2.20"/>
<path d="M 289.0 16.4 L 288.7 16.9" stroke-width="2.60"/>
<path d="M 288.7 16.9 L 288.3 17.9" stroke-width="2.40"/>
<path d="M 288.3 17.9 L 287.8 19.4" stroke-width="2.20"/>
<path d="M 287.8 19.4 L 287.5 21.0" stroke-width="2.00"/>
<path d="M 287.5 21.0 L 287.5 22.6 L 287.9 23.8 L 288.6 24.7 L 289.4 25.1" stroke-width="1.80"/>
<path d="M 289.4 25.1 L 290.0 25.1" stroke-width="1.60"/>
<circle cx="301.5" cy="15.7" r="0.63" fill="currentColor" stroke="none"/>
<path d="M 301.5 15.7 L 301.1 15.5" stroke-width="1.60"/>
<path d="M 301.1 15.5 L 300.3 15.4" stroke-width="2.00"/>
<path d="M 300.3 15.4 L 299.2 15.4" stroke-width="2.20"/>
<path d="M 299.2 15.4 L 297.9 15.7 L 296.6 16.3" stroke-width="2.00"/>
<path d="M 296.6 16.3 L 295.6 17.0 L 295.0 17.9" stroke-width="1.80"/>
<path d="M 295.0 17.9 L 295.0 18.8 L 295.7 19.8 L 296.8 20.7" stroke-width="2.00"/>
<path d="M 296.8 20.7 L 298.2 21.7" stroke-width="1.80"/>
<path d="M 298.2 21.7 L 299.6 22.6 L 300.8 23.4" stroke-width="1.60"/>
<path d="M 300.8 23.4 L 301.5 24.0" stroke-width="1.80"/>
<path d="M 301.5 24.0 L 301.5 24.5" stroke-width="2.00"/>
<path d="M 301.5 24.5 L 300.8 25.0 L 299.6 25.3" stroke-width="2.20"/>
<path d="M 299.6 25.3 L 297.9 25.5" stroke-width="2.00"/>
<path d="M 297.9 25.5 L 296.1 25.5" stroke-width="1.80"/>
<path d="M 296.1 25.5 L 294.4 25.5 L 293.1 25.2" stroke-width="1.60"/>
<path d="M 293.1 25.2 L 292.4 24.9" stroke-width="1.80"/>
<path d="M 292.4 24.9 L 292.2 24.6" stroke-width="2.00"/>
<path d="M 292.2 24.6 L 292.2 24.4" stroke-width="1.80"/>
<circle cx="314.6" cy="17.1" r="0.63" fill="currentColor" stroke="none"/>
<path d="M 314.6 17.1 L 314.6 17.6" stroke-width="1.60"/>
<path d="M 314.6 17.6 L 314.5 18.6 L 314.4 19.9" stroke-width="2.00"/>
<path d="M 314.4 19.9 L 314.2 21.4 L 314.1 22.9 L 314.0 24.2 L 313.9 25.1" stroke-width="1.80"/>
<path d="M 313.9 25.1 L 313.9 25.6" stroke-width="1.60"/>
<circle cx="315.2" cy="10.0" r="0.63" fill="currentColor" stroke="none"/>
<path d="M 315.2 10.0 L 315.2 9.9" stroke-width="1.60"/>
<path d="M 315.2 9.9 L 315.3 9.7" stroke-width="2.20"/>
<path d="M 315.3 9.7 L 315.4 9.5" stroke-width="2.40"/>
<path d="M 315.4 9.5 L 315.4 9.4" stroke-width="2.00"/>
<circle cx="324.6" cy="8.7" r="0.63" fill="currentColor" stroke="none"/>
<path d="M 324.6 8.7 L 324.6 9.2" stroke-width="1.60"/>
<path d="M 324.6 9.2 L 324.5 10.2 L 324.2 11.7" stroke-width="2.00"/>
<path d="M 324.2 11.7 L 323.9 13.6" stroke-width="1.80"/>
<path d="M 323.9 13.6 L 323.5 15.7" stroke-width="1.60"/>
<path d="M 323.5 15.7 L 323.1 18.0 L 322.9 20.3" stroke-width="1.40"/>
<path d="M 322.9 20.3 L 322.8 22.5 L 323.0 24.3" stroke-width="1.20"/>
<path d="M 323.0 24.3 L 323.3 25.6 L 323.7 26.4 L 323.9 26.7" stroke-width="1.40"/>
<circle cx="319.6" cy="17.4" r="0.63" fill="currentColor" stroke="none"/>
<path d="M 319.6 17.4 L 320.2 17.4" stroke-width="1.60"/>
<path d="M 320.2 17.4 L 321.4 17.5" stroke-width="2.00"/>
<path d="M 321.4 17.5 L 322.8 17.5" stroke-width="1.80"/>
<path d="M 322.8 17.5 L 323.8 17.6" stroke-width="1.60"/>
<circle cx="346.0" cy="16.9" r="0.63" fill="currentColor" stroke="none"/>
<path d="M 346.0 16.9 L 345.7 16.6" stroke-width="1.60"/>
<path d="M 345.7 16.6 L 345.1 16.3" stroke-width="2.00"/>
<path d="M 345.1 16.3 L 344.2 16.1 L 343.0 16.2" stroke-width="2.20"/>
<path d="M 343.0 16.2 L 341.7 16.6" stroke-width="2.00"/>
<path d="M 341.7 16.6 L 340.4 17.5 L 339.3 18.5 L 338.6 19.7 L 338.4 20.8 L 338.7 21.6" stroke-width="1.80"/>
<path d="M 338.7 21.6 L 339.6 22.1 L 340.9 22.0" stroke-width="2.00"/>
<path d="M 340.9 22.0 L 342.5 21.5" stroke-width="1.80"/>
<path d="M 342.5 21.5 L 344.1 20.7 L 345.6 19.5 L 346.8 18.4 L 347.6 17.3 L 348.0 16.5" stroke-width="1.60"/>
<path d="M 348.0 16.5 L 348.1 16.1" stroke-width="2.00"/>
<path d="M 348.1 16.1 L 348.0 16.1" stroke-width="2.40"/>
<path d="M 348.0 16.1 L 347.8 16.7" stroke-width="2.60"/>
<path d="M 347.8 16.7 L 347.6 17.8" stroke-width="2.40"/>
<path d="M 347.6 17.8 L 347.4 19.4" stroke-width="2.20"/>
<path d="M 347.4 19.4 L 347.2 21.4" stroke-width="1.80"/>
<path d="M 347.2 21.4 L 347.1 23.7" stroke-width="1.60"/>
<path d="M 347.1 23.7 L 347.1 26.1" stroke-width="1.40"/>
<path d="M 347.1 26.1 L 346.9 28.4 L 346.7 30.5" stroke-width="1.20"/>
<path d="M 346.7 30.5 L 346.3 32.1 L 345.6 33.3" stroke-width="1.40"/>
<path d="M 345.6 33.3 L 344.8 33.9 L 343.7 34.0" stroke-width="1.60"/>
<path d="M 343.7 34.0 L 342.7 33.6 L 341.7 32.7 L 341.1 31.8" stroke-width="1.80"/>
<path d="M 341.1 31.8 L 340.8 31.1" stroke-width="1.60"/>
<circle cx="357.2" cy="17.5" r="0.63" fill="currentColor" stroke="none"/>
<path d="M 357.2 17.5 L 357.0 17.2" stroke-width="1.60"/>
<path d="M 357.0 17.2 L 356.6 16.8" stroke-width="2.20"/>
<path d="M 356.6 16.8 L 355.7 16.6" stroke-width="2.40"/>
<path d="M 355.7 16.6 L 354.6 16.6" stroke-width="2.20"/>
<path d="M 354.6 16.6 L 353.3 17.0 L 352.0 17.8" stroke-width="2.00"/>
<path d="M 352.0 17.8 L 350.8 19.0" stroke-width="1.80"/>
<path d="M 350.8 19.0 L 350.1 20.4 L 349.9 21.7 L 350.3 22.9" stroke-width="1.60"/>
<path d="M 350.3 22.9 L 351.2 23.8 L 352.6 24.2" stroke-width="1.80"/>
<path d="M 352.6 24.2 L 354.2 24.1 L 355.8 23.5 L 357.2 22.4 L 358.2 21.0" stroke-width="1.60"/>
<path d="M 358.2 21.0 L 358.8 19.4" stroke-width="1.40"/>
<path d="M 358.8 19.4 L 358.8 17.9 L 358.5 16.7 L 357.8 15.8" stroke-width="1.60"/>
<path d="M 357.8 15.8 L 357.1 15.3" stroke-width="1.80"/>
<path d="M 357.1 15.3 L 356.3 15.2 L 355.8 15.4 L 355.5 15.6" stroke-width="2.00"/>
<circle cx="362.3" cy="20.7" r="0.63" fill="currentColor" stroke="none"/>
<path d="M 362.3 20.7 L 362.7 20.4" stroke-width="1.60"/>
<path d="M 362.7 20.4 L 363.4 19.8 L 364.3 19.0 L 365.2 18.0" stroke-width="2.00"/>
<path d="M 365.2 18.0 L 365.9 16.9 L 366.4 15.9" stroke-width="1.80"/>
<path d="M 366.4 15.9 L 366.6 15.0" stroke-width="2.00"/>
<path d="M 366.6 15.0 L 366.5 14.4" stroke-width="2.20"/>
<path d="M 366.5 14.4 L 366.0 14.1 L 365.3 14.2 L 364.3 14.8" stroke-width="2.40"/>
<path d="M 364.3 14.8 L 363.3 15.8" stroke-width="2.20"/>
<path d="M 363.3 15.8 L 362.3 17.1 L 361.7 18.6" stroke-width="1.80"/>
<path d="M 361.7 18.6 L 361.6 20.2 L 362.1 21.5 L 363.2 22.6 L 364.9 23.2" stroke-width="1.60"/>
<path d="M 364.9 23.2 L 366.5 23.4" stroke-width="1.40"/>
<path d="M 366.5 23.4 L 367.6 23.4" stroke-width="1.20"/>
<circle cx="378.2" cy="13.7" r="0.63" fill="currentColor" stroke="none"/>
<path d="M 378.2 13.7 L 377.7 13.5" stroke-width="1.60"/>
<path d="M 377.7 13.5 L 376.9 13.3" stroke-width="2.00"/>
<path d="M 376.9 13.3 L 375.7 13.3" stroke-width="2.20"/>
<path d="M 375.7 13.3 L 374.5 13.7 L 373.3 14.3 L 372.7 15.1 L 372.6 16.1 L 373.2 17.2" stroke-width="2.00"/>
<path d="M 373.2 17.2 L 374.5 18.4" stroke-width="1.80"/>
<path d="M 374.5 18.4 L 376.2 19.6" stroke-width="1.60"/>
<path d="M 376.2 19.6 L 378.0 20.8 L 379.6 21.8 L 380.7 22.7" stroke-width="1.40"/>
<path d="M 380.7 22.7 L 381.2 23.4" stroke-width="1.60"/>
<path d="M 381.2 23.4 L 380.8 23.8" stroke-width="1.80"/>
<path d="M 380.8 23.8 L 379.7 24.1" stroke-width="2.00"/>
<path d="M 379.7 24.1 L 377.9 24.1" stroke-width="1.80"/>
<path d="M 377.9 24.1 L 375.8 24.0" stroke-width="1.60"/>
<path d="M 375.8 24.0 L 373.8 23.8" stroke-width="1.40"/>
<path d="M 373.8 23.8 L 372.6 23.6" stroke-width="1.20"/>
</svg>
