<svg xmlns="http://www.w3.org/2000/svg" viewBox="0 0 524.5 56.0" fill="none" stroke="currentColor" stroke-linecap="round" stroke-linejoin="round" role="img">
<circle cx="6.1" cy="50.0" r="0.63" fill="currentColor" stroke="none"/>
<path d="M 6.1 50.0 L 6.0 49.9" stroke-width="1.60"/>
<path d="M 6.0 49.9 L 6.0 49.8" stroke-width="2.20"/>
<path d="M 6.0 49.8 L 6.0 49.7" stroke-width="2.00"/>
<circle cx="40.2" cy="23.9" r="0.63" fill="currentColor" stroke="none"/>
<path d="M 40.2 23.9 L 40.0 23.7" stroke-width="1.60"/>
<path d="M 40.0 23.7 L 39.7 23.4" stroke-width="2.20"/>
<path d="M 39.7 23.4 L 39.3 23.0 L 38.7 22.8 L 37.9 22.7" stroke-width="2.60"/>
<path d="M 37.9 22.7 L 36.9 22.9" stroke-width="2.40"/>
<path d="M 36.9 22.9 L 35.6 23.3" stroke-width="2.20"/>
<path d="M 35.6 23.3 L 34.1 24.1" stroke-width="2.00"/>
<path d="M 34.1 24.1 L 32.6 25.2" stroke-width="1.80"/>
<path d="M 32.6 25.2 L 31.2 26.7" stroke-width="1.60"/>
<path d="M 31.2 26.7 L 29.9 28.4 L 28.9 30.2 L 28.3 32.1 L 28.1 33.9 L 28.3 35.4 L 28.9 36.5" stroke-width="1.40"/>
<path d="M 28.9 36.5 L 29.9 37.1" stroke-width="1.60"/>
<path d="M 29.9 37.1 L 31.1 37.1 L 32.6 36.7" stroke-width="1.80"/>
<path d="M 32.6 36.7 L 34.2 35.8 L 35.8 34.5" stroke-width="1.60"/>
<path d="M 35.8 34.5 L 37.4 32.9 L 38.7 31.1" stroke-width="1.40"/>
<path d="M 38.7 31.1 L 39.8 29.3 L 40.6 27.6" stroke-width="1.20"/>
<path d="M 40.6 27.6 L 41.2 26.1 L 41.5 24.9" stroke-width="1.40"/>
<path d="M 41.5 24.9 L 41.6 24.0" stroke-width="1.60"/>
<path d="M 41.6 24.0 L 41.7 23.4" stroke-width="1.80"/>
<path d="M 41.7 23.4 L 41.6 23.1" stroke-width="2.20"/>
<path d="M 41.6 23.1 L 41.6 23.1" stroke-width="2.40"/>
<path d="M 41.6 23.1 L 41.6 23.6 L 41.7 24.4" stroke-width="2.60"/>
<path d="M 41.7 24.4 L 41.9 25.7" stroke-width="2.40"/>
<path d="M 41.9 25.7 L 42.1 27.2" stroke-width="2.20"/>
<path d="M 42.1 27.2 L 42.4 28.9 L 42.8 30.5" stroke-width="1.80"/>
<path d="M 42.8 30.5 L 43.2 32.1 L 43.7 33.6 L 44.3 34.7" stroke-width="1.60"/>
<path d="M 44.3 34.7 L 44.8 35.6" stroke-width="1.80"/>
<path d="M 44.8 35.6 L 45.3 36.1 L 45.6 36.4 L 45.8 36.4" stroke-width="2.00"/>
<circle cx="64.9" cy="8.2" r="0.63" fill="currentColor" stroke="none"/>
<path d="M 64.9 8.2 L 64.8 8.8" stroke-width="1.60"/>
<path d="M 64.8 8.8 L 64.8 9.9 L 64.7 11.4" stroke-width="2.00"/>
<path d="M 64.7 11.4 L 64.7 13.3" stroke-width="1.80"/>
<path d="M 64.7 13.3 L 64.8 15.3" stroke-width="1.60"/>
<path d="M 64.8 15.3 L 64.8 17.6 L 64.8 20.0" stroke-width="1.40"/>
<path d="M 64.8 20.0 L 64.9 22.5 L 64.9 25.0 L 65.0 27.3 L 65.1 29.4 L 65.3 31.2" stroke-width="1.20"/>
<path d="M 65.3 31.2 L 65.5 32.6 L 65.8 33.7" stroke-width="1.40"/>
<path d="M 65.8 33.7 L 66.1 34.3" stroke-width="1.60"/>
<path d="M 66.1 34.3 L 66.5 34.6" stroke-width="2.00"/>
<path d="M 66.5 34.6 L 66.9 34.4" stroke-width="2.20"/>
<path d="M 66.9 34.4 L 67.5 33.9 L 68.1 33.0" stroke-width="2.40"/>
<path d="M 68.1 33.0 L 68.8 31.9" stroke-width="2.20"/>
<path d="M 68.8 31.9 L 69.7 30.5" stroke-width="2.00"/>
<path d="M 69.7 30.5 L 70.6 29.0" stroke-width="1.80"/>
<path d="M 70.6 29.0 L 71.6 27.6 L 72.6 26.3 L 73.5 25.2 L 74.3 24.3" stroke-width="1.60"/>
<path d="M 74.3 24.3 L 75.0 23.8" stroke-width="1.80"/>
<path d="M 75.0 23.8 L 75.6 23.5" stroke-width="2.00"/>
<path d="M 75.6 23.5 L 75.9 23.6" stroke-width="2.20"/>
<path d="M 75.9 23.6 L 76.1 24.0 L 76.2 24.8" stroke-width="2.60"/>
<path d="M 76.2 24.8 L 76.3 26.0" stroke-width="2.40"/>
<path d="M 76.3 26.0 L 76.2 27.5" stroke-width="2.20"/>
<path d="M 76.2 27.5 L 76.2 29.1 L 76.1 30.8" stroke-width="1.80"/>
<path d="M 76.1 30.8 L 76.0 32.4 L 76.0 33.7" stroke-width="1.60"/>
<path d="M 76.0 33.7 L 76.0 34.6 L 76.0 35.2 L 76.1 35.5" stroke-width="1.80"/>
<circle cx="75.1" cy="9.7" r="0.63" fill="currentColor" stroke="none"/>
<path d="M 75.1 9.7 L 75.2 9.7" stroke-width="1.60"/>
<path d="M 75.2 9.7 L 75.3 9.9 L 75.4 10.1" stroke-width="2.40"/>
<path d="M 75.4 10.1 L 75.5 10.4" stroke-width="2.00"/>
<circle cx="82.7" cy="22.9" r="0.63" fill="currentColor" stroke="none"/>
<path d="M 82.7 22.9 L 82.8 22.9" stroke-width="1.60"/>
<path d="M 82.8 22.9 L 82.9 23.1" stroke-width="2.40"/>
<path d="M 82.9 23.1 L 83.0 23.5 L 83.0 24.3" stroke-width="2.60"/>
<path d="M 83.0 24.3 L 83.0 25.5" stroke-width="2.40"/>
<path d="M 83.0 25.5 L 82.8 27.1" stroke-width="2.20"/>
<path d="M 82.8 27.1 L 82.6 28.7 L 82.4 30.4" stroke-width="1.80"/>
<path d="M 82.4 30.4 L 82.2 31.9" stroke-width="1.60"/>
<path d="M 82.2 31.9 L 82.1 33.0 L 82.1 33.7" stroke-width="1.80"/>
<path d="M 82.1 33.7 L 82.1 34.0" stroke-width="2.20"/>
<path d="M 82.1 34.0 L 82.2 33.8" stroke-width="2.40"/>
<path d="M 82.2 33.8 L 82.4 33.1" stroke-width="2.60"/>
<path d="M 82.4 33.1 L 82.6 32.0" stroke-width="2.40"/>
<path d="M 82.6 32.0 L 83.0 30.5" stroke-width="2.20"/>
<path d="M 83.0 30.5 L 83.6 28.7" stroke-width="1.80"/>
<path d="M 83.6 28.7 L 84.3 26.9 L 85.2 25.2" stroke-width="1.60"/>
<path d="M 85.2 25.2 L 86.2 23.6 L 87.4 22.2 L 88.6 21.2" stroke-width="1.40"/>
<path d="M 88.6 21.2 L 89.8 20.5 L 91.0 20.3 L 92.2 20.5" stroke-width="1.60"/>
<path d="M 92.2 20.5 L 93.2 21.1 L 94.2 22.1 L 95.1 23.5" stroke-width="1.80"/>
<path d="M 95.1 23.5 L 95.7 25.1 L 96.2 26.8 L 96.6 28.6" stroke-width="1.60"/>
<path d="M 96.6 28.6 L 96.9 30.3 L 97.1 31.8" stroke-width="1.40"/>
<path d="M 97.1 31.8 L 97.2 33.0" stroke-width="1.60"/>
<path d="M 97.2 33.0 L 97.4 33.9" stroke-width="1.80"/>
<path d="M 97.4 33.9 L 97.5 34.5" stroke-width="2.00"/>
<path d="M 97.5 34.5 L 97.7 34.6" stroke-width="2.20"/>
<path d="M 97.7 34.6 L 98.0 34.5" stroke-width="2.60"/>
<path d="M 98.0 34.5 L 98.2 34.2" stroke-width="2.40"/>
<path d="M 98.2 34.2 L 98.4 33.9" stroke-width="2.00"/>
<circle cx="103.4" cy="28.6" r="0.63" fill="currentColor" stroke="none"/>
<path d="M 103.4 28.6 L 103.7 28.5" stroke-width="1.60"/>
<path d="M 103.7 28.5 L 104.4 28.3" stroke-width="2.00"/>
<path d="M 104.4 28.3 L 105.4 28.0 L 106.6 27.5" stroke-width="2.20"/>
<path d="M 106.6 27.5 L 107.9 26.8" stroke-width="2.00"/>
<path d="M 107.9 26.8 L 109.1 26.0 L 110.2 25.1 L 111.2 24.1 L 111.9 23.2 L 112.2 22.3" stroke-width="1.80"/>
<path d="M 112.2 22.3 L 112.2 21.5" stroke-width="2.00"/>
<path d="M 112.2 21.5 L 111.8 20.9 L 111.1 20.5 L 110.2 20.3 L 109.0 20.4" stroke-width="2.20"/>
<path d="M 109.0 20.4 L 107.8 20.7 L 106.4 21.4" stroke-width="2.00"/>
<path d="M 106.4 21.4 L 105.1 22.5" stroke-width="1.80"/>
<path d="M 105.1 22.5 L 104.0 23.7 L 103.1 25.2 L 102.5 26.7 L 102.3 28.3 L 102.4 29.9 L 103.1 31.4 L 104.2 32.7" stroke-width="1.60"/>
<path d="M 104.2 32.7 L 105.7 33.8 L 107.6 34.5 L 109.8 34.8 L 112.1 34.8" stroke-width="1.40"/>
<path d="M 112.1 34.8 L 114.4 34.6 L 116.5 34.1 L 118.4 33.6" stroke-width="1.20"/>
<path d="M 118.4 33.6 L 119.9 33.2 L 121.1 32.8" stroke-width="1.40"/>
<path d="M 121.1 32.8 L 121.8 32.5 L 122.1 32.4" stroke-width="1.60"/>
<circle cx="145.1" cy="23.8" r="0.63" fill="currentColor" stroke="none"/>
<path d="M 145.1 23.8 L 144.8 23.6" stroke-width="1.60"/>
<path d="M 144.8 23.6 L 144.3 23.3" stroke-width="2.20"/>
<path d="M 144.3 23.3 L 143.5 23.0 L 142.6 23.0" stroke-width="2.40"/>
<path d="M 142.6 23.0 L 141.6 23.2 L 140.4 23.7" stroke-width="2.20"/>
<path d="M 140.4 23.7 L 139.3 24.6" stroke-width="2.00"/>
<path d="M 139.3 24.6 L 138.2 25.7 L 137.2 27.1" stroke-width="1.80"/>
<path d="M 137.2 27.1 L 136.5 28.7 L 136.1 30.4 L 136.1 32.0 L 136.5 33.5 L 137.4 34.8 L 138.6 35.7 L 140.1 36.1 L 141.9 36.2 L 143.7 35.8" stroke-width="1.60"/>
<path d="M 143.7 35.8 L 145.4 35.0 L 147.0 33.9 L 148.4 32.5 L 149.4 31.0 L 150.1 29.3 L 150.4 27.7 L 150.4 26.2" stroke-width="1.40"/>
<path d="M 150.4 26.2 L 149.9 24.9 L 149.1 23.8 L 148.1 23.0" stroke-width="1.60"/>
<path d="M 148.1 23.0 L 147.0 22.6 L 145.9 22.4 L 144.9 22.4" stroke-width="1.80"/>
<path d="M 144.9 22.4 L 144.3 22.6" stroke-width="2.00"/>
<path d="M 144.3 22.6 L 144.0 22.7" stroke-width="2.20"/>
<path d="M 144.0 22.7 L 144.1 22.8" stroke-width="2.60"/>
<path d="M 144.1 22.8 L 144.5 22.8" stroke-width="2.40"/>
<path d="M 144.5 22.8 L 144.8 22.7" stroke-width="2.00"/>
<circle cx="166.8" cy="9.1" r="0.63" fill="currentColor" stroke="none"/>
<path d="M 166.8 9.1 L 166.4 8.5" stroke-width="1.60"/>
<path d="M 166.4 8.5 L 165.9 7.6" stroke-width="1.80"/>
<path d="M 165.9 7.6 L 165.1 6.8 L 164.1 6.2 L 163.1 6.0 L 162.0 6.2 L 161.0 6.9" stroke-width="2.00"/>
<path d="M 161.0 6.9 L 159.9 8.0 L 159.0 9.4" stroke-width="1.80"/>
<path d="M 159.0 9.4 L 158.1 11.3" stroke-width="1.60"/>
<path d="M 158.1 11.3 L 157.6 13.6 L 157.2 16.1" stroke-width="1.40"/>
<path d="M 157.2 16.1 L 157.2 18.8 L 157.4 21.6" stroke-width="1.20"/>
<path d="M 157.4 21.6 L 157.7 24.4 L 158.2 27.1 L 158.6 29.6 L 159.0 31.8" stroke-width="1.00"/>
<path d="M 159.0 31.8 L 159.3 33.8 L 159.5 35.4" stroke-width="1.20"/>
<path d="M 159.5 35.4 L 159.6 36.7" stroke-width="1.40"/>
<path d="M 159.6 36.7 L 159.6 37.6 L 159.6 38.1 L 159.6 38.3" stroke-width="1.60"/>
<circle cx="152.2" cy="23.8" r="0.63" fill="currentColor" stroke="none"/>
<path d="M 152.2 23.8 L 152.6 23.9" stroke-width="1.60"/>
<path d="M 152.6 23.9 L 153.3 23.9" stroke-width="2.00"/>
<path d="M 153.3 23.9 L 154.5 23.9" stroke-width="2.20"/>
<path d="M 154.5 23.9 L 156.1 23.9" stroke-width="2.00"/>
<path d="M 156.1 23.9 L 158.0 23.9" stroke-width="1.80"/>
<path d="M 158.0 23.9 L 160.0 23.9" stroke-width="1.60"/>
<path d="M 160.0 23.9 L 162.0 24.0 L 164.1 24.2 L 166.0 24.4 L 167.8 24.6 L 169.1 24.7" stroke-width="1.40"/>
<path d="M 169.1 24.7 L 170.0 24.8" stroke-width="1.20"/>
<circle cx="184.5" cy="24.9" r="0.63" fill="currentColor" stroke="none"/>
<path d="M 184.5 24.9 L 184.5 25.1" stroke-width="1.60"/>
<path d="M 184.5 25.1 L 184.5 25.7" stroke-width="2.20"/>
<path d="M 184.5 25.7 L 184.5 26.5 L 184.5 27.5" stroke-width="2.40"/>
<path d="M 184.5 27.5 L 184.5 28.8" stroke-width="2.20"/>
<path d="M 184.5 28.8 L 184.5 30.3" stroke-width="2.00"/>
<path d="M 184.5 30.3 L 184.5 31.8 L 184.5 33.3 L 184.5 34.7 L 184.5 35.8 L 184.6 36.4 L 184.6 36.8" stroke-width="1.80"/>
<circle cx="185.1" cy="12.9" r="0.63" fill="currentColor" stroke="none"/>
<path d="M 185.1 12.9 L 185.2 12.9" stroke-width="1.60"/>
<path d="M 185.2 12.9 L 185.2 12.9 L 185.2 12.8" stroke-width="2.40"/>
<path d="M 185.2 12.8 L 185.2 12.8" stroke-width="2.00"/>
<circle cx="190.0" cy="23.5" r="0.63" fill="currentColor" stroke="none"/>
<path d="M 190.0 23.5 L 190.1 23.9" stroke-width="1.60"/>
<path d="M 190.1 23.9 L 190.2 24.8" stroke-width="2.00"/>
<path d="M 190.2 24.8 L 190.4 26.0" stroke-width="2.20"/>
<path d="M 190.4 26.0 L 190.6 27.4" stroke-width="2.00"/>
<path d="M 190.6 27.4 L 190.7 29.0 L 190.8 30.7" stroke-width="1.80"/>
<path d="M 190.8 30.7 L 190.8 32.3 L 190.8 33.7 L 190.8 34.8" stroke-width="1.60"/>
<path d="M 190.8 34.8 L 190.8 35.4" stroke-width="1.80"/>
<path d="M 190.8 35.4 L 190.8 35.6" stroke-width="2.20"/>
<path d="M 190.8 35.6 L 190.8 35.5 L 190.9 34.9 L 191.0 33.9" stroke-width="2.60"/>
<path d="M 191.0 33.9 L 191.4 32.5" stroke-width="2.40"/>
<path d="M 191.4 32.5 L 191.9 30.8" stroke-width="2.00"/>
<path d="M 191.9 30.8 L 192.7 29.1" stroke-width="1.80"/>
<path d="M 192.7 29.1 L 193.6 27.4" stroke-width="1.60"/>
<path d="M 193.6 27.4 L 194.7 25.8 L 196.0 24.5 L 197.2 23.4 L 198.6 22.7" stroke-width="1.40"/>
<path d="M 198.6 22.7 L 199.8 22.3 L 201.0 22.4" stroke-width="1.60"/>
<path d="M 201.0 22.4 L 202.0 22.9 L 202.9 23.8 L 203.6 25.1 L 204.2 26.5" stroke-width="1.80"/>
<path d="M 204.2 26.5 L 204.6 28.1 L 205.0 29.8 L 205.2 31.4 L 205.4 32.9 L 205.5 34.3 L 205.6 35.3" stroke-width="1.60"/>
<path d="M 205.6 35.3 L 205.7 35.9 L 205.8 36.2" stroke-width="1.80"/>
<circle cx="211.9" cy="11.4" r="0.63" fill="currentColor" stroke="none"/>
<path d="M 211.9 11.4 L 211.9 11.5" stroke-width="1.60"/>
<path d="M 211.9 11.5 L 212.0 12.0" stroke-width="2.20"/>
<path d="M 212.0 12.0 L 212.2 12.7" stroke-width="2.60"/>
<path d="M 212.2 12.7 L 212.3 13.8" stroke-width="2.40"/>
<path d="M 212.3 13.8 L 212.4 15.2" stroke-width="2.20"/>
<path d="M 212.4 15.2 L 212.5 16.9" stroke-width="2.00"/>
<path d="M 212.5 16.9 L 212.6 18.9 L 212.7 21.0" stroke-width="1.60"/>
<path d="M 212.7 21.0 L 212.8 23.3 L 212.9 25.6" stroke-width="1.40"/>
<path d="M 212.9 25.6 L 213.1 27.9 L 213.3 30.0 L 213.5 31.9" stroke-width="1.20"/>
<path d="M 213.5 31.9 L 213.7 33.5 L 213.8 34.7" stroke-width="1.40"/>
<path d="M 213.8 34.7 L 213.9 35.4" stroke-width="1.60"/>
<path d="M 213.9 35.4 L 214.1 35.7" stroke-width="2.00"/>
<path d="M 214.1 35.7 L 214.4 35.6 L 214.6 35.4" stroke-width="2.40"/>
<path d="M 214.6 35.4 L 214.8 35.1" stroke-width="2.00"/>
<circle cx="221.6" cy="24.4" r="0.63" fill="currentColor" stroke="none"/>
<path d="M 221.6 24.4 L 221.6 24.3" stroke-width="1.60"/>
<path d="M 221.6 24.3 L 221.4 24.3" stroke-width="2.40"/>
<path d="M 221.4 24.3 L 221.1 24.3 L 220.6 24.5 L 219.8 24.8" stroke-width="2.60"/>
<path d="M 219.8 24.8 L 218.9 25.4" stroke-width="2.40"/>
<path d="M 218.9 25.4 L 217.8 26.1" stroke-width="2.20"/>
<path d="M 217.8 26.1 L 216.7 26.9 L 215.6 27.8" stroke-width="2.00"/>
<path d="M 215.6 27.8 L 214.8 28.7" stroke-width="1.80"/>
<path d="M 214.8 28.7 L 214.2 29.5 L 214.0 30.4" stroke-width="2.00"/>
<path d="M 214.0 30.4 L 214.3 31.1 L 215.0 31.9" stroke-width="2.20"/>
<path d="M 215.0 31.9 L 216.1 32.5 L 217.5 33.1" stroke-width="2.00"/>
<path d="M 217.5 33.1 L 219.3 33.5" stroke-width="1.80"/>
<path d="M 219.3 33.5 L 221.2 33.9" stroke-width="1.60"/>
<path d="M 221.2 33.9 L 223.1 34.1 L 225.0 34.3 L 226.5 34.5" stroke-width="1.40"/>
<path d="M 226.5 34.5 L 227.8 34.5 L 228.7 34.5" stroke-width="1.60"/>
<path d="M 228.7 34.5 L 229.2 34.5" stroke-width="2.00"/>
<path d="M 229.2 34.5 L 229.5 34.3" stroke-width="2.20"/>
<path d="M 229.5 34.3 L 229.6 34.2 L 229.7 34.1 L 229.7 34.1 L 229.7 34.1 L 229.7 34.1 L 229.6 34.2 L 229.7 34.2 L 229.7 34.2 L 229.7 34.2 L 229.6 34.2 L 229.6 34.2 L 229.6 34.2 L 229.6 34.2" stroke-width="2.60"/>
<path d="M 229.6 34.2 L 229.6 34.2" stroke-width="2.40"/>
<path d="M 229.6 34.2 L 229.6 34.3" stroke-width="2.00"/>
<circle cx="237.9" cy="34.0" r="0.63" fill="currentColor" stroke="none"/>
<path d="M 237.9 34.0 L 237.8 34.3" stroke-width="1.60"/>
<path d="M 237.8 34.3 L 237.7 34.8" stroke-width="2.20"/>
<path d="M 237.7 34.8 L 237.5 35.7" stroke-width="2.40"/>
<path d="M 237.5 35.7 L 237.2 36.7 L 236.7 38.0" stroke-width="2.20"/>
<path d="M 236.7 38.0 L 236.2 39.4" stroke-width="2.00"/>
<path d="M 236.2 39.4 L 235.6 40.8 L 235.0 42.1 L 234.4 43.2 L 234.0 44.0" stroke-width="1.80"/>
<path d="M 234.0 44.0 L 233.7 44.4" stroke-width="2.00"/>
<path d="M 233.7 44.4 L 233.6 44.5" stroke-width="1.80"/>
<circle cx="255.0" cy="10.8" r="0.63" fill="currentColor" stroke="none"/>
<path d="M 255.0 10.8 L 254.9 11.1" stroke-width="1.60"/>
<path d="M 254.9 11.1 L 254.8 11.7" stroke-width="2.20"/>
<path d="M 254.8 11.7 L 254.7 12.6" stroke-width="2.40"/>
<path d="M 254.7 12.6 L 254.6 13.9" stroke-width="2.20"/>
<path d="M 254.6 13.9 L 254.5 15.5" stroke-width="2.00"/>
<path d="M 254.5 15.5 L 254.4 17.4" stroke-width="1.80"/>
<path d="M 254.4 17.4 L 254.4 19.6" stroke-width="1.60"/>
<path d="M 254.4 19.6 L 254.2 21.9 L 254.1 24.3" stroke-width="1.40"/>
<path d="M 254.1 24.3 L 254.0 26.7 L 253.9 29.0 L 253.9 31.1 L 254.0 32.9" stroke-width="1.20"/>
<path d="M 254.0 32.9 L 254.1 34.4 L 254.3 35.5" stroke-width="1.40"/>
<path d="M 254.3 35.5 L 254.4 36.1" stroke-width="1.60"/>
<path d="M 254.4 36.1 L 254.5 36.2" stroke-width="2.00"/>
<path d="M 254.5 36.2 L 254.6 35.9 L 254.7 35.4" stroke-width="2.40"/>
<path d="M 254.7 35.4 L 254.8 35.0" stroke-width="2.00"/>
<circle cx="246.9" cy="23.5" r="0.63" fill="currentColor" stroke="none"/>
<path d="M 246.9 23.5 L 247.2 23.6" stroke-width="1.60"/>
<path d="M 247.2 23.6 L 247.9 23.7 L 249.0 23.9" stroke-width="2.20"/>
<path d="M 249.0 23.9 L 250.6 23.9" stroke-width="2.00"/>
<path d="M 250.6 23.9 L 252.6 23.9" stroke-width="1.80"/>
<path d="M 252.6 23.9 L 254.8 23.7" stroke-width="1.60"/>
<path d="M 254.8 23.7 L 257.0 23.4 L 259.2 23.1 L 261.1 22.6 L 262.7 22.1 L 263.8 21.6" stroke-width="1.40"/>
<path d="M 263.8 21.6 L 264.5 21.3" stroke-width="1.20"/>
<circle cx="265.0" cy="11.3" r="0.63" fill="currentColor" stroke="none"/>
<path d="M 265.0 11.3 L 265.1 11.7" stroke-width="1.60"/>
<path d="M 265.1 11.7 L 265.4 12.3" stroke-width="2.00"/>
<path d="M 265.4 12.3 L 265.7 13.4" stroke-width="2.20"/>
<path d="M 265.7 13.4 L 266.0 14.7" stroke-width="2.00"/>
<path d="M 266.0 14.7 L 266.3 16.4 L 266.5 18.2" stroke-width="1.80"/>
<path d="M 266.5 18.2 L 266.6 20.3" stroke-width="1.60"/>
<path d="M 266.6 20.3 L 266.6 22.5 L 266.5 24.6 L 266.5 26.7 L 266.4 28.6 L 266.3 30.2 L 266.3 31.4" stroke-width="1.40"/>
<path d="M 266.3 31.4 L 266.3 32.3" stroke-width="1.60"/>
<path d="M 266.3 32.3 L 266.3 32.8" stroke-width="1.80"/>
<path d="M 266.3 32.8 L 266.3 32.9" stroke-width="2.20"/>
<path d="M 266.3 32.9 L 266.5 32.6 L 266.7 32.0 L 267.0 31.0" stroke-width="2.60"/>
<path d="M 267.0 31.0 L 267.6 29.7" stroke-width="2.20"/>
<path d="M 267.6 29.7 L 268.2 28.3" stroke-width="2.00"/>
<path d="M 268.2 28.3 L 269.0 26.9" stroke-width="1.80"/>
<path d="M 269.0 26.9 L 270.0 25.4 L 271.1 24.1 L 272.3 23.0 L 273.6 22.2 L 274.8 21.6 L 276.0 21.4" stroke-width="1.60"/>
<path d="M 276.0 21.4 L 277.1 21.6 L 278.1 22.1 L 278.9 23.0 L 279.7 24.2 L 280.2 25.6 L 280.6 27.0" stroke-width="1.80"/>
<path d="M 280.6 27.0 L 280.9 28.5 L 281.2 29.8" stroke-width="1.60"/>
<path d="M 281.2 29.8 L 281.3 30.9 L 281.5 31.8" stroke-width="1.80"/>
<path d="M 281.5 31.8 L 281.7 32.5" stroke-width="2.00"/>
<path d="M 281.7 32.5 L 281.9 32.9" stroke-width="2.20"/>
<path d="M 281.9 32.9 L 282.1 33.0 L 282.3 32.9 L 282.7 32.5 L 283.2 31.8" stroke-width="2.60"/>
<path d="M 283.2 31.8 L 283.8 30.7" stroke-width="2.40"/>
<path d="M 283.8 30.7 L 284.5 29.5" stroke-width="2.20"/>
<path d="M 284.5 29.5 L 285.2 28.2" stroke-width="2.00"/>
<path d="M 285.2 28.2 L 285.9 26.8 L 286.7 25.5" stroke-width="1.80"/>
<path d="M 286.7 25.5 L 287.4 24.2 L 288.1 23.1" stroke-width="1.60"/>
<path d="M 288.1 23.1 L 288.6 22.2" stroke-width="1.80"/>
<path d="M 288.6 22.2 L 289.0 21.7" stroke-width="2.00"/>
<path d="M 289.0 21.7 L 289.3 21.4" stroke-width="2.20"/>
<path d="M 289.3 21.4 L 289.4 21.4" stroke-width="2.40"/>
<path d="M 289.4 21.4 L 289.5 21.7 L 289.5 22.3 L 289.4 23.3" stroke-width="2.60"/>
<path d="M 289.4 23.3 L 289.4 24.5" stroke-width="2.40"/>
<path d="M 289.4 24.5 L 289.3 25.9" stroke-width="2.20"/>
<path d="M 289.3 25.9 L 289.2 27.3" stroke-width="2.00"/>
<path d="M 289.2 27.3 L 289.2 28.8 L 289.2 30.1 L 289.2 31.3 L 289.3 32.3" stroke-width="1.80"/>
<path d="M 289.3 32.3 L 289.4 32.9" stroke-width="2.00"/>
<path d="M 289.4 32.9 L 289.5 33.4" stroke-width="2.20"/>
<path d="M 289.5 33.4 L 289.6 33.5 L 289.7 33.3 L 289.7 32.7" stroke-width="2.60"/>
<path d="M 289.7 32.7 L 289.7 32.0" stroke-width="2.40"/>
<path d="M 289.7 32.0 L 289.8 31.5" stroke-width="2.00"/>
<circle cx="288.0" cy="12.0" r="0.63" fill="currentColor" stroke="none"/>
<path d="M 288.0 12.0 L 288.0 12.0" stroke-width="1.60"/>
<path d="M 288.0 12.0 L 288.1 12.1 L 288.1 12.2" stroke-width="2.40"/>
<path d="M 288.1 12.2 L 288.2 12.3" stroke-width="2.00"/>
<circle cx="293.7" cy="21.6" r="0.63" fill="currentColor" stroke="none"/>
<path d="M 293.7 21.6 L 293.7 21.6" stroke-width="1.60"/>
<path d="M 293.7 21.6 L 293.8 21.7" stroke-width="2.40"/>
<path d="M 293.8 21.7 L 293.8 22.1 L 293.8 23.0" stroke-width="2.60"/>
<path d="M 293.8 23.0 L 293.8 24.2" stroke-width="2.40"/>
<path d="M 293.8 24.2 L 293.7 25.7" stroke-width="2.20"/>
<path d="M 293.7 25.7 L 293.6 27.4 L 293.5 29.0" stroke-width="1.80"/>
<path d="M 293.5 29.0 L 293.4 30.5 L 293.4 31.7" stroke-width="1.60"/>
<path d="M 293.4 31.7 L 293.5 32.6" stroke-width="1.80"/>
<path d="M 293.5 32.6 L 293.5 33.2" stroke-width="2.00"/>
<path d="M 293.5 33.2 L 293.6 33.4" stroke-width="2.40"/>
<path d="M 293.6 33.4 L 293.6 33.2 L 293.7 32.7 L 293.8 31.8" stroke-width="2.60"/>
<path d="M 293.8 31.8 L 294.0 30.6" stroke-width="2.40"/>
<path d="M 294.0 30.6 L 294.4 29.2" stroke-width="2.20"/>
<path d="M 294.4 29.2 L 294.9 27.6" stroke-width="2.00"/>
<path d="M 294.9 27.6 L 295.5 26.1" stroke-width="1.80"/>
<path d="M 295.5 26.1 L 296.4 24.7 L 297.4 23.4 L 298.5 22.4 L 299.7 21.5 L 300.9 21.0 L 302.1 20.8" stroke-width="1.60"/>
<path d="M 302.1 20.8 L 303.2 21.0 L 304.3 21.6 L 305.2 22.5 L 306.0 23.7 L 306.6 25.2" stroke-width="1.80"/>
<path d="M 306.6 25.2 L 307.0 26.8 L 307.3 28.5 L 307.5 30.2 L 307.7 31.7 L 307.9 33.0 L 308.0 34.1" stroke-width="1.60"/>
<path d="M 308.0 34.1 L 308.2 34.7" stroke-width="1.80"/>
<path d="M 308.2 34.7 L 308.4 35.1 L 308.5 35.2" stroke-width="2.00"/>
<circle cx="313.1" cy="11.8" r="0.63" fill="currentColor" stroke="none"/>
<path d="M 313.1 11.8 L 313.1 11.9" stroke-width="1.60"/>
<path d="M 313.1 11.9 L 313.1 12.1" stroke-width="2.40"/>
<path d="M 313.1 12.1 L 313.2 12.7 L 313.3 13.6" stroke-width="2.60"/>
<path d="M 313.3 13.6 L 313.4 14.9" stroke-width="2.40"/>
<path d="M 313.4 14.9 L 313.5 16.6" stroke-width="2.00"/>
<path d="M 313.5 16.6 L 313.6 18.6" stroke-width="1.80"/>
<path d="M 313.6 18.6 L 313.7 20.8" stroke-width="1.60"/>
<path d="M 313.7 20.8 L 313.7 23.0 L 313.7 25.3" stroke-width="1.40"/>
<path d="M 313.7 25.3 L 313.7 27.4 L 313.7 29.3" stroke-width="1.20"/>
<path d="M 313.7 29.3 L 313.7 30.8 L 313.7 31.9" stroke-width="1.40"/>
<path d="M 313.7 31.9 L 313.8 32.5" stroke-width="1.80"/>
<path d="M 313.8 32.5 L 313.9 32.7" stroke-width="2.00"/>
<path d="M 313.9 32.7 L 314.0 32.4" stroke-width="2.40"/>
<path d="M 314.0 32.4 L 314.3 31.7" stroke-width="2.60"/>
<path d="M 314.3 31.7 L 314.8 30.7" stroke-width="2.40"/>
<path d="M 314.8 30.7 L 315.6 29.4" stroke-width="2.20"/>
<path d="M 315.6 29.4 L 316.6 28.0" stroke-width="1.80"/>
<path d="M 316.6 28.0 L 317.9 26.4 L 319.2 24.9" stroke-width="1.60"/>
<path d="M 319.2 24.9 L 320.7 23.5 L 322.1 22.3 L 323.5 21.3 L 324.7 20.6" stroke-width="1.40"/>
<path d="M 324.7 20.6 L 325.6 20.0" stroke-width="1.60"/>
<path d="M 325.6 20.0 L 326.2 19.7" stroke-width="1.80"/>
<path d="M 326.2 19.7 L 326.5 19.6" stroke-width="2.00"/>
<path d="M 326.5 19.6 L 326.5 19.5" stroke-width="2.20"/>
<path d="M 326.5 19.5 L 326.4 19.5" stroke-width="2.00"/>
<circle cx="317.2" cy="25.1" r="0.63" fill="currentColor" stroke="none"/>
<path d="M 317.2 25.1 L 317.3 25.3" stroke-width="1.60"/>
<path d="M 317.3 25.3 L 317.6 25.7" stroke-width="2.20"/>
<path d="M 317.6 25.7 L 318.2 26.2 L 318.9 26.9" stroke-width="2.40"/>
<path d="M 318.9 26.9 L 319.8 27.7" stroke-width="2.20"/>
<path d="M 319.8 27.7 L 320.9 28.6 L 322.0 29.5" stroke-width="2.00"/>
<path d="M 322.0 29.5 L 323.2 30.3 L 324.3 31.1 L 325.4 31.8 L 326.4 32.3 L 327.4 32.6" stroke-width="1.80"/>
<path d="M 327.4 32.6 L 328.4 32.6 L 329.2 32.3 L 329.9 32.0" stroke-width="2.00"/>
<path d="M 329.9 32.0 L 330.3 31.6" stroke-width="1.80"/>
<circle cx="332.4" cy="22.2" r="0.63" fill="currentColor" stroke="none"/>
<path d="M 332.4 22.2 L 332.4 22.3" stroke-width="1.60"/>
<path d="M 332.4 22.3 L 332.5 22.6" stroke-width="2.40"/>
<path d="M 332.5 22.6 L 332.5 23.1 L 332.5 24.0" stroke-width="2.60"/>
<path d="M 332.5 24.0 L 332.5 25.2" stroke-width="2.40"/>
<path d="M 332.5 25.2 L 332.5 26.6" stroke-width="2.20"/>
<path d="M 332.5 26.6 L 332.4 28.1" stroke-width="2.00"/>
<path d="M 332.4 28.1 L 332.4 29.7 L 332.4 31.2 L 332.4 32.5 L 332.5 33.5" stroke-width="1.80"/>
<path d="M 332.5 33.5 L 332.5 34.1" stroke-width="2.00"/>
<path d="M 332.5 34.1 L 332.6 34.2" stroke-width="2.40"/>
<path d="M 332.6 34.2 L 332.7 33.9" stroke-width="2.60"/>
<path d="M 332.7 33.9 L 332.8 33.4" stroke-width="2.40"/>
<path d="M 332.8 33.4 L 332.8 33.0" stroke-width="2.00"/>
<circle cx="333.0" cy="12.4" r="0.63" fill="currentColor" stroke="none"/>
<path d="M 333.0 12.4 L 333.0 12.3" stroke-width="1.60"/>
<path d="M 333.0 12.3 L 333.0 12.2" stroke-width="2.40"/>
<path d="M 333.0 12.2 L 333.0 12.1 L 333.1 12.1 L 333.1 12.2 L 333.2 12.3" stroke-width="2.60"/>
<path d="M 333.2 12.3 L 333.2 12.5" stroke-width="2.40"/>
<path d="M 333.2 12.5 L 333.3 12.6" stroke-width="2.00"/>
<circle cx="338.7" cy="22.1" r="0.63" fill="currentColor" stroke="none"/>
<path d="M 338.7 22.1 L 338.7 22.1" stroke-width="1.60"/>
<path d="M 338.7 22.1 L 338.7 22.3" stroke-width="2.40"/>
<path d="M 338.7 22.3 L 338.8 22.7 L 338.8 23.4 L 338.8 24.5" stroke-width="2.60"/>
<path d="M 338.8 24.5 L 338.8 25.8" stroke-width="2.20"/>
<path d="M 338.8 25.8 L 338.8 27.3" stroke-width="2.00"/>
<path d="M 338.8 27.3 L 338.7 28.9 L 338.7 30.4 L 338.7 31.7 L 338.7 32.7" stroke-width="1.80"/>
<path d="M 338.7 32.7 L 338.7 33.3" stroke-width="2.00"/>
<path d="M 338.7 33.3 L 338.8 33.5" stroke-width="2.40"/>
<path d="M 338.8 33.5 L 338.8 33.3 L 338.8 32.5" stroke-width="2.60"/>
<path d="M 338.8 32.5 L 338.9 31.3" stroke-width="2.40"/>
<path d="M 338.9 31.3 L 339.2 29.7" stroke-width="2.20"/>
<path d="M 339.2 29.7 L 339.7 27.9" stroke-width="1.80"/>
<path d="M 339.7 27.9 L 340.3 26.1 L 341.1 24.4" stroke-width="1.60"/>
<path d="M 341.1 24.4 L 342.0 22.8 L 343.1 21.5 L 344.3 20.5" stroke-width="1.40"/>
<path d="M 344.3 20.5 L 345.6 19.9 L 346.9 19.7 L 348.2 20.0 L 349.5 20.7 L 350.6 21.8 L 351.6 23.2 L 352.4 24.9" stroke-width="1.60"/>
<path d="M 352.4 24.9 L 353.0 26.7 L 353.4 28.4 L 353.7 30.0" stroke-width="1.40"/>
<path d="M 353.7 30.0 L 353.8 31.3 L 353.9 32.2" stroke-width="1.60"/>
<path d="M 353.9 32.2 L 354.0 32.8 L 354.0 33.0" stroke-width="1.80"/>
<circle cx="363.6" cy="23.3" r="0.63" fill="currentColor" stroke="none"/>
<path d="M 363.6 23.3 L 363.6 23.0" stroke-width="1.60"/>
<path d="M 363.6 23.0 L 363.4 22.5" stroke-width="2.20"/>
<path d="M 363.4 22.5 L 363.2 21.9" stroke-width="2.40"/>
<path d="M 363.2 21.9 L 362.7 21.5 L 362.0 21.4" stroke-width="2.60"/>
<path d="M 362.0 21.4 L 361.0 21.5 L 360.0 21.8" stroke-width="2.40"/>
<path d="M 360.0 21.8 L 358.9 22.4" stroke-width="2.20"/>
<path d="M 358.9 22.4 L 357.9 23.3 L 357.2 24.3 L 356.8 25.4 L 356.7 26.6 L 357.0 27.7 L 357.6 28.5 L 358.6 29.1 L 359.8 29.4" stroke-width="2.00"/>
<path d="M 359.8 29.4 L 361.2 29.3 L 362.6 28.9 L 364.0 28.2" stroke-width="1.80"/>
<path d="M 364.0 28.2 L 365.1 27.2 L 366.1 26.1 L 366.8 24.9" stroke-width="1.60"/>
<path d="M 366.8 24.9 L 367.3 23.8 L 367.5 22.8" stroke-width="1.80"/>
<path d="M 367.5 22.8 L 367.6 22.1" stroke-width="2.00"/>
<path d="M 367.6 22.1 L 367.7 21.6" stroke-width="2.20"/>
<path d="M 367.7 21.6 L 367.6 21.4" stroke-width="2.40"/>
<path d="M 367.6 21.4 L 367.5 21.5 L 367.4 21.9 L 367.4 22.7 L 367.4 23.9" stroke-width="2.60"/>
<path d="M 367.4 23.9 L 367.5 25.4" stroke-width="2.20"/>
<path d="M 367.5 25.4 L 367.7 27.2" stroke-width="2.00"/>
<path d="M 367.7 27.2 L 367.9 29.1 L 368.2 31.2" stroke-width="1.60"/>
<path d="M 368.2 31.2 L 368.6 33.3 L 368.9 35.5 L 369.3 37.6" stroke-width="1.40"/>
<path d="M 369.3 37.6 L 369.5 39.6 L 369.6 41.6" stroke-width="1.20"/>
<path d="M 369.6 41.6 L 369.5 43.3 L 369.3 44.9 L 368.8 46.2" stroke-width="1.40"/>
<path d="M 368.8 46.2 L 368.1 47.4 L 367.1 48.2 L 365.9 48.8 L 364.5 49.2 L 362.8 49.2 L 361.1 49.0 L 359.2 48.4" stroke-width="1.60"/>
<path d="M 359.2 48.4 L 357.4 47.7 L 355.7 46.7 L 354.2 45.6 L 352.9 44.5 L 352.0 43.5" stroke-width="1.40"/>
<path d="M 352.0 43.5 L 351.5 42.6" stroke-width="1.60"/>
<path d="M 351.5 42.6 L 351.3 41.7" stroke-width="1.80"/>
<path d="M 351.3 41.7 L 351.5 41.0 L 351.9 40.6" stroke-width="2.00"/>
<path d="M 351.9 40.6 L 352.2 40.3" stroke-width="1.80"/>
<circle cx="393.0" cy="24.8" r="0.63" fill="currentColor" stroke="none"/>
<path d="M 393.0 24.8 L 392.6 24.5" stroke-width="1.60"/>
<path d="M 392.6 24.5 L 392.2 24.0" stroke-width="2.00"/>
<path d="M 392.2 24.0 L 391.6 23.5 L 390.9 23.1 L 390.0 22.8" stroke-width="2.40"/>
<path d="M 390.0 22.8 L 389.0 22.8 L 387.8 23.0" stroke-width="2.20"/>
<path d="M 387.8 23.0 L 386.5 23.6" stroke-width="2.00"/>
<path d="M 386.5 23.6 L 385.2 24.6" stroke-width="1.80"/>
<path d="M 385.2 24.6 L 384.1 25.9 L 383.2 27.5 L 382.6 29.1 L 382.4 30.8 L 382.7 32.2 L 383.4 33.3 L 384.4 33.9" stroke-width="1.60"/>
<path d="M 384.4 33.9 L 385.8 34.2" stroke-width="1.80"/>
<path d="M 385.8 34.2 L 387.3 33.9 L 389.0 33.2 L 390.7 32.1" stroke-width="1.60"/>
<path d="M 390.7 32.1 L 392.3 30.7 L 393.7 29.1 L 394.8 27.5 L 395.6 26.1 L 396.2 24.9" stroke-width="1.40"/>
<path d="M 396.2 24.9 L 396.5 23.9" stroke-width="1.60"/>
<path d="M 396.5 23.9 L 396.6 23.4" stroke-width="1.80"/>
<path d="M 396.6 23.4 L 396.7 23.2" stroke-width="2.20"/>
<path d="M 396.7 23.2 L 396.6 23.3" stroke-width="2.40"/>
<path d="M 396.6 23.3 L 396.5 23.9 L 396.4 24.9" stroke-width="2.60"/>
<path d="M 396.4 24.9 L 396.2 26.3" stroke-width="2.40"/>
<path d="M 396.2 26.3 L 396.2 27.8" stroke-width="2.00"/>
<path d="M 396.2 27.8 L 396.2 29.3 L 396.3 30.8 L 396.6 32.0 L 397.1 32.9" stroke-width="1.80"/>
<path d="M 397.1 32.9 L 397.7 33.5 L 398.2 33.7" stroke-width="2.00"/>
<path d="M 398.2 33.7 L 398.6 33.8" stroke-width="1.80"/>
<circle cx="409.2" cy="22.0" r="0.63" fill="currentColor" stroke="none"/>
<path d="M 409.2 22.0 L 408.8 21.7" stroke-width="1.60"/>
<path d="M 408.8 21.7 L 408.2 21.4" stroke-width="2.00"/>
<path d="M 408.2 21.4 L 407.2 21.2 L 406.1 21.2" stroke-width="2.20"/>
<path d="M 406.1 21.2 L 404.8 21.5 L 403.5 21.9" stroke-width="2.00"/>
<path d="M 403.5 21.9 L 402.5 22.5" stroke-width="1.80"/>
<path d="M 402.5 22.5 L 401.9 23.1 L 401.8 23.8" stroke-width="2.00"/>
<path d="M 401.8 23.8 L 402.2 24.6 L 403.2 25.3" stroke-width="2.20"/>
<path d="M 403.2 25.3 L 404.6 26.1" stroke-width="2.00"/>
<path d="M 404.6 26.1 L 406.3 26.8" stroke-width="1.80"/>
<path d="M 406.3 26.8 L 408.3 27.5" stroke-width="1.60"/>
<path d="M 408.3 27.5 L 410.3 28.3 L 412.2 29.1 L 413.8 29.9 L 415.1 30.6" stroke-width="1.40"/>
<path d="M 415.1 30.6 L 416.0 31.3 L 416.6 31.9" stroke-width="1.60"/>
<path d="M 416.6 31.9 L 416.7 32.5" stroke-width="2.00"/>
<path d="M 416.7 32.5 L 416.4 33.1 L 415.8 33.5 L 414.7 33.8" stroke-width="2.20"/>
<path d="M 414.7 33.8 L 413.3 34.0" stroke-width="2.00"/>
<path d="M 413.3 34.0 L 411.5 34.1" stroke-width="1.80"/>
<path d="M 411.5 34.1 L 409.5 34.0 L 407.5 33.8" stroke-width="1.60"/>
<path d="M 407.5 33.8 L 405.6 33.6 L 403.7 33.3 L 402.2 33.0" stroke-width="1.40"/>
<path d="M 402.2 33.0 L 401.0 32.6 L 400.1 32.4" stroke-width="1.60"/>
<path d="M 400.1 32.4 L 399.6 32.1" stroke-width="1.80"/>
<path d="M 399.6 32.1 L 399.4 32.0 L 399.4 31.9" stroke-width="2.00"/>
<circle cx="431.4" cy="22.3" r="0.63" fill="currentColor" stroke="none"/>
<path d="M 431.4 22.3 L 431.4 22.5" stroke-width="1.60"/>
<path d="M 431.4 22.5 L 431.4 23.0" stroke-width="2.20"/>
<path d="M 431.4 23.0 L 431.5 23.7 L 431.5 24.7" stroke-width="2.40"/>
<path d="M 431.5 24.7 L 431.6 26.0" stroke-width="2.20"/>
<path d="M 431.6 26.0 L 431.7 27.5" stroke-width="2.00"/>
<path d="M 431.7 27.5 L 431.8 29.2" stroke-width="1.80"/>
<path d="M 431.8 29.2 L 431.8 30.8 L 431.9 32.4 L 432.0 33.7 L 432.1 34.6 L 432.2 35.0" stroke-width="1.60"/>
<circle cx="430.8" cy="13.7" r="0.63" fill="currentColor" stroke="none"/>
<path d="M 430.8 13.7 L 430.8 13.7" stroke-width="1.60"/>
<path d="M 430.8 13.7 L 430.8 13.6" stroke-width="2.40"/>
<path d="M 430.8 13.6 L 430.9 13.5 L 430.9 13.5 L 431.1 13.6 L 431.2 13.7" stroke-width="2.60"/>
<path d="M 431.2 13.7 L 431.4 13.9" stroke-width="2.40"/>
<path d="M 431.4 13.9 L 431.5 14.0" stroke-width="2.00"/>
<circle cx="440.3" cy="10.9" r="0.63" fill="currentColor" stroke="none"/>
<path d="M 440.3 10.9 L 440.2 11.2" stroke-width="1.60"/>
<path d="M 440.2 11.2 L 440.2 11.8" stroke-width="2.20"/>
<path d="M 440.2 11.8 L 440.1 12.7" stroke-width="2.40"/>
<path d="M 440.1 12.7 L 440.1 14.0" stroke-width="2.20"/>
<path d="M 440.1 14.0 L 440.1 15.5" stroke-width="2.00"/>
<path d="M 440.1 15.5 L 440.1 17.2" stroke-width="1.80"/>
<path d="M 440.1 17.2 L 440.0 19.2" stroke-width="1.60"/>
<path d="M 440.0 19.2 L 439.9 21.4 L 439.8 23.6 L 439.7 25.8" stroke-width="1.40"/>
<path d="M 439.7 25.8 L 439.6 27.9 L 439.7 29.8" stroke-width="1.20"/>
<path d="M 439.7 29.8 L 439.7 31.4 L 439.8 32.7 L 439.9 33.6 L 439.9 34.1" stroke-width="1.40"/>
<circle cx="435.9" cy="24.0" r="0.63" fill="currentColor" stroke="none"/>
<path d="M 435.9 24.0 L 436.3 24.0" stroke-width="1.60"/>
<path d="M 436.3 24.0 L 437.0 24.0" stroke-width="2.00"/>
<path d="M 437.0 24.0 L 438.2 23.9" stroke-width="2.20"/>
<path d="M 438.2 23.9 L 439.8 23.8" stroke-width="2.00"/>
<path d="M 439.8 23.8 L 441.6 23.6" stroke-width="1.80"/>
<path d="M 441.6 23.6 L 443.6 23.4" stroke-width="1.60"/>
<path d="M 443.6 23.4 L 445.1 23.3" stroke-width="1.40"/>
<path d="M 445.1 23.3 L 446.1 23.2" stroke-width="1.20"/>
<circle cx="469.8" cy="25.0" r="0.63" fill="currentColor" stroke="none"/>
<path d="M 469.8 25.0 L 469.6 24.6" stroke-width="1.60"/>
<path d="M 469.6 24.6 L 469.3 24.1" stroke-width="2.00"/>
<path d="M 469.3 24.1 L 468.8 23.4 L 468.1 22.8 L 467.3 22.3 L 466.3 22.1 L 465.1 22.3" stroke-width="2.20"/>
<path d="M 465.1 22.3 L 463.9 22.8 L 462.8 23.6" stroke-width="2.00"/>
<path d="M 462.8 23.6 L 461.8 24.8 L 461.0 26.2" stroke-width="1.80"/>
<path d="M 461.0 26.2 L 460.6 27.7 L 460.6 29.2 L 461.0 30.6 L 461.9 31.7 L 463.1 32.3 L 464.6 32.5 L 466.2 32.3 L 467.9 31.5 L 469.4 30.4" stroke-width="1.60"/>
<path d="M 469.4 30.4 L 470.6 29.0 L 471.6 27.6 L 472.3 26.1" stroke-width="1.40"/>
<path d="M 472.3 26.1 L 472.7 24.9 L 472.9 23.9" stroke-width="1.60"/>
<path d="M 472.9 23.9 L 473.0 23.2" stroke-width="1.80"/>
<path d="M 473.0 23.2 L 472.9 22.9" stroke-width="2.20"/>
<path d="M 472.9 22.9 L 472.8 23.0" stroke-width="2.40"/>
<path d="M 472.8 23.0 L 472.7 23.5 L 472.7 24.6" stroke-width="2.60"/>
<path d="M 472.7 24.6 L 472.8 26.1" stroke-width="2.40"/>
<path d="M 472.8 26.1 L 472.9 27.9" stroke-width="2.00"/>
<path d="M 472.9 27.9 L 473.0 30.1" stroke-width="1.60"/>
<path d="M 473.0 30.1 L 473.2 32.4 L 473.4 34.8" stroke-width="1.40"/>
<path d="M 473.4 34.8 L 473.6 37.2 L 473.7 39.5 L 473.8 41.7 L 473.6 43.6" stroke-width="1.20"/>
<path d="M 473.6 43.6 L 473.3 45.2 L 472.6 46.4" stroke-width="1.40"/>
<path d="M 472.6 46.4 L 471.8 47.2 L 470.6 47.6 L 469.2 47.6 L 467.7 47.2 L 466.0 46.4 L 464.4 45.4" stroke-width="1.60"/>
<path d="M 464.4 45.4 L 462.8 44.2 L 461.5 42.8 L 460.6 41.4 L 460.0 39.9 L 459.9 38.5" stroke-width="1.40"/>
<path d="M 459.9 38.5 L 460.3 37.0 L 461.2 35.6" stroke-width="1.60"/>
<path d="M 461.2 35.6 L 462.2 34.5" stroke-width="1.40"/>
<path d="M 462.2 34.5 L 462.9 33.9" stroke-width="1.20"/>
<circle cx="484.1" cy="22.7" r="0.63" fill="currentColor" stroke="none"/>
<path d="M 484.1 22.7 L 483.8 22.4" stroke-width="1.60"/>
<path d="M 483.8 22.4 L 483.4 22.0" stroke-width="2.20"/>
<path d="M 483.4 22.0 L 482.7 21.6 L 481.9 21.4 L 480.9 21.5" stroke-width="2.40"/>
<path d="M 480.9 21.5 L 479.8 21.9" stroke-width="2.20"/>
<path d="M 479.8 21.9 L 478.6 22.6" stroke-width="2.00"/>
<path d="M 478.6 22.6 L 477.5 23.6 L 476.6 24.8" stroke-width="1.80"/>
<path d="M 476.6 24.8 L 476.0 26.3 L 475.7 27.8 L 476.0 29.2 L 476.7 30.5 L 477.8 31.5 L 479.4 32.1 L 481.3 32.3" stroke-width="1.60"/>
<path d="M 481.3 32.3 L 483.2 32.0 L 485.2 31.4 L 487.0 30.4 L 488.4 29.1 L 489.5 27.7 L 490.1 26.3 L 490.2 24.9" stroke-width="1.40"/>
<path d="M 490.2 24.9 L 489.8 23.6 L 489.0 22.6 L 487.8 21.7 L 486.5 21.2 L 485.2 20.8" stroke-width="1.60"/>
<path d="M 485.2 20.8 L 484.1 20.8 L 483.1 20.9 L 482.5 21.2 L 482.3 21.3" stroke-width="1.80"/>
<circle cx="492.8" cy="27.6" r="0.63" fill="currentColor" stroke="none"/>
<path d="M 492.8 27.6 L 493.1 27.5" stroke-width="1.60"/>
<path d="M 493.1 27.5 L 493.7 27.1 L 494.5 26.6 L 495.6 25.9" stroke-width="2.20"/>
<path d="M 495.6 25.9 L 496.7 25.1" stroke-width="2.00"/>
<path d="M 496.7 25.1 L 497.9 24.2 L 498.9 23.3 L 499.7 22.4 L 500.2 21.6" stroke-width="1.80"/>
<path d="M 500.2 21.6 L 500.4 20.9" stroke-width="2.00"/>
<path d="M 500.4 20.9 L 500.3 20.4" stroke-width="2.20"/>
<path d="M 500.3 20.4 L 499.8 20.1 L 499.0 20.1 L 497.8 20.3" stroke-width="2.40"/>
<path d="M 497.8 20.3 L 496.4 20.9" stroke-width="2.00"/>
<path d="M 496.4 20.9 L 494.9 21.8" stroke-width="1.80"/>
<path d="M 494.9 21.8 L 493.4 22.9 L 492.2 24.2 L 491.4 25.5 L 491.0 26.9 L 491.1 28.2 L 491.6 29.3" stroke-width="1.60"/>
<path d="M 491.6 29.3 L 492.7 30.2" stroke-width="1.80"/>
<path d="M 492.7 30.2 L 494.2 30.8 L 496.1 31.1" stroke-width="1.60"/>
<path d="M 496.1 31.1 L 498.0 31.1 L 499.7 30.9" stroke-width="1.40"/>
<path d="M 499.7 30.9 L 500.7 30.8" stroke-width="1.20"/>
<circle cx="511.2" cy="21.6" r="0.63" fill="currentColor" stroke="none"/>
<path d="M 511.2 21.6 L 511.0 21.3" stroke-width="1.60"/>
<path d="M 511.0 21.3 L 510.5 20.9" stroke-width="2.20"/>
<path d="M 510.5 20.9 L 509.7 20.6" stroke-width="2.40"/>
<path d="M 509.7 20.6 L 508.7 20.4 L 507.6 20.4" stroke-width="2.20"/>
<path d="M 507.6 20.4 L 506.4 20.6 L 505.2 21.0 L 504.3 21.4 L 503.8 21.9" stroke-width="2.00"/>
<path d="M 503.8 21.9 L 503.8 22.5" stroke-width="2.20"/>
<path d="M 503.8 22.5 L 504.4 23.1" stroke-width="2.40"/>
<path d="M 504.4 23.1 L 505.4 23.7" stroke-width="2.20"/>
<path d="M 505.4 23.7 L 506.9 24.3" stroke-width="2.00"/>
<path d="M 506.9 24.3 L 508.7 24.9" stroke-width="1.80"/>
<path d="M 508.7 24.9 L 510.6 25.5" stroke-width="1.60"/>
<path d="M 510.6 25.5 L 512.6 26.1 L 514.4 26.7 L 515.9 27.3 L 517.1 27.9" stroke-width="1.40"/>
<path d="M 517.1 27.9 L 517.9 28.4" stroke-width="1.60"/>
<path d="M 517.9 28.4 L 518.4 28.9" stroke-width="1.80"/>
<path d="M 518.4 28.9 L 518.5 29.4" stroke-width="2.00"/>
<path d="M 518.5 29.4 L 518.3 29.8 L 517.7 30.3 L 516.7 30.6" stroke-width="2.40"/>
<path d="M 516.7 30.6 L 515.5 30.9" stroke-width="2.20"/>
<path d="M 515.5 30.9 L 514.0 31.1" stroke-width="2.00"/>
<path d="M 514.0 31.1 L 512.3 31.2" stroke-width="1.80"/>
<path d="M 512.3 31.2 L 510.5 31.1 L 508.7 30.9 L 507.0 30.6 L 505.5 30.2 L 504.3 29.9" stroke-width="1.60"/>
<path d="M 504.3 29.9 L 503.5 29.6 L 503.1 29.3 L 502.9 29.2" stroke-width="1.80"/>
</svg>
