<svg xmlns="http://www.w3.org/2000/svg" viewBox="0 0 538.1 41.7" fill="none" stroke="currentColor" stroke-linecap="round" stroke-linejoin="round" role="img">
<circle cx="19.7" cy="15.5" r="0.63" fill="currentColor" stroke="none"/>
<path d="M 19.7 15.5 L 19.2 15.2" stroke-width="1.60"/>
<path d="M 19.2 15.2 L 18.2 14.8 L 16.7 14.5" stroke-width="2.00"/>
<path d="M 16.7 14.5 L 15.0 14.4" stroke-width="1.80"/>
<path d="M 15.0 14.4 L 13.1 14.7 L 11.1 15.2" stroke-width="1.60"/>
<path d="M 11.1 15.2 L 9.4 16.1 L 7.9 17.3 L 6.7 18.7 L 6.1 20.1 L 6.0 21.6" stroke-width="1.40"/>
<path d="M 6.0 21.6 L 6.4 22.9 L 7.4 23.9 L 8.7 24.6 L 10.3 24.9 L 12.1 24.8 L 13.9 24.2" stroke-width="1.60"/>
<path d="M 13.9 24.2 L 15.6 23.3 L 17.1 22.1 L 18.3 20.7 L 19.3 19.2 L 20.0 17.9" stroke-width="1.40"/>
<path d="M 20.0 17.9 L 20.5 16.8" stroke-width="1.60"/>
<path d="M 20.5 16.8 L 20.8 16.2" stroke-width="1.80"/>
<path d="M 20.8 16.2 L 20.9 16.0" stroke-width="2.00"/>
<path d="M 20.9 16.0 L 21.0 16.3" stroke-width="2.40"/>
<path d="M 21.0 16.3 L 21.0 17.1" stroke-width="2.60"/>
<path d="M 21.0 17.1 L 21.0 18.3" stroke-width="2.40"/>
<path d="M 21.0 18.3 L 21.1 19.9" stroke-width="2.00"/>
<path d="M 21.1 19.9 L 21.4 21.6" stroke-width="1.80"/>
<path d="M 21.4 21.6 L 21.9 23.3 L 22.7 24.8 L 23.8 26.0 L 25.2 26.8" stroke-width="1.60"/>
<path d="M 25.2 26.8 L 26.4 27.3 L 27.3 27.5" stroke-width="1.40"/>
<circle cx="60.2" cy="6.0" r="0.63" fill="currentColor" stroke="none"/>
<path d="M 60.2 6.0 L 60.0 6.9" stroke-width="1.40"/>
<path d="M 60.0 6.9 L 59.7 8.4" stroke-width="1.80"/>
<path d="M 59.7 8.4 L 59.2 10.4 L 58.8 12.6" stroke-width="1.60"/>
<path d="M 58.8 12.6 L 58.5 14.9" stroke-width="1.40"/>
<path d="M 58.5 14.9 L 58.3 17.3 L 58.2 19.7 L 58.2 21.8 L 58.3 23.5" stroke-width="1.20"/>
<path d="M 58.3 23.5 L 58.4 24.7 L 58.5 25.3" stroke-width="1.40"/>
<path d="M 58.5 25.3 L 58.6 25.6" stroke-width="1.60"/>
<circle cx="66.6" cy="15.7" r="0.63" fill="currentColor" stroke="none"/>
<path d="M 66.6 15.7 L 66.5 16.1" stroke-width="1.60"/>
<path d="M 66.5 16.1 L 66.4 17.0" stroke-width="2.00"/>
<path d="M 66.4 17.0 L 66.3 18.1" stroke-width="2.20"/>
<path d="M 66.3 18.1 L 66.3 19.3 L 66.3 20.6 L 66.4 21.8" stroke-width="2.00"/>
<path d="M 66.4 21.8 L 66.5 22.7" stroke-width="1.80"/>
<path d="M 66.5 22.7 L 66.6 23.2" stroke-width="1.60"/>
<circle cx="66.7" cy="9.1" r="0.90" fill="currentColor" stroke="none"/>
<circle cx="76.2" cy="16.3" r="0.63" fill="currentColor" stroke="none"/>
<path d="M 76.2 16.3 L 76.1 16.8" stroke-width="1.60"/>
<path d="M 76.1 16.8 L 75.9 17.6" stroke-width="2.00"/>
<path d="M 75.9 17.6 L 75.7 18.7" stroke-width="2.20"/>
<path d="M 75.7 18.7 L 75.5 19.9 L 75.4 21.0 L 75.3 21.9 L 75.3 22.5 L 75.2 22.8" stroke-width="2.00"/>
<circle cx="75.0" cy="23.4" r="0.63" fill="currentColor" stroke="none"/>
<path d="M 75.0 23.4 L 74.9 23.1" stroke-width="1.60"/>
<path d="M 74.9 23.1 L 74.8 22.4 L 74.7 21.5 L 74.7 20.4 L 75.0 19.3" stroke-width="2.20"/>
<path d="M 75.0 19.3 L 75.5 18.1 L 76.2 17.0" stroke-width="2.00"/>
<path d="M 76.2 17.0 L 77.2 16.0 L 78.4 15.3 L 79.8 14.8 L 81.3 14.6" stroke-width="1.80"/>
<path d="M 81.3 14.6 L 83.0 14.7 L 84.6 15.2 L 86.3 16.0" stroke-width="1.60"/>
<path d="M 86.3 16.0 L 87.9 16.9 L 89.3 18.1 L 90.5 19.3 L 91.5 20.5" stroke-width="1.40"/>
<path d="M 91.5 20.5 L 92.2 21.6 L 92.8 22.7 L 93.1 23.4 L 93.3 23.8" stroke-width="1.60"/>
<circle cx="99.2" cy="19.1" r="0.63" fill="currentColor" stroke="none"/>
<path d="M 99.2 19.1 L 99.9 18.9" stroke-width="1.60"/>
<path d="M 99.9 18.9 L 100.9 18.6" stroke-width="1.80"/>
<path d="M 100.9 18.6 L 102.1 18.1 L 103.1 17.6 L 103.8 17.0" stroke-width="2.00"/>
<path d="M 103.8 17.0 L 104.2 16.4 L 104.1 15.7" stroke-width="2.20"/>
<path d="M 104.1 15.7 L 103.7 15.2 L 102.8 14.9" stroke-width="2.40"/>
<path d="M 102.8 14.9 L 101.6 14.8" stroke-width="2.20"/>
<path d="M 101.6 14.8 L 100.2 15.0" stroke-width="2.00"/>
<path d="M 100.2 15.0 L 98.7 15.3 L 97.3 16.0 L 96.1 16.8 L 95.4 17.9 L 95.2 19.2 L 95.5 20.5 L 96.4 21.8" stroke-width="1.80"/>
<path d="M 96.4 21.8 L 97.8 23.0 L 99.7 24.0" stroke-width="1.60"/>
<path d="M 99.7 24.0 L 101.8 24.6 L 104.2 24.9" stroke-width="1.40"/>
<path d="M 104.2 24.9 L 106.6 24.9 L 108.9 24.5 L 110.9 23.8 L 112.6 23.0 L 113.7 22.3 L 114.3 21.8" stroke-width="1.20"/>
<circle cx="141.5" cy="15.0" r="0.63" fill="currentColor" stroke="none"/>
<path d="M 141.5 15.0 L 140.7 15.2" stroke-width="1.40"/>
<path d="M 140.7 15.2 L 139.5 15.6 L 138.1 16.3 L 136.9 17.2 L 136.0 18.3 L 135.6 19.5 L 135.8 20.8 L 136.5 22.1" stroke-width="1.80"/>
<path d="M 136.5 22.1 L 137.6 23.2 L 139.2 24.0 L 141.0 24.4" stroke-width="1.60"/>
<path d="M 141.0 24.4 L 143.0 24.5 L 144.9 24.0 L 146.6 23.2 L 148.1 22.1 L 149.2 20.7 L 149.7 19.3" stroke-width="1.40"/>
<path d="M 149.7 19.3 L 149.9 17.9 L 149.8 17.0" stroke-width="1.60"/>
<path d="M 149.8 17.0 L 149.7 16.4" stroke-width="1.40"/>
<circle cx="165.0" cy="8.3" r="0.63" fill="currentColor" stroke="none"/>
<path d="M 165.0 8.3 L 164.8 7.7" stroke-width="1.60"/>
<path d="M 164.8 7.7 L 164.3 7.0" stroke-width="2.00"/>
<path d="M 164.3 7.0 L 163.6 6.4 L 162.7 6.2 L 161.7 6.5 L 160.8 7.3" stroke-width="2.20"/>
<path d="M 160.8 7.3 L 160.0 8.6" stroke-width="2.00"/>
<path d="M 160.0 8.6 L 159.4 10.4" stroke-width="1.80"/>
<path d="M 159.4 10.4 L 159.0 12.5" stroke-width="1.60"/>
<path d="M 159.0 12.5 L 158.8 14.8 L 158.8 17.4" stroke-width="1.40"/>
<path d="M 158.8 17.4 L 158.9 20.1 L 159.0 22.8 L 159.2 25.3" stroke-width="1.20"/>
<path d="M 159.2 25.3 L 159.3 27.3 L 159.4 28.4" stroke-width="1.00"/>
<circle cx="160.2" cy="18.4" r="0.63" fill="currentColor" stroke="none"/>
<path d="M 160.2 18.4 L 160.3 18.2" stroke-width="1.60"/>
<path d="M 160.3 18.2 L 160.6 17.9" stroke-width="2.20"/>
<path d="M 160.6 17.9 L 161.0 17.6 L 161.7 17.5 L 162.7 17.4" stroke-width="2.60"/>
<path d="M 162.7 17.4 L 163.9 17.3" stroke-width="2.20"/>
<path d="M 163.9 17.3 L 165.1 17.3" stroke-width="2.00"/>
<path d="M 165.1 17.3 L 165.8 17.3" stroke-width="1.80"/>
<circle cx="186.6" cy="16.0" r="0.63" fill="currentColor" stroke="none"/>
<path d="M 186.6 16.0 L 186.6 16.6" stroke-width="1.60"/>
<path d="M 186.6 16.6 L 186.6 17.6 L 186.6 18.9 L 186.6 20.2" stroke-width="2.00"/>
<path d="M 186.6 20.2 L 186.6 21.4 L 186.5 22.6 L 186.5 23.5" stroke-width="1.80"/>
<path d="M 186.5 23.5 L 186.4 24.0" stroke-width="1.60"/>
<circle cx="187.1" cy="9.3" r="0.63" fill="currentColor" stroke="none"/>
<path d="M 187.1 9.3 L 187.2 9.3" stroke-width="1.60"/>
<path d="M 187.2 9.3 L 187.3 9.4 L 187.4 9.5" stroke-width="2.40"/>
<path d="M 187.4 9.5 L 187.4 9.6" stroke-width="2.00"/>
<circle cx="194.0" cy="16.5" r="0.63" fill="currentColor" stroke="none"/>
<path d="M 194.0 16.5 L 193.9 17.1" stroke-width="1.60"/>
<path d="M 193.9 17.1 L 193.8 17.9" stroke-width="2.00"/>
<path d="M 193.8 17.9 L 193.6 19.1" stroke-width="2.20"/>
<path d="M 193.6 19.1 L 193.4 20.2 L 193.2 21.3 L 193.1 22.3" stroke-width="2.00"/>
<path d="M 193.1 22.3 L 193.0 23.0" stroke-width="2.20"/>
<path d="M 193.0 23.0 L 192.9 23.4" stroke-width="2.40"/>
<path d="M 192.9 23.4 L 192.8 23.5 L 192.7 23.2 L 192.8 22.5 L 192.9 21.6" stroke-width="2.60"/>
<path d="M 192.9 21.6 L 193.3 20.5" stroke-width="2.40"/>
<path d="M 193.3 20.5 L 193.8 19.3" stroke-width="2.20"/>
<path d="M 193.8 19.3 L 194.5 18.0" stroke-width="2.00"/>
<path d="M 194.5 18.0 L 195.5 16.9 L 196.6 16.0 L 197.9 15.3 L 199.3 14.9" stroke-width="1.80"/>
<path d="M 199.3 14.9 L 200.8 14.9 L 202.4 15.3 L 203.8 15.9 L 205.2 16.8 L 206.4 17.9 L 207.6 19.2 L 208.6 20.5 L 209.4 21.7 L 210.2 22.7" stroke-width="1.60"/>
<path d="M 210.2 22.7 L 210.7 23.3" stroke-width="1.80"/>
<path d="M 210.7 23.3 L 211.2 23.7" stroke-width="2.00"/>
<path d="M 211.2 23.7 L 211.5 23.7" stroke-width="2.20"/>
<path d="M 211.5 23.7 L 211.6 23.7" stroke-width="2.00"/>
<circle cx="217.4" cy="9.9" r="0.90" fill="currentColor" stroke="none"/>
<circle cx="217.6" cy="11.8" r="0.63" fill="currentColor" stroke="none"/>
<path d="M 217.6 11.8 L 217.6 12.5" stroke-width="1.60"/>
<path d="M 217.6 12.5 L 217.5 13.7" stroke-width="1.80"/>
<path d="M 217.5 13.7 L 217.4 15.2" stroke-width="2.00"/>
<path d="M 217.4 15.2 L 217.2 16.7 L 216.9 18.3" stroke-width="1.80"/>
<path d="M 216.9 18.3 L 216.7 19.7" stroke-width="1.60"/>
<path d="M 216.7 19.7 L 216.5 20.9 L 216.5 21.7" stroke-width="1.80"/>
<path d="M 216.5 21.7 L 216.5 22.2" stroke-width="2.00"/>
<path d="M 216.5 22.2 L 216.5 22.3" stroke-width="2.20"/>
<path d="M 216.5 22.3 L 216.6 22.2" stroke-width="2.00"/>
<circle cx="221.3" cy="15.9" r="0.63" fill="currentColor" stroke="none"/>
<path d="M 221.3 15.9 L 220.7 16.1" stroke-width="1.60"/>
<path d="M 220.7 16.1 L 219.7 16.4 L 218.5 16.9 L 217.2 17.5" stroke-width="2.00"/>
<path d="M 217.2 17.5 L 216.1 18.1 L 215.2 18.8" stroke-width="1.80"/>
<path d="M 215.2 18.8 L 214.7 19.4" stroke-width="2.00"/>
<path d="M 214.7 19.4 L 214.7 20.1 L 215.2 20.8 L 216.2 21.4" stroke-width="2.20"/>
<path d="M 216.2 21.4 L 217.8 22.0" stroke-width="2.00"/>
<path d="M 217.8 22.0 L 219.9 22.5" stroke-width="1.80"/>
<path d="M 219.9 22.5 L 222.5 23.0" stroke-width="1.40"/>
<path d="M 222.5 23.0 L 225.2 23.5 L 227.4 23.9" stroke-width="1.20"/>
<path d="M 227.4 23.9 L 228.8 24.1" stroke-width="1.00"/>
<circle cx="241.2" cy="21.5" r="0.90" fill="currentColor" stroke="none"/>
<circle cx="241.2" cy="22.7" r="0.63" fill="currentColor" stroke="none"/>
<path d="M 241.2 22.7 L 240.9 23.4" stroke-width="1.60"/>
<path d="M 240.9 23.4 L 240.4 24.5 L 239.6 26.0" stroke-width="1.80"/>
<path d="M 239.6 26.0 L 238.5 27.5 L 237.5 29.0" stroke-width="1.60"/>
<path d="M 237.5 29.0 L 236.7 30.1 L 236.2 30.7" stroke-width="1.40"/>
<circle cx="259.9" cy="10.5" r="0.63" fill="currentColor" stroke="none"/>
<path d="M 259.9 10.5 L 259.9 11.6" stroke-width="1.40"/>
<path d="M 259.9 11.6 L 259.8 13.3 L 259.6 15.5" stroke-width="1.60"/>
<path d="M 259.6 15.5 L 259.4 17.7 L 259.3 19.8 L 259.2 21.7 L 259.1 23.1" stroke-width="1.40"/>
<path d="M 259.1 23.1 L 259.1 24.0" stroke-width="1.20"/>
<circle cx="255.4" cy="15.3" r="0.63" fill="currentColor" stroke="none"/>
<path d="M 255.4 15.3 L 256.2 15.3" stroke-width="1.60"/>
<path d="M 256.2 15.3 L 257.4 15.3 L 259.1 15.3" stroke-width="1.80"/>
<path d="M 259.1 15.3 L 261.2 15.4" stroke-width="1.60"/>
<path d="M 261.2 15.4 L 263.4 15.4 L 265.8 15.4" stroke-width="1.40"/>
<path d="M 265.8 15.4 L 267.7 15.4" stroke-width="1.20"/>
<path d="M 267.7 15.4 L 268.9 15.3" stroke-width="1.00"/>
<circle cx="272.2" cy="10.5" r="0.63" fill="currentColor" stroke="none"/>
<path d="M 272.2 10.5 L 272.2 11.4" stroke-width="1.40"/>
<path d="M 272.2 11.4 L 272.0 12.8 L 271.8 14.7" stroke-width="1.80"/>
<path d="M 271.8 14.7 L 271.6 16.5 L 271.4 18.2 L 271.2 19.7 L 271.0 20.9" stroke-width="1.60"/>
<path d="M 271.0 20.9 L 270.9 21.8" stroke-width="1.80"/>
<path d="M 270.9 21.8 L 270.9 22.3" stroke-width="2.00"/>
<path d="M 270.9 22.3 L 270.9 22.4" stroke-width="2.40"/>
<path d="M 270.9 22.4 L 271.1 22.1 L 271.3 21.3 L 271.7 20.3" stroke-width="2.60"/>
<path d="M 271.7 20.3 L 272.4 19.1" stroke-width="2.20"/>
<path d="M 272.4 19.1 L 273.2 17.9" stroke-width="2.00"/>
<path d="M 273.2 17.9 L 274.4 16.7 L 275.7 15.8" stroke-width="1.80"/>
<path d="M 275.7 15.8 L 277.2 15.1 L 278.8 14.6 L 280.5 14.6 L 282.1 14.7 L 283.7 15.2 L 285.1 15.9 L 286.4 16.9 L 287.4 18.0 L 288.2 19.2 L 288.8 20.3" stroke-width="1.60"/>
<path d="M 288.8 20.3 L 289.3 21.4 L 289.6 22.2" stroke-width="1.80"/>
<path d="M 289.6 22.2 L 290.0 22.7" stroke-width="2.00"/>
<path d="M 290.0 22.7 L 290.5 22.8" stroke-width="2.20"/>
<path d="M 290.5 22.8 L 291.1 22.6 L 291.8 22.0 L 292.5 21.1" stroke-width="2.40"/>
<path d="M 292.5 21.1 L 293.2 20.1" stroke-width="2.20"/>
<path d="M 293.2 20.1 L 293.9 18.9" stroke-width="2.00"/>
<path d="M 293.9 18.9 L 294.5 17.7 L 295.0 16.6" stroke-width="1.80"/>
<path d="M 295.0 16.6 L 295.3 15.8" stroke-width="2.00"/>
<path d="M 295.3 15.8 L 295.6 15.4" stroke-width="2.20"/>
<path d="M 295.6 15.4 L 295.7 15.4" stroke-width="2.40"/>
<path d="M 295.7 15.4 L 295.8 15.7 L 295.8 16.3 L 295.7 17.3" stroke-width="2.60"/>
<path d="M 295.7 17.3 L 295.6 18.4" stroke-width="2.40"/>
<path d="M 295.6 18.4 L 295.5 19.6 L 295.5 20.7 L 295.6 21.5 L 295.7 22.1" stroke-width="2.20"/>
<path d="M 295.7 22.1 L 295.8 22.4" stroke-width="2.40"/>
<path d="M 295.8 22.4 L 295.9 22.6" stroke-width="2.00"/>
<circle cx="296.4" cy="9.4" r="0.63" fill="currentColor" stroke="none"/>
<path d="M 296.4 9.4 L 296.5 9.4" stroke-width="1.60"/>
<path d="M 296.5 9.4 L 296.7 9.5 L 296.9 9.6" stroke-width="2.40"/>
<path d="M 296.9 9.6 L 297.0 9.7" stroke-width="2.00"/>
<circle cx="301.8" cy="15.6" r="0.63" fill="currentColor" stroke="none"/>
<path d="M 301.8 15.6 L 301.8 16.1" stroke-width="1.60"/>
<path d="M 301.8 16.1 L 301.9 16.8" stroke-width="2.00"/>
<path d="M 301.9 16.8 L 301.9 17.8 L 301.9 18.8 L 301.8 19.8 L 301.8 20.6" stroke-width="2.20"/>
<path d="M 301.8 20.6 L 301.7 21.2" stroke-width="2.40"/>
<path d="M 301.7 21.2 L 301.7 21.5 L 301.7 21.6 L 301.7 21.2 L 301.7 20.5 L 301.9 19.6" stroke-width="2.60"/>
<path d="M 301.9 19.6 L 302.2 18.5" stroke-width="2.40"/>
<path d="M 302.2 18.5 L 302.8 17.4" stroke-width="2.20"/>
<path d="M 302.8 17.4 L 303.5 16.3 L 304.4 15.3" stroke-width="2.00"/>
<path d="M 304.4 15.3 L 305.5 14.5 L 306.8 14.0 L 308.2 13.7 L 309.7 13.7 L 311.1 14.0" stroke-width="1.80"/>
<path d="M 311.1 14.0 L 312.6 14.6 L 313.9 15.4 L 315.1 16.4 L 316.1 17.6 L 316.9 18.8 L 317.5 20.0" stroke-width="1.60"/>
<path d="M 317.5 20.0 L 318.0 21.0 L 318.3 21.8" stroke-width="1.80"/>
<path d="M 318.3 21.8 L 318.6 22.4" stroke-width="2.00"/>
<path d="M 318.6 22.4 L 318.9 22.7" stroke-width="2.20"/>
<path d="M 318.9 22.7 L 319.0 22.7" stroke-width="2.00"/>
<circle cx="325.7" cy="10.6" r="0.63" fill="currentColor" stroke="none"/>
<path d="M 325.7 10.6 L 325.5 11.5" stroke-width="1.40"/>
<path d="M 325.5 11.5 L 325.1 12.9 L 324.6 14.6" stroke-width="1.80"/>
<path d="M 324.6 14.6 L 324.1 16.4 L 323.6 18.0 L 323.3 19.4 L 323.0 20.5" stroke-width="1.60"/>
<path d="M 323.0 20.5 L 323.0 21.1" stroke-width="1.40"/>
<circle cx="329.0" cy="14.9" r="0.63" fill="currentColor" stroke="none"/>
<path d="M 329.0 14.9 L 328.5 14.8" stroke-width="1.60"/>
<path d="M 328.5 14.8 L 327.5 14.6 L 326.2 14.5" stroke-width="2.00"/>
<path d="M 326.2 14.5 L 324.6 14.5 L 323.1 14.6 L 321.6 14.8 L 320.4 15.0 L 319.5 15.2" stroke-width="1.80"/>
<path d="M 319.5 15.2 L 319.1 15.4" stroke-width="2.00"/>
<path d="M 319.1 15.4 L 319.1 15.7" stroke-width="2.40"/>
<path d="M 319.1 15.7 L 319.6 15.9" stroke-width="2.60"/>
<path d="M 319.6 15.9 L 320.6 16.3" stroke-width="2.40"/>
<path d="M 320.6 16.3 L 322.2 16.7" stroke-width="2.20"/>
<path d="M 322.2 16.7 L 324.1 17.1" stroke-width="1.80"/>
<path d="M 324.1 17.1 L 326.3 17.6" stroke-width="1.60"/>
<path d="M 326.3 17.6 L 328.7 18.2" stroke-width="1.40"/>
<path d="M 328.7 18.2 L 331.0 18.8 L 333.2 19.5 L 334.8 20.0 L 335.8 20.3" stroke-width="1.20"/>
<circle cx="337.7" cy="15.6" r="0.63" fill="currentColor" stroke="none"/>
<path d="M 337.7 15.6 L 337.6 15.9" stroke-width="1.60"/>
<path d="M 337.6 15.9 L 337.5 16.4" stroke-width="2.20"/>
<path d="M 337.5 16.4 L 337.3 17.1 L 337.1 18.0 L 337.0 18.8 L 336.9 19.7" stroke-width="2.40"/>
<path d="M 336.9 19.7 L 336.8 20.3" stroke-width="2.20"/>
<path d="M 336.8 20.3 L 336.8 20.7" stroke-width="2.00"/>
<circle cx="337.8" cy="10.4" r="0.63" fill="currentColor" stroke="none"/>
<path d="M 337.8 10.4 L 337.8 10.3" stroke-width="1.60"/>
<path d="M 337.8 10.3 L 337.8 10.1 L 337.8 10.0" stroke-width="2.40"/>
<path d="M 337.8 10.0 L 337.8 10.0" stroke-width="2.00"/>
<circle cx="342.5" cy="14.0" r="0.63" fill="currentColor" stroke="none"/>
<path d="M 342.5 14.0 L 342.4 14.4" stroke-width="1.60"/>
<path d="M 342.4 14.4 L 342.4 15.0" stroke-width="2.20"/>
<path d="M 342.4 15.0 L 342.3 15.9" stroke-width="2.40"/>
<path d="M 342.3 15.9 L 342.3 17.0 L 342.3 18.0 L 342.3 18.9 L 342.4 19.7" stroke-width="2.20"/>
<path d="M 342.4 19.7 L 342.4 20.2" stroke-width="2.40"/>
<path d="M 342.4 20.2 L 342.5 20.3 L 342.6 20.1 L 342.8 19.6 L 343.1 18.7 L 343.5 17.7" stroke-width="2.60"/>
<path d="M 343.5 17.7 L 344.2 16.6" stroke-width="2.20"/>
<path d="M 344.2 16.6 L 345.0 15.5 L 346.0 14.5" stroke-width="2.00"/>
<path d="M 346.0 14.5 L 347.2 13.6 L 348.5 13.0 L 350.0 12.8" stroke-width="1.80"/>
<path d="M 350.0 12.8 L 351.5 12.9 L 353.0 13.4 L 354.4 14.3 L 355.6 15.5 L 356.7 16.8 L 357.7 18.3" stroke-width="1.60"/>
<path d="M 357.7 18.3 L 358.6 19.7 L 359.3 20.8 L 359.7 21.4" stroke-width="1.40"/>
<circle cx="369.6" cy="13.7" r="0.63" fill="currentColor" stroke="none"/>
<path d="M 369.6 13.7 L 368.8 13.6" stroke-width="1.40"/>
<path d="M 368.8 13.6 L 367.4 13.5 L 365.7 13.6" stroke-width="1.80"/>
<path d="M 365.7 13.6 L 364.1 13.9 L 362.9 14.4" stroke-width="1.60"/>
<path d="M 362.9 14.4 L 362.0 15.1 L 361.7 15.9" stroke-width="1.80"/>
<path d="M 361.7 15.9 L 361.9 16.6" stroke-width="2.00"/>
<path d="M 361.9 16.6 L 362.6 17.1 L 363.7 17.4" stroke-width="2.20"/>
<path d="M 363.7 17.4 L 365.1 17.5" stroke-width="2.00"/>
<path d="M 365.1 17.5 L 366.7 17.2 L 368.3 16.7" stroke-width="1.80"/>
<path d="M 368.3 16.7 L 369.8 16.2 L 371.0 15.7" stroke-width="1.60"/>
<path d="M 371.0 15.7 L 371.9 15.3" stroke-width="1.80"/>
<path d="M 371.9 15.3 L 372.5 15.2" stroke-width="2.00"/>
<path d="M 372.5 15.2 L 372.9 15.6" stroke-width="2.20"/>
<path d="M 372.9 15.6 L 373.1 16.3" stroke-width="2.40"/>
<path d="M 373.1 16.3 L 373.1 17.6" stroke-width="2.20"/>
<path d="M 373.1 17.6 L 373.1 19.3" stroke-width="2.00"/>
<path d="M 373.1 19.3 L 373.0 21.4" stroke-width="1.80"/>
<path d="M 373.0 21.4 L 372.7 23.6" stroke-width="1.60"/>
<path d="M 372.7 23.6 L 372.2 25.9" stroke-width="1.40"/>
<path d="M 372.2 25.9 L 371.4 28.1 L 370.2 29.8 L 368.7 31.1" stroke-width="1.20"/>
<path d="M 368.7 31.1 L 366.9 31.7 L 365.0 31.6 L 363.0 31.0 L 361.3 30.0 L 359.8 28.6 L 358.8 26.9 L 358.2 25.3 L 358.1 23.9" stroke-width="1.40"/>
<path d="M 358.1 23.9 L 358.1 23.1" stroke-width="1.20"/>
<circle cx="399.2" cy="15.2" r="0.63" fill="currentColor" stroke="none"/>
<path d="M 399.2 15.2 L 398.3 15.4" stroke-width="1.40"/>
<path d="M 398.3 15.4 L 397.0 15.9 L 395.5 16.6" stroke-width="1.80"/>
<path d="M 395.5 16.6 L 394.1 17.4 L 393.2 18.4" stroke-width="1.60"/>
<path d="M 393.2 18.4 L 392.8 19.3 L 392.8 20.3" stroke-width="1.80"/>
<path d="M 392.8 20.3 L 393.3 21.0 L 394.1 21.6 L 395.3 21.8 L 396.6 21.7" stroke-width="2.00"/>
<path d="M 396.6 21.7 L 398.0 21.2 L 399.3 20.4 L 400.5 19.4" stroke-width="1.80"/>
<path d="M 400.5 19.4 L 401.4 18.3 L 402.0 17.1" stroke-width="1.60"/>
<path d="M 402.0 17.1 L 402.5 16.2" stroke-width="1.80"/>
<path d="M 402.5 16.2 L 402.7 15.5" stroke-width="2.00"/>
<path d="M 402.7 15.5 L 402.7 15.1" stroke-width="2.20"/>
<path d="M 402.7 15.1 L 402.7 15.0" stroke-width="2.40"/>
<path d="M 402.7 15.0 L 402.7 15.4 L 402.6 16.2 L 402.7 17.4" stroke-width="2.60"/>
<path d="M 402.7 17.4 L 402.8 18.8" stroke-width="2.20"/>
<path d="M 402.8 18.8 L 403.2 20.2" stroke-width="2.00"/>
<path d="M 403.2 20.2 L 403.8 21.5 L 404.3 22.4" stroke-width="1.80"/>
<path d="M 404.3 22.4 L 404.7 22.9" stroke-width="1.60"/>
<circle cx="418.6" cy="13.8" r="0.63" fill="currentColor" stroke="none"/>
<path d="M 418.6 13.8 L 418.1 13.5" stroke-width="1.60"/>
<path d="M 418.1 13.5 L 417.0 13.1 L 415.5 12.8" stroke-width="2.00"/>
<path d="M 415.5 12.8 L 413.7 12.8" stroke-width="1.80"/>
<path d="M 413.7 12.8 L 412.1 13.0 L 410.8 13.4" stroke-width="1.60"/>
<path d="M 410.8 13.4 L 410.1 14.0" stroke-width="1.80"/>
<path d="M 410.1 14.0 L 410.0 14.7 L 410.7 15.4 L 411.9 16.3" stroke-width="2.00"/>
<path d="M 411.9 16.3 L 413.7 17.2" stroke-width="1.80"/>
<path d="M 413.7 17.2 L 415.7 18.1" stroke-width="1.60"/>
<path d="M 415.7 18.1 L 417.6 18.9 L 419.4 19.7 L 420.7 20.4" stroke-width="1.40"/>
<path d="M 420.7 20.4 L 421.5 20.9" stroke-width="1.60"/>
<path d="M 421.5 20.9 L 421.7 21.4" stroke-width="1.80"/>
<path d="M 421.7 21.4 L 421.3 21.6 L 420.3 21.8 L 418.9 21.8" stroke-width="2.20"/>
<path d="M 418.9 21.8 L 417.0 21.6" stroke-width="1.80"/>
<path d="M 417.0 21.6 L 414.9 21.3" stroke-width="1.60"/>
<path d="M 414.9 21.3 L 412.6 21.0 L 410.5 20.6 L 408.6 20.1 L 407.1 19.7 L 406.2 19.3 L 405.8 19.1" stroke-width="1.40"/>
<circle cx="443.4" cy="13.7" r="0.63" fill="currentColor" stroke="none"/>
<path d="M 443.4 13.7 L 443.3 14.2" stroke-width="1.60"/>
<path d="M 443.3 14.2 L 443.0 14.9" stroke-width="2.00"/>
<path d="M 443.0 14.9 L 442.7 15.9" stroke-width="2.20"/>
<path d="M 442.7 15.9 L 442.3 17.1 L 442.1 18.4 L 441.9 19.5" stroke-width="2.00"/>
<path d="M 441.9 19.5 L 441.9 20.4" stroke-width="1.80"/>
<path d="M 441.9 20.4 L 441.8 21.0" stroke-width="1.60"/>
<circle cx="443.2" cy="7.8" r="0.63" fill="currentColor" stroke="none"/>
<path d="M 443.2 7.8 L 443.0 7.6" stroke-width="1.60"/>
<path d="M 443.0 7.6 L 442.9 7.4" stroke-width="2.20"/>
<path d="M 442.9 7.4 L 442.7 7.2" stroke-width="2.40"/>
<path d="M 442.7 7.2 L 442.6 7.2" stroke-width="2.00"/>
<circle cx="453.8" cy="7.6" r="0.63" fill="currentColor" stroke="none"/>
<path d="M 453.8 7.6 L 453.7 8.2" stroke-width="1.60"/>
<path d="M 453.7 8.2 L 453.5 9.3" stroke-width="1.80"/>
<path d="M 453.5 9.3 L 453.1 10.9" stroke-width="2.00"/>
<path d="M 453.1 10.9 L 452.8 12.6" stroke-width="1.80"/>
<path d="M 452.8 12.6 L 452.5 14.5" stroke-width="1.60"/>
<path d="M 452.5 14.5 L 452.2 16.5 L 452.0 18.5 L 451.9 20.2 L 451.8 21.4" stroke-width="1.40"/>
<path d="M 451.8 21.4 L 451.7 22.2" stroke-width="1.60"/>
<path d="M 451.7 22.2 L 451.6 22.5 L 451.6 22.5" stroke-width="1.80"/>
<circle cx="456.3" cy="13.2" r="0.63" fill="currentColor" stroke="none"/>
<path d="M 456.3 13.2 L 457.1 13.4" stroke-width="1.40"/>
<path d="M 457.1 13.4 L 458.4 13.5 L 459.6 13.7" stroke-width="1.80"/>
<path d="M 459.6 13.7 L 460.4 13.9" stroke-width="1.60"/>
<circle cx="483.9" cy="15.0" r="0.63" fill="currentColor" stroke="none"/>
<path d="M 483.9 15.0 L 483.1 15.0" stroke-width="1.40"/>
<path d="M 483.1 15.0 L 481.7 15.2 L 479.9 15.6" stroke-width="1.80"/>
<path d="M 479.9 15.6 L 478.3 16.1 L 477.0 16.9 L 476.2 17.7" stroke-width="1.60"/>
<path d="M 476.2 17.7 L 476.0 18.5" stroke-width="1.80"/>
<path d="M 476.0 18.5 L 476.4 19.3 L 477.4 19.9 L 478.7 20.2" stroke-width="2.00"/>
<path d="M 478.7 20.2 L 480.4 20.3" stroke-width="1.80"/>
<path d="M 480.4 20.3 L 482.3 20.1 L 484.2 19.7" stroke-width="1.60"/>
<path d="M 484.2 19.7 L 485.9 19.1 L 487.3 18.4" stroke-width="1.40"/>
<path d="M 487.3 18.4 L 488.4 17.8" stroke-width="1.60"/>
<path d="M 488.4 17.8 L 489.1 17.4" stroke-width="1.80"/>
<path d="M 489.1 17.4 L 489.5 17.2" stroke-width="2.00"/>
<path d="M 489.5 17.2 L 489.7 17.5" stroke-width="2.40"/>
<path d="M 489.7 17.5 L 489.7 18.2" stroke-width="2.60"/>
<path d="M 489.7 18.2 L 489.6 19.4" stroke-width="2.40"/>
<path d="M 489.6 19.4 L 489.4 21.0" stroke-width="2.00"/>
<path d="M 489.4 21.0 L 489.1 23.1" stroke-width="1.80"/>
<path d="M 489.1 23.1 L 488.7 25.4" stroke-width="1.60"/>
<path d="M 488.7 25.4 L 488.1 27.8" stroke-width="1.40"/>
<path d="M 488.1 27.8 L 487.2 30.2 L 486.0 32.3 L 484.4 34.0 L 482.5 35.2 L 480.3 35.7 L 477.9 35.5 L 475.5 34.6 L 473.3 33.0" stroke-width="1.20"/>
<path d="M 473.3 33.0 L 471.6 31.0 L 470.4 29.2 L 469.9 28.0" stroke-width="1.00"/>
<circle cx="499.6" cy="17.8" r="0.63" fill="currentColor" stroke="none"/>
<path d="M 499.6 17.8 L 498.9 18.1" stroke-width="1.60"/>
<path d="M 498.9 18.1 L 497.7 18.7 L 496.3 19.5 L 495.0 20.4 L 494.0 21.3 L 493.5 22.2 L 493.4 23.1" stroke-width="1.80"/>
<path d="M 493.4 23.1 L 493.9 23.9 L 494.8 24.5 L 496.0 25.0" stroke-width="2.00"/>
<path d="M 496.0 25.0 L 497.5 25.1 L 499.2 24.8" stroke-width="1.80"/>
<path d="M 499.2 24.8 L 500.8 24.3 L 502.3 23.4 L 503.5 22.3 L 504.4 21.1 L 504.8 19.8 L 504.7 18.6" stroke-width="1.60"/>
<path d="M 504.7 18.6 L 504.2 17.5 L 503.3 16.6 L 502.2 16.1 L 501.0 16.0 L 500.1 16.0" stroke-width="1.80"/>
<path d="M 500.1 16.0 L 499.5 16.2" stroke-width="1.60"/>
<circle cx="510.1" cy="18.5" r="0.63" fill="currentColor" stroke="none"/>
<path d="M 510.1 18.5 L 510.8 18.4" stroke-width="1.60"/>
<path d="M 510.8 18.4 L 511.9 18.2" stroke-width="1.80"/>
<path d="M 511.9 18.2 L 513.2 17.9" stroke-width="2.00"/>
<path d="M 513.2 17.9 L 514.4 17.4 L 515.4 16.8" stroke-width="1.80"/>
<path d="M 515.4 16.8 L 516.0 16.2" stroke-width="2.00"/>
<path d="M 516.0 16.2 L 516.3 15.6" stroke-width="2.20"/>
<path d="M 516.3 15.6 L 516.1 15.1 L 515.5 14.8 L 514.5 14.7" stroke-width="2.40"/>
<path d="M 514.5 14.7 L 513.2 15.0" stroke-width="2.20"/>
<path d="M 513.2 15.0 L 511.7 15.5" stroke-width="2.00"/>
<path d="M 511.7 15.5 L 510.3 16.3 L 509.0 17.3" stroke-width="1.80"/>
<path d="M 509.0 17.3 L 508.2 18.4" stroke-width="1.60"/>
<path d="M 508.2 18.4 L 507.8 19.6 L 508.0 20.7 L 508.7 21.7 L 509.9 22.5" stroke-width="1.80"/>
<path d="M 509.9 22.5 L 511.6 23.1 L 513.7 23.4" stroke-width="1.60"/>
<path d="M 513.7 23.4 L 515.9 23.4" stroke-width="1.40"/>
<path d="M 515.9 23.4 L 517.8 23.2 L 519.1 23.0" stroke-width="1.20"/>
<circle cx="529.2" cy="13.8" r="0.63" fill="currentColor" stroke="none"/>
<path d="M 529.2 13.8 L 528.5 13.7" stroke-width="1.40"/>
<path d="M 528.5 13.7 L 527.2 13.6 L 525.6 13.6 L 524.1 13.7 L 523.1 14.0" stroke-width="1.80"/>
<path d="M 523.1 14.0 L 522.7 14.4" stroke-width="2.00"/>
<path d="M 522.7 14.4 L 522.9 15.0 L 523.8 15.7" stroke-width="2.20"/>
<path d="M 523.8 15.7 L 525.2 16.5" stroke-width="2.00"/>
<path d="M 525.2 16.5 L 526.9 17.4" stroke-width="1.80"/>
<path d="M 526.9 17.4 L 528.6 18.4" stroke-width="1.60"/>
<path d="M 528.6 18.4 L 530.2 19.3 L 531.4 20.3" stroke-width="1.40"/>
<path d="M 531.4 20.3 L 532.1 21.1" stroke-width="1.60"/>
<path d="M 532.1 21.1 L 532.1 21.8" stroke-width="1.80"/>
<path d="M 532.1 21.8 L 531.5 22.3 L 530.2 22.5" stroke-width="2.00"/>
<path d="M 530.2 22.5 L 528.5 22.5" stroke-width="1.80"/>
<path d="M 528.5 22.5 L 526.4 22.3" stroke-width="1.60"/>
<path d="M 526.4 22.3 L 524.0 21.9 L 521.6 21.4" stroke-width="1.40"/>
<path d="M 521.6 21.4 L 519.4 20.8 L 517.8 20.2 L 516.8 19.9" stroke-width="1.20"/>
</svg>
