<svg xmlns="http://www.w3.org/2000/svg" viewBox="0 0 402.7 43.5" fill="none" stroke="currentColor" stroke-linecap="round" stroke-linejoin="round" role="img">
<circle cx="15.0" cy="15.6" r="0.63" fill="currentColor" stroke="none"/>
<path d="M 15.0 15.6 L 14.7 15.4" stroke-width="1.60"/>
<path d="M 14.7 15.4 L 14.1 15.1" stroke-width="2.00"/>
<path d="M 14.1 15.1 L 13.2 14.9 L 12.0 15.1" stroke-width="2.20"/>
<path d="M 12.0 15.1 L 10.7 15.7" stroke-width="2.00"/>
<path d="M 10.7 15.7 L 9.4 16.9" stroke-width="1.80"/>
<path d="M 9.4 16.9 L 8.0 18.5 L 6.9 20.4" stroke-width="1.60"/>
<path d="M 6.9 20.4 L 6.2 22.4 L 6.0 24.1 L 6.2 25.4" stroke-width="1.40"/>
<path d="M 6.2 25.4 L 6.9 26.1" stroke-width="1.60"/>
<path d="M 6.9 26.1 L 7.8 26.2 L 9.0 25.5 L 10.4 24.3" stroke-width="1.80"/>
<path d="M 10.4 24.3 L 11.8 22.6" stroke-width="1.60"/>
<path d="M 11.8 22.6 L 13.1 20.7 L 14.3 18.8 L 15.2 17.1 L 15.8 15.8" stroke-width="1.40"/>
<path d="M 15.8 15.8 L 16.1 14.9" stroke-width="1.60"/>
<path d="M 16.1 14.9 L 16.2 14.6" stroke-width="1.80"/>
<path d="M 16.2 14.6 L 16.2 14.9" stroke-width="2.20"/>
<path d="M 16.2 14.9 L 16.0 15.8" stroke-width="2.40"/>
<path d="M 16.0 15.8 L 15.8 17.4" stroke-width="2.20"/>
<path d="M 15.8 17.4 L 15.6 19.4" stroke-width="1.80"/>
<path d="M 15.6 19.4 L 15.5 21.7" stroke-width="1.60"/>
<path d="M 15.5 21.7 L 15.6 24.0 L 15.9 26.0 L 16.5 27.6 L 17.1 28.5 L 17.5 29.0" stroke-width="1.40"/>
<circle cx="36.4" cy="8.4" r="0.63" fill="currentColor" stroke="none"/>
<path d="M 36.4 8.4 L 36.3 9.0" stroke-width="1.60"/>
<path d="M 36.3 9.0 L 36.1 10.3 L 35.8 12.1" stroke-width="1.80"/>
<path d="M 35.8 12.1 L 35.5 14.3" stroke-width="1.60"/>
<path d="M 35.5 14.3 L 35.3 16.8 L 35.0 19.4" stroke-width="1.40"/>
<path d="M 35.0 19.4 L 34.9 21.8 L 34.9 23.9" stroke-width="1.20"/>
<path d="M 34.9 23.9 L 35.2 25.4 L 35.7 26.3" stroke-width="1.40"/>
<path d="M 35.7 26.3 L 36.5 26.5" stroke-width="1.60"/>
<path d="M 36.5 26.5 L 37.5 25.8 L 38.8 24.5" stroke-width="1.80"/>
<path d="M 38.8 24.5 L 40.1 22.8" stroke-width="1.60"/>
<path d="M 40.1 22.8 L 41.5 20.8 L 42.7 19.0 L 43.6 17.4 L 44.3 16.3" stroke-width="1.40"/>
<path d="M 44.3 16.3 L 44.6 15.7" stroke-width="1.60"/>
<path d="M 44.6 15.7 L 44.8 15.6" stroke-width="2.00"/>
<path d="M 44.8 15.6 L 44.7 16.2 L 44.6 17.3" stroke-width="2.40"/>
<path d="M 44.6 17.3 L 44.5 18.9" stroke-width="2.20"/>
<path d="M 44.5 18.9 L 44.3 20.8" stroke-width="1.80"/>
<path d="M 44.3 20.8 L 44.2 22.7 L 44.3 24.2 L 44.3 25.2 L 44.4 25.7" stroke-width="1.60"/>
<circle cx="45.6" cy="9.7" r="0.63" fill="currentColor" stroke="none"/>
<path d="M 45.6 9.7 L 45.7 9.7" stroke-width="1.60"/>
<path d="M 45.7 9.7 L 45.8 9.8 L 46.0 10.0" stroke-width="2.40"/>
<path d="M 46.0 10.0 L 46.1 10.2" stroke-width="2.00"/>
<circle cx="50.5" cy="16.3" r="0.63" fill="currentColor" stroke="none"/>
<path d="M 50.5 16.3 L 50.4 16.9" stroke-width="1.60"/>
<path d="M 50.4 16.9 L 50.2 18.1 L 50.0 19.7" stroke-width="2.00"/>
<path d="M 50.0 19.7 L 49.8 21.5" stroke-width="1.80"/>
<path d="M 49.8 21.5 L 49.6 23.3 L 49.5 24.9 L 49.5 26.1" stroke-width="1.60"/>
<path d="M 49.5 26.1 L 49.6 26.8" stroke-width="1.80"/>
<path d="M 49.6 26.8 L 49.8 26.9" stroke-width="2.20"/>
<path d="M 49.8 26.9 L 50.1 26.4 L 50.6 25.3" stroke-width="2.40"/>
<path d="M 50.6 25.3 L 51.3 23.7" stroke-width="2.00"/>
<path d="M 51.3 23.7 L 52.2 21.8" stroke-width="1.80"/>
<path d="M 52.2 21.8 L 53.2 20.0" stroke-width="1.60"/>
<path d="M 53.2 20.0 L 54.4 18.3 L 55.6 17.0 L 56.8 16.2" stroke-width="1.40"/>
<path d="M 56.8 16.2 L 57.9 15.8" stroke-width="1.60"/>
<path d="M 57.9 15.8 L 58.9 16.0 L 59.7 16.8 L 60.2 18.0 L 60.4 19.7" stroke-width="1.80"/>
<path d="M 60.4 19.7 L 60.4 21.7 L 60.3 23.6 L 60.3 25.3 L 60.3 26.5 L 60.4 27.3 L 60.6 27.6" stroke-width="1.60"/>
<circle cx="65.1" cy="23.1" r="0.63" fill="currentColor" stroke="none"/>
<path d="M 65.1 23.1 L 65.5 22.9" stroke-width="1.60"/>
<path d="M 65.5 22.9 L 66.2 22.3" stroke-width="2.00"/>
<path d="M 66.2 22.3 L 67.2 21.5" stroke-width="2.20"/>
<path d="M 67.2 21.5 L 68.3 20.4" stroke-width="2.00"/>
<path d="M 68.3 20.4 L 69.3 19.1 L 70.0 17.7 L 70.5 16.5 L 70.6 15.4" stroke-width="1.80"/>
<path d="M 70.6 15.4 L 70.4 14.6" stroke-width="2.00"/>
<path d="M 70.4 14.6 L 69.9 14.1 L 69.2 14.2 L 68.2 14.8" stroke-width="2.20"/>
<path d="M 68.2 14.8 L 67.1 15.9" stroke-width="2.00"/>
<path d="M 67.1 15.9 L 66.1 17.6" stroke-width="1.80"/>
<path d="M 66.1 17.6 L 65.3 19.5" stroke-width="1.60"/>
<path d="M 65.3 19.5 L 64.9 21.6 L 65.1 23.5 L 65.9 25.1 L 67.3 26.2 L 69.3 26.6 L 71.6 26.5" stroke-width="1.40"/>
<path d="M 71.6 26.5 L 74.1 25.8 L 76.2 25.0" stroke-width="1.20"/>
<path d="M 76.2 25.0 L 77.5 24.3" stroke-width="1.00"/>
<circle cx="91.3" cy="16.7" r="0.63" fill="currentColor" stroke="none"/>
<path d="M 91.3 16.7 L 91.2 16.5" stroke-width="1.60"/>
<path d="M 91.2 16.5 L 90.8 16.3" stroke-width="2.20"/>
<path d="M 90.8 16.3 L 90.2 16.3 L 89.3 16.6" stroke-width="2.60"/>
<path d="M 89.3 16.6 L 88.3 17.3" stroke-width="2.40"/>
<path d="M 88.3 17.3 L 87.3 18.5" stroke-width="2.20"/>
<path d="M 87.3 18.5 L 86.4 20.0 L 85.8 21.8" stroke-width="1.80"/>
<path d="M 85.8 21.8 L 85.7 23.5 L 86.0 24.9 L 86.9 25.9" stroke-width="1.60"/>
<path d="M 86.9 25.9 L 88.2 26.3 L 89.7 26.2" stroke-width="1.80"/>
<path d="M 89.7 26.2 L 91.4 25.4 L 93.0 24.2" stroke-width="1.60"/>
<path d="M 93.0 24.2 L 94.4 22.7 L 95.3 20.9 L 95.7 19.3 L 95.6 17.8" stroke-width="1.40"/>
<path d="M 95.6 17.8 L 95.0 16.6 L 94.0 15.8" stroke-width="1.60"/>
<path d="M 94.0 15.8 L 92.8 15.4 L 91.9 15.4" stroke-width="1.80"/>
<path d="M 91.9 15.4 L 91.3 15.5" stroke-width="1.60"/>
<circle cx="108.1" cy="9.2" r="0.63" fill="currentColor" stroke="none"/>
<path d="M 108.1 9.2 L 107.9 8.6" stroke-width="1.60"/>
<path d="M 107.9 8.6 L 107.5 7.6 L 107.0 6.7" stroke-width="2.00"/>
<path d="M 107.0 6.7 L 106.3 6.1 L 105.6 6.0 L 104.8 6.5 L 104.0 7.6" stroke-width="2.20"/>
<path d="M 104.0 7.6 L 103.2 9.3" stroke-width="2.00"/>
<path d="M 103.2 9.3 L 102.6 11.6" stroke-width="1.60"/>
<path d="M 102.6 11.6 L 102.1 14.4" stroke-width="1.40"/>
<path d="M 102.1 14.4 L 101.8 17.4 L 101.7 20.6" stroke-width="1.20"/>
<path d="M 101.7 20.6 L 101.8 23.8 L 102.1 26.7 L 102.4 29.2" stroke-width="1.00"/>
<path d="M 102.4 29.2 L 102.9 31.0 L 103.3 32.1" stroke-width="1.20"/>
<path d="M 103.3 32.1 L 103.7 32.3" stroke-width="1.60"/>
<path d="M 103.7 32.3 L 104.0 32.0 L 104.1 31.6" stroke-width="1.80"/>
<circle cx="99.1" cy="19.8" r="0.63" fill="currentColor" stroke="none"/>
<path d="M 99.1 19.8 L 99.4 19.9" stroke-width="1.60"/>
<path d="M 99.4 19.9 L 100.0 20.0 L 101.2 20.2" stroke-width="2.20"/>
<path d="M 101.2 20.2 L 102.9 20.3" stroke-width="2.00"/>
<path d="M 102.9 20.3 L 105.0 20.4" stroke-width="1.80"/>
<path d="M 105.0 20.4 L 107.3 20.4" stroke-width="1.60"/>
<path d="M 107.3 20.4 L 109.2 20.4" stroke-width="1.40"/>
<path d="M 109.2 20.4 L 110.4 20.3" stroke-width="1.20"/>
<circle cx="123.1" cy="16.4" r="0.63" fill="currentColor" stroke="none"/>
<path d="M 123.1 16.4 L 123.1 16.7" stroke-width="1.60"/>
<path d="M 123.1 16.7 L 123.2 17.4 L 123.2 18.6 L 123.2 20.0" stroke-width="2.20"/>
<path d="M 123.2 20.0 L 123.1 21.7" stroke-width="2.00"/>
<path d="M 123.1 21.7 L 123.0 23.5" stroke-width="1.80"/>
<path d="M 123.0 23.5 L 122.9 25.2 L 123.0 26.7" stroke-width="1.60"/>
<path d="M 123.0 26.7 L 123.0 27.6" stroke-width="1.80"/>
<path d="M 123.0 27.6 L 123.2 28.0" stroke-width="2.00"/>
<path d="M 123.2 28.0 L 123.3 28.0" stroke-width="2.20"/>
<path d="M 123.3 28.0 L 123.4 27.8" stroke-width="2.00"/>
<circle cx="124.3" cy="10.5" r="0.63" fill="currentColor" stroke="none"/>
<path d="M 124.3 10.5 L 124.3 10.5" stroke-width="1.60"/>
<path d="M 124.3 10.5 L 124.4 10.7 L 124.5 10.9" stroke-width="2.40"/>
<path d="M 124.5 10.9 L 124.6 11.1" stroke-width="2.00"/>
<circle cx="129.4" cy="16.6" r="0.63" fill="currentColor" stroke="none"/>
<path d="M 129.4 16.6 L 129.4 16.9" stroke-width="1.60"/>
<path d="M 129.4 16.9 L 129.4 17.6 L 129.4 18.8 L 129.3 20.2" stroke-width="2.20"/>
<path d="M 129.3 20.2 L 129.2 21.8" stroke-width="2.00"/>
<path d="M 129.2 21.8 L 129.0 23.4 L 128.9 24.9 L 128.8 26.0" stroke-width="1.80"/>
<path d="M 128.8 26.0 L 128.9 26.6" stroke-width="2.00"/>
<path d="M 128.9 26.6 L 129.0 26.7" stroke-width="2.20"/>
<path d="M 129.0 26.7 L 129.3 26.3 L 129.7 25.3" stroke-width="2.60"/>
<path d="M 129.7 25.3 L 130.3 23.9" stroke-width="2.20"/>
<path d="M 130.3 23.9 L 131.1 22.1" stroke-width="2.00"/>
<path d="M 131.1 22.1 L 132.1 20.3 L 133.2 18.6" stroke-width="1.60"/>
<path d="M 133.2 18.6 L 134.3 17.2 L 135.5 16.1" stroke-width="1.40"/>
<path d="M 135.5 16.1 L 136.6 15.5 L 137.6 15.4" stroke-width="1.60"/>
<path d="M 137.6 15.4 L 138.5 15.8" stroke-width="1.80"/>
<path d="M 138.5 15.8 L 139.2 16.8" stroke-width="2.00"/>
<path d="M 139.2 16.8 L 139.7 18.1 L 140.0 19.8" stroke-width="1.80"/>
<path d="M 140.0 19.8 L 140.0 21.6 L 139.9 23.4 L 139.8 25.1 L 139.8 26.3" stroke-width="1.60"/>
<path d="M 139.8 26.3 L 140.0 26.9" stroke-width="1.80"/>
<path d="M 140.0 26.9 L 140.5 26.9" stroke-width="2.00"/>
<path d="M 140.5 26.9 L 141.1 26.5" stroke-width="2.20"/>
<path d="M 141.1 26.5 L 141.5 26.0" stroke-width="2.00"/>
<circle cx="147.6" cy="9.2" r="0.63" fill="currentColor" stroke="none"/>
<path d="M 147.6 9.2 L 147.5 9.5" stroke-width="1.60"/>
<path d="M 147.5 9.5 L 147.5 10.2 L 147.4 11.5" stroke-width="2.20"/>
<path d="M 147.4 11.5 L 147.1 13.2" stroke-width="2.00"/>
<path d="M 147.1 13.2 L 146.8 15.4" stroke-width="1.80"/>
<path d="M 146.8 15.4 L 146.4 17.7" stroke-width="1.60"/>
<path d="M 146.4 17.7 L 146.1 20.1 L 145.8 22.3 L 145.7 24.1 L 145.7 25.4" stroke-width="1.40"/>
<path d="M 145.7 25.4 L 145.8 26.2 L 145.9 26.5" stroke-width="1.60"/>
<circle cx="152.7" cy="16.8" r="0.63" fill="currentColor" stroke="none"/>
<path d="M 152.7 16.8 L 152.5 16.8" stroke-width="1.60"/>
<path d="M 152.5 16.8 L 152.1 16.8" stroke-width="2.20"/>
<path d="M 152.1 16.8 L 151.4 17.2" stroke-width="2.60"/>
<path d="M 151.4 17.2 L 150.4 17.9" stroke-width="2.40"/>
<path d="M 150.4 17.9 L 149.4 18.9" stroke-width="2.20"/>
<path d="M 149.4 18.9 L 148.3 20.1" stroke-width="2.00"/>
<path d="M 148.3 20.1 L 147.6 21.4 L 147.2 22.6 L 147.3 23.8 L 147.9 24.7" stroke-width="1.80"/>
<path d="M 147.9 24.7 L 149.1 25.3" stroke-width="2.00"/>
<path d="M 149.1 25.3 L 150.7 25.6" stroke-width="1.80"/>
<path d="M 150.7 25.6 L 152.6 25.6 L 154.5 25.4" stroke-width="1.60"/>
<path d="M 154.5 25.4 L 156.1 25.1" stroke-width="1.40"/>
<path d="M 156.1 25.1 L 157.0 24.9" stroke-width="1.20"/>
<circle cx="163.6" cy="23.7" r="0.63" fill="currentColor" stroke="none"/>
<path d="M 163.6 23.7 L 163.7 24.0" stroke-width="1.60"/>
<path d="M 163.7 24.0 L 163.7 24.6" stroke-width="2.20"/>
<path d="M 163.7 24.6 L 163.6 25.6" stroke-width="2.40"/>
<path d="M 163.6 25.6 L 163.3 27.0" stroke-width="2.20"/>
<path d="M 163.3 27.0 L 162.9 28.7" stroke-width="2.00"/>
<path d="M 162.9 28.7 L 162.3 30.5" stroke-width="1.80"/>
<path d="M 162.3 30.5 L 161.7 32.0" stroke-width="1.60"/>
<path d="M 161.7 32.0 L 161.4 32.9" stroke-width="1.40"/>
<circle cx="178.4" cy="10.3" r="0.63" fill="currentColor" stroke="none"/>
<path d="M 178.4 10.3 L 178.4 10.8" stroke-width="1.60"/>
<path d="M 178.4 10.8 L 178.5 11.9 L 178.5 13.4" stroke-width="2.00"/>
<path d="M 178.5 13.4 L 178.5 15.4" stroke-width="1.80"/>
<path d="M 178.5 15.4 L 178.5 17.7" stroke-width="1.60"/>
<path d="M 178.5 17.7 L 178.4 20.1 L 178.3 22.6" stroke-width="1.40"/>
<path d="M 178.3 22.6 L 178.3 24.8 L 178.3 26.6" stroke-width="1.20"/>
<path d="M 178.3 26.6 L 178.4 27.8" stroke-width="1.40"/>
<path d="M 178.4 27.8 L 178.4 28.4 L 178.4 28.5" stroke-width="1.60"/>
<circle cx="174.1" cy="18.6" r="0.63" fill="currentColor" stroke="none"/>
<path d="M 174.1 18.6 L 174.4 18.6" stroke-width="1.60"/>
<path d="M 174.4 18.6 L 175.2 18.5" stroke-width="2.00"/>
<path d="M 175.2 18.5 L 176.6 18.5" stroke-width="2.20"/>
<path d="M 176.6 18.5 L 178.4 18.4" stroke-width="2.00"/>
<path d="M 178.4 18.4 L 180.4 18.2" stroke-width="1.80"/>
<path d="M 180.4 18.2 L 182.5 17.8" stroke-width="1.60"/>
<path d="M 182.5 17.8 L 184.1 17.4" stroke-width="1.40"/>
<path d="M 184.1 17.4 L 185.1 17.1" stroke-width="1.20"/>
<circle cx="187.2" cy="10.7" r="0.63" fill="currentColor" stroke="none"/>
<path d="M 187.2 10.7 L 187.3 11.2" stroke-width="1.60"/>
<path d="M 187.3 11.2 L 187.4 12.0" stroke-width="2.00"/>
<path d="M 187.4 12.0 L 187.5 13.4" stroke-width="2.20"/>
<path d="M 187.5 13.4 L 187.5 15.1" stroke-width="2.00"/>
<path d="M 187.5 15.1 L 187.5 17.1" stroke-width="1.80"/>
<path d="M 187.5 17.1 L 187.4 19.1" stroke-width="1.60"/>
<path d="M 187.4 19.1 L 187.3 21.2 L 187.3 22.9" stroke-width="1.40"/>
<path d="M 187.3 22.9 L 187.3 24.2 L 187.4 25.1" stroke-width="1.60"/>
<path d="M 187.4 25.1 L 187.6 25.3" stroke-width="2.00"/>
<path d="M 187.6 25.3 L 187.9 25.1 L 188.3 24.2" stroke-width="2.40"/>
<path d="M 188.3 24.2 L 188.9 22.9" stroke-width="2.20"/>
<path d="M 188.9 22.9 L 189.7 21.3" stroke-width="2.00"/>
<path d="M 189.7 21.3 L 190.6 19.6" stroke-width="1.80"/>
<path d="M 190.6 19.6 L 191.7 18.1 L 192.8 16.8 L 193.9 15.9 L 194.9 15.4" stroke-width="1.60"/>
<path d="M 194.9 15.4 L 195.9 15.4" stroke-width="1.80"/>
<path d="M 195.9 15.4 L 196.8 15.8 L 197.5 16.7 L 198.1 18.1" stroke-width="2.00"/>
<path d="M 198.1 18.1 L 198.6 19.7" stroke-width="1.80"/>
<path d="M 198.6 19.7 L 198.8 21.5 L 199.0 23.3 L 199.3 24.7 L 199.5 25.7" stroke-width="1.60"/>
<path d="M 199.5 25.7 L 199.9 26.1 L 200.3 26.1 L 200.6 26.0" stroke-width="2.00"/>
<circle cx="204.7" cy="17.2" r="0.63" fill="currentColor" stroke="none"/>
<path d="M 204.7 17.2 L 204.7 17.5" stroke-width="1.60"/>
<path d="M 204.7 17.5 L 204.7 18.2 L 204.6 19.3" stroke-width="2.20"/>
<path d="M 204.6 19.3 L 204.6 20.9" stroke-width="2.00"/>
<path d="M 204.6 20.9 L 204.7 22.6 L 204.8 24.3" stroke-width="1.80"/>
<path d="M 204.8 24.3 L 204.9 25.7" stroke-width="1.60"/>
<path d="M 204.9 25.7 L 205.1 26.6" stroke-width="1.80"/>
<path d="M 205.1 26.6 L 205.4 26.8" stroke-width="2.00"/>
<path d="M 205.4 26.8 L 205.7 26.3" stroke-width="2.40"/>
<path d="M 205.7 26.3 L 206.0 25.6" stroke-width="2.20"/>
<path d="M 206.0 25.6 L 206.1 24.9" stroke-width="2.00"/>
<circle cx="206.4" cy="10.8" r="0.63" fill="currentColor" stroke="none"/>
<path d="M 206.4 10.8 L 206.5 10.5" stroke-width="1.60"/>
<path d="M 206.5 10.5 L 206.6 10.3" stroke-width="2.20"/>
<path d="M 206.6 10.3 L 206.7 10.1" stroke-width="2.40"/>
<path d="M 206.7 10.1 L 206.8 10.1" stroke-width="2.00"/>
<circle cx="211.3" cy="14.1" r="0.63" fill="currentColor" stroke="none"/>
<path d="M 211.3 14.1 L 211.3 14.6" stroke-width="1.60"/>
<path d="M 211.3 14.6 L 211.3 15.6 L 211.3 17.0 L 211.3 18.6" stroke-width="2.00"/>
<path d="M 211.3 18.6 L 211.3 20.3" stroke-width="1.80"/>
<path d="M 211.3 20.3 L 211.2 21.9 L 211.2 23.4" stroke-width="1.60"/>
<path d="M 211.2 23.4 L 211.2 24.4" stroke-width="1.80"/>
<path d="M 211.2 24.4 L 211.3 25.0" stroke-width="2.00"/>
<path d="M 211.3 25.0 L 211.5 25.1" stroke-width="2.20"/>
<path d="M 211.5 25.1 L 211.9 24.6" stroke-width="2.60"/>
<path d="M 211.9 24.6 L 212.3 23.6" stroke-width="2.40"/>
<path d="M 212.3 23.6 L 213.0 22.1" stroke-width="2.20"/>
<path d="M 213.0 22.1 L 213.8 20.4" stroke-width="1.80"/>
<path d="M 213.8 20.4 L 214.8 18.6 L 215.8 17.1 L 216.9 15.8 L 217.9 14.9 L 218.8 14.4" stroke-width="1.60"/>
<path d="M 218.8 14.4 L 219.7 14.4" stroke-width="1.80"/>
<path d="M 219.7 14.4 L 220.4 15.0 L 220.9 16.0 L 221.3 17.5" stroke-width="2.00"/>
<path d="M 221.3 17.5 L 221.4 19.4" stroke-width="1.80"/>
<path d="M 221.4 19.4 L 221.4 21.4 L 221.3 23.3" stroke-width="1.60"/>
<path d="M 221.3 23.3 L 221.2 25.1" stroke-width="1.40"/>
<path d="M 221.2 25.1 L 221.3 26.3" stroke-width="1.60"/>
<path d="M 221.3 26.3 L 221.6 26.7" stroke-width="1.80"/>
<path d="M 221.6 26.7 L 222.1 26.3 L 222.7 25.5" stroke-width="2.00"/>
<path d="M 222.7 25.5 L 223.1 24.7" stroke-width="1.80"/>
<circle cx="229.3" cy="7.4" r="0.63" fill="currentColor" stroke="none"/>
<path d="M 229.3 7.4 L 229.4 7.5" stroke-width="1.60"/>
<path d="M 229.4 7.5 L 229.4 7.9" stroke-width="2.20"/>
<path d="M 229.4 7.9 L 229.4 8.9" stroke-width="2.40"/>
<path d="M 229.4 8.9 L 229.2 10.4" stroke-width="2.20"/>
<path d="M 229.2 10.4 L 228.9 12.3" stroke-width="2.00"/>
<path d="M 228.9 12.3 L 228.6 14.5" stroke-width="1.60"/>
<path d="M 228.6 14.5 L 228.2 16.8 L 227.9 19.0 L 227.6 21.0 L 227.5 22.6 L 227.5 23.8" stroke-width="1.40"/>
<path d="M 227.5 23.8 L 227.7 24.4" stroke-width="1.80"/>
<path d="M 227.7 24.4 L 228.2 24.4" stroke-width="2.00"/>
<path d="M 228.2 24.4 L 229.0 23.9 L 230.0 22.9" stroke-width="2.20"/>
<path d="M 230.0 22.9 L 231.2 21.5" stroke-width="1.80"/>
<path d="M 231.2 21.5 L 232.5 20.1 L 233.9 18.6" stroke-width="1.60"/>
<path d="M 233.9 18.6 L 235.2 17.2 L 236.5 15.9" stroke-width="1.40"/>
<path d="M 236.5 15.9 L 237.4 15.0 L 238.0 14.2" stroke-width="1.60"/>
<path d="M 238.0 14.2 L 238.3 13.7 L 238.3 13.5" stroke-width="1.80"/>
<circle cx="232.3" cy="17.5" r="0.63" fill="currentColor" stroke="none"/>
<path d="M 232.3 17.5 L 232.2 18.1" stroke-width="1.60"/>
<path d="M 232.2 18.1 L 232.3 19.1 L 232.5 20.5 L 233.0 21.9" stroke-width="2.00"/>
<path d="M 233.0 21.9 L 233.8 23.2 L 234.9 24.2 L 236.1 24.9 L 237.6 25.1" stroke-width="1.80"/>
<path d="M 237.6 25.1 L 239.1 24.7 L 240.6 23.7 L 241.7 22.7" stroke-width="1.60"/>
<path d="M 241.7 22.7 L 242.4 21.8" stroke-width="1.40"/>
<circle cx="243.7" cy="16.0" r="0.63" fill="currentColor" stroke="none"/>
<path d="M 243.7 16.0 L 243.7 16.3" stroke-width="1.60"/>
<path d="M 243.7 16.3 L 243.7 16.9" stroke-width="2.20"/>
<path d="M 243.7 16.9 L 243.8 18.0" stroke-width="2.40"/>
<path d="M 243.8 18.0 L 243.8 19.5" stroke-width="2.20"/>
<path d="M 243.8 19.5 L 243.9 21.3 L 244.0 23.0" stroke-width="1.80"/>
<path d="M 244.0 23.0 L 244.2 24.5" stroke-width="1.60"/>
<path d="M 244.2 24.5 L 244.4 25.4" stroke-width="1.80"/>
<path d="M 244.4 25.4 L 244.6 25.8" stroke-width="2.00"/>
<path d="M 244.6 25.8 L 244.7 25.7" stroke-width="2.20"/>
<path d="M 244.7 25.7 L 244.8 25.4" stroke-width="2.00"/>
<circle cx="245.5" cy="9.5" r="0.63" fill="currentColor" stroke="none"/>
<path d="M 245.5 9.5 L 245.5 9.3" stroke-width="1.60"/>
<path d="M 245.5 9.3 L 245.6 9.1" stroke-width="2.20"/>
<path d="M 245.6 9.1 L 245.7 9.0" stroke-width="2.40"/>
<path d="M 245.7 9.0 L 245.8 9.0" stroke-width="2.00"/>
<circle cx="250.5" cy="15.4" r="0.63" fill="currentColor" stroke="none"/>
<path d="M 250.5 15.4 L 250.6 15.8" stroke-width="1.60"/>
<path d="M 250.6 15.8 L 250.6 16.6" stroke-width="2.00"/>
<path d="M 250.6 16.6 L 250.7 17.9" stroke-width="2.20"/>
<path d="M 250.7 17.9 L 250.7 19.4" stroke-width="2.00"/>
<path d="M 250.7 19.4 L 250.6 21.0 L 250.6 22.6 L 250.5 23.9 L 250.6 24.8" stroke-width="1.80"/>
<path d="M 250.6 24.8 L 250.7 25.2" stroke-width="2.00"/>
<path d="M 250.7 25.2 L 251.0 25.0" stroke-width="2.40"/>
<path d="M 251.0 25.0 L 251.4 24.2" stroke-width="2.60"/>
<path d="M 251.4 24.2 L 252.1 22.9" stroke-width="2.40"/>
<path d="M 252.1 22.9 L 252.9 21.3" stroke-width="2.00"/>
<path d="M 252.9 21.3 L 253.9 19.6" stroke-width="1.80"/>
<path d="M 253.9 19.6 L 255.1 18.0 L 256.3 16.6 L 257.5 15.5 L 258.7 14.9 L 259.8 14.7" stroke-width="1.60"/>
<path d="M 259.8 14.7 L 260.8 14.9 L 261.6 15.7" stroke-width="1.80"/>
<path d="M 261.6 15.7 L 262.1 16.9" stroke-width="2.00"/>
<path d="M 262.1 16.9 L 262.5 18.4 L 262.6 20.1" stroke-width="1.80"/>
<path d="M 262.6 20.1 L 262.7 21.8 L 262.8 23.4 L 263.0 24.5" stroke-width="1.60"/>
<path d="M 263.0 24.5 L 263.1 25.2" stroke-width="1.40"/>
<circle cx="274.2" cy="17.3" r="0.63" fill="currentColor" stroke="none"/>
<path d="M 274.2 17.3 L 274.0 17.0" stroke-width="1.60"/>
<path d="M 274.0 17.0 L 273.5 16.5" stroke-width="2.20"/>
<path d="M 273.5 16.5 L 272.8 16.1 L 271.8 16.0" stroke-width="2.40"/>
<path d="M 271.8 16.0 L 270.7 16.2" stroke-width="2.20"/>
<path d="M 270.7 16.2 L 269.4 16.8 L 268.2 17.6" stroke-width="2.00"/>
<path d="M 268.2 17.6 L 267.3 18.7 L 266.8 19.8 L 266.9 20.9" stroke-width="1.80"/>
<path d="M 266.9 20.9 L 267.5 21.7 L 268.6 22.3 L 270.1 22.4" stroke-width="2.00"/>
<path d="M 270.1 22.4 L 271.7 22.1" stroke-width="1.80"/>
<path d="M 271.7 22.1 L 273.3 21.4 L 274.8 20.4 L 276.0 19.3 L 276.7 18.3" stroke-width="1.60"/>
<path d="M 276.7 18.3 L 277.1 17.5" stroke-width="1.80"/>
<path d="M 277.1 17.5 L 277.2 17.0" stroke-width="2.00"/>
<path d="M 277.2 17.0 L 277.2 16.8" stroke-width="2.40"/>
<path d="M 277.2 16.8 L 277.0 17.1 L 276.8 17.7 L 276.7 18.9" stroke-width="2.60"/>
<path d="M 276.7 18.9 L 276.6 20.5" stroke-width="2.20"/>
<path d="M 276.6 20.5 L 276.6 22.4" stroke-width="2.00"/>
<path d="M 276.6 22.4 L 276.7 24.5 L 276.9 26.7" stroke-width="1.60"/>
<path d="M 276.9 26.7 L 277.2 28.9 L 277.3 31.1 L 277.3 33.0 L 277.0 34.7 L 276.4 36.0" stroke-width="1.40"/>
<path d="M 276.4 36.0 L 275.4 36.9 L 274.0 37.4 L 272.4 37.5 L 270.6 37.1 L 268.9 36.5" stroke-width="1.60"/>
<path d="M 268.9 36.5 L 267.6 35.9 L 266.8 35.5" stroke-width="1.40"/>
<circle cx="302.0" cy="16.7" r="0.63" fill="currentColor" stroke="none"/>
<path d="M 302.0 16.7 L 301.7 16.4" stroke-width="1.60"/>
<path d="M 301.7 16.4 L 301.2 16.1" stroke-width="2.20"/>
<path d="M 301.2 16.1 L 300.3 15.8" stroke-width="2.40"/>
<path d="M 300.3 15.8 L 299.3 15.7 L 298.0 16.0" stroke-width="2.20"/>
<path d="M 298.0 16.0 L 296.6 16.6" stroke-width="2.00"/>
<path d="M 296.6 16.6 L 295.1 17.7" stroke-width="1.80"/>
<path d="M 295.1 17.7 L 293.9 19.1 L 292.9 20.7 L 292.3 22.3 L 292.2 23.9 L 292.6 25.1 L 293.4 25.9" stroke-width="1.60"/>
<path d="M 293.4 25.9 L 294.5 26.2 L 295.9 25.8 L 297.3 24.9" stroke-width="1.80"/>
<path d="M 297.3 24.9 L 298.8 23.6" stroke-width="1.60"/>
<path d="M 298.8 23.6 L 300.2 21.9 L 301.3 20.1 L 302.2 18.5 L 302.8 17.1" stroke-width="1.40"/>
<path d="M 302.8 17.1 L 303.2 16.1" stroke-width="1.60"/>
<path d="M 303.2 16.1 L 303.4 15.7" stroke-width="1.80"/>
<path d="M 303.4 15.7 L 303.3 15.7" stroke-width="2.20"/>
<path d="M 303.3 15.7 L 303.2 16.2" stroke-width="2.60"/>
<path d="M 303.2 16.2 L 303.0 17.3" stroke-width="2.40"/>
<path d="M 303.0 17.3 L 302.8 19.0" stroke-width="2.20"/>
<path d="M 302.8 19.0 L 302.7 20.9" stroke-width="1.80"/>
<path d="M 302.7 20.9 L 302.7 23.0 L 303.0 24.8" stroke-width="1.60"/>
<path d="M 303.0 24.8 L 303.4 26.1 L 303.7 26.9" stroke-width="1.40"/>
<circle cx="316.4" cy="15.7" r="0.63" fill="currentColor" stroke="none"/>
<path d="M 316.4 15.7 L 316.1 15.4" stroke-width="1.60"/>
<path d="M 316.1 15.4 L 315.4 15.1" stroke-width="2.00"/>
<path d="M 315.4 15.1 L 314.4 14.9 L 313.0 14.9" stroke-width="2.20"/>
<path d="M 313.0 14.9 L 311.6 15.3" stroke-width="2.00"/>
<path d="M 311.6 15.3 L 310.3 15.9 L 309.5 16.8" stroke-width="1.80"/>
<path d="M 309.5 16.8 L 309.2 17.8 L 309.5 18.9 L 310.5 20.0" stroke-width="2.00"/>
<path d="M 310.5 20.0 L 311.8 21.2" stroke-width="1.80"/>
<path d="M 311.8 21.2 L 313.3 22.3 L 314.6 23.4 L 315.6 24.3" stroke-width="1.60"/>
<path d="M 315.6 24.3 L 316.2 25.0" stroke-width="1.80"/>
<path d="M 316.2 25.0 L 316.1 25.5" stroke-width="2.00"/>
<path d="M 316.1 25.5 L 315.5 25.8 L 314.2 26.0" stroke-width="2.20"/>
<path d="M 314.2 26.0 L 312.6 25.9" stroke-width="2.00"/>
<path d="M 312.6 25.9 L 310.8 25.7" stroke-width="1.80"/>
<path d="M 310.8 25.7 L 309.1 25.3 L 307.8 24.9 L 306.9 24.6 L 306.5 24.3" stroke-width="1.60"/>
<circle cx="329.5" cy="16.2" r="0.63" fill="currentColor" stroke="none"/>
<path d="M 329.5 16.2 L 329.6 16.5" stroke-width="1.60"/>
<path d="M 329.6 16.5 L 329.6 17.3" stroke-width="2.00"/>
<path d="M 329.6 17.3 L 329.6 18.4" stroke-width="2.20"/>
<path d="M 329.6 18.4 L 329.6 19.8 L 329.6 21.4" stroke-width="2.00"/>
<path d="M 329.6 21.4 L 329.6 23.0 L 329.5 24.6 L 329.5 25.8 L 329.5 26.5" stroke-width="1.80"/>
<path d="M 329.5 26.5 L 329.7 26.6" stroke-width="2.20"/>
<path d="M 329.7 26.6 L 329.8 26.2" stroke-width="2.40"/>
<path d="M 329.8 26.2 L 329.9 25.8" stroke-width="2.00"/>
<circle cx="331.4" cy="7.9" r="0.63" fill="currentColor" stroke="none"/>
<path d="M 331.4 7.9 L 331.4 7.9" stroke-width="1.60"/>
<path d="M 331.4 7.9 L 331.6 8.0 L 331.8 8.1" stroke-width="2.40"/>
<path d="M 331.8 8.1 L 332.0 8.2" stroke-width="2.00"/>
<circle cx="341.0" cy="7.8" r="0.63" fill="currentColor" stroke="none"/>
<path d="M 341.0 7.8 L 340.9 8.3" stroke-width="1.60"/>
<path d="M 340.9 8.3 L 340.7 9.2 L 340.4 10.6" stroke-width="2.00"/>
<path d="M 340.4 10.6 L 340.1 12.5" stroke-width="1.80"/>
<path d="M 340.1 12.5 L 339.7 14.7" stroke-width="1.60"/>
<path d="M 339.7 14.7 L 339.4 17.1 L 339.1 19.5" stroke-width="1.40"/>
<path d="M 339.1 19.5 L 338.9 21.9 L 338.9 24.0" stroke-width="1.20"/>
<path d="M 338.9 24.0 L 339.0 25.7 L 339.2 26.7 L 339.3 27.2" stroke-width="1.40"/>
<circle cx="335.6" cy="17.5" r="0.63" fill="currentColor" stroke="none"/>
<path d="M 335.6 17.5 L 336.2 17.5" stroke-width="1.60"/>
<path d="M 336.2 17.5 L 337.3 17.6" stroke-width="2.00"/>
<path d="M 337.3 17.6 L 338.6 17.6" stroke-width="1.80"/>
<path d="M 338.6 17.6 L 339.6 17.7" stroke-width="1.60"/>
<circle cx="363.9" cy="18.0" r="0.63" fill="currentColor" stroke="none"/>
<path d="M 363.9 18.0 L 363.6 17.6" stroke-width="1.60"/>
<path d="M 363.6 17.6 L 362.9 17.0" stroke-width="2.00"/>
<path d="M 362.9 17.0 L 361.9 16.4" stroke-width="2.20"/>
<path d="M 361.9 16.4 L 360.8 16.0 L 359.5 15.9 L 358.1 16.3" stroke-width="2.00"/>
<path d="M 358.1 16.3 L 356.8 17.0 L 355.7 18.1 L 355.0 19.4 L 354.7 20.8 L 354.9 22.1 L 355.5 23.1 L 356.5 23.7" stroke-width="1.80"/>
<path d="M 356.5 23.7 L 357.7 23.7" stroke-width="2.00"/>
<path d="M 357.7 23.7 L 359.1 23.2 L 360.6 22.2" stroke-width="1.80"/>
<path d="M 360.6 22.2 L 361.9 20.9 L 363.0 19.5 L 363.9 18.1 L 364.5 16.9" stroke-width="1.60"/>
<path d="M 364.5 16.9 L 364.8 15.9" stroke-width="1.80"/>
<path d="M 364.8 15.9 L 365.0 15.4" stroke-width="2.00"/>
<path d="M 365.0 15.4 L 365.1 15.3" stroke-width="2.40"/>
<path d="M 365.1 15.3 L 365.1 15.7 L 365.1 16.5" stroke-width="2.60"/>
<path d="M 365.1 16.5 L 365.2 17.9" stroke-width="2.40"/>
<path d="M 365.2 17.9 L 365.3 19.7" stroke-width="2.00"/>
<path d="M 365.3 19.7 L 365.4 21.9" stroke-width="1.80"/>
<path d="M 365.4 21.9 L 365.5 24.2" stroke-width="1.60"/>
<path d="M 365.5 24.2 L 365.5 26.6 L 365.4 28.9" stroke-width="1.40"/>
<path d="M 365.4 28.9 L 365.0 31.0" stroke-width="1.20"/>
<path d="M 365.0 31.0 L 364.4 32.8 L 363.6 34.0 L 362.5 34.8" stroke-width="1.40"/>
<path d="M 362.5 34.8 L 361.2 35.0 L 359.8 34.6 L 358.6 33.8 L 357.7 33.0" stroke-width="1.60"/>
<path d="M 357.7 33.0 L 357.2 32.4" stroke-width="1.40"/>
<circle cx="375.0" cy="16.9" r="0.63" fill="currentColor" stroke="none"/>
<path d="M 375.0 16.9 L 374.9 16.6" stroke-width="1.60"/>
<path d="M 374.9 16.6 L 374.5 16.2" stroke-width="2.20"/>
<path d="M 374.5 16.2 L 374.0 15.8 L 373.2 15.5 L 372.3 15.7 L 371.2 16.2" stroke-width="2.40"/>
<path d="M 371.2 16.2 L 370.2 17.1" stroke-width="2.20"/>
<path d="M 370.2 17.1 L 369.3 18.3" stroke-width="2.00"/>
<path d="M 369.3 18.3 L 368.7 19.7 L 368.5 21.1 L 368.7 22.3 L 369.4 23.3 L 370.5 23.9 L 371.9 23.9 L 373.4 23.5" stroke-width="1.80"/>
<path d="M 373.4 23.5 L 374.9 22.6 L 376.3 21.4 L 377.4 19.9 L 378.0 18.3 L 378.2 16.8 L 377.9 15.5" stroke-width="1.60"/>
<path d="M 377.9 15.5 L 377.4 14.5 L 376.8 13.9" stroke-width="1.80"/>
<path d="M 376.8 13.9 L 376.4 13.6" stroke-width="1.60"/>
<circle cx="382.7" cy="20.3" r="0.63" fill="currentColor" stroke="none"/>
<path d="M 382.7 20.3 L 383.0 20.0" stroke-width="1.60"/>
<path d="M 383.0 20.0 L 383.6 19.3" stroke-width="2.00"/>
<path d="M 383.6 19.3 L 384.3 18.4" stroke-width="2.20"/>
<path d="M 384.3 18.4 L 385.0 17.4 L 385.6 16.3 L 386.0 15.3 L 386.2 14.5" stroke-width="2.00"/>
<path d="M 386.2 14.5 L 386.0 13.8" stroke-width="2.20"/>
<path d="M 386.0 13.8 L 385.7 13.5" stroke-width="2.40"/>
<path d="M 385.7 13.5 L 385.1 13.4 L 384.2 13.8" stroke-width="2.60"/>
<path d="M 384.2 13.8 L 383.2 14.6" stroke-width="2.40"/>
<path d="M 383.2 14.6 L 382.2 15.9" stroke-width="2.00"/>
<path d="M 382.2 15.9 L 381.3 17.4" stroke-width="1.80"/>
<path d="M 381.3 17.4 L 380.8 19.1 L 380.8 20.8 L 381.4 22.3 L 382.5 23.4 L 383.6 24.1" stroke-width="1.60"/>
<path d="M 383.6 24.1 L 384.5 24.5" stroke-width="1.40"/>
<circle cx="396.6" cy="14.2" r="0.63" fill="currentColor" stroke="none"/>
<path d="M 396.6 14.2 L 396.2 13.9" stroke-width="1.60"/>
<path d="M 396.2 13.9 L 395.5 13.5" stroke-width="2.00"/>
<path d="M 395.5 13.5 L 394.5 13.2 L 393.3 13.2" stroke-width="2.20"/>
<path d="M 393.3 13.2 L 392.2 13.5 L 391.3 14.2 L 390.8 15.0 L 390.9 16.1 L 391.6 17.3" stroke-width="2.00"/>
<path d="M 391.6 17.3 L 392.6 18.6" stroke-width="1.80"/>
<path d="M 392.6 18.6 L 393.9 20.0 L 395.2 21.4 L 396.2 22.6 L 396.7 23.7" stroke-width="1.60"/>
<path d="M 396.7 23.7 L 396.7 24.6" stroke-width="1.80"/>
<path d="M 396.7 24.6 L 396.1 25.2 L 394.9 25.6" stroke-width="2.00"/>
<path d="M 394.9 25.6 L 393.2 25.8" stroke-width="1.80"/>
<path d="M 393.2 25.8 L 391.7 25.8" stroke-width="1.60"/>
<path d="M 391.7 25.8 L 390.6 25.8" stroke-width="1.40"/>
</svg>
