<svg xmlns="http://www.w3.org/2000/svg" viewBox="0 0 524.8 47.0" fill="none" stroke="currentColor" stroke-linecap="round" stroke-linejoin="round" role="img">
<circle cx="6.0" cy="21.0" r="0.63" fill="currentColor" stroke="none"/>
<path d="M 6.0 21.0 L 6.0 21.0" stroke-width="1.60"/>
<path d="M 6.0 21.0 L 6.0 21.0" stroke-width="2.20"/>
<path d="M 6.0 21.0 L 6.0 21.0" stroke-width="2.00"/>
<circle cx="38.4" cy="19.8" r="0.63" fill="currentColor" stroke="none"/>
<path d="M 38.4 19.8 L 38.1 19.6" stroke-width="1.60"/>
<path d="M 38.1 19.6 L 37.6 19.3" stroke-width="2.20"/>
<path d="M 37.6 19.3 L 36.8 18.9 L 35.8 18.9" stroke-width="2.40"/>
<path d="M 35.8 18.9 L 34.5 19.2" stroke-width="2.20"/>
<path d="M 34.5 19.2 L 33.0 19.9" stroke-width="2.00"/>
<path d="M 33.0 19.9 L 31.1 21.1" stroke-width="1.80"/>
<path d="M 31.1 21.1 L 29.3 22.7" stroke-width="1.60"/>
<path d="M 29.3 22.7 L 27.7 24.6 L 26.5 26.5 L 25.8 28.2 L 25.8 29.7" stroke-width="1.40"/>
<path d="M 25.8 29.7 L 26.3 30.6 L 27.3 31.0" stroke-width="1.60"/>
<path d="M 27.3 31.0 L 28.7 30.8" stroke-width="1.80"/>
<path d="M 28.7 30.8 L 30.4 29.9 L 32.4 28.5" stroke-width="1.60"/>
<path d="M 32.4 28.5 L 34.4 26.7" stroke-width="1.40"/>
<path d="M 34.4 26.7 L 36.3 24.7 L 38.0 22.7 L 39.4 21.0 L 40.3 19.8" stroke-width="1.20"/>
<path d="M 40.3 19.8 L 40.9 19.0" stroke-width="1.40"/>
<path d="M 40.9 19.0 L 41.0 18.9" stroke-width="1.80"/>
<path d="M 41.0 18.9 L 41.0 19.3 L 40.8 20.4" stroke-width="2.20"/>
<path d="M 40.8 20.4 L 40.5 21.9" stroke-width="2.00"/>
<path d="M 40.5 21.9 L 40.2 23.8" stroke-width="1.80"/>
<path d="M 40.2 23.8 L 40.0 25.7 L 40.0 27.5 L 40.4 29.0 L 41.2 30.2 L 42.4 31.0 L 44.0 31.3 L 45.4 31.3" stroke-width="1.60"/>
<path d="M 45.4 31.3 L 46.4 31.2" stroke-width="1.40"/>
<circle cx="74.7" cy="7.5" r="0.63" fill="currentColor" stroke="none"/>
<path d="M 74.7 7.5 L 74.7 7.6" stroke-width="1.60"/>
<path d="M 74.7 7.6 L 74.8 8.0" stroke-width="2.40"/>
<path d="M 74.8 8.0 L 74.8 8.7" stroke-width="2.60"/>
<path d="M 74.8 8.7 L 74.7 10.0" stroke-width="2.40"/>
<path d="M 74.7 10.0 L 74.5 11.6" stroke-width="2.20"/>
<path d="M 74.5 11.6 L 74.1 13.6" stroke-width="1.80"/>
<path d="M 74.1 13.6 L 73.6 15.8" stroke-width="1.60"/>
<path d="M 73.6 15.8 L 73.1 18.3 L 72.5 20.9" stroke-width="1.40"/>
<path d="M 72.5 20.9 L 72.0 23.4 L 71.6 25.7 L 71.5 27.6" stroke-width="1.20"/>
<path d="M 71.5 27.6 L 71.7 29.1 L 72.1 29.9" stroke-width="1.40"/>
<path d="M 72.1 29.9 L 72.7 30.3 L 73.1 30.4" stroke-width="1.60"/>
<circle cx="82.2" cy="19.1" r="0.63" fill="currentColor" stroke="none"/>
<path d="M 82.2 19.1 L 82.2 19.1" stroke-width="1.60"/>
<path d="M 82.2 19.1 L 82.1 19.3" stroke-width="2.40"/>
<path d="M 82.1 19.3 L 82.1 19.9 L 82.0 20.9" stroke-width="2.60"/>
<path d="M 82.0 20.9 L 81.8 22.3" stroke-width="2.40"/>
<path d="M 81.8 22.3 L 81.5 23.9" stroke-width="2.00"/>
<path d="M 81.5 23.9 L 81.2 25.4 L 80.9 26.8 L 80.7 27.9" stroke-width="1.80"/>
<path d="M 80.7 27.9 L 80.5 28.6" stroke-width="2.00"/>
<path d="M 80.5 28.6 L 80.5 28.9" stroke-width="2.20"/>
<path d="M 80.5 28.9 L 80.4 28.9" stroke-width="2.00"/>
<circle cx="83.2" cy="11.7" r="0.63" fill="currentColor" stroke="none"/>
<path d="M 83.2 11.7 L 83.2 11.6" stroke-width="1.60"/>
<path d="M 83.2 11.6 L 83.3 11.5 L 83.3 11.5" stroke-width="2.40"/>
<path d="M 83.3 11.5 L 83.4 11.5" stroke-width="2.00"/>
<circle cx="88.9" cy="17.9" r="0.63" fill="currentColor" stroke="none"/>
<path d="M 88.9 17.9 L 88.9 18.3" stroke-width="1.60"/>
<path d="M 88.9 18.3 L 88.9 19.1" stroke-width="2.00"/>
<path d="M 88.9 19.1 L 88.9 20.4" stroke-width="2.20"/>
<path d="M 88.9 20.4 L 88.8 21.9" stroke-width="2.00"/>
<path d="M 88.8 21.9 L 88.6 23.6 L 88.3 25.2" stroke-width="1.80"/>
<path d="M 88.3 25.2 L 88.0 26.7" stroke-width="1.60"/>
<path d="M 88.0 26.7 L 87.8 27.9 L 87.6 28.7" stroke-width="1.80"/>
<path d="M 87.6 28.7 L 87.6 29.0" stroke-width="2.20"/>
<path d="M 87.6 29.0 L 87.7 28.9" stroke-width="2.40"/>
<path d="M 87.7 28.9 L 87.9 28.2 L 88.3 27.1" stroke-width="2.60"/>
<path d="M 88.3 27.1 L 88.9 25.6" stroke-width="2.20"/>
<path d="M 88.9 25.6 L 89.8 23.8" stroke-width="1.80"/>
<path d="M 89.8 23.8 L 90.9 22.1 L 92.2 20.5" stroke-width="1.60"/>
<path d="M 92.2 20.5 L 93.7 19.2 L 95.3 18.3 L 96.9 17.8" stroke-width="1.40"/>
<path d="M 96.9 17.8 L 98.4 17.8 L 99.9 18.2 L 101.1 19.0 L 102.0 20.3 L 102.5 21.8 L 102.8 23.5 L 102.8 25.1 L 102.7 26.5" stroke-width="1.60"/>
<path d="M 102.7 26.5 L 102.6 27.5" stroke-width="1.80"/>
<path d="M 102.6 27.5 L 102.7 28.1" stroke-width="2.00"/>
<path d="M 102.7 28.1 L 102.8 28.4" stroke-width="2.20"/>
<path d="M 102.8 28.4 L 103.0 28.4" stroke-width="2.00"/>
<circle cx="107.4" cy="25.5" r="0.63" fill="currentColor" stroke="none"/>
<path d="M 107.4 25.5 L 107.8 25.2" stroke-width="1.60"/>
<path d="M 107.8 25.2 L 108.6 24.7 L 109.7 24.0 L 111.1 23.0" stroke-width="2.00"/>
<path d="M 111.1 23.0 L 112.4 21.8" stroke-width="1.80"/>
<path d="M 112.4 21.8 L 113.6 20.6 L 114.5 19.3 L 115.0 18.3" stroke-width="1.60"/>
<path d="M 115.0 18.3 L 115.1 17.4" stroke-width="1.80"/>
<path d="M 115.1 17.4 L 114.8 16.9" stroke-width="2.00"/>
<path d="M 114.8 16.9 L 114.1 16.7 L 113.1 16.9" stroke-width="2.20"/>
<path d="M 113.1 16.9 L 111.7 17.7" stroke-width="2.00"/>
<path d="M 111.7 17.7 L 110.2 18.9" stroke-width="1.80"/>
<path d="M 110.2 18.9 L 108.8 20.5 L 107.9 22.2" stroke-width="1.60"/>
<path d="M 107.9 22.2 L 107.5 23.9" stroke-width="1.40"/>
<path d="M 107.5 23.9 L 107.9 25.4 L 109.0 26.7" stroke-width="1.60"/>
<path d="M 109.0 26.7 L 110.9 27.5 L 113.5 28.0" stroke-width="1.40"/>
<path d="M 113.5 28.0 L 116.4 28.1 L 118.9 27.9" stroke-width="1.20"/>
<path d="M 118.9 27.9 L 120.5 27.8" stroke-width="1.00"/>
<circle cx="146.5" cy="20.1" r="0.63" fill="currentColor" stroke="none"/>
<path d="M 146.5 20.1 L 146.3 19.9" stroke-width="1.60"/>
<path d="M 146.3 19.9 L 146.1 19.5" stroke-width="2.20"/>
<path d="M 146.1 19.5 L 145.7 19.1 L 145.1 18.8 L 144.2 18.8" stroke-width="2.60"/>
<path d="M 144.2 18.8 L 143.1 19.2" stroke-width="2.40"/>
<path d="M 143.1 19.2 L 141.8 19.9" stroke-width="2.20"/>
<path d="M 141.8 19.9 L 140.4 20.9" stroke-width="2.00"/>
<path d="M 140.4 20.9 L 139.1 22.2" stroke-width="1.80"/>
<path d="M 139.1 22.2 L 138.2 23.7 L 137.6 25.3 L 137.6 26.7 L 138.1 28.0" stroke-width="1.60"/>
<path d="M 138.1 28.0 L 139.2 28.8 L 140.7 29.1" stroke-width="1.80"/>
<path d="M 140.7 29.1 L 142.7 28.9" stroke-width="1.60"/>
<path d="M 142.7 28.9 L 145.0 28.1 L 147.2 27.0" stroke-width="1.40"/>
<path d="M 147.2 27.0 L 149.2 25.6 L 150.6 24.1" stroke-width="1.20"/>
<path d="M 150.6 24.1 L 151.5 22.7 L 151.8 21.4" stroke-width="1.40"/>
<path d="M 151.8 21.4 L 151.5 20.5" stroke-width="1.60"/>
<path d="M 151.5 20.5 L 150.7 19.8 L 149.7 19.5" stroke-width="1.80"/>
<path d="M 149.7 19.5 L 148.6 19.5" stroke-width="2.00"/>
<path d="M 148.6 19.5 L 147.7 19.6 L 147.2 19.8" stroke-width="1.80"/>
<circle cx="167.1" cy="8.7" r="0.63" fill="currentColor" stroke="none"/>
<path d="M 167.1 8.7 L 166.8 8.1" stroke-width="1.60"/>
<path d="M 166.8 8.1 L 166.4 7.2" stroke-width="2.00"/>
<path d="M 166.4 7.2 L 165.7 6.4 L 164.9 6.0 L 163.9 6.1" stroke-width="2.20"/>
<path d="M 163.9 6.1 L 162.7 6.8 L 161.5 8.1" stroke-width="2.00"/>
<path d="M 161.5 8.1 L 160.4 9.9" stroke-width="1.60"/>
<path d="M 160.4 9.9 L 159.5 12.2 L 158.7 14.8" stroke-width="1.40"/>
<path d="M 158.7 14.8 L 158.2 17.7 L 157.8 20.7" stroke-width="1.20"/>
<path d="M 157.8 20.7 L 157.5 23.7 L 157.4 26.6 L 157.4 29.2" stroke-width="1.00"/>
<path d="M 157.4 29.2 L 157.4 31.3 L 157.6 32.8" stroke-width="1.20"/>
<path d="M 157.6 32.8 L 157.8 33.7" stroke-width="1.40"/>
<path d="M 157.8 33.7 L 157.9 34.1 L 158.0 34.2" stroke-width="1.60"/>
<circle cx="153.7" cy="21.8" r="0.63" fill="currentColor" stroke="none"/>
<path d="M 153.7 21.8 L 153.9 21.8" stroke-width="1.60"/>
<path d="M 153.9 21.8 L 154.5 21.7" stroke-width="2.20"/>
<path d="M 154.5 21.7 L 155.6 21.7" stroke-width="2.40"/>
<path d="M 155.6 21.7 L 157.3 21.7" stroke-width="2.20"/>
<path d="M 157.3 21.7 L 159.3 21.8" stroke-width="1.80"/>
<path d="M 159.3 21.8 L 161.5 21.9" stroke-width="1.60"/>
<path d="M 161.5 21.9 L 163.2 22.1" stroke-width="1.40"/>
<path d="M 163.2 22.1 L 164.3 22.2" stroke-width="1.20"/>
<circle cx="185.0" cy="19.3" r="0.63" fill="currentColor" stroke="none"/>
<path d="M 185.0 19.3 L 185.0 19.6" stroke-width="1.60"/>
<path d="M 185.0 19.6 L 185.1 20.3 L 185.2 21.4 L 185.2 22.6" stroke-width="2.20"/>
<path d="M 185.2 22.6 L 185.1 24.0 L 184.9 25.4" stroke-width="2.00"/>
<path d="M 184.9 25.4 L 184.7 26.7 L 184.5 27.8" stroke-width="1.80"/>
<path d="M 184.5 27.8 L 184.4 28.7" stroke-width="2.00"/>
<path d="M 184.4 28.7 L 184.3 29.1" stroke-width="2.20"/>
<path d="M 184.3 29.1 L 184.3 29.3" stroke-width="2.40"/>
<path d="M 184.3 29.3 L 184.3 29.2" stroke-width="2.00"/>
<circle cx="185.5" cy="9.6" r="0.63" fill="currentColor" stroke="none"/>
<path d="M 185.5 9.6 L 185.6 9.6" stroke-width="1.60"/>
<path d="M 185.6 9.6 L 185.6 9.5 L 185.7 9.5" stroke-width="2.40"/>
<path d="M 185.7 9.5 L 185.7 9.5" stroke-width="2.00"/>
<circle cx="190.0" cy="16.9" r="0.63" fill="currentColor" stroke="none"/>
<path d="M 190.0 16.9 L 190.1 17.4" stroke-width="1.60"/>
<path d="M 190.1 17.4 L 190.1 18.3 L 190.2 19.7 L 190.2 21.3" stroke-width="2.00"/>
<path d="M 190.2 21.3 L 190.1 23.0 L 190.0 24.5 L 189.8 25.8 L 189.6 26.6" stroke-width="1.80"/>
<path d="M 189.6 26.6 L 189.6 27.1" stroke-width="2.00"/>
<path d="M 189.6 27.1 L 189.6 27.1" stroke-width="2.40"/>
<path d="M 189.6 27.1 L 189.8 26.6 L 190.2 25.7" stroke-width="2.60"/>
<path d="M 190.2 25.7 L 191.0 24.4" stroke-width="2.40"/>
<path d="M 191.0 24.4 L 192.0 22.8" stroke-width="2.00"/>
<path d="M 192.0 22.8 L 193.2 21.2" stroke-width="1.80"/>
<path d="M 193.2 21.2 L 194.6 19.6" stroke-width="1.60"/>
<path d="M 194.6 19.6 L 195.9 18.4" stroke-width="1.40"/>
<path d="M 195.9 18.4 L 197.2 17.5 L 198.4 17.1" stroke-width="1.60"/>
<path d="M 198.4 17.1 L 199.4 17.1 L 200.2 17.6" stroke-width="1.80"/>
<path d="M 200.2 17.6 L 200.8 18.6 L 201.2 19.9" stroke-width="2.00"/>
<path d="M 201.2 19.9 L 201.4 21.6 L 201.4 23.3" stroke-width="1.80"/>
<path d="M 201.4 23.3 L 201.3 25.0 L 201.2 26.2" stroke-width="1.60"/>
<path d="M 201.2 26.2 L 201.1 26.9" stroke-width="1.40"/>
<circle cx="209.7" cy="9.6" r="0.63" fill="currentColor" stroke="none"/>
<path d="M 209.7 9.6 L 209.8 9.8" stroke-width="1.60"/>
<path d="M 209.8 9.8 L 209.9 10.5 L 210.0 11.7" stroke-width="2.20"/>
<path d="M 210.0 11.7 L 210.1 13.4" stroke-width="2.00"/>
<path d="M 210.1 13.4 L 210.0 15.4" stroke-width="1.80"/>
<path d="M 210.0 15.4 L 209.8 17.6" stroke-width="1.60"/>
<path d="M 209.8 17.6 L 209.4 19.9 L 209.0 22.3 L 208.5 24.4 L 208.1 26.3 L 207.9 27.6" stroke-width="1.40"/>
<path d="M 207.9 27.6 L 207.7 28.5" stroke-width="1.60"/>
<path d="M 207.7 28.5 L 207.8 28.8" stroke-width="1.80"/>
<path d="M 207.8 28.8 L 207.9 28.5" stroke-width="2.20"/>
<path d="M 207.9 28.5 L 208.4 27.7" stroke-width="2.40"/>
<path d="M 208.4 27.7 L 209.1 26.4" stroke-width="2.20"/>
<path d="M 209.1 26.4 L 210.1 24.8" stroke-width="2.00"/>
<path d="M 210.1 24.8 L 211.5 23.0" stroke-width="1.60"/>
<path d="M 211.5 23.0 L 213.1 21.2 L 214.7 19.6 L 216.4 18.2 L 218.0 17.2 L 219.3 16.5" stroke-width="1.40"/>
<path d="M 219.3 16.5 L 220.2 16.1" stroke-width="1.60"/>
<path d="M 220.2 16.1 L 220.6 16.0" stroke-width="1.80"/>
<path d="M 220.6 16.0 L 220.5 16.0" stroke-width="2.20"/>
<path d="M 220.5 16.0 L 220.2 16.2" stroke-width="2.40"/>
<path d="M 220.2 16.2 L 219.8 16.4" stroke-width="2.00"/>
<circle cx="212.6" cy="22.2" r="0.63" fill="currentColor" stroke="none"/>
<path d="M 212.6 22.2 L 212.8 22.9" stroke-width="1.60"/>
<path d="M 212.8 22.9 L 213.2 24.1 L 214.1 25.6 L 215.3 27.0" stroke-width="1.80"/>
<path d="M 215.3 27.0 L 216.7 28.3 L 218.3 29.2 L 219.9 29.9 L 221.5 30.1 L 223.1 30.0 L 224.6 29.6 L 225.8 29.1" stroke-width="1.60"/>
<path d="M 225.8 29.1 L 226.5 28.7" stroke-width="1.40"/>
<circle cx="233.8" cy="28.4" r="0.63" fill="currentColor" stroke="none"/>
<path d="M 233.8 28.4 L 233.6 28.9" stroke-width="1.60"/>
<path d="M 233.6 28.9 L 233.1 29.9 L 232.3 31.3" stroke-width="2.00"/>
<path d="M 232.3 31.3 L 231.5 32.9" stroke-width="1.80"/>
<path d="M 231.5 32.9 L 230.7 34.5 L 230.0 35.9 L 229.5 36.9" stroke-width="1.60"/>
<path d="M 229.5 36.9 L 229.2 37.4" stroke-width="1.80"/>
<path d="M 229.2 37.4 L 229.2 37.5" stroke-width="2.20"/>
<path d="M 229.2 37.5 L 229.4 37.3" stroke-width="2.60"/>
<path d="M 229.4 37.3 L 229.6 36.8" stroke-width="2.40"/>
<path d="M 229.6 36.8 L 229.8 36.5" stroke-width="2.00"/>
<circle cx="253.8" cy="11.9" r="0.63" fill="currentColor" stroke="none"/>
<path d="M 253.8 11.9 L 253.8 12.2" stroke-width="1.60"/>
<path d="M 253.8 12.2 L 253.8 12.9 L 253.7 14.1" stroke-width="2.20"/>
<path d="M 253.7 14.1 L 253.6 15.7" stroke-width="2.00"/>
<path d="M 253.6 15.7 L 253.3 17.7" stroke-width="1.80"/>
<path d="M 253.3 17.7 L 253.0 19.9" stroke-width="1.60"/>
<path d="M 253.0 19.9 L 252.7 22.2 L 252.4 24.3 L 252.1 26.2 L 252.0 27.8 L 251.9 28.8 L 251.9 29.3" stroke-width="1.40"/>
<circle cx="246.7" cy="19.1" r="0.63" fill="currentColor" stroke="none"/>
<path d="M 246.7 19.1 L 246.9 19.2" stroke-width="1.60"/>
<path d="M 246.9 19.2 L 247.4 19.2" stroke-width="2.20"/>
<path d="M 247.4 19.2 L 248.4 19.3" stroke-width="2.40"/>
<path d="M 248.4 19.3 L 250.0 19.3" stroke-width="2.20"/>
<path d="M 250.0 19.3 L 252.1 19.3" stroke-width="1.80"/>
<path d="M 252.1 19.3 L 254.4 19.2" stroke-width="1.60"/>
<path d="M 254.4 19.2 L 256.7 19.0 L 258.9 18.6 L 260.9 18.0 L 262.6 17.2 L 263.8 16.4" stroke-width="1.40"/>
<path d="M 263.8 16.4 L 264.5 15.9" stroke-width="1.20"/>
<circle cx="266.3" cy="9.5" r="0.63" fill="currentColor" stroke="none"/>
<path d="M 266.3 9.5 L 266.3 9.8" stroke-width="1.60"/>
<path d="M 266.3 9.8 L 266.3 10.6" stroke-width="2.00"/>
<path d="M 266.3 10.6 L 266.3 12.0" stroke-width="2.20"/>
<path d="M 266.3 12.0 L 266.2 13.8" stroke-width="2.00"/>
<path d="M 266.2 13.8 L 266.0 16.0 L 265.7 18.3" stroke-width="1.60"/>
<path d="M 265.7 18.3 L 265.4 20.5 L 265.1 22.5 L 265.0 24.1" stroke-width="1.40"/>
<path d="M 265.0 24.1 L 265.0 25.2" stroke-width="1.60"/>
<path d="M 265.0 25.2 L 265.1 25.7" stroke-width="1.80"/>
<path d="M 265.1 25.7 L 265.3 25.8" stroke-width="2.20"/>
<path d="M 265.3 25.8 L 265.8 25.2 L 266.5 24.2" stroke-width="2.40"/>
<path d="M 266.5 24.2 L 267.4 22.9" stroke-width="2.00"/>
<path d="M 267.4 22.9 L 268.6 21.3" stroke-width="1.80"/>
<path d="M 268.6 21.3 L 270.1 19.7 L 271.5 18.4" stroke-width="1.60"/>
<path d="M 271.5 18.4 L 273.0 17.3 L 274.5 16.7" stroke-width="1.40"/>
<path d="M 274.5 16.7 L 275.8 16.4 L 277.0 16.7" stroke-width="1.60"/>
<path d="M 277.0 16.7 L 277.9 17.4 L 278.5 18.6 L 278.9 20.1" stroke-width="1.80"/>
<path d="M 278.9 20.1 L 278.9 21.8 L 278.9 23.5 L 278.8 24.9" stroke-width="1.60"/>
<path d="M 278.8 24.9 L 278.8 26.0" stroke-width="1.80"/>
<path d="M 278.8 26.0 L 278.9 26.6" stroke-width="2.00"/>
<path d="M 278.9 26.6 L 279.2 26.7" stroke-width="2.20"/>
<path d="M 279.2 26.7 L 279.8 26.4 L 280.4 25.7" stroke-width="2.40"/>
<path d="M 280.4 25.7 L 281.3 24.6" stroke-width="2.20"/>
<path d="M 281.3 24.6 L 282.2 23.2" stroke-width="2.00"/>
<path d="M 282.2 23.2 L 283.3 21.7" stroke-width="1.80"/>
<path d="M 283.3 21.7 L 284.3 20.2 L 285.1 19.0" stroke-width="1.60"/>
<path d="M 285.1 19.0 L 285.8 18.1 L 286.2 17.5" stroke-width="1.80"/>
<path d="M 286.2 17.5 L 286.4 17.4" stroke-width="2.20"/>
<path d="M 286.4 17.4 L 286.5 17.7 L 286.3 18.4" stroke-width="2.60"/>
<path d="M 286.3 18.4 L 286.1 19.6" stroke-width="2.40"/>
<path d="M 286.1 19.6 L 285.6 21.0" stroke-width="2.20"/>
<path d="M 285.6 21.0 L 285.2 22.6" stroke-width="2.00"/>
<path d="M 285.2 22.6 L 284.8 24.2 L 284.6 25.4 L 284.5 26.3" stroke-width="1.80"/>
<path d="M 284.5 26.3 L 284.6 26.6" stroke-width="2.20"/>
<path d="M 284.6 26.6 L 284.7 26.5" stroke-width="2.40"/>
<path d="M 284.7 26.5 L 284.7 26.4" stroke-width="2.00"/>
<circle cx="285.6" cy="8.4" r="0.63" fill="currentColor" stroke="none"/>
<path d="M 285.6 8.4 L 285.6 8.4" stroke-width="1.60"/>
<path d="M 285.6 8.4 L 285.7 8.4 L 285.8 8.4" stroke-width="2.40"/>
<path d="M 285.8 8.4 L 285.9 8.5" stroke-width="2.00"/>
<circle cx="291.7" cy="15.5" r="0.63" fill="currentColor" stroke="none"/>
<path d="M 291.7 15.5 L 291.6 16.0" stroke-width="1.60"/>
<path d="M 291.6 16.0 L 291.5 16.9 L 291.4 18.2 L 291.2 19.8" stroke-width="2.00"/>
<path d="M 291.2 19.8 L 290.9 21.3 L 290.7 22.8 L 290.6 23.9" stroke-width="1.80"/>
<path d="M 290.6 23.9 L 290.5 24.7" stroke-width="2.00"/>
<path d="M 290.5 24.7 L 290.5 25.1" stroke-width="2.20"/>
<path d="M 290.5 25.1 L 290.6 25.1" stroke-width="2.40"/>
<path d="M 290.6 25.1 L 290.9 24.6 L 291.4 23.8" stroke-width="2.60"/>
<path d="M 291.4 23.8 L 292.2 22.5" stroke-width="2.40"/>
<path d="M 292.2 22.5 L 293.1 21.0" stroke-width="2.00"/>
<path d="M 293.1 21.0 L 294.3 19.5" stroke-width="1.80"/>
<path d="M 294.3 19.5 L 295.5 18.0 L 296.9 16.8 L 298.3 15.9 L 299.6 15.4 L 300.8 15.4" stroke-width="1.60"/>
<path d="M 300.8 15.4 L 301.8 15.9 L 302.6 16.9 L 303.1 18.2 L 303.4 19.7 L 303.6 21.3" stroke-width="1.80"/>
<path d="M 303.6 21.3 L 303.7 22.8" stroke-width="1.60"/>
<path d="M 303.7 22.8 L 303.7 24.0 L 303.9 24.9" stroke-width="1.80"/>
<path d="M 303.9 24.9 L 304.1 25.3" stroke-width="2.20"/>
<path d="M 304.1 25.3 L 304.4 25.2 L 304.7 24.9" stroke-width="2.40"/>
<path d="M 304.7 24.9 L 305.0 24.6" stroke-width="2.00"/>
<circle cx="311.1" cy="7.9" r="0.63" fill="currentColor" stroke="none"/>
<path d="M 311.1 7.9 L 311.2 8.1" stroke-width="1.60"/>
<path d="M 311.2 8.1 L 311.4 8.7" stroke-width="2.20"/>
<path d="M 311.4 8.7 L 311.6 9.7" stroke-width="2.40"/>
<path d="M 311.6 9.7 L 311.7 11.1" stroke-width="2.20"/>
<path d="M 311.7 11.1 L 311.7 12.8" stroke-width="2.00"/>
<path d="M 311.7 12.8 L 311.5 14.7" stroke-width="1.80"/>
<path d="M 311.5 14.7 L 311.3 16.7 L 311.0 18.7" stroke-width="1.60"/>
<path d="M 311.0 18.7 L 310.7 20.6 L 310.6 22.2" stroke-width="1.40"/>
<path d="M 310.6 22.2 L 310.5 23.5 L 310.5 24.4" stroke-width="1.60"/>
<path d="M 310.5 24.4 L 310.7 24.9" stroke-width="2.00"/>
<path d="M 310.7 24.9 L 310.9 25.0 L 311.1 24.8" stroke-width="2.40"/>
<path d="M 311.1 24.8 L 311.3 24.6" stroke-width="2.00"/>
<circle cx="318.7" cy="17.1" r="0.63" fill="currentColor" stroke="none"/>
<path d="M 318.7 17.1 L 318.6 17.0" stroke-width="1.60"/>
<path d="M 318.6 17.0 L 318.3 16.8" stroke-width="2.20"/>
<path d="M 318.3 16.8 L 317.8 16.7 L 316.8 16.9" stroke-width="2.60"/>
<path d="M 316.8 16.9 L 315.5 17.4" stroke-width="2.40"/>
<path d="M 315.5 17.4 L 314.0 18.1" stroke-width="2.00"/>
<path d="M 314.0 18.1 L 312.6 18.9 L 311.4 19.9 L 310.7 20.8" stroke-width="1.80"/>
<path d="M 310.7 20.8 L 310.7 21.6 L 311.3 22.4 L 312.6 22.9" stroke-width="2.00"/>
<path d="M 312.6 22.9 L 314.4 23.2" stroke-width="1.80"/>
<path d="M 314.4 23.2 L 316.7 23.3" stroke-width="1.60"/>
<path d="M 316.7 23.3 L 319.2 23.2 L 321.6 22.8" stroke-width="1.40"/>
<path d="M 321.6 22.8 L 323.9 22.1 L 325.8 21.3 L 327.4 20.4" stroke-width="1.20"/>
<path d="M 327.4 20.4 L 328.6 19.5" stroke-width="1.40"/>
<path d="M 328.6 19.5 L 329.4 18.7" stroke-width="1.60"/>
<path d="M 329.4 18.7 L 329.9 18.1" stroke-width="1.80"/>
<path d="M 329.9 18.1 L 330.1 17.8" stroke-width="2.00"/>
<path d="M 330.1 17.8 L 330.1 17.8" stroke-width="2.40"/>
<path d="M 330.1 17.8 L 330.0 18.1 L 329.9 18.8 L 329.7 19.8" stroke-width="2.60"/>
<path d="M 329.7 19.8 L 329.5 20.9" stroke-width="2.40"/>
<path d="M 329.5 20.9 L 329.4 22.1 L 329.3 23.1 L 329.3 23.9" stroke-width="2.20"/>
<path d="M 329.3 23.9 L 329.4 24.2" stroke-width="2.40"/>
<path d="M 329.4 24.2 L 329.5 24.1 L 329.7 23.6" stroke-width="2.60"/>
<path d="M 329.7 23.6 L 329.8 22.9" stroke-width="2.40"/>
<path d="M 329.8 22.9 L 329.9 22.3" stroke-width="2.00"/>
<circle cx="330.1" cy="10.8" r="0.63" fill="currentColor" stroke="none"/>
<path d="M 330.1 10.8 L 330.1 10.8" stroke-width="1.60"/>
<path d="M 330.1 10.8 L 330.3 10.9" stroke-width="2.40"/>
<path d="M 330.3 10.9 L 330.5 11.0 L 330.7 11.1 L 330.9 11.3" stroke-width="2.60"/>
<path d="M 330.9 11.3 L 331.0 11.4" stroke-width="2.40"/>
<path d="M 331.0 11.4 L 331.1 11.4" stroke-width="2.00"/>
<circle cx="335.9" cy="15.6" r="0.63" fill="currentColor" stroke="none"/>
<path d="M 335.9 15.6 L 335.9 16.2" stroke-width="1.60"/>
<path d="M 335.9 16.2 L 335.9 17.2 L 335.9 18.6 L 335.9 20.0" stroke-width="2.00"/>
<path d="M 335.9 20.0 L 335.9 21.4 L 335.9 22.5" stroke-width="1.80"/>
<path d="M 335.9 22.5 L 335.8 23.4" stroke-width="2.00"/>
<path d="M 335.8 23.4 L 335.8 24.0" stroke-width="2.20"/>
<path d="M 335.8 24.0 L 335.8 24.2" stroke-width="2.40"/>
<path d="M 335.8 24.2 L 335.9 24.0 L 336.1 23.4 L 336.5 22.4" stroke-width="2.60"/>
<path d="M 336.5 22.4 L 337.1 21.1" stroke-width="2.40"/>
<path d="M 337.1 21.1 L 337.9 19.7" stroke-width="2.00"/>
<path d="M 337.9 19.7 L 338.7 18.3 L 339.7 17.0" stroke-width="1.80"/>
<path d="M 339.7 17.0 L 340.9 15.9 L 342.1 15.1" stroke-width="1.60"/>
<path d="M 342.1 15.1 L 343.4 14.6 L 344.6 14.6 L 345.8 14.9 L 346.9 15.7 L 347.7 16.8 L 348.3 18.1 L 348.7 19.7" stroke-width="1.80"/>
<path d="M 348.7 19.7 L 349.0 21.2 L 349.1 22.8 L 349.2 24.2" stroke-width="1.60"/>
<path d="M 349.2 24.2 L 349.4 25.2" stroke-width="1.80"/>
<path d="M 349.4 25.2 L 349.8 25.7 L 350.3 26.0 L 350.6 26.0" stroke-width="2.00"/>
<circle cx="359.9" cy="18.3" r="0.63" fill="currentColor" stroke="none"/>
<path d="M 359.9 18.3 L 359.7 17.8" stroke-width="1.60"/>
<path d="M 359.7 17.8 L 359.4 17.3" stroke-width="2.20"/>
<path d="M 359.4 17.3 L 358.8 16.8 L 358.0 16.7 L 356.9 16.9" stroke-width="2.40"/>
<path d="M 356.9 16.9 L 355.6 17.6" stroke-width="2.20"/>
<path d="M 355.6 17.6 L 354.3 18.4" stroke-width="2.00"/>
<path d="M 354.3 18.4 L 353.3 19.5 L 352.7 20.6 L 352.6 21.6" stroke-width="1.80"/>
<path d="M 352.6 21.6 L 353.0 22.4 L 354.0 22.9 L 355.3 23.0" stroke-width="2.00"/>
<path d="M 355.3 23.0 L 357.0 22.8 L 358.6 22.1" stroke-width="1.80"/>
<path d="M 358.6 22.1 L 360.2 21.3 L 361.5 20.3 L 362.4 19.3" stroke-width="1.60"/>
<path d="M 362.4 19.3 L 363.0 18.5" stroke-width="1.80"/>
<path d="M 363.0 18.5 L 363.4 17.8" stroke-width="2.00"/>
<path d="M 363.4 17.8 L 363.5 17.4" stroke-width="2.20"/>
<path d="M 363.5 17.4 L 363.5 17.3" stroke-width="2.40"/>
<path d="M 363.5 17.3 L 363.4 17.4 L 363.4 18.0 L 363.4 18.9" stroke-width="2.60"/>
<path d="M 363.4 18.9 L 363.4 20.3" stroke-width="2.40"/>
<path d="M 363.4 20.3 L 363.4 21.9" stroke-width="2.20"/>
<path d="M 363.4 21.9 L 363.4 23.8" stroke-width="1.80"/>
<path d="M 363.4 23.8 L 363.4 25.7 L 363.4 27.7" stroke-width="1.60"/>
<path d="M 363.4 27.7 L 363.3 29.7 L 363.1 31.7 L 362.6 33.4 L 361.9 34.8" stroke-width="1.40"/>
<path d="M 361.9 34.8 L 360.8 36.0 L 359.4 36.7 L 357.8 37.1 L 356.0 37.1 L 354.3 36.8 L 352.6 36.1" stroke-width="1.60"/>
<path d="M 352.6 36.1 L 351.0 35.2" stroke-width="1.40"/>
<path d="M 351.0 35.2 L 349.8 34.2" stroke-width="1.60"/>
<path d="M 349.8 34.2 L 348.9 33.4 L 348.4 32.8" stroke-width="1.40"/>
<circle cx="388.4" cy="18.3" r="0.63" fill="currentColor" stroke="none"/>
<path d="M 388.4 18.3 L 388.2 18.0" stroke-width="1.60"/>
<path d="M 388.2 18.0 L 387.9 17.6" stroke-width="2.20"/>
<path d="M 387.9 17.6 L 387.4 17.1 L 386.7 16.7 L 385.7 16.6 L 384.6 16.8" stroke-width="2.40"/>
<path d="M 384.6 16.8 L 383.3 17.3" stroke-width="2.20"/>
<path d="M 383.3 17.3 L 381.9 18.2" stroke-width="2.00"/>
<path d="M 381.9 18.2 L 380.6 19.5" stroke-width="1.80"/>
<path d="M 380.6 19.5 L 379.4 20.9 L 378.6 22.4 L 378.2 23.8 L 378.2 24.9" stroke-width="1.60"/>
<path d="M 378.2 24.9 L 378.7 25.6" stroke-width="1.80"/>
<path d="M 378.7 25.6 L 379.5 25.9 L 380.6 25.7 L 382.1 25.0" stroke-width="2.00"/>
<path d="M 382.1 25.0 L 383.7 23.8" stroke-width="1.80"/>
<path d="M 383.7 23.8 L 385.4 22.4" stroke-width="1.60"/>
<path d="M 385.4 22.4 L 387.0 20.9 L 388.4 19.4 L 389.6 18.0 L 390.4 17.0" stroke-width="1.40"/>
<path d="M 390.4 17.0 L 390.9 16.4" stroke-width="1.60"/>
<path d="M 390.9 16.4 L 391.1 16.2" stroke-width="2.00"/>
<path d="M 391.1 16.2 L 391.0 16.4" stroke-width="2.40"/>
<path d="M 391.0 16.4 L 390.8 17.1" stroke-width="2.60"/>
<path d="M 390.8 17.1 L 390.5 18.3" stroke-width="2.40"/>
<path d="M 390.5 18.3 L 390.1 19.7" stroke-width="2.20"/>
<path d="M 390.1 19.7 L 389.7 21.3" stroke-width="2.00"/>
<path d="M 389.7 21.3 L 389.5 22.9 L 389.6 24.3 L 390.0 25.4" stroke-width="1.80"/>
<path d="M 390.0 25.4 L 390.7 26.0 L 391.5 26.3" stroke-width="2.00"/>
<path d="M 391.5 26.3 L 392.0 26.3" stroke-width="1.80"/>
<circle cx="405.0" cy="16.1" r="0.63" fill="currentColor" stroke="none"/>
<path d="M 405.0 16.1 L 404.7 16.0" stroke-width="1.60"/>
<path d="M 404.7 16.0 L 404.0 15.8 L 402.9 15.7 L 401.5 15.9" stroke-width="2.20"/>
<path d="M 401.5 15.9 L 400.0 16.3" stroke-width="2.00"/>
<path d="M 400.0 16.3 L 398.7 16.9 L 397.9 17.5" stroke-width="1.80"/>
<path d="M 397.9 17.5 L 397.7 18.3" stroke-width="2.00"/>
<path d="M 397.7 18.3 L 398.1 19.1" stroke-width="2.20"/>
<path d="M 398.1 19.1 L 399.2 19.9 L 400.7 20.7" stroke-width="2.00"/>
<path d="M 400.7 20.7 L 402.5 21.6" stroke-width="1.80"/>
<path d="M 402.5 21.6 L 404.2 22.4 L 405.5 23.1 L 406.4 23.8" stroke-width="1.60"/>
<path d="M 406.4 23.8 L 406.7 24.3" stroke-width="1.80"/>
<path d="M 406.7 24.3 L 406.4 24.8 L 405.4 25.2" stroke-width="2.20"/>
<path d="M 405.4 25.2 L 403.9 25.4" stroke-width="2.00"/>
<path d="M 403.9 25.4 L 401.9 25.5" stroke-width="1.80"/>
<path d="M 401.9 25.5 L 399.7 25.5" stroke-width="1.60"/>
<path d="M 399.7 25.5 L 397.6 25.3 L 395.7 25.0 L 394.2 24.6" stroke-width="1.40"/>
<path d="M 394.2 24.6 L 393.3 24.2" stroke-width="1.60"/>
<path d="M 393.3 24.2 L 392.9 23.8" stroke-width="1.80"/>
<path d="M 392.9 23.8 L 392.9 23.4 L 393.1 23.1" stroke-width="2.00"/>
<circle cx="428.5" cy="19.7" r="0.63" fill="currentColor" stroke="none"/>
<path d="M 428.5 19.7 L 428.4 20.2" stroke-width="1.60"/>
<path d="M 428.4 20.2 L 428.2 21.2 L 427.9 22.5 L 427.7 23.9" stroke-width="2.00"/>
<path d="M 427.7 23.9 L 427.4 25.3 L 427.2 26.4 L 427.0 27.2 L 426.9 27.6" stroke-width="1.80"/>
<circle cx="429.4" cy="9.6" r="0.63" fill="currentColor" stroke="none"/>
<path d="M 429.4 9.6 L 429.4 9.4" stroke-width="1.60"/>
<path d="M 429.4 9.4 L 429.5 9.2" stroke-width="2.20"/>
<path d="M 429.5 9.2 L 429.5 9.0" stroke-width="2.40"/>
<path d="M 429.5 9.0 L 429.6 9.0" stroke-width="2.00"/>
<circle cx="439.3" cy="7.9" r="0.63" fill="currentColor" stroke="none"/>
<path d="M 439.3 7.9 L 439.3 8.3" stroke-width="1.60"/>
<path d="M 439.3 8.3 L 439.3 9.2" stroke-width="2.00"/>
<path d="M 439.3 9.2 L 439.2 10.5" stroke-width="2.20"/>
<path d="M 439.2 10.5 L 439.0 12.2" stroke-width="2.00"/>
<path d="M 439.0 12.2 L 438.7 14.2" stroke-width="1.80"/>
<path d="M 438.7 14.2 L 438.3 16.3" stroke-width="1.60"/>
<path d="M 438.3 16.3 L 437.8 18.6 L 437.4 20.8 L 437.0 22.8 L 436.8 24.4 L 436.7 25.5 L 436.6 26.0" stroke-width="1.40"/>
<circle cx="432.9" cy="19.5" r="0.63" fill="currentColor" stroke="none"/>
<path d="M 432.9 19.5 L 433.4 19.4" stroke-width="1.60"/>
<path d="M 433.4 19.4 L 434.5 19.3 L 436.2 19.2" stroke-width="2.00"/>
<path d="M 436.2 19.2 L 438.5 19.1" stroke-width="1.80"/>
<path d="M 438.5 19.1 L 441.0 19.0 L 443.5 18.9" stroke-width="1.40"/>
<path d="M 443.5 18.9 L 445.4 18.8 L 446.6 18.7" stroke-width="1.20"/>
<circle cx="469.7" cy="19.3" r="0.63" fill="currentColor" stroke="none"/>
<path d="M 469.7 19.3 L 469.4 18.9" stroke-width="1.60"/>
<path d="M 469.4 18.9 L 468.9 18.4" stroke-width="2.00"/>
<path d="M 468.9 18.4 L 468.1 18.0 L 467.0 17.8" stroke-width="2.20"/>
<path d="M 467.0 17.8 L 465.5 18.0" stroke-width="2.00"/>
<path d="M 465.5 18.0 L 463.9 18.7" stroke-width="1.80"/>
<path d="M 463.9 18.7 L 462.2 19.7 L 460.6 21.0 L 459.6 22.3 L 459.1 23.6 L 459.2 24.5" stroke-width="1.60"/>
<path d="M 459.2 24.5 L 459.9 25.1" stroke-width="1.80"/>
<path d="M 459.9 25.1 L 461.1 25.2" stroke-width="2.00"/>
<path d="M 461.1 25.2 L 462.6 24.8 L 464.3 24.0" stroke-width="1.80"/>
<path d="M 464.3 24.0 L 465.9 22.9 L 467.5 21.7" stroke-width="1.60"/>
<path d="M 467.5 21.7 L 468.7 20.5" stroke-width="1.40"/>
<path d="M 468.7 20.5 L 469.5 19.5" stroke-width="1.60"/>
<path d="M 469.5 19.5 L 470.0 18.7" stroke-width="1.80"/>
<path d="M 470.0 18.7 L 470.2 18.3" stroke-width="2.00"/>
<path d="M 470.2 18.3 L 470.1 18.3" stroke-width="2.40"/>
<path d="M 470.1 18.3 L 470.0 18.6 L 469.7 19.5" stroke-width="2.60"/>
<path d="M 469.7 19.5 L 469.5 20.7" stroke-width="2.40"/>
<path d="M 469.5 20.7 L 469.2 22.4" stroke-width="2.20"/>
<path d="M 469.2 22.4 L 469.1 24.4" stroke-width="1.80"/>
<path d="M 469.1 24.4 L 469.0 26.5" stroke-width="1.60"/>
<path d="M 469.0 26.5 L 468.9 28.7 L 468.9 30.9 L 468.7 33.1 L 468.4 35.1 L 467.9 37.0 L 467.2 38.5 L 466.1 39.8 L 464.8 40.6" stroke-width="1.40"/>
<path d="M 464.8 40.6 L 463.2 41.0 L 461.6 41.0 L 460.1 40.6 L 458.7 39.8 L 457.6 38.6 L 457.0 37.2 L 456.7 35.8" stroke-width="1.60"/>
<path d="M 456.7 35.8 L 456.7 34.9" stroke-width="1.40"/>
<circle cx="481.4" cy="19.1" r="0.63" fill="currentColor" stroke="none"/>
<path d="M 481.4 19.1 L 480.8 19.3" stroke-width="1.60"/>
<path d="M 480.8 19.3 L 479.9 19.8 L 478.8 20.6" stroke-width="2.00"/>
<path d="M 478.8 20.6 L 477.6 21.7 L 476.6 23.1" stroke-width="1.80"/>
<path d="M 476.6 23.1 L 475.9 24.5" stroke-width="1.60"/>
<path d="M 475.9 24.5 L 475.7 25.8 L 476.1 26.9 L 476.9 27.7 L 478.2 28.0 L 479.8 27.8" stroke-width="1.80"/>
<path d="M 479.8 27.8 L 481.6 27.1 L 483.3 26.0" stroke-width="1.60"/>
<path d="M 483.3 26.0 L 484.7 24.7 L 485.7 23.3" stroke-width="1.40"/>
<path d="M 485.7 23.3 L 486.2 21.9 L 486.2 20.7" stroke-width="1.60"/>
<path d="M 486.2 20.7 L 485.7 19.7 L 484.9 19.1" stroke-width="1.80"/>
<path d="M 484.9 19.1 L 483.9 18.8 L 482.9 18.8" stroke-width="2.00"/>
<path d="M 482.9 18.8 L 482.1 19.1 L 481.6 19.4" stroke-width="2.20"/>
<path d="M 481.6 19.4 L 481.3 19.7" stroke-width="2.00"/>
<circle cx="490.8" cy="23.4" r="0.63" fill="currentColor" stroke="none"/>
<path d="M 490.8 23.4 L 491.3 23.2" stroke-width="1.60"/>
<path d="M 491.3 23.2 L 492.3 22.9 L 493.6 22.4" stroke-width="2.00"/>
<path d="M 493.6 22.4 L 495.1 21.8 L 496.5 21.0 L 497.8 20.2 L 498.8 19.3 L 499.5 18.5" stroke-width="1.80"/>
<path d="M 499.5 18.5 L 499.9 17.8" stroke-width="2.00"/>
<path d="M 499.9 17.8 L 499.9 17.2" stroke-width="2.20"/>
<path d="M 499.9 17.2 L 499.4 16.8 L 498.4 16.8" stroke-width="2.40"/>
<path d="M 498.4 16.8 L 497.0 17.2" stroke-width="2.20"/>
<path d="M 497.0 17.2 L 495.3 18.0" stroke-width="2.00"/>
<path d="M 495.3 18.0 L 493.5 19.1 L 491.9 20.5" stroke-width="1.60"/>
<path d="M 491.9 20.5 L 490.7 21.9 L 490.1 23.4" stroke-width="1.40"/>
<path d="M 490.1 23.4 L 490.1 24.8 L 490.7 25.9 L 492.0 26.8 L 493.8 27.3 L 496.1 27.4" stroke-width="1.60"/>
<path d="M 496.1 27.4 L 498.5 26.9" stroke-width="1.40"/>
<path d="M 498.5 26.9 L 501.1 26.1 L 503.4 25.0 L 505.2 24.0" stroke-width="1.20"/>
<path d="M 505.2 24.0 L 506.2 23.3" stroke-width="1.00"/>
<circle cx="512.4" cy="16.8" r="0.63" fill="currentColor" stroke="none"/>
<path d="M 512.4 16.8 L 512.5 16.5" stroke-width="1.60"/>
<path d="M 512.5 16.5 L 512.5 16.1" stroke-width="2.20"/>
<path d="M 512.5 16.1 L 512.3 15.8 L 511.6 15.7 L 510.5 16.0" stroke-width="2.60"/>
<path d="M 510.5 16.0 L 509.3 16.5" stroke-width="2.40"/>
<path d="M 509.3 16.5 L 508.1 17.2 L 507.3 18.1 L 507.0 19.0 L 507.4 20.0 L 508.6 21.0" stroke-width="2.00"/>
<path d="M 508.6 21.0 L 510.4 22.0" stroke-width="1.80"/>
<path d="M 510.4 22.0 L 512.5 23.0" stroke-width="1.60"/>
<path d="M 512.5 23.0 L 514.7 24.0 L 516.6 24.9 L 518.0 25.6" stroke-width="1.40"/>
<path d="M 518.0 25.6 L 518.8 26.3" stroke-width="1.60"/>
<path d="M 518.8 26.3 L 518.7 26.8" stroke-width="1.80"/>
<path d="M 518.7 26.8 L 517.9 27.2 L 516.3 27.4" stroke-width="2.00"/>
<path d="M 516.3 27.4 L 514.2 27.5" stroke-width="1.80"/>
<path d="M 514.2 27.5 L 511.8 27.4" stroke-width="1.60"/>
<path d="M 511.8 27.4 L 509.3 27.3" stroke-width="1.40"/>
<path d="M 509.3 27.3 L 506.9 27.1 L 504.9 26.9" stroke-width="1.20"/>
<path d="M 504.9 26.9 L 503.4 26.7" stroke-width="1.40"/>
<path d="M 503.4 26.7 L 502.6 26.5" stroke-width="1.60"/>
<path d="M 502.6 26.5 L 502.3 26.4" stroke-width="1.80"/>
<path d="M 502.3 26.4 L 502.3 26.4" stroke-width="2.20"/>
<path d="M 502.3 26.4 L 502.6 26.5" stroke-width="2.40"/>
<path d="M 502.6 26.5 L 502.8 26.5" stroke-width="2.00"/>
</svg>
