<svg xmlns="http://www.w3.org/2000/svg" viewBox="0 0 435.6 45.0" fill="none" stroke="currentColor" stroke-linecap="round" stroke-linejoin="round" role="img">
<circle cx="18.0" cy="17.1" r="0.77" fill="currentColor" stroke="none"/>
<path d="M 18.0 17.1 L 17.7 16.7" stroke-width="2.00"/>
<path d="M 17.7 16.7 L 17.3 16.2" stroke-width="2.60"/>
<path d="M 17.3 16.2 L 16.6 15.7 L 15.9 15.3 L 14.9 15.1 L 13.8 15.3" stroke-width="2.80"/>
<path d="M 13.8 15.3 L 12.4 15.9" stroke-width="2.60"/>
<path d="M 12.4 15.9 L 11.0 17.0" stroke-width="2.20"/>
<path d="M 11.0 17.0 L 9.5 18.5" stroke-width="2.00"/>
<path d="M 9.5 18.5 L 8.2 20.4" stroke-width="1.80"/>
<path d="M 8.2 20.4 L 7.0 22.3 L 6.3 24.2 L 6.0 25.9" stroke-width="1.60"/>
<path d="M 6.0 25.9 L 6.3 27.1" stroke-width="1.80"/>
<path d="M 6.3 27.1 L 7.0 27.8" stroke-width="2.00"/>
<path d="M 7.0 27.8 L 8.2 27.9 L 9.8 27.4" stroke-width="2.20"/>
<path d="M 9.8 27.4 L 11.5 26.3" stroke-width="2.00"/>
<path d="M 11.5 26.3 L 13.4 24.7" stroke-width="1.80"/>
<path d="M 13.4 24.7 L 15.2 22.8 L 16.7 20.7" stroke-width="1.60"/>
<path d="M 16.7 20.7 L 18.1 18.6 L 19.1 16.9" stroke-width="1.40"/>
<path d="M 19.1 16.9 L 19.7 15.5" stroke-width="1.60"/>
<path d="M 19.7 15.5 L 20.1 14.6" stroke-width="1.80"/>
<path d="M 20.1 14.6 L 20.3 14.2" stroke-width="2.20"/>
<path d="M 20.3 14.2 L 20.2 14.3" stroke-width="2.60"/>
<path d="M 20.2 14.3 L 20.0 15.0" stroke-width="3.00"/>
<path d="M 20.0 15.0 L 19.6 16.4" stroke-width="2.80"/>
<path d="M 19.6 16.4 L 19.1 18.2" stroke-width="2.40"/>
<path d="M 19.1 18.2 L 18.7 20.3" stroke-width="2.00"/>
<path d="M 18.7 20.3 L 18.3 22.5 L 18.3 24.6 L 18.7 26.3" stroke-width="1.80"/>
<path d="M 18.7 26.3 L 19.2 27.5 L 19.6 28.2" stroke-width="1.60"/>
<circle cx="46.9" cy="6.4" r="0.77" fill="currentColor" stroke="none"/>
<path d="M 46.9 6.4 L 46.7 6.7" stroke-width="2.00"/>
<path d="M 46.7 6.7 L 46.4 7.3" stroke-width="2.60"/>
<path d="M 46.4 7.3 L 46.1 8.4" stroke-width="2.80"/>
<path d="M 46.1 8.4 L 45.7 9.9" stroke-width="2.60"/>
<path d="M 45.7 9.9 L 45.3 11.8" stroke-width="2.20"/>
<path d="M 45.3 11.8 L 44.9 13.9" stroke-width="2.00"/>
<path d="M 44.9 13.9 L 44.3 16.3" stroke-width="1.80"/>
<path d="M 44.3 16.3 L 43.8 18.7 L 43.3 21.1 L 42.9 23.3 L 42.6 25.1 L 42.6 26.6" stroke-width="1.60"/>
<path d="M 42.6 26.6 L 42.6 27.5" stroke-width="1.80"/>
<path d="M 42.6 27.5 L 42.7 28.1" stroke-width="2.20"/>
<path d="M 42.7 28.1 L 42.8 28.2 L 42.9 28.3" stroke-width="2.40"/>
<circle cx="50.7" cy="16.8" r="0.77" fill="currentColor" stroke="none"/>
<path d="M 50.7 16.8 L 50.8 16.9" stroke-width="2.00"/>
<path d="M 50.8 16.9 L 50.8 17.0" stroke-width="2.80"/>
<path d="M 50.8 17.0 L 50.8 17.5 L 50.8 18.5" stroke-width="3.20"/>
<path d="M 50.8 18.5 L 50.6 19.7" stroke-width="3.00"/>
<path d="M 50.6 19.7 L 50.3 21.2" stroke-width="2.60"/>
<path d="M 50.3 21.2 L 49.9 22.9" stroke-width="2.40"/>
<path d="M 49.9 22.9 L 49.5 24.4 L 49.2 25.7 L 49.2 26.7" stroke-width="2.20"/>
<path d="M 49.2 26.7 L 49.2 27.2" stroke-width="2.40"/>
<path d="M 49.2 27.2 L 49.2 27.4" stroke-width="2.20"/>
<circle cx="51.5" cy="10.9" r="0.77" fill="currentColor" stroke="none"/>
<path d="M 51.5 10.9 L 51.5 10.6" stroke-width="2.00"/>
<path d="M 51.5 10.6 L 51.5 10.2" stroke-width="2.80"/>
<path d="M 51.5 10.2 L 51.6 9.9" stroke-width="3.00"/>
<path d="M 51.6 9.9 L 51.6 9.8" stroke-width="2.60"/>
<circle cx="56.5" cy="17.4" r="0.77" fill="currentColor" stroke="none"/>
<path d="M 56.5 17.4 L 56.5 17.8" stroke-width="2.00"/>
<path d="M 56.5 17.8 L 56.4 18.5" stroke-width="2.60"/>
<path d="M 56.4 18.5 L 56.2 19.7" stroke-width="2.80"/>
<path d="M 56.2 19.7 L 56.0 21.1" stroke-width="2.60"/>
<path d="M 56.0 21.1 L 55.7 22.7" stroke-width="2.40"/>
<path d="M 55.7 22.7 L 55.4 24.3 L 55.1 25.7 L 54.9 26.7" stroke-width="2.20"/>
<path d="M 54.9 26.7 L 54.8 27.4" stroke-width="2.40"/>
<path d="M 54.8 27.4 L 54.8 27.7" stroke-width="2.80"/>
<path d="M 54.8 27.7 L 54.8 27.6" stroke-width="3.00"/>
<path d="M 54.8 27.6 L 55.0 27.0" stroke-width="3.20"/>
<path d="M 55.0 27.0 L 55.3 25.9" stroke-width="3.00"/>
<path d="M 55.3 25.9 L 55.8 24.3" stroke-width="2.80"/>
<path d="M 55.8 24.3 L 56.4 22.6" stroke-width="2.40"/>
<path d="M 56.4 22.6 L 57.3 20.8" stroke-width="2.00"/>
<path d="M 57.3 20.8 L 58.3 19.1 L 59.5 17.6 L 60.7 16.5 L 62.1 15.8" stroke-width="1.80"/>
<path d="M 62.1 15.8 L 63.4 15.5 L 64.7 15.6 L 65.9 16.3" stroke-width="2.00"/>
<path d="M 65.9 16.3 L 66.9 17.3" stroke-width="2.20"/>
<path d="M 66.9 17.3 L 67.6 18.6 L 68.1 20.2 L 68.3 21.8 L 68.3 23.4 L 68.1 24.9 L 67.8 26.0" stroke-width="2.00"/>
<path d="M 67.8 26.0 L 67.7 26.7" stroke-width="2.20"/>
<path d="M 67.7 26.7 L 67.6 27.1" stroke-width="2.00"/>
<circle cx="73.1" cy="22.8" r="0.77" fill="currentColor" stroke="none"/>
<path d="M 73.1 22.8 L 73.5 22.5" stroke-width="1.80"/>
<path d="M 73.5 22.5 L 74.4 22.1" stroke-width="2.40"/>
<path d="M 74.4 22.1 L 75.6 21.4" stroke-width="2.60"/>
<path d="M 75.6 21.4 L 76.8 20.5" stroke-width="2.40"/>
<path d="M 76.8 20.5 L 78.1 19.6 L 79.1 18.6 L 79.7 17.6 L 80.1 16.7" stroke-width="2.20"/>
<path d="M 80.1 16.7 L 80.0 16.0" stroke-width="2.40"/>
<path d="M 80.0 16.0 L 79.6 15.4" stroke-width="2.60"/>
<path d="M 79.6 15.4 L 78.8 15.1 L 77.6 15.0" stroke-width="2.80"/>
<path d="M 77.6 15.0 L 76.2 15.4" stroke-width="2.60"/>
<path d="M 76.2 15.4 L 74.6 16.2" stroke-width="2.20"/>
<path d="M 74.6 16.2 L 73.1 17.3 L 71.8 18.7" stroke-width="2.00"/>
<path d="M 71.8 18.7 L 71.0 20.2 L 70.7 21.8" stroke-width="1.80"/>
<path d="M 70.7 21.8 L 71.1 23.3 L 72.2 24.6" stroke-width="2.00"/>
<path d="M 72.2 24.6 L 74.1 25.7" stroke-width="1.80"/>
<path d="M 74.1 25.7 L 76.6 26.3" stroke-width="1.60"/>
<path d="M 76.6 26.3 L 79.0 26.7" stroke-width="1.40"/>
<path d="M 79.0 26.7 L 80.7 26.8" stroke-width="1.20"/>
<circle cx="106.3" cy="19.3" r="0.77" fill="currentColor" stroke="none"/>
<path d="M 106.3 19.3 L 106.1 19.0" stroke-width="2.00"/>
<path d="M 106.1 19.0 L 105.5 18.5" stroke-width="2.60"/>
<path d="M 105.5 18.5 L 104.7 18.1 L 103.7 18.0" stroke-width="2.80"/>
<path d="M 103.7 18.0 L 102.4 18.2" stroke-width="2.60"/>
<path d="M 102.4 18.2 L 101.0 18.8" stroke-width="2.40"/>
<path d="M 101.0 18.8 L 99.6 19.8" stroke-width="2.20"/>
<path d="M 99.6 19.8 L 98.3 21.0 L 97.3 22.5 L 96.8 24.0 L 96.9 25.4 L 97.6 26.4" stroke-width="2.00"/>
<path d="M 97.6 26.4 L 98.8 27.0" stroke-width="2.20"/>
<path d="M 98.8 27.0 L 100.5 27.1 L 102.5 26.8" stroke-width="2.00"/>
<path d="M 102.5 26.8 L 104.6 26.0" stroke-width="1.80"/>
<path d="M 104.6 26.0 L 106.5 24.9 L 108.1 23.4 L 109.2 21.9 L 109.8 20.4" stroke-width="1.60"/>
<path d="M 109.8 20.4 L 109.9 19.0" stroke-width="1.80"/>
<path d="M 109.9 19.0 L 109.5 17.9" stroke-width="2.00"/>
<path d="M 109.5 17.9 L 108.8 17.2 L 107.8 16.9" stroke-width="2.20"/>
<path d="M 107.8 16.9 L 106.8 17.1 L 106.0 17.7 L 105.5 18.3" stroke-width="2.40"/>
<path d="M 105.5 18.3 L 105.3 18.8" stroke-width="2.20"/>
<circle cx="123.9" cy="10.6" r="0.77" fill="currentColor" stroke="none"/>
<path d="M 123.9 10.6 L 123.9 9.9" stroke-width="1.80"/>
<path d="M 123.9 9.9 L 123.8 8.8 L 123.5 7.7 L 122.9 6.8" stroke-width="2.40"/>
<path d="M 122.9 6.8 L 122.1 6.2 L 121.0 6.0" stroke-width="2.60"/>
<path d="M 121.0 6.0 L 119.7 6.2 L 118.4 6.8" stroke-width="2.40"/>
<path d="M 118.4 6.8 L 117.1 8.0" stroke-width="2.20"/>
<path d="M 117.1 8.0 L 115.9 9.7" stroke-width="2.00"/>
<path d="M 115.9 9.7 L 114.9 11.8" stroke-width="1.80"/>
<path d="M 114.9 11.8 L 114.1 14.2 L 113.5 16.9" stroke-width="1.60"/>
<path d="M 113.5 16.9 L 113.2 19.7 L 113.0 22.5 L 112.9 25.2 L 112.9 27.6 L 112.8 29.7 L 112.8 31.2 L 112.8 32.0" stroke-width="1.40"/>
<circle cx="109.8" cy="22.0" r="0.77" fill="currentColor" stroke="none"/>
<path d="M 109.8 22.0 L 110.2 22.0" stroke-width="2.00"/>
<path d="M 110.2 22.0 L 111.1 22.0 L 112.5 22.0" stroke-width="2.60"/>
<path d="M 112.5 22.0 L 114.3 22.0" stroke-width="2.40"/>
<path d="M 114.3 22.0 L 116.5 22.0" stroke-width="2.00"/>
<path d="M 116.5 22.0 L 118.8 22.0" stroke-width="1.80"/>
<path d="M 118.8 22.0 L 120.7 22.0" stroke-width="1.60"/>
<path d="M 120.7 22.0 L 121.8 22.0" stroke-width="1.40"/>
<circle cx="138.0" cy="18.8" r="0.77" fill="currentColor" stroke="none"/>
<path d="M 138.0 18.8 L 137.9 19.1" stroke-width="2.00"/>
<path d="M 137.9 19.1 L 137.8 19.8" stroke-width="2.60"/>
<path d="M 137.8 19.8 L 137.6 20.9" stroke-width="2.80"/>
<path d="M 137.6 20.9 L 137.4 22.3" stroke-width="2.60"/>
<path d="M 137.4 22.3 L 137.0 23.9" stroke-width="2.40"/>
<path d="M 137.0 23.9 L 136.7 25.5" stroke-width="2.20"/>
<path d="M 136.7 25.5 L 136.4 27.0 L 136.1 28.3" stroke-width="2.00"/>
<path d="M 136.1 28.3 L 136.0 29.1" stroke-width="2.20"/>
<path d="M 136.0 29.1 L 135.9 29.5" stroke-width="2.60"/>
<path d="M 135.9 29.5 L 135.9 29.4" stroke-width="2.80"/>
<path d="M 135.9 29.4 L 135.9 29.2" stroke-width="2.60"/>
<circle cx="138.8" cy="10.0" r="0.77" fill="currentColor" stroke="none"/>
<path d="M 138.8 10.0 L 138.9 9.9" stroke-width="2.00"/>
<path d="M 138.9 9.9 L 138.9 9.9" stroke-width="2.80"/>
<path d="M 138.9 9.9 L 139.0 9.9" stroke-width="3.00"/>
<path d="M 139.0 9.9 L 139.0 9.9" stroke-width="2.60"/>
<circle cx="144.2" cy="17.3" r="0.77" fill="currentColor" stroke="none"/>
<path d="M 144.2 17.3 L 144.1 17.7" stroke-width="2.00"/>
<path d="M 144.1 17.7 L 144.0 18.3" stroke-width="2.60"/>
<path d="M 144.0 18.3 L 143.7 19.4" stroke-width="2.80"/>
<path d="M 143.7 19.4 L 143.4 20.8" stroke-width="2.60"/>
<path d="M 143.4 20.8 L 143.0 22.3" stroke-width="2.40"/>
<path d="M 143.0 22.3 L 142.5 23.9" stroke-width="2.20"/>
<path d="M 142.5 23.9 L 142.1 25.4" stroke-width="2.00"/>
<path d="M 142.1 25.4 L 141.9 26.6 L 141.7 27.5" stroke-width="2.20"/>
<path d="M 141.7 27.5 L 141.7 28.0" stroke-width="2.60"/>
<path d="M 141.7 28.0 L 141.7 28.0" stroke-width="3.00"/>
<path d="M 141.7 28.0 L 141.9 27.5 L 142.1 26.4" stroke-width="3.20"/>
<path d="M 142.1 26.4 L 142.6 25.0" stroke-width="2.80"/>
<path d="M 142.6 25.0 L 143.3 23.3" stroke-width="2.40"/>
<path d="M 143.3 23.3 L 144.3 21.5" stroke-width="2.00"/>
<path d="M 144.3 21.5 L 145.5 19.8 L 146.9 18.3 L 148.4 17.0 L 149.8 16.2 L 151.0 15.9" stroke-width="1.80"/>
<path d="M 151.0 15.9 L 152.1 16.1" stroke-width="2.00"/>
<path d="M 152.1 16.1 L 152.8 16.9 L 153.3 18.1 L 153.5 19.7" stroke-width="2.20"/>
<path d="M 153.5 19.7 L 153.4 21.5 L 153.1 23.3" stroke-width="2.00"/>
<path d="M 153.1 23.3 L 152.9 25.1" stroke-width="1.80"/>
<path d="M 152.9 25.1 L 152.6 26.4 L 152.6 27.3" stroke-width="2.00"/>
<path d="M 152.6 27.3 L 152.6 27.8 L 152.7 27.9" stroke-width="2.20"/>
<circle cx="161.7" cy="9.0" r="0.77" fill="currentColor" stroke="none"/>
<path d="M 161.7 9.0 L 161.8 9.3" stroke-width="2.00"/>
<path d="M 161.8 9.3 L 161.8 9.9" stroke-width="2.60"/>
<path d="M 161.8 9.9 L 161.8 11.1" stroke-width="2.80"/>
<path d="M 161.8 11.1 L 161.8 12.7" stroke-width="2.60"/>
<path d="M 161.8 12.7 L 161.5 14.7" stroke-width="2.20"/>
<path d="M 161.5 14.7 L 161.2 16.9" stroke-width="2.00"/>
<path d="M 161.2 16.9 L 160.7 19.3" stroke-width="1.80"/>
<path d="M 160.7 19.3 L 160.1 21.7 L 159.4 24.0 L 158.8 26.0 L 158.3 27.5" stroke-width="1.60"/>
<path d="M 158.3 27.5 L 158.0 28.6" stroke-width="1.80"/>
<path d="M 158.0 28.6 L 157.9 29.0" stroke-width="2.00"/>
<path d="M 157.9 29.0 L 158.0 28.9" stroke-width="2.60"/>
<path d="M 158.0 28.9 L 158.5 28.1" stroke-width="2.80"/>
<path d="M 158.5 28.1 L 159.2 26.9" stroke-width="2.60"/>
<path d="M 159.2 26.9 L 160.3 25.3" stroke-width="2.40"/>
<path d="M 160.3 25.3 L 161.7 23.5" stroke-width="2.00"/>
<path d="M 161.7 23.5 L 163.4 21.6" stroke-width="1.80"/>
<path d="M 163.4 21.6 L 165.1 19.9 L 166.8 18.5 L 168.3 17.3 L 169.6 16.6" stroke-width="1.60"/>
<path d="M 169.6 16.6 L 170.5 16.1" stroke-width="1.80"/>
<path d="M 170.5 16.1 L 170.8 15.9" stroke-width="2.20"/>
<path d="M 170.8 15.9 L 170.7 15.9" stroke-width="2.60"/>
<path d="M 170.7 15.9 L 170.3 16.1" stroke-width="2.80"/>
<path d="M 170.3 16.1 L 169.9 16.2" stroke-width="2.60"/>
<circle cx="162.1" cy="22.0" r="0.77" fill="currentColor" stroke="none"/>
<path d="M 162.1 22.0 L 162.3 22.7" stroke-width="1.80"/>
<path d="M 162.3 22.7 L 162.7 23.8" stroke-width="2.20"/>
<path d="M 162.7 23.8 L 163.5 25.2" stroke-width="2.40"/>
<path d="M 163.5 25.2 L 164.6 26.6" stroke-width="2.20"/>
<path d="M 164.6 26.6 L 166.0 27.9 L 167.5 28.9" stroke-width="2.00"/>
<path d="M 167.5 28.9 L 169.0 29.6 L 170.6 30.0" stroke-width="1.80"/>
<path d="M 170.6 30.0 L 172.1 30.0 L 173.5 29.7 L 174.6 29.2" stroke-width="2.00"/>
<path d="M 174.6 29.2 L 175.2 28.8" stroke-width="1.80"/>
<circle cx="181.4" cy="28.6" r="0.77" fill="currentColor" stroke="none"/>
<path d="M 181.4 28.6 L 181.1 29.1" stroke-width="1.80"/>
<path d="M 181.1 29.1 L 180.6 30.1 L 179.9 31.5" stroke-width="2.40"/>
<path d="M 179.9 31.5 L 179.0 33.1" stroke-width="2.20"/>
<path d="M 179.0 33.1 L 178.2 34.7 L 177.5 36.0 L 177.0 37.0" stroke-width="2.00"/>
<path d="M 177.0 37.0 L 176.8 37.6" stroke-width="2.20"/>
<path d="M 176.8 37.6 L 176.8 37.7" stroke-width="2.80"/>
<path d="M 176.8 37.7 L 177.0 37.4" stroke-width="3.20"/>
<path d="M 177.0 37.4 L 177.2 37.0" stroke-width="3.00"/>
<path d="M 177.2 37.0 L 177.4 36.7" stroke-width="2.60"/>
<circle cx="199.9" cy="12.4" r="0.77" fill="currentColor" stroke="none"/>
<path d="M 199.9 12.4 L 199.9 12.7" stroke-width="2.00"/>
<path d="M 199.9 12.7 L 199.8 13.3" stroke-width="2.60"/>
<path d="M 199.8 13.3 L 199.7 14.4" stroke-width="2.80"/>
<path d="M 199.7 14.4 L 199.4 15.9" stroke-width="2.60"/>
<path d="M 199.4 15.9 L 199.0 17.8" stroke-width="2.20"/>
<path d="M 199.0 17.8 L 198.5 20.0" stroke-width="2.00"/>
<path d="M 198.5 20.0 L 198.0 22.2" stroke-width="1.80"/>
<path d="M 198.0 22.2 L 197.6 24.4 L 197.3 26.4 L 197.1 28.0" stroke-width="1.60"/>
<path d="M 197.1 28.0 L 197.0 29.0" stroke-width="1.80"/>
<path d="M 197.0 29.0 L 197.0 29.6" stroke-width="1.60"/>
<circle cx="192.6" cy="18.6" r="0.77" fill="currentColor" stroke="none"/>
<path d="M 192.6 18.6 L 192.8 18.6" stroke-width="2.00"/>
<path d="M 192.8 18.6 L 193.3 18.7" stroke-width="2.80"/>
<path d="M 193.3 18.7 L 194.3 18.8" stroke-width="3.00"/>
<path d="M 194.3 18.8 L 195.9 18.9" stroke-width="2.60"/>
<path d="M 195.9 18.9 L 198.0 18.9" stroke-width="2.20"/>
<path d="M 198.0 18.9 L 200.3 18.9" stroke-width="2.00"/>
<path d="M 200.3 18.9 L 202.7 18.7" stroke-width="1.80"/>
<path d="M 202.7 18.7 L 204.9 18.4 L 206.8 17.8 L 208.4 17.1 L 209.5 16.4 L 210.1 15.9" stroke-width="1.60"/>
<circle cx="211.5" cy="9.7" r="0.77" fill="currentColor" stroke="none"/>
<path d="M 211.5 9.7 L 211.4 10.0" stroke-width="2.00"/>
<path d="M 211.4 10.0 L 211.4 10.6" stroke-width="2.60"/>
<path d="M 211.4 10.6 L 211.2 11.6" stroke-width="2.80"/>
<path d="M 211.2 11.6 L 211.0 13.1" stroke-width="2.60"/>
<path d="M 211.0 13.1 L 210.6 14.9" stroke-width="2.40"/>
<path d="M 210.6 14.9 L 210.2 16.9" stroke-width="2.00"/>
<path d="M 210.2 16.9 L 209.7 19.0 L 209.3 21.1 L 209.0 22.9 L 208.8 24.4" stroke-width="1.80"/>
<path d="M 208.8 24.4 L 208.7 25.4" stroke-width="2.00"/>
<path d="M 208.7 25.4 L 208.7 26.0" stroke-width="2.20"/>
<path d="M 208.7 26.0 L 208.8 26.0" stroke-width="2.60"/>
<path d="M 208.8 26.0 L 209.0 25.5 L 209.5 24.5" stroke-width="3.00"/>
<path d="M 209.5 24.5 L 210.2 23.1" stroke-width="2.60"/>
<path d="M 210.2 23.1 L 211.1 21.5" stroke-width="2.40"/>
<path d="M 211.1 21.5 L 212.2 19.9 L 213.5 18.4" stroke-width="2.00"/>
<path d="M 213.5 18.4 L 214.8 17.2 L 216.1 16.3" stroke-width="1.80"/>
<path d="M 216.1 16.3 L 217.3 15.8 L 218.4 15.9" stroke-width="2.00"/>
<path d="M 218.4 15.9 L 219.3 16.4" stroke-width="2.20"/>
<path d="M 219.3 16.4 L 220.0 17.3" stroke-width="2.40"/>
<path d="M 220.0 17.3 L 220.4 18.6 L 220.5 20.2 L 220.5 21.8" stroke-width="2.20"/>
<path d="M 220.5 21.8 L 220.4 23.3 L 220.3 24.6" stroke-width="2.00"/>
<path d="M 220.3 24.6 L 220.3 25.5" stroke-width="2.20"/>
<path d="M 220.3 25.5 L 220.4 26.0" stroke-width="2.40"/>
<path d="M 220.4 26.0 L 220.7 26.0" stroke-width="3.00"/>
<path d="M 220.7 26.0 L 221.0 25.6 L 221.6 24.8" stroke-width="3.20"/>
<path d="M 221.6 24.8 L 222.3 23.5" stroke-width="2.80"/>
<path d="M 222.3 23.5 L 223.2 22.0" stroke-width="2.40"/>
<path d="M 223.2 22.0 L 224.1 20.4" stroke-width="2.20"/>
<path d="M 224.1 20.4 L 224.9 19.1 L 225.6 18.0" stroke-width="2.00"/>
<path d="M 225.6 18.0 L 226.0 17.3" stroke-width="2.20"/>
<path d="M 226.0 17.3 L 226.1 17.0" stroke-width="2.60"/>
<path d="M 226.1 17.0 L 226.1 17.2" stroke-width="3.00"/>
<path d="M 226.1 17.2 L 225.9 17.8" stroke-width="3.20"/>
<path d="M 225.9 17.8 L 225.6 18.9" stroke-width="3.00"/>
<path d="M 225.6 18.9 L 225.2 20.3" stroke-width="2.80"/>
<path d="M 225.2 20.3 L 224.8 21.9" stroke-width="2.40"/>
<path d="M 224.8 21.9 L 224.5 23.5 L 224.4 24.9 L 224.4 25.8" stroke-width="2.20"/>
<path d="M 224.4 25.8 L 224.5 26.2 L 224.6 26.4" stroke-width="2.40"/>
<circle cx="225.5" cy="8.3" r="0.77" fill="currentColor" stroke="none"/>
<path d="M 225.5 8.3 L 225.5 8.3" stroke-width="2.00"/>
<path d="M 225.5 8.3 L 225.6 8.3" stroke-width="2.80"/>
<path d="M 225.6 8.3 L 225.7 8.3" stroke-width="3.00"/>
<path d="M 225.7 8.3 L 225.7 8.4" stroke-width="2.60"/>
<circle cx="231.1" cy="15.3" r="0.77" fill="currentColor" stroke="none"/>
<path d="M 231.1 15.3 L 231.0 15.7" stroke-width="2.00"/>
<path d="M 231.0 15.7 L 230.9 16.6" stroke-width="2.40"/>
<path d="M 230.9 16.6 L 230.6 17.8" stroke-width="2.60"/>
<path d="M 230.6 17.8 L 230.3 19.3" stroke-width="2.40"/>
<path d="M 230.3 19.3 L 230.0 20.9 L 229.7 22.4 L 229.5 23.7 L 229.4 24.7" stroke-width="2.20"/>
<path d="M 229.4 24.7 L 229.3 25.3" stroke-width="2.40"/>
<path d="M 229.3 25.3 L 229.4 25.5" stroke-width="2.80"/>
<path d="M 229.4 25.5 L 229.6 25.3 L 230.0 24.7" stroke-width="3.20"/>
<path d="M 230.0 24.7 L 230.6 23.5" stroke-width="3.00"/>
<path d="M 230.6 23.5 L 231.3 22.1" stroke-width="2.60"/>
<path d="M 231.3 22.1 L 232.2 20.5" stroke-width="2.20"/>
<path d="M 232.2 20.5 L 233.3 18.9 L 234.5 17.5" stroke-width="2.00"/>
<path d="M 234.5 17.5 L 235.7 16.4" stroke-width="1.80"/>
<path d="M 235.7 16.4 L 236.9 15.7 L 238.1 15.4" stroke-width="2.00"/>
<path d="M 238.1 15.4 L 239.0 15.7" stroke-width="2.20"/>
<path d="M 239.0 15.7 L 239.8 16.4 L 240.4 17.5" stroke-width="2.40"/>
<path d="M 240.4 17.5 L 240.8 18.9 L 241.0 20.5" stroke-width="2.20"/>
<path d="M 241.0 20.5 L 241.1 22.0 L 241.1 23.4" stroke-width="2.00"/>
<path d="M 241.1 23.4 L 241.1 24.5" stroke-width="2.20"/>
<path d="M 241.1 24.5 L 241.2 25.2" stroke-width="2.40"/>
<path d="M 241.2 25.2 L 241.3 25.4 L 241.6 25.4" stroke-width="2.80"/>
<path d="M 241.6 25.4 L 241.8 25.2" stroke-width="2.60"/>
<circle cx="248.0" cy="8.1" r="0.77" fill="currentColor" stroke="none"/>
<path d="M 248.0 8.1 L 248.1 8.3" stroke-width="2.00"/>
<path d="M 248.1 8.3 L 248.2 8.9" stroke-width="2.60"/>
<path d="M 248.2 8.9 L 248.4 9.8" stroke-width="3.00"/>
<path d="M 248.4 9.8 L 248.4 11.1" stroke-width="2.80"/>
<path d="M 248.4 11.1 L 248.4 12.8" stroke-width="2.40"/>
<path d="M 248.4 12.8 L 248.1 14.6" stroke-width="2.20"/>
<path d="M 248.1 14.6 L 247.8 16.6" stroke-width="2.00"/>
<path d="M 247.8 16.6 L 247.4 18.6 L 247.1 20.5 L 246.8 22.2 L 246.7 23.5" stroke-width="1.80"/>
<path d="M 246.7 23.5 L 246.6 24.4" stroke-width="2.00"/>
<path d="M 246.6 24.4 L 246.7 24.9" stroke-width="2.40"/>
<path d="M 246.7 24.9 L 246.9 25.0" stroke-width="2.80"/>
<path d="M 246.9 25.0 L 247.1 24.9" stroke-width="3.00"/>
<path d="M 247.1 24.9 L 247.3 24.7" stroke-width="2.60"/>
<circle cx="254.7" cy="17.3" r="0.77" fill="currentColor" stroke="none"/>
<path d="M 254.7 17.3 L 254.6 17.1" stroke-width="2.00"/>
<path d="M 254.6 17.1 L 254.3 16.9" stroke-width="2.80"/>
<path d="M 254.3 16.9 L 253.6 16.8" stroke-width="3.20"/>
<path d="M 253.6 16.8 L 252.6 17.0" stroke-width="3.00"/>
<path d="M 252.6 17.0 L 251.3 17.4" stroke-width="2.80"/>
<path d="M 251.3 17.4 L 249.7 18.1" stroke-width="2.40"/>
<path d="M 249.7 18.1 L 248.3 18.9 L 247.1 19.8 L 246.5 20.6" stroke-width="2.20"/>
<path d="M 246.5 20.6 L 246.5 21.5 L 247.2 22.3 L 248.6 22.9" stroke-width="2.40"/>
<path d="M 248.6 22.9 L 250.5 23.4" stroke-width="2.20"/>
<path d="M 250.5 23.4 L 252.8 23.6" stroke-width="2.00"/>
<path d="M 252.8 23.6 L 255.2 23.6" stroke-width="1.80"/>
<path d="M 255.2 23.6 L 257.7 23.4 L 259.9 22.8 L 261.7 22.0 L 263.2 21.0 L 264.2 19.8" stroke-width="1.60"/>
<path d="M 264.2 19.8 L 264.8 18.8" stroke-width="1.80"/>
<path d="M 264.8 18.8 L 265.2 17.9" stroke-width="2.00"/>
<path d="M 265.2 17.9 L 265.3 17.3" stroke-width="2.40"/>
<path d="M 265.3 17.3 L 265.3 17.1" stroke-width="2.80"/>
<path d="M 265.3 17.1 L 265.2 17.2" stroke-width="3.00"/>
<path d="M 265.2 17.2 L 265.1 17.6 L 264.9 18.5" stroke-width="3.20"/>
<path d="M 264.9 18.5 L 264.6 19.6" stroke-width="3.00"/>
<path d="M 264.6 19.6 L 264.4 21.0" stroke-width="2.80"/>
<path d="M 264.4 21.0 L 264.1 22.4 L 264.0 23.7 L 263.9 24.7" stroke-width="2.40"/>
<path d="M 263.9 24.7 L 264.1 25.2" stroke-width="2.60"/>
<path d="M 264.1 25.2 L 264.3 25.3 L 264.5 25.1" stroke-width="3.00"/>
<path d="M 264.5 25.1 L 264.7 24.8" stroke-width="2.60"/>
<circle cx="265.7" cy="10.6" r="0.77" fill="currentColor" stroke="none"/>
<path d="M 265.7 10.6 L 265.8 10.6" stroke-width="2.00"/>
<path d="M 265.8 10.6 L 266.0 10.7" stroke-width="2.80"/>
<path d="M 266.0 10.7 L 266.2 10.8 L 266.4 11.0 L 266.6 11.1" stroke-width="3.20"/>
<path d="M 266.6 11.1 L 266.7 11.2" stroke-width="3.00"/>
<path d="M 266.7 11.2 L 266.8 11.3" stroke-width="2.60"/>
<circle cx="270.9" cy="15.9" r="0.77" fill="currentColor" stroke="none"/>
<path d="M 270.9 15.9 L 270.8 16.5" stroke-width="1.80"/>
<path d="M 270.8 16.5 L 270.7 17.5 L 270.6 18.9 L 270.5 20.3" stroke-width="2.40"/>
<path d="M 270.5 20.3 L 270.4 21.7 L 270.3 22.9" stroke-width="2.20"/>
<path d="M 270.3 22.9 L 270.2 23.9" stroke-width="2.40"/>
<path d="M 270.2 23.9 L 270.1 24.6" stroke-width="2.60"/>
<path d="M 270.1 24.6 L 270.0 24.9" stroke-width="2.80"/>
<path d="M 270.0 24.9 L 270.0 24.8 L 270.1 24.3 L 270.4 23.4" stroke-width="3.20"/>
<path d="M 270.4 23.4 L 270.8 22.2" stroke-width="3.00"/>
<path d="M 270.8 22.2 L 271.3 20.8" stroke-width="2.60"/>
<path d="M 271.3 20.8 L 272.0 19.3" stroke-width="2.40"/>
<path d="M 272.0 19.3 L 272.7 17.9" stroke-width="2.20"/>
<path d="M 272.7 17.9 L 273.7 16.6 L 274.8 15.5 L 276.0 14.7 L 277.2 14.4" stroke-width="2.00"/>
<path d="M 277.2 14.4 L 278.5 14.4 L 279.6 14.9 L 280.6 15.7 L 281.4 16.9 L 282.0 18.3" stroke-width="2.20"/>
<path d="M 282.0 18.3 L 282.3 19.9 L 282.3 21.5 L 282.3 23.0 L 282.4 24.1" stroke-width="2.00"/>
<path d="M 282.4 24.1 L 282.6 24.9" stroke-width="2.20"/>
<path d="M 282.6 24.9 L 282.9 25.3 L 283.1 25.4" stroke-width="2.40"/>
<circle cx="292.8" cy="18.8" r="0.77" fill="currentColor" stroke="none"/>
<path d="M 292.8 18.8 L 292.7 18.4" stroke-width="2.00"/>
<path d="M 292.7 18.4 L 292.6 17.7" stroke-width="2.60"/>
<path d="M 292.6 17.7 L 292.1 17.0 L 291.4 16.5 L 290.4 16.4" stroke-width="2.80"/>
<path d="M 290.4 16.4 L 289.1 16.6" stroke-width="2.60"/>
<path d="M 289.1 16.6 L 287.8 17.1" stroke-width="2.40"/>
<path d="M 287.8 17.1 L 286.5 17.9 L 285.4 18.9 L 284.7 20.1 L 284.5 21.2 L 284.9 22.2" stroke-width="2.20"/>
<path d="M 284.9 22.2 L 285.8 22.9 L 287.0 23.2" stroke-width="2.40"/>
<path d="M 287.0 23.2 L 288.5 23.2 L 290.0 22.8" stroke-width="2.20"/>
<path d="M 290.0 22.8 L 291.5 22.1 L 292.7 21.2 L 293.7 20.2" stroke-width="2.00"/>
<path d="M 293.7 20.2 L 294.3 19.2 L 294.6 18.4" stroke-width="2.20"/>
<path d="M 294.6 18.4 L 294.7 17.8" stroke-width="2.60"/>
<path d="M 294.7 17.8 L 294.7 17.5" stroke-width="2.80"/>
<path d="M 294.7 17.5 L 294.7 17.4 L 294.6 17.6 L 294.6 18.2 L 294.5 19.1" stroke-width="3.20"/>
<path d="M 294.5 19.1 L 294.5 20.5" stroke-width="3.00"/>
<path d="M 294.5 20.5 L 294.6 22.1" stroke-width="2.60"/>
<path d="M 294.6 22.1 L 294.8 23.9" stroke-width="2.20"/>
<path d="M 294.8 23.9 L 295.0 25.9" stroke-width="2.00"/>
<path d="M 295.0 25.9 L 295.3 28.1 L 295.4 30.2" stroke-width="1.80"/>
<path d="M 295.4 30.2 L 295.4 32.3 L 295.1 34.1" stroke-width="1.60"/>
<path d="M 295.1 34.1 L 294.4 35.7 L 293.5 36.9 L 292.3 37.8" stroke-width="1.80"/>
<path d="M 292.3 37.8 L 290.8 38.1 L 289.1 38.1" stroke-width="2.00"/>
<path d="M 289.1 38.1 L 287.3 37.6 L 285.6 36.8 L 283.9 35.7 L 282.6 34.5 L 281.6 33.3 L 281.1 32.0 L 280.9 31.0 L 280.9 30.4" stroke-width="1.80"/>
<circle cx="319.4" cy="18.1" r="0.77" fill="currentColor" stroke="none"/>
<path d="M 319.4 18.1 L 319.3 17.7" stroke-width="2.00"/>
<path d="M 319.3 17.7 L 319.1 17.1" stroke-width="2.60"/>
<path d="M 319.1 17.1 L 318.8 16.4" stroke-width="2.80"/>
<path d="M 318.8 16.4 L 318.2 15.8" stroke-width="3.00"/>
<path d="M 318.2 15.8 L 317.3 15.5 L 316.1 15.4" stroke-width="2.80"/>
<path d="M 316.1 15.4 L 314.7 15.7" stroke-width="2.60"/>
<path d="M 314.7 15.7 L 313.1 16.3" stroke-width="2.40"/>
<path d="M 313.1 16.3 L 311.5 17.2 L 310.1 18.4" stroke-width="2.00"/>
<path d="M 310.1 18.4 L 309.0 19.8" stroke-width="1.80"/>
<path d="M 309.0 19.8 L 308.4 21.1 L 308.3 22.3" stroke-width="2.00"/>
<path d="M 308.3 22.3 L 308.7 23.3 L 309.7 23.8 L 311.0 23.9 L 312.6 23.5" stroke-width="2.20"/>
<path d="M 312.6 23.5 L 314.4 22.7" stroke-width="2.00"/>
<path d="M 314.4 22.7 L 316.1 21.6 L 317.7 20.3 L 319.1 19.0 L 320.1 17.7 L 320.8 16.8" stroke-width="1.80"/>
<path d="M 320.8 16.8 L 321.2 16.1" stroke-width="2.20"/>
<path d="M 321.2 16.1 L 321.3 15.8" stroke-width="2.40"/>
<path d="M 321.3 15.8 L 321.3 15.8" stroke-width="3.00"/>
<path d="M 321.3 15.8 L 321.2 16.2 L 321.0 17.0" stroke-width="3.20"/>
<path d="M 321.0 17.0 L 320.8 18.1" stroke-width="3.00"/>
<path d="M 320.8 18.1 L 320.5 19.6" stroke-width="2.80"/>
<path d="M 320.5 19.6 L 320.3 21.1" stroke-width="2.40"/>
<path d="M 320.3 21.1 L 320.1 22.7 L 320.3 24.0 L 320.6 25.0 L 321.0 25.6 L 321.4 25.9" stroke-width="2.20"/>
<circle cx="334.6" cy="14.3" r="0.77" fill="currentColor" stroke="none"/>
<path d="M 334.6 14.3 L 334.2 14.1" stroke-width="2.00"/>
<path d="M 334.2 14.1 L 333.4 13.8" stroke-width="2.40"/>
<path d="M 333.4 13.8 L 332.4 13.7 L 331.1 13.9" stroke-width="2.60"/>
<path d="M 331.1 13.9 L 329.8 14.4 L 328.7 15.0 L 327.9 15.8 L 327.6 16.7 L 327.8 17.7 L 328.5 18.7 L 329.7 19.7" stroke-width="2.40"/>
<path d="M 329.7 19.7 L 331.1 20.7" stroke-width="2.20"/>
<path d="M 331.1 20.7 L 332.6 21.6 L 334.0 22.5 L 335.0 23.3" stroke-width="2.00"/>
<path d="M 335.0 23.3 L 335.6 23.9" stroke-width="2.20"/>
<path d="M 335.6 23.9 L 335.6 24.4" stroke-width="2.40"/>
<path d="M 335.6 24.4 L 335.0 24.8 L 333.9 24.9" stroke-width="2.80"/>
<path d="M 333.9 24.9 L 332.4 24.9" stroke-width="2.60"/>
<path d="M 332.4 24.9 L 330.7 24.8" stroke-width="2.40"/>
<path d="M 330.7 24.8 L 328.9 24.6 L 327.5 24.3" stroke-width="2.00"/>
<path d="M 327.5 24.3 L 326.6 24.1" stroke-width="1.60"/>
<circle cx="351.3" cy="15.5" r="0.77" fill="currentColor" stroke="none"/>
<path d="M 351.3 15.5 L 351.3 15.9" stroke-width="2.00"/>
<path d="M 351.3 15.9 L 351.3 16.6" stroke-width="2.60"/>
<path d="M 351.3 16.6 L 351.3 17.7" stroke-width="2.80"/>
<path d="M 351.3 17.7 L 351.1 19.0" stroke-width="2.60"/>
<path d="M 351.1 19.0 L 350.9 20.5" stroke-width="2.40"/>
<path d="M 350.9 20.5 L 350.7 22.0 L 350.5 23.4 L 350.3 24.5" stroke-width="2.20"/>
<path d="M 350.3 24.5 L 350.4 25.2" stroke-width="2.40"/>
<path d="M 350.4 25.2 L 350.5 25.4" stroke-width="2.80"/>
<path d="M 350.5 25.4 L 350.8 25.3" stroke-width="3.00"/>
<path d="M 350.8 25.3 L 350.9 25.0" stroke-width="2.60"/>
<circle cx="353.6" cy="8.5" r="0.77" fill="currentColor" stroke="none"/>
<path d="M 353.6 8.5 L 353.6 8.3" stroke-width="2.00"/>
<path d="M 353.6 8.3 L 353.7 8.1" stroke-width="2.80"/>
<path d="M 353.7 8.1 L 353.8 7.9" stroke-width="3.00"/>
<path d="M 353.8 7.9 L 353.8 7.9" stroke-width="2.60"/>
<circle cx="363.4" cy="7.5" r="0.77" fill="currentColor" stroke="none"/>
<path d="M 363.4 7.5 L 363.3 7.9" stroke-width="2.00"/>
<path d="M 363.3 7.9 L 362.9 8.8" stroke-width="2.40"/>
<path d="M 362.9 8.8 L 362.5 10.1" stroke-width="2.60"/>
<path d="M 362.5 10.1 L 362.0 11.7" stroke-width="2.40"/>
<path d="M 362.0 11.7 L 361.4 13.5" stroke-width="2.20"/>
<path d="M 361.4 13.5 L 360.8 15.5" stroke-width="2.00"/>
<path d="M 360.8 15.5 L 360.2 17.6" stroke-width="1.80"/>
<path d="M 360.2 17.6 L 359.7 19.7 L 359.3 21.7 L 359.2 23.4" stroke-width="1.60"/>
<path d="M 359.2 23.4 L 359.1 24.5" stroke-width="1.80"/>
<path d="M 359.1 24.5 L 359.1 25.2" stroke-width="1.60"/>
<circle cx="356.9" cy="15.9" r="0.77" fill="currentColor" stroke="none"/>
<path d="M 356.9 15.9 L 357.3 15.8" stroke-width="2.00"/>
<path d="M 357.3 15.8 L 358.1 15.7 L 359.4 15.6" stroke-width="2.60"/>
<path d="M 359.4 15.6 L 361.2 15.5" stroke-width="2.40"/>
<path d="M 361.2 15.5 L 363.3 15.3" stroke-width="2.00"/>
<path d="M 363.3 15.3 L 365.5 15.2" stroke-width="1.80"/>
<path d="M 365.5 15.2 L 367.3 15.1" stroke-width="1.60"/>
<path d="M 367.3 15.1 L 368.4 15.0" stroke-width="1.40"/>
<circle cx="386.8" cy="17.4" r="0.77" fill="currentColor" stroke="none"/>
<path d="M 386.8 17.4 L 386.6 17.1" stroke-width="2.00"/>
<path d="M 386.6 17.1 L 386.1 16.6" stroke-width="2.60"/>
<path d="M 386.1 16.6 L 385.4 16.2 L 384.3 15.9" stroke-width="2.80"/>
<path d="M 384.3 15.9 L 382.9 16.1" stroke-width="2.60"/>
<path d="M 382.9 16.1 L 381.4 16.6" stroke-width="2.40"/>
<path d="M 381.4 16.6 L 379.9 17.4" stroke-width="2.20"/>
<path d="M 379.9 17.4 L 378.6 18.4 L 377.9 19.4" stroke-width="2.00"/>
<path d="M 377.9 19.4 L 377.8 20.3" stroke-width="2.20"/>
<path d="M 377.8 20.3 L 378.2 21.0" stroke-width="2.40"/>
<path d="M 378.2 21.0 L 379.1 21.4" stroke-width="2.60"/>
<path d="M 379.1 21.4 L 380.4 21.5 L 381.9 21.2" stroke-width="2.40"/>
<path d="M 381.9 21.2 L 383.5 20.6" stroke-width="2.20"/>
<path d="M 383.5 20.6 L 385.0 19.7 L 386.2 18.8 L 387.1 17.8" stroke-width="2.00"/>
<path d="M 387.1 17.8 L 387.7 16.9" stroke-width="2.20"/>
<path d="M 387.7 16.9 L 387.9 16.2" stroke-width="2.40"/>
<path d="M 387.9 16.2 L 388.0 15.8" stroke-width="2.60"/>
<path d="M 388.0 15.8 L 387.9 15.7" stroke-width="3.00"/>
<path d="M 387.9 15.7 L 387.8 16.0 L 387.7 16.7 L 387.7 17.9" stroke-width="3.20"/>
<path d="M 387.7 17.9 L 387.7 19.5" stroke-width="2.80"/>
<path d="M 387.7 19.5 L 387.8 21.6" stroke-width="2.20"/>
<path d="M 387.8 21.6 L 388.0 23.9" stroke-width="2.00"/>
<path d="M 388.0 23.9 L 388.1 26.5" stroke-width="1.80"/>
<path d="M 388.1 26.5 L 388.1 29.1" stroke-width="1.60"/>
<path d="M 388.1 29.1 L 387.9 31.7 L 387.5 34.1 L 386.7 36.1" stroke-width="1.40"/>
<path d="M 386.7 36.1 L 385.6 37.7 L 384.2 38.7 L 382.7 39.0" stroke-width="1.60"/>
<path d="M 382.7 39.0 L 381.0 38.7 L 379.4 37.9 L 378.2 37.0" stroke-width="1.80"/>
<path d="M 378.2 37.0 L 377.5 36.2" stroke-width="1.60"/>
<circle cx="398.2" cy="16.7" r="0.77" fill="currentColor" stroke="none"/>
<path d="M 398.2 16.7 L 397.7 16.8" stroke-width="1.80"/>
<path d="M 397.7 16.8 L 396.7 17.1 L 395.5 17.8 L 394.3 18.7" stroke-width="2.40"/>
<path d="M 394.3 18.7 L 393.2 20.0 L 392.6 21.3 L 392.4 22.6 L 392.6 23.8 L 393.4 24.6 L 394.7 25.0 L 396.3 25.0" stroke-width="2.20"/>
<path d="M 396.3 25.0 L 398.0 24.4 L 399.7 23.5" stroke-width="2.00"/>
<path d="M 399.7 23.5 L 401.1 22.3 L 402.0 21.0" stroke-width="1.80"/>
<path d="M 402.0 21.0 L 402.5 19.6 L 402.3 18.5" stroke-width="2.00"/>
<path d="M 402.3 18.5 L 401.8 17.5 L 400.9 16.9" stroke-width="2.20"/>
<path d="M 400.9 16.9 L 399.8 16.5 L 398.8 16.5" stroke-width="2.40"/>
<path d="M 398.8 16.5 L 398.1 16.8 L 397.6 17.1" stroke-width="2.60"/>
<path d="M 397.6 17.1 L 397.3 17.4" stroke-width="2.40"/>
<circle cx="407.0" cy="20.8" r="0.77" fill="currentColor" stroke="none"/>
<path d="M 407.0 20.8 L 407.5 20.6" stroke-width="1.80"/>
<path d="M 407.5 20.6 L 408.5 20.2 L 409.8 19.7" stroke-width="2.40"/>
<path d="M 409.8 19.7 L 411.2 19.0 L 412.5 18.2 L 413.7 17.4 L 414.5 16.7" stroke-width="2.20"/>
<path d="M 414.5 16.7 L 414.9 16.0" stroke-width="2.40"/>
<path d="M 414.9 16.0 L 415.0 15.4" stroke-width="2.60"/>
<path d="M 415.0 15.4 L 414.7 15.0" stroke-width="2.80"/>
<path d="M 414.7 15.0 L 413.9 14.8" stroke-width="3.00"/>
<path d="M 413.9 14.8 L 412.7 15.0" stroke-width="2.80"/>
<path d="M 412.7 15.0 L 411.1 15.6" stroke-width="2.60"/>
<path d="M 411.1 15.6 L 409.4 16.6" stroke-width="2.20"/>
<path d="M 409.4 16.6 L 407.7 17.8" stroke-width="2.00"/>
<path d="M 407.7 17.8 L 406.4 19.1 L 405.7 20.5" stroke-width="1.80"/>
<path d="M 405.7 20.5 L 405.6 21.8 L 406.2 23.0 L 407.4 24.0 L 409.3 24.7" stroke-width="2.00"/>
<path d="M 409.3 24.7 L 411.6 24.9" stroke-width="1.80"/>
<path d="M 411.6 24.9 L 413.8 25.0" stroke-width="1.60"/>
<path d="M 413.8 25.0 L 415.2 24.9" stroke-width="1.40"/>
<circle cx="425.8" cy="16.3" r="0.77" fill="currentColor" stroke="none"/>
<path d="M 425.8 16.3 L 425.1 16.1" stroke-width="1.80"/>
<path d="M 425.1 16.1 L 424.0 15.9" stroke-width="2.20"/>
<path d="M 424.0 15.9 L 422.5 15.8" stroke-width="2.40"/>
<path d="M 422.5 15.8 L 421.1 16.0 L 420.0 16.5" stroke-width="2.20"/>
<path d="M 420.0 16.5 L 419.3 17.2 L 419.3 18.0" stroke-width="2.40"/>
<path d="M 419.3 18.0 L 420.0 19.0" stroke-width="2.60"/>
<path d="M 420.0 19.0 L 421.3 20.0" stroke-width="2.40"/>
<path d="M 421.3 20.0 L 423.0 21.1" stroke-width="2.20"/>
<path d="M 423.0 21.1 L 424.9 22.1 L 426.7 23.1 L 428.3 24.0 L 429.3 24.8" stroke-width="1.80"/>
<path d="M 429.3 24.8 L 429.6 25.5" stroke-width="2.00"/>
<path d="M 429.6 25.5 L 429.2 26.0 L 428.1 26.3 L 426.5 26.4" stroke-width="2.40"/>
<path d="M 426.5 26.4 L 424.4 26.5" stroke-width="2.00"/>
<path d="M 424.4 26.5 L 422.1 26.4 L 419.9 26.1" stroke-width="1.80"/>
<path d="M 419.9 26.1 L 417.9 25.8 L 416.5 25.4" stroke-width="1.60"/>
<path d="M 416.5 25.4 L 415.6 25.2" stroke-width="1.40"/>
</svg>
