<svg xmlns="http://www.w3.org/2000/svg" viewBox="0 0 616.3 58.8" fill="none" stroke="currentColor" stroke-linecap="round" stroke-linejoin="round" role="img">
<circle cx="18.3" cy="28.7" r="0.63" fill="currentColor" stroke="none"/>
<path d="M 18.3 28.7 L 18.2 28.4" stroke-width="1.60"/>
<path d="M 18.2 28.4 L 18.1 27.9" stroke-width="2.20"/>
<path d="M 18.1 27.9 L 18.0 27.3 L 17.9 26.6 L 17.6 25.8 L 17.3 25.1 L 16.7 24.5 L 16.0 24.0 L 15.1 23.7" stroke-width="2.60"/>
<path d="M 15.1 23.7 L 14.0 23.7 L 12.7 24.0" stroke-width="2.40"/>
<path d="M 12.7 24.0 L 11.3 24.8" stroke-width="2.20"/>
<path d="M 11.3 24.8 L 9.9 25.9" stroke-width="2.00"/>
<path d="M 9.9 25.9 L 8.5 27.6" stroke-width="1.80"/>
<path d="M 8.5 27.6 L 7.3 29.5 L 6.5 31.5" stroke-width="1.60"/>
<path d="M 6.5 31.5 L 6.0 33.4" stroke-width="1.40"/>
<path d="M 6.0 33.4 L 6.0 35.0 L 6.6 36.1" stroke-width="1.60"/>
<path d="M 6.6 36.1 L 7.6 36.7 L 9.0 36.6 L 10.7 36.0" stroke-width="1.80"/>
<path d="M 10.7 36.0 L 12.7 34.8 L 14.7 33.3" stroke-width="1.60"/>
<path d="M 14.7 33.3 L 16.6 31.5 L 18.4 29.8 L 19.8 28.2 L 20.7 27.0" stroke-width="1.40"/>
<path d="M 20.7 27.0 L 21.3 26.2" stroke-width="1.60"/>
<path d="M 21.3 26.2 L 21.5 25.8" stroke-width="1.80"/>
<path d="M 21.5 25.8 L 21.5 25.7" stroke-width="2.40"/>
<path d="M 21.5 25.7 L 21.3 26.0 L 20.9 26.7 L 20.5 27.9" stroke-width="2.60"/>
<path d="M 20.5 27.9 L 20.0 29.4" stroke-width="2.40"/>
<path d="M 20.0 29.4 L 19.7 31.1" stroke-width="2.00"/>
<path d="M 19.7 31.1 L 19.5 32.8 L 19.7 34.2 L 20.3 35.3" stroke-width="1.80"/>
<path d="M 20.3 35.3 L 21.4 35.9 L 22.8 36.1" stroke-width="2.00"/>
<path d="M 22.8 36.1 L 24.7 35.8" stroke-width="1.80"/>
<path d="M 24.7 35.8 L 26.8 35.0 L 29.2 33.9" stroke-width="1.60"/>
<path d="M 29.2 33.9 L 31.7 32.5" stroke-width="1.40"/>
<path d="M 31.7 32.5 L 34.0 30.9 L 35.7 29.6" stroke-width="1.20"/>
<path d="M 35.7 29.6 L 36.8 28.7" stroke-width="1.00"/>
<circle cx="61.1" cy="28.8" r="0.63" fill="currentColor" stroke="none"/>
<path d="M 61.1 28.8 L 61.4 28.6" stroke-width="1.60"/>
<path d="M 61.4 28.6 L 62.0 28.0 L 63.0 27.2" stroke-width="2.20"/>
<path d="M 63.0 27.2 L 64.5 25.9" stroke-width="2.00"/>
<path d="M 64.5 25.9 L 66.3 24.3" stroke-width="1.80"/>
<path d="M 66.3 24.3 L 68.3 22.3" stroke-width="1.60"/>
<path d="M 68.3 22.3 L 70.5 20.1" stroke-width="1.40"/>
<path d="M 70.5 20.1 L 72.5 17.6 L 74.5 15.0 L 76.2 12.5 L 77.5 10.3 L 78.4 8.4" stroke-width="1.20"/>
<path d="M 78.4 8.4 L 78.9 7.1" stroke-width="1.40"/>
<path d="M 78.9 7.1 L 78.9 6.2" stroke-width="1.60"/>
<path d="M 78.9 6.2 L 78.4 6.0" stroke-width="1.80"/>
<path d="M 78.4 6.0 L 77.5 6.4 L 76.2 7.5" stroke-width="2.00"/>
<path d="M 76.2 7.5 L 74.6 9.4" stroke-width="1.80"/>
<path d="M 74.6 9.4 L 72.7 12.0" stroke-width="1.40"/>
<path d="M 72.7 12.0 L 70.7 15.2" stroke-width="1.20"/>
<path d="M 70.7 15.2 L 68.8 18.7 L 67.1 22.2 L 65.9 25.6 L 65.3 28.4 L 65.2 30.6" stroke-width="1.00"/>
<path d="M 65.2 30.6 L 65.7 32.1" stroke-width="1.20"/>
<path d="M 65.7 32.1 L 66.7 32.8" stroke-width="1.40"/>
<path d="M 66.7 32.8 L 68.2 32.8 L 70.2 32.0" stroke-width="1.60"/>
<path d="M 70.2 32.0 L 72.6 30.7" stroke-width="1.40"/>
<path d="M 72.6 30.7 L 75.3 28.8 L 78.0 26.7" stroke-width="1.20"/>
<path d="M 78.0 26.7 L 80.7 24.7 L 83.1 22.8" stroke-width="1.00"/>
<path d="M 83.1 22.8 L 85.0 21.3 L 86.4 20.3" stroke-width="1.20"/>
<path d="M 86.4 20.3 L 87.3 19.7" stroke-width="1.40"/>
<path d="M 87.3 19.7 L 87.7 19.6" stroke-width="1.60"/>
<path d="M 87.7 19.6 L 87.7 19.9" stroke-width="2.00"/>
<path d="M 87.7 19.9 L 87.3 20.9 L 86.5 22.4" stroke-width="2.20"/>
<path d="M 86.5 22.4 L 85.6 24.3" stroke-width="1.80"/>
<path d="M 85.6 24.3 L 84.5 26.5 L 83.7 28.5 L 83.1 30.1 L 83.0 31.2" stroke-width="1.60"/>
<path d="M 83.0 31.2 L 83.3 31.8" stroke-width="1.80"/>
<path d="M 83.3 31.8 L 84.0 31.8 L 85.1 31.2" stroke-width="2.20"/>
<path d="M 85.1 31.2 L 86.5 30.1" stroke-width="2.00"/>
<path d="M 86.5 30.1 L 88.3 28.7" stroke-width="1.80"/>
<path d="M 88.3 28.7 L 90.3 26.9" stroke-width="1.60"/>
<path d="M 90.3 26.9 L 92.3 25.2 L 94.2 23.8 L 96.0 22.7 L 97.4 22.0" stroke-width="1.40"/>
<path d="M 97.4 22.0 L 98.6 21.9" stroke-width="1.60"/>
<path d="M 98.6 21.9 L 99.3 22.3" stroke-width="1.80"/>
<path d="M 99.3 22.3 L 99.6 23.2 L 99.5 24.5 L 99.1 26.1" stroke-width="2.00"/>
<path d="M 99.1 26.1 L 98.4 27.8 L 97.7 29.3 L 97.1 30.4" stroke-width="1.80"/>
<path d="M 97.1 30.4 L 96.8 31.1" stroke-width="2.00"/>
<path d="M 96.8 31.1 L 96.7 31.4" stroke-width="2.20"/>
<path d="M 96.7 31.4 L 97.0 31.1 L 97.7 30.4" stroke-width="2.60"/>
<path d="M 97.7 30.4 L 98.8 29.1" stroke-width="2.40"/>
<path d="M 98.8 29.1 L 100.4 27.6" stroke-width="2.00"/>
<path d="M 100.4 27.6 L 102.2 26.0" stroke-width="1.80"/>
<path d="M 102.2 26.0 L 104.1 24.6" stroke-width="1.60"/>
<path d="M 104.1 24.6 L 105.9 23.4 L 107.5 22.6" stroke-width="1.40"/>
<path d="M 107.5 22.6 L 108.8 22.2" stroke-width="1.60"/>
<path d="M 108.8 22.2 L 109.6 22.2" stroke-width="1.80"/>
<path d="M 109.6 22.2 L 110.0 22.6" stroke-width="2.00"/>
<path d="M 110.0 22.6 L 110.0 23.4 L 109.7 24.5 L 109.1 25.9" stroke-width="2.20"/>
<path d="M 109.1 25.9 L 108.5 27.3 L 107.9 28.7 L 107.5 29.9 L 107.4 30.9" stroke-width="2.00"/>
<path d="M 107.4 30.9 L 107.7 31.6" stroke-width="2.20"/>
<path d="M 107.7 31.6 L 108.3 32.0 L 109.2 32.1 L 110.4 31.9" stroke-width="2.40"/>
<path d="M 110.4 31.9 L 111.9 31.5" stroke-width="2.20"/>
<path d="M 111.9 31.5 L 113.6 30.7" stroke-width="2.00"/>
<path d="M 113.6 30.7 L 115.4 29.7" stroke-width="1.80"/>
<path d="M 115.4 29.7 L 117.3 28.4 L 119.0 27.1" stroke-width="1.60"/>
<path d="M 119.0 27.1 L 120.6 25.7 L 121.8 24.3" stroke-width="1.40"/>
<path d="M 121.8 24.3 L 122.6 23.0 L 123.1 21.9" stroke-width="1.60"/>
<path d="M 123.1 21.9 L 123.1 21.1" stroke-width="1.80"/>
<path d="M 123.1 21.1 L 122.7 20.5" stroke-width="2.00"/>
<path d="M 122.7 20.5 L 122.1 20.2" stroke-width="2.20"/>
<path d="M 122.1 20.2 L 121.2 20.3 L 120.1 20.8" stroke-width="2.40"/>
<path d="M 120.1 20.8 L 118.9 21.7" stroke-width="2.20"/>
<path d="M 118.9 21.7 L 117.6 23.0" stroke-width="2.00"/>
<path d="M 117.6 23.0 L 116.4 24.6" stroke-width="1.80"/>
<path d="M 116.4 24.6 L 115.4 26.4 L 114.9 28.1 L 115.0 29.8 L 115.6 31.3 L 116.8 32.4 L 118.4 33.1 L 120.4 33.1 L 122.6 32.6" stroke-width="1.60"/>
<path d="M 122.6 32.6 L 124.6 31.4 L 126.2 30.2" stroke-width="1.40"/>
<path d="M 126.2 30.2 L 127.2 29.3" stroke-width="1.20"/>
<circle cx="123.0" cy="17.2" r="0.63" fill="currentColor" stroke="none"/>
<path d="M 123.0 17.2 L 122.8 17.1" stroke-width="1.60"/>
<path d="M 122.8 17.1 L 122.5 17.0" stroke-width="2.20"/>
<path d="M 122.5 17.0 L 122.3 16.8" stroke-width="2.40"/>
<path d="M 122.3 16.8 L 122.3 16.8" stroke-width="2.00"/>
<circle cx="149.3" cy="26.8" r="0.63" fill="currentColor" stroke="none"/>
<path d="M 149.3 26.8 L 149.3 26.6" stroke-width="1.60"/>
<path d="M 149.3 26.6 L 149.2 26.1" stroke-width="2.20"/>
<path d="M 149.2 26.1 L 149.2 25.4 L 149.0 24.6 L 148.7 23.7 L 148.3 22.8" stroke-width="2.60"/>
<path d="M 148.3 22.8 L 147.7 22.1 L 146.9 21.5 L 145.9 21.2 L 144.7 21.3" stroke-width="2.40"/>
<path d="M 144.7 21.3 L 143.4 21.8" stroke-width="2.20"/>
<path d="M 143.4 21.8 L 141.9 22.8" stroke-width="2.00"/>
<path d="M 141.9 22.8 L 140.5 24.3" stroke-width="1.80"/>
<path d="M 140.5 24.3 L 139.3 26.1 L 138.4 28.1 L 138.0 30.0 L 138.1 31.6 L 138.9 32.6" stroke-width="1.60"/>
<path d="M 138.9 32.6 L 140.1 33.2 L 141.8 33.1" stroke-width="1.80"/>
<path d="M 141.8 33.1 L 143.7 32.5 L 145.7 31.4" stroke-width="1.60"/>
<path d="M 145.7 31.4 L 147.7 29.9 L 149.3 28.3 L 150.6 26.7 L 151.5 25.3" stroke-width="1.40"/>
<path d="M 151.5 25.3 L 151.9 24.1" stroke-width="1.60"/>
<path d="M 151.9 24.1 L 152.1 23.4" stroke-width="1.80"/>
<path d="M 152.1 23.4 L 152.0 22.9" stroke-width="2.00"/>
<path d="M 152.0 22.9 L 151.9 22.8" stroke-width="2.40"/>
<path d="M 151.9 22.8 L 151.8 22.8 L 151.9 22.9 L 152.3 23.0 L 153.3 22.8" stroke-width="2.60"/>
<path d="M 153.3 22.8 L 154.9 22.3" stroke-width="2.40"/>
<path d="M 154.9 22.3 L 157.2 21.3" stroke-width="2.00"/>
<path d="M 157.2 21.3 L 159.8 19.9" stroke-width="1.60"/>
<path d="M 159.8 19.9 L 162.7 18.1" stroke-width="1.40"/>
<path d="M 162.7 18.1 L 165.6 16.0" stroke-width="1.20"/>
<path d="M 165.6 16.0 L 168.3 13.7 L 170.6 11.6 L 172.4 9.6" stroke-width="1.00"/>
<path d="M 172.4 9.6 L 173.6 8.0" stroke-width="1.20"/>
<path d="M 173.6 8.0 L 174.3 6.9" stroke-width="1.40"/>
<path d="M 174.3 6.9 L 174.4 6.3" stroke-width="1.60"/>
<path d="M 174.4 6.3 L 174.2 6.2" stroke-width="2.00"/>
<path d="M 174.2 6.2 L 173.5 6.7 L 172.3 8.0" stroke-width="2.20"/>
<path d="M 172.3 8.0 L 170.8 10.1" stroke-width="1.80"/>
<path d="M 170.8 10.1 L 168.9 12.8" stroke-width="1.40"/>
<path d="M 168.9 12.8 L 166.8 16.2" stroke-width="1.20"/>
<path d="M 166.8 16.2 L 164.8 20.0 L 162.8 24.0 L 161.0 28.1 L 159.4 32.1 L 158.0 35.7 L 157.1 38.6 L 156.5 40.7" stroke-width="1.00"/>
<path d="M 156.5 40.7 L 156.1 42.0" stroke-width="1.20"/>
<path d="M 156.1 42.0 L 156.1 42.4" stroke-width="1.40"/>
<path d="M 156.1 42.4 L 156.1 41.9" stroke-width="1.80"/>
<path d="M 156.1 41.9 L 156.3 40.7" stroke-width="2.00"/>
<path d="M 156.3 40.7 L 156.5 39.3" stroke-width="1.80"/>
<path d="M 156.5 39.3 L 156.6 38.3" stroke-width="1.60"/>
<circle cx="155.7" cy="29.1" r="0.63" fill="currentColor" stroke="none"/>
<path d="M 155.7 29.1 L 155.3 28.9" stroke-width="1.60"/>
<path d="M 155.3 28.9 L 155.0 28.8" stroke-width="2.20"/>
<path d="M 155.0 28.8 L 154.8 28.8 L 155.1 29.0 L 156.0 29.3" stroke-width="2.60"/>
<path d="M 156.0 29.3 L 157.5 29.4" stroke-width="2.40"/>
<path d="M 157.5 29.4 L 159.6 29.3" stroke-width="2.20"/>
<path d="M 159.6 29.3 L 162.3 28.9" stroke-width="1.80"/>
<path d="M 162.3 28.9 L 165.4 28.2" stroke-width="1.40"/>
<path d="M 165.4 28.2 L 167.9 27.5" stroke-width="1.20"/>
<path d="M 167.9 27.5 L 169.6 27.0" stroke-width="1.00"/>
<circle cx="189.9" cy="25.5" r="0.63" fill="currentColor" stroke="none"/>
<path d="M 189.9 25.5 L 189.9 25.6" stroke-width="1.60"/>
<path d="M 189.9 25.6 L 189.8 25.9" stroke-width="2.40"/>
<path d="M 189.8 25.9 L 189.5 26.5 L 188.9 27.4" stroke-width="2.60"/>
<path d="M 188.9 27.4 L 188.2 28.8" stroke-width="2.40"/>
<path d="M 188.2 28.8 L 187.3 30.3" stroke-width="2.00"/>
<path d="M 187.3 30.3 L 186.5 31.9 L 185.7 33.5 L 185.2 34.8 L 185.0 35.7" stroke-width="1.80"/>
<path d="M 185.0 35.7 L 185.1 36.2" stroke-width="2.20"/>
<path d="M 185.1 36.2 L 185.6 36.2 L 186.5 35.7" stroke-width="2.40"/>
<path d="M 186.5 35.7 L 187.8 34.6" stroke-width="2.20"/>
<path d="M 187.8 34.6 L 189.4 33.1" stroke-width="2.00"/>
<path d="M 189.4 33.1 L 191.5 31.4" stroke-width="1.60"/>
<path d="M 191.5 31.4 L 193.7 29.5" stroke-width="1.40"/>
<path d="M 193.7 29.5 L 196.0 27.7 L 198.2 26.2 L 200.2 25.2" stroke-width="1.20"/>
<path d="M 200.2 25.2 L 201.7 24.6 L 202.9 24.5" stroke-width="1.40"/>
<path d="M 202.9 24.5 L 203.6 24.9" stroke-width="1.80"/>
<path d="M 203.6 24.9 L 203.8 25.8 L 203.6 27.1 L 202.9 28.8" stroke-width="2.00"/>
<path d="M 202.9 28.8 L 202.0 30.5" stroke-width="1.80"/>
<path d="M 202.0 30.5 L 201.0 32.2 L 200.1 33.5" stroke-width="1.60"/>
<path d="M 200.1 33.5 L 199.6 34.4" stroke-width="1.80"/>
<path d="M 199.6 34.4 L 199.3 34.8" stroke-width="2.00"/>
<path d="M 199.3 34.8 L 199.4 34.7" stroke-width="2.40"/>
<path d="M 199.4 34.7 L 199.9 34.2" stroke-width="2.60"/>
<path d="M 199.9 34.2 L 200.8 33.1" stroke-width="2.40"/>
<path d="M 200.8 33.1 L 202.1 31.8" stroke-width="2.20"/>
<path d="M 202.1 31.8 L 203.8 30.2" stroke-width="1.80"/>
<path d="M 203.8 30.2 L 205.8 28.6" stroke-width="1.60"/>
<path d="M 205.8 28.6 L 207.8 27.2 L 209.8 26.1 L 211.7 25.4 L 213.4 25.2" stroke-width="1.40"/>
<path d="M 213.4 25.2 L 214.7 25.3" stroke-width="1.60"/>
<path d="M 214.7 25.3 L 215.7 25.9 L 216.1 26.9" stroke-width="1.80"/>
<path d="M 216.1 26.9 L 216.2 28.2 L 215.8 29.7" stroke-width="2.00"/>
<path d="M 215.8 29.7 L 215.2 31.3 L 214.6 32.9 L 214.1 34.2 L 213.8 35.1" stroke-width="1.80"/>
<path d="M 213.8 35.1 L 213.9 35.7" stroke-width="2.00"/>
<path d="M 213.9 35.7 L 214.3 35.9" stroke-width="2.40"/>
<path d="M 214.3 35.9 L 215.0 35.6" stroke-width="2.60"/>
<path d="M 215.0 35.6 L 216.2 34.9" stroke-width="2.40"/>
<path d="M 216.2 34.9 L 217.7 33.7" stroke-width="2.20"/>
<path d="M 217.7 33.7 L 219.5 32.0" stroke-width="1.80"/>
<path d="M 219.5 32.0 L 221.5 30.0" stroke-width="1.60"/>
<path d="M 221.5 30.0 L 223.7 27.7" stroke-width="1.40"/>
<path d="M 223.7 27.7 L 226.0 25.1 L 228.3 22.4" stroke-width="1.20"/>
<path d="M 228.3 22.4 L 230.5 19.7 L 232.4 17.1 L 234.1 14.8 L 235.4 12.9" stroke-width="1.00"/>
<path d="M 235.4 12.9 L 236.2 11.5" stroke-width="1.20"/>
<path d="M 236.2 11.5 L 236.6 10.6" stroke-width="1.40"/>
<path d="M 236.6 10.6 L 236.6 10.3" stroke-width="1.80"/>
<path d="M 236.6 10.3 L 236.3 10.6 L 235.7 11.5 L 234.7 13.2" stroke-width="2.20"/>
<path d="M 234.7 13.2 L 233.4 15.4" stroke-width="1.80"/>
<path d="M 233.4 15.4 L 231.9 18.2" stroke-width="1.40"/>
<path d="M 231.9 18.2 L 230.2 21.2 L 228.6 24.3" stroke-width="1.20"/>
<path d="M 228.6 24.3 L 227.1 27.2 L 225.8 29.7" stroke-width="1.00"/>
<path d="M 225.8 29.7 L 225.0 31.6 L 224.5 32.8" stroke-width="1.20"/>
<path d="M 224.5 32.8 L 224.2 33.4" stroke-width="1.60"/>
<path d="M 224.2 33.4 L 224.3 33.5" stroke-width="2.00"/>
<path d="M 224.3 33.5 L 224.5 33.1 L 225.0 32.2" stroke-width="2.40"/>
<path d="M 225.0 32.2 L 225.7 30.9" stroke-width="2.20"/>
<path d="M 225.7 30.9 L 226.8 29.2" stroke-width="2.00"/>
<path d="M 226.8 29.2 L 228.2 27.5" stroke-width="1.80"/>
<path d="M 228.2 27.5 L 229.9 25.8" stroke-width="1.60"/>
<path d="M 229.9 25.8 L 231.7 24.4 L 233.7 23.3 L 235.5 22.5 L 237.3 22.1" stroke-width="1.40"/>
<path d="M 237.3 22.1 L 238.7 22.0 L 239.7 22.0" stroke-width="1.60"/>
<path d="M 239.7 22.0 L 240.2 22.2" stroke-width="2.00"/>
<path d="M 240.2 22.2 L 240.3 22.5" stroke-width="2.20"/>
<path d="M 240.3 22.5 L 239.9 22.8 L 239.0 23.2" stroke-width="2.60"/>
<path d="M 239.0 23.2 L 237.6 23.6" stroke-width="2.40"/>
<path d="M 237.6 23.6 L 235.8 24.1" stroke-width="2.20"/>
<path d="M 235.8 24.1 L 233.9 24.6 L 232.0 25.2" stroke-width="1.80"/>
<path d="M 232.0 25.2 L 230.4 25.8 L 229.0 26.5" stroke-width="1.60"/>
<path d="M 229.0 26.5 L 228.1 27.2 L 227.6 28.0" stroke-width="1.80"/>
<path d="M 227.6 28.0 L 227.6 28.9" stroke-width="2.00"/>
<path d="M 227.6 28.9 L 228.1 29.7 L 229.1 30.6" stroke-width="2.20"/>
<path d="M 229.1 30.6 L 230.3 31.3 L 231.8 31.7 L 233.3 32.0" stroke-width="2.00"/>
<path d="M 233.3 32.0 L 234.7 32.1" stroke-width="1.80"/>
<path d="M 234.7 32.1 L 235.9 31.9 L 236.8 31.6" stroke-width="2.00"/>
<path d="M 236.8 31.6 L 237.4 31.0 L 237.7 30.5" stroke-width="2.20"/>
<path d="M 237.7 30.5 L 237.8 30.0" stroke-width="2.00"/>
<circle cx="234.8" cy="19.1" r="0.63" fill="currentColor" stroke="none"/>
<path d="M 234.8 19.1 L 234.8 19.1" stroke-width="1.60"/>
<path d="M 234.8 19.1 L 234.8 19.2" stroke-width="2.40"/>
<path d="M 234.8 19.2 L 234.8 19.3 L 234.8 19.4 L 234.8 19.5 L 234.8 19.5" stroke-width="2.60"/>
<path d="M 234.8 19.5 L 234.8 19.5" stroke-width="2.40"/>
<path d="M 234.8 19.5 L 234.8 19.4" stroke-width="2.00"/>
<circle cx="244.9" cy="34.3" r="0.63" fill="currentColor" stroke="none"/>
<path d="M 244.9 34.3 L 245.0 34.4" stroke-width="1.60"/>
<path d="M 245.0 34.4 L 245.0 34.5" stroke-width="2.40"/>
<path d="M 245.0 34.5 L 245.0 34.7 L 244.8 35.2 L 244.2 36.2" stroke-width="2.60"/>
<path d="M 244.2 36.2 L 243.2 37.6" stroke-width="2.40"/>
<path d="M 243.2 37.6 L 241.9 39.5" stroke-width="2.00"/>
<path d="M 241.9 39.5 L 240.4 41.4 L 238.9 43.3" stroke-width="1.60"/>
<path d="M 238.9 43.3 L 237.7 44.7 L 237.0 45.6 L 236.6 46.0" stroke-width="1.40"/>
<circle cx="274.8" cy="13.4" r="0.63" fill="currentColor" stroke="none"/>
<path d="M 274.8 13.4 L 274.8 13.5" stroke-width="1.60"/>
<path d="M 274.8 13.5 L 274.6 13.7" stroke-width="2.40"/>
<path d="M 274.6 13.7 L 274.4 14.3 L 274.0 15.3" stroke-width="2.60"/>
<path d="M 274.0 15.3 L 273.4 16.7" stroke-width="2.40"/>
<path d="M 273.4 16.7 L 272.5 18.5" stroke-width="2.00"/>
<path d="M 272.5 18.5 L 271.5 20.8" stroke-width="1.80"/>
<path d="M 271.5 20.8 L 270.2 23.3" stroke-width="1.60"/>
<path d="M 270.2 23.3 L 268.9 26.0" stroke-width="1.40"/>
<path d="M 268.9 26.0 L 267.7 28.7 L 266.7 31.2 L 266.0 33.3" stroke-width="1.20"/>
<path d="M 266.0 33.3 L 265.6 34.7" stroke-width="1.40"/>
<path d="M 265.6 34.7 L 265.6 35.5" stroke-width="1.60"/>
<path d="M 265.6 35.5 L 265.8 35.8 L 266.0 35.8" stroke-width="1.80"/>
<circle cx="265.9" cy="25.6" r="0.63" fill="currentColor" stroke="none"/>
<path d="M 265.9 25.6 L 266.0 25.8" stroke-width="1.60"/>
<path d="M 266.0 25.8 L 266.3 26.0" stroke-width="2.20"/>
<path d="M 266.3 26.0 L 267.1 26.3" stroke-width="2.60"/>
<path d="M 267.1 26.3 L 268.4 26.5" stroke-width="2.40"/>
<path d="M 268.4 26.5 L 270.2 26.3" stroke-width="2.20"/>
<path d="M 270.2 26.3 L 272.4 25.7" stroke-width="1.80"/>
<path d="M 272.4 25.7 L 275.0 24.6" stroke-width="1.60"/>
<path d="M 275.0 24.6 L 277.8 23.2" stroke-width="1.40"/>
<path d="M 277.8 23.2 L 280.7 21.5 L 283.5 19.6" stroke-width="1.20"/>
<path d="M 283.5 19.6 L 285.9 17.6 L 287.9 15.7" stroke-width="1.00"/>
<path d="M 287.9 15.7 L 289.4 14.1 L 290.2 12.8" stroke-width="1.20"/>
<path d="M 290.2 12.8 L 290.6 11.9" stroke-width="1.40"/>
<path d="M 290.6 11.9 L 290.6 11.5" stroke-width="1.80"/>
<path d="M 290.6 11.5 L 290.1 11.6 L 289.3 12.4" stroke-width="2.20"/>
<path d="M 289.3 12.4 L 288.1 13.9" stroke-width="2.00"/>
<path d="M 288.1 13.9 L 286.6 16.1" stroke-width="1.80"/>
<path d="M 286.6 16.1 L 284.9 18.9" stroke-width="1.40"/>
<path d="M 284.9 18.9 L 283.2 21.9 L 281.7 25.0" stroke-width="1.20"/>
<path d="M 281.7 25.0 L 280.4 27.8 L 279.5 30.2" stroke-width="1.00"/>
<path d="M 279.5 30.2 L 278.8 32.2" stroke-width="1.20"/>
<path d="M 278.8 32.2 L 278.5 33.5" stroke-width="1.40"/>
<path d="M 278.5 33.5 L 278.4 34.3" stroke-width="1.60"/>
<path d="M 278.4 34.3 L 278.6 34.4" stroke-width="1.80"/>
<path d="M 278.6 34.4 L 279.2 34.0 L 280.1 32.9" stroke-width="2.20"/>
<path d="M 280.1 32.9 L 281.5 31.5" stroke-width="2.00"/>
<path d="M 281.5 31.5 L 283.1 29.8" stroke-width="1.80"/>
<path d="M 283.1 29.8 L 285.0 28.0" stroke-width="1.60"/>
<path d="M 285.0 28.0 L 287.0 26.5 L 288.8 25.3 L 290.5 24.4" stroke-width="1.40"/>
<path d="M 290.5 24.4 L 291.8 24.0 L 292.7 24.0" stroke-width="1.60"/>
<path d="M 292.7 24.0 L 293.2 24.4" stroke-width="2.00"/>
<path d="M 293.2 24.4 L 293.4 25.3 L 293.2 26.5" stroke-width="2.20"/>
<path d="M 293.2 26.5 L 292.8 28.1" stroke-width="2.00"/>
<path d="M 292.8 28.1 L 292.2 29.8 L 291.7 31.4 L 291.3 32.7 L 291.3 33.7" stroke-width="1.80"/>
<path d="M 291.3 33.7 L 291.7 34.2" stroke-width="2.00"/>
<path d="M 291.7 34.2 L 292.5 34.2 L 293.8 33.6" stroke-width="2.20"/>
<path d="M 293.8 33.6 L 295.5 32.6" stroke-width="2.00"/>
<path d="M 295.5 32.6 L 297.5 31.1" stroke-width="1.80"/>
<path d="M 297.5 31.1 L 299.5 29.5" stroke-width="1.60"/>
<path d="M 299.5 29.5 L 301.6 27.7 L 303.5 26.1 L 305.0 24.9 L 306.1 24.0" stroke-width="1.40"/>
<path d="M 306.1 24.0 L 306.7 23.5" stroke-width="1.60"/>
<path d="M 306.7 23.5 L 307.0 23.5" stroke-width="2.00"/>
<path d="M 307.0 23.5 L 306.8 23.9 L 306.3 24.9" stroke-width="2.40"/>
<path d="M 306.3 24.9 L 305.5 26.3" stroke-width="2.20"/>
<path d="M 305.5 26.3 L 304.6 28.1" stroke-width="2.00"/>
<path d="M 304.6 28.1 L 303.8 29.9" stroke-width="1.80"/>
<path d="M 303.8 29.9 L 303.2 31.5" stroke-width="1.60"/>
<path d="M 303.2 31.5 L 302.9 32.8 L 302.9 33.7" stroke-width="1.80"/>
<path d="M 302.9 33.7 L 303.3 34.0" stroke-width="2.20"/>
<path d="M 303.3 34.0 L 304.1 33.9" stroke-width="2.40"/>
<path d="M 304.1 33.9 L 305.3 33.2" stroke-width="2.20"/>
<path d="M 305.3 33.2 L 306.8 32.1" stroke-width="2.00"/>
<path d="M 306.8 32.1 L 308.7 30.6" stroke-width="1.80"/>
<path d="M 308.7 30.6 L 310.8 28.9" stroke-width="1.60"/>
<path d="M 310.8 28.9 L 312.9 27.2 L 315.0 25.8 L 316.9 24.7 L 318.5 24.1" stroke-width="1.40"/>
<path d="M 318.5 24.1 L 319.7 24.1" stroke-width="1.60"/>
<path d="M 319.7 24.1 L 320.5 24.5" stroke-width="1.80"/>
<path d="M 320.5 24.5 L 320.8 25.3 L 320.7 26.6 L 320.2 28.1" stroke-width="2.00"/>
<path d="M 320.2 28.1 L 319.4 29.7 L 318.6 31.2 L 317.8 32.3 L 317.4 33.1" stroke-width="1.80"/>
<path d="M 317.4 33.1 L 317.2 33.3" stroke-width="2.20"/>
<path d="M 317.2 33.3 L 317.4 33.1 L 318.0 32.4" stroke-width="2.60"/>
<path d="M 318.0 32.4 L 319.1 31.3" stroke-width="2.40"/>
<path d="M 319.1 31.3 L 320.6 29.8" stroke-width="2.00"/>
<path d="M 320.6 29.8 L 322.4 28.3" stroke-width="1.80"/>
<path d="M 322.4 28.3 L 324.4 26.9" stroke-width="1.60"/>
<path d="M 324.4 26.9 L 326.5 25.7 L 328.3 24.9 L 329.9 24.4" stroke-width="1.40"/>
<path d="M 329.9 24.4 L 331.1 24.4" stroke-width="1.60"/>
<path d="M 331.1 24.4 L 331.9 24.6" stroke-width="1.80"/>
<path d="M 331.9 24.6 L 332.3 25.3" stroke-width="2.00"/>
<path d="M 332.3 25.3 L 332.4 26.3 L 332.1 27.5" stroke-width="2.20"/>
<path d="M 332.1 27.5 L 331.5 29.0 L 330.9 30.6" stroke-width="2.00"/>
<path d="M 330.9 30.6 L 330.3 32.0 L 330.0 33.1" stroke-width="1.80"/>
<path d="M 330.0 33.1 L 329.9 33.9" stroke-width="2.00"/>
<path d="M 329.9 33.9 L 330.2 34.4" stroke-width="2.20"/>
<path d="M 330.2 34.4 L 330.8 34.4" stroke-width="2.40"/>
<path d="M 330.8 34.4 L 331.8 34.1" stroke-width="2.60"/>
<path d="M 331.8 34.1 L 333.0 33.2" stroke-width="2.40"/>
<path d="M 333.0 33.2 L 334.6 32.0" stroke-width="2.00"/>
<path d="M 334.6 32.0 L 336.4 30.2" stroke-width="1.80"/>
<path d="M 336.4 30.2 L 338.3 28.1 L 340.3 25.8" stroke-width="1.40"/>
<path d="M 340.3 25.8 L 342.4 23.2 L 344.4 20.5" stroke-width="1.20"/>
<path d="M 344.4 20.5 L 346.4 17.9 L 348.0 15.5" stroke-width="1.00"/>
<path d="M 348.0 15.5 L 349.4 13.4 L 350.3 11.8" stroke-width="1.20"/>
<path d="M 350.3 11.8 L 350.9 10.8" stroke-width="1.40"/>
<path d="M 350.9 10.8 L 351.1 10.2" stroke-width="1.60"/>
<path d="M 351.1 10.2 L 351.1 10.2" stroke-width="2.00"/>
<path d="M 351.1 10.2 L 350.8 10.7 L 350.1 11.7" stroke-width="2.40"/>
<path d="M 350.1 11.7 L 349.2 13.4" stroke-width="2.20"/>
<path d="M 349.2 13.4 L 348.0 15.6" stroke-width="1.80"/>
<path d="M 348.0 15.6 L 346.7 18.1" stroke-width="1.60"/>
<path d="M 346.7 18.1 L 345.3 20.9" stroke-width="1.40"/>
<path d="M 345.3 20.9 L 343.8 23.6 L 342.5 26.3 L 341.2 28.6 L 340.2 30.5" stroke-width="1.20"/>
<path d="M 340.2 30.5 L 339.5 31.9 L 339.1 32.8" stroke-width="1.40"/>
<path d="M 339.1 32.8 L 339.0 33.1" stroke-width="1.80"/>
<path d="M 339.0 33.1 L 339.1 32.8" stroke-width="2.20"/>
<path d="M 339.1 32.8 L 339.5 32.1 L 340.1 31.0" stroke-width="2.40"/>
<path d="M 340.1 31.0 L 341.0 29.6" stroke-width="2.20"/>
<path d="M 341.0 29.6 L 342.2 27.9" stroke-width="1.80"/>
<path d="M 342.2 27.9 L 343.7 26.3 L 345.4 24.8" stroke-width="1.60"/>
<path d="M 345.4 24.8 L 347.2 23.5 L 349.1 22.4 L 350.9 21.7 L 352.6 21.4" stroke-width="1.40"/>
<path d="M 352.6 21.4 L 354.0 21.3 L 355.2 21.6" stroke-width="1.60"/>
<path d="M 355.2 21.6 L 356.0 22.0" stroke-width="1.80"/>
<path d="M 356.0 22.0 L 356.6 22.6" stroke-width="2.00"/>
<path d="M 356.6 22.6 L 356.7 23.4" stroke-width="2.20"/>
<path d="M 356.7 23.4 L 356.4 24.3" stroke-width="2.40"/>
<path d="M 356.4 24.3 L 355.7 25.2 L 354.6 26.2" stroke-width="2.20"/>
<path d="M 354.6 26.2 L 353.1 27.1" stroke-width="2.00"/>
<path d="M 353.1 27.1 L 351.5 28.0 L 349.9 28.7 L 348.4 29.2 L 347.1 29.5 L 346.2 29.7" stroke-width="1.80"/>
<path d="M 346.2 29.7 L 345.5 29.8" stroke-width="2.00"/>
<path d="M 345.5 29.8 L 345.2 29.8" stroke-width="2.40"/>
<path d="M 345.2 29.8 L 345.1 29.8 L 345.2 29.7 L 345.3 29.7 L 345.4 29.8 L 345.5 30.0 L 345.7 30.2 L 345.9 30.6 L 346.2 30.9 L 346.7 31.3 L 347.3 31.6 L 348.2 31.7 L 349.4 31.6" stroke-width="2.60"/>
<path d="M 349.4 31.6 L 350.9 31.3" stroke-width="2.40"/>
<path d="M 350.9 31.3 L 352.7 30.6" stroke-width="2.00"/>
<path d="M 352.7 30.6 L 354.7 29.7" stroke-width="1.80"/>
<path d="M 354.7 29.7 L 356.9 28.6" stroke-width="1.60"/>
<path d="M 356.9 28.6 L 359.1 27.3 L 361.2 26.0 L 363.0 24.7 L 364.5 23.5 L 365.7 22.6" stroke-width="1.40"/>
<path d="M 365.7 22.6 L 366.3 22.0" stroke-width="1.60"/>
<path d="M 366.3 22.0 L 366.6 21.7" stroke-width="2.00"/>
<path d="M 366.6 21.7 L 366.5 21.8" stroke-width="2.40"/>
<path d="M 366.5 21.8 L 366.2 22.2 L 365.5 23.0" stroke-width="2.60"/>
<path d="M 365.5 23.0 L 364.6 24.3" stroke-width="2.40"/>
<path d="M 364.6 24.3 L 363.6 25.8" stroke-width="2.00"/>
<path d="M 363.6 25.8 L 362.6 27.4 L 362.0 29.0 L 361.7 30.3 L 361.8 31.3" stroke-width="1.80"/>
<path d="M 361.8 31.3 L 362.4 32.0" stroke-width="2.00"/>
<path d="M 362.4 32.0 L 363.3 32.1 L 364.6 31.9" stroke-width="2.20"/>
<path d="M 364.6 31.9 L 366.2 31.1" stroke-width="2.00"/>
<path d="M 366.2 31.1 L 368.1 30.0" stroke-width="1.80"/>
<path d="M 368.1 30.0 L 370.1 28.6" stroke-width="1.60"/>
<path d="M 370.1 28.6 L 372.1 27.2 L 374.1 25.7 L 375.8 24.5 L 377.2 23.5" stroke-width="1.40"/>
<path d="M 377.2 23.5 L 378.3 22.9" stroke-width="1.60"/>
<path d="M 378.3 22.9 L 379.0 22.6" stroke-width="1.80"/>
<path d="M 379.0 22.6 L 379.2 22.8" stroke-width="2.20"/>
<path d="M 379.2 22.8 L 379.1 23.3 L 378.6 24.2" stroke-width="2.40"/>
<path d="M 378.6 24.2 L 377.8 25.6" stroke-width="2.20"/>
<path d="M 377.8 25.6 L 376.7 27.1" stroke-width="2.00"/>
<path d="M 376.7 27.1 L 375.5 28.7 L 374.4 30.1 L 373.6 31.1 L 373.1 31.8" stroke-width="1.80"/>
<path d="M 373.1 31.8 L 373.0 32.0" stroke-width="2.20"/>
<path d="M 373.0 32.0 L 373.2 31.7 L 373.9 31.0" stroke-width="2.60"/>
<path d="M 373.9 31.0 L 375.0 29.9" stroke-width="2.40"/>
<path d="M 375.0 29.9 L 376.5 28.5" stroke-width="2.00"/>
<path d="M 376.5 28.5 L 378.3 27.0" stroke-width="1.80"/>
<path d="M 378.3 27.0 L 380.5 25.6" stroke-width="1.60"/>
<path d="M 380.5 25.6 L 382.7 24.5 L 384.8 23.6 L 386.7 23.0 L 388.3 22.8" stroke-width="1.40"/>
<path d="M 388.3 22.8 L 389.5 22.9" stroke-width="1.60"/>
<path d="M 389.5 22.9 L 390.2 23.4" stroke-width="1.80"/>
<path d="M 390.2 23.4 L 390.5 24.1" stroke-width="2.00"/>
<path d="M 390.5 24.1 L 390.2 25.1 L 389.7 26.3" stroke-width="2.20"/>
<path d="M 389.7 26.3 L 389.0 27.6 L 388.2 28.8 L 387.7 29.9 L 387.4 30.7" stroke-width="2.00"/>
<path d="M 387.4 30.7 L 387.6 31.2" stroke-width="2.20"/>
<path d="M 387.6 31.2 L 388.3 31.4 L 389.5 31.1" stroke-width="2.40"/>
<path d="M 389.5 31.1 L 391.1 30.5" stroke-width="2.20"/>
<path d="M 391.1 30.5 L 393.2 29.5" stroke-width="1.80"/>
<path d="M 393.2 29.5 L 395.4 28.3" stroke-width="1.60"/>
<path d="M 395.4 28.3 L 397.8 27.0 L 400.0 25.7 L 402.1 24.5 L 403.9 23.5 L 405.3 22.8" stroke-width="1.40"/>
<path d="M 405.3 22.8 L 406.2 22.3" stroke-width="1.60"/>
<path d="M 406.2 22.3 L 406.8 22.1" stroke-width="1.80"/>
<path d="M 406.8 22.1 L 407.0 22.1" stroke-width="2.20"/>
<path d="M 407.0 22.1 L 407.0 22.3 L 406.7 22.6 L 406.1 23.1 L 405.3 23.8" stroke-width="2.60"/>
<path d="M 405.3 23.8 L 404.2 24.6" stroke-width="2.40"/>
<path d="M 404.2 24.6 L 402.9 25.5" stroke-width="2.20"/>
<path d="M 402.9 25.5 L 401.5 26.6" stroke-width="2.00"/>
<path d="M 401.5 26.6 L 400.1 27.7 L 398.9 28.9 L 398.0 29.9 L 397.5 30.9" stroke-width="1.80"/>
<path d="M 397.5 30.9 L 397.3 31.6" stroke-width="2.00"/>
<path d="M 397.3 31.6 L 397.5 32.0" stroke-width="2.20"/>
<path d="M 397.5 32.0 L 398.2 32.2" stroke-width="2.40"/>
<path d="M 398.2 32.2 L 399.2 32.0" stroke-width="2.60"/>
<path d="M 399.2 32.0 L 400.4 31.4" stroke-width="2.40"/>
<path d="M 400.4 31.4 L 401.9 30.5" stroke-width="2.00"/>
<path d="M 401.9 30.5 L 403.4 29.3 L 404.9 28.0" stroke-width="1.80"/>
<path d="M 404.9 28.0 L 406.1 26.6 L 407.1 25.4" stroke-width="1.60"/>
<path d="M 407.1 25.4 L 407.7 24.4" stroke-width="1.80"/>
<path d="M 407.7 24.4 L 408.1 23.7" stroke-width="2.00"/>
<path d="M 408.1 23.7 L 408.2 23.3" stroke-width="2.20"/>
<path d="M 408.2 23.3 L 408.2 23.2" stroke-width="2.40"/>
<path d="M 408.2 23.2 L 408.1 23.4 L 407.9 23.9 L 407.6 24.8 L 407.2 26.1" stroke-width="2.60"/>
<path d="M 407.2 26.1 L 406.7 27.7" stroke-width="2.20"/>
<path d="M 406.7 27.7 L 406.0 29.7" stroke-width="2.00"/>
<path d="M 406.0 29.7 L 405.3 31.9" stroke-width="1.80"/>
<path d="M 405.3 31.9 L 404.5 34.3" stroke-width="1.60"/>
<path d="M 404.5 34.3 L 403.5 36.9" stroke-width="1.40"/>
<path d="M 403.5 36.9 L 402.5 39.5 L 401.2 42.2 L 399.9 44.7 L 398.3 47.1 L 396.7 49.1 L 395.0 50.8 L 393.5 52.0" stroke-width="1.20"/>
<path d="M 393.5 52.0 L 392.0 52.6" stroke-width="1.40"/>
<path d="M 392.0 52.6 L 390.9 52.8" stroke-width="1.60"/>
<path d="M 390.9 52.8 L 390.1 52.4" stroke-width="1.80"/>
<path d="M 390.1 52.4 L 389.7 51.6 L 389.7 50.2" stroke-width="2.00"/>
<path d="M 389.7 50.2 L 390.4 48.5" stroke-width="1.80"/>
<path d="M 390.4 48.5 L 391.8 46.4" stroke-width="1.60"/>
<path d="M 391.8 46.4 L 393.8 44.2" stroke-width="1.40"/>
<path d="M 393.8 44.2 L 396.5 42.0 L 399.7 40.0" stroke-width="1.20"/>
<path d="M 399.7 40.0 L 403.1 38.2 L 406.5 36.6 L 409.8 35.2 L 412.8 34.0 L 415.4 32.9 L 417.5 31.9" stroke-width="1.00"/>
<path d="M 417.5 31.9 L 418.9 30.9" stroke-width="1.20"/>
<path d="M 418.9 30.9 L 419.7 30.0" stroke-width="1.40"/>
<path d="M 419.7 30.0 L 419.8 29.0 L 419.5 28.2 L 419.2 27.7" stroke-width="1.60"/>
<circle cx="415.0" cy="18.2" r="0.63" fill="currentColor" stroke="none"/>
<path d="M 415.0 18.2 L 415.0 17.9" stroke-width="1.60"/>
<path d="M 415.0 17.9 L 415.1 17.6" stroke-width="2.20"/>
<path d="M 415.1 17.6 L 415.2 17.2 L 415.3 16.8 L 415.4 16.4 L 415.5 16.2 L 415.5 16.0 L 415.6 15.9 L 415.5 15.9 L 415.4 16.0" stroke-width="2.60"/>
<path d="M 415.4 16.0 L 415.3 16.1" stroke-width="2.40"/>
<path d="M 415.3 16.1 L 415.2 16.1" stroke-width="2.00"/>
<circle cx="445.0" cy="27.8" r="0.63" fill="currentColor" stroke="none"/>
<path d="M 445.0 27.8 L 445.2 27.4" stroke-width="1.60"/>
<path d="M 445.2 27.4 L 445.4 26.9" stroke-width="2.20"/>
<path d="M 445.4 26.9 L 445.4 26.3 L 445.3 25.7 L 444.8 25.2 L 444.0 24.8 L 442.8 24.6" stroke-width="2.60"/>
<path d="M 442.8 24.6 L 441.3 24.7" stroke-width="2.20"/>
<path d="M 441.3 24.7 L 439.6 25.2" stroke-width="2.00"/>
<path d="M 439.6 25.2 L 437.7 26.1" stroke-width="1.80"/>
<path d="M 437.7 26.1 L 435.8 27.3 L 434.1 28.8" stroke-width="1.60"/>
<path d="M 434.1 28.8 L 432.8 30.5 L 432.0 32.1" stroke-width="1.40"/>
<path d="M 432.0 32.1 L 431.8 33.3" stroke-width="1.60"/>
<path d="M 431.8 33.3 L 432.3 34.2 L 433.4 34.5 L 435.1 34.2 L 437.1 33.4" stroke-width="1.80"/>
<path d="M 437.1 33.4 L 439.5 32.2" stroke-width="1.60"/>
<path d="M 439.5 32.2 L 442.0 30.6" stroke-width="1.40"/>
<path d="M 442.0 30.6 L 444.4 28.9 L 446.6 27.2 L 448.2 25.8" stroke-width="1.20"/>
<path d="M 448.2 25.8 L 449.4 24.6 L 450.1 23.9" stroke-width="1.40"/>
<path d="M 450.1 23.9 L 450.3 23.5" stroke-width="1.80"/>
<path d="M 450.3 23.5 L 450.2 23.7" stroke-width="2.20"/>
<path d="M 450.2 23.7 L 449.6 24.2 L 448.6 25.4" stroke-width="2.40"/>
<path d="M 448.6 25.4 L 447.3 26.9" stroke-width="2.00"/>
<path d="M 447.3 26.9 L 446.1 28.7" stroke-width="1.80"/>
<path d="M 446.1 28.7 L 445.0 30.5 L 444.4 32.0" stroke-width="1.60"/>
<path d="M 444.4 32.0 L 444.2 33.0" stroke-width="1.80"/>
<path d="M 444.2 33.0 L 444.6 33.6" stroke-width="2.00"/>
<path d="M 444.6 33.6 L 445.4 33.6 L 446.9 33.1" stroke-width="2.20"/>
<path d="M 446.9 33.1 L 448.8 32.0" stroke-width="1.80"/>
<path d="M 448.8 32.0 L 451.1 30.6" stroke-width="1.60"/>
<path d="M 451.1 30.6 L 453.6 29.0" stroke-width="1.40"/>
<path d="M 453.6 29.0 L 456.1 27.3 L 458.6 25.9 L 461.0 24.7 L 463.0 23.8 L 464.8 23.3" stroke-width="1.20"/>
<path d="M 464.8 23.3 L 466.2 23.2" stroke-width="1.40"/>
<path d="M 466.2 23.2 L 467.2 23.5" stroke-width="1.60"/>
<path d="M 467.2 23.5 L 467.8 24.1" stroke-width="1.80"/>
<path d="M 467.8 24.1 L 468.1 25.1 L 467.9 26.3 L 467.5 27.6 L 466.7 28.9" stroke-width="2.00"/>
<path d="M 466.7 28.9 L 465.7 30.0 L 464.6 30.9 L 463.3 31.5" stroke-width="1.80"/>
<path d="M 463.3 31.5 L 462.1 31.6 L 461.0 31.4 L 460.2 31.1" stroke-width="2.00"/>
<path d="M 460.2 31.1 L 459.7 30.8" stroke-width="1.80"/>
<circle cx="489.1" cy="27.4" r="0.63" fill="currentColor" stroke="none"/>
<path d="M 489.1 27.4 L 489.5 27.2" stroke-width="1.60"/>
<path d="M 489.5 27.2 L 490.2 26.8" stroke-width="2.00"/>
<path d="M 490.2 26.8 L 491.3 26.3 L 492.6 25.6" stroke-width="2.20"/>
<path d="M 492.6 25.6 L 494.0 24.8" stroke-width="2.00"/>
<path d="M 494.0 24.8 L 495.5 23.9 L 496.8 23.1 L 497.9 22.3 L 498.8 21.7" stroke-width="1.80"/>
<path d="M 498.8 21.7 L 499.5 21.3" stroke-width="2.00"/>
<path d="M 499.5 21.3 L 499.8 21.1" stroke-width="2.40"/>
<path d="M 499.8 21.1 L 500.0 21.0 L 500.0 21.0 L 500.0 21.0 L 499.9 21.1 L 499.8 21.3 L 499.6 21.5 L 499.4 21.8 L 499.0 22.2 L 498.5 22.8 L 497.8 23.6 L 496.9 24.6" stroke-width="2.60"/>
<path d="M 496.9 24.6 L 495.9 25.8" stroke-width="2.20"/>
<path d="M 495.9 25.8 L 494.8 27.1" stroke-width="2.00"/>
<path d="M 494.8 27.1 L 493.8 28.5 L 493.0 29.9 L 492.4 31.2 L 492.1 32.3" stroke-width="1.80"/>
<path d="M 492.1 32.3 L 492.0 33.1" stroke-width="2.00"/>
<path d="M 492.0 33.1 L 492.3 33.6" stroke-width="2.20"/>
<path d="M 492.3 33.6 L 492.8 33.9" stroke-width="2.40"/>
<path d="M 492.8 33.9 L 493.8 33.7" stroke-width="2.60"/>
<path d="M 493.8 33.7 L 495.1 33.1" stroke-width="2.40"/>
<path d="M 495.1 33.1 L 496.7 32.2" stroke-width="2.00"/>
<path d="M 496.7 32.2 L 498.6 30.9" stroke-width="1.80"/>
<path d="M 498.6 30.9 L 500.7 29.3" stroke-width="1.60"/>
<path d="M 500.7 29.3 L 502.9 27.7 L 505.1 25.8" stroke-width="1.40"/>
<path d="M 505.1 25.8 L 507.3 23.9 L 509.5 22.0 L 511.6 20.0 L 513.7 18.1 L 515.6 16.3 L 517.4 14.8 L 518.8 13.5" stroke-width="1.20"/>
<path d="M 518.8 13.5 L 519.9 12.6" stroke-width="1.40"/>
<path d="M 519.9 12.6 L 520.5 12.1" stroke-width="1.60"/>
<path d="M 520.5 12.1 L 520.8 11.8" stroke-width="2.00"/>
<path d="M 520.8 11.8 L 520.7 12.0" stroke-width="2.40"/>
<path d="M 520.7 12.0 L 520.3 12.5 L 519.5 13.5" stroke-width="2.60"/>
<path d="M 519.5 13.5 L 518.3 14.9" stroke-width="2.20"/>
<path d="M 518.3 14.9 L 516.8 16.8" stroke-width="1.80"/>
<path d="M 516.8 16.8 L 515.0 19.0" stroke-width="1.60"/>
<path d="M 515.0 19.0 L 513.1 21.3" stroke-width="1.40"/>
<path d="M 513.1 21.3 L 511.1 23.7 L 509.3 26.0 L 507.7 28.1 L 506.5 29.9" stroke-width="1.20"/>
<path d="M 506.5 29.9 L 505.6 31.2" stroke-width="1.40"/>
<path d="M 505.6 31.2 L 505.2 32.0" stroke-width="1.60"/>
<path d="M 505.2 32.0 L 505.0 32.3" stroke-width="1.80"/>
<path d="M 505.0 32.3 L 505.2 32.2" stroke-width="2.20"/>
<path d="M 505.2 32.2 L 505.6 31.6 L 506.1 30.6" stroke-width="2.60"/>
<path d="M 506.1 30.6 L 506.8 29.4" stroke-width="2.40"/>
<path d="M 506.8 29.4 L 507.5 28.0" stroke-width="2.20"/>
<path d="M 507.5 28.0 L 508.1 26.7 L 508.6 25.5 L 508.9 24.5" stroke-width="2.00"/>
<path d="M 508.9 24.5 L 509.1 23.7" stroke-width="2.20"/>
<path d="M 509.1 23.7 L 509.2 23.2" stroke-width="2.40"/>
<path d="M 509.2 23.2 L 509.2 22.9 L 509.2 22.9 L 509.3 22.9 L 509.5 23.2 L 510.2 23.5 L 511.3 23.9" stroke-width="2.60"/>
<path d="M 511.3 23.9 L 512.8 24.3" stroke-width="2.40"/>
<path d="M 512.8 24.3 L 514.7 24.5" stroke-width="2.20"/>
<path d="M 514.7 24.5 L 516.8 24.6" stroke-width="1.80"/>
<path d="M 516.8 24.6 L 518.9 24.4 L 520.9 24.2 L 522.6 23.8 L 523.9 23.2" stroke-width="1.60"/>
<path d="M 523.9 23.2 L 524.8 22.6 L 525.3 22.1 L 525.5 21.8" stroke-width="1.80"/>
<circle cx="514.5" cy="15.5" r="0.63" fill="currentColor" stroke="none"/>
<path d="M 514.5 15.5 L 514.3 15.4" stroke-width="1.60"/>
<path d="M 514.3 15.4 L 514.0 15.3" stroke-width="2.20"/>
<path d="M 514.0 15.3 L 513.8 15.2" stroke-width="2.40"/>
<path d="M 513.8 15.2 L 513.7 15.1" stroke-width="2.00"/>
<circle cx="536.4" cy="30.2" r="0.63" fill="currentColor" stroke="none"/>
<path d="M 536.4 30.2 L 537.3 29.5" stroke-width="1.40"/>
<path d="M 537.3 29.5 L 538.8 28.4" stroke-width="1.80"/>
<path d="M 538.8 28.4 L 540.6 26.9 L 542.5 25.3" stroke-width="1.60"/>
<path d="M 542.5 25.3 L 544.3 23.6 L 545.8 22.1 L 547.0 20.7" stroke-width="1.40"/>
<path d="M 547.0 20.7 L 547.7 19.6" stroke-width="1.60"/>
<path d="M 547.7 19.6 L 548.0 19.0" stroke-width="1.80"/>
<path d="M 548.0 19.0 L 547.8 18.9" stroke-width="2.20"/>
<path d="M 547.8 18.9 L 547.4 19.2 L 546.7 20.0" stroke-width="2.40"/>
<path d="M 546.7 20.0 L 545.8 21.3" stroke-width="2.20"/>
<path d="M 545.8 21.3 L 544.8 23.0" stroke-width="2.00"/>
<path d="M 544.8 23.0 L 544.1 24.8" stroke-width="1.80"/>
<path d="M 544.1 24.8 L 543.7 26.6 L 543.9 28.2" stroke-width="1.60"/>
<path d="M 543.9 28.2 L 544.5 29.5 L 545.6 30.4 L 547.0 30.8 L 548.6 30.7 L 550.4 30.2" stroke-width="1.80"/>
<path d="M 550.4 30.2 L 552.0 29.4 L 553.5 28.2 L 554.6 26.9 L 555.2 25.5" stroke-width="1.60"/>
<path d="M 555.2 25.5 L 555.4 24.3 L 555.0 23.2" stroke-width="1.80"/>
<path d="M 555.0 23.2 L 554.2 22.6 L 553.0 22.3 L 551.6 22.4 L 550.2 22.9" stroke-width="2.00"/>
<path d="M 550.2 22.9 L 548.9 23.7 L 547.8 24.8 L 547.0 26.0 L 546.5 27.4 L 546.3 29.1 L 546.3 31.0" stroke-width="1.80"/>
<path d="M 546.3 31.0 L 546.4 33.1 L 546.5 35.5" stroke-width="1.60"/>
<path d="M 546.5 35.5 L 546.5 38.0 L 546.2 40.5 L 545.7 43.0" stroke-width="1.40"/>
<path d="M 545.7 43.0 L 544.9 45.3 L 543.9 47.4" stroke-width="1.20"/>
<path d="M 543.9 47.4 L 542.6 49.2 L 541.3 50.6 L 539.9 51.5" stroke-width="1.40"/>
<path d="M 539.9 51.5 L 538.5 51.9 L 537.3 51.9" stroke-width="1.60"/>
<path d="M 537.3 51.9 L 536.3 51.3 L 535.7 50.3" stroke-width="1.80"/>
<path d="M 535.7 50.3 L 535.5 48.9" stroke-width="2.00"/>
<path d="M 535.5 48.9 L 536.0 47.1" stroke-width="1.80"/>
<path d="M 536.0 47.1 L 537.0 45.0" stroke-width="1.60"/>
<path d="M 537.0 45.0 L 538.5 42.7 L 540.5 40.4" stroke-width="1.40"/>
<path d="M 540.5 40.4 L 542.9 38.0 L 545.7 35.8" stroke-width="1.20"/>
<path d="M 545.7 35.8 L 548.6 33.6 L 551.8 31.6 L 554.9 29.8 L 558.1 28.1 L 561.1 26.5 L 563.9 25.1 L 566.4 23.8 L 568.5 22.7" stroke-width="1.00"/>
<path d="M 568.5 22.7 L 570.1 21.9" stroke-width="1.20"/>
<path d="M 570.1 21.9 L 571.1 21.4" stroke-width="1.40"/>
<path d="M 571.1 21.4 L 571.6 21.1" stroke-width="1.60"/>
<path d="M 571.6 21.1 L 571.7 21.0" stroke-width="2.00"/>
<path d="M 571.7 21.0 L 571.2 21.1" stroke-width="2.40"/>
<path d="M 571.2 21.1 L 570.4 21.5" stroke-width="2.60"/>
<path d="M 570.4 21.5 L 569.1 22.3" stroke-width="2.40"/>
<path d="M 569.1 22.3 L 567.4 23.3" stroke-width="2.00"/>
<path d="M 567.4 23.3 L 565.7 24.7" stroke-width="1.80"/>
<path d="M 565.7 24.7 L 564.1 26.1 L 562.8 27.4 L 562.0 28.5" stroke-width="1.60"/>
<path d="M 562.0 28.5 L 561.7 29.4" stroke-width="1.80"/>
<path d="M 561.7 29.4 L 562.0 30.0" stroke-width="2.00"/>
<path d="M 562.0 30.0 L 562.8 30.2 L 564.1 30.0" stroke-width="2.20"/>
<path d="M 564.1 30.0 L 565.8 29.3" stroke-width="2.00"/>
<path d="M 565.8 29.3 L 567.6 28.3" stroke-width="1.80"/>
<path d="M 567.6 28.3 L 569.5 27.1 L 571.2 25.7" stroke-width="1.60"/>
<path d="M 571.2 25.7 L 572.6 24.2" stroke-width="1.40"/>
<path d="M 572.6 24.2 L 573.7 22.9 L 574.3 21.8" stroke-width="1.60"/>
<path d="M 574.3 21.8 L 574.5 20.9" stroke-width="1.80"/>
<path d="M 574.5 20.9 L 574.5 20.4" stroke-width="2.00"/>
<path d="M 574.5 20.4 L 574.2 20.2" stroke-width="2.40"/>
<path d="M 574.2 20.2 L 573.8 20.4 L 573.3 20.9 L 572.8 21.7 L 572.4 22.8" stroke-width="2.60"/>
<path d="M 572.4 22.8 L 572.3 23.9 L 572.6 24.9 L 573.3 25.7" stroke-width="2.40"/>
<path d="M 573.3 25.7 L 574.5 26.2" stroke-width="2.20"/>
<path d="M 574.5 26.2 L 576.1 26.4" stroke-width="2.00"/>
<path d="M 576.1 26.4 L 578.1 26.2" stroke-width="1.80"/>
<path d="M 578.1 26.2 L 580.4 25.7 L 582.7 24.8" stroke-width="1.60"/>
<path d="M 582.7 24.8 L 584.9 23.8 L 586.8 22.6 L 588.3 21.4 L 589.4 20.4" stroke-width="1.40"/>
<path d="M 589.4 20.4 L 589.9 19.5" stroke-width="1.60"/>
<path d="M 589.9 19.5 L 589.9 18.9" stroke-width="1.80"/>
<path d="M 589.9 18.9 L 589.5 18.5" stroke-width="2.20"/>
<path d="M 589.5 18.5 L 588.7 18.4 L 587.5 18.6" stroke-width="2.40"/>
<path d="M 587.5 18.6 L 586.0 19.1" stroke-width="2.20"/>
<path d="M 586.0 19.1 L 584.5 20.1" stroke-width="2.00"/>
<path d="M 584.5 20.1 L 583.0 21.3" stroke-width="1.80"/>
<path d="M 583.0 21.3 L 581.7 22.7 L 580.8 24.0" stroke-width="1.60"/>
<path d="M 580.8 24.0 L 580.3 25.3 L 580.2 26.5" stroke-width="1.80"/>
<path d="M 580.2 26.5 L 580.5 27.4 L 581.3 28.1 L 582.5 28.5 L 584.2 28.6" stroke-width="2.00"/>
<path d="M 584.2 28.6 L 586.3 28.2" stroke-width="1.80"/>
<path d="M 586.3 28.2 L 588.7 27.6" stroke-width="1.60"/>
<path d="M 588.7 27.6 L 591.3 26.6 L 594.0 25.4" stroke-width="1.40"/>
<path d="M 594.0 25.4 L 596.7 24.2 L 599.4 22.9 L 601.8 21.8 L 603.9 20.8 L 605.7 20.1" stroke-width="1.20"/>
<path d="M 605.7 20.1 L 607.2 19.6" stroke-width="1.40"/>
<path d="M 607.2 19.6 L 608.4 19.5" stroke-width="1.60"/>
<path d="M 608.4 19.5 L 609.2 19.7" stroke-width="1.80"/>
<path d="M 609.2 19.7 L 609.8 20.3" stroke-width="2.00"/>
<path d="M 609.8 20.3 L 610.2 21.1 L 610.3 22.2 L 610.2 23.5" stroke-width="2.20"/>
<path d="M 610.2 23.5 L 609.9 24.8 L 609.5 26.0 L 608.8 27.0 L 608.0 27.9 L 607.0 28.4 L 605.7 28.7 L 604.3 28.7 L 602.7 28.4" stroke-width="2.00"/>
<path d="M 602.7 28.4 L 601.1 27.8" stroke-width="1.80"/>
<path d="M 601.1 27.8 L 599.8 27.2" stroke-width="1.60"/>
<path d="M 599.8 27.2 L 599.0 26.7" stroke-width="1.40"/>
</svg>
