<svg xmlns="http://www.w3.org/2000/svg" viewBox="0 0 434.6 44.8" fill="none" stroke="currentColor" stroke-linecap="round" stroke-linejoin="round" role="img">
<circle cx="17.9" cy="17.6" r="0.63" fill="currentColor" stroke="none"/>
<path d="M 17.9 17.6 L 17.6 17.3" stroke-width="1.60"/>
<path d="M 17.6 17.3 L 17.2 16.7" stroke-width="2.00"/>
<path d="M 17.2 16.7 L 16.6 16.1" stroke-width="2.20"/>
<path d="M 16.6 16.1 L 15.9 15.7" stroke-width="2.40"/>
<path d="M 15.9 15.7 L 15.0 15.5 L 13.9 15.6" stroke-width="2.20"/>
<path d="M 13.9 15.6 L 12.5 16.1" stroke-width="2.00"/>
<path d="M 12.5 16.1 L 11.0 17.1" stroke-width="1.80"/>
<path d="M 11.0 17.1 L 9.6 18.5" stroke-width="1.60"/>
<path d="M 9.6 18.5 L 8.2 20.3 L 7.0 22.3 L 6.3 24.3 L 6.0 26.0 L 6.3 27.4" stroke-width="1.40"/>
<path d="M 6.3 27.4 L 7.0 28.2 L 8.2 28.4 L 9.8 28.0 L 11.6 27.0" stroke-width="1.60"/>
<path d="M 11.6 27.0 L 13.5 25.5" stroke-width="1.40"/>
<path d="M 13.5 25.5 L 15.3 23.6 L 16.9 21.5 L 18.2 19.4 L 19.1 17.6 L 19.8 16.3" stroke-width="1.20"/>
<path d="M 19.8 16.3 L 20.2 15.3" stroke-width="1.40"/>
<path d="M 20.2 15.3 L 20.3 14.9" stroke-width="1.80"/>
<path d="M 20.3 14.9 L 20.2 15.0" stroke-width="2.20"/>
<path d="M 20.2 15.0 L 20.0 15.7" stroke-width="2.40"/>
<path d="M 20.0 15.7 L 19.7 17.0" stroke-width="2.20"/>
<path d="M 19.7 17.0 L 19.2 18.8" stroke-width="2.00"/>
<path d="M 19.2 18.8 L 18.8 20.9" stroke-width="1.60"/>
<path d="M 18.8 20.9 L 18.5 23.1 L 18.5 25.2 L 18.9 26.9 L 19.4 28.1" stroke-width="1.40"/>
<path d="M 19.4 28.1 L 19.9 28.8" stroke-width="1.20"/>
<circle cx="45.8" cy="6.7" r="0.63" fill="currentColor" stroke="none"/>
<path d="M 45.8 6.7 L 45.6 7.1" stroke-width="1.60"/>
<path d="M 45.6 7.1 L 45.3 7.8" stroke-width="2.00"/>
<path d="M 45.3 7.8 L 45.0 9.0" stroke-width="2.20"/>
<path d="M 45.0 9.0 L 44.7 10.5" stroke-width="2.00"/>
<path d="M 44.7 10.5 L 44.3 12.5" stroke-width="1.80"/>
<path d="M 44.3 12.5 L 43.8 14.7" stroke-width="1.60"/>
<path d="M 43.8 14.7 L 43.3 17.1" stroke-width="1.40"/>
<path d="M 43.3 17.1 L 42.7 19.6 L 42.3 21.9 L 42.0 24.1 L 41.8 25.8" stroke-width="1.20"/>
<path d="M 41.8 25.8 L 41.8 27.1" stroke-width="1.40"/>
<path d="M 41.8 27.1 L 41.9 27.9" stroke-width="1.60"/>
<path d="M 41.9 27.9 L 42.2 28.3" stroke-width="1.80"/>
<path d="M 42.2 28.3 L 42.4 28.3 L 42.5 28.2" stroke-width="2.00"/>
<circle cx="49.8" cy="17.1" r="0.63" fill="currentColor" stroke="none"/>
<path d="M 49.8 17.1 L 49.9 17.1" stroke-width="1.60"/>
<path d="M 49.9 17.1 L 49.9 17.3" stroke-width="2.40"/>
<path d="M 49.9 17.3 L 49.9 17.9 L 49.8 18.8" stroke-width="2.60"/>
<path d="M 49.8 18.8 L 49.6 20.1" stroke-width="2.40"/>
<path d="M 49.6 20.1 L 49.3 21.7" stroke-width="2.00"/>
<path d="M 49.3 21.7 L 49.0 23.3 L 48.6 24.9 L 48.4 26.2 L 48.3 27.0" stroke-width="1.80"/>
<path d="M 48.3 27.0 L 48.4 27.5" stroke-width="2.00"/>
<path d="M 48.4 27.5 L 48.4 27.7" stroke-width="1.80"/>
<circle cx="50.8" cy="10.9" r="0.63" fill="currentColor" stroke="none"/>
<path d="M 50.8 10.9 L 50.8 10.6" stroke-width="1.60"/>
<path d="M 50.8 10.6 L 50.8 10.2" stroke-width="2.20"/>
<path d="M 50.8 10.2 L 50.8 9.9" stroke-width="2.40"/>
<path d="M 50.8 9.9 L 50.9 9.8" stroke-width="2.00"/>
<circle cx="55.7" cy="17.5" r="0.63" fill="currentColor" stroke="none"/>
<path d="M 55.7 17.5 L 55.6 17.8" stroke-width="1.60"/>
<path d="M 55.6 17.8 L 55.5 18.6" stroke-width="2.00"/>
<path d="M 55.5 18.6 L 55.3 19.7" stroke-width="2.20"/>
<path d="M 55.3 19.7 L 55.1 21.2" stroke-width="2.00"/>
<path d="M 55.1 21.2 L 54.8 22.8 L 54.5 24.4" stroke-width="1.80"/>
<path d="M 54.5 24.4 L 54.2 25.8" stroke-width="1.60"/>
<path d="M 54.2 25.8 L 54.0 26.9 L 53.9 27.6" stroke-width="1.80"/>
<path d="M 53.9 27.6 L 53.9 27.9" stroke-width="2.20"/>
<path d="M 53.9 27.9 L 53.9 27.8" stroke-width="2.40"/>
<path d="M 53.9 27.8 L 54.1 27.2 L 54.4 26.0" stroke-width="2.60"/>
<path d="M 54.4 26.0 L 54.9 24.5" stroke-width="2.20"/>
<path d="M 54.9 24.5 L 55.5 22.7" stroke-width="1.80"/>
<path d="M 55.5 22.7 L 56.4 20.9 L 57.4 19.2" stroke-width="1.60"/>
<path d="M 57.4 19.2 L 58.6 17.8 L 59.9 16.6 L 61.2 15.9" stroke-width="1.40"/>
<path d="M 61.2 15.9 L 62.6 15.6 L 63.8 15.8 L 65.0 16.4" stroke-width="1.60"/>
<path d="M 65.0 16.4 L 65.9 17.5" stroke-width="1.80"/>
<path d="M 65.9 17.5 L 66.6 18.9 L 67.0 20.5 L 67.2 22.1 L 67.1 23.7 L 66.9 25.2 L 66.7 26.3" stroke-width="1.60"/>
<path d="M 66.7 26.3 L 66.6 27.0" stroke-width="1.80"/>
<path d="M 66.6 27.0 L 66.5 27.3" stroke-width="1.60"/>
<circle cx="71.7" cy="23.2" r="0.63" fill="currentColor" stroke="none"/>
<path d="M 71.7 23.2 L 72.1 22.9" stroke-width="1.60"/>
<path d="M 72.1 22.9 L 73.0 22.5 L 74.1 21.8 L 75.4 21.0" stroke-width="2.00"/>
<path d="M 75.4 21.0 L 76.7 20.0 L 77.7 19.0 L 78.5 18.0 L 78.9 17.0" stroke-width="1.80"/>
<path d="M 78.9 17.0 L 78.9 16.2" stroke-width="2.00"/>
<path d="M 78.9 16.2 L 78.5 15.6 L 77.8 15.2 L 76.7 15.2" stroke-width="2.20"/>
<path d="M 76.7 15.2 L 75.3 15.5" stroke-width="2.00"/>
<path d="M 75.3 15.5 L 73.8 16.3" stroke-width="1.80"/>
<path d="M 73.8 16.3 L 72.3 17.4 L 71.0 18.8 L 70.1 20.3" stroke-width="1.60"/>
<path d="M 70.1 20.3 L 69.7 21.9" stroke-width="1.40"/>
<path d="M 69.7 21.9 L 70.0 23.5 L 71.0 24.8" stroke-width="1.60"/>
<path d="M 71.0 24.8 L 72.8 25.9 L 75.3 26.6" stroke-width="1.40"/>
<path d="M 75.3 26.6 L 77.6 26.9" stroke-width="1.20"/>
<path d="M 77.6 26.9 L 79.2 27.0" stroke-width="1.00"/>
<circle cx="104.5" cy="19.4" r="0.63" fill="currentColor" stroke="none"/>
<path d="M 104.5 19.4 L 104.3 19.0" stroke-width="1.60"/>
<path d="M 104.3 19.0 L 103.8 18.6" stroke-width="2.00"/>
<path d="M 103.8 18.6 L 103.0 18.2 L 102.0 18.0 L 100.8 18.2" stroke-width="2.20"/>
<path d="M 100.8 18.2 L 99.4 18.8" stroke-width="2.00"/>
<path d="M 99.4 18.8 L 98.0 19.7" stroke-width="1.80"/>
<path d="M 98.0 19.7 L 96.6 20.9 L 95.6 22.4 L 95.0 23.9 L 94.9 25.3 L 95.5 26.4" stroke-width="1.60"/>
<path d="M 95.5 26.4 L 96.6 27.1" stroke-width="1.80"/>
<path d="M 96.6 27.1 L 98.2 27.3 L 100.2 27.0" stroke-width="1.60"/>
<path d="M 100.2 27.0 L 102.2 26.3 L 104.2 25.2 L 105.8 23.9 L 107.0 22.3 L 107.7 20.8 L 107.9 19.4" stroke-width="1.40"/>
<path d="M 107.9 19.4 L 107.5 18.3 L 106.8 17.5" stroke-width="1.60"/>
<path d="M 106.8 17.5 L 105.9 17.1" stroke-width="1.80"/>
<path d="M 105.9 17.1 L 104.9 17.2 L 104.1 17.7 L 103.5 18.3" stroke-width="2.00"/>
<path d="M 103.5 18.3 L 103.3 18.7" stroke-width="1.80"/>
<circle cx="121.6" cy="10.6" r="0.63" fill="currentColor" stroke="none"/>
<path d="M 121.6 10.6 L 121.5 9.9" stroke-width="1.60"/>
<path d="M 121.5 9.9 L 121.4 8.9 L 121.1 7.7 L 120.5 6.8 L 119.7 6.2 L 118.6 6.0 L 117.4 6.1 L 116.2 6.8" stroke-width="2.00"/>
<path d="M 116.2 6.8 L 115.1 7.9" stroke-width="1.80"/>
<path d="M 115.1 7.9 L 114.1 9.4 L 113.2 11.4" stroke-width="1.60"/>
<path d="M 113.2 11.4 L 112.6 13.8" stroke-width="1.40"/>
<path d="M 112.6 13.8 L 112.1 16.4 L 111.9 19.1 L 111.7 21.9" stroke-width="1.20"/>
<path d="M 111.7 21.9 L 111.5 24.6 L 111.5 27.2" stroke-width="1.00"/>
<path d="M 111.5 27.2 L 111.4 29.3 L 111.4 31.0" stroke-width="1.20"/>
<path d="M 111.4 31.0 L 111.4 32.0" stroke-width="1.40"/>
<path d="M 111.4 32.0 L 111.4 32.2" stroke-width="1.60"/>
<path d="M 111.4 32.2 L 111.4 31.6 L 111.4 30.8" stroke-width="2.00"/>
<path d="M 111.4 30.8 L 111.4 30.1" stroke-width="1.80"/>
<circle cx="109.4" cy="20.2" r="0.63" fill="currentColor" stroke="none"/>
<path d="M 109.4 20.2 L 109.7 20.2" stroke-width="1.60"/>
<path d="M 109.7 20.2 L 110.3 20.1" stroke-width="2.20"/>
<path d="M 110.3 20.1 L 111.4 20.1" stroke-width="2.40"/>
<path d="M 111.4 20.1 L 112.9 20.1" stroke-width="2.20"/>
<path d="M 112.9 20.1 L 114.8 20.2" stroke-width="1.80"/>
<path d="M 114.8 20.2 L 116.8 20.4" stroke-width="1.60"/>
<path d="M 116.8 20.4 L 118.4 20.5" stroke-width="1.40"/>
<path d="M 118.4 20.5 L 119.5 20.6" stroke-width="1.20"/>
<circle cx="134.7" cy="17.8" r="0.63" fill="currentColor" stroke="none"/>
<path d="M 134.7 17.8 L 134.7 18.1" stroke-width="1.60"/>
<path d="M 134.7 18.1 L 134.7 18.7" stroke-width="2.20"/>
<path d="M 134.7 18.7 L 134.7 19.6" stroke-width="2.40"/>
<path d="M 134.7 19.6 L 134.6 20.7 L 134.4 22.0" stroke-width="2.20"/>
<path d="M 134.4 22.0 L 134.1 23.5" stroke-width="2.00"/>
<path d="M 134.1 23.5 L 133.8 24.9 L 133.6 26.3 L 133.5 27.4" stroke-width="1.80"/>
<path d="M 133.5 27.4 L 133.5 28.0" stroke-width="2.00"/>
<path d="M 133.5 28.0 L 133.5 28.4" stroke-width="2.20"/>
<path d="M 133.5 28.4 L 133.5 28.4" stroke-width="2.00"/>
<circle cx="135.1" cy="9.6" r="0.63" fill="currentColor" stroke="none"/>
<path d="M 135.1 9.6 L 135.1 9.6" stroke-width="1.60"/>
<path d="M 135.1 9.6 L 135.3 9.7 L 135.4 9.7" stroke-width="2.40"/>
<path d="M 135.4 9.7 L 135.5 9.8" stroke-width="2.00"/>
<circle cx="139.1" cy="16.4" r="0.63" fill="currentColor" stroke="none"/>
<path d="M 139.1 16.4 L 139.1 16.8" stroke-width="1.60"/>
<path d="M 139.1 16.8 L 139.1 17.6" stroke-width="2.00"/>
<path d="M 139.1 17.6 L 139.1 18.8" stroke-width="2.20"/>
<path d="M 139.1 18.8 L 139.1 20.3" stroke-width="2.00"/>
<path d="M 139.1 20.3 L 138.9 21.9 L 138.7 23.5 L 138.5 24.8 L 138.2 25.9" stroke-width="1.80"/>
<path d="M 138.2 25.9 L 138.1 26.5" stroke-width="2.00"/>
<path d="M 138.1 26.5 L 138.0 26.7" stroke-width="2.20"/>
<path d="M 138.0 26.7 L 138.1 26.4 L 138.4 25.7" stroke-width="2.60"/>
<path d="M 138.4 25.7 L 139.0 24.4" stroke-width="2.40"/>
<path d="M 139.0 24.4 L 139.7 22.9" stroke-width="2.00"/>
<path d="M 139.7 22.9 L 140.7 21.2" stroke-width="1.80"/>
<path d="M 140.7 21.2 L 141.7 19.5 L 142.9 18.0" stroke-width="1.60"/>
<path d="M 142.9 18.0 L 144.0 16.8" stroke-width="1.40"/>
<path d="M 144.0 16.8 L 145.2 16.0 L 146.2 15.7" stroke-width="1.60"/>
<path d="M 146.2 15.7 L 147.2 15.8" stroke-width="1.80"/>
<path d="M 147.2 15.8 L 148.0 16.3 L 148.6 17.3 L 149.0 18.6" stroke-width="2.00"/>
<path d="M 149.0 18.6 L 149.2 20.2" stroke-width="1.80"/>
<path d="M 149.2 20.2 L 149.2 22.0 L 149.1 23.7 L 149.0 25.1 L 149.1 26.2" stroke-width="1.60"/>
<path d="M 149.1 26.2 L 149.2 26.8" stroke-width="1.80"/>
<path d="M 149.2 26.8 L 149.4 27.1 L 149.6 27.2" stroke-width="2.00"/>
<circle cx="157.2" cy="8.2" r="0.63" fill="currentColor" stroke="none"/>
<path d="M 157.2 8.2 L 157.3 8.2" stroke-width="1.60"/>
<path d="M 157.3 8.2 L 157.5 8.4" stroke-width="2.40"/>
<path d="M 157.5 8.4 L 157.6 8.9 L 157.5 10.0" stroke-width="2.60"/>
<path d="M 157.5 10.0 L 157.2 11.5" stroke-width="2.20"/>
<path d="M 157.2 11.5 L 156.7 13.4" stroke-width="2.00"/>
<path d="M 156.7 13.4 L 156.2 15.5" stroke-width="1.60"/>
<path d="M 156.2 15.5 L 155.5 17.8 L 155.0 20.0 L 154.5 22.0 L 154.2 23.6 L 154.0 25.0" stroke-width="1.40"/>
<path d="M 154.0 25.0 L 153.9 25.8" stroke-width="1.60"/>
<path d="M 153.9 25.8 L 153.9 26.2" stroke-width="1.80"/>
<path d="M 153.9 26.2 L 154.1 26.2" stroke-width="2.20"/>
<path d="M 154.1 26.2 L 154.5 25.7" stroke-width="2.60"/>
<path d="M 154.5 25.7 L 155.1 24.8" stroke-width="2.40"/>
<path d="M 155.1 24.8 L 156.0 23.6" stroke-width="2.20"/>
<path d="M 156.0 23.6 L 157.2 22.2" stroke-width="1.80"/>
<path d="M 157.2 22.2 L 158.6 20.7 L 160.0 19.3" stroke-width="1.60"/>
<path d="M 160.0 19.3 L 161.4 18.1 L 162.7 17.0" stroke-width="1.40"/>
<path d="M 162.7 17.0 L 163.9 16.2 L 164.8 15.7" stroke-width="1.60"/>
<path d="M 164.8 15.7 L 165.3 15.4" stroke-width="1.80"/>
<path d="M 165.3 15.4 L 165.5 15.2 L 165.5 15.2" stroke-width="2.00"/>
<circle cx="158.0" cy="20.8" r="0.63" fill="currentColor" stroke="none"/>
<path d="M 158.0 20.8 L 158.3 21.1" stroke-width="1.60"/>
<path d="M 158.3 21.1 L 158.8 21.6" stroke-width="2.00"/>
<path d="M 158.8 21.6 L 159.6 22.3 L 160.6 23.1" stroke-width="2.20"/>
<path d="M 160.6 23.1 L 161.7 23.9" stroke-width="2.00"/>
<path d="M 161.7 23.9 L 162.8 24.7 L 163.9 25.4 L 164.9 26.0 L 166.0 26.3" stroke-width="1.80"/>
<path d="M 166.0 26.3 L 167.2 26.5" stroke-width="2.00"/>
<path d="M 167.2 26.5 L 168.1 26.4" stroke-width="1.80"/>
<path d="M 168.1 26.4 L 168.7 26.3" stroke-width="1.60"/>
<circle cx="173.5" cy="24.3" r="0.63" fill="currentColor" stroke="none"/>
<path d="M 173.5 24.3 L 173.6 24.5" stroke-width="1.60"/>
<path d="M 173.6 24.5 L 173.8 24.9" stroke-width="2.20"/>
<path d="M 173.8 24.9 L 173.8 25.7 L 173.6 26.9" stroke-width="2.40"/>
<path d="M 173.6 26.9 L 173.1 28.3" stroke-width="2.20"/>
<path d="M 173.1 28.3 L 172.4 29.9" stroke-width="1.80"/>
<path d="M 172.4 29.9 L 171.4 31.6 L 170.5 33.2 L 169.8 34.5 L 169.4 35.5" stroke-width="1.60"/>
<path d="M 169.4 35.5 L 169.3 36.0 L 169.4 36.2" stroke-width="1.80"/>
<circle cx="191.7" cy="10.7" r="0.63" fill="currentColor" stroke="none"/>
<path d="M 191.7 10.7 L 191.7 10.9" stroke-width="1.60"/>
<path d="M 191.7 10.9 L 191.7 11.4" stroke-width="2.20"/>
<path d="M 191.7 11.4 L 191.8 12.2 L 191.8 13.4" stroke-width="2.40"/>
<path d="M 191.8 13.4 L 191.8 15.0" stroke-width="2.00"/>
<path d="M 191.8 15.0 L 191.6 16.8" stroke-width="1.80"/>
<path d="M 191.6 16.8 L 191.3 18.8" stroke-width="1.60"/>
<path d="M 191.3 18.8 L 190.9 20.9 L 190.5 22.9 L 190.3 24.7 L 190.2 26.2" stroke-width="1.40"/>
<path d="M 190.2 26.2 L 190.4 27.3" stroke-width="1.60"/>
<path d="M 190.4 27.3 L 190.6 27.9" stroke-width="1.80"/>
<path d="M 190.6 27.9 L 190.8 28.1" stroke-width="2.00"/>
<path d="M 190.8 28.1 L 191.0 28.0" stroke-width="2.20"/>
<path d="M 191.0 28.0 L 191.2 27.8" stroke-width="2.00"/>
<circle cx="185.8" cy="18.7" r="0.63" fill="currentColor" stroke="none"/>
<path d="M 185.8 18.7 L 186.0 18.7" stroke-width="1.60"/>
<path d="M 186.0 18.7 L 186.6 18.7" stroke-width="2.20"/>
<path d="M 186.6 18.7 L 187.7 18.6" stroke-width="2.40"/>
<path d="M 187.7 18.6 L 189.3 18.5" stroke-width="2.00"/>
<path d="M 189.3 18.5 L 191.4 18.3" stroke-width="1.80"/>
<path d="M 191.4 18.3 L 193.6 17.9" stroke-width="1.60"/>
<path d="M 193.6 17.9 L 195.8 17.5 L 197.8 16.9 L 199.5 16.2 L 201.0 15.3 L 202.0 14.6 L 202.5 14.1" stroke-width="1.40"/>
<circle cx="203.0" cy="9.0" r="0.63" fill="currentColor" stroke="none"/>
<path d="M 203.0 9.0 L 203.1 9.1" stroke-width="1.60"/>
<path d="M 203.1 9.1 L 203.3 9.6" stroke-width="2.20"/>
<path d="M 203.3 9.6 L 203.4 10.3" stroke-width="2.60"/>
<path d="M 203.4 10.3 L 203.5 11.3" stroke-width="2.40"/>
<path d="M 203.5 11.3 L 203.4 12.6" stroke-width="2.20"/>
<path d="M 203.4 12.6 L 203.3 14.2" stroke-width="2.00"/>
<path d="M 203.3 14.2 L 203.0 16.0" stroke-width="1.80"/>
<path d="M 203.0 16.0 L 202.7 17.9 L 202.4 19.8" stroke-width="1.60"/>
<path d="M 202.4 19.8 L 202.0 21.5" stroke-width="1.40"/>
<path d="M 202.0 21.5 L 201.8 23.0 L 201.6 24.1" stroke-width="1.60"/>
<path d="M 201.6 24.1 L 201.6 24.8" stroke-width="1.80"/>
<path d="M 201.6 24.8 L 201.5 25.1" stroke-width="2.20"/>
<path d="M 201.5 25.1 L 201.6 24.9" stroke-width="2.40"/>
<path d="M 201.6 24.9 L 201.7 24.4 L 202.0 23.4" stroke-width="2.60"/>
<path d="M 202.0 23.4 L 202.5 22.2" stroke-width="2.40"/>
<path d="M 202.5 22.2 L 203.2 20.7" stroke-width="2.00"/>
<path d="M 203.2 20.7 L 204.1 19.1" stroke-width="1.80"/>
<path d="M 204.1 19.1 L 205.2 17.7 L 206.5 16.3 L 207.9 15.3 L 209.2 14.5 L 210.5 14.2 L 211.6 14.3" stroke-width="1.60"/>
<path d="M 211.6 14.3 L 212.5 14.9 L 213.1 15.8 L 213.5 17.0 L 213.6 18.5 L 213.5 20.2" stroke-width="1.80"/>
<path d="M 213.5 20.2 L 213.3 21.9 L 213.1 23.4 L 212.9 24.6" stroke-width="1.60"/>
<path d="M 212.9 24.6 L 212.8 25.5" stroke-width="1.80"/>
<path d="M 212.8 25.5 L 212.8 26.0" stroke-width="2.00"/>
<path d="M 212.8 26.0 L 213.0 26.1" stroke-width="2.40"/>
<path d="M 213.0 26.1 L 213.4 25.7" stroke-width="2.60"/>
<path d="M 213.4 25.7 L 213.7 25.3" stroke-width="2.40"/>
<path d="M 213.7 25.3 L 213.9 24.8" stroke-width="2.00"/>
<circle cx="218.2" cy="16.5" r="0.63" fill="currentColor" stroke="none"/>
<path d="M 218.2 16.5 L 218.2 16.5" stroke-width="1.60"/>
<path d="M 218.2 16.5 L 218.3 16.6" stroke-width="2.40"/>
<path d="M 218.3 16.6 L 218.4 17.0 L 218.4 17.8 L 218.4 18.8" stroke-width="2.60"/>
<path d="M 218.4 18.8 L 218.2 20.1" stroke-width="2.40"/>
<path d="M 218.2 20.1 L 217.9 21.4" stroke-width="2.20"/>
<path d="M 217.9 21.4 L 217.6 22.7 L 217.4 23.8 L 217.3 24.5" stroke-width="2.00"/>
<path d="M 217.3 24.5 L 217.3 24.9" stroke-width="2.20"/>
<path d="M 217.3 24.9 L 217.3 25.0" stroke-width="2.00"/>
<circle cx="219.4" cy="9.9" r="0.63" fill="currentColor" stroke="none"/>
<path d="M 219.4 9.9 L 219.4 9.8" stroke-width="1.60"/>
<path d="M 219.4 9.8 L 219.6 9.8 L 219.7 9.8" stroke-width="2.40"/>
<path d="M 219.7 9.8 L 219.8 9.9" stroke-width="2.00"/>
<circle cx="224.4" cy="16.6" r="0.63" fill="currentColor" stroke="none"/>
<path d="M 224.4 16.6 L 224.4 16.6" stroke-width="1.60"/>
<path d="M 224.4 16.6 L 224.4 16.8" stroke-width="2.40"/>
<path d="M 224.4 16.8 L 224.5 17.2 L 224.4 17.9 L 224.3 19.0" stroke-width="2.60"/>
<path d="M 224.3 19.0 L 224.0 20.3" stroke-width="2.40"/>
<path d="M 224.0 20.3 L 223.7 21.8" stroke-width="2.00"/>
<path d="M 223.7 21.8 L 223.4 23.2 L 223.1 24.5 L 222.9 25.4" stroke-width="1.80"/>
<path d="M 222.9 25.4 L 222.9 26.0" stroke-width="2.00"/>
<path d="M 222.9 26.0 L 222.9 26.2" stroke-width="2.40"/>
<path d="M 222.9 26.2 L 222.9 26.0 L 223.2 25.3" stroke-width="2.60"/>
<path d="M 223.2 25.3 L 223.6 24.1" stroke-width="2.40"/>
<path d="M 223.6 24.1 L 224.3 22.6" stroke-width="2.20"/>
<path d="M 224.3 22.6 L 225.2 20.9" stroke-width="1.80"/>
<path d="M 225.2 20.9 L 226.2 19.2 L 227.5 17.6" stroke-width="1.60"/>
<path d="M 227.5 17.6 L 228.8 16.3 L 230.2 15.3 L 231.5 14.7" stroke-width="1.40"/>
<path d="M 231.5 14.7 L 232.8 14.5 L 233.9 14.9" stroke-width="1.60"/>
<path d="M 233.9 14.9 L 234.8 15.7 L 235.6 17.0" stroke-width="1.80"/>
<path d="M 235.6 17.0 L 236.0 18.6 L 236.3 20.3 L 236.4 22.1 L 236.3 23.7 L 236.3 24.8" stroke-width="1.60"/>
<path d="M 236.3 24.8 L 236.2 25.4" stroke-width="1.40"/>
<circle cx="242.5" cy="7.8" r="0.63" fill="currentColor" stroke="none"/>
<path d="M 242.5 7.8 L 242.6 7.8" stroke-width="1.60"/>
<path d="M 242.6 7.8 L 242.6 8.1" stroke-width="2.40"/>
<path d="M 242.6 8.1 L 242.7 8.7 L 242.7 9.8" stroke-width="2.60"/>
<path d="M 242.7 9.8 L 242.6 11.3" stroke-width="2.20"/>
<path d="M 242.6 11.3 L 242.4 13.2" stroke-width="2.00"/>
<path d="M 242.4 13.2 L 242.1 15.3" stroke-width="1.60"/>
<path d="M 242.1 15.3 L 241.8 17.6 L 241.5 19.8 L 241.3 21.9 L 241.1 23.7 L 241.1 25.1" stroke-width="1.40"/>
<path d="M 241.1 25.1 L 241.2 26.0" stroke-width="1.60"/>
<path d="M 241.2 26.0 L 241.2 26.5" stroke-width="1.80"/>
<path d="M 241.2 26.5 L 241.3 26.7 L 241.3 26.7" stroke-width="2.00"/>
<circle cx="247.2" cy="17.4" r="0.63" fill="currentColor" stroke="none"/>
<path d="M 247.2 17.4 L 247.2 17.2" stroke-width="1.60"/>
<path d="M 247.2 17.2 L 247.1 16.9" stroke-width="2.20"/>
<path d="M 247.1 16.9 L 246.8 16.8 L 246.2 17.0 L 245.4 17.4" stroke-width="2.60"/>
<path d="M 245.4 17.4 L 244.4 18.1" stroke-width="2.40"/>
<path d="M 244.4 18.1 L 243.2 18.9" stroke-width="2.20"/>
<path d="M 243.2 18.9 L 242.2 19.8 L 241.5 20.7 L 241.2 21.5" stroke-width="2.00"/>
<path d="M 241.2 21.5 L 241.3 22.2 L 241.9 22.9 L 242.9 23.5" stroke-width="2.20"/>
<path d="M 242.9 23.5 L 244.4 23.9" stroke-width="2.00"/>
<path d="M 244.4 23.9 L 246.2 24.2" stroke-width="1.80"/>
<path d="M 246.2 24.2 L 248.2 24.2 L 250.2 24.0" stroke-width="1.60"/>
<path d="M 250.2 24.0 L 252.1 23.5 L 253.5 23.0" stroke-width="1.40"/>
<path d="M 253.5 23.0 L 254.3 22.6" stroke-width="1.20"/>
<circle cx="255.7" cy="16.5" r="0.63" fill="currentColor" stroke="none"/>
<path d="M 255.7 16.5 L 255.7 16.6" stroke-width="1.60"/>
<path d="M 255.7 16.6 L 255.7 16.9" stroke-width="2.40"/>
<path d="M 255.7 16.9 L 255.8 17.5 L 255.8 18.4" stroke-width="2.60"/>
<path d="M 255.8 18.4 L 255.8 19.6" stroke-width="2.40"/>
<path d="M 255.8 19.6 L 255.8 20.9" stroke-width="2.20"/>
<path d="M 255.8 20.9 L 255.7 22.3" stroke-width="2.00"/>
<path d="M 255.7 22.3 L 255.7 23.8 L 255.7 25.0 L 255.8 26.0" stroke-width="1.80"/>
<path d="M 255.8 26.0 L 255.9 26.6" stroke-width="2.00"/>
<path d="M 255.9 26.6 L 256.0 26.9" stroke-width="1.80"/>
<circle cx="256.6" cy="9.4" r="0.63" fill="currentColor" stroke="none"/>
<path d="M 256.6 9.4 L 256.6 9.2" stroke-width="1.60"/>
<path d="M 256.6 9.2 L 256.7 9.0" stroke-width="2.20"/>
<path d="M 256.7 9.0 L 256.9 8.8 L 257.0 8.8 L 257.1 8.9 L 257.3 9.1" stroke-width="2.60"/>
<path d="M 257.3 9.1 L 257.4 9.3" stroke-width="2.40"/>
<path d="M 257.4 9.3 L 257.5 9.4" stroke-width="2.00"/>
<circle cx="262.4" cy="14.7" r="0.63" fill="currentColor" stroke="none"/>
<path d="M 262.4 14.7 L 262.4 15.0" stroke-width="1.60"/>
<path d="M 262.4 15.0 L 262.4 15.6" stroke-width="2.20"/>
<path d="M 262.4 15.6 L 262.4 16.6" stroke-width="2.40"/>
<path d="M 262.4 16.6 L 262.3 17.8" stroke-width="2.20"/>
<path d="M 262.3 17.8 L 262.2 19.2" stroke-width="2.00"/>
<path d="M 262.2 19.2 L 262.0 20.7 L 261.8 22.3 L 261.5 23.6 L 261.3 24.7" stroke-width="1.80"/>
<path d="M 261.3 24.7 L 261.2 25.4" stroke-width="2.00"/>
<path d="M 261.2 25.4 L 261.1 25.7" stroke-width="2.20"/>
<path d="M 261.1 25.7 L 261.2 25.6 L 261.3 25.1 L 261.6 24.2" stroke-width="2.60"/>
<path d="M 261.6 24.2 L 262.0 22.8" stroke-width="2.40"/>
<path d="M 262.0 22.8 L 262.6 21.3" stroke-width="2.00"/>
<path d="M 262.6 21.3 L 263.4 19.7" stroke-width="1.80"/>
<path d="M 263.4 19.7 L 264.4 18.1 L 265.5 16.8 L 266.8 15.7 L 268.1 14.9 L 269.5 14.6 L 270.9 14.6 L 272.1 15.2 L 273.1 16.1 L 273.9 17.5 L 274.3 19.2 L 274.6 20.9 L 274.6 22.7 L 274.7 24.2 L 274.7 25.4" stroke-width="1.60"/>
<path d="M 274.7 25.4 L 274.7 26.0" stroke-width="1.40"/>
<circle cx="285.6" cy="18.6" r="0.63" fill="currentColor" stroke="none"/>
<path d="M 285.6 18.6 L 285.5 18.2" stroke-width="1.60"/>
<path d="M 285.5 18.2 L 285.2 17.6" stroke-width="2.00"/>
<path d="M 285.2 17.6 L 284.7 16.9 L 284.0 16.5 L 283.1 16.4" stroke-width="2.40"/>
<path d="M 283.1 16.4 L 281.9 16.6" stroke-width="2.20"/>
<path d="M 281.9 16.6 L 280.6 17.2" stroke-width="2.00"/>
<path d="M 280.6 17.2 L 279.3 18.1 L 278.3 19.3 L 277.7 20.6 L 277.6 21.8 L 278.0 22.8 L 278.9 23.6 L 280.2 23.9 L 281.7 23.8" stroke-width="1.80"/>
<path d="M 281.7 23.8 L 283.4 23.3 L 284.9 22.5 L 286.1 21.4 L 287.0 20.3 L 287.5 19.2" stroke-width="1.60"/>
<path d="M 287.5 19.2 L 287.7 18.2" stroke-width="1.80"/>
<path d="M 287.7 18.2 L 287.7 17.4" stroke-width="2.00"/>
<path d="M 287.7 17.4 L 287.6 16.9" stroke-width="2.20"/>
<path d="M 287.6 16.9 L 287.5 16.7" stroke-width="2.40"/>
<path d="M 287.5 16.7 L 287.5 16.9 L 287.4 17.4 L 287.4 18.4" stroke-width="2.60"/>
<path d="M 287.4 18.4 L 287.5 19.8" stroke-width="2.40"/>
<path d="M 287.5 19.8 L 287.6 21.4" stroke-width="2.00"/>
<path d="M 287.6 21.4 L 287.8 23.3" stroke-width="1.80"/>
<path d="M 287.8 23.3 L 288.1 25.3" stroke-width="1.60"/>
<path d="M 288.1 25.3 L 288.3 27.4 L 288.5 29.4 L 288.4 31.3 L 288.1 32.9 L 287.5 34.3" stroke-width="1.40"/>
<path d="M 287.5 34.3 L 286.5 35.4 L 285.3 36.1 L 283.9 36.6 L 282.2 36.6 L 280.4 36.4" stroke-width="1.60"/>
<path d="M 280.4 36.4 L 278.6 36.0 L 276.8 35.3 L 275.2 34.4 L 273.9 33.5" stroke-width="1.40"/>
<path d="M 273.9 33.5 L 272.9 32.5 L 272.3 31.8" stroke-width="1.60"/>
<path d="M 272.3 31.8 L 272.0 31.3" stroke-width="1.40"/>
<circle cx="314.6" cy="17.2" r="0.63" fill="currentColor" stroke="none"/>
<path d="M 314.6 17.2 L 314.4 16.9" stroke-width="1.60"/>
<path d="M 314.4 16.9 L 314.1 16.4" stroke-width="2.20"/>
<path d="M 314.1 16.4 L 313.7 15.7 L 313.1 15.2 L 312.3 14.7" stroke-width="2.40"/>
<path d="M 312.3 14.7 L 311.2 14.5 L 310.0 14.6" stroke-width="2.20"/>
<path d="M 310.0 14.6 L 308.7 14.9" stroke-width="2.00"/>
<path d="M 308.7 14.9 L 307.3 15.7 L 306.0 16.7" stroke-width="1.80"/>
<path d="M 306.0 16.7 L 304.9 18.1 L 304.2 19.6 L 303.8 21.2 L 303.8 22.7 L 304.3 23.8" stroke-width="1.60"/>
<path d="M 304.3 23.8 L 305.2 24.7 L 306.4 25.0 L 307.9 24.9" stroke-width="1.80"/>
<path d="M 307.9 24.9 L 309.5 24.2 L 311.1 23.2" stroke-width="1.60"/>
<path d="M 311.1 23.2 L 312.5 21.9 L 313.7 20.5 L 314.6 19.1" stroke-width="1.40"/>
<path d="M 314.6 19.1 L 315.2 17.8 L 315.5 16.9" stroke-width="1.60"/>
<path d="M 315.5 16.9 L 315.6 16.2" stroke-width="1.80"/>
<path d="M 315.6 16.2 L 315.6 16.0" stroke-width="2.20"/>
<path d="M 315.6 16.0 L 315.5 16.2 L 315.4 16.7 L 315.1 17.7" stroke-width="2.60"/>
<path d="M 315.1 17.7 L 314.9 19.0" stroke-width="2.40"/>
<path d="M 314.9 19.0 L 314.8 20.5 L 314.9 22.0" stroke-width="2.00"/>
<path d="M 314.9 22.0 L 315.3 23.4" stroke-width="1.80"/>
<path d="M 315.3 23.4 L 315.7 24.4 L 316.0 25.0" stroke-width="1.60"/>
<circle cx="328.3" cy="15.6" r="0.63" fill="currentColor" stroke="none"/>
<path d="M 328.3 15.6 L 327.9 15.3" stroke-width="1.60"/>
<path d="M 327.9 15.3 L 327.3 15.0" stroke-width="2.00"/>
<path d="M 327.3 15.0 L 326.4 14.7 L 325.2 14.7" stroke-width="2.20"/>
<path d="M 325.2 14.7 L 323.9 14.9 L 322.7 15.4 L 321.8 16.0 L 321.3 16.8 L 321.4 17.6" stroke-width="2.00"/>
<path d="M 321.4 17.6 L 322.0 18.5" stroke-width="2.20"/>
<path d="M 322.0 18.5 L 323.0 19.4" stroke-width="2.00"/>
<path d="M 323.0 19.4 L 324.5 20.3" stroke-width="1.80"/>
<path d="M 324.5 20.3 L 326.2 21.2 L 327.9 22.1 L 329.4 23.0 L 330.6 23.7 L 331.4 24.3" stroke-width="1.60"/>
<path d="M 331.4 24.3 L 331.6 24.8" stroke-width="1.80"/>
<path d="M 331.6 24.8 L 331.3 25.1" stroke-width="2.20"/>
<path d="M 331.3 25.1 L 330.4 25.3" stroke-width="2.40"/>
<path d="M 330.4 25.3 L 329.0 25.4" stroke-width="2.20"/>
<path d="M 329.0 25.4 L 327.2 25.4" stroke-width="2.00"/>
<path d="M 327.2 25.4 L 325.1 25.2 L 323.0 24.9" stroke-width="1.60"/>
<path d="M 323.0 24.9 L 321.1 24.4 L 319.7 23.9 L 318.7 23.5 L 318.3 23.3" stroke-width="1.40"/>
<circle cx="347.0" cy="15.0" r="0.63" fill="currentColor" stroke="none"/>
<path d="M 347.0 15.0 L 347.1 15.2" stroke-width="1.60"/>
<path d="M 347.1 15.2 L 347.2 15.8" stroke-width="2.20"/>
<path d="M 347.2 15.8 L 347.3 16.7" stroke-width="2.40"/>
<path d="M 347.3 16.7 L 347.3 18.0" stroke-width="2.20"/>
<path d="M 347.3 18.0 L 347.3 19.5" stroke-width="2.00"/>
<path d="M 347.3 19.5 L 347.3 21.2 L 347.2 22.9" stroke-width="1.80"/>
<path d="M 347.2 22.9 L 347.1 24.4 L 347.1 25.7" stroke-width="1.60"/>
<path d="M 347.1 25.7 L 347.1 26.6" stroke-width="1.80"/>
<path d="M 347.1 26.6 L 347.2 27.0" stroke-width="2.00"/>
<path d="M 347.2 27.0 L 347.2 27.1" stroke-width="1.80"/>
<circle cx="347.9" cy="6.5" r="0.63" fill="currentColor" stroke="none"/>
<path d="M 347.9 6.5 L 347.9 6.3" stroke-width="1.60"/>
<path d="M 347.9 6.3 L 348.0 6.2 L 348.0 6.2" stroke-width="2.40"/>
<path d="M 348.0 6.2 L 348.1 6.2" stroke-width="2.00"/>
<circle cx="358.7" cy="6.3" r="0.63" fill="currentColor" stroke="none"/>
<path d="M 358.7 6.3 L 358.5 6.7" stroke-width="1.60"/>
<path d="M 358.5 6.7 L 358.2 7.5" stroke-width="2.00"/>
<path d="M 358.2 7.5 L 357.9 8.8" stroke-width="2.20"/>
<path d="M 357.9 8.8 L 357.5 10.4" stroke-width="2.00"/>
<path d="M 357.5 10.4 L 357.1 12.2" stroke-width="1.80"/>
<path d="M 357.1 12.2 L 356.7 14.2" stroke-width="1.60"/>
<path d="M 356.7 14.2 L 356.3 16.3 L 355.9 18.5 L 355.6 20.6 L 355.5 22.4 L 355.4 23.9" stroke-width="1.40"/>
<path d="M 355.4 23.9 L 355.5 25.0" stroke-width="1.60"/>
<path d="M 355.5 25.0 L 355.5 25.6" stroke-width="1.80"/>
<path d="M 355.5 25.6 L 355.5 25.7" stroke-width="2.20"/>
<path d="M 355.5 25.7 L 355.5 25.5" stroke-width="2.40"/>
<path d="M 355.5 25.5 L 355.5 25.3" stroke-width="2.00"/>
<circle cx="353.1" cy="15.9" r="0.63" fill="currentColor" stroke="none"/>
<path d="M 353.1 15.9 L 353.6 15.8" stroke-width="1.60"/>
<path d="M 353.6 15.8 L 354.6 15.7 L 356.4 15.6" stroke-width="2.00"/>
<path d="M 356.4 15.6 L 358.7 15.5" stroke-width="1.60"/>
<path d="M 358.7 15.5 L 361.2 15.5 L 363.7 15.6" stroke-width="1.40"/>
<path d="M 363.7 15.6 L 365.7 15.7" stroke-width="1.20"/>
<path d="M 365.7 15.7 L 366.9 15.8" stroke-width="1.00"/>
<circle cx="386.9" cy="17.8" r="0.63" fill="currentColor" stroke="none"/>
<path d="M 386.9 17.8 L 386.7 17.5" stroke-width="1.60"/>
<path d="M 386.7 17.5 L 386.3 17.0" stroke-width="2.20"/>
<path d="M 386.3 17.0 L 385.6 16.6 L 384.7 16.3" stroke-width="2.40"/>
<path d="M 384.7 16.3 L 383.4 16.3" stroke-width="2.20"/>
<path d="M 383.4 16.3 L 381.9 16.6" stroke-width="2.00"/>
<path d="M 381.9 16.6 L 380.3 17.3" stroke-width="1.80"/>
<path d="M 380.3 17.3 L 378.8 18.2 L 377.7 19.3 L 377.2 20.5" stroke-width="1.60"/>
<path d="M 377.2 20.5 L 377.2 21.6 L 377.9 22.5 L 379.0 23.2 L 380.5 23.5 L 382.2 23.4" stroke-width="1.80"/>
<path d="M 382.2 23.4 L 384.0 22.9 L 385.6 22.2 L 387.1 21.2 L 388.2 20.0 L 389.0 18.9 L 389.4 17.9" stroke-width="1.60"/>
<path d="M 389.4 17.9 L 389.6 17.2" stroke-width="1.80"/>
<path d="M 389.6 17.2 L 389.7 16.8" stroke-width="2.20"/>
<path d="M 389.7 16.8 L 389.6 16.8" stroke-width="2.40"/>
<path d="M 389.6 16.8 L 389.5 17.1 L 389.3 17.8" stroke-width="2.60"/>
<path d="M 389.3 17.8 L 389.2 19.0" stroke-width="2.40"/>
<path d="M 389.2 19.0 L 389.1 20.7" stroke-width="2.20"/>
<path d="M 389.1 20.7 L 389.0 22.7" stroke-width="1.80"/>
<path d="M 389.0 22.7 L 388.9 25.0" stroke-width="1.60"/>
<path d="M 388.9 25.0 L 388.9 27.4 L 388.9 29.8" stroke-width="1.40"/>
<path d="M 388.9 29.8 L 388.8 32.1 L 388.4 34.3 L 387.8 36.1" stroke-width="1.20"/>
<path d="M 387.8 36.1 L 386.9 37.5 L 385.7 38.4 L 384.2 38.8" stroke-width="1.40"/>
<path d="M 384.2 38.8 L 382.6 38.7" stroke-width="1.60"/>
<path d="M 382.6 38.7 L 380.9 38.3 L 379.2 37.4 L 377.8 36.3 L 376.9 35.3" stroke-width="1.40"/>
<path d="M 376.9 35.3 L 376.4 34.6" stroke-width="1.20"/>
<circle cx="400.8" cy="18.3" r="0.63" fill="currentColor" stroke="none"/>
<path d="M 400.8 18.3 L 400.7 17.8" stroke-width="1.60"/>
<path d="M 400.7 17.8 L 400.3 17.2" stroke-width="2.00"/>
<path d="M 400.3 17.2 L 399.7 16.4 L 398.8 15.8" stroke-width="2.20"/>
<path d="M 398.8 15.8 L 397.6 15.5 L 396.2 15.6" stroke-width="2.00"/>
<path d="M 396.2 15.6 L 394.7 16.0 L 393.4 16.8 L 392.4 17.9" stroke-width="1.80"/>
<path d="M 392.4 17.9 L 391.8 19.2" stroke-width="1.60"/>
<path d="M 391.8 19.2 L 391.8 20.5 L 392.3 21.8 L 393.4 22.8" stroke-width="1.80"/>
<path d="M 393.4 22.8 L 394.9 23.5 L 396.7 23.8" stroke-width="1.60"/>
<path d="M 396.7 23.8 L 398.8 23.6 L 400.7 22.9 L 402.4 22.0 L 403.6 20.8 L 404.3 19.6" stroke-width="1.40"/>
<path d="M 404.3 19.6 L 404.4 18.4 L 404.2 17.3" stroke-width="1.60"/>
<path d="M 404.2 17.3 L 403.8 16.6" stroke-width="1.80"/>
<path d="M 403.8 16.6 L 403.5 16.2" stroke-width="1.60"/>
<circle cx="407.0" cy="21.4" r="0.63" fill="currentColor" stroke="none"/>
<path d="M 407.0 21.4 L 407.2 21.4" stroke-width="1.60"/>
<path d="M 407.2 21.4 L 407.6 21.5" stroke-width="2.20"/>
<path d="M 407.6 21.5 L 408.4 21.4" stroke-width="2.60"/>
<path d="M 408.4 21.4 L 409.3 21.1" stroke-width="2.40"/>
<path d="M 409.3 21.1 L 410.5 20.5" stroke-width="2.20"/>
<path d="M 410.5 20.5 L 411.8 19.8" stroke-width="2.00"/>
<path d="M 411.8 19.8 L 412.9 18.9 L 414.0 18.0 L 414.7 17.0 L 415.2 16.1" stroke-width="1.80"/>
<path d="M 415.2 16.1 L 415.3 15.4" stroke-width="2.00"/>
<path d="M 415.3 15.4 L 415.0 14.7" stroke-width="2.20"/>
<path d="M 415.0 14.7 L 414.4 14.4 L 413.4 14.4" stroke-width="2.40"/>
<path d="M 413.4 14.4 L 412.2 14.8" stroke-width="2.20"/>
<path d="M 412.2 14.8 L 410.7 15.5" stroke-width="2.00"/>
<path d="M 410.7 15.5 L 409.3 16.7" stroke-width="1.80"/>
<path d="M 409.3 16.7 L 408.1 18.1 L 407.4 19.6 L 407.2 21.1 L 407.6 22.5 L 408.7 23.7 L 410.4 24.5" stroke-width="1.60"/>
<path d="M 410.4 24.5 L 412.6 24.9 L 415.2 24.9" stroke-width="1.40"/>
<path d="M 415.2 24.9 L 417.9 24.5 L 420.1 23.9" stroke-width="1.20"/>
<path d="M 420.1 23.9 L 421.5 23.5" stroke-width="1.00"/>
<circle cx="428.2" cy="15.4" r="0.63" fill="currentColor" stroke="none"/>
<path d="M 428.2 15.4 L 427.8 15.0" stroke-width="1.60"/>
<path d="M 427.8 15.0 L 427.2 14.5" stroke-width="2.00"/>
<path d="M 427.2 14.5 L 426.3 14.1 L 425.2 13.9" stroke-width="2.20"/>
<path d="M 425.2 13.9 L 423.8 13.9 L 422.5 14.2 L 421.5 14.7 L 420.8 15.3 L 420.7 16.1" stroke-width="2.00"/>
<path d="M 420.7 16.1 L 421.1 17.1" stroke-width="2.20"/>
<path d="M 421.1 17.1 L 422.1 18.1" stroke-width="2.00"/>
<path d="M 422.1 18.1 L 423.4 19.2" stroke-width="1.80"/>
<path d="M 423.4 19.2 L 424.9 20.3 L 426.4 21.5 L 427.6 22.5 L 428.4 23.5" stroke-width="1.60"/>
<path d="M 428.4 23.5 L 428.6 24.3" stroke-width="1.80"/>
<path d="M 428.6 24.3 L 428.4 24.9 L 427.6 25.4 L 426.2 25.6" stroke-width="2.00"/>
<path d="M 426.2 25.6 L 424.6 25.6 L 422.7 25.4" stroke-width="1.80"/>
<path d="M 422.7 25.4 L 420.9 25.1 L 419.3 24.6 L 418.1 24.0 L 417.2 23.5" stroke-width="1.60"/>
<path d="M 417.2 23.5 L 416.8 23.1 L 416.6 22.8" stroke-width="1.80"/>
</svg>
