<svg xmlns="http://www.w3.org/2000/svg" viewBox="0 0 392.7 42.8" fill="none" stroke="currentColor" stroke-linecap="round" stroke-linejoin="round" role="img">
<circle cx="13.2" cy="17.4" r="0.77" fill="currentColor" stroke="none"/>
<path d="M 13.2 17.4 L 12.9 17.3" stroke-width="2.00"/>
<path d="M 12.9 17.3 L 12.2 17.2" stroke-width="2.60"/>
<path d="M 12.2 17.2 L 11.2 17.2" stroke-width="2.80"/>
<path d="M 11.2 17.2 L 9.9 17.6" stroke-width="2.60"/>
<path d="M 9.9 17.6 L 8.6 18.5" stroke-width="2.40"/>
<path d="M 8.6 18.5 L 7.4 19.7" stroke-width="2.20"/>
<path d="M 7.4 19.7 L 6.5 21.3 L 6.0 22.9" stroke-width="2.00"/>
<path d="M 6.0 22.9 L 6.0 24.5" stroke-width="1.80"/>
<path d="M 6.0 24.5 L 6.5 25.7 L 7.4 26.3" stroke-width="2.00"/>
<path d="M 7.4 26.3 L 8.5 26.4 L 9.8 25.7" stroke-width="2.20"/>
<path d="M 9.8 25.7 L 11.0 24.5 L 12.2 22.8" stroke-width="2.00"/>
<path d="M 12.2 22.8 L 13.2 21.0 L 13.9 19.4 L 14.3 18.2" stroke-width="1.80"/>
<path d="M 14.3 18.2 L 14.5 17.6" stroke-width="2.00"/>
<path d="M 14.5 17.6 L 14.4 17.4" stroke-width="2.60"/>
<path d="M 14.4 17.4 L 14.3 17.9 L 14.2 18.9" stroke-width="3.00"/>
<path d="M 14.2 18.9 L 14.3 20.5" stroke-width="2.60"/>
<path d="M 14.3 20.5 L 14.7 22.4" stroke-width="2.20"/>
<path d="M 14.7 22.4 L 15.5 24.4" stroke-width="2.00"/>
<path d="M 15.5 24.4 L 16.6 26.2" stroke-width="1.80"/>
<path d="M 16.6 26.2 L 17.6 27.6" stroke-width="1.60"/>
<path d="M 17.6 27.6 L 18.4 28.3" stroke-width="1.40"/>
<circle cx="31.1" cy="6.6" r="0.77" fill="currentColor" stroke="none"/>
<path d="M 31.1 6.6 L 31.0 7.1" stroke-width="2.00"/>
<path d="M 31.0 7.1 L 30.8 8.1 L 30.6 9.7" stroke-width="2.40"/>
<path d="M 30.6 9.7 L 30.3 11.9" stroke-width="2.00"/>
<path d="M 30.3 11.9 L 30.2 14.5" stroke-width="1.80"/>
<path d="M 30.2 14.5 L 30.1 17.3" stroke-width="1.60"/>
<path d="M 30.1 17.3 L 30.3 20.2 L 30.8 22.9 L 31.6 25.0 L 32.9 26.5" stroke-width="1.40"/>
<path d="M 32.9 26.5 L 34.5 26.9 L 36.4 26.5 L 38.3 25.3" stroke-width="1.60"/>
<path d="M 38.3 25.3 L 40.2 23.5 L 41.8 21.6 L 42.9 19.8" stroke-width="1.40"/>
<path d="M 42.9 19.8 L 43.7 18.4" stroke-width="1.60"/>
<path d="M 43.7 18.4 L 44.0 17.5" stroke-width="1.80"/>
<path d="M 44.0 17.5 L 44.1 17.2" stroke-width="2.00"/>
<path d="M 44.1 17.2 L 43.9 17.5" stroke-width="2.60"/>
<path d="M 43.9 17.5 L 43.7 18.4" stroke-width="2.80"/>
<path d="M 43.7 18.4 L 43.5 19.9" stroke-width="2.60"/>
<path d="M 43.5 19.9 L 43.3 21.8" stroke-width="2.20"/>
<path d="M 43.3 21.8 L 43.4 23.7" stroke-width="2.00"/>
<path d="M 43.4 23.7 L 43.7 25.4" stroke-width="1.80"/>
<path d="M 43.7 25.4 L 44.3 26.4 L 44.9 26.9 L 45.3 27.0" stroke-width="2.00"/>
<circle cx="45.8" cy="9.3" r="0.77" fill="currentColor" stroke="none"/>
<path d="M 45.8 9.3 L 45.8 9.3" stroke-width="2.00"/>
<path d="M 45.8 9.3 L 45.9 9.4" stroke-width="2.80"/>
<path d="M 45.9 9.4 L 46.0 9.5" stroke-width="3.00"/>
<path d="M 46.0 9.5 L 46.2 9.7" stroke-width="2.60"/>
<circle cx="52.4" cy="16.5" r="0.77" fill="currentColor" stroke="none"/>
<path d="M 52.4 16.5 L 52.3 16.9" stroke-width="2.00"/>
<path d="M 52.3 16.9 L 52.2 17.7 L 52.1 18.9" stroke-width="2.60"/>
<path d="M 52.1 18.9 L 51.9 20.4" stroke-width="2.40"/>
<path d="M 51.9 20.4 L 51.7 22.0" stroke-width="2.20"/>
<path d="M 51.7 22.0 L 51.5 23.6 L 51.3 24.8" stroke-width="2.00"/>
<path d="M 51.3 24.8 L 51.4 25.6" stroke-width="2.20"/>
<path d="M 51.4 25.6 L 51.5 25.9" stroke-width="2.60"/>
<path d="M 51.5 25.9 L 51.9 25.5" stroke-width="3.00"/>
<path d="M 51.9 25.5 L 52.5 24.6" stroke-width="2.80"/>
<path d="M 52.5 24.6 L 53.4 23.1" stroke-width="2.60"/>
<path d="M 53.4 23.1 L 54.5 21.4" stroke-width="2.20"/>
<path d="M 54.5 21.4 L 55.8 19.8" stroke-width="2.00"/>
<path d="M 55.8 19.8 L 57.1 18.4 L 58.3 17.4 L 59.3 17.0" stroke-width="1.80"/>
<path d="M 59.3 17.0 L 60.2 17.2" stroke-width="2.00"/>
<path d="M 60.2 17.2 L 60.9 18.0 L 61.3 19.3 L 61.6 21.0" stroke-width="2.20"/>
<path d="M 61.6 21.0 L 61.8 22.8 L 62.0 24.5 L 62.4 25.8 L 63.1 26.6" stroke-width="2.00"/>
<path d="M 63.1 26.6 L 64.1 26.9 L 65.5 26.5" stroke-width="2.20"/>
<path d="M 65.5 26.5 L 67.0 25.5" stroke-width="2.00"/>
<path d="M 67.0 25.5 L 68.6 24.0 L 70.1 22.2" stroke-width="1.80"/>
<path d="M 70.1 22.2 L 71.3 20.3 L 72.1 18.6 L 72.4 17.2" stroke-width="1.60"/>
<path d="M 72.4 17.2 L 72.2 16.2" stroke-width="1.80"/>
<path d="M 72.2 16.2 L 71.6 15.8" stroke-width="2.20"/>
<path d="M 71.6 15.8 L 70.7 15.9 L 69.6 16.7" stroke-width="2.40"/>
<path d="M 69.6 16.7 L 68.6 18.1" stroke-width="2.20"/>
<path d="M 68.6 18.1 L 67.8 19.8" stroke-width="2.00"/>
<path d="M 67.8 19.8 L 67.6 21.6 L 68.1 23.4 L 69.4 24.7" stroke-width="1.80"/>
<path d="M 69.4 24.7 L 70.8 25.6" stroke-width="1.60"/>
<path d="M 70.8 25.6 L 72.0 26.0" stroke-width="1.40"/>
<circle cx="92.4" cy="17.6" r="0.77" fill="currentColor" stroke="none"/>
<path d="M 92.4 17.6 L 92.0 17.5" stroke-width="2.00"/>
<path d="M 92.0 17.5 L 91.4 17.4" stroke-width="2.60"/>
<path d="M 91.4 17.4 L 90.5 17.4" stroke-width="2.80"/>
<path d="M 90.5 17.4 L 89.4 17.9" stroke-width="2.60"/>
<path d="M 89.4 17.9 L 88.2 18.7" stroke-width="2.40"/>
<path d="M 88.2 18.7 L 87.2 19.9 L 86.5 21.3" stroke-width="2.20"/>
<path d="M 86.5 21.3 L 86.2 22.7 L 86.5 24.0" stroke-width="2.00"/>
<path d="M 86.5 24.0 L 87.2 24.9 L 88.5 25.3 L 90.1 25.0" stroke-width="2.20"/>
<path d="M 90.1 25.0 L 91.8 24.2" stroke-width="2.00"/>
<path d="M 91.8 24.2 L 93.5 22.9 L 94.9 21.3" stroke-width="1.80"/>
<path d="M 94.9 21.3 L 95.8 19.6 L 96.0 18.0" stroke-width="1.60"/>
<path d="M 96.0 18.0 L 95.8 16.7" stroke-width="1.80"/>
<path d="M 95.8 16.7 L 95.0 15.9 L 93.9 15.5" stroke-width="2.00"/>
<path d="M 93.9 15.5 L 92.8 15.7 L 91.9 16.4 L 91.3 17.2" stroke-width="2.20"/>
<path d="M 91.3 17.2 L 91.0 17.7" stroke-width="2.00"/>
<circle cx="107.0" cy="9.4" r="0.77" fill="currentColor" stroke="none"/>
<path d="M 107.0 9.4 L 106.9 8.7" stroke-width="1.80"/>
<path d="M 106.9 8.7 L 106.7 7.7 L 106.3 6.7" stroke-width="2.40"/>
<path d="M 106.3 6.7 L 105.7 6.1 L 105.0 6.0" stroke-width="2.60"/>
<path d="M 105.0 6.0 L 104.3 6.6" stroke-width="2.80"/>
<path d="M 104.3 6.6 L 103.5 7.7" stroke-width="2.60"/>
<path d="M 103.5 7.7 L 102.9 9.5" stroke-width="2.20"/>
<path d="M 102.9 9.5 L 102.4 11.9" stroke-width="2.00"/>
<path d="M 102.4 11.9 L 102.2 14.6" stroke-width="1.60"/>
<path d="M 102.2 14.6 L 102.2 17.7 L 102.4 20.9" stroke-width="1.40"/>
<path d="M 102.4 20.9 L 102.8 24.1 L 103.3 27.1 L 103.8 29.6 L 104.5 31.4" stroke-width="1.20"/>
<path d="M 104.5 31.4 L 105.0 32.4" stroke-width="1.40"/>
<path d="M 105.0 32.4 L 105.5 32.5" stroke-width="1.80"/>
<path d="M 105.5 32.5 L 105.8 32.1 L 106.0 31.7" stroke-width="2.00"/>
<circle cx="100.0" cy="20.4" r="0.77" fill="currentColor" stroke="none"/>
<path d="M 100.0 20.4 L 100.5 20.5" stroke-width="2.00"/>
<path d="M 100.5 20.5 L 101.6 20.6 L 102.8 20.7" stroke-width="2.40"/>
<path d="M 102.8 20.7 L 103.7 20.8" stroke-width="2.00"/>
<circle cx="121.9" cy="17.9" r="0.77" fill="currentColor" stroke="none"/>
<path d="M 121.9 17.9 L 121.9 18.3" stroke-width="2.00"/>
<path d="M 121.9 18.3 L 121.9 19.1" stroke-width="2.40"/>
<path d="M 121.9 19.1 L 121.8 20.4" stroke-width="2.60"/>
<path d="M 121.8 20.4 L 121.7 22.0" stroke-width="2.40"/>
<path d="M 121.7 22.0 L 121.6 23.6" stroke-width="2.20"/>
<path d="M 121.6 23.6 L 121.6 25.0 L 121.6 26.1" stroke-width="2.00"/>
<path d="M 121.6 26.1 L 121.6 26.7" stroke-width="1.80"/>
<circle cx="121.8" cy="12.0" r="0.77" fill="currentColor" stroke="none"/>
<path d="M 121.8 12.0 L 121.8 12.0" stroke-width="2.00"/>
<path d="M 121.8 12.0 L 121.9 12.1" stroke-width="2.80"/>
<path d="M 121.9 12.1 L 122.1 12.2" stroke-width="3.00"/>
<path d="M 122.1 12.2 L 122.2 12.3" stroke-width="2.60"/>
<circle cx="126.0" cy="19.0" r="0.77" fill="currentColor" stroke="none"/>
<path d="M 126.0 19.0 L 126.0 19.8" stroke-width="1.80"/>
<path d="M 126.0 19.8 L 125.9 21.1 L 125.7 22.7" stroke-width="2.20"/>
<path d="M 125.7 22.7 L 125.6 24.3 L 125.5 25.6" stroke-width="2.00"/>
<path d="M 125.5 25.6 L 125.6 26.5" stroke-width="2.20"/>
<path d="M 125.6 26.5 L 125.8 26.8" stroke-width="2.60"/>
<path d="M 125.8 26.8 L 126.2 26.5 L 126.9 25.6" stroke-width="2.80"/>
<path d="M 126.9 25.6 L 127.9 24.3" stroke-width="2.60"/>
<path d="M 127.9 24.3 L 129.0 22.8" stroke-width="2.20"/>
<path d="M 129.0 22.8 L 130.2 21.3 L 131.3 20.2 L 132.2 19.5" stroke-width="2.00"/>
<path d="M 132.2 19.5 L 132.9 19.3" stroke-width="2.20"/>
<path d="M 132.9 19.3 L 133.4 19.7" stroke-width="2.40"/>
<path d="M 133.4 19.7 L 133.6 20.7" stroke-width="2.60"/>
<path d="M 133.6 20.7 L 133.7 22.2" stroke-width="2.40"/>
<path d="M 133.7 22.2 L 133.5 24.2" stroke-width="2.20"/>
<path d="M 133.5 24.2 L 133.4 26.2" stroke-width="2.00"/>
<path d="M 133.4 26.2 L 133.5 27.9" stroke-width="1.80"/>
<path d="M 133.5 27.9 L 133.8 28.9 L 134.3 29.4 L 134.6 29.4" stroke-width="2.00"/>
<circle cx="140.4" cy="9.4" r="0.77" fill="currentColor" stroke="none"/>
<path d="M 140.4 9.4 L 140.3 9.5" stroke-width="2.00"/>
<path d="M 140.3 9.5 L 140.3 10.1 L 140.3 11.2" stroke-width="2.80"/>
<path d="M 140.3 11.2 L 140.2 13.0" stroke-width="2.60"/>
<path d="M 140.2 13.0 L 140.1 15.3" stroke-width="2.00"/>
<path d="M 140.1 15.3 L 139.9 17.9" stroke-width="1.80"/>
<path d="M 139.9 17.9 L 139.8 20.4 L 139.7 22.6 L 139.9 24.4 L 140.4 25.6" stroke-width="1.60"/>
<path d="M 140.4 25.6 L 141.1 26.1" stroke-width="1.80"/>
<path d="M 141.1 26.1 L 142.1 25.8" stroke-width="2.00"/>
<path d="M 142.1 25.8 L 143.3 25.0" stroke-width="2.20"/>
<path d="M 143.3 25.0 L 144.7 23.6" stroke-width="2.00"/>
<path d="M 144.7 23.6 L 146.2 22.0 L 147.5 20.3" stroke-width="1.80"/>
<path d="M 147.5 20.3 L 148.6 18.8" stroke-width="1.60"/>
<path d="M 148.6 18.8 L 149.4 17.5 L 149.9 16.6" stroke-width="1.80"/>
<path d="M 149.9 16.6 L 150.1 16.1" stroke-width="1.60"/>
<circle cx="145.3" cy="21.0" r="0.77" fill="currentColor" stroke="none"/>
<path d="M 145.3 21.0 L 145.6 21.6" stroke-width="1.80"/>
<path d="M 145.6 21.6 L 146.2 22.6 L 147.2 23.7" stroke-width="2.40"/>
<path d="M 147.2 23.7 L 148.4 24.9" stroke-width="2.20"/>
<path d="M 148.4 24.9 L 149.9 25.9 L 151.5 26.7" stroke-width="2.00"/>
<path d="M 151.5 26.7 L 153.2 27.2 L 154.7 27.3 L 156.1 27.2" stroke-width="1.80"/>
<path d="M 156.1 27.2 L 157.1 26.7 L 157.8 26.1 L 158.1 25.7" stroke-width="2.00"/>
<circle cx="163.5" cy="25.2" r="0.77" fill="currentColor" stroke="none"/>
<path d="M 163.5 25.2 L 163.2 26.1" stroke-width="1.80"/>
<path d="M 163.2 26.1 L 162.7 27.6" stroke-width="2.20"/>
<path d="M 162.7 27.6 L 162.0 29.7" stroke-width="2.00"/>
<path d="M 162.0 29.7 L 161.2 31.8" stroke-width="1.80"/>
<path d="M 161.2 31.8 L 160.4 33.8 L 159.7 35.3 L 159.3 36.3 L 159.1 36.8" stroke-width="1.60"/>
<circle cx="177.5" cy="11.7" r="0.77" fill="currentColor" stroke="none"/>
<path d="M 177.5 11.7 L 177.5 12.5" stroke-width="1.80"/>
<path d="M 177.5 12.5 L 177.5 13.9 L 177.5 15.9" stroke-width="2.20"/>
<path d="M 177.5 15.9 L 177.5 18.4" stroke-width="1.80"/>
<path d="M 177.5 18.4 L 177.4 21.0 L 177.4 23.5" stroke-width="1.60"/>
<path d="M 177.4 23.5 L 177.2 25.9 L 177.0 28.0" stroke-width="1.40"/>
<path d="M 177.0 28.0 L 176.8 29.5" stroke-width="1.60"/>
<path d="M 176.8 29.5 L 176.6 30.3" stroke-width="1.80"/>
<path d="M 176.6 30.3 L 176.4 30.5 L 176.3 30.5" stroke-width="2.00"/>
<circle cx="171.0" cy="20.9" r="0.77" fill="currentColor" stroke="none"/>
<path d="M 171.0 20.9 L 171.4 21.0" stroke-width="2.00"/>
<path d="M 171.4 21.0 L 172.3 21.2" stroke-width="2.40"/>
<path d="M 172.3 21.2 L 173.8 21.3" stroke-width="2.60"/>
<path d="M 173.8 21.3 L 175.6 21.3" stroke-width="2.20"/>
<path d="M 175.6 21.3 L 177.7 21.0" stroke-width="2.00"/>
<path d="M 177.7 21.0 L 179.8 20.4" stroke-width="1.80"/>
<path d="M 179.8 20.4 L 181.5 19.7" stroke-width="1.60"/>
<path d="M 181.5 19.7 L 182.5 19.2" stroke-width="1.40"/>
<circle cx="184.5" cy="11.1" r="0.77" fill="currentColor" stroke="none"/>
<path d="M 184.5 11.1 L 184.5 11.6" stroke-width="2.00"/>
<path d="M 184.5 11.6 L 184.6 12.5 L 184.6 14.1" stroke-width="2.40"/>
<path d="M 184.6 14.1 L 184.7 16.0" stroke-width="2.20"/>
<path d="M 184.7 16.0 L 184.8 18.3 L 185.0 20.7" stroke-width="1.80"/>
<path d="M 185.0 20.7 L 185.2 22.8 L 185.5 24.6" stroke-width="1.60"/>
<path d="M 185.5 24.6 L 185.9 25.8" stroke-width="1.80"/>
<path d="M 185.9 25.8 L 186.5 26.4" stroke-width="2.00"/>
<path d="M 186.5 26.4 L 187.2 26.3" stroke-width="2.20"/>
<path d="M 187.2 26.3 L 188.0 25.5" stroke-width="2.40"/>
<path d="M 188.0 25.5 L 189.0 24.3" stroke-width="2.20"/>
<path d="M 189.0 24.3 L 190.1 22.8 L 191.2 21.2" stroke-width="2.00"/>
<path d="M 191.2 21.2 L 192.1 19.9" stroke-width="1.80"/>
<path d="M 192.1 19.9 L 192.8 19.1" stroke-width="2.00"/>
<path d="M 192.8 19.1 L 193.3 18.7" stroke-width="2.20"/>
<path d="M 193.3 18.7 L 193.7 18.8" stroke-width="2.60"/>
<path d="M 193.7 18.8 L 193.9 19.5 L 194.0 20.7" stroke-width="2.80"/>
<path d="M 194.0 20.7 L 194.2 22.2" stroke-width="2.40"/>
<path d="M 194.2 22.2 L 194.4 23.8 L 194.8 25.2 L 195.4 26.2 L 196.4 26.5 L 197.6 26.2 L 198.9 25.3" stroke-width="2.20"/>
<path d="M 198.9 25.3 L 200.3 23.9" stroke-width="2.00"/>
<path d="M 200.3 23.9 L 201.6 22.3 L 202.7 20.8 L 203.5 19.5" stroke-width="1.80"/>
<path d="M 203.5 19.5 L 204.1 18.8" stroke-width="2.00"/>
<path d="M 204.1 18.8 L 204.3 18.6" stroke-width="2.20"/>
<path d="M 204.3 18.6 L 204.3 19.0 L 204.1 20.0" stroke-width="2.80"/>
<path d="M 204.1 20.0 L 203.9 21.5" stroke-width="2.60"/>
<path d="M 203.9 21.5 L 203.7 23.3" stroke-width="2.20"/>
<path d="M 203.7 23.3 L 203.7 25.0 L 203.8 26.4" stroke-width="2.00"/>
<path d="M 203.8 26.4 L 204.0 27.2" stroke-width="2.20"/>
<path d="M 204.0 27.2 L 204.4 27.3" stroke-width="2.40"/>
<path d="M 204.4 27.3 L 204.8 26.9" stroke-width="2.60"/>
<path d="M 204.8 26.9 L 205.1 26.6" stroke-width="2.40"/>
<circle cx="204.9" cy="11.2" r="0.77" fill="currentColor" stroke="none"/>
<path d="M 204.9 11.2 L 204.9 11.2" stroke-width="2.00"/>
<path d="M 204.9 11.2 L 205.1 11.4" stroke-width="2.80"/>
<path d="M 205.1 11.4 L 205.3 11.6" stroke-width="3.00"/>
<path d="M 205.3 11.6 L 205.5 11.8" stroke-width="2.60"/>
<circle cx="211.6" cy="17.4" r="0.77" fill="currentColor" stroke="none"/>
<path d="M 211.6 17.4 L 211.6 17.8" stroke-width="2.00"/>
<path d="M 211.6 17.8 L 211.7 18.7" stroke-width="2.40"/>
<path d="M 211.7 18.7 L 211.7 19.9" stroke-width="2.60"/>
<path d="M 211.7 19.9 L 211.6 21.4" stroke-width="2.40"/>
<path d="M 211.6 21.4 L 211.5 22.9 L 211.5 24.3 L 211.6 25.3" stroke-width="2.20"/>
<path d="M 211.6 25.3 L 211.9 25.9" stroke-width="2.40"/>
<path d="M 211.9 25.9 L 212.4 25.9" stroke-width="2.60"/>
<path d="M 212.4 25.9 L 213.2 25.3" stroke-width="2.80"/>
<path d="M 213.2 25.3 L 214.2 24.3" stroke-width="2.60"/>
<path d="M 214.2 24.3 L 215.3 22.9" stroke-width="2.40"/>
<path d="M 215.3 22.9 L 216.5 21.5 L 217.8 20.1" stroke-width="2.00"/>
<path d="M 217.8 20.1 L 218.9 19.1" stroke-width="1.80"/>
<path d="M 218.9 19.1 L 219.9 18.5" stroke-width="2.00"/>
<path d="M 219.9 18.5 L 220.6 18.2" stroke-width="2.20"/>
<path d="M 220.6 18.2 L 221.1 18.4" stroke-width="2.40"/>
<path d="M 221.1 18.4 L 221.5 19.1 L 221.6 20.3" stroke-width="2.60"/>
<path d="M 221.6 20.3 L 221.7 21.7" stroke-width="2.40"/>
<path d="M 221.7 21.7 L 221.7 23.2" stroke-width="2.20"/>
<path d="M 221.7 23.2 L 221.7 24.4" stroke-width="2.00"/>
<path d="M 221.7 24.4 L 221.7 25.1" stroke-width="1.80"/>
<circle cx="227.4" cy="9.8" r="0.77" fill="currentColor" stroke="none"/>
<path d="M 227.4 9.8 L 227.4 9.8" stroke-width="2.00"/>
<path d="M 227.4 9.8 L 227.4 10.2" stroke-width="2.80"/>
<path d="M 227.4 10.2 L 227.4 11.1" stroke-width="3.00"/>
<path d="M 227.4 11.1 L 227.4 12.6" stroke-width="2.80"/>
<path d="M 227.4 12.6 L 227.3 14.6" stroke-width="2.40"/>
<path d="M 227.3 14.6 L 227.2 16.8" stroke-width="2.00"/>
<path d="M 227.2 16.8 L 227.0 19.2" stroke-width="1.80"/>
<path d="M 227.0 19.2 L 227.0 21.5 L 227.0 23.4 L 227.0 24.9" stroke-width="1.60"/>
<path d="M 227.0 24.9 L 227.2 25.7" stroke-width="1.80"/>
<path d="M 227.2 25.7 L 227.6 25.9" stroke-width="2.20"/>
<path d="M 227.6 25.9 L 228.3 25.4 L 229.2 24.3" stroke-width="2.40"/>
<path d="M 229.2 24.3 L 230.3 22.8" stroke-width="2.20"/>
<path d="M 230.3 22.8 L 231.5 21.1" stroke-width="2.00"/>
<path d="M 231.5 21.1 L 232.7 19.5 L 233.7 18.2 L 234.3 17.2" stroke-width="1.80"/>
<path d="M 234.3 17.2 L 234.7 16.6" stroke-width="2.20"/>
<path d="M 234.7 16.6 L 234.6 16.6" stroke-width="2.60"/>
<path d="M 234.6 16.6 L 234.2 17.0 L 233.5 17.8" stroke-width="3.00"/>
<path d="M 233.5 17.8 L 232.5 19.1" stroke-width="2.60"/>
<path d="M 232.5 19.1 L 231.5 20.7" stroke-width="2.20"/>
<path d="M 231.5 20.7 L 230.6 22.4" stroke-width="2.00"/>
<path d="M 230.6 22.4 L 229.9 24.0 L 229.8 25.4" stroke-width="1.80"/>
<path d="M 229.8 25.4 L 230.1 26.4" stroke-width="2.00"/>
<path d="M 230.1 26.4 L 231.0 26.9 L 232.0 27.1" stroke-width="2.20"/>
<path d="M 232.0 27.1 L 232.7 27.1" stroke-width="2.00"/>
<circle cx="240.0" cy="18.1" r="0.77" fill="currentColor" stroke="none"/>
<path d="M 240.0 18.1 L 239.9 18.0" stroke-width="2.00"/>
<path d="M 239.9 18.0 L 239.8 17.9" stroke-width="2.80"/>
<path d="M 239.8 17.9 L 239.6 18.1 L 239.5 18.7 L 239.2 19.7" stroke-width="3.20"/>
<path d="M 239.2 19.7 L 239.0 21.0" stroke-width="2.80"/>
<path d="M 239.0 21.0 L 238.8 22.5" stroke-width="2.60"/>
<path d="M 238.8 22.5 L 238.8 23.9 L 238.9 24.9 L 239.2 25.4" stroke-width="2.40"/>
<path d="M 239.2 25.4 L 239.5 25.5" stroke-width="2.60"/>
<path d="M 239.5 25.5 L 239.7 25.5" stroke-width="2.40"/>
<circle cx="241.7" cy="10.7" r="0.77" fill="currentColor" stroke="none"/>
<path d="M 241.7 10.7 L 241.8 10.6" stroke-width="2.00"/>
<path d="M 241.8 10.6 L 241.8 10.5" stroke-width="2.80"/>
<path d="M 241.8 10.5 L 241.9 10.5" stroke-width="3.00"/>
<path d="M 241.9 10.5 L 241.9 10.6" stroke-width="2.60"/>
<circle cx="246.0" cy="18.7" r="0.77" fill="currentColor" stroke="none"/>
<path d="M 246.0 18.7 L 246.1 19.2" stroke-width="2.00"/>
<path d="M 246.1 19.2 L 246.1 20.0" stroke-width="2.40"/>
<path d="M 246.1 20.0 L 246.1 21.2" stroke-width="2.60"/>
<path d="M 246.1 21.2 L 246.0 22.5 L 245.9 23.7 L 245.8 24.7" stroke-width="2.40"/>
<path d="M 245.8 24.7 L 245.9 25.4" stroke-width="2.60"/>
<path d="M 245.9 25.4 L 246.1 25.7" stroke-width="2.80"/>
<path d="M 246.1 25.7 L 246.5 25.5 L 247.0 24.9" stroke-width="3.20"/>
<path d="M 247.0 24.9 L 247.7 23.9" stroke-width="3.00"/>
<path d="M 247.7 23.9 L 248.6 22.6" stroke-width="2.60"/>
<path d="M 248.6 22.6 L 249.7 21.2" stroke-width="2.20"/>
<path d="M 249.7 21.2 L 251.0 19.8 L 252.3 18.8 L 253.5 18.0 L 254.6 17.6" stroke-width="2.00"/>
<path d="M 254.6 17.6 L 255.6 17.7" stroke-width="2.20"/>
<path d="M 255.6 17.7 L 256.2 18.3 L 256.6 19.4 L 256.8 20.8" stroke-width="2.40"/>
<path d="M 256.8 20.8 L 256.9 22.4" stroke-width="2.20"/>
<path d="M 256.9 22.4 L 256.9 23.7" stroke-width="2.00"/>
<path d="M 256.9 23.7 L 256.9 24.6" stroke-width="1.80"/>
<circle cx="267.7" cy="20.4" r="0.77" fill="currentColor" stroke="none"/>
<path d="M 267.7 20.4 L 267.6 19.9" stroke-width="1.80"/>
<path d="M 267.6 19.9 L 267.4 19.1" stroke-width="2.40"/>
<path d="M 267.4 19.1 L 266.9 18.4 L 266.1 18.0" stroke-width="2.80"/>
<path d="M 266.1 18.0 L 264.9 18.0" stroke-width="2.60"/>
<path d="M 264.9 18.0 L 263.5 18.3" stroke-width="2.40"/>
<path d="M 263.5 18.3 L 262.2 19.1 L 261.2 20.0 L 260.6 21.0" stroke-width="2.20"/>
<path d="M 260.6 21.0 L 260.6 21.9 L 261.2 22.5" stroke-width="2.40"/>
<path d="M 261.2 22.5 L 262.2 22.7" stroke-width="2.60"/>
<path d="M 262.2 22.7 L 263.6 22.6" stroke-width="2.40"/>
<path d="M 263.6 22.6 L 265.1 22.2" stroke-width="2.20"/>
<path d="M 265.1 22.2 L 266.7 21.7 L 268.1 21.0 L 269.3 20.5" stroke-width="2.00"/>
<path d="M 269.3 20.5 L 270.0 20.1" stroke-width="2.20"/>
<path d="M 270.0 20.1 L 270.5 20.1" stroke-width="2.40"/>
<path d="M 270.5 20.1 L 270.6 20.3" stroke-width="2.80"/>
<path d="M 270.6 20.3 L 270.6 21.0" stroke-width="3.20"/>
<path d="M 270.6 21.0 L 270.5 22.0" stroke-width="3.00"/>
<path d="M 270.5 22.0 L 270.3 23.4" stroke-width="2.80"/>
<path d="M 270.3 23.4 L 270.1 25.1" stroke-width="2.40"/>
<path d="M 270.1 25.1 L 269.9 27.0" stroke-width="2.20"/>
<path d="M 269.9 27.0 L 269.7 28.9" stroke-width="2.00"/>
<path d="M 269.7 28.9 L 269.5 30.9 L 269.2 32.7 L 268.8 34.3 L 268.3 35.6" stroke-width="1.80"/>
<path d="M 268.3 35.6 L 267.6 36.5" stroke-width="2.00"/>
<path d="M 267.6 36.5 L 266.7 36.8 L 265.6 36.7" stroke-width="2.20"/>
<path d="M 265.6 36.7 L 264.6 36.1" stroke-width="2.40"/>
<path d="M 264.6 36.1 L 263.8 35.4" stroke-width="2.20"/>
<path d="M 263.8 35.4 L 263.3 34.9" stroke-width="2.00"/>
<circle cx="289.8" cy="18.3" r="0.77" fill="currentColor" stroke="none"/>
<path d="M 289.8 18.3 L 289.7 18.0" stroke-width="2.00"/>
<path d="M 289.7 18.0 L 289.5 17.6" stroke-width="2.60"/>
<path d="M 289.5 17.6 L 289.1 17.2" stroke-width="3.00"/>
<path d="M 289.1 17.2 L 288.3 16.9" stroke-width="3.20"/>
<path d="M 288.3 16.9 L 287.2 16.9" stroke-width="3.00"/>
<path d="M 287.2 16.9 L 285.9 17.3" stroke-width="2.60"/>
<path d="M 285.9 17.3 L 284.3 18.0" stroke-width="2.40"/>
<path d="M 284.3 18.0 L 282.9 19.2" stroke-width="2.20"/>
<path d="M 282.9 19.2 L 281.7 20.5 L 281.0 21.8 L 280.8 23.0" stroke-width="2.00"/>
<path d="M 280.8 23.0 L 281.2 23.9 L 282.1 24.4" stroke-width="2.20"/>
<path d="M 282.1 24.4 L 283.4 24.3" stroke-width="2.40"/>
<path d="M 283.4 24.3 L 284.9 23.7" stroke-width="2.20"/>
<path d="M 284.9 23.7 L 286.6 22.7" stroke-width="2.00"/>
<path d="M 286.6 22.7 L 288.2 21.4 L 289.7 20.1 L 290.9 18.7 L 291.7 17.6" stroke-width="1.80"/>
<path d="M 291.7 17.6 L 292.2 16.8" stroke-width="2.00"/>
<path d="M 292.2 16.8 L 292.4 16.4" stroke-width="2.20"/>
<path d="M 292.4 16.4 L 292.3 16.4" stroke-width="2.80"/>
<path d="M 292.3 16.4 L 292.0 17.0" stroke-width="3.20"/>
<path d="M 292.0 17.0 L 291.6 18.0" stroke-width="3.00"/>
<path d="M 291.6 18.0 L 291.1 19.5" stroke-width="2.60"/>
<path d="M 291.1 19.5 L 290.9 21.1" stroke-width="2.40"/>
<path d="M 290.9 21.1 L 290.9 22.6 L 291.2 23.9 L 292.0 24.6 L 292.8 24.9" stroke-width="2.20"/>
<path d="M 292.8 24.9 L 293.5 25.0" stroke-width="2.00"/>
<circle cx="305.0" cy="15.6" r="0.77" fill="currentColor" stroke="none"/>
<path d="M 305.0 15.6 L 304.6 15.4" stroke-width="2.00"/>
<path d="M 304.6 15.4 L 303.9 15.3 L 302.8 15.3" stroke-width="2.60"/>
<path d="M 302.8 15.3 L 301.4 15.7 L 300.0 16.2" stroke-width="2.40"/>
<path d="M 300.0 16.2 L 298.9 17.0 L 298.3 17.8" stroke-width="2.20"/>
<path d="M 298.3 17.8 L 298.3 18.7 L 298.9 19.6 L 300.0 20.5" stroke-width="2.40"/>
<path d="M 300.0 20.5 L 301.4 21.5" stroke-width="2.20"/>
<path d="M 301.4 21.5 L 302.8 22.4 L 304.1 23.2 L 305.0 23.9" stroke-width="2.00"/>
<path d="M 305.0 23.9 L 305.2 24.5" stroke-width="2.20"/>
<path d="M 305.2 24.5 L 304.8 25.0 L 303.8 25.4" stroke-width="2.60"/>
<path d="M 303.8 25.4 L 302.3 25.7" stroke-width="2.40"/>
<path d="M 302.3 25.7 L 300.4 25.9" stroke-width="2.20"/>
<path d="M 300.4 25.9 L 298.7 25.9 L 297.2 25.7 L 296.2 25.5" stroke-width="2.00"/>
<path d="M 296.2 25.5 L 295.7 25.2 L 295.5 25.1" stroke-width="2.20"/>
<circle cx="318.6" cy="17.3" r="0.77" fill="currentColor" stroke="none"/>
<path d="M 318.6 17.3 L 318.6 17.9" stroke-width="1.80"/>
<path d="M 318.6 17.9 L 318.5 18.9 L 318.4 20.3" stroke-width="2.40"/>
<path d="M 318.4 20.3 L 318.2 21.8 L 318.1 23.3 L 318.1 24.5 L 318.1 25.3" stroke-width="2.20"/>
<path d="M 318.1 25.3 L 318.1 25.8" stroke-width="2.00"/>
<circle cx="319.3" cy="10.2" r="0.77" fill="currentColor" stroke="none"/>
<path d="M 319.3 10.2 L 319.3 10.0" stroke-width="2.00"/>
<path d="M 319.3 10.0 L 319.4 9.8" stroke-width="2.80"/>
<path d="M 319.4 9.8 L 319.4 9.7" stroke-width="3.00"/>
<path d="M 319.4 9.7 L 319.5 9.6" stroke-width="2.60"/>
<circle cx="328.8" cy="8.9" r="0.77" fill="currentColor" stroke="none"/>
<path d="M 328.8 8.9 L 328.7 9.5" stroke-width="1.80"/>
<path d="M 328.7 9.5 L 328.6 10.5 L 328.4 12.1" stroke-width="2.40"/>
<path d="M 328.4 12.1 L 328.1 14.0" stroke-width="2.20"/>
<path d="M 328.1 14.0 L 327.7 16.2 L 327.4 18.5" stroke-width="1.80"/>
<path d="M 327.4 18.5 L 327.1 20.8 L 327.0 22.9 L 327.1 24.7 L 327.4 26.0" stroke-width="1.60"/>
<path d="M 327.4 26.0 L 327.6 26.8 L 327.9 27.1" stroke-width="1.80"/>
<circle cx="323.8" cy="17.9" r="0.77" fill="currentColor" stroke="none"/>
<path d="M 323.8 17.9 L 324.3 18.0" stroke-width="1.80"/>
<path d="M 324.3 18.0 L 325.5 18.1" stroke-width="2.40"/>
<path d="M 325.5 18.1 L 326.9 18.1" stroke-width="2.20"/>
<path d="M 326.9 18.1 L 327.9 18.2" stroke-width="1.80"/>
<circle cx="349.8" cy="17.1" r="0.77" fill="currentColor" stroke="none"/>
<path d="M 349.8 17.1 L 349.5 16.9" stroke-width="2.00"/>
<path d="M 349.5 16.9 L 348.9 16.6" stroke-width="2.60"/>
<path d="M 348.9 16.6 L 348.0 16.4 L 346.9 16.6" stroke-width="2.80"/>
<path d="M 346.9 16.6 L 345.6 17.1" stroke-width="2.60"/>
<path d="M 345.6 17.1 L 344.4 18.0" stroke-width="2.40"/>
<path d="M 344.4 18.0 L 343.3 19.1 L 342.7 20.3 L 342.5 21.3" stroke-width="2.20"/>
<path d="M 342.5 21.3 L 342.9 22.1 L 343.8 22.5 L 345.1 22.4" stroke-width="2.40"/>
<path d="M 345.1 22.4 L 346.7 21.8" stroke-width="2.20"/>
<path d="M 346.7 21.8 L 348.3 20.9 L 349.7 19.8" stroke-width="2.00"/>
<path d="M 349.7 19.8 L 350.8 18.6" stroke-width="1.80"/>
<path d="M 350.8 18.6 L 351.6 17.6 L 352.0 16.8" stroke-width="2.00"/>
<path d="M 352.0 16.8 L 352.1 16.5" stroke-width="2.40"/>
<path d="M 352.1 16.5 L 352.0 16.5" stroke-width="3.00"/>
<path d="M 352.0 16.5 L 351.8 17.1" stroke-width="3.20"/>
<path d="M 351.8 17.1 L 351.6 18.2" stroke-width="3.00"/>
<path d="M 351.6 18.2 L 351.4 19.7" stroke-width="2.60"/>
<path d="M 351.4 19.7 L 351.3 21.7" stroke-width="2.20"/>
<path d="M 351.3 21.7 L 351.2 24.0" stroke-width="2.00"/>
<path d="M 351.2 24.0 L 351.1 26.3" stroke-width="1.80"/>
<path d="M 351.1 26.3 L 351.0 28.6 L 350.9 30.7 L 350.6 32.3" stroke-width="1.60"/>
<path d="M 350.6 32.3 L 350.1 33.6 L 349.4 34.3" stroke-width="1.80"/>
<path d="M 349.4 34.3 L 348.5 34.5" stroke-width="2.00"/>
<path d="M 348.5 34.5 L 347.5 34.2" stroke-width="2.20"/>
<path d="M 347.5 34.2 L 346.6 33.5" stroke-width="2.40"/>
<path d="M 346.6 33.5 L 345.9 32.8" stroke-width="2.20"/>
<path d="M 345.9 32.8 L 345.6 32.2" stroke-width="2.00"/>
<circle cx="361.8" cy="17.7" r="0.77" fill="currentColor" stroke="none"/>
<path d="M 361.8 17.7 L 361.6 17.5" stroke-width="2.00"/>
<path d="M 361.6 17.5 L 361.1 17.1" stroke-width="2.60"/>
<path d="M 361.1 17.1 L 360.3 16.9 L 359.1 17.0" stroke-width="2.80"/>
<path d="M 359.1 17.0 L 357.8 17.5" stroke-width="2.60"/>
<path d="M 357.8 17.5 L 356.4 18.4 L 355.3 19.6" stroke-width="2.20"/>
<path d="M 355.3 19.6 L 354.5 21.0 L 354.3 22.3 L 354.7 23.5" stroke-width="2.00"/>
<path d="M 354.7 23.5 L 355.6 24.4 L 357.0 24.8" stroke-width="2.20"/>
<path d="M 357.0 24.8 L 358.6 24.7 L 360.2 24.0" stroke-width="2.00"/>
<path d="M 360.2 24.0 L 361.6 22.9 L 362.6 21.5 L 363.1 19.9 L 363.2 18.4" stroke-width="1.80"/>
<path d="M 363.2 18.4 L 362.8 17.1 L 362.3 16.2" stroke-width="2.00"/>
<path d="M 362.3 16.2 L 361.6 15.6" stroke-width="2.20"/>
<path d="M 361.6 15.6 L 361.1 15.5" stroke-width="2.40"/>
<path d="M 361.1 15.5 L 360.7 15.7" stroke-width="2.60"/>
<path d="M 360.7 15.7 L 360.5 15.9" stroke-width="2.40"/>
<circle cx="366.8" cy="21.2" r="0.77" fill="currentColor" stroke="none"/>
<path d="M 366.8 21.2 L 367.2 20.9" stroke-width="2.00"/>
<path d="M 367.2 20.9 L 367.8 20.3" stroke-width="2.40"/>
<path d="M 367.8 20.3 L 368.7 19.5" stroke-width="2.60"/>
<path d="M 368.7 19.5 L 369.6 18.5 L 370.3 17.4 L 370.8 16.4 L 370.9 15.5" stroke-width="2.40"/>
<path d="M 370.9 15.5 L 370.8 14.9" stroke-width="2.60"/>
<path d="M 370.8 14.9 L 370.3 14.6" stroke-width="2.80"/>
<path d="M 370.3 14.6 L 369.4 14.7" stroke-width="3.00"/>
<path d="M 369.4 14.7 L 368.4 15.2" stroke-width="2.80"/>
<path d="M 368.4 15.2 L 367.3 16.2" stroke-width="2.60"/>
<path d="M 367.3 16.2 L 366.3 17.5 L 365.6 19.0" stroke-width="2.20"/>
<path d="M 365.6 19.0 L 365.4 20.5 L 366.0 21.9 L 367.2 22.9" stroke-width="2.00"/>
<path d="M 367.2 22.9 L 369.2 23.5" stroke-width="1.80"/>
<path d="M 369.2 23.5 L 371.1 23.8" stroke-width="1.60"/>
<path d="M 371.1 23.8 L 372.4 23.8" stroke-width="1.40"/>
<circle cx="383.4" cy="13.9" r="0.77" fill="currentColor" stroke="none"/>
<path d="M 383.4 13.9 L 382.9 13.7" stroke-width="1.80"/>
<path d="M 382.9 13.7 L 382.0 13.6" stroke-width="2.40"/>
<path d="M 382.0 13.6 L 380.8 13.7" stroke-width="2.60"/>
<path d="M 380.8 13.7 L 379.5 14.1 L 378.3 14.7 L 377.7 15.6 L 377.7 16.6 L 378.5 17.7" stroke-width="2.40"/>
<path d="M 378.5 17.7 L 379.8 18.9" stroke-width="2.20"/>
<path d="M 379.8 18.9 L 381.6 20.1" stroke-width="2.00"/>
<path d="M 381.6 20.1 L 383.5 21.2" stroke-width="1.80"/>
<path d="M 383.5 21.2 L 385.2 22.2" stroke-width="1.60"/>
<path d="M 385.2 22.2 L 386.4 23.1" stroke-width="1.80"/>
<path d="M 386.4 23.1 L 386.7 23.7" stroke-width="2.00"/>
<path d="M 386.7 23.7 L 386.2 24.1" stroke-width="2.20"/>
<path d="M 386.2 24.1 L 384.7 24.3" stroke-width="2.40"/>
<path d="M 384.7 24.3 L 382.6 24.2" stroke-width="2.00"/>
<path d="M 382.6 24.2 L 380.2 24.0" stroke-width="1.80"/>
<path d="M 380.2 24.0 L 378.1 23.7" stroke-width="1.60"/>
<path d="M 378.1 23.7 L 376.8 23.4" stroke-width="1.40"/>
</svg>
