<svg xmlns="http://www.w3.org/2000/svg" viewBox="0 0 392.4 46.9" fill="none" stroke="currentColor" stroke-linecap="round" stroke-linejoin="round" role="img">
<circle cx="14.7" cy="17.4" r="0.77" fill="currentColor" stroke="none"/>
<path d="M 14.7 17.4 L 14.4 17.1" stroke-width="2.00"/>
<path d="M 14.4 17.1 L 13.8 16.8" stroke-width="2.60"/>
<path d="M 13.8 16.8 L 12.9 16.7 L 11.7 16.9" stroke-width="2.80"/>
<path d="M 11.7 16.9 L 10.3 17.6" stroke-width="2.60"/>
<path d="M 10.3 17.6 L 8.9 18.8" stroke-width="2.20"/>
<path d="M 8.9 18.8 L 7.6 20.5" stroke-width="2.00"/>
<path d="M 7.6 20.5 L 6.7 22.5 L 6.1 24.7" stroke-width="1.80"/>
<path d="M 6.1 24.7 L 6.0 26.7" stroke-width="1.60"/>
<path d="M 6.0 26.7 L 6.4 28.3 L 7.1 29.4" stroke-width="1.80"/>
<path d="M 7.1 29.4 L 8.1 29.9" stroke-width="2.00"/>
<path d="M 8.1 29.9 L 9.3 29.8 L 10.6 28.9" stroke-width="2.20"/>
<path d="M 10.6 28.9 L 11.9 27.6" stroke-width="2.00"/>
<path d="M 11.9 27.6 L 13.1 25.7 L 14.2 23.6" stroke-width="1.80"/>
<path d="M 14.2 23.6 L 15.0 21.4 L 15.6 19.3 L 16.0 17.5" stroke-width="1.60"/>
<path d="M 16.0 17.5 L 16.3 16.1" stroke-width="1.80"/>
<path d="M 16.3 16.1 L 16.3 15.3" stroke-width="2.00"/>
<path d="M 16.3 15.3 L 16.3 15.1" stroke-width="2.40"/>
<path d="M 16.3 15.1 L 16.3 15.7 L 16.2 16.9" stroke-width="2.80"/>
<path d="M 16.2 16.9 L 16.1 18.7" stroke-width="2.40"/>
<path d="M 16.1 18.7 L 16.0 21.0" stroke-width="2.20"/>
<path d="M 16.0 21.0 L 16.0 23.6" stroke-width="1.80"/>
<path d="M 16.0 23.6 L 16.1 26.2 L 16.3 28.5 L 16.6 30.5 L 17.1 31.8" stroke-width="1.60"/>
<path d="M 17.1 31.8 L 17.7 32.6" stroke-width="1.80"/>
<path d="M 17.7 32.6 L 18.3 32.9 L 18.7 32.9" stroke-width="2.00"/>
<circle cx="38.9" cy="7.5" r="0.77" fill="currentColor" stroke="none"/>
<path d="M 38.9 7.5 L 38.8 8.0" stroke-width="2.00"/>
<path d="M 38.8 8.0 L 38.7 8.9" stroke-width="2.40"/>
<path d="M 38.7 8.9 L 38.5 10.3" stroke-width="2.60"/>
<path d="M 38.5 10.3 L 38.3 12.3" stroke-width="2.20"/>
<path d="M 38.3 12.3 L 38.1 14.7" stroke-width="2.00"/>
<path d="M 38.1 14.7 L 37.8 17.5" stroke-width="1.80"/>
<path d="M 37.8 17.5 L 37.6 20.4" stroke-width="1.60"/>
<path d="M 37.6 20.4 L 37.4 23.3 L 37.4 25.9 L 37.4 28.1" stroke-width="1.40"/>
<path d="M 37.4 28.1 L 37.6 29.8 L 38.0 30.8" stroke-width="1.60"/>
<path d="M 38.0 30.8 L 38.4 31.1" stroke-width="2.00"/>
<path d="M 38.4 31.1 L 39.0 30.8 L 39.8 30.0 L 40.7 28.6" stroke-width="2.40"/>
<path d="M 40.7 28.6 L 41.7 26.7" stroke-width="2.20"/>
<path d="M 41.7 26.7 L 42.8 24.7 L 44.0 22.6" stroke-width="1.80"/>
<path d="M 44.0 22.6 L 45.2 20.7 L 46.3 19.1" stroke-width="1.60"/>
<path d="M 46.3 19.1 L 47.2 17.9 L 48.0 17.3" stroke-width="1.80"/>
<path d="M 48.0 17.3 L 48.5 17.2" stroke-width="2.20"/>
<path d="M 48.5 17.2 L 48.7 17.9 L 48.8 19.1" stroke-width="2.60"/>
<path d="M 48.8 19.1 L 48.8 20.9" stroke-width="2.40"/>
<path d="M 48.8 20.9 L 48.6 23.0" stroke-width="2.20"/>
<path d="M 48.6 23.0 L 48.4 25.1" stroke-width="2.00"/>
<path d="M 48.4 25.1 L 48.1 27.1 L 47.9 28.8 L 47.8 30.0" stroke-width="1.80"/>
<path d="M 47.8 30.0 L 47.7 30.7" stroke-width="2.20"/>
<path d="M 47.7 30.7 L 47.7 30.9" stroke-width="2.60"/>
<path d="M 47.7 30.9 L 47.7 30.6" stroke-width="2.80"/>
<path d="M 47.7 30.6 L 47.8 30.3" stroke-width="2.60"/>
<circle cx="48.9" cy="9.7" r="0.77" fill="currentColor" stroke="none"/>
<path d="M 48.9 9.7 L 49.0 9.6" stroke-width="2.00"/>
<path d="M 49.0 9.6 L 49.1 9.6" stroke-width="2.80"/>
<path d="M 49.1 9.6 L 49.2 9.6" stroke-width="3.00"/>
<path d="M 49.2 9.6 L 49.2 9.6" stroke-width="2.60"/>
<circle cx="53.3" cy="19.2" r="0.77" fill="currentColor" stroke="none"/>
<path d="M 53.3 19.2 L 53.4 18.8" stroke-width="2.00"/>
<path d="M 53.4 18.8 L 53.5 18.5" stroke-width="2.80"/>
<path d="M 53.5 18.5 L 53.6 18.3 L 53.7 18.6 L 53.7 19.4" stroke-width="3.20"/>
<path d="M 53.7 19.4 L 53.7 20.8" stroke-width="3.00"/>
<path d="M 53.7 20.8 L 53.6 22.6" stroke-width="2.60"/>
<path d="M 53.6 22.6 L 53.5 24.5" stroke-width="2.20"/>
<path d="M 53.5 24.5 L 53.4 26.5 L 53.3 28.2 L 53.3 29.6" stroke-width="2.00"/>
<path d="M 53.3 29.6 L 53.3 30.4" stroke-width="2.20"/>
<path d="M 53.3 30.4 L 53.5 30.6" stroke-width="2.60"/>
<path d="M 53.5 30.6 L 53.7 30.2 L 54.0 29.2" stroke-width="3.00"/>
<path d="M 54.0 29.2 L 54.6 27.7" stroke-width="2.80"/>
<path d="M 54.6 27.7 L 55.3 25.8" stroke-width="2.40"/>
<path d="M 55.3 25.8 L 56.2 23.7" stroke-width="2.00"/>
<path d="M 56.2 23.7 L 57.3 21.6" stroke-width="1.80"/>
<path d="M 57.3 21.6 L 58.5 19.8 L 59.7 18.3" stroke-width="1.60"/>
<path d="M 59.7 18.3 L 60.8 17.3" stroke-width="1.80"/>
<path d="M 60.8 17.3 L 61.8 16.9" stroke-width="2.00"/>
<path d="M 61.8 16.9 L 62.6 17.0" stroke-width="2.20"/>
<path d="M 62.6 17.0 L 63.2 17.7 L 63.6 18.9 L 63.8 20.5" stroke-width="2.40"/>
<path d="M 63.8 20.5 L 63.9 22.4" stroke-width="2.20"/>
<path d="M 63.9 22.4 L 63.9 24.3" stroke-width="2.00"/>
<path d="M 63.9 24.3 L 63.8 26.2 L 63.8 27.5" stroke-width="1.80"/>
<path d="M 63.8 27.5 L 63.8 28.3" stroke-width="1.60"/>
<circle cx="66.7" cy="25.2" r="0.77" fill="currentColor" stroke="none"/>
<path d="M 66.7 25.2 L 67.0 24.9" stroke-width="2.00"/>
<path d="M 67.0 24.9 L 67.6 24.2" stroke-width="2.40"/>
<path d="M 67.6 24.2 L 68.4 23.3" stroke-width="2.60"/>
<path d="M 68.4 23.3 L 69.4 22.1" stroke-width="2.40"/>
<path d="M 69.4 22.1 L 70.3 20.8 L 71.1 19.4" stroke-width="2.20"/>
<path d="M 71.1 19.4 L 71.7 18.0" stroke-width="2.00"/>
<path d="M 71.7 18.0 L 72.1 16.8 L 72.2 15.8" stroke-width="2.20"/>
<path d="M 72.2 15.8 L 72.0 15.2" stroke-width="2.40"/>
<path d="M 72.0 15.2 L 71.5 15.1" stroke-width="2.80"/>
<path d="M 71.5 15.1 L 70.7 15.6" stroke-width="3.00"/>
<path d="M 70.7 15.6 L 69.8 16.7" stroke-width="2.80"/>
<path d="M 69.8 16.7 L 69.0 18.3" stroke-width="2.40"/>
<path d="M 69.0 18.3 L 68.3 20.3" stroke-width="2.20"/>
<path d="M 68.3 20.3 L 68.0 22.4" stroke-width="2.00"/>
<path d="M 68.0 22.4 L 68.2 24.5 L 68.9 26.3 L 70.0 27.7 L 71.6 28.7 L 73.4 29.1 L 75.3 29.1" stroke-width="1.80"/>
<path d="M 75.3 29.1 L 76.9 28.8 L 77.9 28.5" stroke-width="1.60"/>
<circle cx="93.6" cy="18.9" r="0.77" fill="currentColor" stroke="none"/>
<path d="M 93.6 18.9 L 93.5 18.6" stroke-width="2.00"/>
<path d="M 93.5 18.6 L 93.2 18.3" stroke-width="2.60"/>
<path d="M 93.2 18.3 L 92.6 17.9 L 91.8 17.7 L 90.8 17.9" stroke-width="3.00"/>
<path d="M 90.8 17.9 L 89.6 18.5" stroke-width="2.80"/>
<path d="M 89.6 18.5 L 88.4 19.6" stroke-width="2.40"/>
<path d="M 88.4 19.6 L 87.4 21.0" stroke-width="2.20"/>
<path d="M 87.4 21.0 L 86.6 22.8 L 86.2 24.6" stroke-width="2.00"/>
<path d="M 86.2 24.6 L 86.4 26.3" stroke-width="1.80"/>
<path d="M 86.4 26.3 L 87.1 27.7 L 88.3 28.5 L 89.9 28.7 L 91.8 28.4" stroke-width="2.00"/>
<path d="M 91.8 28.4 L 93.7 27.6 L 95.4 26.3 L 96.8 24.7" stroke-width="1.80"/>
<path d="M 96.8 24.7 L 97.6 23.0" stroke-width="1.60"/>
<path d="M 97.6 23.0 L 97.9 21.4 L 97.7 19.9" stroke-width="1.80"/>
<path d="M 97.7 19.9 L 97.0 18.8 L 95.9 18.1" stroke-width="2.00"/>
<path d="M 95.9 18.1 L 94.7 17.9 L 93.7 18.0" stroke-width="2.20"/>
<path d="M 93.7 18.0 L 92.8 18.5 L 92.3 19.0" stroke-width="2.40"/>
<path d="M 92.3 19.0 L 92.1 19.3" stroke-width="2.20"/>
<circle cx="109.6" cy="9.1" r="0.77" fill="currentColor" stroke="none"/>
<path d="M 109.6 9.1 L 109.4 8.4" stroke-width="1.80"/>
<path d="M 109.4 8.4 L 109.1 7.5" stroke-width="2.40"/>
<path d="M 109.1 7.5 L 108.5 6.7 L 107.7 6.2" stroke-width="2.60"/>
<path d="M 107.7 6.2 L 106.8 6.4" stroke-width="2.80"/>
<path d="M 106.8 6.4 L 105.9 7.2" stroke-width="2.60"/>
<path d="M 105.9 7.2 L 105.0 8.6" stroke-width="2.40"/>
<path d="M 105.0 8.6 L 104.2 10.6" stroke-width="2.20"/>
<path d="M 104.2 10.6 L 103.5 13.3" stroke-width="1.80"/>
<path d="M 103.5 13.3 L 102.9 16.3" stroke-width="1.60"/>
<path d="M 102.9 16.3 L 102.6 19.7" stroke-width="1.40"/>
<path d="M 102.6 19.7 L 102.5 23.2 L 102.6 26.5 L 102.9 29.6 L 103.3 32.3 L 103.8 34.4" stroke-width="1.20"/>
<path d="M 103.8 34.4 L 104.3 35.7" stroke-width="1.40"/>
<path d="M 104.3 35.7 L 104.7 36.3" stroke-width="1.80"/>
<path d="M 104.7 36.3 L 105.0 36.3 L 105.2 36.2" stroke-width="2.00"/>
<circle cx="98.6" cy="21.4" r="0.77" fill="currentColor" stroke="none"/>
<path d="M 98.6 21.4 L 98.6 21.4" stroke-width="2.00"/>
<path d="M 98.6 21.4 L 98.7 21.5" stroke-width="2.80"/>
<path d="M 98.7 21.5 L 99.1 21.5 L 100.0 21.7" stroke-width="3.20"/>
<path d="M 100.0 21.7 L 101.4 21.8" stroke-width="3.00"/>
<path d="M 101.4 21.8 L 103.0 22.0" stroke-width="2.60"/>
<path d="M 103.0 22.0 L 104.6 22.1" stroke-width="2.20"/>
<path d="M 104.6 22.1 L 105.6 22.2" stroke-width="1.80"/>
<circle cx="123.4" cy="17.6" r="0.77" fill="currentColor" stroke="none"/>
<path d="M 123.4 17.6 L 123.3 17.9" stroke-width="2.00"/>
<path d="M 123.3 17.9 L 123.2 18.7 L 122.9 19.9" stroke-width="2.60"/>
<path d="M 122.9 19.9 L 122.6 21.4" stroke-width="2.40"/>
<path d="M 122.6 21.4 L 122.4 23.2" stroke-width="2.20"/>
<path d="M 122.4 23.2 L 122.2 25.2 L 122.0 27.1" stroke-width="2.00"/>
<path d="M 122.0 27.1 L 122.0 28.7" stroke-width="1.80"/>
<path d="M 122.0 28.7 L 122.1 29.9" stroke-width="2.00"/>
<path d="M 122.1 29.9 L 122.4 30.6" stroke-width="2.20"/>
<path d="M 122.4 30.6 L 122.6 30.8 L 122.8 30.8" stroke-width="2.40"/>
<circle cx="122.6" cy="9.4" r="0.77" fill="currentColor" stroke="none"/>
<path d="M 122.6 9.4 L 122.6 9.1" stroke-width="2.00"/>
<path d="M 122.6 9.1 L 122.7 8.8" stroke-width="2.80"/>
<path d="M 122.7 8.8 L 122.8 8.5 L 122.9 8.4 L 123.0 8.5 L 123.2 8.8" stroke-width="3.20"/>
<path d="M 123.2 8.8 L 123.5 9.1" stroke-width="3.00"/>
<path d="M 123.5 9.1 L 123.7 9.3" stroke-width="2.60"/>
<circle cx="126.9" cy="16.0" r="0.77" fill="currentColor" stroke="none"/>
<path d="M 126.9 16.0 L 126.9 16.5" stroke-width="1.80"/>
<path d="M 126.9 16.5 L 126.9 17.5" stroke-width="2.40"/>
<path d="M 126.9 17.5 L 126.9 18.9" stroke-width="2.60"/>
<path d="M 126.9 18.9 L 126.9 20.5" stroke-width="2.40"/>
<path d="M 126.9 20.5 L 126.9 22.3" stroke-width="2.20"/>
<path d="M 126.9 22.3 L 126.9 24.1 L 126.9 25.8 L 127.0 27.2" stroke-width="2.00"/>
<path d="M 127.0 27.2 L 127.0 28.1" stroke-width="2.20"/>
<path d="M 127.0 28.1 L 127.0 28.5" stroke-width="2.40"/>
<path d="M 127.0 28.5 L 127.0 28.5" stroke-width="3.00"/>
<path d="M 127.0 28.5 L 127.0 27.9" stroke-width="3.20"/>
<path d="M 127.0 27.9 L 127.1 26.8" stroke-width="3.00"/>
<path d="M 127.1 26.8 L 127.4 25.2" stroke-width="2.80"/>
<path d="M 127.4 25.2 L 127.8 23.4" stroke-width="2.40"/>
<path d="M 127.8 23.4 L 128.5 21.5 L 129.3 19.7" stroke-width="2.00"/>
<path d="M 129.3 19.7 L 130.4 18.1 L 131.7 16.8 L 132.9 16.0" stroke-width="1.80"/>
<path d="M 132.9 16.0 L 134.1 15.7" stroke-width="2.00"/>
<path d="M 134.1 15.7 L 135.2 16.0 L 136.1 16.9 L 136.8 18.3" stroke-width="2.20"/>
<path d="M 136.8 18.3 L 137.2 20.1 L 137.4 22.3" stroke-width="2.00"/>
<path d="M 137.4 22.3 L 137.4 24.5 L 137.4 26.5 L 137.4 28.1 L 137.5 29.3" stroke-width="1.80"/>
<path d="M 137.5 29.3 L 137.6 29.9 L 137.7 30.2" stroke-width="2.00"/>
<circle cx="143.6" cy="7.3" r="0.77" fill="currentColor" stroke="none"/>
<path d="M 143.6 7.3 L 143.6 7.1" stroke-width="2.00"/>
<path d="M 143.6 7.1 L 143.5 7.0" stroke-width="2.80"/>
<path d="M 143.5 7.0 L 143.5 7.4 L 143.4 8.4" stroke-width="3.20"/>
<path d="M 143.4 8.4 L 143.4 10.1" stroke-width="2.80"/>
<path d="M 143.4 10.1 L 143.3 12.3" stroke-width="2.40"/>
<path d="M 143.3 12.3 L 143.2 14.8" stroke-width="2.00"/>
<path d="M 143.2 14.8 L 143.1 17.5 L 143.0 20.2" stroke-width="1.60"/>
<path d="M 143.0 20.2 L 142.9 22.8 L 142.9 25.0" stroke-width="1.40"/>
<path d="M 142.9 25.0 L 142.9 26.7" stroke-width="1.60"/>
<path d="M 142.9 26.7 L 142.9 27.8" stroke-width="1.80"/>
<path d="M 142.9 27.8 L 142.9 28.4" stroke-width="2.00"/>
<path d="M 142.9 28.4 L 143.0 28.3" stroke-width="2.60"/>
<path d="M 143.0 28.3 L 143.3 27.7" stroke-width="3.00"/>
<path d="M 143.3 27.7 L 143.8 26.6" stroke-width="2.80"/>
<path d="M 143.8 26.6 L 144.6 25.0" stroke-width="2.60"/>
<path d="M 144.6 25.0 L 145.7 23.3" stroke-width="2.20"/>
<path d="M 145.7 23.3 L 147.1 21.4" stroke-width="2.00"/>
<path d="M 147.1 21.4 L 148.7 19.6" stroke-width="1.80"/>
<path d="M 148.7 19.6 L 150.3 18.0 L 151.9 16.8 L 153.3 16.0" stroke-width="1.60"/>
<path d="M 153.3 16.0 L 154.3 15.5" stroke-width="1.80"/>
<path d="M 154.3 15.5 L 154.8 15.3" stroke-width="2.20"/>
<path d="M 154.8 15.3 L 155.0 15.4 L 154.9 15.5" stroke-width="2.40"/>
<circle cx="145.8" cy="21.6" r="0.77" fill="currentColor" stroke="none"/>
<path d="M 145.8 21.6 L 146.1 22.2" stroke-width="1.80"/>
<path d="M 146.1 22.2 L 146.6 23.1 L 147.5 24.2 L 148.6 25.4" stroke-width="2.40"/>
<path d="M 148.6 25.4 L 149.9 26.4" stroke-width="2.20"/>
<path d="M 149.9 26.4 L 151.3 27.2 L 152.6 27.8" stroke-width="2.00"/>
<path d="M 152.6 27.8 L 153.8 28.3 L 154.7 28.5" stroke-width="2.20"/>
<path d="M 154.7 28.5 L 155.4 28.6" stroke-width="2.40"/>
<path d="M 155.4 28.6 L 155.7 28.6" stroke-width="2.60"/>
<path d="M 155.7 28.6 L 155.9 28.5" stroke-width="2.40"/>
<circle cx="160.6" cy="26.2" r="0.77" fill="currentColor" stroke="none"/>
<path d="M 160.6 26.2 L 160.7 26.4" stroke-width="2.00"/>
<path d="M 160.7 26.4 L 160.8 27.0" stroke-width="2.60"/>
<path d="M 160.8 27.0 L 160.9 27.9" stroke-width="3.00"/>
<path d="M 160.9 27.9 L 160.9 29.1" stroke-width="2.80"/>
<path d="M 160.9 29.1 L 160.6 30.5" stroke-width="2.60"/>
<path d="M 160.6 30.5 L 160.2 32.1" stroke-width="2.40"/>
<path d="M 160.2 32.1 L 159.6 33.8" stroke-width="2.20"/>
<path d="M 159.6 33.8 L 159.0 35.4 L 158.6 36.8 L 158.3 37.9" stroke-width="2.00"/>
<path d="M 158.3 37.9 L 158.2 38.4 L 158.2 38.7" stroke-width="2.20"/>
<circle cx="173.4" cy="8.5" r="0.77" fill="currentColor" stroke="none"/>
<path d="M 173.4 8.5 L 173.5 8.7" stroke-width="2.00"/>
<path d="M 173.5 8.7 L 173.6 9.1" stroke-width="2.80"/>
<path d="M 173.6 9.1 L 173.7 9.9 L 173.9 11.1" stroke-width="3.00"/>
<path d="M 173.9 11.1 L 174.0 12.7" stroke-width="2.60"/>
<path d="M 174.0 12.7 L 174.0 14.7" stroke-width="2.20"/>
<path d="M 174.0 14.7 L 174.1 17.0" stroke-width="2.00"/>
<path d="M 174.1 17.0 L 174.2 19.5" stroke-width="1.80"/>
<path d="M 174.2 19.5 L 174.3 22.0 L 174.5 24.4 L 174.6 26.6 L 174.7 28.3" stroke-width="1.60"/>
<path d="M 174.7 28.3 L 174.8 29.4" stroke-width="1.80"/>
<path d="M 174.8 29.4 L 174.9 29.8" stroke-width="2.20"/>
<path d="M 174.9 29.8 L 175.0 29.7 L 175.1 29.5" stroke-width="2.40"/>
<circle cx="168.3" cy="18.4" r="0.77" fill="currentColor" stroke="none"/>
<path d="M 168.3 18.4 L 168.6 18.5" stroke-width="2.00"/>
<path d="M 168.6 18.5 L 169.2 18.6" stroke-width="2.60"/>
<path d="M 169.2 18.6 L 170.3 18.8" stroke-width="2.80"/>
<path d="M 170.3 18.8 L 171.8 18.8" stroke-width="2.60"/>
<path d="M 171.8 18.8 L 173.6 18.7" stroke-width="2.40"/>
<path d="M 173.6 18.7 L 175.6 18.5 L 177.6 18.0" stroke-width="2.00"/>
<path d="M 177.6 18.0 L 179.5 17.3 L 181.2 16.4 L 182.6 15.3 L 183.6 14.2" stroke-width="1.80"/>
<path d="M 183.6 14.2 L 184.1 13.5" stroke-width="1.60"/>
<circle cx="184.1" cy="7.1" r="0.77" fill="currentColor" stroke="none"/>
<path d="M 184.1 7.1 L 184.0 7.0" stroke-width="2.00"/>
<path d="M 184.0 7.0 L 183.7 6.9" stroke-width="2.80"/>
<path d="M 183.7 6.9 L 183.5 7.3 L 183.4 8.1" stroke-width="3.20"/>
<path d="M 183.4 8.1 L 183.3 9.6" stroke-width="3.00"/>
<path d="M 183.3 9.6 L 183.3 11.5" stroke-width="2.60"/>
<path d="M 183.3 11.5 L 183.4 13.7" stroke-width="2.20"/>
<path d="M 183.4 13.7 L 183.4 16.2" stroke-width="1.80"/>
<path d="M 183.4 16.2 L 183.5 18.8 L 183.4 21.3 L 183.4 23.5 L 183.4 25.2" stroke-width="1.60"/>
<path d="M 183.4 25.2 L 183.5 26.3" stroke-width="1.80"/>
<path d="M 183.5 26.3 L 183.6 26.7" stroke-width="2.20"/>
<path d="M 183.6 26.7 L 183.9 26.3 L 184.4 25.3 L 185.0 23.8" stroke-width="2.60"/>
<path d="M 185.0 23.8 L 185.9 22.0" stroke-width="2.20"/>
<path d="M 185.9 22.0 L 186.9 20.1" stroke-width="2.00"/>
<path d="M 186.9 20.1 L 188.0 18.4 L 189.1 16.9 L 190.1 15.9" stroke-width="1.80"/>
<path d="M 190.1 15.9 L 191.1 15.4" stroke-width="2.00"/>
<path d="M 191.1 15.4 L 191.8 15.5" stroke-width="2.20"/>
<path d="M 191.8 15.5 L 192.3 16.1" stroke-width="2.40"/>
<path d="M 192.3 16.1 L 192.5 17.2" stroke-width="2.60"/>
<path d="M 192.5 17.2 L 192.6 18.8" stroke-width="2.40"/>
<path d="M 192.6 18.8 L 192.5 20.6" stroke-width="2.20"/>
<path d="M 192.5 20.6 L 192.3 22.5 L 192.1 24.3 L 192.0 25.7" stroke-width="2.00"/>
<path d="M 192.0 25.7 L 192.2 26.6" stroke-width="2.20"/>
<path d="M 192.2 26.6 L 192.6 26.9" stroke-width="2.40"/>
<path d="M 192.6 26.9 L 193.1 26.8" stroke-width="2.60"/>
<path d="M 193.1 26.8 L 193.5 26.5" stroke-width="2.40"/>
<circle cx="198.2" cy="16.6" r="0.77" fill="currentColor" stroke="none"/>
<path d="M 198.2 16.6 L 198.2 16.4" stroke-width="2.00"/>
<path d="M 198.2 16.4 L 198.2 16.2" stroke-width="2.80"/>
<path d="M 198.2 16.2 L 198.2 16.2 L 198.1 16.7 L 197.9 17.7" stroke-width="3.20"/>
<path d="M 197.9 17.7 L 197.7 19.1" stroke-width="3.00"/>
<path d="M 197.7 19.1 L 197.5 20.7" stroke-width="2.60"/>
<path d="M 197.5 20.7 L 197.3 22.3" stroke-width="2.40"/>
<path d="M 197.3 22.3 L 197.2 23.8 L 197.2 25.1" stroke-width="2.20"/>
<path d="M 197.2 25.1 L 197.4 26.0" stroke-width="2.40"/>
<path d="M 197.4 26.0 L 197.6 26.4" stroke-width="2.60"/>
<path d="M 197.6 26.4 L 198.0 26.3 L 198.3 26.0" stroke-width="3.00"/>
<path d="M 198.3 26.0 L 198.5 25.6" stroke-width="2.60"/>
<circle cx="198.8" cy="9.5" r="0.77" fill="currentColor" stroke="none"/>
<path d="M 198.8 9.5 L 198.9 9.3" stroke-width="2.00"/>
<path d="M 198.9 9.3 L 198.9 9.2" stroke-width="2.80"/>
<path d="M 198.9 9.2 L 199.0 9.1" stroke-width="3.00"/>
<path d="M 199.0 9.1 L 199.0 9.1" stroke-width="2.60"/>
<circle cx="203.2" cy="15.5" r="0.77" fill="currentColor" stroke="none"/>
<path d="M 203.2 15.5 L 203.3 15.8" stroke-width="2.00"/>
<path d="M 203.3 15.8 L 203.3 16.4" stroke-width="2.60"/>
<path d="M 203.3 16.4 L 203.3 17.5" stroke-width="2.80"/>
<path d="M 203.3 17.5 L 203.2 18.9" stroke-width="2.60"/>
<path d="M 203.2 18.9 L 203.0 20.6" stroke-width="2.40"/>
<path d="M 203.0 20.6 L 202.7 22.5" stroke-width="2.20"/>
<path d="M 202.7 22.5 L 202.5 24.4 L 202.3 26.0 L 202.2 27.2" stroke-width="2.00"/>
<path d="M 202.2 27.2 L 202.3 27.9" stroke-width="2.20"/>
<path d="M 202.3 27.9 L 202.5 28.0" stroke-width="2.60"/>
<path d="M 202.5 28.0 L 202.8 27.5 L 203.3 26.4" stroke-width="3.00"/>
<path d="M 203.3 26.4 L 203.9 24.8" stroke-width="2.60"/>
<path d="M 203.9 24.8 L 204.6 22.8" stroke-width="2.20"/>
<path d="M 204.6 22.8 L 205.4 20.8" stroke-width="2.00"/>
<path d="M 205.4 20.8 L 206.4 19.0 L 207.5 17.3 L 208.7 16.1 L 209.8 15.4" stroke-width="1.80"/>
<path d="M 209.8 15.4 L 210.9 15.2" stroke-width="2.00"/>
<path d="M 210.9 15.2 L 211.9 15.5 L 212.7 16.4 L 213.3 17.7 L 213.7 19.3" stroke-width="2.20"/>
<path d="M 213.7 19.3 L 213.8 21.1 L 213.7 23.0 L 213.6 24.6 L 213.5 25.9" stroke-width="2.00"/>
<path d="M 213.5 25.9 L 213.6 26.8" stroke-width="2.20"/>
<path d="M 213.6 26.8 L 213.7 27.2" stroke-width="2.40"/>
<path d="M 213.7 27.2 L 213.8 27.3" stroke-width="2.20"/>
<circle cx="220.0" cy="8.3" r="0.77" fill="currentColor" stroke="none"/>
<path d="M 220.0 8.3 L 220.1 8.6" stroke-width="2.00"/>
<path d="M 220.1 8.6 L 220.2 9.2" stroke-width="2.60"/>
<path d="M 220.2 9.2 L 220.3 10.4" stroke-width="2.80"/>
<path d="M 220.3 10.4 L 220.4 12.0" stroke-width="2.60"/>
<path d="M 220.4 12.0 L 220.3 14.1" stroke-width="2.20"/>
<path d="M 220.3 14.1 L 220.2 16.4" stroke-width="2.00"/>
<path d="M 220.2 16.4 L 220.1 18.9" stroke-width="1.80"/>
<path d="M 220.1 18.9 L 219.9 21.2 L 219.7 23.3 L 219.6 25.0" stroke-width="1.60"/>
<path d="M 219.6 25.0 L 219.5 26.1" stroke-width="1.80"/>
<path d="M 219.5 26.1 L 219.6 26.7" stroke-width="2.00"/>
<path d="M 219.6 26.7 L 219.7 26.7" stroke-width="2.60"/>
<path d="M 219.7 26.7 L 220.0 26.2 L 220.4 25.2" stroke-width="3.00"/>
<path d="M 220.4 25.2 L 221.2 23.8" stroke-width="2.60"/>
<path d="M 221.2 23.8 L 222.2 22.1" stroke-width="2.40"/>
<path d="M 222.2 22.1 L 223.5 20.4" stroke-width="2.00"/>
<path d="M 223.5 20.4 L 224.9 18.7 L 226.5 17.2" stroke-width="1.80"/>
<path d="M 226.5 17.2 L 228.0 15.8" stroke-width="1.60"/>
<path d="M 228.0 15.8 L 229.3 14.8 L 230.3 14.1" stroke-width="1.80"/>
<path d="M 230.3 14.1 L 230.8 13.7" stroke-width="1.60"/>
<circle cx="223.0" cy="18.9" r="0.77" fill="currentColor" stroke="none"/>
<path d="M 223.0 18.9 L 223.3 19.4" stroke-width="1.80"/>
<path d="M 223.3 19.4 L 223.8 20.3 L 224.6 21.5 L 225.6 22.7" stroke-width="2.40"/>
<path d="M 225.6 22.7 L 226.7 23.8 L 227.8 24.7" stroke-width="2.20"/>
<path d="M 227.8 24.7 L 228.7 25.4" stroke-width="2.00"/>
<path d="M 228.7 25.4 L 229.3 25.7" stroke-width="1.80"/>
<circle cx="234.8" cy="16.9" r="0.77" fill="currentColor" stroke="none"/>
<path d="M 234.8 16.9 L 234.8 16.9" stroke-width="2.00"/>
<path d="M 234.8 16.9 L 234.8 17.0" stroke-width="2.80"/>
<path d="M 234.8 17.0 L 234.9 17.3 L 234.9 18.0 L 234.9 19.1" stroke-width="3.20"/>
<path d="M 234.9 19.1 L 234.8 20.6" stroke-width="2.80"/>
<path d="M 234.8 20.6 L 234.8 22.4" stroke-width="2.40"/>
<path d="M 234.8 22.4 L 234.7 24.2" stroke-width="2.20"/>
<path d="M 234.7 24.2 L 234.7 25.9 L 234.8 27.1" stroke-width="2.00"/>
<path d="M 234.8 27.1 L 235.0 27.9" stroke-width="2.20"/>
<path d="M 235.0 27.9 L 235.2 28.2" stroke-width="2.00"/>
<circle cx="236.1" cy="10.5" r="0.77" fill="currentColor" stroke="none"/>
<path d="M 236.1 10.5 L 236.1 10.4" stroke-width="2.00"/>
<path d="M 236.1 10.4 L 236.1 10.3" stroke-width="2.80"/>
<path d="M 236.1 10.3 L 236.2 10.2" stroke-width="3.00"/>
<path d="M 236.2 10.2 L 236.2 10.2" stroke-width="2.60"/>
<circle cx="241.2" cy="16.8" r="0.77" fill="currentColor" stroke="none"/>
<path d="M 241.2 16.8 L 241.2 17.1" stroke-width="2.00"/>
<path d="M 241.2 17.1 L 241.1 17.8" stroke-width="2.60"/>
<path d="M 241.1 17.8 L 241.1 18.9" stroke-width="2.80"/>
<path d="M 241.1 18.9 L 240.9 20.2" stroke-width="2.60"/>
<path d="M 240.9 20.2 L 240.7 21.7 L 240.5 23.2" stroke-width="2.40"/>
<path d="M 240.5 23.2 L 240.4 24.5 L 240.4 25.7" stroke-width="2.20"/>
<path d="M 240.4 25.7 L 240.4 26.5" stroke-width="2.40"/>
<path d="M 240.4 26.5 L 240.4 27.0" stroke-width="2.60"/>
<path d="M 240.4 27.0 L 240.4 26.9" stroke-width="3.00"/>
<path d="M 240.4 26.9 L 240.5 26.3 L 240.7 25.2" stroke-width="3.20"/>
<path d="M 240.7 25.2 L 241.0 23.7" stroke-width="2.80"/>
<path d="M 241.0 23.7 L 241.5 22.0" stroke-width="2.40"/>
<path d="M 241.5 22.0 L 242.2 20.3" stroke-width="2.20"/>
<path d="M 242.2 20.3 L 243.0 18.7 L 244.1 17.3 L 245.2 16.3 L 246.5 15.7 L 247.7 15.6" stroke-width="2.00"/>
<path d="M 247.7 15.6 L 248.8 16.0 L 249.6 17.0 L 250.2 18.4 L 250.5 20.0" stroke-width="2.20"/>
<path d="M 250.5 20.0 L 250.6 21.8 L 250.5 23.5 L 250.3 25.0 L 250.2 26.2" stroke-width="2.00"/>
<path d="M 250.2 26.2 L 250.2 27.0" stroke-width="2.20"/>
<path d="M 250.2 27.0 L 250.4 27.5 L 250.5 27.7" stroke-width="2.40"/>
<circle cx="260.6" cy="20.1" r="0.77" fill="currentColor" stroke="none"/>
<path d="M 260.6 20.1 L 260.5 19.4" stroke-width="1.80"/>
<path d="M 260.5 19.4 L 260.3 18.5" stroke-width="2.40"/>
<path d="M 260.3 18.5 L 259.8 17.5 L 259.1 16.7 L 258.1 16.4 L 256.9 16.5" stroke-width="2.60"/>
<path d="M 256.9 16.5 L 255.6 17.1 L 254.5 18.2" stroke-width="2.40"/>
<path d="M 254.5 18.2 L 253.7 19.6 L 253.4 21.0 L 253.5 22.4 L 254.1 23.6 L 255.1 24.4 L 256.4 24.7 L 257.8 24.5 L 259.2 23.9 L 260.5 22.8" stroke-width="2.20"/>
<path d="M 260.5 22.8 L 261.5 21.6 L 262.2 20.3 L 262.5 19.1" stroke-width="2.00"/>
<path d="M 262.5 19.1 L 262.6 18.1" stroke-width="2.20"/>
<path d="M 262.6 18.1 L 262.6 17.6" stroke-width="2.40"/>
<path d="M 262.6 17.6 L 262.4 17.4" stroke-width="3.00"/>
<path d="M 262.4 17.4 L 262.2 17.7 L 262.1 18.6" stroke-width="3.20"/>
<path d="M 262.1 18.6 L 262.1 19.9" stroke-width="3.00"/>
<path d="M 262.1 19.9 L 262.3 21.7" stroke-width="2.60"/>
<path d="M 262.3 21.7 L 262.6 23.8" stroke-width="2.20"/>
<path d="M 262.6 23.8 L 263.0 26.2" stroke-width="1.80"/>
<path d="M 263.0 26.2 L 263.5 28.7 L 263.7 31.2 L 263.8 33.5 L 263.5 35.6 L 263.0 37.2" stroke-width="1.60"/>
<path d="M 263.0 37.2 L 262.2 38.3 L 261.1 38.9" stroke-width="1.80"/>
<path d="M 261.1 38.9 L 259.7 38.9 L 258.3 38.5 L 256.8 37.7 L 255.6 36.6 L 254.7 35.4 L 254.1 34.1 L 253.9 33.0" stroke-width="2.00"/>
<path d="M 253.9 33.0 L 253.9 32.3" stroke-width="1.80"/>
<circle cx="284.3" cy="19.3" r="0.77" fill="currentColor" stroke="none"/>
<path d="M 284.3 19.3 L 284.3 18.8" stroke-width="2.00"/>
<path d="M 284.3 18.8 L 284.1 18.0" stroke-width="2.60"/>
<path d="M 284.1 18.0 L 283.7 17.2 L 283.1 16.5 L 282.1 16.1" stroke-width="2.80"/>
<path d="M 282.1 16.1 L 280.8 16.1" stroke-width="2.60"/>
<path d="M 280.8 16.1 L 279.4 16.5" stroke-width="2.40"/>
<path d="M 279.4 16.5 L 277.8 17.3" stroke-width="2.20"/>
<path d="M 277.8 17.3 L 276.4 18.6 L 275.3 20.1" stroke-width="2.00"/>
<path d="M 275.3 20.1 L 274.6 21.7" stroke-width="1.80"/>
<path d="M 274.6 21.7 L 274.4 23.2 L 274.8 24.3" stroke-width="2.00"/>
<path d="M 274.8 24.3 L 275.7 25.1 L 277.0 25.3 L 278.6 24.9" stroke-width="2.20"/>
<path d="M 278.6 24.9 L 280.2 24.0" stroke-width="2.00"/>
<path d="M 280.2 24.0 L 281.9 22.6 L 283.4 21.0 L 284.6 19.4 L 285.5 17.9 L 286.1 16.7" stroke-width="1.80"/>
<path d="M 286.1 16.7 L 286.3 16.0" stroke-width="2.00"/>
<path d="M 286.3 16.0 L 286.4 15.7" stroke-width="2.40"/>
<path d="M 286.4 15.7 L 286.3 15.9" stroke-width="3.00"/>
<path d="M 286.3 15.9 L 286.1 16.6" stroke-width="3.20"/>
<path d="M 286.1 16.6 L 286.0 17.8" stroke-width="3.00"/>
<path d="M 286.0 17.8 L 285.8 19.4" stroke-width="2.60"/>
<path d="M 285.8 19.4 L 285.7 21.2" stroke-width="2.40"/>
<path d="M 285.7 21.2 L 285.7 23.1 L 285.7 24.8 L 286.0 26.1" stroke-width="2.00"/>
<path d="M 286.0 26.1 L 286.5 27.0" stroke-width="2.20"/>
<path d="M 286.5 27.0 L 287.1 27.4 L 287.7 27.5 L 288.1 27.3" stroke-width="2.40"/>
<circle cx="297.9" cy="14.4" r="0.77" fill="currentColor" stroke="none"/>
<path d="M 297.9 14.4 L 297.6 14.1" stroke-width="2.00"/>
<path d="M 297.6 14.1 L 296.9 13.8" stroke-width="2.60"/>
<path d="M 296.9 13.8 L 295.9 13.7" stroke-width="2.80"/>
<path d="M 295.9 13.7 L 294.7 13.9 L 293.5 14.5" stroke-width="2.60"/>
<path d="M 293.5 14.5 L 292.5 15.3 L 291.8 16.4 L 291.7 17.5 L 292.2 18.7 L 293.2 19.8" stroke-width="2.40"/>
<path d="M 293.2 19.8 L 294.6 20.9" stroke-width="2.20"/>
<path d="M 294.6 20.9 L 296.2 21.9 L 297.7 22.7 L 298.8 23.5" stroke-width="2.00"/>
<path d="M 298.8 23.5 L 299.4 24.1" stroke-width="2.20"/>
<path d="M 299.4 24.1 L 299.3 24.6" stroke-width="2.40"/>
<path d="M 299.3 24.6 L 298.6 25.0 L 297.3 25.2" stroke-width="2.60"/>
<path d="M 297.3 25.2 L 295.6 25.4" stroke-width="2.40"/>
<path d="M 295.6 25.4 L 293.8 25.4" stroke-width="2.20"/>
<path d="M 293.8 25.4 L 292.2 25.4 L 290.9 25.3" stroke-width="2.00"/>
<path d="M 290.9 25.3 L 290.2 25.1" stroke-width="2.20"/>
<path d="M 290.2 25.1 L 289.8 25.0" stroke-width="2.00"/>
<circle cx="313.8" cy="18.1" r="0.77" fill="currentColor" stroke="none"/>
<path d="M 313.8 18.1 L 313.7 18.7" stroke-width="1.80"/>
<path d="M 313.7 18.7 L 313.5 19.8 L 313.3 21.3" stroke-width="2.40"/>
<path d="M 313.3 21.3 L 313.0 22.8 L 312.9 24.4 L 312.8 25.6 L 312.8 26.5" stroke-width="2.20"/>
<path d="M 312.8 26.5 L 312.8 27.0" stroke-width="2.00"/>
<circle cx="314.3" cy="8.4" r="0.77" fill="currentColor" stroke="none"/>
<path d="M 314.3 8.4 L 314.3 8.2" stroke-width="2.00"/>
<path d="M 314.3 8.2 L 314.3 7.9" stroke-width="2.80"/>
<path d="M 314.3 7.9 L 314.4 7.7" stroke-width="3.00"/>
<path d="M 314.4 7.7 L 314.4 7.7" stroke-width="2.60"/>
<circle cx="323.2" cy="6.0" r="0.77" fill="currentColor" stroke="none"/>
<path d="M 323.2 6.0 L 323.2 6.4" stroke-width="2.00"/>
<path d="M 323.2 6.4 L 323.2 7.3 L 323.2 8.6" stroke-width="2.60"/>
<path d="M 323.2 8.6 L 323.0 10.4" stroke-width="2.40"/>
<path d="M 323.0 10.4 L 322.8 12.5" stroke-width="2.00"/>
<path d="M 322.8 12.5 L 322.5 14.9" stroke-width="1.80"/>
<path d="M 322.5 14.9 L 322.3 17.4 L 322.1 19.9 L 321.9 22.1 L 321.9 23.9 L 321.8 25.1 L 321.8 25.7" stroke-width="1.60"/>
<circle cx="317.9" cy="18.3" r="0.77" fill="currentColor" stroke="none"/>
<path d="M 317.9 18.3 L 318.3 18.2" stroke-width="2.00"/>
<path d="M 318.3 18.2 L 319.3 18.0 L 320.9 17.9" stroke-width="2.40"/>
<path d="M 320.9 17.9 L 322.9 17.7" stroke-width="2.20"/>
<path d="M 322.9 17.7 L 325.2 17.6" stroke-width="2.00"/>
<path d="M 325.2 17.6 L 327.6 17.5" stroke-width="1.80"/>
<path d="M 327.6 17.5 L 329.5 17.4" stroke-width="1.60"/>
<path d="M 329.5 17.4 L 330.7 17.4" stroke-width="1.40"/>
<circle cx="348.5" cy="18.2" r="0.77" fill="currentColor" stroke="none"/>
<path d="M 348.5 18.2 L 348.2 17.7" stroke-width="2.00"/>
<path d="M 348.2 17.7 L 347.7 17.1" stroke-width="2.40"/>
<path d="M 347.7 17.1 L 346.7 16.5 L 345.5 16.3" stroke-width="2.60"/>
<path d="M 345.5 16.3 L 344.0 16.5" stroke-width="2.40"/>
<path d="M 344.0 16.5 L 342.3 17.2" stroke-width="2.20"/>
<path d="M 342.3 17.2 L 340.7 18.3" stroke-width="2.00"/>
<path d="M 340.7 18.3 L 339.4 19.8 L 338.6 21.4 L 338.4 22.9" stroke-width="1.80"/>
<path d="M 338.4 22.9 L 338.9 24.0 L 340.0 24.7" stroke-width="2.00"/>
<path d="M 340.0 24.7 L 341.4 24.9" stroke-width="2.20"/>
<path d="M 341.4 24.9 L 343.1 24.4 L 344.7 23.5" stroke-width="2.00"/>
<path d="M 344.7 23.5 L 346.2 22.3 L 347.4 20.9 L 348.2 19.5" stroke-width="1.80"/>
<path d="M 348.2 19.5 L 348.6 18.3" stroke-width="2.00"/>
<path d="M 348.6 18.3 L 348.7 17.5" stroke-width="2.20"/>
<path d="M 348.7 17.5 L 348.6 17.1" stroke-width="2.40"/>
<path d="M 348.6 17.1 L 348.4 17.2" stroke-width="3.00"/>
<path d="M 348.4 17.2 L 348.1 17.8" stroke-width="3.20"/>
<path d="M 348.1 17.8 L 347.9 19.1" stroke-width="3.00"/>
<path d="M 347.9 19.1 L 347.8 20.8" stroke-width="2.60"/>
<path d="M 347.8 20.8 L 347.7 23.0" stroke-width="2.20"/>
<path d="M 347.7 23.0 L 347.7 25.4" stroke-width="2.00"/>
<path d="M 347.7 25.4 L 347.9 28.0 L 348.1 30.6 L 348.2 33.0" stroke-width="1.60"/>
<path d="M 348.2 33.0 L 348.1 35.3" stroke-width="1.40"/>
<path d="M 348.1 35.3 L 348.0 37.2 L 347.5 38.7" stroke-width="1.60"/>
<path d="M 347.5 38.7 L 346.8 39.9" stroke-width="1.80"/>
<path d="M 346.8 39.9 L 345.9 40.6 L 344.7 40.9" stroke-width="2.00"/>
<path d="M 344.7 40.9 L 343.4 40.7 L 342.1 40.2 L 341.0 39.3 L 340.1 38.0" stroke-width="2.20"/>
<path d="M 340.1 38.0 L 339.8 36.3 L 340.1 34.4" stroke-width="2.00"/>
<path d="M 340.1 34.4 L 340.6 32.7" stroke-width="1.80"/>
<path d="M 340.6 32.7 L 341.2 31.5" stroke-width="1.60"/>
<circle cx="358.7" cy="17.9" r="0.77" fill="currentColor" stroke="none"/>
<path d="M 358.7 17.9 L 358.2 17.9" stroke-width="1.80"/>
<path d="M 358.2 17.9 L 357.2 18.0" stroke-width="2.40"/>
<path d="M 357.2 18.0 L 356.0 18.5" stroke-width="2.60"/>
<path d="M 356.0 18.5 L 354.7 19.3" stroke-width="2.40"/>
<path d="M 354.7 19.3 L 353.5 20.5 L 352.7 21.9" stroke-width="2.20"/>
<path d="M 352.7 21.9 L 352.4 23.3" stroke-width="2.00"/>
<path d="M 352.4 23.3 L 352.6 24.6 L 353.4 25.6 L 354.6 26.1 L 356.2 26.1" stroke-width="2.20"/>
<path d="M 356.2 26.1 L 357.8 25.5 L 359.4 24.5 L 360.7 23.2" stroke-width="2.00"/>
<path d="M 360.7 23.2 L 361.5 21.8" stroke-width="1.80"/>
<path d="M 361.5 21.8 L 361.7 20.3 L 361.5 19.1" stroke-width="2.00"/>
<path d="M 361.5 19.1 L 360.8 18.1 L 359.9 17.5" stroke-width="2.20"/>
<path d="M 359.9 17.5 L 358.9 17.3" stroke-width="2.40"/>
<path d="M 358.9 17.3 L 358.1 17.5 L 357.6 18.0" stroke-width="2.60"/>
<path d="M 357.6 18.0 L 357.4 18.5" stroke-width="2.80"/>
<path d="M 357.4 18.5 L 357.4 19.0" stroke-width="2.40"/>
<circle cx="366.3" cy="22.2" r="0.77" fill="currentColor" stroke="none"/>
<path d="M 366.3 22.2 L 366.8 21.9" stroke-width="1.80"/>
<path d="M 366.8 21.9 L 367.7 21.3 L 368.8 20.4 L 369.8 19.5 L 370.7 18.5 L 371.4 17.6 L 371.7 16.8" stroke-width="2.40"/>
<path d="M 371.7 16.8 L 371.7 16.3" stroke-width="2.60"/>
<path d="M 371.7 16.3 L 371.3 16.0" stroke-width="3.00"/>
<path d="M 371.3 16.0 L 370.5 16.0" stroke-width="3.20"/>
<path d="M 370.5 16.0 L 369.5 16.5" stroke-width="3.00"/>
<path d="M 369.5 16.5 L 368.2 17.4" stroke-width="2.60"/>
<path d="M 368.2 17.4 L 366.9 18.7" stroke-width="2.40"/>
<path d="M 366.9 18.7 L 365.8 20.3 L 365.1 22.0 L 365.0 23.6 L 365.5 24.9 L 366.6 25.8 L 368.2 26.4 L 370.1 26.5" stroke-width="2.00"/>
<path d="M 370.1 26.5 L 372.3 26.1 L 374.5 25.2" stroke-width="1.80"/>
<path d="M 374.5 25.2 L 376.3 24.4" stroke-width="1.60"/>
<path d="M 376.3 24.4 L 377.4 23.7" stroke-width="1.40"/>
<circle cx="381.6" cy="16.4" r="0.77" fill="currentColor" stroke="none"/>
<path d="M 381.6 16.4 L 381.0 16.2" stroke-width="1.80"/>
<path d="M 381.0 16.2 L 379.9 16.1 L 378.5 16.2 L 377.3 16.6 L 376.4 17.3 L 376.1 18.1" stroke-width="2.40"/>
<path d="M 376.1 18.1 L 376.4 19.1" stroke-width="2.60"/>
<path d="M 376.4 19.1 L 377.4 20.2" stroke-width="2.40"/>
<path d="M 377.4 20.2 L 379.1 21.2" stroke-width="2.20"/>
<path d="M 379.1 21.2 L 381.0 22.2" stroke-width="2.00"/>
<path d="M 381.0 22.2 L 383.0 23.2 L 384.8 24.0 L 385.9 24.7" stroke-width="1.80"/>
<path d="M 385.9 24.7 L 386.4 25.3" stroke-width="2.00"/>
<path d="M 386.4 25.3 L 386.2 25.9" stroke-width="2.40"/>
<path d="M 386.2 25.9 L 385.1 26.3" stroke-width="2.60"/>
<path d="M 385.1 26.3 L 383.5 26.6" stroke-width="2.40"/>
<path d="M 383.5 26.6 L 381.6 26.9" stroke-width="2.20"/>
<path d="M 381.6 26.9 L 379.5 27.0" stroke-width="2.00"/>
<path d="M 379.5 27.0 L 377.7 27.1 L 376.2 27.1" stroke-width="1.80"/>
<path d="M 376.2 27.1 L 375.3 27.1" stroke-width="2.00"/>
<path d="M 375.3 27.1 L 374.8 27.0" stroke-width="1.80"/>
</svg>
