<svg xmlns="http://www.w3.org/2000/svg" viewBox="0 0 504.7 54.1" fill="none" stroke="currentColor" stroke-linecap="round" stroke-linejoin="round" role="img">
<circle cx="14.1" cy="24.8" r="0.63" fill="currentColor" stroke="none"/>
<path d="M 14.1 24.8 L 13.8 24.6" stroke-width="1.60"/>
<path d="M 13.8 24.6 L 13.4 24.4" stroke-width="2.20"/>
<path d="M 13.4 24.4 L 12.9 24.2 L 12.1 24.3" stroke-width="2.60"/>
<path d="M 12.1 24.3 L 11.2 24.5 L 10.2 25.1" stroke-width="2.40"/>
<path d="M 10.2 25.1 L 9.2 26.0" stroke-width="2.20"/>
<path d="M 9.2 26.0 L 8.1 27.2" stroke-width="2.00"/>
<path d="M 8.1 27.2 L 7.2 28.7" stroke-width="1.80"/>
<path d="M 7.2 28.7 L 6.5 30.4 L 6.1 32.1 L 6.0 33.7 L 6.2 35.1 L 6.8 36.2" stroke-width="1.60"/>
<path d="M 6.8 36.2 L 7.7 36.8 L 8.9 37.0 L 10.2 36.6 L 11.7 35.8" stroke-width="1.80"/>
<path d="M 11.7 35.8 L 13.1 34.6" stroke-width="1.60"/>
<path d="M 13.1 34.6 L 14.4 33.0 L 15.6 31.2 L 16.5 29.3 L 17.1 27.5 L 17.5 26.0 L 17.7 24.8" stroke-width="1.40"/>
<path d="M 17.7 24.8 L 17.7 23.9" stroke-width="1.60"/>
<path d="M 17.7 23.9 L 17.6 23.3" stroke-width="1.80"/>
<path d="M 17.6 23.3 L 17.6 23.1" stroke-width="2.20"/>
<path d="M 17.6 23.1 L 17.5 23.3 L 17.4 23.8 L 17.4 24.8" stroke-width="2.60"/>
<path d="M 17.4 24.8 L 17.4 26.1" stroke-width="2.40"/>
<path d="M 17.4 26.1 L 17.6 27.8" stroke-width="2.00"/>
<path d="M 17.6 27.8 L 17.8 29.5" stroke-width="1.80"/>
<path d="M 17.8 29.5 L 18.2 31.1 L 18.8 32.6 L 19.4 33.9 L 20.1 34.8" stroke-width="1.60"/>
<path d="M 20.1 34.8 L 20.8 35.5" stroke-width="1.80"/>
<path d="M 20.8 35.5 L 21.5 35.8 L 22.3 35.8" stroke-width="2.00"/>
<path d="M 22.3 35.8 L 23.2 35.5" stroke-width="2.20"/>
<path d="M 23.2 35.5 L 23.8 35.1" stroke-width="2.00"/>
<path d="M 23.8 35.1 L 24.2 34.7" stroke-width="1.80"/>
<circle cx="42.8" cy="10.0" r="0.63" fill="currentColor" stroke="none"/>
<path d="M 42.8 10.0 L 42.8 10.0" stroke-width="1.60"/>
<path d="M 42.8 10.0 L 42.8 10.2" stroke-width="2.40"/>
<path d="M 42.8 10.2 L 42.8 10.6 L 42.8 11.4" stroke-width="2.60"/>
<path d="M 42.8 11.4 L 42.8 12.6" stroke-width="2.40"/>
<path d="M 42.8 12.6 L 42.9 14.2" stroke-width="2.20"/>
<path d="M 42.9 14.2 L 42.8 16.1" stroke-width="1.80"/>
<path d="M 42.8 16.1 L 42.8 18.3" stroke-width="1.60"/>
<path d="M 42.8 18.3 L 42.7 20.8" stroke-width="1.40"/>
<path d="M 42.7 20.8 L 42.7 23.3 L 42.7 25.7 L 42.8 27.9 L 42.9 29.8" stroke-width="1.20"/>
<path d="M 42.9 29.8 L 43.1 31.3 L 43.5 32.5" stroke-width="1.40"/>
<path d="M 43.5 32.5 L 44.0 33.2" stroke-width="1.60"/>
<path d="M 44.0 33.2 L 44.6 33.5" stroke-width="1.80"/>
<path d="M 44.6 33.5 L 45.3 33.3" stroke-width="2.00"/>
<path d="M 45.3 33.3 L 46.1 32.8" stroke-width="2.20"/>
<path d="M 46.1 32.8 L 47.1 31.8" stroke-width="2.00"/>
<path d="M 47.1 31.8 L 48.3 30.4" stroke-width="1.80"/>
<path d="M 48.3 30.4 L 49.6 28.8" stroke-width="1.60"/>
<path d="M 49.6 28.8 L 50.9 27.1 L 52.2 25.5 L 53.4 23.9 L 54.4 22.6 L 55.2 21.6" stroke-width="1.40"/>
<path d="M 55.2 21.6 L 55.7 21.0" stroke-width="1.60"/>
<path d="M 55.7 21.0 L 56.0 20.7" stroke-width="2.00"/>
<path d="M 56.0 20.7 L 56.2 20.9" stroke-width="2.40"/>
<path d="M 56.2 20.9 L 56.1 21.4 L 56.1 22.3" stroke-width="2.60"/>
<path d="M 56.1 22.3 L 56.0 23.6" stroke-width="2.40"/>
<path d="M 56.0 23.6 L 55.9 25.1" stroke-width="2.00"/>
<path d="M 55.9 25.1 L 55.9 26.7 L 55.9 28.3" stroke-width="1.80"/>
<path d="M 55.9 28.3 L 56.1 29.8 L 56.2 31.1" stroke-width="1.60"/>
<path d="M 56.2 31.1 L 56.4 32.1" stroke-width="1.80"/>
<path d="M 56.4 32.1 L 56.5 32.8" stroke-width="2.00"/>
<path d="M 56.5 32.8 L 56.6 33.0" stroke-width="2.20"/>
<path d="M 56.6 33.0 L 56.8 32.8" stroke-width="2.60"/>
<path d="M 56.8 32.8 L 56.9 32.4" stroke-width="2.40"/>
<path d="M 56.9 32.4 L 57.0 32.0" stroke-width="2.00"/>
<circle cx="57.0" cy="9.9" r="0.63" fill="currentColor" stroke="none"/>
<path d="M 57.0 9.9 L 57.0 9.9" stroke-width="1.60"/>
<path d="M 57.0 9.9 L 57.0 10.0 L 57.1 10.1" stroke-width="2.40"/>
<path d="M 57.1 10.1 L 57.1 10.2" stroke-width="2.00"/>
<circle cx="62.2" cy="20.7" r="0.63" fill="currentColor" stroke="none"/>
<path d="M 62.2 20.7 L 62.2 21.2" stroke-width="1.60"/>
<path d="M 62.2 21.2 L 62.2 22.0" stroke-width="2.00"/>
<path d="M 62.2 22.0 L 62.3 23.3" stroke-width="2.20"/>
<path d="M 62.3 23.3 L 62.3 24.9" stroke-width="2.00"/>
<path d="M 62.3 24.9 L 62.3 26.7" stroke-width="1.80"/>
<path d="M 62.3 26.7 L 62.2 28.5 L 62.0 30.2 L 61.9 31.7 L 61.8 32.9" stroke-width="1.60"/>
<path d="M 61.8 32.9 L 61.7 33.7" stroke-width="1.80"/>
<path d="M 61.7 33.7 L 61.7 34.1" stroke-width="2.00"/>
<path d="M 61.7 34.1 L 61.8 34.2" stroke-width="2.40"/>
<path d="M 61.8 34.2 L 61.8 33.8 L 61.9 33.0" stroke-width="2.60"/>
<path d="M 61.9 33.0 L 62.0 31.7" stroke-width="2.40"/>
<path d="M 62.0 31.7 L 62.3 30.0" stroke-width="2.20"/>
<path d="M 62.3 30.0 L 62.8 28.2" stroke-width="1.80"/>
<path d="M 62.8 28.2 L 63.5 26.4 L 64.3 24.7" stroke-width="1.60"/>
<path d="M 64.3 24.7 L 65.3 23.1 L 66.4 21.8 L 67.6 20.8" stroke-width="1.40"/>
<path d="M 67.6 20.8 L 68.8 20.2 L 70.0 20.0" stroke-width="1.60"/>
<path d="M 70.0 20.0 L 71.1 20.3 L 72.1 20.9 L 73.0 21.9 L 73.7 23.2" stroke-width="1.80"/>
<path d="M 73.7 23.2 L 74.2 24.8 L 74.5 26.5 L 74.6 28.2 L 74.5 29.7 L 74.4 31.1 L 74.3 32.1" stroke-width="1.60"/>
<path d="M 74.3 32.1 L 74.2 32.8" stroke-width="1.80"/>
<path d="M 74.2 32.8 L 74.2 33.1" stroke-width="1.60"/>
<circle cx="78.5" cy="27.0" r="0.63" fill="currentColor" stroke="none"/>
<path d="M 78.5 27.0 L 78.8 26.9" stroke-width="1.60"/>
<path d="M 78.8 26.9 L 79.4 26.7 L 80.4 26.3 L 81.6 25.8" stroke-width="2.20"/>
<path d="M 81.6 25.8 L 82.9 25.0" stroke-width="2.00"/>
<path d="M 82.9 25.0 L 84.3 24.2 L 85.5 23.3" stroke-width="1.80"/>
<path d="M 85.5 23.3 L 86.6 22.3" stroke-width="1.60"/>
<path d="M 86.6 22.3 L 87.3 21.3 L 87.6 20.4" stroke-width="1.80"/>
<path d="M 87.6 20.4 L 87.6 19.6 L 87.2 18.9" stroke-width="2.00"/>
<path d="M 87.2 18.9 L 86.5 18.5 L 85.4 18.4" stroke-width="2.20"/>
<path d="M 85.4 18.4 L 83.9 18.6" stroke-width="2.00"/>
<path d="M 83.9 18.6 L 82.3 19.2" stroke-width="1.80"/>
<path d="M 82.3 19.2 L 80.7 20.1 L 79.2 21.2" stroke-width="1.60"/>
<path d="M 79.2 21.2 L 78.0 22.6 L 77.1 24.1 L 76.6 25.7 L 76.5 27.3" stroke-width="1.40"/>
<path d="M 76.5 27.3 L 76.9 28.7 L 77.8 30.0 L 79.0 31.1 L 80.6 32.0" stroke-width="1.60"/>
<path d="M 80.6 32.0 L 82.4 32.6 L 84.4 32.8 L 86.5 32.8 L 88.4 32.5 L 90.1 32.2 L 91.7 31.7 L 92.9 31.2" stroke-width="1.40"/>
<path d="M 92.9 31.2 L 93.8 30.8 L 94.5 30.5 L 94.8 30.3" stroke-width="1.60"/>
<circle cx="120.0" cy="20.4" r="0.63" fill="currentColor" stroke="none"/>
<path d="M 120.0 20.4 L 119.6 20.2" stroke-width="1.60"/>
<path d="M 119.6 20.2 L 119.0 20.0" stroke-width="2.00"/>
<path d="M 119.0 20.0 L 118.0 19.8 L 116.9 19.9" stroke-width="2.20"/>
<path d="M 116.9 19.9 L 115.5 20.3" stroke-width="2.00"/>
<path d="M 115.5 20.3 L 114.1 20.9 L 112.6 21.9" stroke-width="1.80"/>
<path d="M 112.6 21.9 L 111.2 23.0 L 110.1 24.3 L 109.3 25.8 L 108.8 27.3 L 108.7 28.8 L 109.0 30.3 L 109.8 31.6 L 110.9 32.5 L 112.4 33.2 L 114.2 33.4" stroke-width="1.60"/>
<path d="M 114.2 33.4 L 116.2 33.3 L 118.3 32.7 L 120.3 31.8" stroke-width="1.40"/>
<path d="M 120.3 31.8 L 122.1 30.6 L 123.6 29.2 L 124.8 27.7" stroke-width="1.20"/>
<path d="M 124.8 27.7 L 125.6 26.2 L 126.0 24.6 L 125.9 23.3" stroke-width="1.40"/>
<path d="M 125.9 23.3 L 125.3 22.1 L 124.5 21.1 L 123.5 20.3" stroke-width="1.60"/>
<path d="M 123.5 20.3 L 122.4 19.8 L 121.4 19.5" stroke-width="1.80"/>
<path d="M 121.4 19.5 L 120.5 19.4 L 119.8 19.4" stroke-width="2.00"/>
<path d="M 119.8 19.4 L 119.4 19.6" stroke-width="2.20"/>
<path d="M 119.4 19.6 L 119.2 19.8" stroke-width="2.40"/>
<path d="M 119.2 19.8 L 119.2 19.9" stroke-width="2.00"/>
<circle cx="141.3" cy="9.5" r="0.63" fill="currentColor" stroke="none"/>
<path d="M 141.3 9.5 L 141.2 9.0" stroke-width="1.60"/>
<path d="M 141.2 9.0 L 140.9 8.2" stroke-width="2.00"/>
<path d="M 140.9 8.2 L 140.3 7.4 L 139.6 6.8 L 138.8 6.4 L 137.7 6.4 L 136.6 6.7" stroke-width="2.20"/>
<path d="M 136.6 6.7 L 135.6 7.5" stroke-width="2.00"/>
<path d="M 135.6 7.5 L 134.6 8.6 L 133.7 10.1" stroke-width="1.80"/>
<path d="M 133.7 10.1 L 133.0 12.0" stroke-width="1.60"/>
<path d="M 133.0 12.0 L 132.5 14.1 L 132.2 16.5" stroke-width="1.40"/>
<path d="M 132.2 16.5 L 132.0 19.1 L 132.1 21.7 L 132.4 24.3 L 132.8 26.8 L 133.4 29.1 L 134.0 31.2 L 134.6 33.1 L 135.2 34.6" stroke-width="1.20"/>
<path d="M 135.2 34.6 L 135.7 35.7 L 136.1 36.3 L 136.3 36.7" stroke-width="1.40"/>
<circle cx="127.4" cy="22.5" r="0.63" fill="currentColor" stroke="none"/>
<path d="M 127.4 22.5 L 127.4 22.5" stroke-width="1.60"/>
<path d="M 127.4 22.5 L 127.8 22.4" stroke-width="2.40"/>
<path d="M 127.8 22.4 L 128.5 22.3" stroke-width="2.60"/>
<path d="M 128.5 22.3 L 129.7 22.3" stroke-width="2.40"/>
<path d="M 129.7 22.3 L 131.2 22.2" stroke-width="2.20"/>
<path d="M 131.2 22.2 L 133.0 22.2" stroke-width="1.80"/>
<path d="M 133.0 22.2 L 135.0 22.1 L 136.9 22.1" stroke-width="1.60"/>
<path d="M 136.9 22.1 L 138.8 22.0 L 140.5 22.0 L 141.7 21.9 L 142.4 21.8" stroke-width="1.40"/>
<circle cx="158.5" cy="19.6" r="0.63" fill="currentColor" stroke="none"/>
<path d="M 158.5 19.6 L 158.5 19.6" stroke-width="1.60"/>
<path d="M 158.5 19.6 L 158.5 19.9" stroke-width="2.40"/>
<path d="M 158.5 19.9 L 158.6 20.5 L 158.6 21.4" stroke-width="2.60"/>
<path d="M 158.6 21.4 L 158.6 22.6" stroke-width="2.40"/>
<path d="M 158.6 22.6 L 158.5 24.1" stroke-width="2.20"/>
<path d="M 158.5 24.1 L 158.3 25.8 L 158.1 27.5" stroke-width="1.80"/>
<path d="M 158.1 27.5 L 157.9 29.2 L 157.7 30.7 L 157.6 32.0" stroke-width="1.60"/>
<path d="M 157.6 32.0 L 157.6 32.9" stroke-width="1.80"/>
<path d="M 157.6 32.9 L 157.6 33.4" stroke-width="2.00"/>
<path d="M 157.6 33.4 L 157.6 33.3 L 157.7 33.0" stroke-width="2.40"/>
<path d="M 157.7 33.0 L 157.8 32.6" stroke-width="2.00"/>
<circle cx="158.5" cy="6.0" r="0.63" fill="currentColor" stroke="none"/>
<path d="M 158.5 6.0 L 158.5 6.0" stroke-width="1.60"/>
<path d="M 158.5 6.0 L 158.5 6.0 L 158.6 6.0" stroke-width="2.40"/>
<path d="M 158.6 6.0 L 158.7 6.1" stroke-width="2.00"/>
<circle cx="164.1" cy="19.5" r="0.63" fill="currentColor" stroke="none"/>
<path d="M 164.1 19.5 L 164.1 19.6" stroke-width="1.60"/>
<path d="M 164.1 19.6 L 164.1 19.8" stroke-width="2.40"/>
<path d="M 164.1 19.8 L 164.2 20.3 L 164.2 21.3" stroke-width="2.60"/>
<path d="M 164.2 21.3 L 164.2 22.6" stroke-width="2.40"/>
<path d="M 164.2 22.6 L 164.1 24.3" stroke-width="2.00"/>
<path d="M 164.1 24.3 L 163.9 26.0" stroke-width="1.80"/>
<path d="M 163.9 26.0 L 163.7 27.8 L 163.6 29.4 L 163.5 30.6" stroke-width="1.60"/>
<path d="M 163.5 30.6 L 163.4 31.4" stroke-width="1.80"/>
<path d="M 163.4 31.4 L 163.4 31.8" stroke-width="2.00"/>
<path d="M 163.4 31.8 L 163.4 31.8" stroke-width="2.40"/>
<path d="M 163.4 31.8 L 163.5 31.4 L 163.7 30.5" stroke-width="2.60"/>
<path d="M 163.7 30.5 L 164.0 29.3" stroke-width="2.40"/>
<path d="M 164.0 29.3 L 164.5 27.7" stroke-width="2.00"/>
<path d="M 164.5 27.7 L 165.1 25.9" stroke-width="1.80"/>
<path d="M 165.1 25.9 L 165.9 24.0" stroke-width="1.60"/>
<path d="M 165.9 24.0 L 166.9 22.2 L 168.1 20.7 L 169.4 19.4 L 170.7 18.5 L 172.1 18.0" stroke-width="1.40"/>
<path d="M 172.1 18.0 L 173.3 18.0 L 174.4 18.5" stroke-width="1.60"/>
<path d="M 174.4 18.5 L 175.4 19.4 L 176.1 20.7" stroke-width="1.80"/>
<path d="M 176.1 20.7 L 176.5 22.4 L 176.8 24.3" stroke-width="1.60"/>
<path d="M 176.8 24.3 L 177.0 26.2 L 177.0 28.0 L 177.0 29.6" stroke-width="1.40"/>
<path d="M 177.0 29.6 L 177.0 30.9 L 177.0 31.8" stroke-width="1.60"/>
<path d="M 177.0 31.8 L 177.1 32.3" stroke-width="1.80"/>
<path d="M 177.1 32.3 L 177.4 32.4" stroke-width="2.20"/>
<path d="M 177.4 32.4 L 177.7 32.0" stroke-width="2.60"/>
<path d="M 177.7 32.0 L 177.9 31.5" stroke-width="2.40"/>
<path d="M 177.9 31.5 L 178.2 31.0" stroke-width="2.00"/>
<circle cx="184.8" cy="7.3" r="0.63" fill="currentColor" stroke="none"/>
<path d="M 184.8 7.3 L 184.8 7.3" stroke-width="1.60"/>
<path d="M 184.8 7.3 L 184.9 7.6" stroke-width="2.40"/>
<path d="M 184.9 7.6 L 185.0 8.1 L 185.1 9.1" stroke-width="2.60"/>
<path d="M 185.1 9.1 L 185.2 10.5" stroke-width="2.40"/>
<path d="M 185.2 10.5 L 185.1 12.3" stroke-width="2.00"/>
<path d="M 185.1 12.3 L 184.9 14.5" stroke-width="1.60"/>
<path d="M 184.9 14.5 L 184.6 16.9 L 184.3 19.5" stroke-width="1.40"/>
<path d="M 184.3 19.5 L 184.0 22.0 L 183.6 24.6 L 183.3 26.8 L 183.1 28.8 L 182.9 30.3" stroke-width="1.20"/>
<path d="M 182.9 30.3 L 182.8 31.3" stroke-width="1.40"/>
<path d="M 182.8 31.3 L 182.8 31.8" stroke-width="1.60"/>
<path d="M 182.8 31.8 L 183.0 31.8" stroke-width="2.00"/>
<path d="M 183.0 31.8 L 183.3 31.4 L 183.6 30.8" stroke-width="2.40"/>
<path d="M 183.6 30.8 L 183.9 30.4" stroke-width="2.00"/>
<circle cx="190.2" cy="22.0" r="0.63" fill="currentColor" stroke="none"/>
<path d="M 190.2 22.0 L 190.1 21.9" stroke-width="1.60"/>
<path d="M 190.1 21.9 L 190.0 21.9" stroke-width="2.40"/>
<path d="M 190.0 21.9 L 189.8 22.1 L 189.3 22.3 L 188.5 22.9" stroke-width="2.60"/>
<path d="M 188.5 22.9 L 187.6 23.6" stroke-width="2.40"/>
<path d="M 187.6 23.6 L 186.5 24.5" stroke-width="2.20"/>
<path d="M 186.5 24.5 L 185.4 25.4" stroke-width="2.00"/>
<path d="M 185.4 25.4 L 184.4 26.5 L 183.7 27.5 L 183.4 28.4" stroke-width="1.80"/>
<path d="M 183.4 28.4 L 183.3 29.2" stroke-width="2.00"/>
<path d="M 183.3 29.2 L 183.6 30.0 L 184.2 30.6 L 185.1 31.1" stroke-width="2.20"/>
<path d="M 185.1 31.1 L 186.2 31.5 L 187.6 31.8" stroke-width="2.00"/>
<path d="M 187.6 31.8 L 189.2 32.0 L 190.8 32.1" stroke-width="1.80"/>
<path d="M 190.8 32.1 L 192.3 32.2 L 193.7 32.1" stroke-width="1.60"/>
<path d="M 193.7 32.1 L 194.8 32.1 L 195.6 32.0" stroke-width="1.80"/>
<path d="M 195.6 32.0 L 196.1 32.0" stroke-width="2.00"/>
<path d="M 196.1 32.0 L 196.4 31.9" stroke-width="2.40"/>
<path d="M 196.4 31.9 L 196.5 31.8" stroke-width="2.60"/>
<path d="M 196.5 31.8 L 196.5 31.8" stroke-width="2.40"/>
<path d="M 196.5 31.8 L 196.5 31.8" stroke-width="2.00"/>
<circle cx="202.5" cy="31.7" r="0.63" fill="currentColor" stroke="none"/>
<path d="M 202.5 31.7 L 202.4 32.0" stroke-width="1.60"/>
<path d="M 202.4 32.0 L 202.1 32.7" stroke-width="2.00"/>
<path d="M 202.1 32.7 L 201.7 33.8" stroke-width="2.20"/>
<path d="M 201.7 33.8 L 201.1 35.2" stroke-width="2.00"/>
<path d="M 201.1 35.2 L 200.4 36.7" stroke-width="1.80"/>
<path d="M 200.4 36.7 L 199.7 38.3 L 199.0 39.8 L 198.5 41.1 L 198.1 42.1" stroke-width="1.60"/>
<path d="M 198.1 42.1 L 198.0 42.9" stroke-width="1.80"/>
<path d="M 198.0 42.9 L 197.9 43.3" stroke-width="2.00"/>
<path d="M 197.9 43.3 L 197.9 43.5" stroke-width="1.80"/>
<circle cx="220.9" cy="8.3" r="0.63" fill="currentColor" stroke="none"/>
<path d="M 220.9 8.3 L 220.9 8.5" stroke-width="1.60"/>
<path d="M 220.9 8.5 L 220.9 8.8" stroke-width="2.40"/>
<path d="M 220.9 8.8 L 221.0 9.4 L 221.1 10.4" stroke-width="2.60"/>
<path d="M 221.1 10.4 L 221.1 11.9" stroke-width="2.20"/>
<path d="M 221.1 11.9 L 221.1 13.6" stroke-width="2.00"/>
<path d="M 221.1 13.6 L 221.1 15.7" stroke-width="1.60"/>
<path d="M 221.1 15.7 L 220.9 18.0 L 220.7 20.4" stroke-width="1.40"/>
<path d="M 220.7 20.4 L 220.5 22.8 L 220.4 25.3 L 220.2 27.5 L 220.2 29.6 L 220.2 31.3" stroke-width="1.20"/>
<path d="M 220.2 31.3 L 220.2 32.7" stroke-width="1.40"/>
<path d="M 220.2 32.7 L 220.4 33.6" stroke-width="1.60"/>
<path d="M 220.4 33.6 L 220.6 34.1" stroke-width="1.80"/>
<path d="M 220.6 34.1 L 220.8 34.1" stroke-width="2.20"/>
<path d="M 220.8 34.1 L 221.0 33.8" stroke-width="2.40"/>
<path d="M 221.0 33.8 L 221.1 33.5" stroke-width="2.00"/>
<circle cx="214.4" cy="18.7" r="0.63" fill="currentColor" stroke="none"/>
<path d="M 214.4 18.7 L 214.5 18.7" stroke-width="1.60"/>
<path d="M 214.5 18.7 L 214.8 18.8" stroke-width="2.40"/>
<path d="M 214.8 18.8 L 215.4 18.9" stroke-width="2.60"/>
<path d="M 215.4 18.9 L 216.5 19.0" stroke-width="2.40"/>
<path d="M 216.5 19.0 L 218.0 19.0" stroke-width="2.20"/>
<path d="M 218.0 19.0 L 219.7 19.0" stroke-width="2.00"/>
<path d="M 219.7 19.0 L 221.6 18.9" stroke-width="1.80"/>
<path d="M 221.6 18.9 L 223.6 18.6" stroke-width="1.60"/>
<path d="M 223.6 18.6 L 225.4 18.1 L 227.1 17.5 L 228.3 16.9" stroke-width="1.40"/>
<path d="M 228.3 16.9 L 229.0 16.6" stroke-width="1.20"/>
<circle cx="231.5" cy="9.2" r="0.63" fill="currentColor" stroke="none"/>
<path d="M 231.5 9.2 L 231.6 9.4" stroke-width="1.60"/>
<path d="M 231.6 9.4 L 231.7 10.0" stroke-width="2.20"/>
<path d="M 231.7 10.0 L 231.9 10.9" stroke-width="2.40"/>
<path d="M 231.9 10.9 L 232.0 12.2" stroke-width="2.20"/>
<path d="M 232.0 12.2 L 232.1 13.7" stroke-width="2.00"/>
<path d="M 232.1 13.7 L 232.1 15.4" stroke-width="1.80"/>
<path d="M 232.1 15.4 L 232.1 17.4 L 232.0 19.4" stroke-width="1.60"/>
<path d="M 232.0 19.4 L 231.9 21.6 L 231.7 23.7 L 231.5 25.7 L 231.4 27.5 L 231.2 28.9" stroke-width="1.40"/>
<path d="M 231.2 28.9 L 231.1 29.9" stroke-width="1.60"/>
<path d="M 231.1 29.9 L 231.1 30.6" stroke-width="1.80"/>
<path d="M 231.1 30.6 L 231.1 30.9" stroke-width="2.00"/>
<path d="M 231.1 30.9 L 231.1 30.8" stroke-width="2.40"/>
<path d="M 231.1 30.8 L 231.2 30.4 L 231.3 29.7 L 231.6 28.6" stroke-width="2.60"/>
<path d="M 231.6 28.6 L 232.1 27.3" stroke-width="2.20"/>
<path d="M 232.1 27.3 L 232.8 25.8" stroke-width="2.00"/>
<path d="M 232.8 25.8 L 233.7 24.3" stroke-width="1.80"/>
<path d="M 233.7 24.3 L 234.8 22.9 L 236.0 21.6 L 237.4 20.5 L 238.8 19.8 L 240.1 19.5 L 241.5 19.5 L 242.7 19.9" stroke-width="1.60"/>
<path d="M 242.7 19.9 L 243.7 20.6 L 244.5 21.7 L 245.0 23.0" stroke-width="1.80"/>
<path d="M 245.0 23.0 L 245.2 24.5 L 245.3 26.1 L 245.3 27.7 L 245.2 29.1 L 245.2 30.3" stroke-width="1.60"/>
<path d="M 245.2 30.3 L 245.1 31.2" stroke-width="1.80"/>
<path d="M 245.1 31.2 L 245.2 31.7" stroke-width="2.00"/>
<path d="M 245.2 31.7 L 245.3 31.9" stroke-width="2.40"/>
<path d="M 245.3 31.9 L 245.5 31.8" stroke-width="2.60"/>
<path d="M 245.5 31.8 L 245.7 31.6" stroke-width="2.40"/>
<path d="M 245.7 31.6 L 245.9 31.4" stroke-width="2.00"/>
<circle cx="251.8" cy="20.6" r="0.63" fill="currentColor" stroke="none"/>
<path d="M 251.8 20.6 L 251.8 20.6" stroke-width="1.60"/>
<path d="M 251.8 20.6 L 251.8 20.8" stroke-width="2.40"/>
<path d="M 251.8 20.8 L 251.9 21.2 L 251.9 21.9 L 251.9 22.8" stroke-width="2.60"/>
<path d="M 251.9 22.8 L 251.8 24.0" stroke-width="2.40"/>
<path d="M 251.8 24.0 L 251.6 25.3" stroke-width="2.20"/>
<path d="M 251.6 25.3 L 251.5 26.7" stroke-width="2.00"/>
<path d="M 251.5 26.7 L 251.3 28.1 L 251.2 29.5 L 251.2 30.6" stroke-width="1.80"/>
<path d="M 251.2 30.6 L 251.3 31.5 L 251.4 32.1" stroke-width="2.00"/>
<path d="M 251.4 32.1 L 251.5 32.2 L 251.6 32.2" stroke-width="2.40"/>
<path d="M 251.6 32.2 L 251.6 32.0" stroke-width="2.00"/>
<circle cx="252.4" cy="10.9" r="0.63" fill="currentColor" stroke="none"/>
<path d="M 252.4 10.9 L 252.4 10.9" stroke-width="1.60"/>
<path d="M 252.4 10.9 L 252.5 10.9" stroke-width="2.40"/>
<path d="M 252.5 10.9 L 252.5 10.9 L 252.6 10.9 L 252.6 10.9 L 252.6 11.0" stroke-width="2.60"/>
<path d="M 252.6 11.0 L 252.6 11.0" stroke-width="2.40"/>
<path d="M 252.6 11.0 L 252.7 11.0" stroke-width="2.00"/>
<circle cx="258.4" cy="18.7" r="0.63" fill="currentColor" stroke="none"/>
<path d="M 258.4 18.7 L 258.4 19.0" stroke-width="1.60"/>
<path d="M 258.4 19.0 L 258.4 19.8" stroke-width="2.00"/>
<path d="M 258.4 19.8 L 258.5 20.8" stroke-width="2.20"/>
<path d="M 258.5 20.8 L 258.5 22.2 L 258.6 23.7" stroke-width="2.00"/>
<path d="M 258.6 23.7 L 258.5 25.4" stroke-width="1.80"/>
<path d="M 258.5 25.4 L 258.5 27.2 L 258.3 28.9 L 258.2 30.3 L 258.2 31.5" stroke-width="1.60"/>
<path d="M 258.2 31.5 L 258.2 32.2" stroke-width="1.80"/>
<path d="M 258.2 32.2 L 258.2 32.5" stroke-width="2.00"/>
<path d="M 258.2 32.5 L 258.3 32.3" stroke-width="2.40"/>
<path d="M 258.3 32.3 L 258.4 31.7" stroke-width="2.60"/>
<path d="M 258.4 31.7 L 258.7 30.5" stroke-width="2.40"/>
<path d="M 258.7 30.5 L 259.1 29.0" stroke-width="2.20"/>
<path d="M 259.1 29.0 L 259.7 27.2" stroke-width="1.80"/>
<path d="M 259.7 27.2 L 260.5 25.3" stroke-width="1.60"/>
<path d="M 260.5 25.3 L 261.4 23.5 L 262.5 21.9 L 263.8 20.5 L 265.1 19.4 L 266.4 18.6" stroke-width="1.40"/>
<path d="M 266.4 18.6 L 267.8 18.4 L 269.0 18.6 L 270.2 19.2 L 271.1 20.3 L 271.9 21.7 L 272.5 23.4 L 272.9 25.3" stroke-width="1.60"/>
<path d="M 272.9 25.3 L 273.1 27.3 L 273.2 29.1 L 273.3 30.7" stroke-width="1.40"/>
<path d="M 273.3 30.7 L 273.4 31.9 L 273.5 32.7" stroke-width="1.60"/>
<path d="M 273.5 32.7 L 273.6 33.1" stroke-width="2.00"/>
<path d="M 273.6 33.1 L 273.7 33.0" stroke-width="2.40"/>
<path d="M 273.7 33.0 L 273.9 32.5" stroke-width="2.60"/>
<path d="M 273.9 32.5 L 274.1 31.9" stroke-width="2.40"/>
<path d="M 274.1 31.9 L 274.3 31.4" stroke-width="2.00"/>
<circle cx="279.6" cy="7.8" r="0.63" fill="currentColor" stroke="none"/>
<path d="M 279.6 7.8 L 279.6 8.2" stroke-width="1.60"/>
<path d="M 279.6 8.2 L 279.7 8.9" stroke-width="2.00"/>
<path d="M 279.7 8.9 L 279.9 9.9" stroke-width="2.20"/>
<path d="M 279.9 9.9 L 280.0 11.3 L 280.1 12.9" stroke-width="2.00"/>
<path d="M 280.1 12.9 L 280.1 14.8" stroke-width="1.80"/>
<path d="M 280.1 14.8 L 280.1 16.9" stroke-width="1.60"/>
<path d="M 280.1 16.9 L 279.9 19.3 L 279.8 21.7" stroke-width="1.40"/>
<path d="M 279.8 21.7 L 279.7 24.0 L 279.7 26.2 L 279.7 28.1" stroke-width="1.20"/>
<path d="M 279.7 28.1 L 279.7 29.6 L 279.8 30.7" stroke-width="1.40"/>
<path d="M 279.8 30.7 L 279.8 31.3" stroke-width="1.60"/>
<path d="M 279.8 31.3 L 279.9 31.5" stroke-width="2.00"/>
<path d="M 279.9 31.5 L 280.0 31.1" stroke-width="2.40"/>
<path d="M 280.0 31.1 L 280.3 30.4" stroke-width="2.60"/>
<path d="M 280.3 30.4 L 280.6 29.5" stroke-width="2.40"/>
<path d="M 280.6 29.5 L 280.8 28.9" stroke-width="2.00"/>
<circle cx="286.7" cy="20.6" r="0.63" fill="currentColor" stroke="none"/>
<path d="M 286.7 20.6 L 286.7 20.4" stroke-width="1.60"/>
<path d="M 286.7 20.4 L 286.8 20.1" stroke-width="2.20"/>
<path d="M 286.8 20.1 L 286.7 19.9 L 286.4 19.8 L 285.9 20.0 L 285.0 20.4" stroke-width="2.60"/>
<path d="M 285.0 20.4 L 283.8 21.0" stroke-width="2.40"/>
<path d="M 283.8 21.0 L 282.5 21.8" stroke-width="2.00"/>
<path d="M 282.5 21.8 L 281.1 22.8 L 279.9 23.7 L 279.0 24.6 L 278.5 25.4" stroke-width="1.80"/>
<path d="M 278.5 25.4 L 278.4 26.1" stroke-width="2.00"/>
<path d="M 278.4 26.1 L 278.7 26.7 L 279.5 27.3 L 280.6 27.8" stroke-width="2.20"/>
<path d="M 280.6 27.8 L 282.2 28.2" stroke-width="2.00"/>
<path d="M 282.2 28.2 L 284.0 28.5" stroke-width="1.80"/>
<path d="M 284.0 28.5 L 286.0 28.8" stroke-width="1.60"/>
<path d="M 286.0 28.8 L 288.0 29.1 L 289.8 29.4 L 291.4 29.7" stroke-width="1.40"/>
<path d="M 291.4 29.7 L 292.6 30.1 L 293.4 30.3" stroke-width="1.60"/>
<path d="M 293.4 30.3 L 293.9 30.6" stroke-width="2.00"/>
<path d="M 293.9 30.6 L 294.1 30.8" stroke-width="2.20"/>
<path d="M 294.1 30.8 L 294.2 30.9 L 294.1 30.9 L 294.1 30.8" stroke-width="2.60"/>
<path d="M 294.1 30.8 L 294.1 30.7" stroke-width="2.40"/>
<path d="M 294.1 30.7 L 294.1 30.6" stroke-width="2.00"/>
<circle cx="296.5" cy="21.1" r="0.63" fill="currentColor" stroke="none"/>
<path d="M 296.5 21.1 L 296.5 21.2" stroke-width="1.60"/>
<path d="M 296.5 21.2 L 296.6 21.5" stroke-width="2.40"/>
<path d="M 296.6 21.5 L 296.6 22.1 L 296.7 23.0" stroke-width="2.60"/>
<path d="M 296.7 23.0 L 296.6 24.2" stroke-width="2.40"/>
<path d="M 296.6 24.2 L 296.6 25.6" stroke-width="2.20"/>
<path d="M 296.6 25.6 L 296.4 27.2" stroke-width="2.00"/>
<path d="M 296.4 27.2 L 296.2 28.8 L 296.1 30.2 L 296.1 31.4 L 296.2 32.2" stroke-width="1.80"/>
<path d="M 296.2 32.2 L 296.3 32.6" stroke-width="2.00"/>
<path d="M 296.3 32.6 L 296.4 32.6" stroke-width="2.40"/>
<path d="M 296.4 32.6 L 296.5 32.0" stroke-width="2.60"/>
<path d="M 296.5 32.0 L 296.7 31.4" stroke-width="2.40"/>
<path d="M 296.7 31.4 L 296.7 30.8" stroke-width="2.00"/>
<circle cx="297.0" cy="9.8" r="0.63" fill="currentColor" stroke="none"/>
<path d="M 297.0 9.8 L 297.0 9.8" stroke-width="1.60"/>
<path d="M 297.0 9.8 L 297.0 9.8" stroke-width="2.40"/>
<path d="M 297.0 9.8 L 297.0 9.8 L 297.0 9.8 L 297.0 10.0 L 297.0 10.2" stroke-width="2.60"/>
<path d="M 297.0 10.2 L 297.0 10.4" stroke-width="2.40"/>
<path d="M 297.0 10.4 L 297.0 10.6" stroke-width="2.00"/>
<circle cx="303.3" cy="19.6" r="0.63" fill="currentColor" stroke="none"/>
<path d="M 303.3 19.6 L 303.3 20.0" stroke-width="1.60"/>
<path d="M 303.3 20.0 L 303.3 20.7 L 303.3 21.7 L 303.3 22.9" stroke-width="2.20"/>
<path d="M 303.3 22.9 L 303.2 24.4" stroke-width="2.00"/>
<path d="M 303.2 24.4 L 303.0 26.1" stroke-width="1.80"/>
<path d="M 303.0 26.1 L 302.8 27.8 L 302.6 29.5 L 302.4 30.9 L 302.2 31.9" stroke-width="1.60"/>
<path d="M 302.2 31.9 L 302.2 32.5" stroke-width="1.80"/>
<path d="M 302.2 32.5 L 302.2 32.7" stroke-width="2.20"/>
<path d="M 302.2 32.7 L 302.2 32.4 L 302.4 31.6" stroke-width="2.60"/>
<path d="M 302.4 31.6 L 302.8 30.5" stroke-width="2.40"/>
<path d="M 302.8 30.5 L 303.3 28.9" stroke-width="2.20"/>
<path d="M 303.3 28.9 L 304.0 27.2" stroke-width="1.80"/>
<path d="M 304.0 27.2 L 304.9 25.4 L 305.8 23.6" stroke-width="1.60"/>
<path d="M 305.8 23.6 L 306.8 22.1 L 307.8 20.8 L 308.9 19.8" stroke-width="1.40"/>
<path d="M 308.9 19.8 L 310.0 19.2 L 311.1 19.0" stroke-width="1.60"/>
<path d="M 311.1 19.0 L 312.2 19.2 L 313.3 19.9 L 314.3 20.9 L 315.1 22.3" stroke-width="1.80"/>
<path d="M 315.1 22.3 L 315.7 23.9 L 316.2 25.6 L 316.5 27.3" stroke-width="1.60"/>
<path d="M 316.5 27.3 L 316.7 29.0" stroke-width="1.40"/>
<path d="M 316.7 29.0 L 316.9 30.4 L 317.1 31.6 L 317.2 32.4 L 317.3 32.8" stroke-width="1.60"/>
<circle cx="328.1" cy="22.5" r="0.63" fill="currentColor" stroke="none"/>
<path d="M 328.1 22.5 L 328.0 22.2" stroke-width="1.60"/>
<path d="M 328.0 22.2 L 327.7 21.9" stroke-width="2.20"/>
<path d="M 327.7 21.9 L 327.2 21.6 L 326.6 21.5 L 325.9 21.5 L 325.1 21.9" stroke-width="2.60"/>
<path d="M 325.1 21.9 L 324.1 22.5" stroke-width="2.40"/>
<path d="M 324.1 22.5 L 323.2 23.4" stroke-width="2.20"/>
<path d="M 323.2 23.4 L 322.4 24.4 L 321.8 25.6" stroke-width="2.00"/>
<path d="M 321.8 25.6 L 321.6 26.8 L 321.7 28.0" stroke-width="1.80"/>
<path d="M 321.7 28.0 L 322.2 28.9 L 323.1 29.5 L 324.3 29.7" stroke-width="2.00"/>
<path d="M 324.3 29.7 L 325.7 29.6 L 327.2 29.1" stroke-width="1.80"/>
<path d="M 327.2 29.1 L 328.7 28.2 L 329.9 27.2 L 331.0 26.0 L 331.8 24.8 L 332.3 23.8" stroke-width="1.60"/>
<path d="M 332.3 23.8 L 332.5 22.9" stroke-width="1.80"/>
<path d="M 332.5 22.9 L 332.6 22.2" stroke-width="2.00"/>
<path d="M 332.6 22.2 L 332.5 21.8" stroke-width="2.20"/>
<path d="M 332.5 21.8 L 332.4 21.7" stroke-width="2.40"/>
<path d="M 332.4 21.7 L 332.3 21.9 L 332.2 22.4 L 332.2 23.3" stroke-width="2.60"/>
<path d="M 332.2 23.3 L 332.3 24.5" stroke-width="2.40"/>
<path d="M 332.3 24.5 L 332.4 26.1" stroke-width="2.20"/>
<path d="M 332.4 26.1 L 332.7 27.9" stroke-width="1.80"/>
<path d="M 332.7 27.9 L 333.0 29.8 L 333.3 31.8" stroke-width="1.60"/>
<path d="M 333.3 31.8 L 333.7 33.9 L 333.9 36.1" stroke-width="1.40"/>
<path d="M 333.9 36.1 L 334.0 38.3 L 333.9 40.4 L 333.6 42.4" stroke-width="1.20"/>
<path d="M 333.6 42.4 L 333.1 44.2 L 332.3 45.6 L 331.3 46.8 L 330.0 47.6" stroke-width="1.40"/>
<path d="M 330.0 47.6 L 328.5 48.0" stroke-width="1.60"/>
<path d="M 328.5 48.0 L 326.7 48.1 L 324.7 47.9 L 322.7 47.3 L 320.8 46.4 L 319.0 45.3 L 317.6 44.1 L 316.4 42.7 L 315.6 41.3 L 315.2 39.9" stroke-width="1.40"/>
<path d="M 315.2 39.9 L 315.2 38.7 L 315.4 37.8" stroke-width="1.60"/>
<path d="M 315.4 37.8 L 315.6 37.3" stroke-width="1.40"/>
<circle cx="360.6" cy="23.9" r="0.63" fill="currentColor" stroke="none"/>
<path d="M 360.6 23.9 L 360.5 23.6" stroke-width="1.60"/>
<path d="M 360.5 23.6 L 360.2 23.2" stroke-width="2.20"/>
<path d="M 360.2 23.2 L 359.8 22.6 L 359.3 22.1" stroke-width="2.40"/>
<path d="M 359.3 22.1 L 358.6 21.8" stroke-width="2.60"/>
<path d="M 358.6 21.8 L 357.8 21.6 L 356.9 21.6" stroke-width="2.40"/>
<path d="M 356.9 21.6 L 355.9 21.8 L 354.8 22.4" stroke-width="2.20"/>
<path d="M 354.8 22.4 L 353.6 23.2" stroke-width="2.00"/>
<path d="M 353.6 23.2 L 352.6 24.3 L 351.7 25.6" stroke-width="1.80"/>
<path d="M 351.7 25.6 L 351.0 27.0 L 350.7 28.5 L 350.8 29.9 L 351.3 31.2 L 352.2 32.1" stroke-width="1.60"/>
<path d="M 352.2 32.1 L 353.4 32.7 L 354.9 32.8" stroke-width="1.80"/>
<path d="M 354.9 32.8 L 356.5 32.4 L 358.2 31.7" stroke-width="1.60"/>
<path d="M 358.2 31.7 L 359.8 30.5 L 361.3 29.1 L 362.6 27.5 L 363.6 25.9 L 364.2 24.3 L 364.5 23.0" stroke-width="1.40"/>
<path d="M 364.5 23.0 L 364.6 22.1" stroke-width="1.60"/>
<path d="M 364.6 22.1 L 364.5 21.4" stroke-width="1.80"/>
<path d="M 364.5 21.4 L 364.4 21.2" stroke-width="2.20"/>
<path d="M 364.4 21.2 L 364.2 21.3" stroke-width="2.40"/>
<path d="M 364.2 21.3 L 364.1 21.7 L 363.9 22.6" stroke-width="2.60"/>
<path d="M 363.9 22.6 L 363.8 23.8" stroke-width="2.40"/>
<path d="M 363.8 23.8 L 363.7 25.2" stroke-width="2.20"/>
<path d="M 363.7 25.2 L 363.7 26.8" stroke-width="2.00"/>
<path d="M 363.7 26.8 L 363.9 28.3 L 364.2 29.7 L 364.6 30.9 L 365.1 31.7" stroke-width="1.80"/>
<path d="M 365.1 31.7 L 365.7 32.2" stroke-width="2.00"/>
<path d="M 365.7 32.2 L 366.4 32.3 L 367.0 32.1" stroke-width="2.20"/>
<path d="M 367.0 32.1 L 367.5 31.9" stroke-width="2.00"/>
<circle cx="378.6" cy="19.8" r="0.63" fill="currentColor" stroke="none"/>
<path d="M 378.6 19.8 L 378.3 19.7" stroke-width="1.60"/>
<path d="M 378.3 19.7 L 377.6 19.5" stroke-width="2.20"/>
<path d="M 377.6 19.5 L 376.8 19.5" stroke-width="2.40"/>
<path d="M 376.8 19.5 L 375.7 19.6 L 374.5 20.0" stroke-width="2.20"/>
<path d="M 374.5 20.0 L 373.4 20.5 L 372.4 21.2 L 371.7 21.9 L 371.5 22.7" stroke-width="2.00"/>
<path d="M 371.5 22.7 L 371.8 23.5 L 372.7 24.2" stroke-width="2.20"/>
<path d="M 372.7 24.2 L 374.0 24.9" stroke-width="2.00"/>
<path d="M 374.0 24.9 L 375.8 25.5" stroke-width="1.80"/>
<path d="M 375.8 25.5 L 377.7 26.1" stroke-width="1.60"/>
<path d="M 377.7 26.1 L 379.8 26.7 L 381.8 27.3 L 383.5 27.9 L 384.7 28.5" stroke-width="1.40"/>
<path d="M 384.7 28.5 L 385.5 29.1" stroke-width="1.60"/>
<path d="M 385.5 29.1 L 385.7 29.6" stroke-width="1.80"/>
<path d="M 385.7 29.6 L 385.4 30.2" stroke-width="2.00"/>
<path d="M 385.4 30.2 L 384.7 30.6 L 383.6 31.0" stroke-width="2.20"/>
<path d="M 383.6 31.0 L 382.1 31.2" stroke-width="2.00"/>
<path d="M 382.1 31.2 L 380.3 31.3" stroke-width="1.80"/>
<path d="M 380.3 31.3 L 378.3 31.3" stroke-width="1.60"/>
<path d="M 378.3 31.3 L 376.3 31.1 L 374.3 30.9 L 372.5 30.7 L 370.9 30.4" stroke-width="1.40"/>
<path d="M 370.9 30.4 L 369.8 30.1 L 369.0 29.7" stroke-width="1.60"/>
<path d="M 369.0 29.7 L 368.6 29.4" stroke-width="2.00"/>
<path d="M 368.6 29.4 L 368.7 29.0" stroke-width="2.20"/>
<path d="M 368.7 29.0 L 369.1 28.6" stroke-width="2.40"/>
<path d="M 369.1 28.6 L 369.4 28.4" stroke-width="2.00"/>
<circle cx="401.1" cy="20.6" r="0.63" fill="currentColor" stroke="none"/>
<path d="M 401.1 20.6 L 401.1 21.0" stroke-width="1.60"/>
<path d="M 401.1 21.0 L 401.2 21.6" stroke-width="2.20"/>
<path d="M 401.2 21.6 L 401.3 22.5" stroke-width="2.40"/>
<path d="M 401.3 22.5 L 401.3 23.7 L 401.3 24.9" stroke-width="2.20"/>
<path d="M 401.3 24.9 L 401.3 26.2 L 401.3 27.5" stroke-width="2.00"/>
<path d="M 401.3 27.5 L 401.3 28.8 L 401.2 29.9" stroke-width="1.80"/>
<path d="M 401.2 29.9 L 401.2 30.7 L 401.1 31.2 L 401.0 31.4" stroke-width="2.00"/>
<circle cx="401.0" cy="9.5" r="0.63" fill="currentColor" stroke="none"/>
<path d="M 401.0 9.5 L 401.0 9.4" stroke-width="1.60"/>
<path d="M 401.0 9.4 L 401.0 9.4" stroke-width="2.40"/>
<path d="M 401.0 9.4 L 401.0 9.3 L 401.1 9.3 L 401.1 9.2 L 401.2 9.2" stroke-width="2.60"/>
<path d="M 401.2 9.2 L 401.3 9.2" stroke-width="2.40"/>
<path d="M 401.3 9.2 L 401.3 9.2" stroke-width="2.00"/>
<circle cx="411.3" cy="10.7" r="0.63" fill="currentColor" stroke="none"/>
<path d="M 411.3 10.7 L 411.2 11.2" stroke-width="1.60"/>
<path d="M 411.2 11.2 L 411.0 12.2 L 410.7 13.5" stroke-width="2.00"/>
<path d="M 410.7 13.5 L 410.5 15.1 L 410.3 16.8" stroke-width="1.80"/>
<path d="M 410.3 16.8 L 410.1 18.7" stroke-width="1.60"/>
<path d="M 410.1 18.7 L 409.9 20.7 L 409.7 22.7 L 409.5 24.6 L 409.5 26.4 L 409.5 28.0 L 409.6 29.3" stroke-width="1.40"/>
<path d="M 409.6 29.3 L 409.9 30.2" stroke-width="1.60"/>
<path d="M 409.9 30.2 L 410.2 30.7" stroke-width="1.80"/>
<path d="M 410.2 30.7 L 410.4 30.8 L 410.6 30.8" stroke-width="2.00"/>
<circle cx="405.2" cy="19.6" r="0.63" fill="currentColor" stroke="none"/>
<path d="M 405.2 19.6 L 405.5 19.6" stroke-width="1.60"/>
<path d="M 405.5 19.6 L 406.0 19.7" stroke-width="2.20"/>
<path d="M 406.0 19.7 L 407.0 19.7" stroke-width="2.40"/>
<path d="M 407.0 19.7 L 408.4 19.6" stroke-width="2.20"/>
<path d="M 408.4 19.6 L 410.2 19.5" stroke-width="2.00"/>
<path d="M 410.2 19.5 L 412.2 19.4 L 414.1 19.3" stroke-width="1.60"/>
<path d="M 414.1 19.3 L 415.9 19.2 L 417.4 19.2" stroke-width="1.40"/>
<path d="M 417.4 19.2 L 418.5 19.2 L 419.3 19.2 L 419.6 19.2" stroke-width="1.60"/>
<circle cx="445.9" cy="22.3" r="0.63" fill="currentColor" stroke="none"/>
<path d="M 445.9 22.3 L 445.7 21.9" stroke-width="1.60"/>
<path d="M 445.7 21.9 L 445.2 21.4" stroke-width="2.00"/>
<path d="M 445.2 21.4 L 444.4 20.9 L 443.3 20.6" stroke-width="2.20"/>
<path d="M 443.3 20.6 L 441.8 20.5" stroke-width="2.00"/>
<path d="M 441.8 20.5 L 440.1 20.9" stroke-width="1.80"/>
<path d="M 440.1 20.9 L 438.4 21.6 L 436.8 22.6" stroke-width="1.60"/>
<path d="M 436.8 22.6 L 435.5 23.8 L 434.8 25.2" stroke-width="1.40"/>
<path d="M 434.8 25.2 L 434.5 26.6 L 434.8 27.9 L 435.5 29.0 L 436.7 29.6 L 438.2 29.9 L 439.9 29.6 L 441.7 29.0" stroke-width="1.60"/>
<path d="M 441.7 29.0 L 443.4 27.9 L 445.0 26.6 L 446.2 25.1 L 447.1 23.7 L 447.6 22.5" stroke-width="1.40"/>
<path d="M 447.6 22.5 L 447.8 21.6" stroke-width="1.60"/>
<path d="M 447.8 21.6 L 447.7 20.9" stroke-width="1.80"/>
<path d="M 447.7 20.9 L 447.6 20.7" stroke-width="2.20"/>
<path d="M 447.6 20.7 L 447.5 20.8" stroke-width="2.40"/>
<path d="M 447.5 20.8 L 447.4 21.4 L 447.3 22.4" stroke-width="2.60"/>
<path d="M 447.3 22.4 L 447.4 23.7" stroke-width="2.40"/>
<path d="M 447.4 23.7 L 447.6 25.3" stroke-width="2.00"/>
<path d="M 447.6 25.3 L 448.0 27.1" stroke-width="1.80"/>
<path d="M 448.0 27.1 L 448.5 29.0 L 449.1 30.9" stroke-width="1.60"/>
<path d="M 449.1 30.9 L 449.8 32.7 L 450.3 34.5 L 450.7 36.1 L 450.8 37.5" stroke-width="1.40"/>
<path d="M 450.8 37.5 L 450.7 38.7 L 450.3 39.6" stroke-width="1.60"/>
<path d="M 450.3 39.6 L 449.6 40.3" stroke-width="1.80"/>
<path d="M 449.6 40.3 L 448.6 40.7 L 447.4 40.8" stroke-width="2.00"/>
<path d="M 447.4 40.8 L 445.9 40.7 L 444.3 40.4" stroke-width="1.80"/>
<path d="M 444.3 40.4 L 442.7 39.9 L 441.2 39.4 L 439.9 38.7 L 438.9 38.1" stroke-width="1.60"/>
<path d="M 438.9 38.1 L 438.2 37.4" stroke-width="1.80"/>
<path d="M 438.2 37.4 L 437.7 36.8 L 437.5 36.2" stroke-width="2.00"/>
<path d="M 437.5 36.2 L 437.5 35.9" stroke-width="1.80"/>
<circle cx="460.8" cy="19.9" r="0.63" fill="currentColor" stroke="none"/>
<path d="M 460.8 19.9 L 460.5 19.7" stroke-width="1.60"/>
<path d="M 460.5 19.7 L 459.9 19.5" stroke-width="2.00"/>
<path d="M 459.9 19.5 L 459.0 19.4 L 457.9 19.6" stroke-width="2.20"/>
<path d="M 457.9 19.6 L 456.6 20.1 L 455.3 20.9" stroke-width="2.00"/>
<path d="M 455.3 20.9 L 454.1 22.0" stroke-width="1.80"/>
<path d="M 454.1 22.0 L 453.1 23.3 L 452.4 24.7 L 452.1 26.2 L 452.3 27.5 L 453.0 28.6" stroke-width="1.60"/>
<path d="M 453.0 28.6 L 454.0 29.4" stroke-width="1.80"/>
<path d="M 454.0 29.4 L 455.5 29.8 L 457.2 29.7 L 459.1 29.3" stroke-width="1.60"/>
<path d="M 459.1 29.3 L 460.8 28.4 L 462.4 27.2 L 463.7 25.9 L 464.7 24.4 L 465.3 23.0" stroke-width="1.40"/>
<path d="M 465.3 23.0 L 465.4 21.6 L 465.3 20.5" stroke-width="1.60"/>
<path d="M 465.3 20.5 L 464.8 19.6 L 464.2 19.0" stroke-width="1.80"/>
<path d="M 464.2 19.0 L 463.4 18.7 L 462.7 18.6" stroke-width="2.00"/>
<path d="M 462.7 18.6 L 462.2 18.7" stroke-width="1.80"/>
<circle cx="469.1" cy="24.0" r="0.63" fill="currentColor" stroke="none"/>
<path d="M 469.1 24.0 L 469.4 24.2" stroke-width="1.60"/>
<path d="M 469.4 24.2 L 469.9 24.3" stroke-width="2.20"/>
<path d="M 469.9 24.3 L 470.8 24.5 L 471.8 24.4" stroke-width="2.40"/>
<path d="M 471.8 24.4 L 473.0 24.2" stroke-width="2.20"/>
<path d="M 473.0 24.2 L 474.3 23.9 L 475.6 23.3" stroke-width="2.00"/>
<path d="M 475.6 23.3 L 476.8 22.7 L 477.8 22.1 L 478.5 21.3" stroke-width="1.80"/>
<path d="M 478.5 21.3 L 478.9 20.6" stroke-width="2.00"/>
<path d="M 478.9 20.6 L 478.9 19.9 L 478.5 19.4 L 477.6 19.0 L 476.3 18.8" stroke-width="2.20"/>
<path d="M 476.3 18.8 L 474.7 19.0" stroke-width="2.00"/>
<path d="M 474.7 19.0 L 473.0 19.4" stroke-width="1.80"/>
<path d="M 473.0 19.4 L 471.2 20.2 L 469.6 21.2" stroke-width="1.60"/>
<path d="M 469.6 21.2 L 468.3 22.4 L 467.4 23.7" stroke-width="1.40"/>
<path d="M 467.4 23.7 L 467.0 25.0 L 467.2 26.3 L 467.9 27.4 L 469.2 28.3 L 470.8 29.0" stroke-width="1.60"/>
<path d="M 470.8 29.0 L 472.9 29.5 L 475.1 29.7 L 477.5 29.6" stroke-width="1.40"/>
<path d="M 477.5 29.6 L 479.8 29.2 L 481.6 28.8" stroke-width="1.20"/>
<path d="M 481.6 28.8 L 482.6 28.5" stroke-width="1.00"/>
<circle cx="490.9" cy="18.6" r="0.63" fill="currentColor" stroke="none"/>
<path d="M 490.9 18.6 L 490.3 18.5" stroke-width="1.60"/>
<path d="M 490.3 18.5 L 489.3 18.5 L 488.0 18.6 L 486.6 19.0" stroke-width="2.00"/>
<path d="M 486.6 19.0 L 485.4 19.5 L 484.4 20.2 L 483.8 21.0" stroke-width="1.80"/>
<path d="M 483.8 21.0 L 483.9 21.7 L 484.6 22.5 L 485.9 23.3" stroke-width="2.00"/>
<path d="M 485.9 23.3 L 487.6 23.9" stroke-width="1.80"/>
<path d="M 487.6 23.9 L 489.7 24.5" stroke-width="1.60"/>
<path d="M 489.7 24.5 L 491.9 25.1 L 494.1 25.6 L 495.9 26.2 L 497.2 26.7" stroke-width="1.40"/>
<path d="M 497.2 26.7 L 498.1 27.2" stroke-width="1.60"/>
<path d="M 498.1 27.2 L 498.6 27.6" stroke-width="1.80"/>
<path d="M 498.6 27.6 L 498.7 28.0" stroke-width="2.00"/>
<path d="M 498.7 28.0 L 498.3 28.4" stroke-width="2.20"/>
<path d="M 498.3 28.4 L 497.5 28.8" stroke-width="2.40"/>
<path d="M 497.5 28.8 L 496.2 29.1" stroke-width="2.20"/>
<path d="M 496.2 29.1 L 494.5 29.3" stroke-width="2.00"/>
<path d="M 494.5 29.3 L 492.5 29.3" stroke-width="1.80"/>
<path d="M 492.5 29.3 L 490.3 29.2" stroke-width="1.60"/>
<path d="M 490.3 29.2 L 488.1 28.9 L 486.0 28.6 L 484.0 28.1 L 482.4 27.6 L 481.0 27.2 L 480.0 26.8 L 479.5 26.6" stroke-width="1.40"/>
</svg>
