<svg xmlns="http://www.w3.org/2000/svg" viewBox="0 0 973.4 280.0" fill="#b3261e" stroke="none" role="img">
<mask id="greeting-reveal0" maskUnits="userSpaceOnUse" x="0" y="0" width="973.4" height="280.0"><path d="M 40.8 54.1 L 41 58.8 L 40.9 67.2 L 41 78.6 L 40.9 91.7 L 40.7 105.4 L 40.2 118.6 L 40 130.5 L 40.1 139.2 L 40.4 144.1 L 41.1 144.9 L 42.1 141.5 L 43.3 134.3 L 45.4 124.9 L 48.9 114.5 L 53.2 104.6 L 58.1 96.8 L 63.2 91 L 68 87.7 L 72.1 87.1 L 75.5 89.8 L 77.9 95.9 L 79.3 104.7 L 79.1 115.4 L 77.9 126.2 L 76 135.7 L 74.3 142.6 L 73.4 147.1 L 73.7 149.4 L 75.4 149.4 L 77.6 147.7 L 79.6 145.8" fill="none" stroke="#fff" stroke-width="9.1" stroke-linecap="round" stroke-linejoin="round" stroke-dasharray="246.4" stroke-dashoffset="255.5"><animate attributeName="stroke-dashoffset" dur="6614ms" repeatCount="indefinite" values="255.5;255.5;233.3;208.7;181.9;161.2;155.2;144.4;123.8;103.8;90.3;81.8;66.3;44.8;27.9;21;16.6;13.8;13.8" keyTimes="0;0.05292;0.05534;0.05776;0.06018;0.06259;0.06501;0.06743;0.06985;0.07227;0.07469;0.07711;0.07953;0.08195;0.08437;0.08679;0.0892;0.09041;1"/></path></mask>
<path d="M 39.83,54.13 C 39.27 55.09, 39.06 56.23, 38.89 58.84 C 38.72 61.44, 38.90 63.21, 38.99 67.16 C 39.09 71.12, 39.27 73.69, 39.37 78.60 C 39.47 83.52, 39.51 86.38, 39.50 91.73 C 39.50 97.08, 39.48 99.97, 39.35 105.33 C 39.22 110.70, 39.05 113.53, 38.86 118.56 C 38.68 123.59, 38.59 126.34, 38.42 130.48 C 38.26 134.62, 37.87 136.51, 38.04 139.27 C 38.21 142.04, 38.53 143.10, 39.27 144.31 C 40.01 145.52, 40.71 145.77, 41.74 145.31 C 42.78 144.84, 43.64 144.10, 44.45 142.00 C 45.26 139.91, 45.23 138.13, 45.80 134.82 C 46.38 131.51, 46.38 129.37, 47.32 125.43 C 48.26 121.49, 49.01 119.11, 50.50 115.11 C 51.98 111.12, 52.92 108.88, 54.74 105.44 C 56.57 102.00, 57.66 100.49, 59.64 97.91 C 61.62 95.33, 62.84 94.25, 64.65 92.54 C 66.46 90.83, 67.28 90.13, 68.68 89.36 C 70.09 88.59, 70.66 88.37, 71.67 88.69 C 72.68 89.02, 72.95 89.41, 73.74 90.97 C 74.53 92.53, 74.91 93.73, 75.62 96.50 C 76.33 99.27, 76.95 101.06, 77.30 104.82 C 77.65 108.58, 77.59 111.08, 77.35 115.30 C 77.11 119.51, 76.78 121.92, 76.12 125.91 C 75.47 129.90, 74.83 132.00, 74.08 135.25 C 73.32 138.51, 72.79 139.84, 72.35 142.19 C 71.90 144.53, 71.72 145.41, 71.85 146.98 C 71.98 148.56, 72.16 149.25, 73.00 150.06 C 73.85 150.87, 74.82 151.06, 76.09 151.02 C 77.36 150.97, 78.45 150.67, 79.35 149.83 C 80.25 149.00, 80.70 147.83, 80.57 146.83 C 80.44 145.82, 79.65 145.04, 78.69 144.81 C 77.73 144.57, 76.60 145.04, 75.79 145.64 C 74.99 146.24, 74.94 147.18, 74.67 147.82 C 74.41 148.45, 74.41 148.93, 74.48 148.82 C 74.55 148.70, 74.67 148.40, 75.02 147.24 C 75.38 146.09, 75.70 145.28, 76.26 143.05 C 76.82 140.81, 77.17 139.38, 77.84 136.06 C 78.50 132.74, 78.97 130.55, 79.58 126.45 C 80.19 122.34, 80.54 119.91, 80.88 115.53 C 81.22 111.16, 81.42 108.62, 81.29 104.58 C 81.16 100.54, 81.05 98.50, 80.24 95.31 C 79.42 92.13, 78.76 90.61, 77.22 88.66 C 75.69 86.72, 74.56 86.12, 72.56 85.58 C 70.56 85.05, 69.38 85.22, 67.22 86.00 C 65.07 86.78, 63.91 87.53, 61.79 89.47 C 59.68 91.41, 58.66 92.84, 56.64 95.71 C 54.63 98.59, 53.59 100.22, 51.72 103.86 C 49.84 107.49, 48.91 109.77, 47.28 113.88 C 45.64 117.98, 44.84 120.38, 43.55 124.37 C 42.26 128.36, 41.59 130.49, 40.83 133.82 C 40.06 137.15, 39.79 138.90, 39.73 141.04 C 39.68 143.18, 40.20 143.95, 40.55 144.52 C 40.91 145.09, 41.19 144.95, 41.50 143.88 C 41.80 142.81, 42.05 141.84, 42.07 139.16 C 42.08 136.49, 41.67 134.61, 41.58 130.51 C 41.48 126.40, 41.51 123.65, 41.59 118.63 C 41.66 113.61, 41.82 110.77, 41.96 105.40 C 42.10 100.03, 42.14 97.12, 42.27 91.76 C 42.39 86.41, 42.47 83.53, 42.59 78.61 C 42.72 73.69, 42.79 71.13, 42.89 67.17 C 43.00 63.20, 43.35 61.41, 43.11 58.78 C 42.88 56.16, 42.37 54.97, 41.71 54.04 C 41.06 53.11, 40.40 53.18, 39.83 54.13" mask="url(#greeting-reveal0)"/>
<mask id="greeting-reveal1" maskUnits="userSpaceOnUse" x="0" y="0" width="973.4" height="280.0"><path d="M 110.7 92.7 L 110.7 91.7 L 110.3 91.1 L 109.1 91.7 L 106.7 94.3 L 103.3 99.5 L 99.4 107.2 L 95.8 116.9 L 92.9 127.7 L 91.4 137.5 L 91.8 145.3 L 93.5 150.1 L 96.2 151.6 L 99.6 150.2 L 103.2 145.3 L 106.9 137.7 L 110.7 127.7 L 114.1 116.8 L 116.8 106.4 L 119.1 98 L 120.4 92.1 L 121 89.9 L 120.8 91.8 L 120.3 97.6 L 119.7 106.6 L 119.2 117.2 L 119 127.7 L 119.2 137.2 L 119.8 144.6 L 120.9 149.3 L 122 151.6 L 122.9 152 L 123.5 151.4 L 123.8 150.5" fill="none" stroke="#fff" stroke-width="9.3" stroke-linecap="round" stroke-linejoin="round" stroke-dasharray="215.3" stroke-dashoffset="224.6"><animate attributeName="stroke-dashoffset" dur="6614ms" repeatCount="indefinite" values="224.6;224.6;213.6;208.7;193.9;172.3;154.6;146.4;136.7;117.5;95.3;80.6;76.4;61.5;40.4;23.5;16.1;14.3;13.3;13.3" keyTimes="0;0.09162;0.09404;0.09646;0.09888;0.1013;0.10372;0.10614;0.10856;0.11098;0.1134;0.11581;0.11823;0.12065;0.12307;0.12549;0.12791;0.13033;0.13154;1"/></path></mask>
<path d="M 112.01,92.73 C 112.64 92.46, 112.88 91.84, 112.53 91.25 C 112.19 90.67, 111.27 90.06, 110.28 89.82 C 109.30 89.58, 108.75 89.50, 107.59 90.07 C 106.42 90.64, 105.80 91.03, 104.46 92.65 C 103.11 94.27, 102.26 95.42, 100.87 98.16 C 99.49 100.91, 98.86 102.73, 97.51 106.37 C 96.17 110.02, 95.39 112.19, 94.13 116.37 C 92.87 120.56, 92.13 123.11, 91.21 127.31 C 90.30 131.51, 89.87 133.73, 89.58 137.39 C 89.29 141.05, 89.25 142.91, 89.78 145.63 C 90.30 148.34, 90.93 149.47, 92.20 150.96 C 93.47 152.44, 94.38 152.89, 96.13 153.04 C 97.88 153.20, 99.11 153.03, 100.97 151.75 C 102.83 150.47, 103.88 149.31, 105.44 146.65 C 107.01 143.99, 107.42 142.13, 108.80 138.45 C 110.17 134.78, 110.95 132.52, 112.32 128.28 C 113.70 124.04, 114.44 121.54, 115.67 117.25 C 116.90 112.96, 117.39 110.59, 118.49 106.84 C 119.59 103.08, 120.47 101.34, 121.18 98.47 C 121.88 95.61, 122.04 94.19, 122.02 92.50 C 121.99 90.80, 121.65 90.15, 121.05 89.98 C 120.44 89.80, 119.68 90.13, 118.98 91.62 C 118.28 93.11, 117.82 94.46, 117.54 97.44 C 117.26 100.41, 117.59 102.54, 117.57 106.48 C 117.54 110.41, 117.47 112.87, 117.40 117.11 C 117.34 121.36, 117.26 123.69, 117.23 127.72 C 117.21 131.75, 117.16 133.85, 117.26 137.28 C 117.37 140.72, 117.37 142.39, 117.77 144.90 C 118.18 147.41, 118.64 148.37, 119.29 149.85 C 119.95 151.32, 120.32 151.67, 121.06 152.27 C 121.80 152.87, 122.25 152.87, 123.00 152.86 C 123.75 152.85, 124.42 152.59, 124.81 152.21 C 125.20 151.82, 125.38 151.37, 124.95 150.94 C 124.51 150.51, 123.22 150.14, 122.65 150.07 C 122.08 150.01, 122.07 150.40, 122.10 150.62 C 122.14 150.84, 122.65 151.13, 122.82 151.18 C 123.00 151.23, 123.02 151.33, 122.96 150.86 C 122.91 150.39, 122.76 150.14, 122.55 148.83 C 122.33 147.52, 122.18 146.66, 121.90 144.31 C 121.61 141.96, 121.34 140.41, 121.11 137.09 C 120.88 133.77, 120.76 131.69, 120.75 127.73 C 120.73 123.76, 120.80 121.44, 121.03 117.24 C 121.27 113.04, 121.51 110.60, 121.92 106.72 C 122.33 102.84, 122.95 100.79, 123.10 97.83 C 123.24 94.87, 123.08 93.53, 122.63 91.92 C 122.19 90.31, 121.64 89.82, 120.87 89.79 C 120.11 89.76, 119.56 90.24, 118.81 91.77 C 118.05 93.30, 117.83 94.61, 117.09 97.44 C 116.35 100.27, 116.05 102.16, 115.13 105.94 C 114.21 109.72, 113.72 112.10, 112.50 116.34 C 111.28 120.59, 110.52 123.05, 109.03 127.15 C 107.53 131.25, 106.63 133.48, 105.03 136.86 C 103.42 140.24, 102.37 141.70, 101.00 144.04 C 99.62 146.39, 99.13 147.36, 98.16 148.60 C 97.20 149.84, 96.86 150.12, 96.17 150.25 C 95.48 150.37, 95.20 150.27, 94.73 149.22 C 94.25 148.16, 94.07 147.30, 93.78 144.98 C 93.50 142.66, 93.14 141.02, 93.30 137.63 C 93.46 134.24, 93.74 132.07, 94.59 128.03 C 95.44 124.00, 96.19 121.46, 97.54 117.46 C 98.88 113.45, 99.71 111.32, 101.33 108.00 C 102.95 104.68, 104.13 103.27, 105.65 100.87 C 107.18 98.47, 107.98 97.50, 108.96 96.01 C 109.93 94.51, 110.25 94.12, 110.54 93.40 C 110.82 92.69, 110.69 92.69, 110.37 92.43 C 110.06 92.17, 109.15 92.07, 108.95 92.11 C 108.75 92.14, 108.77 92.49, 109.39 92.62 C 110.00 92.74, 111.38 93.01, 112.01 92.73" mask="url(#greeting-reveal1)"/>
<mask id="greeting-reveal2" maskUnits="userSpaceOnUse" x="0" y="0" width="973.4" height="280.0"><path d="M 139.3 92.8 L 139.5 94.6 L 140 99.3 L 140.3 107.7 L 140.1 119.7 L 139.4 134.7 L 138.4 151.2 L 137.1 168.4 L 135.9 185.2 L 135 200.5 L 134.4 213.1 L 134 222.4 L 133.8 227.8 L 133.6 229.2 L 133 226.1 L 132 218.3 L 130.8 206.9 L 130.1 192.5 L 130 176.6 L 131 159.8 L 132.9 143.1 L 136 126.8 L 140.4 111.9 L 145.8 99.7 L 151.9 91 L 158.1 85.6 L 164 84.1 L 169.3 86.4 L 173.5 92 L 175.9 100.1 L 176.6 109.6 L 175.3 119.5 L 172 128.9 L 167.2 137 L 161.7 143.1 L 155.8 147.1 L 149.9 148.7 L 144.6 148.1 L 140.8 145.6" fill="none" stroke="#fff" stroke-width="9" stroke-linecap="round" stroke-linejoin="round" stroke-dasharray="401.7" stroke-dashoffset="410.7"><animate attributeName="stroke-dashoffset" dur="6614ms" repeatCount="indefinite" values="410.7;410.7;395.1;374.7;343.1;309.1;281.1;266.4;261.9;242.5;212.2;178.5;146.5;122.5;108.1;95.4;77.4;57.5;39.8;26.6;16.7;16.7" keyTimes="0;0.13275;0.13517;0.13759;0.14001;0.14243;0.14484;0.14726;0.14968;0.1521;0.15452;0.15694;0.15936;0.16178;0.1642;0.16662;0.16904;0.17145;0.17387;0.17629;0.17871;1"/></path></mask>
<path d="M 138.57,92.82 C 138.07 93.24, 137.87 93.44, 137.63 94.78 C 137.39 96.12, 137.21 96.93, 137.35 99.52 C 137.50 102.11, 138.11 103.70, 138.37 107.74 C 138.62 111.77, 138.67 114.31, 138.64 119.69 C 138.62 125.08, 138.50 128.37, 138.23 134.66 C 137.96 140.96, 137.73 144.44, 137.30 151.17 C 136.87 157.91, 136.57 161.54, 136.08 168.33 C 135.59 175.12, 135.28 178.70, 134.84 185.12 C 134.40 191.53, 134.23 194.82, 133.88 200.42 C 133.52 206.01, 133.40 208.70, 133.06 213.08 C 132.72 217.46, 132.28 219.40, 132.18 222.33 C 132.08 225.27, 132.21 226.40, 132.56 227.74 C 132.91 229.08, 133.42 229.42, 133.95 229.03 C 134.47 228.65, 135.14 228.01, 135.17 225.82 C 135.20 223.63, 134.65 221.88, 134.10 218.07 C 133.54 214.27, 132.93 211.90, 132.39 206.79 C 131.84 201.67, 131.60 198.55, 131.35 192.51 C 131.10 186.47, 131.00 183.12, 131.13 176.60 C 131.26 170.08, 131.48 166.59, 132.02 159.91 C 132.57 153.24, 132.85 149.81, 133.86 143.24 C 134.87 136.66, 135.54 133.20, 137.06 127.02 C 138.59 120.83, 139.51 117.67, 141.48 112.33 C 143.46 107.00, 144.63 104.41, 146.94 100.34 C 149.25 96.27, 150.61 94.62, 153.03 91.99 C 155.45 89.37, 156.86 88.44, 159.03 87.21 C 161.20 85.98, 162.08 85.69, 163.88 85.85 C 165.68 86.00, 166.51 86.57, 168.02 87.99 C 169.53 89.41, 170.27 90.46, 171.44 92.95 C 172.61 95.44, 173.21 97.11, 173.87 100.42 C 174.53 103.74, 174.77 105.78, 174.72 109.50 C 174.66 113.23, 174.46 115.33, 173.60 119.06 C 172.74 122.79, 171.98 124.79, 170.41 128.15 C 168.84 131.52, 167.77 133.21, 165.75 135.89 C 163.73 138.58, 162.51 139.72, 160.33 141.59 C 158.15 143.45, 156.97 144.20, 154.84 145.21 C 152.72 146.22, 151.61 146.44, 149.70 146.65 C 147.78 146.86, 146.93 146.64, 145.26 146.26 C 143.60 145.88, 142.39 144.72, 141.39 144.76 C 140.39 144.80, 139.76 145.40, 140.27 146.44 C 140.79 147.48, 142.02 149.08, 143.98 149.96 C 145.94 150.84, 147.53 151.02, 150.07 150.84 C 152.61 150.65, 154.09 150.29, 156.68 149.05 C 159.27 147.80, 160.59 146.81, 163.01 144.61 C 165.42 142.42, 166.62 141.06, 168.74 138.06 C 170.85 135.07, 171.95 133.26, 173.60 129.62 C 175.25 125.98, 176.04 123.86, 177.00 119.86 C 177.96 115.86, 178.23 113.64, 178.40 109.61 C 178.57 105.58, 178.45 103.44, 177.87 99.72 C 177.29 96.00, 176.93 93.98, 175.49 91.01 C 174.04 88.03, 172.91 86.58, 170.65 84.85 C 168.38 83.11, 166.83 82.51, 164.14 82.33 C 161.45 82.16, 159.87 82.43, 157.19 83.96 C 154.50 85.49, 153.21 86.95, 150.71 89.98 C 148.21 93.01, 146.96 94.79, 144.69 99.11 C 142.41 103.43, 141.28 106.08, 139.35 111.56 C 137.42 117.04, 136.53 120.25, 135.03 126.52 C 133.53 132.80, 132.87 136.29, 131.86 142.93 C 130.85 149.57, 130.56 153.02, 129.98 159.74 C 129.39 166.46, 129.16 169.97, 128.94 176.54 C 128.72 183.11, 128.80 186.48, 128.87 192.58 C 128.93 198.67, 129.08 201.81, 129.27 207.01 C 129.45 212.20, 129.50 214.66, 129.81 218.55 C 130.11 222.44, 130.10 224.30, 130.78 226.47 C 131.47 228.64, 132.36 229.11, 133.21 229.40 C 134.07 229.68, 134.53 229.30, 135.07 227.92 C 135.62 226.54, 135.77 225.44, 135.92 222.49 C 136.07 219.55, 135.78 217.60, 135.83 213.20 C 135.89 208.81, 135.97 206.13, 136.19 200.54 C 136.41 194.94, 136.55 191.66, 136.93 185.25 C 137.32 178.84, 137.62 175.27, 138.12 168.48 C 138.61 161.70, 138.93 158.06, 139.43 151.32 C 139.93 144.58, 140.19 141.10, 140.62 134.79 C 141.04 128.49, 141.22 125.21, 141.55 119.79 C 141.89 114.38, 142.06 111.85, 142.30 107.73 C 142.53 103.60, 142.93 101.84, 142.73 99.17 C 142.54 96.50, 141.85 95.68, 141.32 94.38 C 140.79 93.09, 140.64 93.01, 140.09 92.70 C 139.54 92.39, 139.06 92.40, 138.57 92.82" mask="url(#greeting-reveal2)"/>
<mask id="greeting-reveal3" maskUnits="userSpaceOnUse" x="0" y="0" width="973.4" height="280.0"><path d="M 181.5 91.8 L 182.1 94.9 L 182.7 101.8 L 183.2 113.1 L 183.8 127.9 L 184.5 144.3 L 185.4 161 L 186 176.4 L 186.2 189.7 L 186.3 200.3 L 186.2 208 L 185.9 212.5 L 185.3 213 L 184.3 209.6 L 182.7 201.8 L 181 190.5 L 179.6 177 L 178.7 162.7 L 178.7 148.6 L 179.9 135.3 L 182.1 123.2 L 185.2 112.6 L 189.2 103.8 L 194 97.3 L 199.3 93.1 L 204.9 91.4 L 210.2 92.1 L 214.7 95.3 L 217.4 100.5 L 218.1 107.3 L 216.6 115.3 L 213 123.8 L 208.3 132.1 L 202.8 138.8 L 197.2 143.7 L 192.3 146.3 L 188.8 146.7 L 186.9 146.1" fill="none" stroke="#fff" stroke-width="8.3" stroke-linecap="round" stroke-linejoin="round" stroke-dasharray="346.3" stroke-dashoffset="354.5"><animate attributeName="stroke-dashoffset" dur="6614ms" repeatCount="indefinite" values="354.5;354.5;336.2;310;276.9;248.2;229.8;224.6;213.1;188.1;159.6;134;113.3;98.5;87.2;75.9;60.9;42.1;26;17;14.9;14.9" keyTimes="0;0.17992;0.18234;0.18476;0.18718;0.1896;0.19202;0.19444;0.19686;0.19927;0.20169;0.20411;0.20653;0.20895;0.21137;0.21379;0.21621;0.21863;0.22105;0.22347;0.22467;1"/></path></mask>
<path d="M 180.63,91.93 C 180.20 92.64, 180.18 93.11, 180.17 95.11 C 180.15 97.10, 180.27 98.30, 180.56 101.90 C 180.85 105.51, 181.21 107.92, 181.61 113.13 C 182.01 118.34, 182.19 121.70, 182.55 127.95 C 182.91 134.20, 183.05 137.76, 183.41 144.38 C 183.77 151.00, 184.06 154.63, 184.36 161.05 C 184.65 167.48, 184.77 170.75, 184.88 176.48 C 185.00 182.20, 184.97 184.93, 184.94 189.69 C 184.91 194.45, 184.87 196.63, 184.73 200.28 C 184.59 203.94, 184.23 205.57, 184.24 207.97 C 184.25 210.36, 184.41 211.33, 184.77 212.27 C 185.13 213.21, 185.65 213.31, 186.03 212.65 C 186.40 212.00, 186.86 211.25, 186.63 209.00 C 186.40 206.76, 185.68 205.17, 184.87 201.43 C 184.07 197.69, 183.40 195.20, 182.61 190.29 C 181.83 185.39, 181.49 182.43, 180.95 176.91 C 180.42 171.39, 180.13 168.35, 179.93 162.69 C 179.73 157.03, 179.71 154.07, 179.94 148.62 C 180.18 143.18, 180.42 140.50, 181.12 135.47 C 181.81 130.44, 182.30 127.97, 183.41 123.49 C 184.52 119.02, 185.21 116.87, 186.66 113.10 C 188.12 109.33, 188.94 107.53, 190.70 104.65 C 192.45 101.76, 193.54 100.61, 195.45 98.67 C 197.37 96.73, 198.34 95.98, 200.26 94.95 C 202.18 93.91, 203.22 93.65, 205.06 93.49 C 206.90 93.32, 207.86 93.47, 209.45 94.11 C 211.05 94.75, 211.90 95.30, 213.04 96.70 C 214.18 98.10, 214.59 99.00, 215.15 101.10 C 215.70 103.20, 215.92 104.50, 215.81 107.21 C 215.70 109.93, 215.51 111.53, 214.61 114.67 C 213.70 117.82, 212.88 119.68, 211.29 122.94 C 209.71 126.21, 208.67 128.10, 206.68 130.99 C 204.69 133.89, 203.50 135.23, 201.35 137.42 C 199.21 139.61, 197.90 140.52, 195.96 141.94 C 194.02 143.36, 193.06 143.82, 191.65 144.50 C 190.24 145.18, 189.81 145.14, 188.90 145.34 C 187.99 145.53, 187.52 145.20, 187.08 145.48 C 186.64 145.76, 186.35 146.21, 186.69 146.73 C 187.03 147.25, 187.54 147.81, 188.79 148.09 C 190.04 148.37, 191.00 148.65, 192.94 148.14 C 194.89 147.63, 196.23 147.11, 198.51 145.53 C 200.78 143.94, 202.05 142.71, 204.32 140.23 C 206.59 137.76, 207.77 136.27, 209.86 133.15 C 211.95 130.04, 213.03 128.13, 214.78 124.67 C 216.53 121.22, 217.46 119.35, 218.59 115.90 C 219.73 112.46, 220.24 110.68, 220.45 107.46 C 220.66 104.25, 220.45 102.55, 219.64 99.83 C 218.83 97.10, 218.11 95.76, 216.38 93.83 C 214.65 91.89, 213.34 91.03, 211.00 90.14 C 208.65 89.25, 207.21 89.15, 204.67 89.39 C 202.14 89.63, 200.75 90.05, 198.32 91.35 C 195.90 92.66, 194.68 93.60, 192.55 95.92 C 190.43 98.23, 189.45 99.70, 187.70 102.93 C 185.95 106.15, 185.20 108.07, 183.81 112.05 C 182.42 116.04, 181.79 118.25, 180.75 122.86 C 179.71 127.48, 179.25 130.01, 178.60 135.14 C 177.95 140.27, 177.73 142.99, 177.50 148.52 C 177.27 154.04, 177.30 157.04, 177.46 162.77 C 177.61 168.49, 177.88 171.55, 178.27 177.14 C 178.66 182.72, 178.94 185.69, 179.39 190.70 C 179.84 195.70, 180.00 198.30, 180.51 202.18 C 181.01 206.06, 181.10 207.86, 181.92 210.11 C 182.75 212.35, 183.63 212.90, 184.63 213.41 C 185.63 213.92, 186.23 213.70, 186.93 212.65 C 187.64 211.59, 187.94 210.59, 188.14 208.12 C 188.35 205.65, 188.06 203.98, 187.94 200.29 C 187.82 196.60, 187.69 194.43, 187.53 189.66 C 187.38 184.88, 187.37 182.15, 187.16 176.41 C 186.96 170.67, 186.82 167.38, 186.51 160.95 C 186.20 154.52, 185.91 150.89, 185.62 144.27 C 185.32 137.65, 185.21 134.10, 185.04 127.85 C 184.86 121.59, 184.80 118.23, 184.74 112.99 C 184.69 107.75, 184.89 105.32, 184.75 101.65 C 184.60 97.98, 184.51 96.66, 184.01 94.65 C 183.52 92.64, 182.97 92.14, 182.29 91.60 C 181.61 91.05, 181.05 91.23, 180.63 91.93" mask="url(#greeting-reveal3)"/>
<mask id="greeting-reveal4" maskUnits="userSpaceOnUse" x="0" y="0" width="973.4" height="280.0"><path d="M 221 93.2 L 221.5 95.3 L 222.5 99.5 L 223.6 105.9 L 224.9 113.3 L 226.5 121.1 L 228.2 128.1 L 229.9 133.7 L 232.2 137.3 L 234.7 138.5 L 237.6 137.4 L 240.9 133.5 L 244.2 126.9 L 247.6 118.2 L 250.9 108.5 L 253.3 99.6 L 255.1 92.6 L 256.2 89.2 L 256.3 90.3 L 256 95.9 L 255.4 105.4 L 254.7 117.7 L 254.1 131.5 L 254 146 L 254.1 160.5 L 254 174.2 L 253.9 186.8 L 253.6 197.9 L 252.5 207.3 L 250.9 214.8 L 248.8 220.4 L 245.8 223.3 L 242.1 224.3 L 238.2 224.1 L 234.2 222.6 L 230.1 219.7 L 226.4 215.5 L 223.3 209.9 L 221.7 202.7 L 222.2 193.5 L 223.8 185.2 L 225.8 179" fill="none" stroke="#fff" stroke-width="9.5" stroke-linecap="round" stroke-linejoin="round" stroke-dasharray="315.9" stroke-dashoffset="325.4"><animate attributeName="stroke-dashoffset" dur="6614ms" repeatCount="indefinite" values="325.4;325.4;309.4;295.3;280.3;270.1;264.3;251.8;232.2;215.7;211.1;195.9;169.8;140.7;114.5;93.9;80.2;72.3;64.1;53.5;39.8;22;15.5;15.5" keyTimes="0;0.22588;0.2283;0.23072;0.23314;0.23556;0.23798;0.2404;0.24282;0.24524;0.24766;0.25008;0.25249;0.25491;0.25733;0.25975;0.26217;0.26459;0.26701;0.26943;0.27185;0.27427;0.27548;1"/></path></mask>
<path d="M 220.11,93.40 C 219.64 93.97, 219.57 94.50, 219.51 95.83 C 219.45 97.17, 219.56 97.98, 219.81 100.09 C 220.06 102.19, 220.23 103.62, 220.77 106.36 C 221.31 109.10, 221.81 110.74, 222.49 113.79 C 223.18 116.85, 223.51 118.65, 224.19 121.63 C 224.87 124.62, 225.13 126.11, 225.89 128.70 C 226.65 131.29, 226.99 132.62, 228.01 134.58 C 229.03 136.54, 229.68 137.39, 231.01 138.48 C 232.34 139.58, 233.10 139.93, 234.67 140.03 C 236.25 140.14, 237.20 140.04, 238.88 139.02 C 240.56 138.00, 241.60 137.15, 243.08 134.92 C 244.56 132.69, 245.01 131.10, 246.30 127.89 C 247.59 124.68, 248.24 122.62, 249.52 118.86 C 250.81 115.10, 251.55 112.82, 252.71 109.07 C 253.88 105.33, 254.47 103.33, 255.35 100.14 C 256.23 96.94, 256.83 95.24, 257.11 93.10 C 257.39 90.96, 257.19 90.03, 256.73 89.45 C 256.28 88.88, 255.49 88.99, 254.83 90.23 C 254.17 91.48, 253.72 92.69, 253.44 95.70 C 253.16 98.72, 253.49 100.91, 253.44 105.30 C 253.39 109.69, 253.30 112.43, 253.19 117.65 C 253.07 122.88, 252.95 125.76, 252.87 131.43 C 252.80 137.10, 252.80 140.17, 252.80 145.99 C 252.80 151.81, 252.88 154.90, 252.88 160.54 C 252.88 166.19, 252.84 168.99, 252.78 174.23 C 252.72 179.46, 252.70 182.02, 252.56 186.74 C 252.42 191.46, 252.43 193.78, 252.08 197.83 C 251.73 201.88, 251.44 203.71, 250.80 207.00 C 250.16 210.28, 249.61 211.78, 248.88 214.27 C 248.15 216.75, 247.95 217.92, 247.15 219.41 C 246.34 220.91, 245.89 221.16, 244.85 221.74 C 243.80 222.32, 243.15 222.28, 241.92 222.30 C 240.69 222.32, 240.03 222.21, 238.71 221.84 C 237.39 221.48, 236.70 221.27, 235.32 220.48 C 233.94 219.68, 233.19 219.15, 231.81 217.86 C 230.43 216.58, 229.68 215.80, 228.43 214.05 C 227.18 212.29, 226.47 211.38, 225.56 209.08 C 224.65 206.78, 224.15 205.61, 223.90 202.55 C 223.66 199.49, 223.95 197.17, 224.34 193.79 C 224.73 190.41, 225.37 188.57, 225.85 185.67 C 226.33 182.77, 226.92 180.68, 226.73 179.29 C 226.55 177.90, 225.92 177.63, 224.93 178.70 C 223.94 179.77, 222.78 181.74, 221.79 184.65 C 220.81 187.56, 220.48 189.62, 220.02 193.26 C 219.55 196.91, 219.25 199.36, 219.46 202.86 C 219.67 206.36, 220.08 207.95, 221.08 210.75 C 222.07 213.55, 222.93 214.71, 224.41 216.86 C 225.89 219.01, 226.74 219.93, 228.46 221.50 C 230.19 223.07, 231.17 223.74, 233.03 224.70 C 234.89 225.66, 235.88 225.96, 237.74 226.28 C 239.60 226.61, 240.56 226.63, 242.34 226.33 C 244.12 226.03, 245.06 225.80, 246.66 224.80 C 248.27 223.81, 249.10 223.24, 250.35 221.37 C 251.60 219.49, 252.12 218.19, 252.91 215.43 C 253.69 212.67, 253.84 211.03, 254.28 207.55 C 254.72 204.08, 254.91 202.19, 255.10 198.04 C 255.30 193.88, 255.22 191.55, 255.26 186.79 C 255.29 182.03, 255.26 179.49, 255.27 174.24 C 255.27 168.99, 255.29 166.19, 255.27 160.54 C 255.26 154.89, 255.17 151.81, 255.20 146.00 C 255.23 140.19, 255.24 137.13, 255.43 131.49 C 255.62 125.85, 255.77 122.98, 256.15 117.79 C 256.53 112.60, 256.85 109.90, 257.34 105.54 C 257.82 101.19, 258.50 99.05, 258.58 96.01 C 258.66 92.96, 258.30 91.74, 257.73 90.33 C 257.16 88.92, 256.64 88.62, 255.73 88.95 C 254.82 89.29, 254.07 89.99, 253.19 92.01 C 252.31 94.03, 252.14 95.88, 251.32 99.07 C 250.50 102.26, 250.19 104.27, 249.08 107.96 C 247.97 111.64, 247.18 113.88, 245.77 117.49 C 244.35 121.09, 243.43 123.06, 242.00 125.99 C 240.57 128.91, 239.77 130.15, 238.62 132.12 C 237.47 134.08, 237.02 134.82, 236.25 135.81 C 235.48 136.79, 235.31 137.01, 234.76 137.05 C 234.20 137.10, 234.05 136.89, 233.47 136.05 C 232.90 135.21, 232.49 134.57, 231.88 132.86 C 231.27 131.14, 231.03 129.91, 230.42 127.46 C 229.80 125.01, 229.41 123.54, 228.80 120.62 C 228.18 117.71, 227.82 115.93, 227.35 112.88 C 226.89 109.83, 226.90 108.16, 226.49 105.38 C 226.07 102.59, 225.88 101.08, 225.27 98.97 C 224.66 96.87, 224.14 96.06, 223.46 94.86 C 222.77 93.67, 222.52 93.28, 221.85 92.99 C 221.18 92.70, 220.58 92.83, 220.11 93.40" mask="url(#greeting-reveal4)"/>
<mask id="greeting-reveal5" maskUnits="userSpaceOnUse" x="0" y="0" width="973.4" height="280.0"><path d="M 324 40 L 323.4 41.4 L 323.1 45.5 L 323 52.9 L 323 63.5 L 322.7 76.7 L 321.8 91.1 L 320.6 105.7 L 319.3 119.3 L 318.1 130.5 L 317.2 137.9 L 316.8 140.9 L 317.3 139.7 L 318.3 134.2 L 320.4 125.7 L 324.3 115.3 L 329.6 104.6 L 336.4 95.5 L 344.3 88.8 L 352.6 85.4 L 360.1 85.7 L 366 89.2 L 369.8 95.3 L 371.1 103.1 L 370 111.8 L 366.2 120.7 L 359.8 129.2 L 352.2 136.7 L 344.1 142.6 L 336.4 146.6 L 329.7 148.7 L 324.8 148.9 L 321.6 147.4 L 320.6 143.9 L 321.7 138.5 L 325 131 L 329 123.8 L 332.2 118.6" fill="none" stroke="#fff" stroke-width="9.2" stroke-linecap="round" stroke-linejoin="round" stroke-dasharray="321.2" stroke-dashoffset="330.4"><animate attributeName="stroke-dashoffset" dur="6614ms" repeatCount="indefinite" values="330.4;330.4;315.5;297.5;269.9;241.6;222.9;218.4;204.1;181.1;159.4;142.9;128.9;112.2;91.9;71.2;55.5;47.1;37.9;21.5;15.3;15.3" keyTimes="0;0.27669;0.2791;0.28152;0.28394;0.28636;0.28878;0.2912;0.29362;0.29604;0.29846;0.30088;0.3033;0.30572;0.30813;0.31055;0.31297;0.31539;0.31781;0.32023;0.32144;1"/></path></mask>
<path d="M 323.27,39.71 C 322.65 39.88, 322.15 39.97, 321.58 41.11 C 321.00 42.26, 320.56 43.09, 320.40 45.45 C 320.25 47.80, 320.60 49.28, 320.80 52.90 C 320.99 56.51, 321.26 58.77, 321.36 63.50 C 321.45 68.24, 321.44 71.10, 321.28 76.59 C 321.13 82.09, 320.93 85.19, 320.56 90.98 C 320.19 96.78, 319.93 99.93, 319.41 105.57 C 318.90 111.21, 318.57 114.23, 317.97 119.19 C 317.38 124.14, 316.92 126.64, 316.43 130.34 C 315.93 134.04, 315.49 135.56, 315.49 137.68 C 315.49 139.81, 315.78 140.49, 316.44 140.96 C 317.09 141.42, 317.86 141.23, 318.77 140.00 C 319.69 138.77, 320.27 137.54, 321.01 134.80 C 321.76 132.07, 321.52 130.08, 322.48 126.32 C 323.45 122.56, 324.15 120.19, 325.84 116.01 C 327.52 111.84, 328.57 109.33, 330.91 105.44 C 333.24 101.55, 334.67 99.60, 337.53 96.56 C 340.39 93.52, 342.13 92.11, 345.21 90.24 C 348.28 88.37, 350.06 87.72, 352.92 87.20 C 355.78 86.67, 357.20 86.90, 359.52 87.60 C 361.83 88.30, 362.86 89.03, 364.50 90.72 C 366.14 92.40, 366.82 93.53, 367.73 96.01 C 368.63 98.48, 368.95 100.02, 369.04 103.08 C 369.13 106.14, 369.04 107.95, 368.17 111.30 C 367.30 114.65, 366.60 116.47, 364.69 119.84 C 362.77 123.20, 361.31 124.98, 358.59 128.11 C 355.87 131.24, 354.20 132.89, 351.11 135.48 C 348.01 138.07, 346.23 139.22, 343.13 141.07 C 340.03 142.92, 338.38 143.59, 335.62 144.72 C 332.86 145.85, 331.43 146.22, 329.31 146.72 C 327.20 147.21, 326.35 147.26, 325.05 147.19 C 323.75 147.13, 323.30 147.02, 322.81 146.37 C 322.32 145.73, 322.28 145.36, 322.59 143.97 C 322.90 142.59, 323.39 141.80, 324.34 139.44 C 325.30 137.09, 326.00 135.09, 327.34 132.20 C 328.69 129.31, 329.93 127.62, 331.07 124.99 C 332.21 122.36, 332.98 120.44, 333.05 119.06 C 333.11 117.67, 332.61 117.34, 331.40 118.06 C 330.19 118.78, 328.75 120.27, 327.00 122.64 C 325.26 125.00, 324.26 126.88, 322.68 129.88 C 321.10 132.88, 319.93 134.83, 319.11 137.64 C 318.28 140.45, 318.28 141.77, 318.54 143.92 C 318.81 146.07, 319.24 147.04, 320.42 148.39 C 321.61 149.73, 322.53 150.18, 324.47 150.65 C 326.41 151.12, 327.59 151.20, 330.13 150.75 C 332.68 150.30, 334.23 149.73, 337.20 148.39 C 340.17 147.05, 341.77 146.13, 344.99 144.05 C 348.20 141.98, 350.03 140.77, 353.26 138.02 C 356.48 135.27, 358.20 133.58, 361.09 130.29 C 363.97 127.00, 365.54 125.18, 367.68 121.58 C 369.82 117.98, 370.69 116.01, 371.78 112.30 C 372.87 108.59, 373.13 106.59, 373.13 103.03 C 373.13 99.47, 372.91 97.57, 371.78 94.51 C 370.64 91.45, 369.68 89.89, 367.45 87.74 C 365.22 85.58, 363.68 84.55, 360.62 83.72 C 357.57 82.89, 355.62 82.86, 352.19 83.60 C 348.76 84.35, 346.84 85.28, 343.46 87.45 C 340.08 89.62, 338.31 91.18, 335.28 94.46 C 332.24 97.74, 330.78 99.79, 328.27 103.83 C 325.76 107.87, 324.70 110.42, 322.73 114.66 C 320.75 118.90, 319.83 121.25, 318.41 125.03 C 316.99 128.81, 316.14 130.71, 315.61 133.57 C 315.07 136.43, 315.42 137.85, 315.73 139.32 C 316.04 140.79, 316.55 141.16, 317.17 140.92 C 317.79 140.67, 318.32 140.13, 318.82 138.09 C 319.33 136.05, 319.34 134.44, 319.70 130.72 C 320.06 126.99, 320.21 124.45, 320.65 119.47 C 321.08 114.48, 321.39 111.45, 321.86 105.78 C 322.34 100.12, 322.61 96.97, 323.04 91.16 C 323.47 85.34, 323.70 82.23, 324.03 76.71 C 324.35 71.19, 324.43 68.32, 324.68 63.56 C 324.93 58.80, 325.06 56.51, 325.29 52.92 C 325.51 49.33, 325.83 47.85, 325.81 45.60 C 325.78 43.35, 325.40 42.73, 325.16 41.67 C 324.93 40.60, 325.02 40.68, 324.64 40.29 C 324.26 39.90, 323.88 39.55, 323.27 39.71" mask="url(#greeting-reveal5)"/>
<mask id="greeting-reveal6" maskUnits="userSpaceOnUse" x="0" y="0" width="973.4" height="280.0"><path d="M 379.5 92.3 L 379.2 92.1 L 379.5 93.8 L 379.9 98.4 L 380.2 106 L 380.4 115.9 L 379.9 126.7 L 379.3 137.2 L 379.1 146 L 379 152.1 L 379.4 153.5" fill="none" stroke="#fff" stroke-width="9.7" stroke-linecap="round" stroke-linejoin="round" stroke-dasharray="72.8" stroke-dashoffset="82.5"><animate attributeName="stroke-dashoffset" dur="6614ms" repeatCount="indefinite" values="82.5;82.5;70.7;58.5;37.8;18.5;11;11" keyTimes="0;0.32265;0.32507;0.32749;0.32991;0.33233;0.33474;1"/></path></mask>
<path d="M 379.72,91.76 C 379.47 91.62, 378.68 91.62, 378.13 92.09 C 377.58 92.57, 377.20 92.85, 376.96 94.14 C 376.73 95.44, 376.79 96.17, 376.96 98.56 C 377.14 100.95, 377.56 102.63, 377.86 106.09 C 378.15 109.56, 378.40 111.78, 378.46 115.89 C 378.52 120.00, 378.33 122.38, 378.13 126.63 C 377.94 130.89, 377.73 133.28, 377.48 137.15 C 377.23 141.02, 376.82 142.96, 376.86 145.97 C 376.91 148.98, 377.27 150.67, 377.71 152.19 C 378.16 153.70, 378.69 153.30, 379.08 153.54 C 379.46 153.78, 379.40 153.69, 379.66 153.40 C 379.91 153.10, 380.02 153.55, 380.34 152.08 C 380.66 150.61, 381.11 148.99, 381.26 146.04 C 381.40 143.08, 380.99 141.14, 381.06 137.30 C 381.13 133.45, 381.36 131.08, 381.60 126.81 C 381.84 122.55, 382.06 120.13, 382.26 115.96 C 382.47 111.80, 382.50 109.53, 382.63 105.98 C 382.75 102.42, 383.04 100.67, 382.91 98.19 C 382.78 95.70, 382.50 94.74, 381.97 93.55 C 381.44 92.35, 380.77 92.36, 380.26 92.20 C 379.74 92.05, 379.49 92.86, 379.38 92.77 C 379.27 92.68, 379.96 91.89, 379.72 91.76" mask="url(#greeting-reveal6)"/>
<mask id="greeting-reveal8" maskUnits="userSpaceOnUse" x="0" y="0" width="973.4" height="280.0"><path d="M 381.1 58.7 L 381.3 60.9 L 381.7 63.1 L 382.1 64.7" fill="none" stroke="#fff" stroke-width="8.5" stroke-linecap="round" stroke-linejoin="round" stroke-dasharray="14.7" stroke-dashoffset="23.3"><animate attributeName="stroke-dashoffset" dur="6614ms" repeatCount="indefinite" values="23.3;23.3;10.3;8.7;8.7" keyTimes="0;0.33716;0.33958;0.34079;1"/></path></mask>
<path d="M 379.92,58.82 C 379.22 59.35, 378.83 60.34, 378.76 61.30 C 378.69 62.26, 379.08 62.89, 379.57 63.62 C 380.06 64.35, 380.51 64.79, 381.21 64.96 C 381.91 65.13, 382.54 64.95, 383.08 64.47 C 383.61 64.00, 383.74 63.38, 383.88 62.60 C 384.01 61.82, 384.06 61.37, 383.74 60.58 C 383.42 59.79, 383.03 59.00, 382.27 58.65 C 381.50 58.30, 380.62 58.29, 379.92 58.82" mask="url(#greeting-reveal8)"/>
<mask id="greeting-reveal9" maskUnits="userSpaceOnUse" x="0" y="0" width="973.4" height="280.0"><path d="M 401.2 106.7 L 401.4 108.9 L 401.3 112.9 L 401.1 118.8 L 401 125.9 L 400.8 133.6 L 400.6 141.2 L 400.3 147.7 L 400.2 151.8 L 400.2 152.9 L 400.4 150.7 L 401.2 145.2 L 402.5 137.3 L 404.2 128.2 L 406.3 119.6 L 408.5 112.7 L 410.6 108.1 L 412.6 105.7 L 414.9 105.2 L 416.8 105.8 L 418.4 106.5" fill="none" stroke="#fff" stroke-width="9.9" stroke-linecap="round" stroke-linejoin="round" stroke-dasharray="113.7" stroke-dashoffset="123.7"><animate attributeName="stroke-dashoffset" dur="6614ms" repeatCount="indefinite" values="123.7;123.7;107.5;94.5;79.2;68.6;65.2;51.6;33.5;21.2;15.7;12;12" keyTimes="0;0.342;0.34442;0.34684;0.34926;0.35168;0.3541;0.35652;0.35894;0.36135;0.36377;0.36619;1"/></path></mask>
<path d="M 400.28,106.73 C 399.71 107.20, 399.68 107.73, 399.34 108.94 C 399.00 110.16, 398.79 110.84, 398.57 112.79 C 398.34 114.74, 398.23 116.09, 398.20 118.70 C 398.17 121.31, 398.37 122.88, 398.42 125.86 C 398.46 128.84, 398.49 130.54, 398.43 133.59 C 398.37 136.64, 398.20 138.30, 398.12 141.10 C 398.03 143.90, 397.88 145.47, 398.00 147.60 C 398.12 149.73, 398.21 150.68, 398.72 151.77 C 399.22 152.86, 399.74 153.19, 400.52 153.03 C 401.30 152.88, 401.87 152.47, 402.61 150.99 C 403.35 149.52, 403.77 148.30, 404.22 145.65 C 404.68 143.00, 404.46 141.13, 404.87 137.73 C 405.27 134.34, 405.56 132.19, 406.25 128.68 C 406.95 125.17, 407.48 123.21, 408.34 120.17 C 409.20 117.13, 409.77 115.71, 410.55 113.48 C 411.32 111.25, 411.61 110.33, 412.20 109.02 C 412.80 107.72, 412.97 107.38, 413.50 106.96 C 414.04 106.55, 414.32 106.82, 414.86 106.95 C 415.40 107.08, 415.55 107.54, 416.19 107.63 C 416.83 107.72, 417.55 107.82, 418.07 107.40 C 418.60 106.98, 418.93 106.20, 418.81 105.52 C 418.69 104.84, 418.24 104.42, 417.47 104.02 C 416.70 103.61, 416.11 103.40, 414.97 103.48 C 413.83 103.56, 412.95 103.67, 411.77 104.42 C 410.60 105.16, 410.15 105.70, 409.09 107.21 C 408.04 108.71, 407.49 109.58, 406.51 111.94 C 405.53 114.30, 405.08 115.83, 404.20 119.00 C 403.32 122.17, 402.93 124.21, 402.10 127.79 C 401.28 131.37, 400.86 133.50, 400.07 136.89 C 399.29 140.28, 398.55 142.03, 398.19 144.73 C 397.82 147.44, 397.92 148.80, 398.26 150.42 C 398.59 152.05, 399.19 152.58, 399.86 152.86 C 400.53 153.15, 401.04 152.85, 401.59 151.84 C 402.14 150.83, 402.32 149.91, 402.63 147.80 C 402.93 145.69, 403.01 144.10, 403.11 141.28 C 403.22 138.46, 403.09 136.77, 403.17 133.70 C 403.25 130.64, 403.39 128.92, 403.54 125.95 C 403.68 122.97, 403.81 121.42, 403.90 118.83 C 403.98 116.23, 404.06 114.95, 403.96 112.97 C 403.87 110.99, 403.78 110.19, 403.42 108.92 C 403.06 107.64, 402.80 107.04, 402.17 106.60 C 401.54 106.17, 400.85 106.26, 400.28 106.73" mask="url(#greeting-reveal9)"/>
<mask id="greeting-reveal10" maskUnits="userSpaceOnUse" x="0" y="0" width="973.4" height="280.0"><path d="M 443.6 45.2 L 443.2 46.2 L 443 49.1 L 442.9 54.7 L 442.6 63.4 L 442.1 74.9 L 441.3 88.5 L 440.3 103.5 L 439.2 118.8 L 438.1 133.4 L 437.1 146.3 L 436.8 156.2 L 437.4 162.8 L 438.3 164.7 L 439.1 161.3 L 439.5 154.6 L 439.5 148.4 L 439.5 144.4" fill="none" stroke="#fff" stroke-width="10.8" stroke-linecap="round" stroke-linejoin="round" stroke-dasharray="154.1" stroke-dashoffset="164.9"><animate attributeName="stroke-dashoffset" dur="6614ms" repeatCount="indefinite" values="164.9;164.9;150;135.7;110.6;80.3;52.7;36.1;30.7;17.7;13.6;13.6" keyTimes="0;0.3674;0.36982;0.37224;0.37466;0.37708;0.3795;0.38192;0.38434;0.38676;0.38796;1"/></path></mask>
<path d="M 442.92,44.85 C 442.34 44.94, 441.95 45.06, 441.44 45.90 C 440.93 46.74, 440.63 47.31, 440.37 49.06 C 440.11 50.81, 440.09 51.80, 440.14 54.66 C 440.19 57.52, 440.52 59.32, 440.62 63.34 C 440.71 67.37, 440.74 69.77, 440.62 74.78 C 440.50 79.78, 440.33 82.65, 440.02 88.38 C 439.72 94.11, 439.48 97.38, 439.09 103.44 C 438.71 109.51, 438.52 112.72, 438.08 118.70 C 437.63 124.67, 437.35 127.83, 436.87 133.33 C 436.39 138.82, 436.06 141.60, 435.69 146.18 C 435.32 150.75, 434.98 152.84, 435.03 156.22 C 435.08 159.60, 435.24 161.32, 435.95 163.08 C 436.66 164.83, 437.48 165.29, 438.58 165.00 C 439.67 164.71, 440.56 163.71, 441.43 161.64 C 442.30 159.58, 442.84 157.33, 442.92 154.69 C 443.00 152.05, 442.36 150.50, 441.85 148.43 C 441.34 146.37, 441.01 145.18, 440.37 144.36 C 439.74 143.54, 439.32 143.53, 438.67 144.34 C 438.02 145.16, 437.63 146.41, 437.12 148.43 C 436.61 150.46, 436.21 151.94, 436.13 154.46 C 436.04 156.99, 436.31 159.08, 436.68 161.06 C 437.04 163.03, 437.54 164.01, 437.97 164.32 C 438.40 164.62, 438.69 164.22, 438.82 162.59 C 438.94 160.95, 438.68 159.41, 438.60 156.16 C 438.53 152.91, 438.33 150.86, 438.46 146.33 C 438.60 141.80, 438.91 139.01, 439.29 133.52 C 439.68 128.03, 439.95 124.85, 440.38 118.87 C 440.81 112.88, 441.00 109.67, 441.44 103.61 C 441.89 97.54, 442.15 94.28, 442.59 88.55 C 443.03 82.81, 443.27 79.94, 443.65 74.93 C 444.04 69.92, 444.11 67.52, 444.52 63.49 C 444.93 59.47, 445.48 57.67, 445.68 54.81 C 445.89 51.96, 445.70 50.89, 445.55 49.23 C 445.40 47.56, 445.17 47.24, 444.93 46.48 C 444.68 45.72, 444.73 45.77, 444.33 45.45 C 443.93 45.12, 443.49 44.76, 442.92 44.85" mask="url(#greeting-reveal10)"/>
<mask id="greeting-reveal11" maskUnits="userSpaceOnUse" x="0" y="0" width="973.4" height="280.0"><path d="M 428.7 112.5 L 430.2 113.1 L 433 113.9 L 437.4 115 L 442.7 115.4 L 448.8 115.2 L 455.1 113.7 L 461.1 111.1 L 466.7 107.2 L 471.7 101.9 L 475.7 95.1 L 478.4 86.8 L 480.2 77.7 L 481.3 68.6 L 481.6 60.7 L 481 54.8 L 479.8 51.6 L 478 51.3 L 476.1 53.8 L 474.6 60 L 473.1 70.1 L 471.9 83.5 L 471 98.9 L 470.2 114.9 L 469.5 130.4 L 469 144.1 L 468.8 154.8 L 468.9 161.7 L 469.2 164.1 L 469.8 161.8 L 470.9 155.8 L 473 147.3 L 476.4 137.6 L 481 128.2 L 486.4 120.1 L 492.1 114 L 497.3 111 L 501.6 111 L 504.9 114 L 507 120 L 507.7 128 L 507.4 137.4 L 506.6 146.7 L 505.6 154.6 L 505.1 160.6 L 505.5 163.8 L 506.2 164.6 L 506.9 164" fill="none" stroke="#fff" stroke-width="9.4" stroke-linecap="round" stroke-linejoin="round" stroke-dasharray="354.7" stroke-dashoffset="364.1"><animate attributeName="stroke-dashoffset" dur="6614ms" repeatCount="indefinite" values="364.1;364.1;350.2;340.3;327.8;314.4;299.3;281.2;264.2;254.8;249.8;233.3;204.4;172.9;148.4;139.2;130.7;111.7;91.5;77.1;68.4;54;35.2;21.3;17;16.1;16.1" keyTimes="0;0.38917;0.39159;0.39401;0.39643;0.39885;0.40127;0.40369;0.40611;0.40853;0.41095;0.41337;0.41578;0.4182;0.42062;0.42304;0.42546;0.42788;0.4303;0.43272;0.43514;0.43756;0.43998;0.44239;0.44481;0.44602;1"/></path></mask>
<path d="M 428.36,113.38 C 428.48 114.04, 428.78 114.33, 429.57 114.97 C 430.36 115.61, 430.83 116.00, 432.31 116.56 C 433.80 117.12, 434.93 117.46, 437.00 117.76 C 439.08 118.05, 440.25 118.05, 442.68 118.04 C 445.11 118.02, 446.51 118.09, 449.14 117.68 C 451.77 117.27, 453.22 116.88, 455.83 115.98 C 458.45 115.07, 459.74 114.54, 462.22 113.14 C 464.71 111.73, 465.99 110.92, 468.24 108.95 C 470.49 106.98, 471.61 105.88, 473.47 103.27 C 475.34 100.66, 476.20 99.11, 477.56 95.91 C 478.93 92.71, 479.39 90.86, 480.29 87.28 C 481.20 83.69, 481.50 81.68, 482.10 77.97 C 482.70 74.27, 482.96 72.21, 483.31 68.76 C 483.65 65.30, 483.92 63.55, 483.85 60.68 C 483.77 57.81, 483.56 56.40, 482.93 54.43 C 482.30 52.45, 481.81 51.63, 480.70 50.79 C 479.59 49.95, 478.70 49.78, 477.36 50.22 C 476.03 50.67, 475.05 51.15, 474.03 53.02 C 473.01 54.89, 472.78 56.18, 472.26 59.56 C 471.73 62.93, 471.73 65.14, 471.39 69.90 C 471.06 74.66, 470.88 77.57, 470.57 83.36 C 470.26 89.15, 470.15 92.53, 469.85 98.83 C 469.54 105.12, 469.35 108.52, 469.04 114.83 C 468.73 121.13, 468.57 124.52, 468.30 130.37 C 468.03 136.21, 467.91 139.16, 467.68 144.05 C 467.45 148.94, 467.20 151.28, 467.15 154.81 C 467.10 158.35, 467.02 159.85, 467.43 161.74 C 467.84 163.62, 468.37 164.14, 469.21 164.23 C 470.04 164.32, 470.72 163.76, 471.61 162.20 C 472.50 160.63, 472.95 159.26, 473.65 156.41 C 474.35 153.55, 474.23 151.55, 475.12 147.93 C 476.01 144.31, 476.61 142.07, 478.10 138.29 C 479.59 134.51, 480.61 132.44, 482.56 129.02 C 484.51 125.60, 485.69 123.87, 487.87 121.20 C 490.04 118.53, 491.44 117.38, 493.44 115.68 C 495.43 113.98, 496.35 113.32, 497.86 112.69 C 499.38 112.05, 499.98 112.03, 501.02 112.51 C 502.06 112.99, 502.38 113.50, 503.07 115.09 C 503.76 116.69, 503.99 117.89, 504.48 120.49 C 504.96 123.09, 505.31 124.72, 505.49 128.08 C 505.67 131.44, 505.56 133.59, 505.38 137.28 C 505.20 140.97, 504.99 143.11, 504.58 146.53 C 504.16 149.96, 503.58 151.60, 503.29 154.40 C 503.01 157.21, 502.97 158.62, 503.17 160.56 C 503.37 162.50, 503.70 163.17, 504.29 164.09 C 504.87 165.02, 505.50 165.09, 506.10 165.18 C 506.71 165.27, 507.21 164.86, 507.31 164.53 C 507.40 164.21, 506.77 163.66, 506.58 163.55 C 506.39 163.44, 506.31 164.00, 506.35 163.97 C 506.39 163.94, 506.62 164.09, 506.76 163.41 C 506.91 162.73, 506.85 162.28, 507.07 160.58 C 507.28 158.87, 507.53 157.61, 507.84 154.89 C 508.15 152.16, 508.30 150.43, 508.61 146.96 C 508.92 143.48, 509.14 141.31, 509.39 137.52 C 509.65 133.72, 509.87 131.58, 509.89 127.97 C 509.90 124.37, 510.09 122.50, 509.46 119.49 C 508.82 116.49, 508.15 114.94, 506.71 112.94 C 505.26 110.93, 504.23 110.21, 502.24 109.47 C 500.25 108.73, 499.07 108.66, 496.76 109.25 C 494.46 109.84, 493.07 110.48, 490.71 112.42 C 488.35 114.35, 487.20 115.95, 484.96 118.93 C 482.73 121.91, 481.58 123.70, 479.54 127.30 C 477.49 130.89, 476.46 133.01, 474.74 136.88 C 473.02 140.76, 472.25 143.02, 470.95 146.68 C 469.65 150.34, 468.86 152.24, 468.25 155.19 C 467.65 158.14, 467.72 159.69, 467.92 161.43 C 468.13 163.17, 468.76 163.86, 469.27 163.89 C 469.78 163.92, 470.21 163.41, 470.46 161.60 C 470.71 159.79, 470.53 158.32, 470.50 154.82 C 470.47 151.33, 470.29 148.99, 470.31 144.11 C 470.33 139.24, 470.42 136.29, 470.61 130.46 C 470.80 124.62, 470.95 121.24, 471.27 114.94 C 471.58 108.64, 471.78 105.24, 472.18 98.96 C 472.58 92.68, 472.74 89.29, 473.26 83.55 C 473.77 77.82, 474.04 74.91, 474.77 70.28 C 475.50 65.66, 476.23 63.55, 476.91 60.42 C 477.58 57.29, 477.80 56.25, 478.15 54.63 C 478.49 53.01, 478.50 52.76, 478.63 52.32 C 478.77 51.87, 478.73 51.82, 478.83 52.40 C 478.92 52.97, 479.01 53.50, 479.11 55.18 C 479.20 56.86, 479.25 58.12, 479.29 60.77 C 479.32 63.42, 479.48 65.11, 479.29 68.43 C 479.09 71.75, 478.86 73.80, 478.30 77.37 C 477.75 80.94, 477.42 82.92, 476.52 86.29 C 475.61 89.67, 475.11 91.38, 473.79 94.24 C 472.47 97.11, 471.64 98.40, 469.92 100.63 C 468.19 102.85, 467.17 103.69, 465.17 105.36 C 463.17 107.04, 462.09 107.79, 459.91 108.99 C 457.73 110.18, 456.58 110.60, 454.28 111.33 C 451.99 112.07, 450.73 112.37, 448.43 112.65 C 446.13 112.93, 444.89 112.84, 442.78 112.74 C 440.66 112.65, 439.68 112.46, 437.87 112.16 C 436.05 111.85, 435.13 111.42, 433.71 111.22 C 432.30 111.02, 431.74 111.06, 430.79 111.14 C 429.85 111.23, 429.47 111.20, 428.99 111.64 C 428.50 112.09, 428.24 112.71, 428.36 113.38" mask="url(#greeting-reveal11)"/>
<mask id="greeting-reveal12" maskUnits="userSpaceOnUse" x="0" y="0" width="973.4" height="280.0"><path d="M 546.6 115.6 L 546.3 114.3 L 545.2 113 L 542.8 112 L 538.8 112.5 L 533.8 115.2 L 528.3 120.6 L 523 128.6 L 518.8 138.7 L 516 149.2 L 514.8 158.1 L 515.7 164.6 L 518 167.8 L 521.4 167.8 L 525.3 165 L 529.5 158.9 L 533.9 149.9 L 538 138.1 L 541.7 124.7 L 545.1 110.5 L 548.1 96.6 L 550.9 83.7 L 553 72.5 L 554.5 63.7 L 555.1 58.4 L 555.1 57.1 L 554.6 60 L 553.7 67.1 L 552.7 77.6 L 551.7 90.6 L 550.8 105.2 L 550.3 120.1 L 550.3 134.4 L 550.8 147.1 L 551.7 157.4 L 552.8 165.5 L 554 171 L 555.4 174 L 556.9 174.7 L 558.7 173.2 L 560.4 170.4 L 561.8 167.9" fill="none" stroke="#fff" stroke-width="9.4" stroke-linecap="round" stroke-linejoin="round" stroke-dasharray="338.7" stroke-dashoffset="348.1"><animate attributeName="stroke-dashoffset" dur="6614ms" repeatCount="indefinite" values="348.1;348.1;335.7;329;315.7;295.1;275.2;264.8;256.6;239.1;212.7;183.9;159.3;145;140.7;123.1;95.4;66.1;43.1;29.3;24.3;18.7;15.8;15.8" keyTimes="0;0.44723;0.44965;0.45207;0.45449;0.45691;0.45933;0.46175;0.46417;0.46659;0.46901;0.47142;0.47384;0.47626;0.47868;0.4811;0.48352;0.48594;0.48836;0.49078;0.4932;0.49562;0.49682;1"/></path></mask>
<path d="M 547.59,115.39 C 548.10 114.92, 548.32 114.30, 548.10 113.44 C 547.88 112.58, 547.51 111.87, 546.49 111.09 C 545.47 110.31, 544.71 109.76, 542.99 109.55 C 541.28 109.34, 540.09 109.32, 537.93 110.03 C 535.76 110.75, 534.43 111.30, 532.17 113.14 C 529.92 114.98, 528.82 116.30, 526.66 119.21 C 524.49 122.13, 523.26 123.93, 521.36 127.72 C 519.45 131.51, 518.56 133.94, 517.13 138.16 C 515.71 142.38, 515.10 144.84, 514.24 148.83 C 513.38 152.81, 512.90 154.84, 512.84 158.09 C 512.79 161.35, 513.09 162.94, 513.98 165.11 C 514.87 167.29, 515.70 168.10, 517.30 168.98 C 518.90 169.85, 520.03 169.97, 521.99 169.50 C 523.94 169.02, 525.18 168.52, 527.07 166.61 C 528.95 164.71, 529.73 163.19, 531.41 159.97 C 533.10 156.75, 533.90 154.79, 535.48 150.50 C 537.07 146.20, 537.83 143.61, 539.32 138.51 C 540.82 133.40, 541.56 130.51, 542.96 124.97 C 544.36 119.42, 545.04 116.41, 546.32 110.78 C 547.59 105.16, 548.16 102.20, 549.34 96.83 C 550.52 91.46, 551.17 88.73, 552.21 83.92 C 553.26 79.11, 553.70 76.74, 554.56 72.77 C 555.42 68.79, 556.13 66.88, 556.51 64.03 C 556.89 61.17, 556.81 59.91, 556.45 58.49 C 556.09 57.07, 555.50 56.68, 554.70 56.93 C 553.90 57.17, 553.10 57.74, 552.43 59.72 C 551.77 61.69, 551.66 63.26, 551.38 66.80 C 551.10 70.35, 551.24 72.69, 551.03 77.43 C 550.82 82.18, 550.62 84.99, 550.32 90.52 C 550.03 96.06, 549.77 99.18, 549.54 105.09 C 549.30 111.00, 549.22 114.20, 549.13 120.07 C 549.03 125.95, 549.01 129.04, 549.06 134.45 C 549.12 139.87, 549.21 142.51, 549.41 147.15 C 549.62 151.78, 549.82 153.87, 550.10 157.61 C 550.37 161.36, 550.34 163.08, 550.78 165.87 C 551.23 168.65, 551.61 169.75, 552.32 171.55 C 553.04 173.34, 553.38 173.95, 554.35 174.83 C 555.33 175.70, 555.95 175.93, 557.20 175.91 C 558.45 175.89, 559.48 175.54, 560.62 174.72 C 561.75 173.90, 562.43 173.07, 562.87 171.82 C 563.31 170.57, 563.25 169.36, 562.82 168.46 C 562.39 167.56, 561.70 167.22, 560.73 167.32 C 559.75 167.42, 558.72 168.12, 557.95 168.98 C 557.17 169.84, 557.11 170.72, 556.84 171.62 C 556.56 172.52, 556.66 173.15, 556.57 173.47 C 556.49 173.80, 556.57 173.83, 556.41 173.24 C 556.25 172.64, 556.10 172.11, 555.77 170.49 C 555.44 168.88, 555.27 167.82, 554.78 165.18 C 554.29 162.53, 553.83 160.90, 553.31 157.26 C 552.78 153.62, 552.49 151.55, 552.14 146.98 C 551.78 142.41, 551.66 139.79, 551.53 134.41 C 551.41 129.04, 551.41 125.95, 551.50 120.11 C 551.59 114.27, 551.67 111.09, 551.98 105.21 C 552.29 99.33, 552.57 96.22, 553.06 90.72 C 553.55 85.22, 553.84 82.41, 554.44 77.73 C 555.04 73.04, 555.61 70.78, 556.07 67.30 C 556.53 63.81, 556.87 62.32, 556.74 60.30 C 556.62 58.28, 556.04 57.59, 555.45 57.18 C 554.87 56.77, 554.42 57.00, 553.82 58.25 C 553.22 59.50, 552.90 60.63, 552.44 63.42 C 551.98 66.22, 552.07 68.22, 551.50 72.22 C 550.93 76.21, 550.52 78.57, 549.61 83.39 C 548.70 88.21, 548.07 90.94, 546.94 96.31 C 545.81 101.68, 545.25 104.64, 543.96 110.25 C 542.68 115.85, 541.98 118.85, 540.51 124.33 C 539.04 129.82, 538.26 132.69, 536.62 137.67 C 534.99 142.65, 534.14 145.19, 532.34 149.22 C 530.55 153.25, 529.42 155.00, 527.65 157.82 C 525.88 160.65, 524.89 161.69, 523.50 163.36 C 522.12 165.04, 521.69 165.56, 520.73 166.20 C 519.77 166.84, 519.38 166.99, 518.71 166.55 C 518.03 166.11, 517.73 165.68, 517.36 164.00 C 516.99 162.33, 516.78 161.07, 516.85 158.17 C 516.91 155.27, 516.99 153.30, 517.69 149.52 C 518.40 145.74, 519.00 143.29, 520.38 139.27 C 521.77 135.26, 522.69 132.91, 524.62 129.44 C 526.55 125.98, 527.88 124.37, 530.04 121.95 C 532.20 119.52, 533.47 118.71, 535.40 117.30 C 537.32 115.90, 538.22 115.49, 539.66 114.93 C 541.11 114.37, 541.74 114.51, 542.60 114.50 C 543.47 114.50, 543.60 114.75, 543.99 114.90 C 544.38 115.05, 544.24 115.07, 544.54 115.24 C 544.85 115.42, 544.91 115.75, 545.52 115.78 C 546.13 115.81, 547.07 115.86, 547.59 115.39" mask="url(#greeting-reveal12)"/>
<mask id="greeting-reveal13" maskUnits="userSpaceOnUse" x="0" y="0" width="973.4" height="280.0"><path d="M 595.6 110.5 L 594.5 108.2 L 592.7 104.9 L 589.9 102.2 L 586.5 101.1 L 582.5 102.1 L 578.6 106 L 574.8 112.9 L 571.8 122.5 L 569.7 134 L 569.1 145.5 L 569.9 155 L 571.8 161.5 L 575 164.6 L 578.7 164.3 L 582.6 160.8 L 586.4 154.5 L 589.7 145.3 L 592.5 134.6 L 594.8 124.2 L 596.5 115.5 L 597.5 109.8 L 597.9 108.4 L 597.8 111.6 L 597.5 119.1 L 597.1 129.5 L 597 141.4 L 597 152.8 L 597.5 162.4 L 598.4 169.3 L 599.9 172.8 L 601.9 172.4 L 604.4 168.3 L 607.1 161 L 609.8 151.4 L 612.4 141.2 L 614.9 131.6 L 616.9 123.7 L 618.6 118.1 L 619.4 114.8 L 619.6 114.8 L 619.4 118.3 L 619.6 124.7 L 620.4 132.9 L 622 141 L 624.4 147.7 L 627.2 152.2 L 630.5 154.7 L 633.9 154.8 L 637.3 152.2 L 640.8 146.8 L 644.4 139.1 L 647.6 130.1 L 650.1 121.4 L 651.7 114.9 L 652.3 112 L 652.1 113.7 L 651.4 120.1 L 650.4 130.1 L 649.1 142.7 L 647.5 156.6 L 645.7 171 L 643.7 185.7 L 641.3 200.2 L 638.5 213.6 L 635.9 225 L 633.2 233.4 L 630.6 238.4 L 628.4 240 L 626.5 238.9 L 624.9 235.5 L 623.9 230.4 L 623.8 223.4 L 624.7 214.8 L 626 206.8 L 627 201" fill="none" stroke="#fff" stroke-width="10.1" stroke-linecap="round" stroke-linejoin="round" stroke-dasharray="563.8" stroke-dashoffset="573.9"><animate attributeName="stroke-dashoffset" dur="6614ms" repeatCount="indefinite" values="573.9;573.9;557.5;549.9;540.3;522.3;499.1;482.9;474.7;462.1;441.3;421.8;414.5;403.8;381.4;360.4;349.7;342.9;325.1;304.6;290.7;287.1;277.1;260.7;248.2;240.7;229.9;211.9;196.1;191.5;175;148.4;119;90.6;70.1;61.7;55.8;43.6;26.9;20.9;20.9" keyTimes="0;0.49803;0.50045;0.50287;0.50529;0.50771;0.51013;0.51255;0.51497;0.51739;0.51981;0.52223;0.52464;0.52706;0.52948;0.5319;0.53432;0.53674;0.53916;0.54158;0.544;0.54642;0.54884;0.55125;0.55367;0.55609;0.55851;0.56093;0.56335;0.56577;0.56819;0.57061;0.57303;0.57545;0.57787;0.58028;0.5827;0.58512;0.58754;0.58875;1"/></path></mask>
<path d="M 596.54,110.11 C 596.92 109.33, 596.89 108.47, 596.55 107.11 C 596.21 105.75, 595.91 104.70, 594.84 103.30 C 593.77 101.91, 592.87 101.00, 591.20 100.14 C 589.53 99.27, 588.46 98.94, 586.50 98.96 C 584.53 98.98, 583.38 99.13, 581.38 100.24 C 579.39 101.35, 578.23 102.15, 576.54 104.52 C 574.84 106.90, 574.20 108.61, 572.90 112.13 C 571.60 115.65, 571.01 117.79, 570.04 122.13 C 569.08 126.47, 568.60 129.14, 568.07 133.83 C 567.55 138.51, 567.41 141.25, 567.40 145.55 C 567.39 149.85, 567.44 151.96, 568.01 155.31 C 568.58 158.66, 568.98 160.17, 570.26 162.31 C 571.55 164.45, 572.58 165.29, 574.43 166.01 C 576.28 166.72, 577.52 166.62, 579.52 165.88 C 581.53 165.14, 582.68 164.39, 584.46 162.31 C 586.25 160.22, 587.04 158.74, 588.45 155.44 C 589.86 152.15, 590.39 149.93, 591.53 145.85 C 592.68 141.76, 593.18 139.28, 594.18 135.02 C 595.18 130.76, 595.64 128.38, 596.52 124.56 C 597.41 120.75, 598.15 118.83, 598.62 115.94 C 599.09 113.05, 599.11 111.61, 598.88 110.11 C 598.65 108.61, 598.14 108.15, 597.48 108.44 C 596.82 108.73, 596.06 109.46, 595.59 111.57 C 595.12 113.67, 595.21 115.40, 595.14 118.98 C 595.08 122.57, 595.23 125.01, 595.27 129.50 C 595.31 133.98, 595.32 136.75, 595.34 141.42 C 595.37 146.10, 595.36 148.64, 595.41 152.87 C 595.45 157.10, 595.34 159.22, 595.59 162.58 C 595.83 165.94, 595.89 167.48, 596.62 169.68 C 597.35 171.88, 597.97 172.82, 599.24 173.56 C 600.51 174.31, 601.49 174.25, 602.98 173.41 C 604.48 172.58, 605.45 171.74, 606.72 169.40 C 607.98 167.07, 608.31 165.24, 609.30 161.74 C 610.28 158.24, 610.66 155.91, 611.63 151.90 C 612.60 147.88, 613.14 145.64, 614.14 141.67 C 615.15 137.70, 615.68 135.53, 616.66 132.05 C 617.64 128.57, 618.29 126.94, 619.05 124.26 C 619.81 121.58, 620.20 120.48, 620.47 118.66 C 620.74 116.83, 620.76 115.92, 620.38 115.14 C 620.01 114.36, 619.31 114.13, 618.58 114.75 C 617.85 115.38, 617.15 116.21, 616.73 118.25 C 616.32 120.28, 616.26 121.91, 616.50 124.91 C 616.75 127.92, 617.30 129.96, 617.95 133.29 C 618.60 136.62, 618.89 138.50, 619.78 141.58 C 620.67 144.65, 621.20 146.27, 622.40 148.66 C 623.60 151.04, 624.29 151.97, 625.78 153.50 C 627.27 155.04, 628.11 155.73, 629.86 156.33 C 631.60 156.94, 632.67 157.05, 634.51 156.53 C 636.36 156.02, 637.36 155.48, 639.07 153.77 C 640.78 152.07, 641.60 150.79, 643.07 148.02 C 644.54 145.24, 645.13 143.36, 646.43 139.90 C 647.72 136.44, 648.40 134.32, 649.57 130.74 C 650.73 127.16, 651.47 125.08, 652.26 122.00 C 653.05 118.92, 653.48 117.31, 653.53 115.33 C 653.59 113.35, 653.17 112.47, 652.55 112.11 C 651.93 111.75, 651.14 111.99, 650.43 113.53 C 649.71 115.07, 649.35 116.51, 648.97 119.79 C 648.59 123.07, 648.78 125.39, 648.52 129.93 C 648.27 134.48, 648.12 137.21, 647.67 142.51 C 647.23 147.80, 646.91 150.74, 646.29 156.41 C 645.66 162.09, 645.30 165.05, 644.55 170.88 C 643.80 176.70, 643.41 179.71, 642.52 185.53 C 641.62 191.36, 641.14 194.43, 640.08 200.00 C 639.03 205.57, 638.38 208.46, 637.25 213.37 C 636.11 218.29, 635.57 220.72, 634.40 224.57 C 633.23 228.43, 632.40 230.06, 631.39 232.64 C 630.37 235.22, 629.94 236.22, 629.31 237.48 C 628.68 238.74, 628.53 238.87, 628.23 238.95 C 627.92 239.02, 627.98 238.68, 627.80 237.86 C 627.62 237.04, 627.55 236.37, 627.32 234.84 C 627.08 233.30, 626.81 232.43, 626.62 230.17 C 626.43 227.91, 626.28 226.55, 626.37 223.54 C 626.46 220.52, 626.73 218.37, 627.09 215.10 C 627.45 211.83, 627.99 209.98, 628.15 207.18 C 628.31 204.39, 628.31 202.41, 627.89 201.14 C 627.48 199.86, 626.89 199.75, 626.06 200.82 C 625.24 201.88, 624.49 203.73, 623.75 206.47 C 623.02 209.21, 622.88 211.14, 622.39 214.51 C 621.90 217.87, 621.54 220.05, 621.31 223.28 C 621.09 226.51, 621.03 228.05, 621.27 230.64 C 621.51 233.24, 621.74 234.40, 622.51 236.25 C 623.27 238.11, 623.91 238.98, 625.11 239.94 C 626.30 240.90, 627.13 241.17, 628.48 241.05 C 629.82 240.93, 630.53 240.72, 631.83 239.32 C 633.14 237.93, 633.90 236.86, 635.00 234.07 C 636.10 231.27, 636.37 229.39, 637.33 225.36 C 638.28 221.34, 638.76 218.91, 639.78 213.92 C 640.80 208.94, 641.42 206.04, 642.42 200.43 C 643.42 194.82, 643.90 191.73, 644.79 185.88 C 645.68 180.03, 646.07 177.02, 646.87 171.18 C 647.66 165.35, 648.04 162.38, 648.77 156.71 C 649.50 151.04, 649.84 148.09, 650.52 142.81 C 651.21 137.53, 651.53 134.81, 652.19 130.31 C 652.86 125.81, 653.50 123.60, 653.83 120.32 C 654.16 117.04, 654.19 115.59, 653.83 113.91 C 653.47 112.23, 652.83 111.80, 652.03 111.91 C 651.23 112.02, 650.65 112.67, 649.82 114.46 C 649.00 116.25, 648.75 117.84, 647.91 120.84 C 647.08 123.85, 646.77 126.00, 645.66 129.48 C 644.55 132.96, 643.80 135.03, 642.38 138.25 C 640.96 141.47, 639.92 143.09, 638.55 145.58 C 637.18 148.07, 636.58 149.21, 635.53 150.72 C 634.47 152.23, 634.16 152.65, 633.28 153.12 C 632.40 153.60, 632.04 153.53, 631.12 153.09 C 630.21 152.66, 629.64 152.22, 628.70 150.96 C 627.76 149.70, 627.31 148.92, 626.43 146.80 C 625.54 144.68, 625.00 143.20, 624.28 140.35 C 623.56 137.50, 623.13 135.73, 622.82 132.56 C 622.50 129.39, 622.84 127.37, 622.70 124.51 C 622.56 121.65, 622.54 120.20, 622.13 118.25 C 621.72 116.30, 621.38 115.50, 620.66 114.76 C 619.93 114.02, 619.29 113.99, 618.50 114.56 C 617.70 115.12, 617.41 115.88, 616.68 117.59 C 615.94 119.30, 615.57 120.40, 614.84 123.10 C 614.12 125.81, 613.89 127.58, 613.06 131.12 C 612.23 134.66, 611.73 136.83, 610.70 140.78 C 609.67 144.74, 609.09 146.99, 607.92 150.89 C 606.74 154.80, 605.99 157.03, 604.81 160.31 C 603.63 163.59, 602.78 165.07, 602.00 167.28 C 601.22 169.49, 601.18 170.39, 600.90 171.34 C 600.62 172.30, 600.73 172.54, 600.60 172.04 C 600.47 171.53, 600.49 170.78, 600.24 168.82 C 599.99 166.87, 599.67 165.47, 599.36 162.26 C 599.05 159.05, 598.85 156.95, 598.69 152.79 C 598.54 148.62, 598.54 146.07, 598.60 141.43 C 598.65 136.79, 598.72 134.04, 598.98 129.59 C 599.24 125.14, 599.71 122.74, 599.91 119.17 C 600.12 115.59, 600.36 113.88, 600.03 111.71 C 599.70 109.53, 599.06 108.72, 598.27 108.29 C 597.48 107.86, 596.86 108.20, 596.07 109.56 C 595.28 110.93, 594.94 112.27, 594.33 115.13 C 593.72 117.98, 593.72 120.01, 593.01 123.83 C 592.31 127.65, 591.83 130.03, 590.81 134.22 C 589.80 138.40, 589.22 140.88, 587.94 144.75 C 586.66 148.62, 585.86 150.66, 584.41 153.58 C 582.96 156.49, 582.00 157.51, 580.70 159.32 C 579.39 161.13, 578.92 161.83, 577.89 162.62 C 576.85 163.41, 576.43 163.67, 575.54 163.28 C 574.65 162.88, 574.19 162.36, 573.43 160.63 C 572.66 158.91, 572.25 157.68, 571.71 154.66 C 571.18 151.64, 570.82 149.61, 570.74 145.52 C 570.65 141.43, 570.76 138.72, 571.31 134.20 C 571.86 129.69, 572.38 127.06, 573.48 122.97 C 574.58 118.87, 575.36 116.84, 576.80 113.73 C 578.23 110.62, 579.25 109.39, 580.63 107.43 C 582.02 105.48, 582.54 104.81, 583.71 103.95 C 584.87 103.10, 585.46 103.08, 586.45 103.14 C 587.43 103.19, 587.82 103.55, 588.64 104.24 C 589.46 104.92, 589.78 105.58, 590.54 106.58 C 591.30 107.59, 591.61 108.37, 592.43 109.25 C 593.26 110.13, 593.84 110.81, 594.66 110.99 C 595.48 111.16, 596.16 110.88, 596.54 110.11" mask="url(#greeting-reveal13)"/>
<mask id="greeting-reveal14" maskUnits="userSpaceOnUse" x="0" y="0" width="973.4" height="280.0"><path d="M 677.5 145.9 L 676.5 150.6 L 675.3 158.1 L 674.1 167.1 L 673.4 175.3 L 672.5 182.3 L 671.8 187.5 L 671.3 190.8" fill="none" stroke="#fff" stroke-width="8.2" stroke-linecap="round" stroke-linejoin="round" stroke-dasharray="54.5" stroke-dashoffset="62.7"><animate attributeName="stroke-dashoffset" dur="6614ms" repeatCount="indefinite" values="62.7;62.7;42;24.8;12.5;9.1;9.1" keyTimes="0;0.58996;0.59238;0.5948;0.59722;0.59843;1"/></path></mask>
<path d="M 676.57,145.72 C 675.72 146.52, 674.99 147.75, 674.26 150.17 C 673.52 152.59, 673.37 154.48, 672.89 157.81 C 672.41 161.13, 672.19 163.35, 671.85 166.81 C 671.50 170.26, 671.46 172.02, 671.16 175.07 C 670.86 178.11, 670.55 179.59, 670.34 182.03 C 670.13 184.46, 670.06 185.50, 670.11 187.23 C 670.16 188.97, 670.19 189.96, 670.59 190.69 C 670.99 191.43, 671.52 191.49, 672.10 190.90 C 672.67 190.30, 672.94 189.36, 673.46 187.70 C 673.99 186.04, 674.28 185.03, 674.71 182.60 C 675.13 180.16, 675.26 178.58, 675.58 175.52 C 675.90 172.46, 675.91 170.71, 676.32 167.30 C 676.73 163.89, 677.17 161.75, 677.64 158.49 C 678.11 155.23, 678.50 153.45, 678.66 150.98 C 678.83 148.52, 678.90 147.21, 678.48 146.16 C 678.06 145.10, 677.41 144.92, 676.57 145.72" mask="url(#greeting-reveal14)"/>
<mask id="greeting-reveal15" maskUnits="userSpaceOnUse" x="0" y="0" width="973.4" height="280.0"><path d="M 745.1 106.7 L 745.4 107.2 L 746 108.8 L 746.8 112.7 L 747.8 119.5 L 748.7 129.3 L 749.2 141.7 L 749.1 155.3 L 748.1 169.3 L 746.1 182.1 L 743.7 193.1 L 740.5 202 L 736.7 208.7 L 732.5 213.4 L 728.2 215.7 L 724.3 216 L 720.8 214 L 717.9 209.6 L 716.3 204.4 L 715.7 200.4" fill="none" stroke="#fff" stroke-width="9.2" stroke-linecap="round" stroke-linejoin="round" stroke-dasharray="150.3" stroke-dashoffset="159.5"><animate attributeName="stroke-dashoffset" dur="6614ms" repeatCount="indefinite" values="159.5;159.5;148;137.2;115;87.3;63.1;45.9;34.8;26.8;16.1;12;12" keyTimes="0;0.59964;0.60206;0.60448;0.60689;0.60931;0.61173;0.61415;0.61657;0.61899;0.62141;0.62262;1"/></path></mask>
<path d="M 744.55,107.09 C 744.20 107.38, 744.16 107.33, 743.98 107.79 C 743.80 108.25, 743.65 108.32, 743.66 109.38 C 743.67 110.45, 743.69 111.05, 744.05 113.12 C 744.41 115.19, 744.88 116.47, 745.46 119.73 C 746.03 123.00, 746.47 125.05, 746.92 129.43 C 747.37 133.82, 747.54 136.53, 747.71 141.68 C 747.88 146.84, 747.96 149.72, 747.77 155.21 C 747.59 160.70, 747.38 163.79, 746.78 169.13 C 746.18 174.47, 745.68 177.18, 744.77 181.90 C 743.87 186.62, 743.43 188.84, 742.25 192.72 C 741.08 196.59, 740.35 198.31, 738.89 201.27 C 737.43 204.24, 736.48 205.43, 734.95 207.55 C 733.43 209.67, 732.71 210.60, 731.25 211.88 C 729.80 213.15, 728.99 213.46, 727.68 213.92 C 726.37 214.38, 725.76 214.48, 724.69 214.19 C 723.63 213.89, 723.21 213.58, 722.36 212.44 C 721.50 211.30, 721.17 210.18, 720.42 208.47 C 719.66 206.75, 719.36 205.52, 718.60 203.87 C 717.85 202.22, 717.43 200.91, 716.65 200.24 C 715.87 199.57, 715.25 199.57, 714.71 200.53 C 714.17 201.48, 713.82 202.95, 713.96 205.00 C 714.11 207.05, 714.40 208.66, 715.44 210.79 C 716.48 212.91, 717.48 214.22, 719.16 215.62 C 720.85 217.03, 721.94 217.43, 723.87 217.81 C 725.80 218.20, 726.82 218.11, 728.81 217.54 C 730.80 216.97, 731.90 216.48, 733.81 214.96 C 735.72 213.43, 736.72 212.37, 738.37 209.92 C 740.02 207.47, 740.70 205.97, 742.05 202.69 C 743.40 199.42, 744.04 197.59, 745.12 193.53 C 746.19 189.47, 746.58 187.21, 747.42 182.39 C 748.27 177.56, 748.74 174.83, 749.34 169.41 C 749.93 164.00, 750.14 160.87, 750.40 155.31 C 750.65 149.76, 750.61 146.85, 750.62 141.64 C 750.63 136.42, 750.54 133.71, 750.45 129.22 C 750.36 124.73, 750.36 122.60, 750.18 119.19 C 749.99 115.79, 749.87 114.40, 749.51 112.20 C 749.16 110.01, 748.92 109.36, 748.40 108.23 C 747.88 107.10, 747.45 106.94, 746.91 106.56 C 746.38 106.17, 746.19 106.21, 745.72 106.32 C 745.25 106.42, 744.90 106.79, 744.55 107.09" mask="url(#greeting-reveal15)"/>
<mask id="greeting-reveal16" maskUnits="userSpaceOnUse" x="0" y="0" width="973.4" height="280.0"><path d="M 738.9 64.4 L 738.9 65.1 L 739.3 67.1 L 740.5 70.6" fill="none" stroke="#fff" stroke-width="11.7" stroke-linecap="round" stroke-linejoin="round" stroke-dasharray="18.3" stroke-dashoffset="30.1"><animate attributeName="stroke-dashoffset" dur="6614ms" repeatCount="indefinite" values="30.1;30.1;15.6;11.9;11.9" keyTimes="0;0.62383;0.62625;0.62746;1"/></path></mask>
<path d="M 738.15,64.38 C 737.65 64.58, 737.63 64.61, 737.14 65.35 C 736.64 66.09, 735.41 66.91, 735.69 68.08 C 735.97 69.25, 737.20 70.84, 738.54 71.21 C 739.88 71.57, 741.52 70.96, 742.39 69.92 C 743.27 68.89, 743.25 67.06, 742.91 66.04 C 742.57 65.02, 741.35 65.16, 740.70 64.82 C 740.05 64.48, 740.15 64.42, 739.64 64.33 C 739.13 64.25, 738.65 64.17, 738.15 64.38" mask="url(#greeting-reveal16)"/>
<mask id="greeting-reveal17" maskUnits="userSpaceOnUse" x="0" y="0" width="973.4" height="280.0"><path d="M 767.9 102.7 L 767.5 105.5 L 767.3 110.7 L 767.1 118.1 L 767.1 126.5 L 767.7 134.9 L 768.5 142.3 L 769.9 147.6 L 771.6 150.4 L 773.8 150.8 L 776.4 148.3 L 779.2 142.8 L 782.2 134.6 L 785.3 124.7 L 788.6 114.6 L 792 105.7 L 794.2 99.2 L 795.6 96.9 L 796.2 99.2 L 795.7 105.7 L 794.7 115 L 793.3 125.3 L 792.2 134.8 L 791.5 142.8 L 791.8 148.6 L 792.7 151.8 L 793.9 152.7 L 795.7 151.3 L 797.8 147.5 L 800 141.3 L 802.7 133.4 L 805.5 124.4 L 808.5 115.4 L 811.5 107.5 L 814.5 101.3 L 817.3 97.4 L 819.8 96.2 L 821.8 98.9 L 822.8 104.7 L 823.3 113 L 823.1 122.6 L 822.7 131.8 L 822.3 139.6 L 822.1 145.4 L 822.1 149 L 822.8 149.3 L 824.3 146.3 L 826.3 140 L 829.2 131.2 L 832.9 122.1 L 837 113.8 L 840.8 107 L 844 102.7 L 846.5 101.2 L 848.1 103 L 848.9 107.9 L 848.9 115.4 L 848.6 124.2 L 848.2 132.8 L 848.2 140.2 L 849.1 146.3 L 850.6 150.5 L 853.3 152.5 L 857 152.3 L 861.5 149.8 L 866.7 144.6 L 872.3 137.1 L 877.6 128.2 L 882 119.3 L 885.1 111.5 L 886.5 105.3 L 886.4 101 L 884.8 98.4 L 881.9 97.8 L 878.4 99.6 L 874.4 104 L 870.3 111.1 L 867.1 120.1 L 865.4 129.6 L 865.6 139.1 L 867.9 147.1 L 872 153.3 L 877.2 157.3 L 882.9 159.1 L 888.7 158.9 L 893.9 157.1 L 898 153.6 L 900.9 147.9 L 902.6 141.6 L 903.2 136.7" fill="none" stroke="#fff" stroke-width="9.3" stroke-linecap="round" stroke-linejoin="round" stroke-dasharray="593.1" stroke-dashoffset="602.4"><animate attributeName="stroke-dashoffset" dur="6614ms" repeatCount="indefinite" values="602.4;602.4;577.8;553.5;542.5;524;493.4;481.5;455.3;431.9;424.7;405.4;378;363.6;346;319.4;309.2;290;263.1;252.5;231.2;209;197.5;175.6;147;133.2;120.4;93;67.8;49.4;32.1;20.7;20.7" keyTimes="0;0.62867;0.6323;0.63592;0.63955;0.64318;0.64681;0.65044;0.65407;0.6577;0.66132;0.66495;0.66858;0.67221;0.67584;0.67947;0.6831;0.68673;0.69035;0.69398;0.69761;0.70124;0.70487;0.7085;0.71213;0.71575;0.71938;0.72301;0.72664;0.73027;0.7339;0.73632;1"/></path></mask>
<path d="M 766.99,102.62 C 766.32 103.12, 765.95 103.75, 765.45 105.35 C 764.96 106.95, 764.69 108.09, 764.51 110.63 C 764.32 113.17, 764.46 114.86, 764.54 118.05 C 764.62 121.24, 764.73 123.17, 764.91 126.58 C 765.08 130.00, 765.17 131.91, 765.43 135.13 C 765.70 138.35, 765.72 140.06, 766.25 142.68 C 766.78 145.30, 767.20 146.46, 768.09 148.22 C 768.98 149.98, 769.42 150.69, 770.69 151.48 C 771.95 152.26, 772.88 152.54, 774.42 152.16 C 775.96 151.79, 776.95 151.26, 778.39 149.59 C 779.83 147.92, 780.45 146.68, 781.61 143.82 C 782.78 140.96, 783.14 139.01, 784.22 135.30 C 785.31 131.60, 785.82 129.33, 787.04 125.30 C 788.26 121.27, 788.93 118.93, 790.30 115.15 C 791.67 111.37, 792.79 109.45, 793.90 106.40 C 795.00 103.35, 795.48 101.72, 795.82 99.91 C 796.16 98.10, 795.89 97.46, 795.59 97.33 C 795.28 97.20, 794.78 97.63, 794.28 99.26 C 793.79 100.88, 793.46 102.36, 793.10 105.45 C 792.75 108.55, 792.84 110.81, 792.51 114.74 C 792.18 118.67, 791.90 121.11, 791.45 125.08 C 791.01 129.06, 790.68 131.07, 790.26 134.62 C 789.84 138.16, 789.43 139.94, 789.35 142.78 C 789.28 145.63, 789.45 146.90, 789.89 148.83 C 790.32 150.77, 790.67 151.46, 791.51 152.45 C 792.35 153.43, 792.91 153.76, 794.10 153.78 C 795.29 153.80, 796.21 153.59, 797.45 152.55 C 798.70 151.50, 799.31 150.63, 800.33 148.56 C 801.35 146.49, 801.68 145.09, 802.56 142.19 C 803.43 139.29, 803.77 137.48, 804.73 134.05 C 805.69 130.63, 806.24 128.64, 807.35 125.05 C 808.47 121.45, 809.08 119.43, 810.31 116.07 C 811.54 112.72, 812.29 111.03, 813.49 108.28 C 814.69 105.54, 815.33 104.29, 816.31 102.34 C 817.29 100.40, 817.78 99.56, 818.41 98.56 C 819.03 97.56, 819.16 97.13, 819.45 97.33 C 819.73 97.53, 819.70 98.03, 819.83 99.57 C 819.96 101.10, 819.85 102.29, 820.09 105.00 C 820.32 107.70, 820.80 109.59, 821.00 113.08 C 821.20 116.58, 821.18 118.77, 821.11 122.49 C 821.04 126.22, 820.85 128.30, 820.64 131.70 C 820.42 135.09, 820.14 136.75, 820.01 139.49 C 819.89 142.23, 819.83 143.47, 820.03 145.41 C 820.24 147.34, 820.33 148.27, 821.05 149.17 C 821.77 150.08, 822.51 150.36, 823.63 149.95 C 824.74 149.55, 825.56 148.98, 826.61 147.15 C 827.66 145.32, 827.97 143.85, 828.89 140.81 C 829.80 137.77, 830.02 135.54, 831.18 131.95 C 832.34 128.37, 833.17 126.33, 834.69 122.88 C 836.21 119.43, 837.18 117.65, 838.77 114.71 C 840.36 111.78, 841.35 110.38, 842.65 108.23 C 843.95 106.07, 844.51 105.14, 845.26 103.94 C 846.02 102.74, 846.20 102.29, 846.42 102.22 C 846.63 102.14, 846.42 102.39, 846.36 103.57 C 846.29 104.75, 846.09 105.76, 846.08 108.12 C 846.07 110.49, 846.25 112.20, 846.30 115.39 C 846.35 118.58, 846.40 120.62, 846.34 124.08 C 846.28 127.55, 846.08 129.45, 846.00 132.71 C 845.92 135.97, 845.74 137.54, 845.95 140.37 C 846.15 143.19, 846.39 144.61, 847.04 146.82 C 847.69 149.04, 848.04 150.00, 849.19 151.45 C 850.35 152.91, 851.12 153.54, 852.82 154.11 C 854.51 154.69, 855.63 154.81, 857.68 154.34 C 859.72 153.87, 860.89 153.41, 863.04 151.76 C 865.20 150.12, 866.26 148.84, 868.45 146.12 C 870.63 143.39, 871.82 141.55, 873.97 138.13 C 876.11 134.71, 877.23 132.63, 879.17 129.02 C 881.11 125.42, 882.06 123.48, 883.65 120.11 C 885.24 116.74, 886.15 115.07, 887.11 112.16 C 888.07 109.25, 888.27 107.87, 888.44 105.55 C 888.62 103.24, 888.55 102.29, 888.00 100.59 C 887.45 98.90, 886.99 98.01, 885.69 97.08 C 884.40 96.14, 883.28 95.78, 881.52 95.92 C 879.76 96.05, 878.77 96.45, 876.90 97.76 C 875.03 99.07, 873.89 99.99, 872.17 102.48 C 870.44 104.97, 869.66 106.78, 868.28 110.20 C 866.89 113.62, 866.16 115.72, 865.23 119.58 C 864.29 123.44, 863.90 125.56, 863.61 129.50 C 863.33 133.45, 863.32 135.65, 863.81 139.32 C 864.29 142.99, 864.75 144.79, 866.06 147.87 C 867.38 150.94, 868.37 152.45, 870.40 154.72 C 872.42 156.98, 873.74 157.90, 876.18 159.20 C 878.62 160.51, 880.02 160.85, 882.61 161.24 C 885.19 161.63, 886.62 161.61, 889.10 161.16 C 891.58 160.71, 892.85 160.21, 895.00 158.97 C 897.15 157.73, 898.16 156.98, 899.83 154.96 C 901.51 152.93, 902.37 151.42, 903.38 148.85 C 904.39 146.28, 904.71 144.51, 904.87 142.11 C 905.04 139.71, 904.74 137.97, 904.21 136.87 C 903.69 135.77, 903.04 135.75, 902.26 136.61 C 901.49 137.47, 901.08 139.10, 900.33 141.17 C 899.57 143.24, 899.32 144.76, 898.48 146.96 C 897.65 149.16, 897.30 150.50, 896.17 152.15 C 895.03 153.80, 894.39 154.28, 892.81 155.19 C 891.24 156.11, 890.21 156.39, 888.30 156.73 C 886.38 157.07, 885.24 157.16, 883.22 156.90 C 881.20 156.64, 880.11 156.44, 878.19 155.43 C 876.27 154.41, 875.30 153.64, 873.61 151.81 C 871.91 149.97, 870.93 148.84, 869.70 146.24 C 868.48 143.64, 867.98 142.10, 867.49 138.81 C 867.00 135.51, 866.97 133.43, 867.27 129.78 C 867.56 126.13, 867.95 124.11, 868.96 120.56 C 869.97 117.01, 870.78 115.02, 872.31 112.03 C 873.83 109.04, 875.05 107.72, 876.58 105.60 C 878.12 103.48, 878.84 102.63, 879.97 101.43 C 881.10 100.23, 881.46 99.96, 882.24 99.60 C 883.01 99.24, 883.33 99.28, 883.83 99.65 C 884.33 100.01, 884.58 100.33, 884.73 101.41 C 884.88 102.50, 884.90 103.20, 884.57 105.09 C 884.25 106.98, 883.97 108.16, 883.11 110.86 C 882.24 113.56, 881.68 115.29, 880.26 118.58 C 878.83 121.86, 877.89 123.81, 875.97 127.28 C 874.06 130.76, 872.89 132.80, 870.69 135.97 C 868.48 139.14, 867.10 140.77, 864.95 143.14 C 862.79 145.51, 861.62 146.38, 859.91 147.82 C 858.19 149.25, 857.58 149.71, 856.36 150.31 C 855.13 150.90, 854.64 150.97, 853.78 150.80 C 852.93 150.63, 852.61 150.45, 852.07 149.46 C 851.52 148.47, 851.39 147.75, 851.07 145.87 C 850.75 143.99, 850.64 142.68, 850.48 140.06 C 850.33 137.45, 850.24 135.96, 850.30 132.80 C 850.35 129.64, 850.54 127.73, 850.77 124.27 C 850.99 120.80, 851.25 118.78, 851.42 115.49 C 851.60 112.19, 851.95 110.40, 851.62 107.77 C 851.30 105.15, 850.81 103.88, 849.79 102.36 C 848.77 100.85, 847.94 100.35, 846.54 100.18 C 845.13 100.00, 844.29 100.37, 842.77 101.51 C 841.25 102.65, 840.44 103.60, 838.93 105.87 C 837.43 108.14, 836.79 109.78, 835.24 112.87 C 833.68 115.95, 832.78 117.78, 831.16 121.29 C 829.54 124.81, 828.65 126.88, 827.14 130.45 C 825.64 134.01, 824.67 136.10, 823.63 139.10 C 822.58 142.10, 822.22 143.52, 821.91 145.44 C 821.60 147.36, 821.81 148.04, 822.07 148.70 C 822.33 149.36, 822.80 149.39, 823.20 148.74 C 823.61 148.09, 823.83 147.27, 824.09 145.46 C 824.35 143.65, 824.38 142.40, 824.49 139.69 C 824.61 136.98, 824.55 135.32, 824.69 131.90 C 824.82 128.49, 824.98 126.41, 825.15 122.63 C 825.32 118.85, 825.46 116.65, 825.54 113.01 C 825.63 109.37, 825.92 107.41, 825.58 104.44 C 825.23 101.47, 824.89 100.03, 823.82 98.16 C 822.74 96.28, 821.73 95.46, 820.19 95.06 C 818.65 94.66, 817.63 95.12, 816.12 96.16 C 814.61 97.20, 813.95 98.17, 812.64 100.27 C 811.34 102.36, 810.80 103.73, 809.60 106.63 C 808.40 109.53, 807.84 111.33, 806.65 114.77 C 805.46 118.22, 804.84 120.26, 803.63 123.85 C 802.43 127.44, 801.83 129.40, 800.61 132.72 C 799.38 136.04, 798.58 137.71, 797.51 140.44 C 796.44 143.17, 795.94 144.44, 795.24 146.36 C 794.54 148.28, 794.32 148.96, 794.01 150.02 C 793.71 151.09, 793.75 151.45, 793.72 151.69 C 793.68 151.94, 793.85 151.91, 793.83 151.24 C 793.82 150.58, 793.66 150.03, 793.64 148.36 C 793.62 146.70, 793.65 145.58, 793.73 142.91 C 793.82 140.24, 793.78 138.47, 794.07 135.00 C 794.36 131.53, 794.65 129.50, 795.19 125.55 C 795.74 121.61, 796.17 119.19, 796.80 115.27 C 797.44 111.35, 798.11 109.17, 798.35 105.95 C 798.60 102.74, 798.57 101.08, 798.02 99.19 C 797.46 97.31, 796.66 96.63, 795.58 96.51 C 794.50 96.39, 793.71 96.88, 792.60 98.58 C 791.48 100.27, 791.16 101.91, 790.02 104.98 C 788.88 108.06, 788.20 110.12, 786.91 113.96 C 785.62 117.81, 784.90 120.20, 783.57 124.20 C 782.24 128.19, 781.63 130.45, 780.27 133.96 C 778.90 137.46, 777.89 139.14, 776.73 141.74 C 775.57 144.34, 775.17 145.44, 774.47 146.97 C 773.76 148.50, 773.62 148.92, 773.21 149.40 C 772.80 149.88, 772.73 149.87, 772.42 149.37 C 772.11 148.87, 772.00 148.38, 771.66 146.88 C 771.33 145.39, 771.12 144.31, 770.76 141.88 C 770.40 139.46, 770.15 137.83, 769.88 134.75 C 769.60 131.66, 769.43 129.77, 769.39 126.44 C 769.35 123.11, 769.53 121.22, 769.67 118.10 C 769.81 114.97, 770.10 113.30, 770.09 110.82 C 770.08 108.33, 769.86 107.25, 769.61 105.66 C 769.35 104.06, 769.32 103.47, 768.80 102.86 C 768.27 102.25, 767.65 102.13, 766.99 102.62" mask="url(#greeting-reveal17)"/>
<mask id="greeting-reveal18" maskUnits="userSpaceOnUse" x="0" y="0" width="973.4" height="280.0"><path d="M 931.1 46.6 L 931.6 48.7 L 932.2 52 L 932.9 56.7 L 933.4 62.8 L 933.2 70.2 L 932.4 79.1 L 931.2 88.6 L 929.9 98.5 L 929 107.9 L 928.4 116.3 L 928.1 123.9 L 927.9 130.4 L 927.6 135.4 L 927.4 138.4 L 927.1 140 L 927 140.4" fill="none" stroke="#fff" stroke-width="9" stroke-linecap="round" stroke-linejoin="round" stroke-dasharray="105.2" stroke-dashoffset="114.2"><animate attributeName="stroke-dashoffset" dur="6614ms" repeatCount="indefinite" values="114.2;114.2;99.6;88.8;72.4;52.9;35;20.9;12.9;10.9;10.9" keyTimes="0;0.73753;0.73995;0.74236;0.74478;0.7472;0.74962;0.75204;0.75446;0.75688;1"/></path></mask>
<path d="M 930.08,46.83 C 929.58 47.39, 929.60 48.04, 929.53 49.16 C 929.45 50.29, 929.57 50.87, 929.71 52.43 C 929.86 53.99, 930.03 54.87, 930.25 56.95 C 930.47 59.03, 930.64 60.20, 930.80 62.83 C 930.95 65.46, 931.07 66.88, 931.00 70.09 C 930.94 73.30, 930.79 75.22, 930.47 78.88 C 930.16 82.54, 929.89 84.53, 929.42 88.41 C 928.96 92.29, 928.62 94.42, 928.17 98.28 C 927.71 102.14, 927.50 104.12, 927.15 107.71 C 926.80 111.29, 926.67 112.98, 926.41 116.21 C 926.15 119.44, 926.01 121.03, 925.86 123.85 C 925.71 126.67, 925.72 128.01, 925.66 130.30 C 925.60 132.58, 925.53 133.68, 925.56 135.28 C 925.58 136.88, 925.65 137.38, 925.79 138.28 C 925.92 139.17, 926.05 139.36, 926.22 139.75 C 926.40 140.15, 926.48 140.10, 926.68 140.25 C 926.89 140.40, 926.97 140.51, 927.25 140.50 C 927.52 140.48, 927.69 140.57, 928.05 140.18 C 928.42 139.80, 928.76 139.51, 929.06 138.58 C 929.36 137.64, 929.35 137.12, 929.55 135.50 C 929.76 133.89, 929.93 132.80, 930.08 130.50 C 930.23 128.21, 930.27 126.83, 930.32 124.01 C 930.37 121.20, 930.25 119.62, 930.35 116.43 C 930.44 113.23, 930.53 111.57, 930.80 108.03 C 931.07 104.48, 931.26 102.53, 931.71 98.70 C 932.16 94.86, 932.51 92.75, 933.04 88.87 C 933.57 84.99, 933.89 83.01, 934.38 79.31 C 934.87 75.60, 935.15 73.69, 935.48 70.37 C 935.82 67.04, 936.02 65.50, 936.04 62.70 C 936.06 59.90, 935.83 58.58, 935.58 56.36 C 935.32 54.14, 935.14 53.20, 934.76 51.59 C 934.37 49.97, 934.19 49.32, 933.64 48.27 C 933.10 47.22, 932.74 46.63, 932.03 46.34 C 931.32 46.06, 930.58 46.26, 930.08 46.83" mask="url(#greeting-reveal18)"/>
</svg>
