<svg xmlns="http://www.w3.org/2000/svg" viewBox="0 0 348.1 280.0" fill="#f2f2f7" stroke="none" role="img">
<mask id="hello-reveal0" maskUnits="userSpaceOnUse" x="0" y="0" width="348.1" height="280.0"><path d="M 40 176.5 L 44.5 173.1 L 51 165.4 L 58.6 153.3 L 65.2 136.9 L 69.6 116.8 L 72.1 95.5 L 72.4 74.7 L 70.6 57.1 L 67.6 45.2 L 64.3 40 L 60.8 41.3 L 57.6 49.7 L 55.2 66.2 L 53.4 90.6 L 52.3 121.3 L 51.9 155 L 51.9 187 L 52 213.4 L 52.8 231.8 L 54.1 240 L 56.4 238.5 L 59.8 229.1 L 64.1 214.2 L 68.6 197.8 L 72.5 183.8 L 75.7 175.5 L 78.8 174 L 82.3 178.9 L 86.1 189 L 90.5 201.6 L 95.4 214.1 L 100.7 223.1 L 106.9 226.2 L 114 222.8 L 121.4 212.8 L 128.4 197.9 L 133.6 181.3 L 135.3 166.7 L 134.1 157 L 130.8 153.7 L 126.3 156.5 L 122.2 164.3 L 120.1 177.1 L 120.8 193 L 124.6 209 L 131.3 221.7 L 140.1 227.5 L 150.4 224.8 L 161.5 212.8 L 172.4 192.3 L 181.4 166.5 L 187.5 138.3 L 190 111 L 189.1 87.6 L 186 70.3 L 181.3 59.8 L 176.2 57.3 L 171.6 62.9 L 167.9 77.5 L 165.8 100.5 L 165.5 129.3 L 166.7 159.7 L 169.7 186.9 L 174.4 206.7 L 180.5 217.2 L 188.2 218.1 L 196.8 209.5 L 205.8 191.8 L 213.9 166.8 L 219.5 138.1 L 222.3 109.4 L 222.6 84.9 L 221.3 67.7 L 218.7 59.3 L 215.3 60.2 L 211.6 70.2 L 208.1 88.9 L 205.6 114.3 L 204.8 142.8 L 206.1 170 L 210 192 L 216.3 206.7 L 225.4 213.1 L 237.2 211.5 L 250.6 203.1 L 263.6 190.4 L 274.2 176.4 L 280.4 165.1 L 281.9 158.4 L 279.3 156.9 L 274.1 160.3 L 268.4 168.1 L 263.7 179 L 261.6 191.3 L 263.2 202.8 L 268.8 211.3 L 277.5 215.2 L 287.8 213.9 L 297.7 207.6 L 305.2 197 L 308.1 183.9 L 305.7 171 L 298.8 160.1 L 289.2 152.7 L 279.6 149.4 L 273.3 149.5 L 269.9 151 L 268.7 152.7 L 268.8 154.1 L 268.8 154.8 L 268.7 155.4 L 268.9 155.9 L 269 156.3 L 269 156.7" fill="none" stroke="#fff" stroke-width="11.1" stroke-linecap="round" stroke-linejoin="round" stroke-dasharray="1660.2" stroke-dashoffset="1671.3"><animate attributeName="stroke-dashoffset" dur="3790ms" repeatCount="indefinite" values="1671.3;1671.3;1612.5;1531.9;1500.8;1395.2;1310.1;1264.8;1231.9;1183.9;1140.2;1093.7;1050.7;998.7;903;823.1;771.9;665;613;504.1;463.9;363.7;302.2;237.8;212;165.9;121.3;69.7;47.5;44.2;43.4;43.4" keyTimes="0;0.09235;0.10923;0.12612;0.14301;0.15989;0.17678;0.19367;0.21055;0.22744;0.24433;0.26121;0.2781;0.29499;0.31187;0.32876;0.34565;0.36253;0.37942;0.39631;0.41319;0.43008;0.44697;0.46385;0.48074;0.49763;0.51451;0.5314;0.54828;0.56517;0.57361;1"/></path></mask>
<path d="M 40.92,177.74 C 42.42 177.70, 44.20 177.31, 46.63 175.14 C 49.06 172.97, 50.31 171.08, 53.05 166.88 C 55.79 162.68, 57.60 160.04, 60.33 154.14 C 63.06 148.24, 64.56 144.79, 66.70 137.37 C 68.83 129.95, 69.66 125.42, 71.00 117.05 C 72.34 108.69, 72.82 104.04, 73.39 95.56 C 73.96 87.07, 74.07 82.39, 73.84 74.63 C 73.60 66.88, 73.06 62.82, 72.22 56.79 C 71.38 50.76, 71.09 48.10, 69.66 44.48 C 68.22 40.86, 67.20 39.59, 65.05 38.68 C 62.89 37.78, 60.79 37.86, 58.88 39.96 C 56.97 42.05, 56.55 43.96, 55.50 49.17 C 54.45 54.39, 54.27 57.75, 53.62 66.02 C 52.98 74.29, 52.72 79.47, 52.27 90.53 C 51.81 101.58, 51.61 108.41, 51.36 121.29 C 51.10 134.18, 51.09 141.83, 51.01 154.96 C 50.93 168.10, 50.96 175.25, 50.94 186.95 C 50.93 198.65, 50.87 204.49, 50.93 213.47 C 51.00 222.45, 50.84 226.46, 51.27 231.87 C 51.71 237.28, 51.73 238.98, 53.12 240.51 C 54.52 242.04, 56.42 241.65, 58.23 239.52 C 60.04 237.38, 60.58 234.78, 62.18 229.84 C 63.77 224.90, 64.55 221.12, 66.21 214.82 C 67.87 208.52, 68.79 204.40, 70.48 198.34 C 72.17 192.27, 73.24 188.83, 74.66 184.49 C 76.07 180.15, 76.89 178.46, 77.57 176.64 C 78.26 174.82, 77.70 174.66, 78.07 175.39 C 78.45 176.12, 78.39 177.37, 79.47 180.28 C 80.54 183.19, 81.68 185.51, 83.43 189.95 C 85.18 194.39, 86.26 197.46, 88.22 202.49 C 90.18 207.52, 91.08 210.62, 93.22 215.09 C 95.35 219.56, 96.14 222.13, 98.90 224.84 C 101.65 227.54, 103.65 228.68, 106.99 228.62 C 110.33 228.56, 112.35 227.49, 115.61 224.55 C 118.87 221.61, 120.37 219.12, 123.29 213.93 C 126.21 208.73, 127.78 205.04, 130.20 198.59 C 132.62 192.14, 133.95 188.04, 135.39 181.67 C 136.84 175.31, 137.22 171.88, 137.44 166.78 C 137.66 161.67, 137.79 159.10, 136.49 156.15 C 135.18 153.21, 133.42 152.35, 130.91 152.03 C 128.40 151.71, 126.22 152.26, 123.95 154.55 C 121.69 156.84, 120.81 159.01, 119.60 163.49 C 118.39 167.97, 118.05 171.00, 117.92 176.96 C 117.79 182.92, 117.95 186.77, 118.94 193.30 C 119.93 199.83, 120.70 203.70, 122.86 209.62 C 125.03 215.54, 126.40 218.94, 129.78 222.90 C 133.16 226.87, 135.44 228.77, 139.76 229.44 C 144.08 230.11, 146.77 229.41, 151.37 226.24 C 155.97 223.08, 158.34 220.29, 162.77 213.61 C 167.21 206.93, 169.61 202.19, 173.55 192.83 C 177.49 183.47, 179.48 177.67, 182.47 166.80 C 185.46 155.93, 186.78 149.65, 188.49 138.49 C 190.20 127.33, 190.64 121.19, 191.01 110.99 C 191.38 100.79, 191.05 95.71, 190.34 87.49 C 189.62 79.27, 188.92 75.65, 187.44 69.88 C 185.96 64.10, 185.29 61.45, 182.93 58.60 C 180.58 55.76, 178.33 54.95, 175.67 55.65 C 173.02 56.35, 171.52 57.80, 169.64 62.11 C 167.76 66.42, 167.31 69.55, 166.30 77.22 C 165.29 84.88, 164.95 90.02, 164.59 100.44 C 164.23 110.87, 164.26 117.46, 164.48 129.33 C 164.70 141.20, 164.86 148.25, 165.69 159.80 C 166.52 171.34, 167.14 177.60, 168.62 187.07 C 170.10 196.53, 170.92 200.84, 173.09 207.12 C 175.25 213.41, 176.26 215.96, 179.44 218.49 C 182.61 221.02, 185.21 221.38, 188.97 219.78 C 192.72 218.18, 194.58 215.98, 198.20 210.48 C 201.82 204.99, 203.71 200.98, 207.06 192.31 C 210.41 183.64, 212.27 177.93, 214.96 167.13 C 217.66 156.32, 218.88 149.83, 220.55 138.29 C 222.21 126.75, 222.64 120.12, 223.30 109.43 C 223.96 98.74, 223.94 93.23, 223.85 84.84 C 223.77 76.45, 223.69 72.76, 222.88 67.48 C 222.08 62.20, 221.68 60.14, 219.82 58.45 C 217.97 56.75, 215.63 56.76, 213.60 59.02 C 211.57 61.28, 211.08 63.80, 209.67 69.74 C 208.27 75.68, 207.62 79.81, 206.58 88.70 C 205.53 97.59, 205.02 103.37, 204.45 114.20 C 203.88 125.02, 203.60 131.64, 203.72 142.82 C 203.83 154.00, 204.01 160.18, 205.02 170.09 C 206.03 179.99, 206.74 184.85, 208.75 192.34 C 210.76 199.84, 211.83 203.08, 215.09 207.56 C 218.35 212.05, 220.48 213.64, 225.04 214.76 C 229.60 215.88, 232.57 215.22, 237.89 213.17 C 243.22 211.13, 246.27 208.86, 251.67 204.52 C 257.06 200.18, 260.07 196.91, 264.88 191.49 C 269.69 186.08, 272.17 182.56, 275.69 177.46 C 279.22 172.35, 280.94 169.83, 282.51 165.96 C 284.08 162.10, 284.31 160.33, 283.56 158.14 C 282.82 155.95, 281.18 155.04, 278.79 154.99 C 276.40 154.95, 274.22 155.58, 271.60 157.91 C 268.99 160.24, 267.78 162.56, 265.72 166.64 C 263.66 170.73, 262.59 173.40, 261.30 178.33 C 260.00 183.26, 259.30 186.22, 259.24 191.28 C 259.18 196.34, 259.42 199.26, 261.01 203.63 C 262.61 208.01, 263.98 210.33, 267.21 213.13 C 270.44 215.94, 272.90 217.05, 277.18 217.66 C 281.46 218.27, 284.19 217.88, 288.61 216.19 C 293.02 214.51, 295.56 212.89, 299.27 209.22 C 302.98 205.55, 304.99 202.90, 307.17 197.84 C 309.35 192.79, 310.08 189.46, 310.17 183.94 C 310.25 178.42, 309.53 175.30, 307.58 170.25 C 305.63 165.20, 303.86 162.62, 300.41 158.69 C 296.97 154.77, 294.39 153.05, 290.35 150.62 C 286.30 148.20, 283.70 147.34, 280.20 146.58 C 276.69 145.83, 275.14 146.32, 272.83 146.84 C 270.53 147.36, 269.90 148.17, 268.66 149.19 C 267.43 150.21, 267.08 150.95, 266.65 151.95 C 266.21 152.95, 266.52 153.63, 266.48 154.17 C 266.44 154.72, 266.58 154.37, 266.44 154.68 C 266.30 154.98, 265.94 155.27, 265.79 155.71 C 265.64 156.14, 265.61 156.64, 265.67 156.87 C 265.72 157.09, 265.72 156.86, 266.06 156.84 C 266.40 156.82, 266.45 156.79, 267.37 156.76 C 268.28 156.72, 269.74 156.85, 270.65 156.66 C 271.56 156.47, 271.65 156.13, 271.94 155.80 C 272.22 155.47, 272.13 155.17, 272.08 155.03 C 272.03 154.89, 271.89 155.14, 271.68 155.12 C 271.48 155.09, 271.19 155.15, 271.08 154.92 C 270.97 154.70, 271.21 154.29, 271.13 153.99 C 271.06 153.70, 270.69 153.69, 270.71 153.46 C 270.73 153.23, 270.63 153.11, 271.23 152.84 C 271.83 152.57, 272.13 152.23, 273.69 152.12 C 275.25 152.02, 276.17 151.76, 279.03 152.30 C 281.89 152.84, 284.36 152.99, 288.01 154.84 C 291.65 156.69, 294.09 158.18, 297.25 161.56 C 300.40 164.94, 302.02 167.27, 303.78 171.74 C 305.55 176.20, 306.17 178.99, 306.06 183.87 C 305.96 188.74, 305.25 191.70, 303.26 196.12 C 301.27 200.54, 299.38 202.85, 296.11 205.97 C 292.84 209.08, 290.56 210.34, 286.91 211.70 C 283.26 213.06, 281.16 213.23, 277.86 212.78 C 274.56 212.33, 272.88 211.61, 270.40 209.46 C 267.92 207.31, 266.75 205.64, 265.46 202.03 C 264.18 198.41, 263.82 195.83, 263.96 191.38 C 264.10 186.92, 264.76 184.11, 266.17 179.76 C 267.59 175.40, 268.95 172.99, 271.04 169.60 C 273.14 166.20, 274.89 164.95, 276.63 162.78 C 278.37 160.62, 279.02 159.61, 279.75 158.77 C 280.47 157.94, 280.53 157.53, 280.26 158.62 C 279.98 159.70, 279.91 160.83, 278.38 164.19 C 276.86 167.55, 275.84 170.41, 272.62 175.41 C 269.40 180.41, 266.93 183.94, 262.30 189.21 C 257.66 194.48, 254.60 197.64, 249.46 201.76 C 244.31 205.89, 241.29 207.89, 236.56 209.82 C 231.83 211.76, 229.62 212.24, 225.81 211.44 C 221.99 210.63, 220.41 209.76, 217.48 205.81 C 214.55 201.85, 213.21 198.86, 211.16 191.68 C 209.10 184.49, 208.27 179.63, 207.21 169.86 C 206.15 160.08, 205.94 153.91, 205.86 142.80 C 205.79 131.70, 206.08 125.08, 206.82 114.34 C 207.56 103.60, 208.24 97.83, 209.57 89.10 C 210.90 80.38, 211.96 76.26, 213.45 70.69 C 214.95 65.13, 216.23 63.39, 217.06 61.29 C 217.90 59.19, 217.09 58.85, 217.62 60.18 C 218.16 61.52, 218.98 63.02, 219.74 67.96 C 220.51 72.91, 221.14 76.63, 221.43 84.90 C 221.72 93.17, 221.79 98.69, 221.21 109.31 C 220.63 119.93, 220.21 126.54, 218.52 137.99 C 216.84 149.44, 215.58 155.91, 212.77 166.57 C 209.97 177.22, 207.97 182.87, 204.49 191.28 C 201.02 199.69, 198.82 203.57, 195.40 208.61 C 191.99 213.66, 190.19 215.02, 187.42 216.49 C 184.65 217.95, 183.90 218.00, 181.54 215.95 C 179.19 213.90, 177.77 212.07, 175.62 206.22 C 173.47 200.38, 172.38 196.03, 170.80 186.71 C 169.22 177.40, 168.55 171.13, 167.71 159.65 C 166.87 148.17, 166.71 141.12, 166.59 129.30 C 166.47 117.48, 166.51 110.88, 167.10 100.56 C 167.69 90.24, 168.26 85.09, 169.55 77.71 C 170.84 70.34, 172.10 67.47, 173.53 63.70 C 174.96 59.93, 175.46 59.40, 176.69 58.86 C 177.93 58.32, 178.16 58.65, 179.72 61.02 C 181.27 63.39, 182.84 65.36, 184.48 70.71 C 186.13 76.05, 187.04 79.68, 187.93 87.73 C 188.81 95.77, 189.19 100.83, 188.90 110.92 C 188.61 121.01, 188.19 127.12, 186.49 138.19 C 184.79 149.25, 183.45 155.49, 180.41 166.23 C 177.37 176.96, 175.29 182.71, 171.27 191.85 C 167.25 200.99, 164.68 205.63, 160.30 211.94 C 155.92 218.24, 153.37 220.61, 149.38 223.36 C 145.40 226.10, 143.71 226.23, 140.38 225.64 C 137.06 225.06, 135.56 223.88, 132.76 220.42 C 129.96 216.96, 128.39 213.87, 126.39 208.34 C 124.38 202.81, 123.56 199.00, 122.75 192.77 C 121.94 186.53, 121.92 182.71, 122.35 177.17 C 122.77 171.64, 123.61 168.84, 124.89 165.09 C 126.17 161.34, 127.58 160.36, 128.74 158.43 C 129.90 156.50, 130.09 155.54, 130.70 155.42 C 131.30 155.29, 131.25 155.55, 131.76 157.81 C 132.28 160.06, 133.26 162.07, 133.26 166.68 C 133.26 171.29, 133.09 174.76, 131.76 180.87 C 130.44 186.97, 129.07 191.04, 126.63 197.22 C 124.19 203.40, 122.42 207.01, 119.56 211.76 C 116.70 216.51, 114.86 218.58, 112.32 220.97 C 109.78 223.37, 108.82 223.67, 106.87 223.74 C 104.92 223.82, 104.43 223.49, 102.57 221.35 C 100.70 219.20, 99.50 217.13, 97.54 213.02 C 95.59 208.91, 94.56 205.79, 92.79 200.79 C 91.02 195.79, 90.25 192.67, 88.70 188.03 C 87.15 183.39, 86.86 180.68, 85.04 177.59 C 83.21 174.50, 81.80 173.24, 79.57 172.58 C 77.34 171.92, 75.70 172.17, 73.87 174.28 C 72.05 176.39, 71.88 178.54, 70.44 183.14 C 68.99 187.74, 68.33 191.17, 66.64 197.27 C 64.95 203.37, 63.80 207.42, 61.97 213.64 C 60.14 219.86, 58.99 223.57, 57.50 228.36 C 56.00 233.14, 54.98 235.32, 54.50 237.55 C 54.01 239.77, 55.11 240.67, 55.06 239.49 C 55.01 238.30, 54.64 236.85, 54.26 231.64 C 53.88 226.42, 53.44 222.36, 53.15 213.43 C 52.86 204.49, 52.88 198.64, 52.81 186.95 C 52.74 175.26, 52.70 168.10, 52.80 154.98 C 52.89 141.85, 52.92 134.21, 53.27 121.34 C 53.62 108.47, 53.87 101.65, 54.56 90.65 C 55.25 79.65, 55.68 74.44, 56.72 66.34 C 57.76 58.24, 58.58 54.89, 59.77 50.13 C 60.97 45.38, 61.93 44.33, 62.68 42.57 C 63.43 40.81, 62.94 40.64, 63.52 41.32 C 64.10 42.00, 64.50 42.78, 65.58 45.98 C 66.66 49.19, 67.82 51.57, 68.91 57.33 C 69.99 63.08, 70.64 67.13, 71.00 74.74 C 71.36 82.35, 71.27 87.01, 70.72 95.38 C 70.17 103.75, 69.66 108.38, 68.26 116.60 C 66.85 124.82, 65.97 129.30, 63.70 136.47 C 61.42 143.63, 59.81 146.92, 56.88 152.43 C 53.94 157.94, 51.92 160.31, 49.03 164.02 C 46.15 167.73, 44.45 168.72, 42.46 170.99 C 40.47 173.26, 39.39 174.00, 39.08 175.35 C 38.78 176.70, 39.41 177.79, 40.92 177.74" mask="url(#hello-reveal0)"/>
</svg>
