<svg xmlns="http://www.w3.org/2000/svg" viewBox="0 0 407.0 39.2" fill="currentColor" stroke="none" role="img">
<path d="M 15.02,19.07 C 14.92 18.99, 14.80 18.97, 14.55 18.98 C 14.30 18.99, 14.17 18.99, 13.77 19.12 C 13.38 19.25, 13.11 19.31, 12.57 19.61 C 12.02 19.92, 11.71 20.12, 11.06 20.64 C 10.41 21.15, 9.99 21.51, 9.30 22.20 C 8.61 22.89, 8.21 23.33, 7.62 24.08 C 7.03 24.82, 6.70 25.27, 6.33 25.92 C 5.96 26.58, 5.83 26.90, 5.77 27.37 C 5.71 27.84, 5.77 28.05, 6.01 28.26 C 6.25 28.48, 6.49 28.53, 6.96 28.45 C 7.43 28.37, 7.75 28.21, 8.36 27.85 C 8.98 27.48, 9.33 27.20, 10.02 26.62 C 10.71 26.04, 11.09 25.66, 11.80 24.95 C 12.51 24.24, 12.90 23.80, 13.56 23.07 C 14.22 22.34, 14.62 21.90, 15.09 21.29 C 15.56 20.68, 15.75 20.34, 15.89 20.02 C 16.04 19.69, 15.97 19.58, 15.80 19.65 C 15.63 19.72, 15.39 19.91, 15.06 20.35 C 14.73 20.80, 14.44 21.19, 14.13 21.87 C 13.83 22.54, 13.67 23.02, 13.55 23.73 C 13.43 24.43, 13.40 24.83, 13.54 25.40 C 13.68 25.98, 13.83 26.24, 14.26 26.60 C 14.68 26.95, 14.99 27.06, 15.67 27.17 C 16.36 27.27, 16.79 27.27, 17.68 27.12 C 18.58 26.97, 19.21 26.76, 20.16 26.44 C 21.11 26.11, 21.67 25.85, 22.43 25.48 C 23.20 25.10, 23.69 24.80, 23.98 24.56 C 24.27 24.33, 24.23 24.26, 23.87 24.32 C 23.51 24.38, 22.98 24.60, 22.18 24.86 C 21.39 25.12, 20.82 25.34, 19.89 25.63 C 18.96 25.93, 18.37 26.15, 17.54 26.33 C 16.71 26.51, 16.33 26.56, 15.74 26.53 C 15.15 26.50, 14.91 26.43, 14.58 26.19 C 14.26 25.94, 14.17 25.75, 14.11 25.29 C 14.06 24.84, 14.13 24.51, 14.32 23.90 C 14.50 23.30, 14.74 22.90, 15.02 22.26 C 15.30 21.62, 15.52 21.21, 15.70 20.71 C 15.89 20.20, 15.99 19.93, 15.96 19.74 C 15.94 19.56, 15.87 19.56, 15.59 19.77 C 15.30 19.99, 15.06 20.27, 14.54 20.82 C 14.02 21.38, 13.65 21.83, 12.99 22.54 C 12.33 23.26, 11.94 23.70, 11.24 24.39 C 10.54 25.08, 10.15 25.43, 9.49 25.99 C 8.83 26.54, 8.47 26.79, 7.93 27.17 C 7.38 27.56, 7.13 27.73, 6.79 27.90 C 6.44 28.08, 6.31 28.12, 6.20 28.04 C 6.09 27.95, 6.09 27.83, 6.23 27.48 C 6.37 27.13, 6.51 26.86, 6.91 26.28 C 7.31 25.70, 7.63 25.28, 8.23 24.58 C 8.82 23.88, 9.21 23.44, 9.88 22.78 C 10.55 22.12, 10.95 21.77, 11.57 21.27 C 12.18 20.78, 12.47 20.59, 12.96 20.30 C 13.45 20.01, 13.70 19.96, 14.04 19.81 C 14.38 19.65, 14.47 19.62, 14.67 19.52 C 14.88 19.43, 14.98 19.43, 15.05 19.34 C 15.12 19.25, 15.12 19.14, 15.02 19.07"/>
<path d="M 39.67,8.47 C 39.55 8.51, 39.48 8.56, 39.30 8.80 C 39.12 9.05, 39.02 9.21, 38.78 9.68 C 38.53 10.16, 38.41 10.46, 38.08 11.16 C 37.75 11.87, 37.55 12.32, 37.13 13.21 C 36.71 14.10, 36.45 14.61, 35.97 15.60 C 35.50 16.60, 35.21 17.17, 34.76 18.19 C 34.30 19.21, 34.06 19.76, 33.71 20.71 C 33.36 21.66, 33.18 22.14, 33.00 22.92 C 32.82 23.71, 32.77 24.08, 32.81 24.64 C 32.84 25.20, 32.91 25.42, 33.19 25.72 C 33.46 26.02, 33.69 26.11, 34.16 26.15 C 34.63 26.18, 34.95 26.12, 35.55 25.90 C 36.16 25.67, 36.51 25.45, 37.19 25.01 C 37.88 24.58, 38.25 24.27, 38.98 23.70 C 39.70 23.13, 40.10 22.77, 40.82 22.16 C 41.54 21.56, 41.95 21.21, 42.59 20.66 C 43.23 20.11, 43.54 19.83, 44.02 19.42 C 44.49 19.01, 44.70 18.82, 44.97 18.60 C 45.24 18.37, 45.31 18.30, 45.36 18.29 C 45.40 18.29, 45.32 18.35, 45.20 18.58 C 45.08 18.80, 44.96 18.99, 44.77 19.41 C 44.57 19.83, 44.44 20.14, 44.23 20.68 C 44.03 21.23, 43.90 21.57, 43.74 22.12 C 43.58 22.67, 43.48 22.97, 43.43 23.43 C 43.37 23.90, 43.36 24.14, 43.48 24.45 C 43.60 24.77, 43.71 24.89, 44.01 25.01 C 44.31 25.14, 44.54 25.17, 44.99 25.10 C 45.44 25.02, 45.72 24.91, 46.27 24.65 C 46.83 24.39, 47.15 24.18, 47.76 23.81 C 48.37 23.43, 48.71 23.20, 49.35 22.76 C 49.98 22.32, 50.33 22.04, 50.94 21.61 C 51.56 21.17, 51.86 20.94, 52.41 20.59 C 52.97 20.24, 53.26 20.10, 53.71 19.86 C 54.17 19.62, 54.41 19.50, 54.70 19.39 C 54.99 19.29, 55.07 19.28, 55.17 19.35 C 55.27 19.42, 55.26 19.51, 55.22 19.74 C 55.19 19.97, 55.13 20.15, 55.00 20.51 C 54.87 20.88, 54.74 21.15, 54.57 21.58 C 54.40 22.01, 54.27 22.27, 54.14 22.67 C 54.01 23.06, 53.93 23.26, 53.92 23.55 C 53.92 23.84, 53.94 23.99, 54.12 24.10 C 54.29 24.22, 54.45 24.22, 54.79 24.12 C 55.13 24.01, 55.35 23.87, 55.80 23.58 C 56.25 23.29, 56.50 23.06, 57.03 22.67 C 57.56 22.29, 57.91 22.03, 58.46 21.66 C 59.01 21.28, 59.33 21.08, 59.77 20.81 C 60.20 20.55, 60.38 20.43, 60.65 20.33 C 60.92 20.22, 61.02 20.22, 61.11 20.28 C 61.21 20.34, 61.17 20.42, 61.13 20.62 C 61.09 20.83, 61.01 20.98, 60.92 21.29 C 60.84 21.60, 60.77 21.82, 60.71 22.19 C 60.65 22.56, 60.61 22.78, 60.63 23.14 C 60.65 23.51, 60.66 23.70, 60.80 24.00 C 60.93 24.30, 61.02 24.46, 61.29 24.64 C 61.56 24.82, 61.74 24.89, 62.15 24.91 C 62.55 24.92, 62.80 24.87, 63.33 24.70 C 63.86 24.53, 64.16 24.38, 64.78 24.07 C 65.41 23.75, 65.79 23.54, 66.47 23.12 C 67.16 22.69, 67.54 22.42, 68.20 21.94 C 68.87 21.45, 69.21 21.17, 69.79 20.69 C 70.37 20.20, 70.68 19.95, 71.10 19.51 C 71.52 19.07, 71.73 18.82, 71.88 18.48 C 72.02 18.14, 71.98 17.95, 71.80 17.81 C 71.62 17.67, 71.38 17.64, 70.97 17.78 C 70.55 17.91, 70.24 18.08, 69.73 18.48 C 69.23 18.88, 68.89 19.21, 68.44 19.76 C 68.00 20.30, 67.77 20.65, 67.52 21.20 C 67.26 21.76, 67.15 22.06, 67.17 22.54 C 67.18 23.01, 67.25 23.25, 67.57 23.58 C 67.90 23.90, 68.16 24.04, 68.78 24.17 C 69.40 24.30, 69.81 24.32, 70.66 24.24 C 71.52 24.15, 72.15 23.99, 73.05 23.76 C 73.96 23.52, 74.47 23.32, 75.18 23.06 C 75.90 22.79, 76.35 22.61, 76.63 22.43 C 76.90 22.26, 76.88 22.18, 76.55 22.18 C 76.23 22.18, 75.74 22.28, 75.00 22.43 C 74.26 22.58, 73.74 22.72, 72.85 22.92 C 71.96 23.11, 71.36 23.28, 70.56 23.40 C 69.77 23.52, 69.41 23.55, 68.88 23.52 C 68.34 23.48, 68.14 23.41, 67.90 23.22 C 67.66 23.03, 67.63 22.90, 67.68 22.56 C 67.73 22.23, 67.86 21.99, 68.15 21.54 C 68.43 21.09, 68.67 20.80, 69.10 20.33 C 69.54 19.85, 69.89 19.57, 70.32 19.17 C 70.75 18.77, 70.98 18.56, 71.26 18.32 C 71.54 18.09, 71.66 18.01, 71.71 17.99 C 71.75 17.97, 71.71 18.02, 71.49 18.23 C 71.27 18.43, 71.06 18.64, 70.63 19.02 C 70.20 19.41, 69.91 19.68, 69.34 20.14 C 68.77 20.60, 68.42 20.86, 67.76 21.32 C 67.11 21.79, 66.73 22.04, 66.06 22.44 C 65.39 22.85, 65.02 23.04, 64.42 23.35 C 63.82 23.66, 63.54 23.80, 63.08 23.98 C 62.62 24.16, 62.42 24.22, 62.12 24.26 C 61.82 24.31, 61.73 24.29, 61.57 24.20 C 61.42 24.11, 61.39 24.02, 61.35 23.81 C 61.30 23.60, 61.31 23.46, 61.34 23.16 C 61.37 22.87, 61.44 22.68, 61.51 22.34 C 61.58 21.99, 61.66 21.77, 61.69 21.42 C 61.72 21.07, 61.75 20.87, 61.67 20.58 C 61.59 20.29, 61.54 20.13, 61.31 19.98 C 61.09 19.82, 60.91 19.79, 60.54 19.83 C 60.16 19.87, 59.95 19.97, 59.44 20.20 C 58.94 20.43, 58.61 20.62, 58.02 20.97 C 57.44 21.32, 57.07 21.58, 56.52 21.96 C 55.98 22.34, 55.71 22.56, 55.31 22.88 C 54.90 23.20, 54.70 23.37, 54.49 23.57 C 54.27 23.78, 54.23 23.88, 54.22 23.90 C 54.20 23.92, 54.29 23.87, 54.42 23.68 C 54.54 23.50, 54.65 23.33, 54.85 22.97 C 55.04 22.62, 55.19 22.36, 55.37 21.91 C 55.56 21.46, 55.70 21.16, 55.77 20.71 C 55.85 20.27, 55.85 20.03, 55.77 19.70 C 55.69 19.36, 55.61 19.21, 55.38 19.04 C 55.14 18.88, 54.98 18.83, 54.59 18.88 C 54.20 18.93, 53.94 19.05, 53.43 19.27 C 52.93 19.50, 52.64 19.66, 52.06 20.01 C 51.48 20.36, 51.16 20.58, 50.53 21.00 C 49.90 21.43, 49.55 21.71, 48.92 22.13 C 48.28 22.55, 47.95 22.77, 47.35 23.13 C 46.75 23.48, 46.42 23.66, 45.92 23.92 C 45.41 24.18, 45.18 24.30, 44.82 24.43 C 44.47 24.57, 44.32 24.61, 44.14 24.59 C 43.96 24.57, 43.93 24.55, 43.92 24.34 C 43.91 24.14, 43.96 23.95, 44.08 23.56 C 44.19 23.17, 44.30 22.89, 44.49 22.38 C 44.69 21.87, 44.85 21.54, 45.06 21.00 C 45.27 20.46, 45.42 20.16, 45.54 19.69 C 45.67 19.23, 45.72 18.99, 45.70 18.67 C 45.68 18.35, 45.63 18.19, 45.44 18.09 C 45.24 18.00, 45.08 18.01, 44.72 18.18 C 44.35 18.34, 44.13 18.53, 43.61 18.92 C 43.10 19.31, 42.79 19.58, 42.13 20.11 C 41.47 20.64, 41.06 20.98, 40.33 21.58 C 39.61 22.17, 39.21 22.53, 38.50 23.08 C 37.78 23.63, 37.40 23.92, 36.76 24.35 C 36.11 24.77, 35.79 24.96, 35.26 25.22 C 34.74 25.47, 34.51 25.56, 34.15 25.61 C 33.79 25.66, 33.65 25.65, 33.49 25.46 C 33.32 25.26, 33.30 25.11, 33.33 24.63 C 33.35 24.16, 33.41 23.81, 33.62 23.08 C 33.83 22.35, 34.00 21.88, 34.36 20.96 C 34.73 20.04, 34.97 19.50, 35.44 18.49 C 35.90 17.49, 36.19 16.93, 36.68 15.94 C 37.16 14.96, 37.43 14.45, 37.86 13.56 C 38.30 12.67, 38.51 12.22, 38.83 11.51 C 39.16 10.80, 39.29 10.50, 39.49 10.01 C 39.68 9.51, 39.73 9.34, 39.81 9.05 C 39.89 8.77, 39.91 8.71, 39.88 8.59 C 39.86 8.48, 39.79 8.43, 39.67 8.47"/>
<path d="M 95.04,20.08 C 95.17 20.07, 95.29 20.00, 95.45 19.85 C 95.60 19.70, 95.69 19.56, 95.82 19.30 C 95.95 19.04, 96.03 18.86, 96.08 18.55 C 96.13 18.24, 96.14 18.05, 96.07 17.75 C 96.01 17.45, 95.96 17.28, 95.76 17.05 C 95.56 16.82, 95.41 16.70, 95.06 16.61 C 94.71 16.52, 94.49 16.49, 94.00 16.58 C 93.51 16.68, 93.20 16.78, 92.62 17.07 C 92.03 17.35, 91.69 17.56, 91.09 18.01 C 90.48 18.46, 90.12 18.76, 89.59 19.32 C 89.05 19.87, 88.75 20.21, 88.39 20.79 C 88.04 21.37, 87.90 21.69, 87.81 22.20 C 87.71 22.71, 87.73 22.98, 87.92 23.34 C 88.11 23.70, 88.31 23.86, 88.76 24.01 C 89.21 24.16, 89.55 24.17, 90.18 24.09 C 90.80 24.01, 91.17 23.89, 91.87 23.61 C 92.58 23.32, 92.99 23.09, 93.70 22.66 C 94.40 22.23, 94.78 21.96, 95.38 21.47 C 95.97 20.98, 96.25 20.70, 96.67 20.23 C 97.10 19.76, 97.28 19.51, 97.50 19.11 C 97.73 18.72, 97.77 18.54, 97.81 18.25 C 97.85 17.97, 97.79 17.84, 97.72 17.69 C 97.64 17.53, 97.52 17.48, 97.44 17.48 C 97.36 17.48, 97.26 17.60, 97.32 17.69 C 97.37 17.78, 97.44 17.89, 97.71 17.93 C 97.99 17.96, 98.20 17.97, 98.70 17.86 C 99.20 17.76, 99.51 17.68, 100.19 17.40 C 100.88 17.13, 101.29 16.94, 102.11 16.51 C 102.93 16.08, 103.39 15.82, 104.29 15.27 C 105.19 14.72, 105.69 14.40, 106.60 13.75 C 107.51 13.11, 108.00 12.72, 108.85 12.03 C 109.70 11.35, 110.15 10.97, 110.86 10.32 C 111.56 9.67, 111.89 9.34, 112.37 8.78 C 112.85 8.23, 113.04 7.97, 113.25 7.55 C 113.46 7.13, 113.50 6.93, 113.42 6.69 C 113.34 6.45, 113.18 6.32, 112.86 6.34 C 112.55 6.36, 112.32 6.43, 111.84 6.79 C 111.36 7.15, 111.08 7.41, 110.46 8.12 C 109.83 8.83, 109.47 9.29, 108.71 10.32 C 107.95 11.35, 107.50 12.00, 106.66 13.28 C 105.81 14.56, 105.35 15.31, 104.48 16.73 C 103.62 18.14, 103.17 18.93, 102.33 20.37 C 101.49 21.81, 101.06 22.59, 100.30 23.92 C 99.54 25.25, 99.16 25.91, 98.53 27.01 C 97.91 28.12, 97.62 28.68, 97.17 29.46 C 96.71 30.25, 96.50 30.55, 96.24 30.94 C 95.98 31.32, 95.93 31.38, 95.87 31.39 C 95.80 31.40, 95.85 31.30, 95.91 30.98 C 95.97 30.67, 96.05 30.37, 96.16 29.83 C 96.27 29.30, 96.33 28.92, 96.48 28.30 C 96.62 27.68, 96.70 27.33, 96.90 26.73 C 97.11 26.12, 97.23 25.81, 97.50 25.28 C 97.77 24.75, 97.90 24.49, 98.25 24.07 C 98.60 23.65, 98.79 23.48, 99.26 23.17 C 99.73 22.87, 99.99 22.77, 100.61 22.56 C 101.22 22.35, 101.57 22.29, 102.32 22.14 C 103.07 21.99, 103.56 21.94, 104.35 21.81 C 105.13 21.68, 105.60 21.63, 106.24 21.49 C 106.88 21.35, 107.29 21.25, 107.54 21.12 C 107.79 21.00, 107.78 20.92, 107.51 20.87 C 107.23 20.82, 106.82 20.84, 106.16 20.87 C 105.51 20.90, 105.03 20.92, 104.23 21.03 C 103.43 21.14, 102.93 21.23, 102.16 21.40 C 101.39 21.58, 101.03 21.67, 100.37 21.91 C 99.72 22.16, 99.43 22.29, 98.91 22.64 C 98.38 22.99, 98.16 23.19, 97.76 23.66 C 97.36 24.12, 97.21 24.40, 96.90 24.96 C 96.59 25.53, 96.46 25.85, 96.21 26.47 C 95.96 27.10, 95.84 27.44, 95.66 28.09 C 95.48 28.74, 95.37 29.12, 95.32 29.71 C 95.27 30.30, 95.30 30.64, 95.41 31.02 C 95.51 31.39, 95.61 31.54, 95.85 31.58 C 96.08 31.62, 96.22 31.58, 96.58 31.22 C 96.95 30.86, 97.18 30.56, 97.68 29.78 C 98.19 29.01, 98.47 28.45, 99.11 27.35 C 99.75 26.24, 100.13 25.59, 100.90 24.27 C 101.67 22.95, 102.11 22.17, 102.96 20.74 C 103.80 19.31, 104.26 18.53, 105.13 17.12 C 106.00 15.72, 106.47 14.99, 107.32 13.72 C 108.17 12.46, 108.61 11.82, 109.37 10.81 C 110.12 9.79, 110.49 9.35, 111.08 8.66 C 111.67 7.96, 111.93 7.72, 112.31 7.33 C 112.68 6.94, 112.80 6.84, 112.97 6.72 C 113.14 6.60, 113.19 6.61, 113.15 6.72 C 113.12 6.84, 113.06 6.96, 112.81 7.28 C 112.56 7.61, 112.39 7.85, 111.91 8.36 C 111.42 8.86, 111.10 9.19, 110.39 9.81 C 109.69 10.43, 109.24 10.80, 108.39 11.46 C 107.55 12.13, 107.07 12.51, 106.17 13.14 C 105.27 13.77, 104.78 14.08, 103.89 14.61 C 103.01 15.14, 102.54 15.39, 101.74 15.79 C 100.94 16.20, 100.54 16.38, 99.89 16.63 C 99.24 16.88, 98.95 16.93, 98.51 17.04 C 98.06 17.16, 97.90 17.15, 97.66 17.22 C 97.43 17.29, 97.40 17.31, 97.31 17.40 C 97.23 17.49, 97.25 17.59, 97.25 17.67 C 97.26 17.76, 97.33 17.73, 97.35 17.83 C 97.37 17.93, 97.43 17.96, 97.36 18.15 C 97.30 18.34, 97.25 18.48, 97.02 18.80 C 96.78 19.13, 96.61 19.36, 96.19 19.78 C 95.77 20.19, 95.51 20.45, 94.93 20.89 C 94.34 21.34, 93.96 21.59, 93.29 21.99 C 92.62 22.38, 92.22 22.59, 91.57 22.87 C 90.92 23.14, 90.59 23.24, 90.05 23.36 C 89.52 23.47, 89.24 23.50, 88.90 23.46 C 88.55 23.41, 88.42 23.36, 88.31 23.14 C 88.21 22.91, 88.22 22.73, 88.36 22.34 C 88.49 21.95, 88.62 21.67, 88.98 21.18 C 89.33 20.68, 89.62 20.37, 90.13 19.86 C 90.65 19.36, 90.99 19.07, 91.56 18.66 C 92.13 18.24, 92.46 18.06, 92.98 17.79 C 93.50 17.52, 93.78 17.42, 94.17 17.30 C 94.56 17.19, 94.71 17.19, 94.94 17.21 C 95.17 17.23, 95.24 17.29, 95.33 17.41 C 95.43 17.54, 95.43 17.64, 95.42 17.83 C 95.42 18.02, 95.38 18.14, 95.31 18.37 C 95.24 18.60, 95.15 18.75, 95.07 18.98 C 94.99 19.21, 94.95 19.33, 94.90 19.51 C 94.85 19.70, 94.79 19.78, 94.81 19.89 C 94.84 20.00, 94.91 20.08, 95.04 20.08"/>
<path d="M 126.79,16.61 C 126.68 16.66, 126.61 16.71, 126.43 16.96 C 126.25 17.21, 126.13 17.40, 125.90 17.86 C 125.67 18.31, 125.53 18.65, 125.27 19.23 C 125.00 19.82, 124.86 20.18, 124.59 20.79 C 124.33 21.40, 124.17 21.74, 123.95 22.28 C 123.74 22.82, 123.63 23.08, 123.51 23.47 C 123.40 23.87, 123.40 24.01, 123.37 24.25 C 123.35 24.49, 123.38 24.56, 123.41 24.66 C 123.44 24.77, 123.49 24.77, 123.54 24.79 C 123.58 24.81, 123.60 24.78, 123.62 24.76 C 123.65 24.74, 123.63 24.76, 123.67 24.68 C 123.71 24.60, 123.75 24.55, 123.83 24.35 C 123.91 24.15, 123.92 24.03, 124.08 23.68 C 124.23 23.32, 124.36 23.08, 124.61 22.57 C 124.86 22.06, 125.03 21.72, 125.32 21.13 C 125.61 20.53, 125.79 20.18, 126.06 19.59 C 126.33 19.01, 126.49 18.67, 126.67 18.20 C 126.85 17.72, 126.89 17.50, 126.96 17.21 C 127.03 16.91, 127.05 16.84, 127.01 16.72 C 126.98 16.60, 126.91 16.57, 126.79 16.61"/>
<path d="M 129.41,11.00 C 129.49 11.06, 129.53 11.08, 129.54 11.06 C 129.55 11.03, 129.51 10.97, 129.47 10.89 C 129.43 10.81, 129.40 10.72, 129.33 10.65 C 129.26 10.58, 129.18 10.53, 129.14 10.55 C 129.10 10.56, 129.09 10.64, 129.14 10.73 C 129.20 10.82, 129.33 10.94, 129.41 11.00"/>
<path d="M 130.84,18.09 C 130.93 18.16, 131.05 18.19, 131.24 18.19 C 131.42 18.18, 131.55 18.13, 131.78 18.07 C 132.01 18.01, 132.16 17.98, 132.39 17.90 C 132.62 17.81, 132.76 17.74, 132.92 17.66 C 133.08 17.57, 133.15 17.47, 133.19 17.46 C 133.24 17.46, 133.23 17.47, 133.16 17.63 C 133.09 17.80, 133.01 17.95, 132.83 18.29 C 132.66 18.63, 132.51 18.87, 132.26 19.34 C 132.02 19.80, 131.86 20.12, 131.60 20.61 C 131.33 21.11, 131.14 21.39, 130.95 21.81 C 130.75 22.23, 130.64 22.45, 130.63 22.73 C 130.62 23.01, 130.68 23.15, 130.88 23.21 C 131.09 23.28, 131.25 23.23, 131.65 23.04 C 132.05 22.84, 132.31 22.64, 132.88 22.24 C 133.46 21.83, 133.83 21.52, 134.52 21.02 C 135.21 20.52, 135.63 20.19, 136.33 19.73 C 137.03 19.26, 137.41 19.03, 138.00 18.71 C 138.60 18.39, 138.89 18.26, 139.30 18.12 C 139.70 17.98, 139.86 17.96, 140.04 18.00 C 140.22 18.05, 140.21 18.13, 140.20 18.35 C 140.18 18.58, 140.08 18.75, 139.95 19.13 C 139.83 19.50, 139.72 19.77, 139.58 20.24 C 139.43 20.70, 139.33 20.99, 139.24 21.45 C 139.15 21.92, 139.08 22.18, 139.12 22.56 C 139.16 22.93, 139.20 23.13, 139.42 23.33 C 139.64 23.53, 139.82 23.60, 140.24 23.56 C 140.66 23.52, 140.94 23.44, 141.51 23.13 C 142.09 22.83, 142.42 22.60, 143.14 22.04 C 143.85 21.48, 144.27 21.10, 145.09 20.33 C 145.91 19.55, 146.37 19.08, 147.23 18.16 C 148.10 17.25, 148.58 16.74, 149.42 15.77 C 150.27 14.80, 150.71 14.26, 151.46 13.30 C 152.22 12.35, 152.58 11.83, 153.19 10.98 C 153.79 10.12, 154.06 9.71, 154.50 9.02 C 154.94 8.33, 155.14 8.03, 155.37 7.54 C 155.60 7.05, 155.67 6.83, 155.65 6.57 C 155.63 6.30, 155.51 6.19, 155.28 6.22 C 155.04 6.24, 154.85 6.33, 154.47 6.70 C 154.09 7.07, 153.84 7.37, 153.38 8.05 C 152.92 8.72, 152.66 9.20, 152.16 10.07 C 151.67 10.94, 151.41 11.47, 150.91 12.42 C 150.42 13.37, 150.16 13.88, 149.70 14.80 C 149.24 15.73, 149.02 16.22, 148.62 17.04 C 148.22 17.87, 148.03 18.26, 147.71 18.93 C 147.39 19.60, 147.23 19.91, 147.02 20.39 C 146.81 20.86, 146.72 21.05, 146.65 21.31 C 146.58 21.57, 146.58 21.64, 146.66 21.70 C 146.74 21.77, 146.84 21.78, 147.06 21.64 C 147.27 21.50, 147.41 21.35, 147.74 21.01 C 148.07 20.67, 148.26 20.40, 148.69 19.94 C 149.13 19.48, 149.38 19.19, 149.92 18.71 C 150.47 18.23, 150.81 17.97, 151.42 17.55 C 152.03 17.13, 152.37 16.93, 152.96 16.59 C 153.55 16.25, 153.86 16.10, 154.36 15.87 C 154.86 15.64, 155.11 15.56, 155.46 15.44 C 155.82 15.33, 155.95 15.31, 156.14 15.30 C 156.33 15.28, 156.36 15.30, 156.41 15.35 C 156.45 15.41, 156.43 15.45, 156.36 15.58 C 156.28 15.70, 156.22 15.77, 156.03 15.97 C 155.84 16.16, 155.71 16.30, 155.41 16.56 C 155.10 16.81, 154.91 16.96, 154.51 17.25 C 154.12 17.53, 153.87 17.70, 153.43 17.99 C 152.99 18.29, 152.75 18.45, 152.31 18.74 C 151.88 19.03, 151.64 19.17, 151.25 19.44 C 150.87 19.72, 150.67 19.83, 150.37 20.10 C 150.07 20.36, 149.94 20.49, 149.76 20.77 C 149.58 21.06, 149.51 21.21, 149.47 21.51 C 149.43 21.82, 149.45 21.99, 149.57 22.30 C 149.68 22.61, 149.79 22.79, 150.04 23.06 C 150.30 23.33, 150.47 23.46, 150.86 23.66 C 151.24 23.87, 151.48 23.95, 151.95 24.07 C 152.43 24.19, 152.69 24.23, 153.23 24.28 C 153.76 24.32, 154.04 24.34, 154.63 24.31 C 155.22 24.27, 155.55 24.24, 156.17 24.11 C 156.78 23.99, 157.11 23.90, 157.71 23.69 C 158.32 23.49, 158.66 23.34, 159.20 23.09 C 159.74 22.84, 160.03 22.69, 160.41 22.44 C 160.78 22.20, 160.97 22.01, 161.08 21.85 C 161.19 21.69, 161.15 21.63, 160.96 21.64 C 160.77 21.66, 160.56 21.79, 160.15 21.94 C 159.74 22.09, 159.45 22.20, 158.91 22.42 C 158.38 22.63, 158.06 22.80, 157.48 23.00 C 156.90 23.19, 156.60 23.29, 156.02 23.40 C 155.45 23.52, 155.14 23.55, 154.59 23.58 C 154.05 23.61, 153.79 23.60, 153.30 23.55 C 152.80 23.50, 152.56 23.46, 152.13 23.35 C 151.71 23.24, 151.51 23.17, 151.19 23.02 C 150.87 22.86, 150.75 22.76, 150.54 22.56 C 150.33 22.37, 150.24 22.25, 150.14 22.05 C 150.03 21.85, 149.99 21.76, 150.01 21.57 C 150.03 21.38, 150.07 21.29, 150.22 21.09 C 150.37 20.89, 150.49 20.80, 150.77 20.58 C 151.05 20.36, 151.25 20.26, 151.63 20.01 C 152.02 19.77, 152.26 19.62, 152.70 19.35 C 153.15 19.07, 153.40 18.92, 153.85 18.63 C 154.30 18.34, 154.56 18.18, 154.97 17.89 C 155.39 17.60, 155.61 17.46, 155.94 17.16 C 156.27 16.87, 156.43 16.71, 156.62 16.42 C 156.81 16.13, 156.86 15.96, 156.87 15.70 C 156.89 15.44, 156.83 15.29, 156.69 15.13 C 156.55 14.96, 156.44 14.90, 156.17 14.85 C 155.90 14.80, 155.74 14.80, 155.32 14.88 C 154.91 14.97, 154.64 15.04, 154.10 15.26 C 153.56 15.48, 153.24 15.64, 152.62 15.98 C 152.00 16.31, 151.64 16.51, 151.00 16.93 C 150.36 17.36, 149.99 17.62, 149.41 18.10 C 148.82 18.58, 148.53 18.87, 148.07 19.34 C 147.60 19.81, 147.37 20.06, 147.08 20.46 C 146.80 20.86, 146.72 21.08, 146.64 21.33 C 146.56 21.57, 146.61 21.67, 146.69 21.70 C 146.77 21.74, 146.86 21.72, 147.03 21.51 C 147.21 21.29, 147.30 21.11, 147.55 20.65 C 147.80 20.19, 147.95 19.88, 148.28 19.22 C 148.62 18.56, 148.82 18.16, 149.23 17.35 C 149.64 16.53, 149.87 16.04, 150.34 15.13 C 150.81 14.21, 151.08 13.71, 151.59 12.78 C 152.10 11.86, 152.38 11.34, 152.89 10.49 C 153.40 9.64, 153.69 9.20, 154.12 8.54 C 154.55 7.87, 154.76 7.57, 155.02 7.15 C 155.28 6.73, 155.33 6.58, 155.40 6.46 C 155.47 6.33, 155.45 6.34, 155.35 6.51 C 155.25 6.67, 155.16 6.84, 154.89 7.27 C 154.61 7.70, 154.42 8.01, 153.97 8.68 C 153.53 9.34, 153.26 9.75, 152.64 10.59 C 152.03 11.42, 151.66 11.92, 150.91 12.86 C 150.16 13.80, 149.72 14.33, 148.87 15.28 C 148.02 16.24, 147.54 16.74, 146.68 17.63 C 145.81 18.52, 145.35 18.99, 144.54 19.74 C 143.73 20.50, 143.31 20.85, 142.63 21.40 C 141.95 21.94, 141.63 22.14, 141.13 22.47 C 140.63 22.79, 140.41 22.89, 140.12 23.01 C 139.82 23.13, 139.76 23.15, 139.68 23.06 C 139.60 22.98, 139.65 22.86, 139.71 22.58 C 139.78 22.30, 139.86 22.07, 139.99 21.65 C 140.13 21.23, 140.25 20.95, 140.39 20.48 C 140.52 20.01, 140.62 19.73, 140.68 19.29 C 140.74 18.85, 140.77 18.61, 140.67 18.28 C 140.57 17.95, 140.48 17.79, 140.18 17.65 C 139.87 17.51, 139.65 17.49, 139.16 17.58 C 138.66 17.67, 138.35 17.80, 137.70 18.10 C 137.05 18.39, 136.65 18.62, 135.91 19.06 C 135.17 19.50, 134.72 19.82, 134.01 20.31 C 133.30 20.80, 132.90 21.09, 132.35 21.52 C 131.80 21.96, 131.55 22.19, 131.26 22.48 C 130.96 22.78, 130.91 22.91, 130.87 22.99 C 130.82 23.07, 130.89 23.03, 131.03 22.87 C 131.18 22.71, 131.33 22.55, 131.59 22.18 C 131.85 21.81, 132.03 21.51, 132.32 21.02 C 132.61 20.53, 132.79 20.23, 133.04 19.74 C 133.29 19.26, 133.44 19.01, 133.58 18.60 C 133.72 18.19, 133.77 17.97, 133.73 17.67 C 133.69 17.37, 133.57 17.25, 133.39 17.12 C 133.20 16.98, 133.04 17.00, 132.79 17.00 C 132.54 16.99, 132.42 17.03, 132.16 17.09 C 131.90 17.15, 131.74 17.18, 131.51 17.28 C 131.28 17.37, 131.18 17.47, 131.03 17.58 C 130.89 17.68, 130.82 17.71, 130.78 17.82 C 130.74 17.92, 130.75 18.02, 130.84 18.09"/>
<path d="M 168.84,22.12 C 168.71 22.25, 168.67 22.45, 168.47 22.85 C 168.26 23.26, 168.13 23.52, 167.82 24.16 C 167.51 24.79, 167.33 25.25, 166.91 26.05 C 166.50 26.84, 166.20 27.32, 165.75 28.13 C 165.30 28.94, 165.01 29.42, 164.67 30.08 C 164.33 30.75, 164.14 31.15, 164.06 31.45 C 163.98 31.75, 164.04 31.79, 164.27 31.58 C 164.50 31.37, 164.76 31.01, 165.20 30.40 C 165.64 29.80, 165.96 29.34, 166.46 28.54 C 166.95 27.75, 167.25 27.25, 167.67 26.44 C 168.09 25.63, 168.29 25.16, 168.56 24.48 C 168.83 23.80, 168.92 23.51, 169.03 23.06 C 169.14 22.60, 169.14 22.38, 169.10 22.20 C 169.07 22.01, 168.97 21.99, 168.84 22.12"/>
<path d="M 191.40,7.64 C 191.31 7.70, 191.31 7.76, 191.19 8.00 C 191.06 8.24, 191.00 8.37, 190.79 8.86 C 190.58 9.35, 190.47 9.70, 190.15 10.45 C 189.83 11.20, 189.63 11.67, 189.19 12.62 C 188.75 13.58, 188.45 14.14, 187.94 15.21 C 187.42 16.28, 187.11 16.89, 186.60 17.96 C 186.09 19.02, 185.82 19.60, 185.39 20.54 C 184.96 21.47, 184.76 21.94, 184.47 22.64 C 184.17 23.34, 184.06 23.64, 183.91 24.06 C 183.77 24.47, 183.77 24.55, 183.75 24.70 C 183.73 24.86, 183.79 24.84, 183.82 24.83 C 183.84 24.82, 183.89 24.69, 183.86 24.67 C 183.83 24.64, 183.69 24.65, 183.67 24.69 C 183.65 24.74, 183.70 24.87, 183.77 24.89 C 183.84 24.92, 183.88 24.96, 184.00 24.83 C 184.13 24.70, 184.17 24.64, 184.37 24.26 C 184.58 23.87, 184.71 23.58, 185.04 22.90 C 185.37 22.21, 185.57 21.76, 186.02 20.83 C 186.47 19.91, 186.75 19.34, 187.28 18.29 C 187.80 17.23, 188.11 16.62, 188.64 15.56 C 189.17 14.50, 189.48 13.93, 189.93 12.97 C 190.39 12.02, 190.61 11.54, 190.93 10.77 C 191.25 10.01, 191.37 9.65, 191.52 9.12 C 191.68 8.60, 191.68 8.43, 191.70 8.14 C 191.72 7.85, 191.69 7.78, 191.63 7.68 C 191.57 7.58, 191.49 7.58, 191.40 7.64"/>
<path d="M 182.73,19.06 C 182.77 19.16, 182.83 19.24, 183.04 19.32 C 183.24 19.41, 183.37 19.45, 183.76 19.48 C 184.15 19.51, 184.42 19.54, 184.98 19.48 C 185.54 19.41, 185.86 19.34, 186.56 19.14 C 187.26 18.94, 187.68 18.83, 188.50 18.49 C 189.31 18.15, 189.76 17.92, 190.63 17.44 C 191.50 16.96, 191.95 16.67, 192.85 16.08 C 193.74 15.49, 194.22 15.17, 195.09 14.48 C 195.96 13.80, 196.41 13.40, 197.19 12.66 C 197.96 11.92, 198.34 11.53, 198.97 10.79 C 199.61 10.06, 199.91 9.66, 200.37 8.99 C 200.82 8.33, 201.03 7.99, 201.26 7.47 C 201.48 6.94, 201.52 6.69, 201.48 6.37 C 201.43 6.05, 201.31 5.88, 201.02 5.85 C 200.73 5.82, 200.49 5.89, 200.03 6.23 C 199.58 6.57, 199.29 6.88, 198.74 7.54 C 198.18 8.20, 197.86 8.66, 197.26 9.55 C 196.66 10.45, 196.31 11.01, 195.72 12.02 C 195.13 13.02, 194.81 13.60, 194.30 14.58 C 193.78 15.56, 193.53 16.07, 193.13 16.92 C 192.74 17.77, 192.56 18.17, 192.34 18.83 C 192.12 19.49, 192.05 19.78, 192.03 20.22 C 192.02 20.66, 192.08 20.83, 192.27 21.03 C 192.47 21.23, 192.63 21.26, 192.99 21.22 C 193.36 21.17, 193.60 21.07, 194.09 20.81 C 194.58 20.54, 194.88 20.30, 195.45 19.90 C 196.01 19.49, 196.34 19.20, 196.93 18.78 C 197.51 18.36, 197.85 18.12, 198.36 17.78 C 198.87 17.44, 199.14 17.28, 199.49 17.10 C 199.84 16.92, 199.95 16.88, 200.10 16.89 C 200.26 16.89, 200.25 16.95, 200.26 17.13 C 200.27 17.31, 200.22 17.47, 200.16 17.80 C 200.10 18.13, 200.04 18.36, 199.97 18.78 C 199.90 19.19, 199.85 19.45, 199.82 19.88 C 199.78 20.30, 199.76 20.54, 199.80 20.90 C 199.84 21.26, 199.87 21.43, 200.02 21.68 C 200.18 21.94, 200.28 22.06, 200.56 22.17 C 200.84 22.28, 201.02 22.30, 201.41 22.23 C 201.81 22.15, 202.05 22.04, 202.53 21.79 C 203.00 21.55, 203.28 21.37, 203.81 21.00 C 204.33 20.62, 204.61 20.37, 205.15 19.93 C 205.69 19.49, 206.00 19.23, 206.50 18.79 C 207.01 18.36, 207.30 18.10, 207.67 17.77 C 208.05 17.44, 208.20 17.28, 208.37 17.16 C 208.55 17.04, 208.56 17.04, 208.54 17.15 C 208.51 17.27, 208.42 17.42, 208.26 17.74 C 208.10 18.06, 207.92 18.32, 207.72 18.77 C 207.52 19.22, 207.38 19.53, 207.25 19.99 C 207.12 20.45, 207.06 20.71, 207.06 21.08 C 207.06 21.46, 207.08 21.62, 207.26 21.85 C 207.44 22.07, 207.60 22.17, 207.94 22.21 C 208.29 22.24, 208.52 22.19, 208.98 22.02 C 209.44 21.85, 209.69 21.68, 210.24 21.35 C 210.78 21.03, 211.09 20.82, 211.71 20.40 C 212.33 19.97, 212.70 19.67, 213.34 19.21 C 213.98 18.74, 214.32 18.49, 214.92 18.07 C 215.51 17.66, 215.81 17.45, 216.30 17.14 C 216.78 16.83, 217.02 16.70, 217.35 16.53 C 217.68 16.36, 217.81 16.30, 217.95 16.28 C 218.08 16.25, 218.06 16.25, 218.01 16.41 C 217.95 16.57, 217.84 16.73, 217.66 17.07 C 217.47 17.41, 217.32 17.67, 217.08 18.11 C 216.83 18.56, 216.65 18.85, 216.43 19.28 C 216.22 19.72, 216.09 19.95, 216.01 20.30 C 215.92 20.65, 215.91 20.81, 216.02 21.01 C 216.13 21.21, 216.24 21.29, 216.54 21.29 C 216.85 21.29, 217.06 21.21, 217.53 21.01 C 218.00 20.81, 218.30 20.63, 218.89 20.29 C 219.48 19.95, 219.87 19.69, 220.49 19.31 C 221.11 18.94, 221.49 18.69, 222.01 18.39 C 222.53 18.10, 222.77 17.97, 223.08 17.84 C 223.39 17.71, 223.48 17.69, 223.56 17.73 C 223.63 17.78, 223.53 17.87, 223.44 18.07 C 223.34 18.28, 223.19 18.44, 223.09 18.75 C 222.98 19.06, 222.90 19.29, 222.91 19.61 C 222.91 19.93, 222.95 20.12, 223.11 20.35 C 223.28 20.58, 223.40 20.69, 223.73 20.76 C 224.05 20.83, 224.26 20.84, 224.73 20.70 C 225.21 20.55, 225.50 20.41, 226.11 20.04 C 226.71 19.67, 227.06 19.42, 227.76 18.87 C 228.45 18.32, 228.84 17.99, 229.59 17.29 C 230.34 16.60, 230.77 16.19, 231.51 15.40 C 232.25 14.62, 232.64 14.18, 233.31 13.37 C 233.98 12.55, 234.29 12.11, 234.85 11.34 C 235.40 10.57, 235.69 10.18, 236.09 9.51 C 236.48 8.84, 236.68 8.47, 236.84 7.97 C 237.00 7.47, 236.99 7.22, 236.88 7.00 C 236.78 6.79, 236.62 6.76, 236.32 6.89 C 236.03 7.03, 235.82 7.19, 235.41 7.67 C 234.99 8.15, 234.72 8.54, 234.23 9.28 C 233.75 10.03, 233.48 10.52, 232.98 11.38 C 232.49 12.24, 232.22 12.73, 231.77 13.60 C 231.32 14.46, 231.09 14.92, 230.72 15.70 C 230.36 16.49, 230.19 16.90, 229.95 17.53 C 229.71 18.17, 229.60 18.44, 229.52 18.86 C 229.44 19.29, 229.44 19.47, 229.54 19.67 C 229.64 19.88, 229.77 19.92, 230.03 19.89 C 230.29 19.85, 230.46 19.77, 230.83 19.50 C 231.20 19.23, 231.41 19.00, 231.87 18.56 C 232.32 18.12, 232.59 17.80, 233.11 17.29 C 233.64 16.78, 233.96 16.48, 234.48 16.01 C 235.01 15.55, 235.29 15.31, 235.74 14.96 C 236.19 14.61, 236.42 14.48, 236.75 14.26 C 237.08 14.05, 237.25 13.97, 237.37 13.88 C 237.49 13.80, 237.46 13.77, 237.36 13.85 C 237.25 13.93, 237.11 14.03, 236.84 14.29 C 236.57 14.56, 236.39 14.76, 236.01 15.16 C 235.64 15.56, 235.37 15.82, 234.96 16.29 C 234.54 16.76, 234.28 17.04, 233.93 17.51 C 233.59 17.97, 233.40 18.22, 233.22 18.63 C 233.04 19.05, 232.99 19.25, 233.03 19.58 C 233.07 19.91, 233.16 20.08, 233.42 20.28 C 233.68 20.48, 233.88 20.56, 234.33 20.60 C 234.77 20.63, 235.05 20.60, 235.63 20.46 C 236.21 20.31, 236.54 20.16, 237.22 19.87 C 237.91 19.58, 238.31 19.40, 239.05 19.01 C 239.78 18.62, 240.20 18.37, 240.91 17.93 C 241.62 17.50, 242.03 17.22, 242.59 16.84 C 243.15 16.46, 243.41 16.25, 243.71 16.05 C 244.02 15.85, 244.09 15.80, 244.11 15.83 C 244.13 15.85, 244.01 15.93, 243.83 16.17 C 243.64 16.42, 243.40 16.66, 243.17 17.06 C 242.94 17.45, 242.79 17.76, 242.67 18.17 C 242.56 18.58, 242.53 18.83, 242.60 19.11 C 242.68 19.39, 242.77 19.49, 243.04 19.56 C 243.30 19.64, 243.50 19.63, 243.93 19.49 C 244.36 19.34, 244.63 19.18, 245.19 18.83 C 245.74 18.48, 246.07 18.20, 246.70 17.74 C 247.34 17.29, 247.72 17.01, 248.37 16.58 C 249.03 16.14, 249.42 15.90, 249.98 15.58 C 250.53 15.26, 250.78 15.11, 251.13 14.99 C 251.47 14.86, 251.59 14.87, 251.69 14.95 C 251.80 15.04, 251.76 15.15, 251.65 15.42 C 251.54 15.70, 251.37 15.92, 251.16 16.33 C 250.95 16.73, 250.78 17.02, 250.61 17.45 C 250.44 17.88, 250.34 18.13, 250.31 18.46 C 250.28 18.79, 250.28 18.97, 250.46 19.12 C 250.64 19.26, 250.80 19.29, 251.23 19.18 C 251.65 19.07, 251.97 18.91, 252.59 18.58 C 253.20 18.25, 253.59 17.96, 254.29 17.53 C 254.99 17.09, 255.44 16.79, 256.08 16.40 C 256.72 16.01, 257.06 15.81, 257.50 15.57 C 257.94 15.34, 258.08 15.26, 258.26 15.22 C 258.45 15.18, 258.46 15.24, 258.43 15.39 C 258.40 15.54, 258.26 15.68, 258.12 15.97 C 257.98 16.27, 257.84 16.49, 257.73 16.86 C 257.62 17.23, 257.55 17.47, 257.56 17.84 C 257.56 18.20, 257.58 18.41, 257.76 18.68 C 257.94 18.95, 258.08 19.09, 258.45 19.19 C 258.83 19.28, 259.09 19.28, 259.65 19.17 C 260.20 19.06, 260.54 18.94, 261.23 18.64 C 261.91 18.35, 262.32 18.14, 263.09 17.72 C 263.86 17.30, 264.32 17.01, 265.08 16.55 C 265.84 16.09, 266.26 15.83, 266.90 15.41 C 267.54 14.98, 267.91 14.76, 268.28 14.43 C 268.65 14.10, 268.77 13.93, 268.76 13.76 C 268.75 13.59, 268.59 13.55, 268.24 13.60 C 267.90 13.65, 267.59 13.75, 267.03 14.01 C 266.47 14.28, 266.07 14.52, 265.45 14.93 C 264.83 15.35, 264.47 15.64, 263.94 16.08 C 263.42 16.51, 263.15 16.73, 262.83 17.09 C 262.52 17.45, 262.40 17.61, 262.36 17.86 C 262.32 18.12, 262.39 18.26, 262.62 18.36 C 262.84 18.47, 263.05 18.48, 263.48 18.39 C 263.92 18.29, 264.23 18.16, 264.80 17.90 C 265.38 17.64, 265.74 17.43, 266.36 17.09 C 266.98 16.74, 267.35 16.51, 267.92 16.16 C 268.49 15.82, 268.80 15.61, 269.23 15.38 C 269.65 15.14, 269.83 15.04, 270.05 15.00 C 270.26 14.95, 270.29 14.97, 270.30 15.17 C 270.32 15.36, 270.26 15.51, 270.13 15.95 C 270.00 16.39, 269.91 16.71, 269.67 17.37 C 269.43 18.03, 269.29 18.44, 268.94 19.25 C 268.59 20.06, 268.39 20.51, 267.92 21.42 C 267.45 22.33, 267.17 22.83, 266.59 23.78 C 266.01 24.73, 265.67 25.24, 265.00 26.17 C 264.33 27.09, 263.95 27.57, 263.25 28.41 C 262.54 29.24, 262.16 29.66, 261.47 30.33 C 260.79 31.01, 260.44 31.33, 259.83 31.79 C 259.22 32.26, 258.91 32.43, 258.43 32.66 C 257.95 32.89, 257.75 32.94, 257.44 32.93 C 257.13 32.91, 257.02 32.82, 256.88 32.58 C 256.73 32.34, 256.69 32.15, 256.72 31.73 C 256.74 31.31, 256.78 31.04, 256.99 30.49 C 257.20 29.95, 257.34 29.62, 257.76 29.00 C 258.19 28.39, 258.46 28.05, 259.11 27.40 C 259.76 26.76, 260.17 26.43, 261.02 25.79 C 261.86 25.16, 262.34 24.83, 263.32 24.24 C 264.30 23.64, 264.85 23.34, 265.92 22.81 C 266.99 22.29, 267.58 22.03, 268.67 21.59 C 269.77 21.15, 270.33 20.96, 271.37 20.62 C 272.41 20.28, 272.94 20.14, 273.88 19.89 C 274.81 19.63, 275.28 19.54, 276.05 19.35 C 276.82 19.17, 277.20 19.12, 277.74 18.98 C 278.28 18.84, 278.56 18.76, 278.75 18.66 C 278.95 18.55, 278.93 18.48, 278.71 18.45 C 278.49 18.41, 278.21 18.43, 277.65 18.49 C 277.09 18.54, 276.71 18.57, 275.92 18.72 C 275.13 18.87, 274.66 18.99, 273.71 19.24 C 272.76 19.49, 272.22 19.63, 271.16 19.97 C 270.10 20.30, 269.52 20.50, 268.41 20.94 C 267.30 21.38, 266.69 21.63, 265.60 22.16 C 264.50 22.70, 263.94 23.01, 262.94 23.61 C 261.93 24.22, 261.44 24.54, 260.57 25.19 C 259.70 25.85, 259.26 26.19, 258.58 26.87 C 257.89 27.55, 257.60 27.90, 257.14 28.58 C 256.68 29.25, 256.50 29.61, 256.28 30.24 C 256.07 30.87, 256.02 31.22, 256.06 31.74 C 256.10 32.27, 256.22 32.54, 256.48 32.87 C 256.75 33.20, 256.96 33.32, 257.39 33.38 C 257.83 33.44, 258.09 33.39, 258.65 33.18 C 259.22 32.96, 259.55 32.77, 260.21 32.30 C 260.86 31.83, 261.23 31.50, 261.94 30.82 C 262.66 30.13, 263.05 29.71, 263.78 28.87 C 264.51 28.02, 264.90 27.54, 265.59 26.60 C 266.28 25.66, 266.62 25.13, 267.22 24.17 C 267.82 23.20, 268.10 22.69, 268.59 21.77 C 269.08 20.85, 269.29 20.40, 269.67 19.57 C 270.04 18.74, 270.22 18.34, 270.45 17.64 C 270.68 16.94, 270.76 16.59, 270.81 16.07 C 270.86 15.55, 270.83 15.33, 270.68 15.03 C 270.53 14.74, 270.40 14.63, 270.05 14.58 C 269.71 14.53, 269.46 14.60, 268.96 14.78 C 268.46 14.96, 268.15 15.18, 267.55 15.49 C 266.95 15.80, 266.59 16.02, 265.96 16.34 C 265.34 16.66, 264.96 16.82, 264.42 17.09 C 263.87 17.37, 263.59 17.51, 263.24 17.70 C 262.89 17.90, 262.78 17.99, 262.66 18.05 C 262.54 18.11, 262.54 18.10, 262.65 18.00 C 262.77 17.90, 262.90 17.81, 263.25 17.55 C 263.61 17.29, 263.88 17.08, 264.42 16.71 C 264.96 16.34, 265.35 16.10, 265.96 15.71 C 266.57 15.32, 266.96 15.10, 267.46 14.76 C 267.95 14.43, 268.20 14.24, 268.44 14.03 C 268.68 13.82, 268.75 13.71, 268.66 13.70 C 268.56 13.68, 268.39 13.74, 267.96 13.96 C 267.53 14.18, 267.17 14.40, 266.51 14.78 C 265.86 15.17, 265.44 15.44, 264.68 15.88 C 263.92 16.32, 263.46 16.60, 262.70 17.00 C 261.95 17.40, 261.55 17.61, 260.90 17.89 C 260.25 18.18, 259.94 18.30, 259.47 18.44 C 258.99 18.59, 258.80 18.63, 258.54 18.63 C 258.28 18.63, 258.23 18.59, 258.17 18.44 C 258.11 18.30, 258.17 18.17, 258.24 17.91 C 258.31 17.65, 258.43 17.46, 258.54 17.12 C 258.66 16.77, 258.77 16.54, 258.82 16.18 C 258.87 15.82, 258.91 15.58, 258.80 15.32 C 258.69 15.06, 258.59 14.93, 258.28 14.86 C 257.97 14.80, 257.78 14.84, 257.26 15.01 C 256.74 15.17, 256.38 15.36, 255.69 15.71 C 255.01 16.06, 254.54 16.34, 253.82 16.76 C 253.11 17.18, 252.70 17.45, 252.13 17.82 C 251.56 18.19, 251.28 18.39, 250.97 18.61 C 250.66 18.83, 250.61 18.92, 250.58 18.93 C 250.56 18.94, 250.69 18.87, 250.85 18.65 C 251.01 18.43, 251.18 18.22, 251.40 17.82 C 251.62 17.42, 251.78 17.12, 251.94 16.66 C 252.10 16.20, 252.22 15.90, 252.21 15.51 C 252.20 15.11, 252.15 14.90, 251.91 14.70 C 251.67 14.49, 251.47 14.43, 251.02 14.48 C 250.56 14.53, 250.26 14.66, 249.65 14.95 C 249.04 15.23, 248.63 15.48, 247.94 15.90 C 247.26 16.33, 246.87 16.61, 246.22 17.05 C 245.58 17.49, 245.23 17.75, 244.71 18.11 C 244.19 18.47, 243.96 18.64, 243.63 18.85 C 243.29 19.07, 243.18 19.14, 243.06 19.20 C 242.94 19.25, 242.95 19.26, 243.03 19.12 C 243.11 18.98, 243.27 18.82, 243.47 18.49 C 243.66 18.16, 243.82 17.89, 244.00 17.47 C 244.18 17.05, 244.31 16.75, 244.36 16.39 C 244.42 16.03, 244.42 15.84, 244.25 15.68 C 244.08 15.52, 243.92 15.48, 243.51 15.59 C 243.10 15.70, 242.81 15.89, 242.21 16.23 C 241.61 16.56, 241.22 16.85, 240.51 17.27 C 239.81 17.69, 239.40 17.94, 238.68 18.31 C 237.96 18.68, 237.56 18.86, 236.91 19.14 C 236.26 19.41, 235.94 19.54, 235.42 19.70 C 234.91 19.86, 234.67 19.89, 234.32 19.93 C 233.97 19.97, 233.84 19.96, 233.67 19.89 C 233.50 19.82, 233.46 19.76, 233.47 19.56 C 233.49 19.37, 233.55 19.24, 233.76 18.92 C 233.97 18.60, 234.15 18.39, 234.52 17.98 C 234.88 17.57, 235.14 17.31, 235.57 16.87 C 236.00 16.42, 236.31 16.19, 236.68 15.77 C 237.05 15.34, 237.23 15.10, 237.43 14.73 C 237.63 14.37, 237.70 14.17, 237.68 13.93 C 237.65 13.70, 237.57 13.59, 237.33 13.55 C 237.09 13.51, 236.87 13.56, 236.47 13.73 C 236.07 13.91, 235.84 14.07, 235.34 14.41 C 234.85 14.75, 234.55 14.98, 233.99 15.43 C 233.43 15.89, 233.09 16.18, 232.54 16.68 C 231.99 17.18, 231.69 17.48, 231.24 17.93 C 230.80 18.38, 230.60 18.63, 230.32 18.95 C 230.05 19.27, 229.98 19.41, 229.87 19.55 C 229.77 19.68, 229.77 19.72, 229.80 19.61 C 229.84 19.50, 229.89 19.38, 230.03 19.01 C 230.18 18.64, 230.28 18.38, 230.54 17.78 C 230.80 17.18, 230.97 16.77, 231.35 16.00 C 231.73 15.24, 231.95 14.79, 232.42 13.95 C 232.89 13.11, 233.17 12.63, 233.69 11.79 C 234.20 10.96, 234.52 10.51, 234.99 9.77 C 235.46 9.04, 235.72 8.65, 236.04 8.14 C 236.36 7.62, 236.45 7.42, 236.58 7.20 C 236.70 6.98, 236.71 6.93, 236.66 7.04 C 236.60 7.15, 236.54 7.33, 236.32 7.75 C 236.09 8.18, 235.93 8.53, 235.52 9.16 C 235.12 9.80, 234.85 10.18, 234.29 10.93 C 233.74 11.68, 233.42 12.12, 232.76 12.91 C 232.09 13.70, 231.71 14.12, 230.97 14.88 C 230.23 15.65, 229.80 16.05, 229.06 16.72 C 228.32 17.39, 227.94 17.71, 227.26 18.24 C 226.59 18.76, 226.24 18.99, 225.68 19.35 C 225.12 19.70, 224.86 19.84, 224.48 20.01 C 224.09 20.19, 223.96 20.21, 223.77 20.24 C 223.58 20.26, 223.54 20.23, 223.52 20.12 C 223.49 20.02, 223.57 19.93, 223.65 19.70 C 223.72 19.47, 223.82 19.28, 223.89 18.97 C 223.95 18.66, 224.00 18.44, 223.97 18.14 C 223.94 17.85, 223.94 17.66, 223.74 17.50 C 223.53 17.33, 223.36 17.28, 222.95 17.33 C 222.54 17.38, 222.26 17.48, 221.68 17.73 C 221.10 17.98, 220.71 18.22, 220.06 18.58 C 219.42 18.94, 219.02 19.17, 218.44 19.52 C 217.86 19.86, 217.56 20.04, 217.15 20.30 C 216.75 20.57, 216.60 20.71, 216.43 20.83 C 216.25 20.96, 216.25 20.99, 216.28 20.93 C 216.30 20.87, 216.39 20.79, 216.56 20.54 C 216.74 20.29, 216.88 20.09, 217.14 19.69 C 217.41 19.29, 217.63 19.01, 217.88 18.55 C 218.12 18.08, 218.27 17.78, 218.38 17.35 C 218.49 16.92, 218.51 16.68, 218.43 16.39 C 218.35 16.11, 218.25 16.01, 217.99 15.94 C 217.73 15.86, 217.54 15.88, 217.13 16.00 C 216.73 16.13, 216.49 16.28, 215.96 16.57 C 215.44 16.87, 215.13 17.07, 214.51 17.48 C 213.90 17.88, 213.54 18.12, 212.89 18.58 C 212.24 19.03, 211.87 19.32, 211.26 19.73 C 210.64 20.15, 210.33 20.35, 209.82 20.67 C 209.30 20.98, 209.06 21.13, 208.68 21.33 C 208.30 21.53, 208.14 21.61, 207.92 21.67 C 207.70 21.73, 207.63 21.72, 207.58 21.62 C 207.52 21.52, 207.56 21.43, 207.65 21.16 C 207.73 20.89, 207.83 20.68, 208.02 20.27 C 208.20 19.86, 208.38 19.59, 208.56 19.13 C 208.75 18.66, 208.89 18.36, 208.94 17.94 C 209.00 17.53, 208.98 17.29, 208.84 17.05 C 208.70 16.82, 208.57 16.75, 208.25 16.78 C 207.94 16.81, 207.71 16.94, 207.27 17.22 C 206.82 17.51, 206.53 17.79, 206.01 18.21 C 205.49 18.63, 205.20 18.90, 204.66 19.33 C 204.13 19.75, 203.85 19.99, 203.34 20.34 C 202.84 20.69, 202.56 20.84, 202.14 21.09 C 201.72 21.34, 201.51 21.45, 201.23 21.58 C 200.94 21.70, 200.85 21.73, 200.70 21.71 C 200.55 21.69, 200.53 21.63, 200.48 21.46 C 200.43 21.30, 200.43 21.18, 200.46 20.88 C 200.48 20.58, 200.52 20.37, 200.59 19.97 C 200.66 19.58, 200.74 19.34, 200.80 18.91 C 200.87 18.48, 200.92 18.22, 200.90 17.83 C 200.88 17.45, 200.83 17.24, 200.69 16.98 C 200.54 16.72, 200.46 16.61, 200.18 16.53 C 199.90 16.44, 199.72 16.43, 199.28 16.56 C 198.84 16.68, 198.55 16.84, 197.98 17.15 C 197.42 17.47, 197.07 17.71, 196.46 18.12 C 195.86 18.53, 195.50 18.79, 194.94 19.19 C 194.38 19.59, 194.09 19.82, 193.67 20.13 C 193.25 20.44, 193.08 20.59, 192.84 20.73 C 192.61 20.87, 192.56 20.92, 192.49 20.83 C 192.42 20.74, 192.42 20.64, 192.51 20.28 C 192.59 19.92, 192.66 19.66, 192.91 19.04 C 193.15 18.43, 193.34 18.03, 193.74 17.21 C 194.15 16.39, 194.41 15.89, 194.94 14.93 C 195.47 13.97, 195.79 13.40, 196.39 12.42 C 197.00 11.44, 197.35 10.89, 197.95 10.02 C 198.55 9.15, 198.89 8.73, 199.40 8.08 C 199.91 7.42, 200.17 7.13, 200.50 6.74 C 200.83 6.36, 200.93 6.23, 201.05 6.15 C 201.18 6.07, 201.18 6.15, 201.11 6.36 C 201.05 6.57, 200.99 6.76, 200.73 7.21 C 200.47 7.66, 200.28 7.99, 199.83 8.61 C 199.37 9.24, 199.08 9.64, 198.46 10.34 C 197.83 11.05, 197.46 11.43, 196.70 12.15 C 195.94 12.86, 195.50 13.25, 194.64 13.91 C 193.79 14.58, 193.32 14.90, 192.44 15.47 C 191.57 16.04, 191.12 16.32, 190.27 16.78 C 189.43 17.25, 188.99 17.46, 188.20 17.77 C 187.42 18.09, 187.01 18.20, 186.35 18.38 C 185.69 18.56, 185.40 18.61, 184.88 18.67 C 184.37 18.73, 184.12 18.67, 183.77 18.69 C 183.41 18.71, 183.30 18.75, 183.11 18.78 C 182.92 18.81, 182.89 18.77, 182.81 18.83 C 182.73 18.88, 182.68 18.96, 182.73 19.06"/>
<path d="M 297.02,14.38 C 297.08 14.30, 297.07 14.23, 297.05 14.10 C 297.02 13.96, 297.00 13.87, 296.89 13.72 C 296.77 13.57, 296.68 13.46, 296.48 13.34 C 296.28 13.21, 296.16 13.16, 295.89 13.08 C 295.62 13.00, 295.49 12.96, 295.13 12.96 C 294.77 12.96, 294.53 12.95, 294.07 13.09 C 293.62 13.22, 293.35 13.35, 292.85 13.64 C 292.35 13.92, 292.07 14.12, 291.58 14.53 C 291.08 14.94, 290.79 15.20, 290.38 15.67 C 289.97 16.14, 289.77 16.41, 289.53 16.87 C 289.30 17.33, 289.22 17.58, 289.21 17.96 C 289.19 18.35, 289.24 18.55, 289.46 18.79 C 289.68 19.02, 289.88 19.10, 290.30 19.16 C 290.71 19.21, 290.98 19.19, 291.52 19.06 C 292.06 18.92, 292.37 18.80, 293.01 18.50 C 293.64 18.20, 294.02 17.97, 294.70 17.55 C 295.38 17.13, 295.77 16.86, 296.40 16.41 C 297.04 15.96, 297.37 15.71, 297.86 15.32 C 298.36 14.92, 298.62 14.69, 298.88 14.42 C 299.14 14.15, 299.20 14.03, 299.17 13.98 C 299.14 13.93, 298.97 13.98, 298.73 14.17 C 298.49 14.37, 298.27 14.56, 297.96 14.95 C 297.64 15.35, 297.42 15.65, 297.15 16.14 C 296.88 16.63, 296.72 16.94, 296.60 17.41 C 296.49 17.87, 296.47 18.12, 296.57 18.47 C 296.67 18.82, 296.78 18.98, 297.10 19.16 C 297.41 19.33, 297.65 19.38, 298.16 19.36 C 298.66 19.34, 298.97 19.27, 299.64 19.06 C 300.30 18.84, 300.69 18.66, 301.49 18.30 C 302.28 17.93, 302.76 17.69, 303.61 17.23 C 304.46 16.76, 304.92 16.45, 305.74 15.97 C 306.55 15.48, 307.02 15.21, 307.69 14.81 C 308.35 14.40, 308.67 14.21, 309.07 13.96 C 309.47 13.70, 309.59 13.61, 309.69 13.55 C 309.80 13.48, 309.75 13.49, 309.61 13.61 C 309.47 13.73, 309.26 13.86, 308.98 14.15 C 308.70 14.44, 308.51 14.67, 308.20 15.06 C 307.90 15.46, 307.73 15.72, 307.45 16.14 C 307.16 16.56, 306.99 16.79, 306.76 17.17 C 306.52 17.54, 306.42 17.71, 306.26 18.03 C 306.10 18.35, 306.02 18.49, 305.95 18.76 C 305.88 19.03, 305.87 19.17, 305.91 19.39 C 305.94 19.61, 306.00 19.70, 306.13 19.86 C 306.26 20.02, 306.34 20.09, 306.55 20.18 C 306.76 20.28, 306.90 20.31, 307.16 20.34 C 307.43 20.38, 307.56 20.35, 307.87 20.34 C 308.17 20.33, 308.37 20.32, 308.69 20.29 C 309.01 20.25, 309.21 20.23, 309.48 20.18 C 309.75 20.13, 309.86 20.08, 310.03 20.02 C 310.20 19.95, 310.28 19.93, 310.34 19.86 C 310.40 19.79, 310.40 19.73, 310.33 19.67 C 310.26 19.60, 310.19 19.58, 310.01 19.53 C 309.83 19.49, 309.70 19.45, 309.42 19.44 C 309.14 19.42, 308.93 19.45, 308.61 19.48 C 308.29 19.50, 308.10 19.54, 307.82 19.56 C 307.54 19.59, 307.43 19.60, 307.21 19.60 C 307.00 19.60, 306.89 19.58, 306.75 19.57 C 306.60 19.55, 306.54 19.57, 306.47 19.53 C 306.40 19.48, 306.39 19.46, 306.40 19.34 C 306.40 19.22, 306.41 19.13, 306.49 18.93 C 306.57 18.73, 306.63 18.60, 306.80 18.33 C 306.96 18.05, 307.07 17.90, 307.33 17.55 C 307.58 17.21, 307.75 17.00, 308.07 16.61 C 308.39 16.22, 308.59 16.01, 308.90 15.61 C 309.22 15.21, 309.41 14.99, 309.62 14.62 C 309.83 14.25, 309.94 14.02, 309.95 13.75 C 309.97 13.49, 309.91 13.36, 309.69 13.30 C 309.46 13.24, 309.29 13.28, 308.82 13.45 C 308.35 13.63, 308.03 13.82, 307.34 14.19 C 306.64 14.56, 306.18 14.84, 305.35 15.31 C 304.53 15.78, 304.07 16.08, 303.23 16.53 C 302.39 16.99, 301.92 17.21, 301.15 17.56 C 300.38 17.92, 299.99 18.08, 299.38 18.31 C 298.77 18.53, 298.50 18.60, 298.08 18.68 C 297.66 18.76, 297.50 18.78, 297.29 18.73 C 297.08 18.67, 297.04 18.60, 297.04 18.39 C 297.03 18.17, 297.09 17.99, 297.26 17.64 C 297.44 17.28, 297.63 17.04, 297.92 16.61 C 298.20 16.17, 298.44 15.89, 298.69 15.47 C 298.95 15.04, 299.08 14.79, 299.18 14.48 C 299.28 14.17, 299.33 14.00, 299.21 13.91 C 299.09 13.81, 298.93 13.83, 298.57 13.99 C 298.22 14.16, 297.96 14.39, 297.44 14.74 C 296.92 15.10, 296.60 15.36, 295.97 15.78 C 295.34 16.20, 294.94 16.46, 294.28 16.86 C 293.62 17.26, 293.25 17.49, 292.66 17.78 C 292.07 18.07, 291.79 18.17, 291.32 18.32 C 290.85 18.48, 290.62 18.51, 290.31 18.54 C 290.00 18.58, 289.88 18.60, 289.76 18.49 C 289.64 18.39, 289.65 18.29, 289.72 18.03 C 289.79 17.77, 289.87 17.57, 290.11 17.20 C 290.35 16.83, 290.54 16.59, 290.94 16.18 C 291.33 15.76, 291.61 15.51, 292.08 15.14 C 292.54 14.77, 292.80 14.58, 293.25 14.31 C 293.69 14.05, 293.92 13.95, 294.30 13.82 C 294.68 13.69, 294.88 13.69, 295.15 13.67 C 295.43 13.65, 295.52 13.67, 295.69 13.73 C 295.87 13.78, 295.92 13.86, 296.04 13.96 C 296.16 14.06, 296.21 14.13, 296.30 14.22 C 296.40 14.31, 296.43 14.36, 296.52 14.42 C 296.61 14.48, 296.67 14.54, 296.77 14.53 C 296.87 14.52, 296.97 14.47, 297.02 14.38"/>
<path d="M 330.62,14.07 C 330.53 14.11, 330.52 14.14, 330.42 14.31 C 330.32 14.47, 330.28 14.57, 330.13 14.89 C 329.97 15.20, 329.88 15.44, 329.66 15.90 C 329.44 16.36, 329.28 16.66, 329.03 17.19 C 328.78 17.72, 328.62 18.03, 328.42 18.54 C 328.21 19.05, 328.08 19.32, 328.01 19.73 C 327.93 20.14, 327.91 20.36, 328.03 20.61 C 328.14 20.86, 328.26 20.96, 328.60 20.98 C 328.93 21.00, 329.17 20.95, 329.69 20.72 C 330.21 20.49, 330.53 20.27, 331.20 19.81 C 331.88 19.35, 332.26 19.03, 333.07 18.42 C 333.88 17.80, 334.34 17.45, 335.24 16.73 C 336.15 16.01, 336.65 15.59, 337.59 14.82 C 338.52 14.04, 339.02 13.61, 339.93 12.84 C 340.84 12.08, 341.32 11.68, 342.14 10.98 C 342.95 10.28, 343.36 9.93, 344.02 9.35 C 344.68 8.77, 344.98 8.51, 345.43 8.08 C 345.89 7.65, 346.11 7.44, 346.30 7.19 C 346.49 6.95, 346.47 6.84, 346.38 6.84 C 346.28 6.84, 346.12 6.90, 345.83 7.20 C 345.54 7.49, 345.34 7.74, 344.93 8.32 C 344.52 8.91, 344.27 9.34, 343.77 10.13 C 343.27 10.92, 342.98 11.40, 342.42 12.27 C 341.86 13.14, 341.53 13.63, 340.98 14.50 C 340.42 15.37, 340.13 15.84, 339.64 16.62 C 339.15 17.40, 338.92 17.80, 338.53 18.40 C 338.13 19.01, 337.93 19.25, 337.66 19.64 C 337.39 20.03, 337.33 20.20, 337.18 20.33 C 337.03 20.47, 336.98 20.30, 336.92 20.33 C 336.87 20.35, 336.81 20.40, 336.90 20.46 C 336.98 20.51, 337.10 20.70, 337.34 20.60 C 337.58 20.51, 337.75 20.36, 338.09 19.99 C 338.44 19.63, 338.63 19.37, 339.06 18.77 C 339.49 18.17, 339.72 17.77, 340.23 17.00 C 340.74 16.22, 341.03 15.76, 341.60 14.90 C 342.17 14.04, 342.50 13.56, 343.08 12.70 C 343.66 11.84, 343.97 11.38, 344.49 10.60 C 345.00 9.81, 345.29 9.41, 345.66 8.80 C 346.03 8.19, 346.17 7.92, 346.33 7.54 C 346.50 7.15, 346.54 7.00, 346.48 6.87 C 346.42 6.74, 346.33 6.73, 346.04 6.88 C 345.75 7.03, 345.52 7.22, 345.03 7.62 C 344.54 8.01, 344.27 8.29, 343.60 8.86 C 342.93 9.42, 342.52 9.77, 341.69 10.45 C 340.87 11.14, 340.39 11.53, 339.47 12.29 C 338.55 13.05, 338.05 13.47, 337.11 14.24 C 336.17 15.01, 335.67 15.42, 334.77 16.13 C 333.86 16.83, 333.40 17.18, 332.59 17.78 C 331.78 18.37, 331.37 18.66, 330.72 19.12 C 330.07 19.57, 329.77 19.78, 329.34 20.06 C 328.90 20.34, 328.73 20.45, 328.54 20.54 C 328.34 20.63, 328.34 20.64, 328.36 20.52 C 328.37 20.39, 328.46 20.25, 328.61 19.92 C 328.76 19.58, 328.88 19.33, 329.11 18.85 C 329.35 18.38, 329.51 18.08, 329.78 17.56 C 330.05 17.05, 330.24 16.75, 330.46 16.27 C 330.68 15.79, 330.79 15.53, 330.89 15.17 C 330.99 14.80, 330.96 14.65, 330.95 14.44 C 330.95 14.23, 330.92 14.18, 330.85 14.11 C 330.79 14.03, 330.71 14.03, 330.62 14.07"/>
<path d="M 334.97,18.03 C 334.97 18.12, 334.97 18.19, 335.12 18.29 C 335.27 18.38, 335.36 18.45, 335.70 18.50 C 336.04 18.55, 336.26 18.55, 336.81 18.52 C 337.37 18.49, 337.72 18.47, 338.47 18.36 C 339.23 18.25, 339.69 18.16, 340.58 17.96 C 341.47 17.77, 341.97 17.62, 342.93 17.39 C 343.89 17.16, 344.42 17.03, 345.37 16.81 C 346.32 16.58, 346.81 16.48, 347.68 16.26 C 348.55 16.05, 349.03 15.94, 349.72 15.75 C 350.41 15.56, 350.69 15.47, 351.12 15.31 C 351.55 15.15, 351.73 15.06, 351.87 14.95 C 352.01 14.84, 352.00 14.78, 351.82 14.76 C 351.65 14.75, 351.45 14.79, 351.00 14.86 C 350.55 14.93, 350.26 14.97, 349.56 15.11 C 348.87 15.26, 348.39 15.38, 347.52 15.58 C 346.65 15.77, 346.16 15.89, 345.21 16.10 C 344.25 16.31, 343.71 16.43, 342.75 16.64 C 341.80 16.86, 341.30 17.00, 340.42 17.18 C 339.54 17.36, 339.09 17.44, 338.36 17.54 C 337.63 17.64, 337.29 17.65, 336.76 17.69 C 336.24 17.73, 336.03 17.71, 335.73 17.74 C 335.42 17.76, 335.37 17.79, 335.24 17.81 C 335.11 17.84, 335.14 17.82, 335.09 17.86 C 335.03 17.90, 334.96 17.95, 334.97 18.03"/>
<path d="M 367.96,16.43 C 368.11 16.39, 368.26 16.27, 368.45 16.06 C 368.63 15.85, 368.73 15.71, 368.88 15.39 C 369.04 15.06, 369.15 14.83, 369.22 14.44 C 369.29 14.05, 369.30 13.82, 369.24 13.44 C 369.17 13.05, 369.13 12.83, 368.91 12.51 C 368.69 12.18, 368.54 11.99, 368.14 11.81 C 367.75 11.63, 367.49 11.57, 366.95 11.59 C 366.41 11.61, 366.07 11.68, 365.43 11.91 C 364.80 12.14, 364.42 12.35, 363.78 12.76 C 363.15 13.17, 362.78 13.45, 362.24 13.96 C 361.70 14.47, 361.42 14.79, 361.09 15.31 C 360.75 15.84, 360.64 16.15, 360.58 16.59 C 360.52 17.04, 360.58 17.25, 360.80 17.54 C 361.01 17.83, 361.22 17.93, 361.66 18.03 C 362.10 18.13, 362.41 18.14, 363.00 18.04 C 363.60 17.94, 363.95 17.80, 364.63 17.54 C 365.30 17.28, 365.70 17.08, 366.37 16.75 C 367.04 16.42, 367.44 16.19, 367.97 15.90 C 368.49 15.60, 368.73 15.39, 369.00 15.26 C 369.27 15.13, 369.32 15.09, 369.32 15.24 C 369.33 15.39, 369.23 15.54, 369.02 16.00 C 368.81 16.47, 368.61 16.83, 368.26 17.58 C 367.91 18.32, 367.70 18.82, 367.26 19.71 C 366.81 20.61, 366.56 21.12, 366.05 22.05 C 365.55 22.98, 365.27 23.48, 364.74 24.38 C 364.21 25.27, 363.92 25.75, 363.39 26.53 C 362.86 27.31, 362.59 27.67, 362.08 28.27 C 361.58 28.87, 361.30 29.15, 360.85 29.52 C 360.40 29.90, 360.18 30.04, 359.84 30.17 C 359.51 30.30, 359.37 30.27, 359.17 30.17 C 358.98 30.07, 358.91 29.99, 358.87 29.67 C 358.82 29.36, 358.83 29.11, 358.95 28.60 C 359.07 28.09, 359.16 27.75, 359.47 27.11 C 359.78 26.47, 359.99 26.08, 360.50 25.38 C 361.02 24.67, 361.34 24.30, 362.04 23.59 C 362.75 22.87, 363.16 22.50, 364.02 21.81 C 364.88 21.12, 365.37 20.76, 366.32 20.14 C 367.28 19.52, 367.80 19.24, 368.80 18.69 C 369.81 18.13, 370.36 17.88, 371.36 17.37 C 372.36 16.86, 372.89 16.60, 373.83 16.15 C 374.76 15.69, 375.22 15.47, 376.02 15.09 C 376.82 14.71, 377.20 14.56, 377.81 14.26 C 378.43 13.96, 378.69 13.83, 379.10 13.59 C 379.50 13.35, 379.65 13.26, 379.83 13.07 C 380.01 12.88, 380.03 12.79, 380.00 12.64 C 379.96 12.49, 379.86 12.39, 379.66 12.32 C 379.45 12.25, 379.29 12.23, 378.98 12.30 C 378.66 12.37, 378.47 12.47, 378.10 12.67 C 377.73 12.87, 377.52 12.99, 377.13 13.29 C 376.75 13.58, 376.53 13.78, 376.17 14.15 C 375.81 14.52, 375.61 14.74, 375.34 15.14 C 375.07 15.55, 374.94 15.78, 374.82 16.19 C 374.70 16.60, 374.68 16.83, 374.73 17.19 C 374.78 17.55, 374.85 17.73, 375.05 17.99 C 375.25 18.24, 375.41 18.36, 375.75 18.47 C 376.09 18.59, 376.33 18.61, 376.75 18.56 C 377.16 18.52, 377.40 18.43, 377.83 18.24 C 378.26 18.04, 378.50 17.88, 378.90 17.57 C 379.30 17.26, 379.51 17.07, 379.85 16.68 C 380.18 16.30, 380.32 16.06, 380.56 15.66 C 380.81 15.25, 380.91 15.02, 381.08 14.65 C 381.25 14.27, 381.31 14.10, 381.43 13.78 C 381.55 13.47, 381.58 13.32, 381.66 13.09 C 381.75 12.85, 381.77 12.75, 381.85 12.61 C 381.93 12.46, 381.95 12.42, 382.07 12.36 C 382.20 12.30, 382.27 12.31, 382.46 12.31 C 382.66 12.30, 382.78 12.31, 383.06 12.32 C 383.33 12.34, 383.49 12.35, 383.86 12.39 C 384.22 12.42, 384.44 12.46, 384.89 12.48 C 385.34 12.50, 385.59 12.50, 386.09 12.48 C 386.58 12.46, 386.86 12.44, 387.37 12.39 C 387.87 12.33, 388.16 12.30, 388.62 12.20 C 389.09 12.10, 389.32 12.02, 389.69 11.88 C 390.06 11.74, 390.22 11.68, 390.46 11.50 C 390.69 11.33, 390.79 11.20, 390.86 10.98 C 390.93 10.77, 390.92 10.64, 390.81 10.44 C 390.69 10.24, 390.57 10.11, 390.27 9.99 C 389.98 9.88, 389.76 9.85, 389.32 9.88 C 388.87 9.91, 388.60 9.97, 388.06 10.15 C 387.52 10.34, 387.20 10.49, 386.63 10.82 C 386.07 11.16, 385.74 11.38, 385.24 11.83 C 384.73 12.28, 384.46 12.56, 384.10 13.07 C 383.74 13.59, 383.59 13.89, 383.43 14.40 C 383.26 14.91, 383.23 15.17, 383.30 15.63 C 383.36 16.09, 383.43 16.33, 383.73 16.69 C 384.02 17.04, 384.26 17.21, 384.77 17.40 C 385.29 17.60, 385.63 17.64, 386.30 17.68 C 386.96 17.72, 387.34 17.70, 388.11 17.59 C 388.87 17.47, 389.31 17.35, 390.13 17.11 C 390.95 16.87, 391.39 16.69, 392.20 16.37 C 393.01 16.05, 393.42 15.87, 394.19 15.51 C 394.95 15.16, 395.35 14.96, 396.02 14.61 C 396.68 14.27, 396.99 14.09, 397.51 13.79 C 398.04 13.49, 398.26 13.34, 398.63 13.11 C 399.01 12.88, 399.17 12.79, 399.38 12.65 C 399.60 12.50, 399.65 12.44, 399.72 12.39 C 399.78 12.34, 399.72 12.34, 399.71 12.41 C 399.69 12.48, 399.64 12.57, 399.64 12.74 C 399.64 12.91, 399.64 13.03, 399.70 13.28 C 399.76 13.54, 399.83 13.71, 399.94 14.01 C 400.06 14.30, 400.16 14.47, 400.28 14.76 C 400.40 15.05, 400.47 15.20, 400.55 15.48 C 400.63 15.75, 400.69 15.89, 400.69 16.13 C 400.69 16.36, 400.70 16.44, 400.55 16.65 C 400.40 16.86, 400.25 16.96, 399.93 17.18 C 399.62 17.39, 399.43 17.51, 398.96 17.73 C 398.49 17.95, 398.20 18.07, 397.60 18.29 C 397.00 18.50, 396.63 18.60, 395.96 18.81 C 395.30 19.01, 394.89 19.11, 394.26 19.31 C 393.63 19.52, 393.28 19.63, 392.80 19.82 C 392.33 20.00, 392.06 20.10, 391.89 20.23 C 391.72 20.36, 391.74 20.43, 391.95 20.46 C 392.17 20.49, 392.45 20.45, 392.96 20.37 C 393.46 20.29, 393.82 20.20, 394.47 20.04 C 395.12 19.87, 395.51 19.75, 396.19 19.55 C 396.87 19.35, 397.24 19.25, 397.87 19.02 C 398.49 18.79, 398.80 18.67, 399.30 18.41 C 399.80 18.16, 400.00 18.03, 400.36 17.74 C 400.71 17.46, 400.87 17.30, 401.06 16.99 C 401.25 16.67, 401.27 16.50, 401.30 16.16 C 401.33 15.83, 401.29 15.65, 401.23 15.32 C 401.17 14.98, 401.10 14.82, 401.00 14.50 C 400.90 14.18, 400.82 14.01, 400.72 13.72 C 400.62 13.43, 400.59 13.27, 400.50 13.04 C 400.41 12.80, 400.37 12.72, 400.27 12.55 C 400.17 12.39, 400.12 12.32, 400.00 12.23 C 399.88 12.13, 399.83 12.08, 399.66 12.07 C 399.49 12.07, 399.41 12.09, 399.15 12.19 C 398.88 12.30, 398.73 12.39, 398.34 12.60 C 397.95 12.80, 397.73 12.95, 397.20 13.23 C 396.68 13.51, 396.37 13.68, 395.71 14.00 C 395.05 14.33, 394.65 14.53, 393.89 14.87 C 393.14 15.20, 392.73 15.39, 391.93 15.69 C 391.14 16.00, 390.71 16.16, 389.92 16.39 C 389.13 16.62, 388.71 16.73, 387.99 16.84 C 387.28 16.95, 386.93 16.95, 386.33 16.94 C 385.73 16.92, 385.42 16.89, 384.99 16.77 C 384.55 16.64, 384.38 16.55, 384.15 16.31 C 383.92 16.07, 383.88 15.91, 383.85 15.57 C 383.82 15.23, 383.85 15.02, 384.02 14.61 C 384.18 14.19, 384.32 13.93, 384.67 13.49 C 385.01 13.05, 385.26 12.80, 385.73 12.40 C 386.20 12.00, 386.51 11.81, 387.03 11.51 C 387.55 11.21, 387.86 11.08, 388.33 10.91 C 388.80 10.75, 389.04 10.72, 389.40 10.66 C 389.76 10.61, 389.91 10.64, 390.12 10.64 C 390.34 10.65, 390.40 10.68, 390.48 10.71 C 390.55 10.74, 390.55 10.74, 390.49 10.81 C 390.42 10.87, 390.36 10.94, 390.16 11.03 C 389.96 11.12, 389.82 11.16, 389.48 11.26 C 389.15 11.35, 388.92 11.42, 388.48 11.50 C 388.04 11.58, 387.78 11.60, 387.29 11.65 C 386.81 11.69, 386.53 11.71, 386.06 11.73 C 385.59 11.74, 385.36 11.74, 384.93 11.72 C 384.50 11.70, 384.29 11.65, 383.91 11.63 C 383.54 11.60, 383.37 11.59, 383.07 11.60 C 382.76 11.60, 382.62 11.60, 382.37 11.66 C 382.11 11.72, 381.99 11.76, 381.79 11.89 C 381.60 12.02, 381.52 12.12, 381.39 12.31 C 381.25 12.51, 381.22 12.62, 381.11 12.87 C 381.00 13.12, 380.98 13.26, 380.85 13.55 C 380.72 13.85, 380.66 14.01, 380.48 14.36 C 380.30 14.70, 380.20 14.92, 379.97 15.29 C 379.73 15.66, 379.61 15.87, 379.31 16.21 C 379.00 16.55, 378.81 16.71, 378.45 16.98 C 378.09 17.25, 377.87 17.38, 377.51 17.55 C 377.15 17.73, 376.96 17.79, 376.64 17.85 C 376.32 17.92, 376.14 17.92, 375.91 17.88 C 375.67 17.84, 375.58 17.80, 375.46 17.66 C 375.34 17.51, 375.31 17.40, 375.30 17.14 C 375.30 16.89, 375.31 16.71, 375.43 16.40 C 375.55 16.08, 375.66 15.90, 375.92 15.56 C 376.18 15.21, 376.38 15.02, 376.71 14.69 C 377.05 14.36, 377.25 14.17, 377.60 13.92 C 377.96 13.66, 378.16 13.58, 378.49 13.41 C 378.82 13.24, 379.00 13.17, 379.24 13.05 C 379.48 12.93, 379.55 12.87, 379.67 12.80 C 379.79 12.72, 379.84 12.68, 379.83 12.67 C 379.81 12.65, 379.79 12.65, 379.59 12.73 C 379.39 12.82, 379.24 12.90, 378.83 13.09 C 378.43 13.29, 378.17 13.42, 377.55 13.70 C 376.93 13.98, 376.55 14.13, 375.74 14.49 C 374.94 14.86, 374.47 15.08, 373.53 15.53 C 372.59 15.98, 372.06 16.24, 371.05 16.75 C 370.03 17.25, 369.49 17.51, 368.47 18.07 C 367.44 18.63, 366.91 18.91, 365.93 19.54 C 364.95 20.17, 364.44 20.53, 363.56 21.23 C 362.68 21.94, 362.25 22.33, 361.51 23.06 C 360.78 23.80, 360.44 24.19, 359.89 24.93 C 359.34 25.67, 359.10 26.07, 358.77 26.77 C 358.43 27.48, 358.31 27.85, 358.22 28.46 C 358.13 29.07, 358.17 29.40, 358.33 29.82 C 358.48 30.23, 358.65 30.39, 358.98 30.55 C 359.32 30.72, 359.54 30.76, 359.99 30.65 C 360.44 30.54, 360.71 30.39, 361.23 30.00 C 361.75 29.61, 362.03 29.31, 362.58 28.70 C 363.12 28.08, 363.39 27.71, 363.95 26.92 C 364.51 26.13, 364.80 25.65, 365.36 24.75 C 365.91 23.85, 366.19 23.35, 366.72 22.41 C 367.25 21.48, 367.53 20.98, 367.99 20.09 C 368.46 19.19, 368.72 18.71, 369.05 17.93 C 369.38 17.16, 369.54 16.76, 369.66 16.21 C 369.77 15.65, 369.76 15.42, 369.61 15.14 C 369.46 14.86, 369.30 14.79, 368.90 14.81 C 368.51 14.83, 368.22 14.99, 367.64 15.23 C 367.06 15.47, 366.68 15.71, 366.02 16.02 C 365.36 16.33, 364.96 16.53, 364.33 16.78 C 363.70 17.03, 363.36 17.15, 362.85 17.28 C 362.33 17.42, 362.08 17.44, 361.74 17.44 C 361.39 17.44, 361.25 17.43, 361.12 17.28 C 360.99 17.13, 360.98 17.02, 361.09 16.70 C 361.19 16.38, 361.31 16.14, 361.64 15.70 C 361.98 15.26, 362.24 14.98, 362.76 14.52 C 363.27 14.07, 363.62 13.81, 364.21 13.43 C 364.80 13.05, 365.16 12.86, 365.71 12.64 C 366.27 12.41, 366.56 12.35, 367.00 12.30 C 367.44 12.25, 367.62 12.27, 367.90 12.38 C 368.18 12.48, 368.26 12.61, 368.39 12.84 C 368.52 13.07, 368.55 13.23, 368.56 13.51 C 368.57 13.80, 368.54 13.96, 368.46 14.27 C 368.38 14.59, 368.28 14.79, 368.16 15.08 C 368.05 15.37, 368.00 15.49, 367.91 15.72 C 367.82 15.96, 367.71 16.10, 367.72 16.25 C 367.73 16.39, 367.82 16.47, 367.96 16.43"/>
</svg>
