<svg xmlns="http://www.w3.org/2000/svg" viewBox="0 0 411.3 42.4" fill="currentColor" stroke="none" role="img">
<path d="M 12.63,17.80 C 12.51 17.73, 12.34 17.71, 12.05 17.74 C 11.76 17.77, 11.59 17.77, 11.18 17.94 C 10.78 18.12, 10.50 18.22, 10.01 18.61 C 9.52 19.01, 9.25 19.27, 8.74 19.92 C 8.23 20.56, 7.92 21.01, 7.45 21.84 C 6.98 22.67, 6.73 23.21, 6.40 24.08 C 6.06 24.95, 5.91 25.44, 5.78 26.17 C 5.65 26.90, 5.65 27.23, 5.75 27.72 C 5.85 28.20, 5.98 28.38, 6.26 28.60 C 6.54 28.83, 6.75 28.88, 7.15 28.84 C 7.54 28.80, 7.81 28.69, 8.24 28.39 C 8.67 28.09, 8.90 27.86, 9.30 27.36 C 9.71 26.86, 9.90 26.55, 10.27 25.88 C 10.65 25.21, 10.84 24.78, 11.17 24.00 C 11.50 23.22, 11.66 22.76, 11.92 21.98 C 12.17 21.20, 12.29 20.76, 12.44 20.10 C 12.59 19.44, 12.64 19.10, 12.67 18.69 C 12.70 18.27, 12.64 18.10, 12.58 18.02 C 12.52 17.94, 12.43 17.99, 12.38 18.29 C 12.33 18.58, 12.28 18.87, 12.32 19.50 C 12.37 20.13, 12.43 20.61, 12.62 21.43 C 12.80 22.24, 12.95 22.76, 13.25 23.59 C 13.55 24.41, 13.72 24.85, 14.13 25.54 C 14.53 26.23, 14.76 26.55, 15.28 27.05 C 15.79 27.54, 16.08 27.73, 16.70 28.00 C 17.31 28.27, 17.67 28.34, 18.35 28.39 C 19.02 28.44, 19.39 28.41, 20.06 28.27 C 20.73 28.12, 21.11 27.97, 21.69 27.69 C 22.27 27.40, 22.56 27.16, 22.96 26.82 C 23.36 26.47, 23.57 26.18, 23.68 25.98 C 23.79 25.77, 23.72 25.71, 23.51 25.78 C 23.29 25.85, 23.04 26.08, 22.61 26.33 C 22.18 26.58, 21.91 26.79, 21.37 27.04 C 20.83 27.29, 20.51 27.44, 19.91 27.58 C 19.31 27.72, 18.98 27.76, 18.39 27.73 C 17.79 27.70, 17.48 27.66, 16.94 27.43 C 16.41 27.21, 16.15 27.05, 15.71 26.60 C 15.27 26.16, 15.07 25.86, 14.73 25.21 C 14.39 24.55, 14.25 24.13, 14.00 23.33 C 13.76 22.54, 13.68 22.02, 13.52 21.23 C 13.35 20.44, 13.30 19.98, 13.17 19.37 C 13.03 18.77, 12.98 18.50, 12.84 18.22 C 12.70 17.93, 12.60 17.88, 12.46 17.95 C 12.32 18.02, 12.27 18.18, 12.13 18.57 C 11.99 18.97, 11.95 19.29, 11.76 19.93 C 11.58 20.56, 11.47 20.99, 11.21 21.74 C 10.94 22.50, 10.77 22.95, 10.45 23.70 C 10.13 24.45, 9.95 24.87, 9.60 25.51 C 9.25 26.15, 9.07 26.42, 8.71 26.88 C 8.35 27.34, 8.14 27.53, 7.80 27.82 C 7.47 28.10, 7.30 28.23, 7.04 28.33 C 6.78 28.42, 6.67 28.43, 6.51 28.30 C 6.35 28.16, 6.27 28.05, 6.25 27.65 C 6.23 27.26, 6.26 26.97, 6.43 26.31 C 6.60 25.66, 6.77 25.19, 7.12 24.37 C 7.46 23.56, 7.71 23.04, 8.16 22.24 C 8.62 21.45, 8.91 21.02, 9.37 20.41 C 9.84 19.80, 10.08 19.57, 10.50 19.20 C 10.93 18.84, 11.16 18.77, 11.49 18.59 C 11.83 18.42, 11.95 18.41, 12.19 18.31 C 12.43 18.21, 12.59 18.19, 12.68 18.09 C 12.77 17.99, 12.76 17.87, 12.63 17.80"/>
<path d="M 37.12,6.11 C 37.03 6.26, 36.97 6.42, 36.92 6.88 C 36.87 7.33, 36.87 7.63, 36.89 8.38 C 36.90 9.13, 36.93 9.63, 37.00 10.63 C 37.07 11.63, 37.14 12.25, 37.24 13.38 C 37.34 14.52, 37.39 15.16, 37.52 16.32 C 37.64 17.47, 37.70 18.09, 37.86 19.16 C 38.01 20.22, 38.08 20.74, 38.28 21.64 C 38.49 22.54, 38.60 22.95, 38.88 23.64 C 39.16 24.33, 39.33 24.64, 39.66 25.10 C 40.00 25.56, 40.19 25.73, 40.57 25.94 C 40.96 26.16, 41.17 26.20, 41.59 26.18 C 42.01 26.15, 42.24 26.07, 42.68 25.81 C 43.11 25.54, 43.35 25.32, 43.78 24.84 C 44.21 24.36, 44.41 24.05, 44.83 23.41 C 45.25 22.77, 45.49 22.34, 45.87 21.63 C 46.26 20.92, 46.46 20.47, 46.77 19.86 C 47.09 19.26, 47.24 18.94, 47.45 18.60 C 47.65 18.27, 47.69 18.15, 47.79 18.18 C 47.89 18.22, 47.88 18.38, 47.96 18.79 C 48.03 19.19, 48.05 19.57, 48.17 20.21 C 48.28 20.84, 48.35 21.29, 48.52 21.97 C 48.68 22.65, 48.78 23.04, 48.99 23.60 C 49.20 24.17, 49.31 24.42, 49.56 24.80 C 49.81 25.18, 49.95 25.31, 50.22 25.49 C 50.50 25.68, 50.66 25.72, 50.94 25.73 C 51.22 25.73, 51.38 25.67, 51.63 25.50 C 51.88 25.34, 51.99 25.22, 52.19 24.91 C 52.38 24.61, 52.46 24.41, 52.61 23.98 C 52.75 23.55, 52.79 23.25, 52.91 22.76 C 53.02 22.26, 53.06 21.99, 53.18 21.50 C 53.30 21.00, 53.38 20.70, 53.50 20.26 C 53.63 19.81, 53.69 19.58, 53.81 19.27 C 53.92 18.97, 53.97 18.84, 54.08 18.71 C 54.19 18.59, 54.22 18.56, 54.33 18.63 C 54.44 18.70, 54.48 18.82, 54.63 19.09 C 54.78 19.36, 54.88 19.56, 55.07 19.97 C 55.26 20.39, 55.38 20.66, 55.58 21.15 C 55.79 21.64, 55.89 21.95, 56.09 22.44 C 56.29 22.92, 56.39 23.17, 56.59 23.56 C 56.79 23.95, 56.87 24.13, 57.07 24.38 C 57.27 24.64, 57.37 24.73, 57.59 24.82 C 57.82 24.91, 57.96 24.91, 58.22 24.83 C 58.49 24.74, 58.64 24.67, 58.91 24.40 C 59.18 24.13, 59.31 23.91, 59.57 23.46 C 59.84 23.02, 59.97 22.71, 60.25 22.17 C 60.53 21.63, 60.69 21.30, 60.98 20.75 C 61.27 20.20, 61.44 19.87, 61.70 19.42 C 61.96 18.96, 62.09 18.74, 62.27 18.48 C 62.44 18.22, 62.50 18.11, 62.60 18.11 C 62.69 18.10, 62.68 18.18, 62.74 18.44 C 62.79 18.70, 62.79 18.94, 62.87 19.40 C 62.96 19.86, 63.00 20.19, 63.16 20.73 C 63.31 21.27, 63.41 21.59, 63.65 22.09 C 63.89 22.60, 64.01 22.85, 64.35 23.24 C 64.68 23.63, 64.88 23.81, 65.31 24.05 C 65.75 24.28, 66.01 24.36, 66.53 24.41 C 67.05 24.46, 67.33 24.44, 67.91 24.30 C 68.48 24.16, 68.81 24.04, 69.42 23.72 C 70.03 23.39, 70.38 23.16, 70.96 22.68 C 71.54 22.19, 71.84 21.89, 72.33 21.30 C 72.83 20.70, 73.07 20.33, 73.44 19.70 C 73.82 19.07, 73.99 18.73, 74.20 18.16 C 74.41 17.59, 74.47 17.31, 74.51 16.85 C 74.55 16.39, 74.54 16.16, 74.40 15.84 C 74.25 15.53, 74.09 15.37, 73.78 15.26 C 73.46 15.15, 73.22 15.14, 72.82 15.30 C 72.43 15.45, 72.17 15.61, 71.79 16.03 C 71.40 16.45, 71.18 16.78, 70.90 17.40 C 70.62 18.01, 70.50 18.42, 70.40 19.13 C 70.30 19.83, 70.29 20.24, 70.41 20.93 C 70.54 21.62, 70.67 21.98, 71.03 22.57 C 71.40 23.15, 71.67 23.42, 72.25 23.84 C 72.84 24.25, 73.20 24.41, 73.96 24.65 C 74.71 24.90, 75.16 24.97, 76.01 25.06 C 76.86 25.15, 77.39 25.12, 78.20 25.10 C 79.01 25.08, 79.44 25.04, 80.06 24.96 C 80.68 24.88, 81.05 24.79, 81.30 24.69 C 81.54 24.58, 81.53 24.50, 81.27 24.44 C 81.02 24.38, 80.65 24.40, 80.03 24.38 C 79.42 24.36, 78.99 24.36, 78.20 24.34 C 77.41 24.33, 76.89 24.38, 76.08 24.31 C 75.28 24.24, 74.85 24.18, 74.16 23.98 C 73.47 23.78, 73.15 23.65, 72.63 23.30 C 72.11 22.94, 71.89 22.72, 71.58 22.22 C 71.27 21.73, 71.18 21.41, 71.09 20.81 C 71.00 20.22, 71.03 19.86, 71.14 19.24 C 71.25 18.62, 71.39 18.27, 71.63 17.73 C 71.88 17.19, 72.08 16.91, 72.38 16.54 C 72.67 16.17, 72.85 16.03, 73.10 15.86 C 73.36 15.70, 73.48 15.68, 73.65 15.71 C 73.82 15.74, 73.90 15.80, 73.96 16.01 C 74.02 16.23, 74.02 16.39, 73.94 16.77 C 73.87 17.15, 73.81 17.40, 73.59 17.91 C 73.37 18.42, 73.20 18.74, 72.83 19.33 C 72.47 19.91, 72.24 20.27, 71.77 20.82 C 71.30 21.38, 71.02 21.65, 70.48 22.10 C 69.94 22.55, 69.61 22.76, 69.06 23.07 C 68.51 23.37, 68.23 23.49, 67.73 23.63 C 67.24 23.77, 67.01 23.80, 66.58 23.77 C 66.16 23.75, 65.95 23.69, 65.61 23.50 C 65.26 23.32, 65.10 23.18, 64.85 22.84 C 64.59 22.50, 64.50 22.27, 64.32 21.81 C 64.15 21.34, 64.11 21.03, 63.98 20.51 C 63.85 19.99, 63.82 19.66, 63.67 19.20 C 63.52 18.74, 63.44 18.48, 63.23 18.20 C 63.02 17.91, 62.88 17.80, 62.61 17.78 C 62.33 17.76, 62.17 17.85, 61.86 18.10 C 61.56 18.35, 61.41 18.58, 61.09 19.03 C 60.77 19.49, 60.60 19.82, 60.29 20.37 C 59.98 20.92, 59.81 21.25, 59.52 21.79 C 59.24 22.33, 59.09 22.62, 58.86 23.05 C 58.63 23.49, 58.53 23.68, 58.36 23.95 C 58.19 24.21, 58.12 24.28, 58.00 24.38 C 57.88 24.48, 57.86 24.51, 57.76 24.45 C 57.67 24.40, 57.65 24.32, 57.54 24.09 C 57.42 23.85, 57.35 23.67, 57.21 23.29 C 57.06 22.90, 56.97 22.65, 56.80 22.16 C 56.63 21.67, 56.54 21.36, 56.34 20.84 C 56.15 20.33, 56.04 20.04, 55.81 19.60 C 55.57 19.17, 55.44 18.95, 55.18 18.67 C 54.91 18.40, 54.76 18.28, 54.48 18.22 C 54.20 18.15, 54.04 18.20, 53.79 18.36 C 53.54 18.52, 53.43 18.67, 53.24 19.00 C 53.04 19.34, 52.97 19.58, 52.82 20.04 C 52.66 20.50, 52.58 20.80, 52.45 21.31 C 52.31 21.81, 52.25 22.09, 52.14 22.57 C 52.02 23.06, 51.96 23.35, 51.85 23.75 C 51.74 24.15, 51.70 24.32, 51.59 24.58 C 51.47 24.84, 51.41 24.92, 51.28 25.06 C 51.15 25.19, 51.09 25.24, 50.93 25.25 C 50.78 25.26, 50.69 25.25, 50.52 25.10 C 50.34 24.95, 50.23 24.85, 50.06 24.51 C 49.89 24.17, 49.81 23.94, 49.66 23.39 C 49.52 22.85, 49.48 22.46, 49.35 21.79 C 49.22 21.11, 49.19 20.66, 49.03 20.02 C 48.86 19.38, 48.76 18.99, 48.53 18.57 C 48.29 18.15, 48.15 17.98, 47.86 17.92 C 47.56 17.85, 47.40 17.95, 47.05 18.26 C 46.70 18.58, 46.50 18.89, 46.12 19.49 C 45.75 20.08, 45.56 20.54, 45.17 21.24 C 44.78 21.94, 44.56 22.36, 44.16 22.98 C 43.77 23.60, 43.58 23.89, 43.21 24.35 C 42.84 24.81, 42.64 25.00, 42.30 25.26 C 41.97 25.53, 41.83 25.61, 41.54 25.66 C 41.24 25.71, 41.11 25.69, 40.83 25.51 C 40.55 25.33, 40.40 25.20, 40.13 24.78 C 39.85 24.36, 39.69 24.08, 39.45 23.42 C 39.21 22.77, 39.10 22.37, 38.92 21.50 C 38.74 20.63, 38.68 20.11, 38.55 19.06 C 38.42 18.01, 38.36 17.40, 38.26 16.25 C 38.16 15.10, 38.12 14.45, 38.03 13.32 C 37.95 12.18, 37.91 11.57, 37.84 10.57 C 37.77 9.58, 37.75 9.08, 37.69 8.34 C 37.62 7.59, 37.57 7.31, 37.51 6.87 C 37.44 6.42, 37.45 6.27, 37.38 6.12 C 37.30 5.97, 37.21 5.96, 37.12 6.11"/>
<path d="M 100.81,17.80 C 100.76 17.69, 100.67 17.60, 100.46 17.52 C 100.25 17.43, 100.10 17.38, 99.77 17.37 C 99.44 17.37, 99.21 17.34, 98.80 17.49 C 98.40 17.65, 98.16 17.78, 97.73 18.15 C 97.30 18.53, 97.05 18.79, 96.66 19.36 C 96.28 19.94, 96.06 20.34, 95.81 21.03 C 95.55 21.73, 95.43 22.17, 95.37 22.85 C 95.32 23.53, 95.35 23.89, 95.54 24.41 C 95.73 24.93, 95.92 25.16, 96.32 25.45 C 96.71 25.73, 96.98 25.81, 97.51 25.84 C 98.04 25.87, 98.39 25.81, 98.97 25.61 C 99.55 25.40, 99.88 25.21, 100.42 24.82 C 100.96 24.43, 101.22 24.18, 101.65 23.65 C 102.08 23.12, 102.29 22.80, 102.58 22.18 C 102.87 21.56, 102.97 21.20, 103.08 20.56 C 103.19 19.92, 103.19 19.56, 103.12 18.96 C 103.04 18.36, 102.93 18.05, 102.69 17.57 C 102.46 17.09, 102.27 16.85, 101.93 16.55 C 101.60 16.25, 101.37 16.16, 101.02 16.07 C 100.67 15.99, 100.46 16.01, 100.19 16.12 C 99.92 16.23, 99.77 16.39, 99.68 16.62 C 99.59 16.86, 99.60 17.06, 99.74 17.31 C 99.89 17.55, 100.04 17.69, 100.39 17.85 C 100.75 18.00, 101.00 18.08, 101.53 18.08 C 102.05 18.08, 102.38 18.03, 103.03 17.83 C 103.67 17.64, 104.04 17.48, 104.76 17.11 C 105.47 16.75, 105.87 16.53, 106.60 16.01 C 107.33 15.49, 107.71 15.16, 108.41 14.49 C 109.10 13.82, 109.48 13.43, 110.09 12.66 C 110.71 11.89, 111.00 11.43, 111.48 10.65 C 111.96 9.87, 112.19 9.45, 112.51 8.75 C 112.83 8.06, 112.95 7.71, 113.06 7.20 C 113.17 6.68, 113.15 6.43, 113.04 6.16 C 112.93 5.89, 112.77 5.80, 112.49 5.86 C 112.22 5.92, 112.01 6.02, 111.68 6.47 C 111.34 6.92, 111.15 7.25, 110.83 8.11 C 110.51 8.96, 110.34 9.53, 110.07 10.74 C 109.80 11.95, 109.67 12.70, 109.51 14.15 C 109.34 15.61, 109.29 16.46, 109.24 18.02 C 109.18 19.57, 109.19 20.44, 109.23 21.93 C 109.28 23.43, 109.34 24.19, 109.47 25.51 C 109.60 26.83, 109.70 27.47, 109.87 28.55 C 110.04 29.63, 110.13 30.10, 110.32 30.91 C 110.50 31.73, 110.62 32.07, 110.79 32.61 C 110.97 33.15, 111.04 33.32, 111.19 33.59 C 111.34 33.87, 111.45 33.92, 111.56 33.99 C 111.67 34.06, 111.72 33.96, 111.76 33.94 C 111.79 33.92, 111.75 33.89, 111.75 33.87 C 111.74 33.85, 111.75 33.93, 111.72 33.84 C 111.69 33.75, 111.68 33.70, 111.60 33.42 C 111.52 33.14, 111.46 32.98, 111.32 32.45 C 111.18 31.93, 111.07 31.59, 110.90 30.79 C 110.74 29.99, 110.65 29.52, 110.50 28.45 C 110.34 27.39, 110.25 26.76, 110.14 25.45 C 110.03 24.14, 109.98 23.40, 109.95 21.92 C 109.92 20.44, 109.93 19.58, 110.00 18.05 C 110.06 16.51, 110.12 15.67, 110.30 14.25 C 110.47 12.82, 110.62 12.10, 110.88 10.92 C 111.15 9.75, 111.34 9.21, 111.62 8.39 C 111.89 7.57, 112.05 7.27, 112.26 6.82 C 112.46 6.37, 112.54 6.26, 112.63 6.14 C 112.72 6.02, 112.74 6.04, 112.71 6.22 C 112.69 6.40, 112.66 6.59, 112.50 7.04 C 112.34 7.49, 112.23 7.82, 111.91 8.47 C 111.58 9.11, 111.35 9.52, 110.88 10.27 C 110.40 11.02, 110.12 11.46, 109.52 12.20 C 108.93 12.94, 108.57 13.32, 107.90 13.96 C 107.23 14.60, 106.86 14.91, 106.16 15.40 C 105.47 15.89, 105.08 16.09, 104.41 16.43 C 103.74 16.76, 103.38 16.91, 102.80 17.08 C 102.22 17.26, 101.94 17.29, 101.51 17.31 C 101.07 17.33, 100.89 17.25, 100.62 17.19 C 100.35 17.13, 100.27 17.07, 100.16 16.99 C 100.06 16.91, 100.07 16.87, 100.11 16.80 C 100.14 16.72, 100.21 16.65, 100.36 16.61 C 100.51 16.57, 100.63 16.54, 100.86 16.62 C 101.09 16.69, 101.26 16.75, 101.51 17.00 C 101.76 17.25, 101.92 17.44, 102.11 17.85 C 102.30 18.26, 102.40 18.52, 102.46 19.04 C 102.52 19.56, 102.51 19.87, 102.41 20.44 C 102.30 21.01, 102.21 21.33, 101.95 21.88 C 101.69 22.43, 101.49 22.73, 101.10 23.20 C 100.71 23.66, 100.46 23.88, 99.98 24.22 C 99.51 24.57, 99.20 24.72, 98.71 24.92 C 98.22 25.12, 97.94 25.20, 97.52 25.22 C 97.11 25.24, 96.91 25.21, 96.62 25.02 C 96.34 24.82, 96.21 24.65, 96.10 24.24 C 95.99 23.82, 95.99 23.51, 96.08 22.93 C 96.17 22.35, 96.30 21.94, 96.55 21.32 C 96.80 20.69, 96.99 20.32, 97.33 19.80 C 97.67 19.28, 97.89 19.04, 98.24 18.72 C 98.59 18.39, 98.76 18.29, 99.07 18.17 C 99.37 18.05, 99.52 18.13, 99.78 18.12 C 100.03 18.11, 100.15 18.13, 100.35 18.12 C 100.54 18.12, 100.63 18.14, 100.73 18.07 C 100.82 18.01, 100.87 17.92, 100.81 17.80"/>
<path d="M 107.33,24.40 C 107.47 24.46, 107.60 24.46, 107.96 24.43 C 108.33 24.40, 108.59 24.36, 109.17 24.25 C 109.76 24.13, 110.12 24.03, 110.89 23.84 C 111.66 23.65, 112.15 23.54, 113.00 23.30 C 113.86 23.06, 114.38 22.90, 115.16 22.64 C 115.94 22.38, 116.34 22.24, 116.91 22.00 C 117.47 21.77, 117.78 21.64, 117.98 21.49 C 118.18 21.34, 118.16 21.27, 117.91 21.27 C 117.66 21.27, 117.33 21.34, 116.74 21.47 C 116.15 21.60, 115.74 21.71, 114.95 21.91 C 114.16 22.12, 113.64 22.28, 112.79 22.51 C 111.94 22.73, 111.45 22.83, 110.69 23.03 C 109.92 23.22, 109.55 23.30, 108.98 23.47 C 108.41 23.63, 108.17 23.71, 107.83 23.85 C 107.49 23.98, 107.37 24.04, 107.27 24.15 C 107.18 24.26, 107.19 24.34, 107.33 24.40"/>
<path d="M 135.50,17.98 C 135.43 18.13, 135.43 18.31, 135.44 18.70 C 135.45 19.08, 135.49 19.33, 135.55 19.90 C 135.61 20.46, 135.66 20.87, 135.75 21.52 C 135.84 22.16, 135.91 22.53, 135.99 23.12 C 136.08 23.72, 136.11 24.01, 136.19 24.48 C 136.27 24.95, 136.32 25.16, 136.40 25.47 C 136.49 25.78, 136.53 25.91, 136.62 26.02 C 136.70 26.12, 136.76 26.11, 136.81 25.99 C 136.86 25.87, 136.87 25.73, 136.87 25.41 C 136.88 25.09, 136.87 24.88, 136.84 24.40 C 136.81 23.93, 136.79 23.64, 136.74 23.04 C 136.69 22.44, 136.67 22.06, 136.60 21.41 C 136.52 20.76, 136.48 20.33, 136.37 19.77 C 136.26 19.21, 136.17 18.96, 136.05 18.59 C 135.93 18.23, 135.88 18.06, 135.77 17.93 C 135.66 17.81, 135.56 17.82, 135.50 17.98"/>
<path d="M 134.74,12.00 C 134.65 12.04, 134.50 12.10, 134.48 12.14 C 134.45 12.17, 134.47 12.21, 134.61 12.18 C 134.75 12.15, 135.04 12.04, 135.17 11.97 C 135.29 11.91, 135.28 11.87, 135.24 11.86 C 135.20 11.85, 135.05 11.91, 134.95 11.93 C 134.85 11.96, 134.84 11.96, 134.74 12.00"/>
<path d="M 139.09,18.24 C 139.04 18.40, 139.07 18.62, 139.12 19.00 C 139.17 19.39, 139.21 19.63, 139.33 20.16 C 139.44 20.70, 139.53 21.11, 139.68 21.68 C 139.84 22.26, 139.94 22.58, 140.10 23.05 C 140.26 23.51, 140.31 23.72, 140.47 24.03 C 140.64 24.33, 140.71 24.46, 140.91 24.56 C 141.11 24.67, 141.24 24.68, 141.45 24.55 C 141.67 24.42, 141.78 24.27, 142.00 23.93 C 142.22 23.58, 142.33 23.31, 142.57 22.81 C 142.81 22.30, 142.93 21.97, 143.19 21.39 C 143.45 20.82, 143.59 20.46, 143.87 19.95 C 144.15 19.44, 144.32 19.17, 144.58 18.83 C 144.84 18.50, 144.95 18.35, 145.16 18.25 C 145.38 18.16, 145.46 18.19, 145.65 18.35 C 145.84 18.51, 145.92 18.68, 146.09 19.05 C 146.26 19.43, 146.35 19.70, 146.51 20.23 C 146.68 20.75, 146.74 21.11, 146.90 21.69 C 147.07 22.27, 147.17 22.60, 147.36 23.13 C 147.56 23.65, 147.64 23.93, 147.88 24.32 C 148.12 24.71, 148.25 24.88, 148.55 25.07 C 148.86 25.27, 149.03 25.32, 149.39 25.30 C 149.75 25.28, 149.97 25.23, 150.36 24.97 C 150.75 24.72, 150.96 24.53, 151.35 24.04 C 151.74 23.54, 151.93 23.24, 152.32 22.52 C 152.70 21.80, 152.91 21.36, 153.29 20.44 C 153.67 19.51, 153.85 18.96, 154.22 17.91 C 154.59 16.87, 154.80 16.26, 155.13 15.20 C 155.45 14.14, 155.58 13.59, 155.83 12.62 C 156.08 11.65, 156.20 11.16, 156.36 10.36 C 156.52 9.56, 156.58 9.18, 156.64 8.61 C 156.70 8.05, 156.72 7.83, 156.65 7.53 C 156.59 7.23, 156.50 7.12, 156.32 7.11 C 156.14 7.10, 155.96 7.15, 155.77 7.49 C 155.57 7.83, 155.46 8.13, 155.34 8.80 C 155.22 9.48, 155.21 9.95, 155.16 10.88 C 155.11 11.81, 155.10 12.39, 155.10 13.45 C 155.10 14.51, 155.10 15.12, 155.14 16.18 C 155.19 17.24, 155.24 17.81, 155.33 18.76 C 155.42 19.71, 155.47 20.18, 155.59 20.94 C 155.72 21.71, 155.77 22.05, 155.94 22.58 C 156.12 23.11, 156.24 23.32, 156.48 23.60 C 156.72 23.88, 156.85 23.95, 157.14 23.98 C 157.43 24.01, 157.61 23.97, 157.92 23.76 C 158.23 23.54, 158.38 23.33, 158.69 22.90 C 159.00 22.47, 159.14 22.17, 159.46 21.60 C 159.78 21.04, 159.95 20.67, 160.28 20.08 C 160.60 19.49, 160.78 19.15, 161.08 18.65 C 161.39 18.15, 161.57 17.90, 161.81 17.58 C 162.04 17.25, 162.15 17.13, 162.26 17.03 C 162.38 16.93, 162.39 16.95, 162.39 17.08 C 162.39 17.20, 162.34 17.34, 162.27 17.67 C 162.20 18.01, 162.13 18.25, 162.05 18.75 C 161.96 19.25, 161.92 19.59, 161.85 20.15 C 161.79 20.72, 161.74 21.03, 161.71 21.56 C 161.69 22.08, 161.66 22.33, 161.73 22.78 C 161.80 23.23, 161.85 23.45, 162.05 23.80 C 162.26 24.14, 162.43 24.27, 162.76 24.50 C 163.08 24.72, 163.33 24.82, 163.67 24.92 C 164.01 25.03, 164.19 25.02, 164.45 25.02 C 164.71 25.01, 164.88 24.97, 164.99 24.90 C 165.10 24.83, 165.10 24.75, 165.01 24.66 C 164.92 24.57, 164.76 24.55, 164.54 24.46 C 164.32 24.38, 164.18 24.35, 163.89 24.24 C 163.61 24.14, 163.38 24.09, 163.10 23.94 C 162.83 23.80, 162.68 23.75, 162.53 23.51 C 162.38 23.26, 162.37 23.09, 162.35 22.71 C 162.33 22.34, 162.36 22.11, 162.43 21.62 C 162.50 21.13, 162.58 20.82, 162.67 20.27 C 162.77 19.73, 162.85 19.39, 162.91 18.87 C 162.97 18.36, 163.01 18.09, 162.98 17.70 C 162.94 17.31, 162.89 17.11, 162.72 16.91 C 162.55 16.70, 162.40 16.63, 162.13 16.68 C 161.85 16.73, 161.68 16.85, 161.34 17.17 C 161.01 17.48, 160.82 17.75, 160.47 18.25 C 160.12 18.75, 159.93 19.09, 159.58 19.68 C 159.24 20.27, 159.04 20.63, 158.73 21.19 C 158.42 21.75, 158.26 22.04, 158.02 22.47 C 157.78 22.90, 157.70 23.10, 157.52 23.33 C 157.35 23.56, 157.30 23.61, 157.17 23.61 C 157.03 23.62, 156.98 23.57, 156.85 23.34 C 156.71 23.10, 156.62 22.92, 156.49 22.42 C 156.37 21.92, 156.32 21.59, 156.23 20.85 C 156.13 20.11, 156.09 19.64, 156.02 18.70 C 155.96 17.77, 155.92 17.21, 155.89 16.16 C 155.87 15.11, 155.88 14.50, 155.91 13.46 C 155.93 12.41, 155.97 11.84, 156.02 10.93 C 156.08 10.02, 156.12 9.57, 156.18 8.92 C 156.24 8.27, 156.28 8.01, 156.31 7.68 C 156.34 7.34, 156.35 7.28, 156.34 7.26 C 156.33 7.23, 156.31 7.29, 156.26 7.54 C 156.20 7.79, 156.17 7.99, 156.06 8.53 C 155.96 9.06, 155.90 9.43, 155.72 10.22 C 155.54 11.00, 155.42 11.49, 155.16 12.44 C 154.90 13.39, 154.75 13.94, 154.42 14.98 C 154.09 16.03, 153.86 16.62, 153.49 17.65 C 153.12 18.68, 152.94 19.24, 152.56 20.14 C 152.19 21.04, 151.99 21.46, 151.63 22.15 C 151.27 22.84, 151.09 23.12, 150.75 23.58 C 150.42 24.04, 150.25 24.20, 149.97 24.44 C 149.68 24.69, 149.56 24.75, 149.34 24.80 C 149.11 24.84, 149.03 24.83, 148.85 24.67 C 148.66 24.52, 148.59 24.38, 148.43 24.03 C 148.27 23.67, 148.20 23.41, 148.05 22.90 C 147.90 22.39, 147.82 22.06, 147.67 21.48 C 147.52 20.89, 147.48 20.53, 147.29 19.97 C 147.09 19.42, 146.98 19.11, 146.71 18.71 C 146.43 18.30, 146.26 18.11, 145.92 17.93 C 145.59 17.75, 145.38 17.72, 145.02 17.82 C 144.65 17.91, 144.47 18.06, 144.11 18.41 C 143.75 18.76, 143.55 19.03, 143.21 19.56 C 142.88 20.08, 142.73 20.46, 142.44 21.04 C 142.15 21.61, 142.00 21.93, 141.77 22.44 C 141.54 22.95, 141.43 23.22, 141.31 23.59 C 141.18 23.95, 141.19 24.12, 141.15 24.26 C 141.11 24.41, 141.14 24.41, 141.11 24.33 C 141.08 24.24, 141.06 24.12, 141.00 23.83 C 140.94 23.54, 140.90 23.33, 140.80 22.86 C 140.71 22.39, 140.65 22.05, 140.52 21.47 C 140.39 20.89, 140.29 20.48, 140.13 19.96 C 139.97 19.43, 139.87 19.20, 139.72 18.84 C 139.57 18.48, 139.50 18.28, 139.37 18.16 C 139.24 18.04, 139.14 18.07, 139.09 18.24"/>
<path d="M 172.78,22.78 C 172.71 22.93, 172.72 23.11, 172.68 23.52 C 172.63 23.92, 172.64 24.19, 172.57 24.82 C 172.50 25.45, 172.46 25.88, 172.33 26.65 C 172.20 27.42, 172.11 27.88, 171.92 28.66 C 171.73 29.44, 171.58 29.86, 171.37 30.55 C 171.17 31.24, 171.04 31.58, 170.89 32.13 C 170.74 32.68, 170.62 33.04, 170.62 33.29 C 170.61 33.55, 170.69 33.58, 170.85 33.38 C 171.01 33.19, 171.18 32.84, 171.42 32.32 C 171.66 31.80, 171.80 31.47, 172.05 30.77 C 172.30 30.08, 172.45 29.65, 172.67 28.86 C 172.89 28.06, 173.02 27.59, 173.16 26.80 C 173.31 26.00, 173.36 25.54, 173.38 24.88 C 173.40 24.22, 173.35 23.92, 173.28 23.50 C 173.22 23.07, 173.15 22.90, 173.05 22.76 C 172.95 22.61, 172.85 22.63, 172.78 22.78"/>
<path d="M 188.19,8.52 C 188.12 8.65, 188.11 8.75, 188.09 9.15 C 188.07 9.54, 188.07 9.79, 188.10 10.49 C 188.12 11.19, 188.16 11.66, 188.22 12.64 C 188.27 13.61, 188.30 14.24, 188.38 15.36 C 188.45 16.48, 188.51 17.14, 188.60 18.25 C 188.69 19.35, 188.73 19.92, 188.84 20.89 C 188.95 21.85, 189.00 22.30, 189.14 23.06 C 189.29 23.81, 189.38 24.15, 189.57 24.65 C 189.76 25.15, 189.89 25.34, 190.09 25.57 C 190.28 25.80, 190.44 25.78, 190.56 25.80 C 190.67 25.83, 190.68 25.77, 190.65 25.68 C 190.62 25.59, 190.50 25.61, 190.40 25.37 C 190.29 25.12, 190.23 24.96, 190.11 24.48 C 189.98 24.00, 189.88 23.68, 189.76 22.95 C 189.65 22.21, 189.61 21.77, 189.52 20.82 C 189.44 19.87, 189.42 19.29, 189.35 18.19 C 189.29 17.09, 189.25 16.43, 189.19 15.31 C 189.14 14.19, 189.13 13.56, 189.07 12.59 C 189.01 11.61, 188.98 11.13, 188.90 10.43 C 188.82 9.73, 188.75 9.48, 188.66 9.09 C 188.56 8.71, 188.53 8.61, 188.44 8.49 C 188.35 8.38, 188.26 8.39, 188.19 8.52"/>
<path d="M 184.87,19.85 C 184.96 19.93, 185.01 19.96, 185.29 19.99 C 185.56 20.02, 185.78 20.06, 186.24 20.00 C 186.70 19.95, 186.98 19.91, 187.58 19.73 C 188.17 19.55, 188.55 19.43, 189.22 19.12 C 189.90 18.80, 190.28 18.60, 190.95 18.16 C 191.63 17.72, 191.98 17.46, 192.61 16.91 C 193.24 16.36, 193.56 16.04, 194.10 15.39 C 194.65 14.75, 194.91 14.38, 195.33 13.68 C 195.76 12.98, 195.95 12.59, 196.23 11.90 C 196.50 11.21, 196.60 10.82, 196.70 10.22 C 196.79 9.62, 196.79 9.29, 196.72 8.89 C 196.64 8.48, 196.51 8.30, 196.30 8.20 C 196.09 8.11, 195.91 8.13, 195.67 8.39 C 195.42 8.66, 195.27 8.89, 195.07 9.51 C 194.87 10.12, 194.77 10.59, 194.67 11.47 C 194.58 12.34, 194.58 12.89, 194.57 13.86 C 194.56 14.83, 194.58 15.38, 194.64 16.31 C 194.71 17.25, 194.76 17.73, 194.90 18.52 C 195.03 19.32, 195.13 19.69, 195.33 20.30 C 195.53 20.91, 195.65 21.17, 195.91 21.56 C 196.16 21.96, 196.30 22.10, 196.60 22.29 C 196.90 22.48, 197.08 22.54, 197.42 22.53 C 197.77 22.52, 197.97 22.47, 198.32 22.25 C 198.68 22.02, 198.84 21.82, 199.19 21.41 C 199.55 21.00, 199.74 20.70, 200.08 20.18 C 200.41 19.66, 200.58 19.30, 200.87 18.79 C 201.15 18.29, 201.30 18.02, 201.50 17.64 C 201.70 17.26, 201.77 17.06, 201.86 16.91 C 201.96 16.75, 201.95 16.76, 201.98 16.88 C 202.01 17.00, 201.98 17.15, 202.02 17.50 C 202.05 17.85, 202.06 18.13, 202.14 18.62 C 202.22 19.11, 202.27 19.43, 202.41 19.96 C 202.54 20.49, 202.62 20.79, 202.81 21.26 C 203.00 21.73, 203.10 21.96, 203.35 22.31 C 203.59 22.65, 203.74 22.80, 204.05 22.99 C 204.36 23.17, 204.55 23.22, 204.90 23.22 C 205.26 23.22, 205.45 23.17, 205.81 22.99 C 206.17 22.81, 206.36 22.68, 206.72 22.33 C 207.08 21.98, 207.27 21.75, 207.60 21.26 C 207.93 20.77, 208.09 20.44, 208.38 19.88 C 208.66 19.33, 208.83 19.00, 209.04 18.50 C 209.25 17.99, 209.34 17.67, 209.44 17.35 C 209.53 17.03, 209.50 16.91, 209.51 16.91 C 209.52 16.91, 209.48 17.04, 209.50 17.36 C 209.52 17.69, 209.53 18.00, 209.62 18.55 C 209.72 19.09, 209.79 19.49, 209.97 20.09 C 210.15 20.69, 210.27 21.03, 210.51 21.54 C 210.75 22.05, 210.88 22.28, 211.16 22.62 C 211.44 22.96, 211.59 23.09, 211.91 23.25 C 212.22 23.40, 212.41 23.43, 212.74 23.39 C 213.07 23.35, 213.26 23.27, 213.57 23.06 C 213.87 22.86, 214.03 22.71, 214.28 22.35 C 214.54 21.99, 214.65 21.74, 214.85 21.27 C 215.04 20.80, 215.12 20.52, 215.25 20.00 C 215.39 19.48, 215.45 19.16, 215.51 18.69 C 215.57 18.22, 215.56 17.93, 215.54 17.65 C 215.52 17.37, 215.45 17.27, 215.41 17.27 C 215.37 17.27, 215.34 17.36, 215.35 17.66 C 215.37 17.95, 215.38 18.23, 215.47 18.72 C 215.56 19.22, 215.64 19.58, 215.80 20.13 C 215.96 20.68, 216.06 21.01, 216.27 21.48 C 216.48 21.95, 216.58 22.17, 216.83 22.49 C 217.09 22.82, 217.21 22.94, 217.52 23.09 C 217.83 23.24, 218.02 23.27, 218.39 23.23 C 218.75 23.19, 218.97 23.11, 219.35 22.87 C 219.73 22.63, 219.93 22.45, 220.30 22.04 C 220.67 21.63, 220.83 21.34, 221.18 20.84 C 221.52 20.34, 221.70 20.03, 222.02 19.53 C 222.34 19.04, 222.51 18.75, 222.75 18.37 C 223.00 17.99, 223.11 17.81, 223.26 17.62 C 223.41 17.44, 223.44 17.39, 223.49 17.45 C 223.55 17.52, 223.52 17.63, 223.55 17.94 C 223.58 18.24, 223.57 18.52, 223.66 18.99 C 223.74 19.45, 223.82 19.77, 223.99 20.27 C 224.16 20.77, 224.25 21.07, 224.50 21.51 C 224.75 21.95, 224.89 22.19, 225.24 22.48 C 225.59 22.76, 225.82 22.85, 226.24 22.92 C 226.67 23.00, 226.91 22.98, 227.36 22.83 C 227.82 22.69, 228.07 22.55, 228.53 22.18 C 228.99 21.82, 229.22 21.59, 229.66 21.03 C 230.11 20.47, 230.32 20.13, 230.74 19.39 C 231.16 18.64, 231.38 18.18, 231.76 17.29 C 232.15 16.40, 232.34 15.87, 232.65 14.93 C 232.96 13.99, 233.09 13.47, 233.31 12.59 C 233.53 11.72, 233.62 11.27, 233.74 10.55 C 233.86 9.83, 233.90 9.48, 233.89 8.98 C 233.89 8.48, 233.86 8.28, 233.73 8.05 C 233.60 7.82, 233.47 7.74, 233.25 7.82 C 233.03 7.90, 232.86 8.02, 232.63 8.45 C 232.40 8.88, 232.28 9.25, 232.11 9.99 C 231.93 10.73, 231.86 11.24, 231.76 12.14 C 231.65 13.04, 231.61 13.60, 231.58 14.50 C 231.56 15.41, 231.56 15.89, 231.64 16.66 C 231.72 17.43, 231.79 17.80, 231.97 18.37 C 232.16 18.94, 232.30 19.16, 232.58 19.50 C 232.87 19.85, 233.05 19.95, 233.41 20.09 C 233.76 20.23, 233.97 20.26, 234.37 20.20 C 234.77 20.15, 234.99 20.05, 235.39 19.81 C 235.79 19.57, 235.99 19.39, 236.37 19.01 C 236.75 18.62, 236.95 18.37, 237.30 17.90 C 237.65 17.43, 237.84 17.12, 238.13 16.64 C 238.41 16.15, 238.56 15.87, 238.72 15.46 C 238.88 15.04, 238.93 14.83, 238.94 14.57 C 238.95 14.32, 238.90 14.21, 238.76 14.17 C 238.62 14.14, 238.48 14.18, 238.25 14.41 C 238.02 14.64, 237.82 14.86, 237.59 15.32 C 237.36 15.78, 237.26 16.13, 237.10 16.72 C 236.95 17.31, 236.87 17.66, 236.81 18.27 C 236.76 18.88, 236.73 19.24, 236.82 19.78 C 236.91 20.31, 237.00 20.56, 237.26 20.95 C 237.52 21.34, 237.71 21.50, 238.12 21.71 C 238.53 21.93, 238.81 21.98, 239.32 22.02 C 239.84 22.06, 240.13 22.02, 240.70 21.89 C 241.27 21.77, 241.58 21.65, 242.17 21.38 C 242.76 21.11, 243.09 20.91, 243.65 20.53 C 244.21 20.16, 244.49 19.92, 244.96 19.49 C 245.43 19.06, 245.65 18.80, 246.01 18.38 C 246.37 17.96, 246.55 17.72, 246.76 17.38 C 246.96 17.04, 247.00 16.82, 247.03 16.67 C 247.07 16.53, 246.99 16.51, 246.94 16.66 C 246.88 16.81, 246.79 17.01, 246.77 17.42 C 246.74 17.82, 246.74 18.14, 246.82 18.68 C 246.89 19.22, 246.98 19.58, 247.14 20.12 C 247.30 20.65, 247.41 20.93, 247.63 21.35 C 247.85 21.78, 247.97 21.97, 248.24 22.25 C 248.51 22.52, 248.68 22.62, 248.98 22.73 C 249.29 22.83, 249.47 22.82, 249.78 22.78 C 250.08 22.73, 250.23 22.67, 250.51 22.49 C 250.79 22.32, 250.93 22.19, 251.18 21.89 C 251.42 21.59, 251.54 21.38, 251.74 21.01 C 251.95 20.64, 252.04 20.42, 252.20 20.05 C 252.37 19.68, 252.44 19.45, 252.55 19.18 C 252.67 18.91, 252.69 18.77, 252.78 18.69 C 252.87 18.60, 252.89 18.61, 253.01 18.74 C 253.13 18.87, 253.21 19.04, 253.39 19.33 C 253.57 19.61, 253.69 19.81, 253.91 20.16 C 254.14 20.50, 254.27 20.72, 254.52 21.06 C 254.77 21.39, 254.88 21.58, 255.15 21.85 C 255.42 22.11, 255.56 22.24, 255.86 22.39 C 256.16 22.53, 256.33 22.58, 256.64 22.57 C 256.95 22.55, 257.11 22.49, 257.42 22.31 C 257.74 22.13, 257.91 22.00, 258.23 21.67 C 258.55 21.33, 258.73 21.10, 259.04 20.63 C 259.36 20.16, 259.51 19.84, 259.80 19.34 C 260.09 18.83, 260.24 18.55, 260.50 18.11 C 260.75 17.66, 260.89 17.41, 261.07 17.12 C 261.25 16.83, 261.31 16.72, 261.42 16.65 C 261.53 16.59, 261.53 16.63, 261.62 16.82 C 261.70 17.00, 261.72 17.21, 261.83 17.59 C 261.95 17.97, 262.00 18.25, 262.19 18.73 C 262.38 19.20, 262.50 19.50, 262.76 19.96 C 263.02 20.42, 263.18 20.66, 263.49 21.00 C 263.79 21.35, 263.93 21.48, 264.29 21.70 C 264.64 21.91, 264.84 22.01, 265.25 22.07 C 265.66 22.14, 265.92 22.12, 266.35 22.00 C 266.78 21.88, 266.98 21.76, 267.40 21.47 C 267.83 21.17, 268.04 20.97, 268.46 20.55 C 268.87 20.12, 269.10 19.85, 269.47 19.33 C 269.84 18.82, 270.04 18.49, 270.30 17.96 C 270.57 17.43, 270.70 17.14, 270.81 16.67 C 270.93 16.21, 270.95 15.98, 270.89 15.64 C 270.82 15.31, 270.71 15.16, 270.47 15.01 C 270.23 14.87, 270.03 14.85, 269.68 14.94 C 269.33 15.04, 269.10 15.17, 268.73 15.49 C 268.35 15.81, 268.13 16.07, 267.82 16.55 C 267.51 17.03, 267.35 17.36, 267.16 17.90 C 266.96 18.44, 266.87 18.76, 266.86 19.25 C 266.84 19.74, 266.89 20.00, 267.08 20.35 C 267.26 20.70, 267.43 20.85, 267.78 21.00 C 268.12 21.16, 268.36 21.18, 268.80 21.12 C 269.24 21.07, 269.51 20.98, 269.98 20.75 C 270.46 20.52, 270.73 20.32, 271.16 19.96 C 271.59 19.61, 271.80 19.37, 272.14 18.98 C 272.47 18.59, 272.64 18.33, 272.83 18.02 C 273.02 17.71, 273.04 17.51, 273.10 17.42 C 273.15 17.34, 273.09 17.35, 273.09 17.58 C 273.08 17.80, 273.07 18.02, 273.08 18.55 C 273.10 19.09, 273.11 19.47, 273.16 20.25 C 273.22 21.02, 273.27 21.52, 273.35 22.43 C 273.42 23.34, 273.48 23.85, 273.55 24.79 C 273.62 25.72, 273.66 26.19, 273.69 27.10 C 273.72 28.01, 273.73 28.50, 273.71 29.34 C 273.68 30.18, 273.64 30.58, 273.55 31.30 C 273.45 32.02, 273.40 32.35, 273.23 32.92 C 273.07 33.50, 272.97 33.76, 272.73 34.18 C 272.49 34.60, 272.34 34.76, 272.02 35.02 C 271.71 35.27, 271.51 35.34, 271.15 35.44 C 270.79 35.55, 270.58 35.56, 270.22 35.52 C 269.85 35.47, 269.66 35.41, 269.33 35.22 C 269.01 35.03, 268.82 34.88, 268.59 34.57 C 268.37 34.26, 268.26 34.08, 268.19 33.67 C 268.11 33.26, 268.10 33.03, 268.20 32.54 C 268.31 32.05, 268.42 31.76, 268.71 31.21 C 269.01 30.66, 269.22 30.36, 269.68 29.80 C 270.14 29.24, 270.42 28.94, 271.01 28.41 C 271.59 27.88, 271.94 27.61, 272.61 27.15 C 273.28 26.69, 273.66 26.48, 274.36 26.13 C 275.05 25.77, 275.43 25.61, 276.09 25.36 C 276.76 25.10, 277.09 25.01, 277.67 24.84 C 278.25 24.68, 278.53 24.64, 278.99 24.54 C 279.45 24.44, 279.65 24.41, 279.96 24.33 C 280.27 24.26, 280.44 24.23, 280.55 24.15 C 280.67 24.08, 280.67 24.00, 280.54 23.94 C 280.41 23.89, 280.24 23.87, 279.91 23.86 C 279.58 23.86, 279.36 23.86, 278.88 23.93 C 278.40 24.00, 278.10 24.06, 277.50 24.22 C 276.89 24.37, 276.55 24.47, 275.85 24.72 C 275.16 24.98, 274.77 25.13, 274.04 25.50 C 273.31 25.86, 272.91 26.08, 272.20 26.55 C 271.50 27.02, 271.14 27.31, 270.52 27.86 C 269.89 28.42, 269.59 28.73, 269.10 29.33 C 268.61 29.93, 268.38 30.26, 268.06 30.87 C 267.75 31.49, 267.63 31.82, 267.53 32.41 C 267.42 32.99, 267.44 33.29, 267.54 33.80 C 267.65 34.31, 267.76 34.56, 268.05 34.97 C 268.34 35.37, 268.58 35.57, 269.00 35.80 C 269.42 36.04, 269.68 36.11, 270.15 36.16 C 270.61 36.21, 270.87 36.18, 271.32 36.04 C 271.77 35.90, 272.01 35.79, 272.40 35.48 C 272.78 35.17, 272.96 34.96, 273.24 34.48 C 273.53 34.01, 273.64 33.72, 273.83 33.10 C 274.02 32.48, 274.08 32.14, 274.19 31.39 C 274.30 30.64, 274.35 30.23, 274.39 29.36 C 274.43 28.50, 274.41 28.01, 274.39 27.08 C 274.37 26.16, 274.34 25.68, 274.29 24.74 C 274.24 23.80, 274.21 23.29, 274.16 22.38 C 274.11 21.46, 274.10 20.96, 274.04 20.18 C 273.98 19.40, 273.97 19.02, 273.86 18.47 C 273.76 17.92, 273.69 17.69, 273.51 17.43 C 273.34 17.16, 273.22 17.12, 272.98 17.15 C 272.74 17.19, 272.61 17.34, 272.33 17.60 C 272.05 17.87, 271.91 18.12, 271.58 18.47 C 271.24 18.83, 271.05 19.04, 270.66 19.36 C 270.27 19.68, 270.02 19.84, 269.63 20.07 C 269.23 20.29, 269.01 20.38, 268.68 20.47 C 268.35 20.56, 268.19 20.59, 267.97 20.52 C 267.74 20.45, 267.65 20.37, 267.56 20.13 C 267.47 19.89, 267.45 19.70, 267.52 19.31 C 267.58 18.92, 267.68 18.64, 267.88 18.18 C 268.08 17.72, 268.24 17.43, 268.52 17.01 C 268.80 16.58, 269.00 16.37, 269.28 16.06 C 269.56 15.76, 269.72 15.63, 269.92 15.49 C 270.12 15.34, 270.20 15.31, 270.29 15.35 C 270.39 15.39, 270.42 15.46, 270.40 15.69 C 270.38 15.91, 270.34 16.09, 270.19 16.48 C 270.04 16.86, 269.92 17.14, 269.65 17.62 C 269.38 18.10, 269.19 18.40, 268.84 18.88 C 268.49 19.36, 268.28 19.62, 267.91 20.02 C 267.53 20.43, 267.34 20.62, 266.99 20.90 C 266.64 21.17, 266.48 21.26, 266.15 21.38 C 265.82 21.49, 265.64 21.50, 265.33 21.47 C 265.02 21.43, 264.87 21.38, 264.60 21.20 C 264.33 21.03, 264.23 20.91, 264.00 20.59 C 263.77 20.27, 263.66 20.04, 263.45 19.60 C 263.25 19.17, 263.16 18.88, 262.98 18.42 C 262.80 17.96, 262.75 17.68, 262.55 17.30 C 262.36 16.91, 262.24 16.70, 261.99 16.50 C 261.75 16.30, 261.60 16.25, 261.32 16.30 C 261.04 16.35, 260.89 16.45, 260.60 16.74 C 260.31 17.02, 260.17 17.28, 259.87 17.72 C 259.57 18.15, 259.42 18.44, 259.12 18.93 C 258.82 19.43, 258.65 19.74, 258.36 20.18 C 258.07 20.63, 257.93 20.85, 257.67 21.17 C 257.41 21.49, 257.29 21.61, 257.07 21.78 C 256.86 21.96, 256.79 22.01, 256.60 22.03 C 256.42 22.05, 256.33 22.01, 256.14 21.88 C 255.95 21.75, 255.84 21.65, 255.64 21.40 C 255.44 21.15, 255.35 20.98, 255.14 20.64 C 254.94 20.30, 254.84 20.06, 254.61 19.70 C 254.38 19.35, 254.26 19.13, 253.99 18.85 C 253.72 18.56, 253.55 18.40, 253.27 18.29 C 252.98 18.18, 252.82 18.20, 252.57 18.31 C 252.31 18.41, 252.19 18.56, 251.98 18.84 C 251.76 19.12, 251.69 19.36, 251.50 19.72 C 251.32 20.08, 251.24 20.29, 251.05 20.64 C 250.87 20.98, 250.77 21.18, 250.59 21.45 C 250.41 21.71, 250.32 21.82, 250.14 21.97 C 249.95 22.13, 249.87 22.17, 249.67 22.22 C 249.48 22.27, 249.36 22.29, 249.16 22.22 C 248.96 22.15, 248.85 22.09, 248.67 21.86 C 248.48 21.63, 248.39 21.46, 248.25 21.08 C 248.10 20.69, 248.03 20.42, 247.93 19.92 C 247.83 19.41, 247.82 19.06, 247.74 18.55 C 247.67 18.04, 247.64 17.75, 247.55 17.35 C 247.46 16.95, 247.42 16.74, 247.28 16.56 C 247.13 16.38, 247.02 16.35, 246.81 16.44 C 246.60 16.53, 246.50 16.71, 246.24 17.00 C 245.98 17.30, 245.85 17.54, 245.50 17.93 C 245.15 18.32, 244.93 18.56, 244.48 18.96 C 244.03 19.36, 243.76 19.57, 243.24 19.92 C 242.71 20.27, 242.40 20.45, 241.85 20.71 C 241.31 20.96, 241.03 21.06, 240.53 21.19 C 240.03 21.32, 239.78 21.34, 239.35 21.34 C 238.92 21.34, 238.70 21.32, 238.37 21.18 C 238.05 21.04, 237.92 20.94, 237.74 20.64 C 237.56 20.35, 237.51 20.15, 237.48 19.70 C 237.44 19.24, 237.48 18.92, 237.58 18.37 C 237.67 17.82, 237.76 17.49, 237.93 16.95 C 238.09 16.42, 238.24 16.13, 238.41 15.68 C 238.58 15.24, 238.71 15.02, 238.79 14.74 C 238.87 14.45, 238.85 14.33, 238.79 14.26 C 238.74 14.20, 238.65 14.25, 238.51 14.43 C 238.37 14.61, 238.30 14.79, 238.09 15.16 C 237.89 15.52, 237.76 15.79, 237.47 16.24 C 237.19 16.70, 237.00 16.99, 236.67 17.44 C 236.34 17.89, 236.16 18.12, 235.83 18.48 C 235.50 18.84, 235.32 18.99, 235.01 19.22 C 234.69 19.45, 234.54 19.54, 234.25 19.62 C 233.97 19.70, 233.84 19.71, 233.58 19.62 C 233.33 19.53, 233.20 19.47, 232.99 19.19 C 232.78 18.90, 232.68 18.72, 232.54 18.20 C 232.41 17.69, 232.36 17.34, 232.33 16.61 C 232.29 15.88, 232.30 15.41, 232.36 14.54 C 232.41 13.67, 232.49 13.12, 232.61 12.25 C 232.74 11.38, 232.85 10.89, 232.99 10.18 C 233.12 9.47, 233.20 9.12, 233.29 8.69 C 233.38 8.26, 233.39 8.14, 233.41 8.03 C 233.44 7.92, 233.42 7.95, 233.40 8.13 C 233.38 8.32, 233.38 8.49, 233.32 8.95 C 233.26 9.41, 233.23 9.74, 233.09 10.43 C 232.95 11.13, 232.86 11.56, 232.62 12.41 C 232.39 13.26, 232.25 13.77, 231.94 14.69 C 231.62 15.60, 231.43 16.12, 231.06 16.99 C 230.68 17.85, 230.47 18.30, 230.08 19.02 C 229.68 19.73, 229.48 20.05, 229.08 20.57 C 228.68 21.09, 228.46 21.30, 228.08 21.63 C 227.69 21.97, 227.49 22.09, 227.15 22.23 C 226.80 22.38, 226.63 22.40, 226.33 22.36 C 226.03 22.32, 225.88 22.26, 225.64 22.02 C 225.40 21.79, 225.31 21.59, 225.14 21.19 C 224.96 20.79, 224.90 20.51, 224.78 20.03 C 224.65 19.55, 224.62 19.25, 224.50 18.80 C 224.37 18.34, 224.33 18.07, 224.16 17.74 C 223.99 17.42, 223.89 17.27, 223.65 17.17 C 223.41 17.07, 223.26 17.09, 222.97 17.25 C 222.68 17.40, 222.52 17.58, 222.20 17.95 C 221.88 18.32, 221.71 18.62, 221.38 19.10 C 221.04 19.59, 220.85 19.90, 220.52 20.39 C 220.19 20.87, 220.03 21.15, 219.71 21.53 C 219.40 21.92, 219.23 22.07, 218.95 22.29 C 218.66 22.52, 218.52 22.60, 218.28 22.67 C 218.04 22.74, 217.94 22.74, 217.74 22.64 C 217.55 22.54, 217.47 22.45, 217.32 22.17 C 217.16 21.89, 217.09 21.68, 216.96 21.23 C 216.83 20.78, 216.78 20.45, 216.66 19.91 C 216.54 19.37, 216.51 19.00, 216.36 18.51 C 216.21 18.02, 216.10 17.73, 215.90 17.46 C 215.71 17.18, 215.57 17.11, 215.39 17.13 C 215.21 17.14, 215.12 17.26, 214.99 17.55 C 214.86 17.83, 214.85 18.11, 214.75 18.56 C 214.65 19.01, 214.62 19.32, 214.49 19.80 C 214.37 20.29, 214.29 20.56, 214.13 20.99 C 213.97 21.42, 213.87 21.63, 213.68 21.94 C 213.49 22.26, 213.38 22.37, 213.18 22.55 C 212.97 22.74, 212.86 22.81, 212.66 22.86 C 212.45 22.91, 212.34 22.92, 212.14 22.80 C 211.94 22.68, 211.84 22.58, 211.65 22.27 C 211.45 21.97, 211.35 21.75, 211.18 21.26 C 211.02 20.78, 210.95 20.44, 210.82 19.86 C 210.68 19.28, 210.64 18.89, 210.49 18.35 C 210.34 17.82, 210.25 17.51, 210.06 17.18 C 209.87 16.85, 209.75 16.73, 209.53 16.71 C 209.31 16.69, 209.18 16.79, 208.95 17.09 C 208.71 17.38, 208.60 17.68, 208.34 18.17 C 208.09 18.66, 207.95 18.99, 207.67 19.52 C 207.39 20.05, 207.24 20.37, 206.95 20.83 C 206.65 21.29, 206.49 21.50, 206.19 21.82 C 205.90 22.13, 205.75 22.25, 205.49 22.42 C 205.23 22.59, 205.12 22.65, 204.89 22.67 C 204.65 22.69, 204.54 22.66, 204.34 22.53 C 204.13 22.39, 204.03 22.27, 203.86 21.97 C 203.69 21.67, 203.61 21.46, 203.48 21.02 C 203.35 20.58, 203.29 20.30, 203.20 19.79 C 203.11 19.28, 203.11 18.96, 203.01 18.46 C 202.91 17.97, 202.86 17.68, 202.70 17.32 C 202.55 16.95, 202.45 16.79, 202.24 16.64 C 202.02 16.49, 201.88 16.46, 201.62 16.59 C 201.36 16.72, 201.22 16.91, 200.94 17.27 C 200.65 17.63, 200.51 17.90, 200.19 18.39 C 199.88 18.89, 199.70 19.23, 199.38 19.73 C 199.05 20.24, 198.87 20.53, 198.58 20.93 C 198.29 21.33, 198.18 21.51, 197.94 21.73 C 197.70 21.95, 197.60 22.00, 197.39 22.03 C 197.17 22.06, 197.07 22.04, 196.87 21.89 C 196.66 21.75, 196.56 21.64, 196.38 21.29 C 196.19 20.93, 196.08 20.69, 195.92 20.12 C 195.75 19.54, 195.67 19.19, 195.56 18.42 C 195.46 17.65, 195.42 17.18, 195.38 16.27 C 195.34 15.36, 195.35 14.82, 195.38 13.88 C 195.42 12.94, 195.46 12.40, 195.55 11.57 C 195.65 10.73, 195.75 10.29, 195.86 9.71 C 195.96 9.12, 196.02 8.90, 196.08 8.64 C 196.14 8.38, 196.16 8.34, 196.18 8.39 C 196.20 8.45, 196.20 8.58, 196.18 8.92 C 196.15 9.26, 196.16 9.55, 196.05 10.10 C 195.93 10.64, 195.85 11.00, 195.59 11.64 C 195.33 12.29, 195.14 12.66, 194.74 13.32 C 194.33 13.97, 194.08 14.33, 193.57 14.94 C 193.05 15.55, 192.75 15.85, 192.14 16.37 C 191.54 16.89, 191.20 17.12, 190.55 17.53 C 189.90 17.94, 189.54 18.12, 188.90 18.40 C 188.26 18.68, 187.90 18.78, 187.34 18.94 C 186.79 19.10, 186.53 19.12, 186.11 19.21 C 185.68 19.30, 185.48 19.32, 185.23 19.40 C 184.98 19.48, 184.92 19.52, 184.85 19.61 C 184.77 19.70, 184.78 19.77, 184.87 19.85"/>
<path d="M 304.68,16.35 C 304.65 16.22, 304.55 16.11, 304.35 15.97 C 304.15 15.84, 304.00 15.75, 303.67 15.68 C 303.34 15.60, 303.12 15.55, 302.71 15.60 C 302.29 15.66, 302.05 15.70, 301.59 15.94 C 301.13 16.18, 300.87 16.35, 300.40 16.79 C 299.94 17.23, 299.68 17.54, 299.27 18.15 C 298.87 18.77, 298.65 19.18, 298.36 19.88 C 298.08 20.58, 297.95 21.00, 297.85 21.65 C 297.75 22.30, 297.75 22.63, 297.86 23.12 C 297.96 23.61, 298.08 23.82, 298.36 24.10 C 298.64 24.39, 298.85 24.49, 299.26 24.54 C 299.67 24.58, 299.96 24.52, 300.41 24.34 C 300.86 24.17, 301.08 24.01, 301.53 23.66 C 301.98 23.30, 302.23 23.07, 302.66 22.56 C 303.08 22.04, 303.30 21.71, 303.66 21.08 C 304.03 20.45, 304.21 20.06, 304.50 19.39 C 304.78 18.73, 304.93 18.36, 305.10 17.76 C 305.28 17.17, 305.34 16.85, 305.37 16.44 C 305.41 16.03, 305.36 15.85, 305.28 15.69 C 305.19 15.54, 305.08 15.54, 304.94 15.68 C 304.81 15.83, 304.68 16.00, 304.59 16.41 C 304.51 16.82, 304.47 17.16, 304.51 17.74 C 304.55 18.32, 304.63 18.70, 304.78 19.31 C 304.93 19.93, 305.01 20.28, 305.26 20.81 C 305.51 21.35, 305.67 21.60, 306.01 22.00 C 306.36 22.39, 306.56 22.57, 306.99 22.81 C 307.41 23.05, 307.65 23.14, 308.15 23.20 C 308.64 23.27, 308.93 23.23, 309.47 23.13 C 310.00 23.02, 310.29 22.93, 310.82 22.67 C 311.36 22.42, 311.62 22.25, 312.14 21.86 C 312.66 21.48, 312.92 21.23, 313.41 20.75 C 313.89 20.27, 314.15 19.98, 314.57 19.46 C 314.99 18.94, 315.17 18.65, 315.51 18.15 C 315.85 17.66, 316.00 17.40, 316.26 16.99 C 316.51 16.58, 316.62 16.38, 316.78 16.10 C 316.94 15.81, 316.96 15.70, 317.05 15.58 C 317.14 15.47, 317.15 15.47, 317.22 15.52 C 317.30 15.58, 317.31 15.65, 317.43 15.87 C 317.54 16.08, 317.63 16.23, 317.82 16.59 C 318.02 16.94, 318.16 17.19, 318.40 17.65 C 318.65 18.12, 318.81 18.40, 319.06 18.92 C 319.31 19.43, 319.46 19.73, 319.65 20.22 C 319.84 20.71, 319.92 20.95, 319.99 21.37 C 320.07 21.80, 320.08 22.00, 320.02 22.35 C 319.97 22.69, 319.92 22.86, 319.73 23.11 C 319.54 23.37, 319.39 23.45, 319.08 23.63 C 318.77 23.80, 318.57 23.87, 318.18 23.98 C 317.79 24.10, 317.53 24.13, 317.15 24.20 C 316.77 24.27, 316.56 24.28, 316.27 24.33 C 315.97 24.38, 315.79 24.37, 315.66 24.44 C 315.54 24.51, 315.52 24.58, 315.64 24.67 C 315.76 24.77, 315.94 24.85, 316.26 24.90 C 316.58 24.96, 316.82 24.99, 317.25 24.94 C 317.68 24.90, 317.97 24.84, 318.41 24.69 C 318.84 24.54, 319.07 24.44, 319.43 24.19 C 319.80 23.94, 319.98 23.80, 320.22 23.45 C 320.45 23.11, 320.53 22.88, 320.61 22.45 C 320.69 22.01, 320.69 21.78, 320.63 21.28 C 320.57 20.79, 320.50 20.52, 320.33 19.98 C 320.16 19.44, 320.01 19.13, 319.78 18.59 C 319.54 18.04, 319.39 17.75, 319.14 17.27 C 318.89 16.78, 318.77 16.53, 318.52 16.16 C 318.28 15.80, 318.15 15.65, 317.92 15.44 C 317.68 15.24, 317.57 15.18, 317.34 15.15 C 317.11 15.11, 316.99 15.14, 316.79 15.26 C 316.58 15.39, 316.52 15.50, 316.30 15.77 C 316.09 16.05, 315.98 16.24, 315.71 16.64 C 315.44 17.03, 315.29 17.28, 314.95 17.76 C 314.61 18.23, 314.42 18.50, 314.01 19.00 C 313.60 19.49, 313.35 19.77, 312.89 20.22 C 312.43 20.68, 312.18 20.92, 311.70 21.29 C 311.23 21.65, 310.99 21.80, 310.52 22.03 C 310.04 22.27, 309.78 22.34, 309.32 22.45 C 308.86 22.56, 308.62 22.61, 308.22 22.57 C 307.81 22.54, 307.63 22.48, 307.29 22.28 C 306.94 22.09, 306.77 21.94, 306.50 21.59 C 306.22 21.24, 306.09 21.03, 305.91 20.54 C 305.72 20.05, 305.67 19.72, 305.58 19.15 C 305.49 18.58, 305.49 18.21, 305.45 17.68 C 305.41 17.14, 305.43 16.85, 305.39 16.46 C 305.35 16.08, 305.33 15.90, 305.26 15.75 C 305.19 15.59, 305.12 15.57, 305.02 15.68 C 304.92 15.80, 304.89 15.95, 304.77 16.32 C 304.65 16.70, 304.62 16.99, 304.43 17.55 C 304.24 18.10, 304.09 18.46, 303.81 19.09 C 303.53 19.72, 303.35 20.10, 303.00 20.70 C 302.66 21.29, 302.46 21.60, 302.07 22.08 C 301.69 22.55, 301.45 22.76, 301.06 23.08 C 300.67 23.41, 300.49 23.53, 300.13 23.71 C 299.78 23.89, 299.57 23.97, 299.29 23.98 C 299.00 23.99, 298.87 23.96, 298.70 23.77 C 298.53 23.58, 298.45 23.43, 298.42 23.03 C 298.39 22.63, 298.40 22.35, 298.53 21.78 C 298.66 21.21, 298.79 20.82, 299.07 20.18 C 299.35 19.54, 299.56 19.16, 299.93 18.59 C 300.30 18.02, 300.54 17.73, 300.93 17.33 C 301.33 16.93, 301.55 16.78, 301.92 16.58 C 302.29 16.38, 302.47 16.36, 302.79 16.33 C 303.11 16.30, 303.25 16.37, 303.52 16.42 C 303.78 16.46, 303.90 16.52, 304.11 16.56 C 304.31 16.60, 304.43 16.65, 304.54 16.60 C 304.66 16.56, 304.72 16.47, 304.68 16.35"/>
<path d="M 338.10,15.56 C 338.03 15.71, 338.02 15.87, 338.02 16.27 C 338.02 16.68, 338.02 16.99, 338.10 17.58 C 338.18 18.17, 338.27 18.59, 338.42 19.23 C 338.56 19.88, 338.66 20.24, 338.85 20.80 C 339.04 21.36, 339.15 21.63, 339.36 22.03 C 339.57 22.44, 339.71 22.59, 339.91 22.82 C 340.10 23.05, 340.18 23.08, 340.32 23.16 C 340.45 23.25, 340.52 23.26, 340.60 23.25 C 340.67 23.24, 340.69 23.19, 340.69 23.12 C 340.68 23.06, 340.63 23.04, 340.56 22.92 C 340.49 22.80, 340.46 22.75, 340.34 22.52 C 340.21 22.29, 340.09 22.15, 339.93 21.77 C 339.77 21.38, 339.68 21.13, 339.55 20.59 C 339.41 20.05, 339.37 19.69, 339.25 19.06 C 339.13 18.42, 339.06 18.01, 338.94 17.44 C 338.82 16.86, 338.76 16.56, 338.64 16.18 C 338.52 15.79, 338.47 15.64, 338.36 15.52 C 338.25 15.39, 338.16 15.41, 338.10 15.56"/>
<path d="M 338.01,9.37 C 337.91 9.41, 337.84 9.46, 337.84 9.52 C 337.83 9.58, 337.89 9.65, 338.00 9.68 C 338.10 9.72, 338.26 9.73, 338.37 9.69 C 338.47 9.66, 338.54 9.57, 338.53 9.50 C 338.53 9.43, 338.44 9.36, 338.33 9.34 C 338.23 9.31, 338.11 9.33, 338.01 9.37"/>
<path d="M 345.79,7.44 C 345.73 7.59, 345.73 7.75, 345.73 8.16 C 345.73 8.57, 345.75 8.84, 345.79 9.50 C 345.82 10.15, 345.86 10.60, 345.90 11.45 C 345.94 12.29, 345.95 12.80, 345.98 13.74 C 346.02 14.68, 346.02 15.22, 346.06 16.14 C 346.11 17.07, 346.12 17.56, 346.20 18.38 C 346.27 19.20, 346.31 19.58, 346.43 20.24 C 346.56 20.90, 346.64 21.19, 346.84 21.68 C 347.05 22.16, 347.18 22.37, 347.45 22.68 C 347.73 22.98, 347.91 23.08, 348.23 23.19 C 348.56 23.31, 348.75 23.31, 349.09 23.25 C 349.43 23.19, 349.64 23.10, 349.95 22.88 C 350.26 22.66, 350.45 22.50, 350.63 22.15 C 350.81 21.79, 350.87 21.34, 350.84 21.10 C 350.82 20.87, 350.66 20.83, 350.49 20.96 C 350.31 21.10, 350.17 21.49, 349.98 21.77 C 349.79 22.05, 349.74 22.18, 349.54 22.36 C 349.33 22.54, 349.19 22.60, 348.96 22.67 C 348.73 22.74, 348.62 22.77, 348.40 22.70 C 348.18 22.63, 348.06 22.57, 347.86 22.32 C 347.65 22.08, 347.54 21.90, 347.38 21.46 C 347.22 21.02, 347.15 20.76, 347.05 20.13 C 346.95 19.50, 346.93 19.13, 346.88 18.33 C 346.83 17.52, 346.82 17.04, 346.80 16.12 C 346.78 15.20, 346.78 14.67, 346.77 13.72 C 346.76 12.78, 346.78 12.27, 346.74 11.41 C 346.71 10.55, 346.68 10.09, 346.59 9.42 C 346.51 8.76, 346.43 8.48, 346.32 8.08 C 346.21 7.67, 346.16 7.53, 346.05 7.40 C 345.94 7.27, 345.85 7.29, 345.79 7.44"/>
<path d="M 345.83,17.16 C 345.95 17.23, 346.04 17.26, 346.37 17.27 C 346.69 17.27, 346.91 17.28, 347.45 17.21 C 347.99 17.14, 348.43 17.07, 349.08 16.92 C 349.74 16.76, 350.14 16.64, 350.70 16.45 C 351.27 16.26, 351.66 16.13, 351.89 15.99 C 352.11 15.84, 352.09 15.76, 351.83 15.71 C 351.56 15.67, 351.14 15.70, 350.56 15.75 C 349.97 15.81, 349.55 15.89, 348.89 16.01 C 348.24 16.13, 347.81 16.22, 347.29 16.36 C 346.76 16.50, 346.57 16.59, 346.27 16.70 C 345.98 16.81, 345.89 16.82, 345.80 16.92 C 345.72 17.01, 345.72 17.09, 345.83 17.16"/>
<path d="M 376.52,17.69 C 376.55 17.57, 376.53 17.47, 376.43 17.26 C 376.33 17.05, 376.26 16.89, 376.02 16.66 C 375.79 16.43, 375.61 16.27, 375.24 16.10 C 374.88 15.94, 374.66 15.85, 374.20 15.84 C 373.74 15.84, 373.47 15.88, 372.94 16.09 C 372.42 16.29, 372.10 16.47, 371.56 16.88 C 371.01 17.30, 370.70 17.61, 370.24 18.17 C 369.78 18.73, 369.55 19.10, 369.25 19.69 C 368.95 20.27, 368.82 20.59, 368.74 21.08 C 368.65 21.58, 368.66 21.83, 368.81 22.17 C 368.95 22.50, 369.12 22.64, 369.47 22.76 C 369.82 22.87, 370.09 22.84, 370.56 22.72 C 371.03 22.60, 371.31 22.47, 371.83 22.15 C 372.36 21.84, 372.67 21.60, 373.19 21.13 C 373.72 20.67, 374.01 20.34, 374.46 19.82 C 374.92 19.30, 375.16 18.97, 375.48 18.54 C 375.81 18.11, 375.91 17.87, 376.08 17.68 C 376.24 17.49, 376.25 17.43, 376.31 17.58 C 376.37 17.72, 376.34 17.90, 376.38 18.41 C 376.42 18.91, 376.43 19.30, 376.49 20.09 C 376.55 20.88, 376.61 21.39, 376.69 22.36 C 376.77 23.32, 376.82 23.88, 376.88 24.92 C 376.94 25.96, 376.97 26.53, 376.98 27.56 C 376.99 28.59, 376.98 29.14, 376.93 30.07 C 376.88 31.01, 376.85 31.46, 376.73 32.24 C 376.61 33.01, 376.52 33.37, 376.33 33.95 C 376.14 34.53, 376.02 34.76, 375.77 35.14 C 375.52 35.53, 375.36 35.68, 375.07 35.86 C 374.77 36.05, 374.61 36.09, 374.30 36.08 C 373.99 36.07, 373.82 36.04, 373.52 35.84 C 373.22 35.63, 373.05 35.47, 372.80 35.07 C 372.55 34.67, 372.40 34.41, 372.26 33.83 C 372.12 33.26, 372.07 32.92, 372.12 32.17 C 372.16 31.43, 372.24 30.98, 372.49 30.13 C 372.74 29.27, 372.92 28.79, 373.36 27.92 C 373.81 27.04, 374.10 26.59, 374.70 25.74 C 375.31 24.89, 375.67 24.45, 376.39 23.68 C 377.11 22.91, 377.53 22.53, 378.31 21.88 C 379.09 21.22, 379.52 20.92, 380.30 20.41 C 381.07 19.90, 381.47 19.67, 382.18 19.32 C 382.89 18.97, 383.26 18.84, 383.86 18.66 C 384.46 18.47, 384.73 18.42, 385.17 18.39 C 385.61 18.35, 385.79 18.40, 386.07 18.48 C 386.34 18.56, 386.42 18.65, 386.55 18.79 C 386.67 18.94, 386.67 19.04, 386.69 19.18 C 386.71 19.33, 386.68 19.42, 386.64 19.54 C 386.61 19.66, 386.56 19.72, 386.51 19.80 C 386.46 19.87, 386.43 19.91, 386.38 19.92 C 386.32 19.94, 386.29 19.92, 386.22 19.87 C 386.16 19.82, 386.12 19.78, 386.03 19.66 C 385.94 19.54, 385.89 19.42, 385.76 19.26 C 385.63 19.10, 385.54 19.02, 385.39 18.88 C 385.25 18.73, 385.19 18.62, 385.01 18.52 C 384.83 18.41, 384.71 18.36, 384.52 18.37 C 384.33 18.38, 384.20 18.42, 384.05 18.57 C 383.91 18.71, 383.84 18.84, 383.79 19.09 C 383.75 19.33, 383.75 19.50, 383.83 19.80 C 383.91 20.10, 383.99 20.27, 384.19 20.57 C 384.39 20.87, 384.52 21.06, 384.84 21.31 C 385.15 21.57, 385.36 21.69, 385.76 21.83 C 386.17 21.96, 386.42 21.98, 386.87 21.98 C 387.32 21.99, 387.57 21.97, 388.03 21.87 C 388.49 21.77, 388.73 21.70, 389.16 21.50 C 389.60 21.29, 389.82 21.14, 390.19 20.85 C 390.57 20.55, 390.75 20.39, 391.03 20.03 C 391.32 19.67, 391.44 19.46, 391.61 19.05 C 391.78 18.65, 391.83 18.41, 391.87 18.00 C 391.90 17.59, 391.88 17.36, 391.79 17.01 C 391.70 16.65, 391.60 16.47, 391.40 16.21 C 391.20 15.95, 391.05 15.84, 390.79 15.70 C 390.52 15.55, 390.35 15.49, 390.07 15.50 C 389.78 15.51, 389.60 15.57, 389.35 15.73 C 389.10 15.90, 388.96 16.03, 388.82 16.33 C 388.69 16.62, 388.66 16.83, 388.68 17.20 C 388.70 17.58, 388.74 17.81, 388.92 18.20 C 389.10 18.58, 389.23 18.79, 389.56 19.13 C 389.89 19.46, 390.11 19.63, 390.55 19.88 C 391.00 20.13, 391.26 20.24, 391.77 20.37 C 392.28 20.51, 392.57 20.54, 393.12 20.57 C 393.66 20.60, 393.96 20.59, 394.51 20.52 C 395.07 20.45, 395.34 20.39, 395.88 20.23 C 396.42 20.07, 396.70 19.96, 397.21 19.73 C 397.72 19.49, 397.98 19.35, 398.44 19.05 C 398.90 18.75, 399.12 18.57, 399.52 18.22 C 399.92 17.86, 400.12 17.66, 400.43 17.28 C 400.74 16.90, 400.89 16.68, 401.08 16.31 C 401.28 15.94, 401.37 15.75, 401.42 15.43 C 401.48 15.11, 401.47 14.94, 401.38 14.71 C 401.29 14.47, 401.18 14.37, 400.97 14.26 C 400.76 14.16, 400.59 14.14, 400.33 14.20 C 400.08 14.25, 399.90 14.34, 399.68 14.55 C 399.46 14.76, 399.34 14.93, 399.23 15.25 C 399.11 15.57, 399.08 15.77, 399.10 16.14 C 399.12 16.51, 399.16 16.71, 399.32 17.10 C 399.48 17.48, 399.60 17.68, 399.90 18.07 C 400.20 18.45, 400.41 18.65, 400.81 19.02 C 401.21 19.39, 401.46 19.57, 401.91 19.92 C 402.36 20.26, 402.63 20.42, 403.05 20.73 C 403.47 21.04, 403.69 21.19, 404.02 21.46 C 404.35 21.73, 404.50 21.86, 404.70 22.08 C 404.89 22.31, 404.96 22.42, 405.00 22.60 C 405.05 22.78, 405.02 22.85, 404.91 23.00 C 404.81 23.14, 404.70 23.20, 404.46 23.34 C 404.21 23.47, 404.05 23.56, 403.69 23.68 C 403.34 23.80, 403.12 23.88, 402.68 23.96 C 402.25 24.05, 401.98 24.06, 401.51 24.11 C 401.05 24.15, 400.78 24.15, 400.35 24.17 C 399.93 24.19, 399.59 24.13, 399.39 24.19 C 399.19 24.26, 399.16 24.36, 399.34 24.49 C 399.53 24.61, 399.87 24.75, 400.31 24.83 C 400.75 24.90, 401.06 24.89, 401.56 24.87 C 402.07 24.85, 402.35 24.81, 402.83 24.72 C 403.31 24.62, 403.56 24.56, 403.96 24.39 C 404.37 24.23, 404.56 24.12, 404.84 23.90 C 405.13 23.67, 405.25 23.54, 405.38 23.26 C 405.51 22.98, 405.54 22.81, 405.50 22.51 C 405.45 22.20, 405.37 22.04, 405.17 21.73 C 404.96 21.42, 404.80 21.28, 404.46 20.96 C 404.12 20.65, 403.91 20.48, 403.49 20.15 C 403.07 19.83, 402.80 19.66, 402.37 19.32 C 401.94 18.98, 401.70 18.79, 401.32 18.45 C 400.94 18.11, 400.75 17.93, 400.48 17.60 C 400.20 17.28, 400.09 17.12, 399.96 16.82 C 399.82 16.52, 399.80 16.38, 399.79 16.11 C 399.78 15.85, 399.83 15.72, 399.91 15.51 C 399.99 15.30, 400.08 15.21, 400.20 15.06 C 400.33 14.92, 400.42 14.87, 400.54 14.80 C 400.66 14.72, 400.73 14.68, 400.80 14.69 C 400.88 14.70, 400.92 14.72, 400.93 14.84 C 400.94 14.96, 400.95 15.06, 400.87 15.29 C 400.78 15.52, 400.71 15.67, 400.52 15.98 C 400.32 16.29, 400.19 16.49, 399.90 16.84 C 399.61 17.18, 399.43 17.38, 399.06 17.70 C 398.69 18.03, 398.50 18.20, 398.07 18.47 C 397.64 18.75, 397.39 18.88, 396.92 19.10 C 396.44 19.32, 396.19 19.42, 395.69 19.57 C 395.19 19.71, 394.94 19.77, 394.43 19.83 C 393.92 19.89, 393.65 19.90, 393.16 19.87 C 392.66 19.84, 392.41 19.81, 391.96 19.69 C 391.51 19.56, 391.29 19.47, 390.91 19.25 C 390.54 19.04, 390.35 18.89, 390.08 18.62 C 389.82 18.35, 389.72 18.18, 389.58 17.89 C 389.45 17.59, 389.43 17.41, 389.39 17.15 C 389.36 16.88, 389.36 16.75, 389.42 16.57 C 389.48 16.39, 389.56 16.34, 389.70 16.25 C 389.83 16.15, 389.92 16.10, 390.08 16.10 C 390.24 16.09, 390.33 16.13, 390.49 16.22 C 390.66 16.32, 390.77 16.39, 390.90 16.58 C 391.04 16.77, 391.11 16.89, 391.17 17.16 C 391.23 17.43, 391.24 17.61, 391.20 17.94 C 391.17 18.27, 391.13 18.46, 390.99 18.80 C 390.85 19.13, 390.75 19.31, 390.51 19.61 C 390.26 19.91, 390.10 20.05, 389.77 20.30 C 389.44 20.55, 389.24 20.68, 388.87 20.86 C 388.49 21.03, 388.28 21.09, 387.88 21.17 C 387.48 21.26, 387.26 21.27, 386.88 21.27 C 386.50 21.27, 386.30 21.26, 385.98 21.16 C 385.67 21.05, 385.54 20.95, 385.31 20.75 C 385.08 20.55, 384.99 20.39, 384.84 20.15 C 384.70 19.92, 384.65 19.78, 384.58 19.58 C 384.52 19.38, 384.53 19.28, 384.51 19.13 C 384.49 18.98, 384.49 18.91, 384.48 18.85 C 384.47 18.78, 384.44 18.78, 384.46 18.82 C 384.48 18.85, 384.51 18.91, 384.58 19.02 C 384.66 19.13, 384.72 19.22, 384.84 19.37 C 384.95 19.52, 385.01 19.60, 385.15 19.76 C 385.28 19.93, 385.34 20.06, 385.52 20.19 C 385.69 20.33, 385.80 20.38, 386.00 20.43 C 386.20 20.49, 386.32 20.50, 386.51 20.46 C 386.70 20.41, 386.82 20.34, 386.97 20.19 C 387.11 20.04, 387.18 19.91, 387.23 19.69 C 387.28 19.47, 387.29 19.32, 387.22 19.07 C 387.16 18.83, 387.11 18.68, 386.92 18.46 C 386.72 18.24, 386.58 18.12, 386.23 17.99 C 385.87 17.86, 385.65 17.81, 385.14 17.82 C 384.63 17.84, 384.33 17.88, 383.69 18.06 C 383.04 18.25, 382.65 18.37, 381.90 18.73 C 381.15 19.09, 380.74 19.32, 379.93 19.84 C 379.12 20.37, 378.67 20.67, 377.86 21.34 C 377.05 22.01, 376.62 22.40, 375.87 23.20 C 375.12 23.99, 374.75 24.44, 374.11 25.32 C 373.48 26.19, 373.17 26.66, 372.71 27.58 C 372.24 28.50, 372.03 29.00, 371.77 29.91 C 371.50 30.82, 371.42 31.31, 371.38 32.13 C 371.34 32.95, 371.39 33.34, 371.56 34.01 C 371.72 34.67, 371.89 34.98, 372.21 35.46 C 372.54 35.93, 372.77 36.14, 373.19 36.37 C 373.61 36.61, 373.86 36.65, 374.30 36.64 C 374.73 36.64, 374.97 36.57, 375.36 36.33 C 375.74 36.10, 375.93 35.90, 376.24 35.47 C 376.55 35.03, 376.68 34.77, 376.90 34.15 C 377.13 33.52, 377.22 33.15, 377.37 32.34 C 377.51 31.54, 377.55 31.07, 377.62 30.12 C 377.69 29.16, 377.70 28.61, 377.71 27.56 C 377.71 26.52, 377.68 25.94, 377.64 24.89 C 377.60 23.84, 377.57 23.28, 377.51 22.30 C 377.45 21.32, 377.44 20.81, 377.35 20.01 C 377.26 19.20, 377.22 18.81, 377.06 18.28 C 376.90 17.75, 376.80 17.54, 376.55 17.35 C 376.31 17.16, 376.15 17.18, 375.83 17.33 C 375.51 17.47, 375.34 17.68, 374.95 18.08 C 374.56 18.47, 374.34 18.80, 373.88 19.30 C 373.42 19.79, 373.15 20.10, 372.66 20.53 C 372.17 20.97, 371.87 21.18, 371.41 21.48 C 370.95 21.79, 370.71 21.91, 370.34 22.07 C 369.97 22.23, 369.80 22.30, 369.57 22.29 C 369.35 22.28, 369.27 22.23, 369.22 22.02 C 369.17 21.81, 369.19 21.63, 369.32 21.23 C 369.46 20.84, 369.58 20.55, 369.89 20.04 C 370.19 19.53, 370.42 19.18, 370.85 18.68 C 371.28 18.17, 371.57 17.88, 372.04 17.50 C 372.52 17.11, 372.80 16.95, 373.22 16.75 C 373.65 16.55, 373.85 16.51, 374.19 16.52 C 374.52 16.52, 374.65 16.63, 374.91 16.78 C 375.16 16.93, 375.27 17.08, 375.48 17.25 C 375.69 17.43, 375.78 17.54, 375.94 17.65 C 376.10 17.77, 376.18 17.84, 376.29 17.85 C 376.41 17.85, 376.49 17.81, 376.52 17.69"/>
</svg>
