<svg xmlns="http://www.w3.org/2000/svg" viewBox="0 0 413.8 54.1" fill="currentColor" stroke="none" role="img">
<path d="M 14.05,24.33 C 13.92 24.24, 13.76 24.19, 13.41 24.20 C 13.07 24.20, 12.85 24.19, 12.34 24.34 C 11.83 24.50, 11.48 24.58, 10.85 24.99 C 10.22 25.39, 9.86 25.65, 9.21 26.36 C 8.55 27.07, 8.16 27.56, 7.58 28.53 C 7.00 29.50, 6.71 30.14, 6.32 31.21 C 5.94 32.28, 5.77 32.94, 5.66 33.88 C 5.55 34.83, 5.58 35.31, 5.76 35.95 C 5.95 36.58, 6.15 36.86, 6.58 37.07 C 7.01 37.28, 7.34 37.28, 7.93 37.02 C 8.51 36.76, 8.87 36.46, 9.50 35.77 C 10.12 35.08, 10.46 34.58, 11.04 33.59 C 11.63 32.60, 11.92 31.96, 12.41 30.83 C 12.90 29.70, 13.15 29.00, 13.49 27.94 C 13.84 26.89, 14.01 26.28, 14.13 25.55 C 14.26 24.81, 14.24 24.48, 14.14 24.26 C 14.04 24.04, 13.86 24.09, 13.63 24.45 C 13.41 24.82, 13.20 25.24, 13.02 26.09 C 12.84 26.93, 12.75 27.59, 12.75 28.68 C 12.74 29.77, 12.78 30.45, 13.00 31.52 C 13.22 32.59, 13.35 33.20, 13.84 34.04 C 14.32 34.88, 14.76 35.25, 15.44 35.72 C 16.13 36.20, 16.60 36.29, 17.25 36.42 C 17.90 36.55, 18.41 36.44, 18.71 36.37 C 19.00 36.31, 18.99 36.20, 18.72 36.11 C 18.46 36.01, 17.97 36.07, 17.38 35.89 C 16.80 35.71, 16.40 35.65, 15.81 35.21 C 15.21 34.78, 14.82 34.49, 14.42 33.72 C 14.01 32.95, 13.91 32.39, 13.76 31.38 C 13.61 30.38, 13.65 29.72, 13.67 28.69 C 13.69 27.66, 13.78 27.03, 13.86 26.21 C 13.93 25.39, 14.01 24.97, 14.03 24.58 C 14.05 24.19, 14.05 24.10, 13.95 24.26 C 13.85 24.42, 13.77 24.71, 13.53 25.39 C 13.29 26.08, 13.14 26.67, 12.77 27.70 C 12.40 28.72, 12.17 29.41, 11.68 30.51 C 11.19 31.60, 10.89 32.22, 10.33 33.18 C 9.78 34.13, 9.44 34.60, 8.91 35.27 C 8.37 35.94, 8.09 36.23, 7.66 36.52 C 7.23 36.82, 7.03 36.86, 6.75 36.73 C 6.47 36.59, 6.36 36.38, 6.28 35.83 C 6.20 35.28, 6.19 34.85, 6.34 33.98 C 6.50 33.12, 6.67 32.49, 7.05 31.48 C 7.44 30.48, 7.72 29.86, 8.27 28.94 C 8.82 28.02, 9.19 27.55, 9.79 26.89 C 10.39 26.23, 10.71 26.01, 11.27 25.64 C 11.83 25.27, 12.14 25.22, 12.58 25.05 C 13.03 24.88, 13.20 24.87, 13.50 24.78 C 13.80 24.69, 13.95 24.70, 14.06 24.60 C 14.17 24.51, 14.18 24.41, 14.05 24.33"/>
<path d="M 38.17,8.23 C 38.10 8.38, 38.08 8.49, 38.03 8.96 C 37.98 9.43, 37.96 9.73, 37.93 10.58 C 37.89 11.44, 37.89 11.99, 37.85 13.23 C 37.81 14.47, 37.77 15.25, 37.73 16.79 C 37.69 18.33, 37.65 19.24, 37.63 20.92 C 37.61 22.60, 37.60 23.55, 37.63 25.19 C 37.67 26.84, 37.67 27.74, 37.79 29.14 C 37.91 30.54, 37.98 31.22, 38.23 32.19 C 38.49 33.16, 38.65 33.57, 39.05 34.01 C 39.46 34.46, 39.73 34.53, 40.26 34.41 C 40.80 34.29, 41.13 34.04, 41.74 33.41 C 42.35 32.78, 42.69 32.25, 43.31 31.27 C 43.94 30.28, 44.28 29.57, 44.85 28.48 C 45.42 27.39, 45.75 26.66, 46.18 25.80 C 46.61 24.94, 46.78 24.51, 47.01 24.17 C 47.24 23.83, 47.26 23.85, 47.32 24.11 C 47.39 24.38, 47.32 24.75, 47.31 25.50 C 47.30 26.24, 47.23 26.87, 47.28 27.84 C 47.33 28.81, 47.39 29.45, 47.57 30.34 C 47.75 31.24, 47.87 31.70, 48.19 32.30 C 48.51 32.90, 48.72 33.13, 49.17 33.34 C 49.62 33.55, 49.90 33.56, 50.45 33.34 C 51.00 33.12, 51.33 32.86, 51.91 32.23 C 52.49 31.60, 52.80 31.10, 53.34 30.20 C 53.88 29.30, 54.15 28.69, 54.61 27.75 C 55.07 26.81, 55.31 26.21, 55.62 25.51 C 55.94 24.80, 56.04 24.45, 56.18 24.21 C 56.32 23.96, 56.31 24.00, 56.34 24.27 C 56.37 24.55, 56.31 24.89, 56.33 25.57 C 56.36 26.26, 56.35 26.82, 56.45 27.70 C 56.54 28.58, 56.62 29.15, 56.81 29.98 C 56.99 30.81, 57.10 31.24, 57.36 31.84 C 57.63 32.44, 57.79 32.71, 58.14 32.97 C 58.49 33.23, 58.72 33.26, 59.13 33.14 C 59.55 33.02, 59.78 32.83, 60.22 32.36 C 60.67 31.90, 60.92 31.52, 61.36 30.81 C 61.80 30.09, 62.07 29.53, 62.42 28.78 C 62.78 28.03, 62.94 27.54, 63.16 27.05 C 63.37 26.56, 63.41 26.36, 63.50 26.32 C 63.58 26.27, 63.55 26.41, 63.59 26.82 C 63.63 27.24, 63.57 27.68, 63.68 28.39 C 63.80 29.10, 63.89 29.64, 64.18 30.37 C 64.46 31.10, 64.67 31.50, 65.13 32.03 C 65.59 32.56, 65.86 32.82, 66.47 33.02 C 67.07 33.22, 67.46 33.24, 68.17 33.05 C 68.87 32.86, 69.28 32.63, 69.99 32.06 C 70.70 31.49, 71.07 31.06, 71.71 30.22 C 72.34 29.37, 72.67 28.80, 73.16 27.83 C 73.65 26.85, 73.88 26.27, 74.14 25.34 C 74.40 24.41, 74.48 23.90, 74.48 23.18 C 74.47 22.45, 74.39 22.12, 74.13 21.71 C 73.88 21.30, 73.63 21.17, 73.18 21.14 C 72.74 21.12, 72.41 21.20, 71.91 21.59 C 71.40 21.97, 71.08 22.31, 70.65 23.07 C 70.22 23.82, 69.99 24.36, 69.74 25.36 C 69.49 26.36, 69.39 26.99, 69.39 28.07 C 69.39 29.14, 69.44 29.78, 69.74 30.72 C 70.04 31.66, 70.28 32.15, 70.89 32.78 C 71.49 33.41, 71.91 33.66, 72.76 33.88 C 73.61 34.10, 74.23 34.03, 75.14 33.90 C 76.05 33.78, 76.58 33.57, 77.31 33.27 C 78.03 32.97, 78.50 32.64, 78.77 32.42 C 79.03 32.20, 78.99 32.12, 78.65 32.16 C 78.32 32.21, 77.82 32.45, 77.10 32.65 C 76.37 32.86, 75.87 33.05, 75.03 33.18 C 74.20 33.30, 73.65 33.43, 72.91 33.27 C 72.17 33.11, 71.82 32.92, 71.32 32.38 C 70.82 31.83, 70.63 31.39, 70.39 30.53 C 70.16 29.67, 70.13 29.07, 70.15 28.08 C 70.18 27.08, 70.28 26.48, 70.52 25.56 C 70.76 24.63, 70.99 24.15, 71.35 23.45 C 71.71 22.76, 71.97 22.46, 72.34 22.08 C 72.70 21.70, 72.90 21.60, 73.19 21.57 C 73.47 21.54, 73.62 21.60, 73.75 21.92 C 73.89 22.23, 73.93 22.51, 73.87 23.15 C 73.81 23.80, 73.74 24.27, 73.46 25.13 C 73.18 26.00, 72.95 26.55, 72.47 27.48 C 72.00 28.40, 71.67 28.95, 71.08 29.75 C 70.49 30.55, 70.14 30.96, 69.52 31.50 C 68.90 32.04, 68.56 32.25, 67.98 32.45 C 67.41 32.65, 67.12 32.66, 66.65 32.49 C 66.18 32.33, 65.98 32.11, 65.65 31.63 C 65.31 31.14, 65.20 30.76, 64.98 30.08 C 64.76 29.40, 64.72 28.89, 64.55 28.21 C 64.37 27.53, 64.32 27.09, 64.10 26.67 C 63.89 26.25, 63.76 26.08, 63.46 26.09 C 63.17 26.10, 62.98 26.27, 62.62 26.72 C 62.25 27.18, 62.05 27.65, 61.64 28.38 C 61.24 29.11, 60.99 29.66, 60.60 30.36 C 60.21 31.07, 60.00 31.44, 59.68 31.91 C 59.35 32.38, 59.22 32.58, 58.97 32.73 C 58.72 32.87, 58.62 32.87, 58.42 32.65 C 58.22 32.42, 58.13 32.18, 57.96 31.62 C 57.80 31.06, 57.71 30.64, 57.60 29.84 C 57.48 29.03, 57.47 28.47, 57.38 27.60 C 57.28 26.72, 57.25 26.17, 57.10 25.48 C 56.96 24.79, 56.88 24.43, 56.65 24.13 C 56.42 23.83, 56.28 23.76, 55.95 23.97 C 55.62 24.17, 55.41 24.50, 55.00 25.18 C 54.58 25.86, 54.35 26.46, 53.87 27.38 C 53.39 28.29, 53.12 28.89, 52.61 29.77 C 52.10 30.64, 51.81 31.12, 51.33 31.74 C 50.85 32.36, 50.61 32.62, 50.22 32.86 C 49.82 33.11, 49.65 33.12, 49.36 32.96 C 49.06 32.80, 48.93 32.61, 48.73 32.06 C 48.53 31.51, 48.46 31.07, 48.36 30.22 C 48.25 29.36, 48.27 28.74, 48.21 27.79 C 48.15 26.83, 48.18 26.21, 48.05 25.44 C 47.93 24.68, 47.85 24.27, 47.59 23.96 C 47.33 23.65, 47.15 23.60, 46.74 23.90 C 46.33 24.19, 46.06 24.60, 45.53 25.43 C 45.00 26.27, 44.68 27.00, 44.09 28.08 C 43.50 29.15, 43.16 29.84, 42.58 30.82 C 42.00 31.80, 41.70 32.31, 41.21 32.95 C 40.72 33.60, 40.51 33.87, 40.14 34.03 C 39.78 34.20, 39.63 34.16, 39.36 33.76 C 39.10 33.37, 38.99 33.00, 38.81 32.06 C 38.63 31.13, 38.57 30.46, 38.48 29.09 C 38.39 27.71, 38.39 26.81, 38.38 25.18 C 38.36 23.55, 38.37 22.60, 38.41 20.93 C 38.44 19.26, 38.48 18.35, 38.54 16.81 C 38.59 15.28, 38.65 14.50, 38.68 13.25 C 38.72 12.01, 38.73 11.45, 38.72 10.59 C 38.70 9.73, 38.65 9.43, 38.59 8.95 C 38.53 8.48, 38.50 8.37, 38.42 8.22 C 38.33 8.08, 38.25 8.08, 38.17 8.23"/>
<path d="M 101.49,23.57 C 101.48 23.44, 101.43 23.29, 101.24 23.11 C 101.04 22.93, 100.90 22.74, 100.51 22.66 C 100.13 22.57, 99.84 22.53, 99.33 22.69 C 98.81 22.85, 98.47 22.97, 97.93 23.45 C 97.39 23.93, 97.07 24.30, 96.63 25.09 C 96.18 25.88, 95.93 26.44, 95.69 27.40 C 95.45 28.36, 95.39 28.97, 95.44 29.89 C 95.48 30.80, 95.58 31.31, 95.90 31.97 C 96.23 32.64, 96.50 32.93, 97.06 33.20 C 97.61 33.47, 98.00 33.49, 98.67 33.31 C 99.35 33.13, 99.76 32.90, 100.43 32.29 C 101.10 31.69, 101.48 31.21, 102.02 30.30 C 102.56 29.39, 102.82 28.76, 103.14 27.74 C 103.45 26.72, 103.56 26.11, 103.60 25.21 C 103.63 24.31, 103.55 23.85, 103.32 23.24 C 103.10 22.63, 102.85 22.40, 102.46 22.16 C 102.07 21.92, 101.75 21.93, 101.36 22.04 C 100.98 22.15, 100.71 22.36, 100.52 22.71 C 100.33 23.05, 100.28 23.37, 100.43 23.77 C 100.57 24.17, 100.76 24.44, 101.24 24.70 C 101.71 24.96, 102.07 25.08, 102.81 25.08 C 103.55 25.07, 104.02 25.01, 104.92 24.67 C 105.82 24.32, 106.34 24.07, 107.32 23.36 C 108.29 22.65, 108.84 22.16, 109.80 21.13 C 110.75 20.09, 111.25 19.43, 112.08 18.17 C 112.91 16.90, 113.31 16.13, 113.94 14.79 C 114.57 13.45, 114.85 12.69, 115.23 11.46 C 115.60 10.23, 115.71 9.60, 115.82 8.65 C 115.93 7.70, 115.91 7.27, 115.78 6.72 C 115.65 6.16, 115.49 5.95, 115.16 5.88 C 114.82 5.81, 114.54 5.89, 114.11 6.36 C 113.68 6.83, 113.42 7.18, 112.99 8.24 C 112.56 9.29, 112.33 10.01, 111.94 11.64 C 111.55 13.28, 111.35 14.31, 111.04 16.40 C 110.73 18.50, 110.61 19.75, 110.41 22.12 C 110.22 24.49, 110.15 25.86, 110.06 28.27 C 109.96 30.68, 109.95 31.99, 109.94 34.17 C 109.92 36.35, 109.94 37.45, 109.98 39.17 C 110.01 40.88, 110.03 41.65, 110.12 42.76 C 110.21 43.86, 110.33 44.30, 110.42 44.68 C 110.51 45.07, 110.55 44.68, 110.58 44.68 C 110.61 44.68, 110.56 44.68, 110.58 44.67 C 110.60 44.67, 110.65 45.05, 110.67 44.66 C 110.69 44.27, 110.70 43.83, 110.70 42.73 C 110.69 41.63, 110.64 40.87, 110.63 39.16 C 110.62 37.45, 110.61 36.35, 110.65 34.18 C 110.68 32.00, 110.70 30.70, 110.81 28.30 C 110.92 25.90, 110.98 24.54, 111.19 22.19 C 111.40 19.83, 111.53 18.59, 111.84 16.52 C 112.15 14.45, 112.37 13.44, 112.75 11.83 C 113.12 10.23, 113.36 9.54, 113.72 8.51 C 114.08 7.48, 114.27 7.17, 114.55 6.69 C 114.83 6.21, 114.95 6.10, 115.11 6.12 C 115.27 6.14, 115.32 6.29, 115.34 6.78 C 115.35 7.27, 115.36 7.67, 115.21 8.56 C 115.05 9.46, 114.95 10.07, 114.57 11.25 C 114.18 12.44, 113.90 13.18, 113.28 14.47 C 112.65 15.77, 112.26 16.52, 111.45 17.75 C 110.64 18.98, 110.14 19.61, 109.23 20.61 C 108.31 21.60, 107.78 22.07, 106.86 22.74 C 105.95 23.41, 105.46 23.64, 104.65 23.96 C 103.83 24.28, 103.41 24.31, 102.79 24.34 C 102.16 24.37, 101.89 24.27, 101.52 24.11 C 101.16 23.96, 101.06 23.79, 100.96 23.56 C 100.85 23.34, 100.90 23.18, 101.01 22.97 C 101.12 22.76, 101.27 22.60, 101.51 22.52 C 101.75 22.43, 101.96 22.36, 102.22 22.54 C 102.48 22.72, 102.66 22.88, 102.79 23.41 C 102.93 23.93, 102.99 24.35, 102.91 25.17 C 102.83 25.99, 102.72 26.56, 102.40 27.50 C 102.08 28.45, 101.82 29.04, 101.33 29.89 C 100.83 30.74, 100.49 31.19, 99.92 31.76 C 99.36 32.33, 99.03 32.56, 98.50 32.75 C 97.97 32.95, 97.69 32.96, 97.28 32.75 C 96.87 32.55, 96.67 32.31, 96.45 31.73 C 96.23 31.16, 96.16 30.70, 96.16 29.87 C 96.16 29.05, 96.23 28.48, 96.46 27.60 C 96.69 26.72, 96.93 26.20, 97.33 25.48 C 97.72 24.76, 98.00 24.43, 98.44 24.02 C 98.88 23.60, 99.16 23.52, 99.55 23.38 C 99.94 23.25, 100.11 23.30, 100.38 23.34 C 100.65 23.38, 100.70 23.51, 100.89 23.60 C 101.07 23.69, 101.17 23.78, 101.29 23.78 C 101.41 23.78, 101.50 23.71, 101.49 23.57"/>
<path d="M 105.65,30.24 C 105.76 30.27, 105.80 30.21, 106.08 30.18 C 106.35 30.14, 106.50 30.12, 107.01 30.04 C 107.51 29.96, 107.85 29.91, 108.59 29.77 C 109.34 29.63, 109.81 29.54, 110.73 29.36 C 111.64 29.18, 112.25 29.06, 113.16 28.86 C 114.07 28.66, 114.57 28.55, 115.27 28.37 C 115.98 28.19, 116.42 28.10, 116.70 27.97 C 116.98 27.84, 116.97 27.76, 116.66 27.72 C 116.36 27.68, 115.90 27.70, 115.17 27.77 C 114.44 27.84, 113.93 27.92, 113.01 28.07 C 112.09 28.22, 111.48 28.35, 110.57 28.53 C 109.65 28.70, 109.18 28.79, 108.43 28.94 C 107.69 29.09, 107.35 29.13, 106.84 29.27 C 106.33 29.42, 106.15 29.50, 105.89 29.65 C 105.63 29.80, 105.58 29.90, 105.53 30.02 C 105.49 30.14, 105.54 30.20, 105.65 30.24"/>
<path d="M 135.66,21.11 C 135.58 21.26, 135.54 21.38, 135.50 21.85 C 135.45 22.33, 135.44 22.66, 135.43 23.49 C 135.42 24.32, 135.43 24.91, 135.45 25.99 C 135.47 27.07, 135.47 27.77, 135.52 28.90 C 135.58 30.02, 135.59 30.70, 135.72 31.63 C 135.85 32.55, 136.03 33.16, 136.17 33.53 C 136.32 33.90, 136.40 33.88, 136.43 33.49 C 136.47 33.10, 136.37 32.50, 136.35 31.58 C 136.33 30.65, 136.35 30.00, 136.35 28.88 C 136.34 27.76, 136.35 27.06, 136.33 25.98 C 136.32 24.90, 136.32 24.30, 136.27 23.47 C 136.21 22.64, 136.15 22.31, 136.07 21.84 C 136.00 21.36, 135.99 21.25, 135.90 21.10 C 135.82 20.96, 135.74 20.96, 135.66 21.11"/>
<path d="M 136.96,14.10 C 137.00 14.04, 136.95 13.99, 136.89 14.02 C 136.82 14.05, 136.67 14.18, 136.63 14.24 C 136.59 14.30, 136.63 14.35, 136.70 14.32 C 136.76 14.29, 136.92 14.16, 136.96 14.10"/>
<path d="M 140.59,22.23 C 140.54 22.43, 140.59 22.68, 140.62 23.19 C 140.65 23.69, 140.68 24.02, 140.74 24.74 C 140.80 25.46, 140.88 25.96, 140.94 26.80 C 141.01 27.65, 141.01 28.14, 141.05 28.96 C 141.10 29.78, 141.08 30.25, 141.17 30.91 C 141.25 31.57, 141.29 31.91, 141.46 32.27 C 141.64 32.62, 141.76 32.75, 142.04 32.68 C 142.31 32.61, 142.49 32.45, 142.83 31.92 C 143.17 31.40, 143.36 30.91, 143.75 30.05 C 144.14 29.18, 144.35 28.55, 144.77 27.60 C 145.19 26.65, 145.45 26.08, 145.86 25.31 C 146.26 24.55, 146.49 24.16, 146.80 23.75 C 147.11 23.35, 147.22 23.24, 147.41 23.28 C 147.61 23.32, 147.64 23.50, 147.76 23.96 C 147.87 24.41, 147.89 24.80, 147.98 25.56 C 148.07 26.32, 148.10 26.86, 148.21 27.75 C 148.32 28.64, 148.37 29.19, 148.53 30.01 C 148.70 30.83, 148.77 31.28, 149.04 31.86 C 149.31 32.44, 149.49 32.71, 149.90 32.90 C 150.30 33.09, 150.57 33.08, 151.06 32.80 C 151.55 32.51, 151.84 32.24, 152.36 31.48 C 152.87 30.72, 153.16 30.16, 153.65 29.00 C 154.14 27.83, 154.39 27.05, 154.81 25.64 C 155.23 24.23, 155.43 23.39, 155.76 21.95 C 156.09 20.50, 156.24 19.70, 156.47 18.42 C 156.69 17.14, 156.79 16.50, 156.88 15.54 C 156.98 14.59, 157.00 14.13, 156.95 13.64 C 156.90 13.16, 156.80 13.03, 156.63 13.13 C 156.45 13.23, 156.29 13.44, 156.08 14.14 C 155.88 14.84, 155.76 15.42, 155.62 16.62 C 155.48 17.81, 155.44 18.62, 155.38 20.10 C 155.32 21.57, 155.31 22.50, 155.33 24.01 C 155.36 25.53, 155.40 26.37, 155.50 27.66 C 155.60 28.96, 155.66 29.57, 155.84 30.48 C 156.02 31.39, 156.12 31.76, 156.39 32.20 C 156.65 32.65, 156.82 32.75, 157.17 32.70 C 157.52 32.64, 157.72 32.45, 158.12 31.93 C 158.52 31.41, 158.75 30.95, 159.16 30.09 C 159.57 29.24, 159.78 28.63, 160.18 27.64 C 160.59 26.64, 160.80 26.02, 161.18 25.11 C 161.55 24.19, 161.77 23.73, 162.08 23.08 C 162.39 22.43, 162.52 22.17, 162.72 21.86 C 162.91 21.55, 162.94 21.49, 163.03 21.52 C 163.12 21.54, 163.12 21.68, 163.16 22.00 C 163.19 22.32, 163.20 22.56, 163.22 23.12 C 163.25 23.67, 163.24 24.07, 163.28 24.77 C 163.31 25.47, 163.33 25.91, 163.40 26.63 C 163.48 27.35, 163.51 27.76, 163.65 28.37 C 163.80 28.98, 163.88 29.26, 164.12 29.67 C 164.36 30.09, 164.51 30.24, 164.86 30.42 C 165.22 30.61, 165.45 30.63, 165.89 30.58 C 166.33 30.52, 166.61 30.41, 167.06 30.14 C 167.52 29.87, 167.81 29.62, 168.18 29.23 C 168.55 28.83, 168.71 28.56, 168.93 28.18 C 169.15 27.80, 169.25 27.53, 169.28 27.33 C 169.31 27.13, 169.23 27.09, 169.06 27.18 C 168.89 27.28, 168.72 27.51, 168.43 27.80 C 168.13 28.10, 167.96 28.32, 167.61 28.65 C 167.25 28.99, 167.01 29.23, 166.64 29.50 C 166.28 29.77, 166.09 29.89, 165.77 30.00 C 165.46 30.10, 165.31 30.11, 165.08 30.00 C 164.85 29.88, 164.76 29.77, 164.61 29.42 C 164.46 29.07, 164.42 28.81, 164.33 28.24 C 164.25 27.66, 164.23 27.27, 164.19 26.57 C 164.15 25.86, 164.16 25.44, 164.13 24.73 C 164.10 24.02, 164.13 23.62, 164.04 23.03 C 163.95 22.45, 163.87 22.17, 163.68 21.82 C 163.49 21.47, 163.35 21.32, 163.08 21.27 C 162.82 21.22, 162.69 21.27, 162.37 21.58 C 162.05 21.88, 161.88 22.13, 161.50 22.78 C 161.13 23.42, 160.90 23.89, 160.47 24.80 C 160.05 25.70, 159.82 26.32, 159.39 27.31 C 158.97 28.29, 158.73 28.88, 158.37 29.73 C 158.00 30.59, 157.82 31.05, 157.57 31.59 C 157.32 32.13, 157.26 32.35, 157.09 32.44 C 156.93 32.53, 156.88 32.44, 156.75 32.03 C 156.62 31.62, 156.55 31.27, 156.44 30.38 C 156.33 29.50, 156.27 28.89, 156.21 27.62 C 156.15 26.34, 156.12 25.50, 156.13 24.01 C 156.13 22.51, 156.17 21.60, 156.24 20.13 C 156.32 18.67, 156.41 17.88, 156.51 16.70 C 156.60 15.53, 156.68 14.96, 156.72 14.25 C 156.77 13.55, 156.77 13.32, 156.74 13.19 C 156.70 13.07, 156.64 13.17, 156.54 13.62 C 156.44 14.08, 156.40 14.52, 156.24 15.46 C 156.09 16.39, 156.01 17.03, 155.77 18.29 C 155.52 19.56, 155.36 20.35, 155.01 21.77 C 154.66 23.19, 154.46 24.02, 154.03 25.40 C 153.60 26.78, 153.34 27.54, 152.87 28.67 C 152.41 29.81, 152.14 30.34, 151.72 31.08 C 151.30 31.82, 151.09 32.08, 150.76 32.38 C 150.43 32.67, 150.31 32.71, 150.08 32.56 C 149.84 32.41, 149.76 32.18, 149.60 31.64 C 149.45 31.11, 149.40 30.68, 149.29 29.88 C 149.18 29.08, 149.16 28.54, 149.07 27.65 C 148.97 26.76, 148.96 26.21, 148.80 25.43 C 148.65 24.65, 148.55 24.24, 148.29 23.75 C 148.02 23.25, 147.85 23.05, 147.47 22.98 C 147.10 22.91, 146.87 23.00, 146.42 23.39 C 145.97 23.78, 145.70 24.17, 145.21 24.94 C 144.72 25.70, 144.43 26.28, 143.97 27.23 C 143.51 28.18, 143.25 28.81, 142.90 29.69 C 142.55 30.57, 142.41 31.06, 142.21 31.62 C 142.02 32.17, 141.99 32.36, 141.93 32.47 C 141.86 32.58, 141.89 32.48, 141.88 32.15 C 141.87 31.83, 141.88 31.50, 141.86 30.86 C 141.85 30.21, 141.84 29.75, 141.83 28.93 C 141.81 28.11, 141.83 27.60, 141.78 26.75 C 141.72 25.89, 141.65 25.38, 141.55 24.65 C 141.44 23.91, 141.37 23.58, 141.23 23.08 C 141.10 22.59, 140.99 22.34, 140.86 22.17 C 140.73 22.00, 140.63 22.03, 140.59 22.23"/>
<path d="M 172.15,28.56 C 172.05 28.69, 172.03 28.85, 171.94 29.21 C 171.85 29.56, 171.82 29.80, 171.71 30.34 C 171.59 30.89, 171.53 31.24, 171.38 31.95 C 171.24 32.67, 171.14 33.13, 170.97 33.91 C 170.79 34.69, 170.67 35.14, 170.51 35.85 C 170.36 36.56, 170.27 36.93, 170.20 37.45 C 170.12 37.98, 170.09 38.25, 170.12 38.47 C 170.15 38.68, 170.21 38.69, 170.33 38.52 C 170.46 38.34, 170.54 38.08, 170.72 37.59 C 170.90 37.09, 171.03 36.73, 171.24 36.03 C 171.45 35.33, 171.56 34.87, 171.76 34.09 C 171.95 33.31, 172.06 32.85, 172.20 32.12 C 172.35 31.40, 172.41 31.04, 172.48 30.47 C 172.55 29.90, 172.56 29.65, 172.54 29.27 C 172.53 28.89, 172.50 28.72, 172.42 28.58 C 172.34 28.44, 172.24 28.44, 172.15 28.56"/>
<path d="M 193.30,9.43 C 193.20 9.57, 193.16 9.67, 193.05 10.15 C 192.94 10.62, 192.84 10.91, 192.73 11.80 C 192.62 12.69, 192.58 13.28, 192.48 14.57 C 192.38 15.87, 192.31 16.70, 192.23 18.27 C 192.15 19.85, 192.11 20.81, 192.08 22.44 C 192.05 24.07, 192.04 24.99, 192.06 26.44 C 192.08 27.88, 192.11 28.61, 192.18 29.67 C 192.25 30.72, 192.32 31.12, 192.43 31.69 C 192.53 32.27, 192.60 32.35, 192.68 32.53 C 192.76 32.72, 192.78 32.61, 192.82 32.62 C 192.85 32.63, 192.84 32.63, 192.85 32.60 C 192.87 32.58, 192.88 32.69, 192.89 32.50 C 192.90 32.30, 192.92 32.21, 192.91 31.64 C 192.89 31.07, 192.83 30.68, 192.81 29.64 C 192.78 28.59, 192.77 27.87, 192.79 26.43 C 192.80 25.00, 192.81 24.08, 192.86 22.46 C 192.92 20.84, 192.96 19.88, 193.05 18.32 C 193.15 16.76, 193.24 15.93, 193.33 14.64 C 193.42 13.35, 193.46 12.76, 193.52 11.87 C 193.57 10.99, 193.60 10.70, 193.61 10.21 C 193.61 9.73, 193.60 9.62, 193.54 9.46 C 193.47 9.31, 193.39 9.30, 193.30 9.43"/>
<path d="M 188.08,23.64 C 188.11 23.76, 188.14 23.89, 188.39 24.05 C 188.63 24.22, 188.81 24.38, 189.31 24.48 C 189.80 24.58, 190.14 24.65, 190.85 24.56 C 191.55 24.48, 192.01 24.40, 192.83 24.05 C 193.65 23.70, 194.10 23.44, 194.96 22.82 C 195.83 22.20, 196.30 21.81, 197.14 20.95 C 197.97 20.10, 198.41 19.59, 199.14 18.55 C 199.86 17.51, 200.23 16.88, 200.79 15.77 C 201.34 14.66, 201.58 14.01, 201.90 13.00 C 202.22 12.00, 202.32 11.47, 202.38 10.74 C 202.44 10.01, 202.37 9.66, 202.21 9.35 C 202.05 9.04, 201.86 8.98, 201.58 9.20 C 201.29 9.41, 201.09 9.68, 200.80 10.44 C 200.52 11.19, 200.37 11.77, 200.15 12.99 C 199.94 14.20, 199.86 15.01, 199.73 16.49 C 199.61 17.98, 199.57 18.88, 199.54 20.40 C 199.51 21.92, 199.51 22.78, 199.58 24.09 C 199.65 25.41, 199.71 26.06, 199.88 26.98 C 200.05 27.90, 200.16 28.26, 200.45 28.71 C 200.73 29.16, 200.91 29.23, 201.30 29.21 C 201.68 29.19, 201.92 29.02, 202.36 28.61 C 202.80 28.20, 203.06 27.81, 203.49 27.17 C 203.91 26.52, 204.14 26.03, 204.48 25.38 C 204.82 24.73, 204.98 24.32, 205.20 23.91 C 205.43 23.50, 205.50 23.34, 205.60 23.32 C 205.70 23.31, 205.67 23.44, 205.71 23.84 C 205.75 24.24, 205.71 24.66, 205.79 25.32 C 205.87 25.99, 205.93 26.48, 206.12 27.17 C 206.32 27.86, 206.44 28.27, 206.76 28.77 C 207.07 29.27, 207.26 29.50, 207.71 29.68 C 208.15 29.86, 208.45 29.87, 208.99 29.66 C 209.52 29.45, 209.83 29.19, 210.39 28.62 C 210.95 28.05, 211.25 27.58, 211.78 26.79 C 212.32 26.00, 212.63 25.47, 213.08 24.67 C 213.52 23.87, 213.73 23.33, 214.00 22.79 C 214.27 22.26, 214.34 22.03, 214.42 21.98 C 214.51 21.93, 214.45 22.10, 214.40 22.55 C 214.36 23.00, 214.25 23.44, 214.20 24.23 C 214.15 25.01, 214.11 25.61, 214.17 26.45 C 214.23 27.30, 214.29 27.84, 214.49 28.45 C 214.70 29.07, 214.89 29.27, 215.19 29.53 C 215.48 29.79, 215.70 29.76, 215.97 29.74 C 216.24 29.72, 216.44 29.54, 216.53 29.43 C 216.62 29.33, 216.54 29.22, 216.42 29.21 C 216.31 29.20, 216.14 29.37, 215.95 29.38 C 215.77 29.38, 215.66 29.45, 215.50 29.23 C 215.34 29.01, 215.23 28.86, 215.15 28.29 C 215.07 27.73, 215.11 27.23, 215.09 26.41 C 215.08 25.60, 215.12 25.02, 215.09 24.23 C 215.06 23.45, 215.06 22.99, 214.93 22.50 C 214.79 22.00, 214.69 21.79, 214.40 21.78 C 214.11 21.77, 213.89 21.96, 213.48 22.45 C 213.07 22.95, 212.84 23.47, 212.36 24.25 C 211.88 25.02, 211.59 25.55, 211.08 26.32 C 210.57 27.09, 210.28 27.54, 209.81 28.10 C 209.35 28.67, 209.12 28.92, 208.74 29.15 C 208.36 29.38, 208.18 29.39, 207.89 29.25 C 207.61 29.12, 207.51 28.93, 207.33 28.47 C 207.14 28.01, 207.11 27.63, 206.97 26.97 C 206.84 26.31, 206.81 25.83, 206.66 25.17 C 206.52 24.52, 206.46 24.10, 206.25 23.68 C 206.04 23.26, 205.91 23.09, 205.61 23.06 C 205.30 23.04, 205.09 23.17, 204.72 23.55 C 204.35 23.92, 204.13 24.32, 203.74 24.95 C 203.34 25.58, 203.10 26.05, 202.73 26.70 C 202.36 27.35, 202.17 27.74, 201.87 28.18 C 201.57 28.63, 201.46 28.84, 201.25 28.90 C 201.04 28.97, 200.96 28.93, 200.81 28.52 C 200.65 28.12, 200.58 27.78, 200.48 26.89 C 200.38 26.00, 200.33 25.36, 200.30 24.07 C 200.26 22.77, 200.26 21.93, 200.32 20.43 C 200.38 18.93, 200.43 18.03, 200.58 16.57 C 200.72 15.11, 200.84 14.32, 201.03 13.13 C 201.22 11.95, 201.35 11.39, 201.51 10.64 C 201.67 9.90, 201.74 9.64, 201.83 9.39 C 201.91 9.15, 201.93 9.18, 201.92 9.43 C 201.91 9.68, 201.92 9.98, 201.78 10.65 C 201.64 11.32, 201.57 11.83, 201.24 12.78 C 200.91 13.74, 200.67 14.37, 200.13 15.44 C 199.59 16.50, 199.23 17.12, 198.53 18.12 C 197.82 19.12, 197.40 19.61, 196.60 20.43 C 195.80 21.24, 195.34 21.62, 194.52 22.20 C 193.71 22.78, 193.29 23.02, 192.53 23.33 C 191.78 23.65, 191.37 23.69, 190.75 23.76 C 190.13 23.84, 189.85 23.76, 189.43 23.72 C 189.00 23.67, 188.87 23.59, 188.63 23.54 C 188.39 23.48, 188.34 23.42, 188.23 23.44 C 188.12 23.46, 188.05 23.52, 188.08 23.64"/>
<path d="M 215.32,13.76 C 215.22 13.82, 215.14 13.93, 215.14 14.05 C 215.13 14.18, 215.20 14.32, 215.32 14.39 C 215.43 14.45, 215.59 14.44, 215.69 14.37 C 215.80 14.29, 215.85 14.15, 215.84 14.03 C 215.83 13.91, 215.75 13.81, 215.65 13.75 C 215.54 13.70, 215.43 13.70, 215.32 13.76"/>
<path d="M 219.07,22.10 C 219.01 22.23, 219.04 22.37, 219.04 22.73 C 219.04 23.08, 219.03 23.33, 219.07 23.86 C 219.10 24.39, 219.15 24.76, 219.22 25.38 C 219.29 26.00, 219.32 26.38, 219.41 26.98 C 219.50 27.57, 219.52 27.92, 219.67 28.37 C 219.81 28.81, 219.91 29.04, 220.15 29.22 C 220.39 29.40, 220.56 29.44, 220.86 29.26 C 221.16 29.08, 221.33 28.84, 221.67 28.33 C 222.00 27.82, 222.19 27.41, 222.53 26.69 C 222.87 25.97, 223.05 25.44, 223.35 24.73 C 223.66 24.03, 223.83 23.62, 224.05 23.18 C 224.27 22.74, 224.36 22.57, 224.47 22.54 C 224.58 22.51, 224.56 22.63, 224.59 23.04 C 224.63 23.44, 224.60 23.86, 224.65 24.58 C 224.70 25.29, 224.73 25.82, 224.84 26.62 C 224.96 27.41, 225.02 27.91, 225.24 28.56 C 225.46 29.22, 225.59 29.56, 225.95 29.89 C 226.30 30.22, 226.55 30.33, 227.01 30.23 C 227.47 30.12, 227.75 29.95, 228.26 29.38 C 228.78 28.81, 229.06 28.35, 229.58 27.37 C 230.10 26.39, 230.36 25.74, 230.85 24.47 C 231.33 23.21, 231.58 22.43, 232.01 21.04 C 232.43 19.65, 232.63 18.85, 232.97 17.53 C 233.30 16.21, 233.45 15.50, 233.67 14.42 C 233.89 13.34, 234.00 12.85, 234.06 12.14 C 234.13 11.42, 234.12 11.09, 234.01 10.84 C 233.91 10.58, 233.74 10.55, 233.53 10.85 C 233.32 11.14, 233.16 11.47, 232.95 12.30 C 232.74 13.14, 232.64 13.76, 232.48 15.02 C 232.32 16.28, 232.24 17.12, 232.15 18.61 C 232.05 20.10, 232.01 21.01, 232.00 22.49 C 231.99 23.96, 231.99 24.76, 232.09 25.99 C 232.18 27.21, 232.24 27.80, 232.46 28.61 C 232.68 29.42, 232.83 29.73, 233.19 30.04 C 233.55 30.36, 233.78 30.37, 234.25 30.18 C 234.72 29.98, 234.99 29.72, 235.53 29.06 C 236.07 28.41, 236.37 27.87, 236.93 26.90 C 237.50 25.93, 237.82 25.26, 238.35 24.22 C 238.89 23.17, 239.22 22.54, 239.61 21.68 C 240.00 20.83, 240.18 20.39, 240.30 19.95 C 240.41 19.52, 240.37 19.43, 240.19 19.53 C 240.02 19.63, 239.80 19.85, 239.43 20.46 C 239.05 21.06, 238.75 21.58, 238.32 22.54 C 237.89 23.49, 237.64 24.17, 237.30 25.22 C 236.96 26.28, 236.78 26.87, 236.62 27.79 C 236.45 28.72, 236.40 29.19, 236.48 29.85 C 236.57 30.50, 236.68 30.78, 237.03 31.06 C 237.39 31.33, 237.68 31.36, 238.25 31.20 C 238.83 31.04, 239.21 30.81, 239.92 30.28 C 240.63 29.74, 241.05 29.31, 241.82 28.51 C 242.60 27.72, 243.04 27.16, 243.78 26.31 C 244.52 25.46, 244.95 24.92, 245.52 24.25 C 246.08 23.58, 246.31 23.24, 246.59 22.96 C 246.87 22.69, 246.89 22.66, 246.93 22.87 C 246.96 23.08, 246.86 23.38, 246.77 23.99 C 246.68 24.61, 246.54 25.13, 246.48 25.96 C 246.42 26.78, 246.39 27.35, 246.46 28.11 C 246.52 28.87, 246.59 29.28, 246.81 29.77 C 247.04 30.25, 247.19 30.44, 247.58 30.55 C 247.97 30.66, 248.22 30.64, 248.74 30.32 C 249.26 30.01, 249.59 29.68, 250.17 28.99 C 250.76 28.30, 251.08 27.78, 251.67 26.87 C 252.26 25.96, 252.58 25.37, 253.13 24.46 C 253.69 23.55, 253.99 23.02, 254.43 22.33 C 254.87 21.63, 255.07 21.29, 255.33 20.97 C 255.59 20.64, 255.65 20.56, 255.73 20.70 C 255.80 20.85, 255.75 21.11, 255.71 21.70 C 255.67 22.30, 255.59 22.81, 255.54 23.67 C 255.49 24.52, 255.46 25.11, 255.47 25.99 C 255.49 26.86, 255.48 27.36, 255.60 28.03 C 255.73 28.69, 255.81 29.00, 256.08 29.32 C 256.35 29.65, 256.55 29.73, 256.97 29.64 C 257.38 29.56, 257.65 29.36, 258.16 28.90 C 258.67 28.43, 258.98 28.02, 259.53 27.32 C 260.07 26.61, 260.41 26.08, 260.87 25.37 C 261.33 24.67, 261.55 24.23, 261.82 23.80 C 262.09 23.37, 262.15 23.23, 262.25 23.23 C 262.34 23.24, 262.30 23.40, 262.27 23.81 C 262.25 24.21, 262.12 24.63, 262.14 25.25 C 262.15 25.88, 262.17 26.33, 262.34 26.92 C 262.52 27.50, 262.66 27.83, 263.03 28.17 C 263.39 28.51, 263.63 28.62, 264.15 28.60 C 264.67 28.59, 265.00 28.46, 265.61 28.08 C 266.23 27.71, 266.59 27.39, 267.23 26.75 C 267.87 26.10, 268.24 25.62, 268.83 24.85 C 269.41 24.09, 269.72 23.61, 270.14 22.92 C 270.55 22.23, 270.74 21.89, 270.92 21.41 C 271.10 20.94, 271.12 20.75, 271.02 20.57 C 270.93 20.39, 270.75 20.39, 270.45 20.53 C 270.15 20.68, 269.88 20.86, 269.51 21.29 C 269.14 21.72, 268.92 22.08, 268.62 22.68 C 268.31 23.28, 268.14 23.69, 267.98 24.30 C 267.82 24.90, 267.74 25.26, 267.80 25.72 C 267.86 26.17, 267.98 26.40, 268.28 26.57 C 268.58 26.73, 268.84 26.73, 269.29 26.55 C 269.74 26.37, 270.04 26.16, 270.53 25.68 C 271.01 25.20, 271.30 24.80, 271.74 24.15 C 272.18 23.50, 272.42 23.03, 272.72 22.45 C 273.02 21.86, 273.11 21.50, 273.24 21.22 C 273.36 20.95, 273.31 20.87, 273.32 21.07 C 273.34 21.28, 273.29 21.52, 273.30 22.23 C 273.32 22.95, 273.33 23.50, 273.40 24.66 C 273.47 25.82, 273.55 26.56, 273.66 28.03 C 273.76 29.50, 273.84 30.38, 273.93 32.02 C 274.02 33.65, 274.07 34.57, 274.10 36.22 C 274.12 37.87, 274.14 38.76, 274.05 40.25 C 273.96 41.75, 273.90 42.50, 273.65 43.69 C 273.40 44.89, 273.20 45.44, 272.80 46.23 C 272.39 47.02, 272.15 47.31, 271.63 47.64 C 271.12 47.97, 270.82 48.00, 270.23 47.88 C 269.65 47.76, 269.29 47.54, 268.70 47.05 C 268.10 46.56, 267.74 46.19, 267.26 45.45 C 266.77 44.70, 266.48 44.24, 266.27 43.31 C 266.06 42.39, 266.01 41.84, 266.21 40.82 C 266.41 39.79, 266.63 39.25, 267.26 38.20 C 267.88 37.14, 268.46 36.53, 269.33 35.54 C 270.20 34.55, 270.81 34.03, 271.62 33.26 C 272.42 32.49, 273.02 32.05, 273.34 31.69 C 273.65 31.33, 273.60 31.26, 273.17 31.48 C 272.74 31.70, 272.08 32.07, 271.19 32.78 C 270.31 33.49, 269.66 34.01, 268.75 35.02 C 267.83 36.03, 267.26 36.69, 266.62 37.83 C 265.98 38.96, 265.75 39.56, 265.54 40.69 C 265.34 41.82, 265.37 42.43, 265.59 43.46 C 265.81 44.49, 266.10 45.02, 266.64 45.85 C 267.18 46.68, 267.58 47.08, 268.28 47.59 C 268.98 48.11, 269.43 48.32, 270.15 48.42 C 270.87 48.51, 271.26 48.44, 271.89 48.06 C 272.52 47.67, 272.82 47.34, 273.30 46.50 C 273.78 45.65, 273.99 45.07, 274.28 43.83 C 274.57 42.59, 274.64 41.82, 274.75 40.30 C 274.86 38.77, 274.84 37.88, 274.84 36.21 C 274.83 34.55, 274.78 33.63, 274.71 31.98 C 274.64 30.33, 274.57 29.45, 274.49 27.98 C 274.40 26.50, 274.37 25.76, 274.27 24.60 C 274.18 23.43, 274.15 22.89, 274.01 22.16 C 273.88 21.43, 273.80 21.18, 273.58 20.94 C 273.37 20.70, 273.24 20.73, 272.92 20.95 C 272.61 21.16, 272.41 21.49, 272.02 22.03 C 271.64 22.57, 271.42 23.03, 271.00 23.65 C 270.58 24.27, 270.32 24.64, 269.92 25.11 C 269.52 25.59, 269.31 25.80, 269.01 26.03 C 268.71 26.26, 268.57 26.32, 268.44 26.26 C 268.31 26.20, 268.30 26.06, 268.35 25.72 C 268.41 25.37, 268.51 25.07, 268.73 24.55 C 268.94 24.03, 269.14 23.66, 269.43 23.10 C 269.73 22.55, 269.93 22.23, 270.19 21.78 C 270.46 21.33, 270.61 21.11, 270.75 20.87 C 270.88 20.64, 270.92 20.53, 270.86 20.59 C 270.80 20.65, 270.70 20.77, 270.43 21.16 C 270.16 21.54, 269.97 21.88, 269.52 22.52 C 269.06 23.15, 268.75 23.62, 268.17 24.35 C 267.60 25.08, 267.23 25.54, 266.63 26.17 C 266.04 26.80, 265.72 27.11, 265.21 27.49 C 264.71 27.87, 264.46 28.02, 264.10 28.09 C 263.74 28.15, 263.61 28.09, 263.41 27.82 C 263.22 27.55, 263.21 27.26, 263.13 26.74 C 263.06 26.21, 263.09 25.80, 263.03 25.20 C 262.97 24.60, 262.98 24.16, 262.83 23.72 C 262.68 23.28, 262.57 23.07, 262.28 23.01 C 261.99 22.95, 261.80 23.04, 261.38 23.42 C 260.96 23.79, 260.69 24.20, 260.17 24.87 C 259.65 25.54, 259.30 26.07, 258.79 26.77 C 258.28 27.47, 258.02 27.89, 257.62 28.39 C 257.23 28.88, 257.07 29.11, 256.83 29.25 C 256.59 29.40, 256.52 29.36, 256.41 29.10 C 256.30 28.84, 256.29 28.58, 256.27 27.96 C 256.25 27.33, 256.29 26.85, 256.33 26.00 C 256.36 25.15, 256.44 24.56, 256.46 23.70 C 256.47 22.83, 256.50 22.30, 256.39 21.66 C 256.28 21.03, 256.19 20.72, 255.92 20.52 C 255.65 20.31, 255.45 20.36, 255.03 20.64 C 254.62 20.92, 254.37 21.25, 253.86 21.93 C 253.34 22.61, 253.04 23.14, 252.46 24.03 C 251.88 24.93, 251.54 25.51, 250.95 26.40 C 250.37 27.29, 250.04 27.79, 249.53 28.48 C 249.01 29.16, 248.75 29.49, 248.38 29.84 C 248.01 30.19, 247.88 30.26, 247.67 30.21 C 247.46 30.16, 247.41 30.02, 247.33 29.59 C 247.25 29.17, 247.25 28.80, 247.27 28.08 C 247.29 27.37, 247.38 26.83, 247.42 26.02 C 247.46 25.20, 247.53 24.67, 247.48 24.02 C 247.44 23.36, 247.41 23.01, 247.18 22.73 C 246.96 22.46, 246.81 22.42, 246.37 22.62 C 245.93 22.83, 245.63 23.13, 244.99 23.76 C 244.34 24.39, 243.92 24.93, 243.16 25.76 C 242.41 26.60, 241.96 27.14, 241.21 27.92 C 240.46 28.70, 240.06 29.11, 239.43 29.67 C 238.80 30.22, 238.50 30.47, 238.06 30.69 C 237.63 30.91, 237.47 30.95, 237.26 30.77 C 237.05 30.60, 237.02 30.38, 237.03 29.81 C 237.04 29.25, 237.10 28.80, 237.32 27.94 C 237.53 27.08, 237.73 26.51, 238.10 25.51 C 238.48 24.50, 238.81 23.86, 239.20 22.91 C 239.59 21.96, 239.83 21.42, 240.06 20.76 C 240.29 20.10, 240.37 19.80, 240.34 19.60 C 240.32 19.40, 240.21 19.42, 239.93 19.77 C 239.65 20.12, 239.40 20.53, 238.94 21.34 C 238.47 22.15, 238.16 22.79, 237.60 23.82 C 237.05 24.85, 236.70 25.50, 236.16 26.47 C 235.63 27.43, 235.35 27.96, 234.93 28.63 C 234.51 29.29, 234.34 29.58, 234.04 29.81 C 233.75 30.05, 233.65 30.07, 233.44 29.80 C 233.23 29.54, 233.14 29.26, 233.01 28.48 C 232.88 27.71, 232.82 27.14, 232.78 25.95 C 232.73 24.75, 232.73 23.96, 232.77 22.50 C 232.82 21.05, 232.87 20.15, 232.99 18.67 C 233.11 17.20, 233.23 16.37, 233.38 15.13 C 233.53 13.88, 233.63 13.28, 233.72 12.44 C 233.82 11.61, 233.85 11.28, 233.86 10.96 C 233.87 10.65, 233.84 10.64, 233.77 10.85 C 233.70 11.07, 233.65 11.36, 233.49 12.05 C 233.34 12.73, 233.26 13.22, 233.02 14.28 C 232.77 15.34, 232.60 16.04, 232.25 17.34 C 231.90 18.65, 231.70 19.44, 231.26 20.81 C 230.83 22.17, 230.57 22.94, 230.08 24.18 C 229.60 25.41, 229.31 26.04, 228.84 27.00 C 228.37 27.95, 228.12 28.39, 227.73 28.95 C 227.33 29.52, 227.17 29.69, 226.89 29.82 C 226.60 29.94, 226.49 29.87, 226.30 29.58 C 226.11 29.29, 226.05 29.00, 225.94 28.38 C 225.83 27.76, 225.82 27.28, 225.73 26.50 C 225.65 25.72, 225.64 25.20, 225.52 24.47 C 225.40 23.75, 225.33 23.32, 225.12 22.88 C 224.90 22.44, 224.77 22.30, 224.46 22.28 C 224.14 22.27, 223.92 22.41, 223.55 22.83 C 223.17 23.24, 222.95 23.66, 222.58 24.36 C 222.21 25.05, 222.01 25.58, 221.68 26.30 C 221.36 27.02, 221.19 27.43, 220.97 27.96 C 220.74 28.49, 220.68 28.74, 220.57 28.94 C 220.46 29.15, 220.46 29.13, 220.40 28.99 C 220.35 28.84, 220.35 28.65, 220.31 28.23 C 220.26 27.81, 220.24 27.47, 220.19 26.89 C 220.14 26.30, 220.13 25.91, 220.07 25.29 C 220.01 24.67, 219.97 24.30, 219.89 23.77 C 219.81 23.23, 219.76 22.97, 219.65 22.63 C 219.54 22.28, 219.45 22.14, 219.33 22.03 C 219.22 21.93, 219.13 21.96, 219.07 22.10"/>
<path d="M 300.87,22.06 C 300.97 21.96, 301.03 21.82, 301.07 21.53 C 301.10 21.24, 301.11 21.01, 301.05 20.61 C 300.99 20.21, 300.95 19.94, 300.76 19.54 C 300.56 19.13, 300.44 18.87, 300.09 18.59 C 299.74 18.31, 299.50 18.14, 299.01 18.13 C 298.53 18.11, 298.21 18.15, 297.65 18.50 C 297.09 18.86, 296.76 19.18, 296.22 19.90 C 295.68 20.63, 295.36 21.15, 294.94 22.12 C 294.52 23.09, 294.31 23.74, 294.10 24.76 C 293.90 25.77, 293.86 26.38, 293.92 27.20 C 293.98 28.02, 294.09 28.42, 294.41 28.86 C 294.72 29.30, 294.99 29.43, 295.50 29.40 C 296.01 29.37, 296.36 29.21, 296.96 28.72 C 297.56 28.23, 297.91 27.81, 298.51 26.95 C 299.10 26.10, 299.43 25.46, 299.95 24.44 C 300.47 23.42, 300.74 22.76, 301.11 21.86 C 301.47 20.95, 301.62 20.44, 301.76 19.90 C 301.90 19.37, 301.86 19.17, 301.81 19.18 C 301.76 19.19, 301.65 19.40, 301.53 19.95 C 301.41 20.49, 301.29 20.99, 301.22 21.89 C 301.16 22.80, 301.13 23.46, 301.21 24.48 C 301.29 25.50, 301.38 26.12, 301.63 26.99 C 301.89 27.86, 302.06 28.29, 302.49 28.81 C 302.91 29.33, 303.18 29.53, 303.77 29.58 C 304.36 29.64, 304.74 29.53, 305.45 29.09 C 306.16 28.66, 306.58 28.26, 307.32 27.41 C 308.06 26.56, 308.47 25.93, 309.16 24.85 C 309.84 23.77, 310.20 23.06, 310.75 21.99 C 311.29 20.93, 311.55 20.32, 311.89 19.52 C 312.24 18.72, 312.34 18.37, 312.48 18.00 C 312.62 17.63, 312.59 17.59, 312.59 17.68 C 312.59 17.77, 312.48 17.98, 312.47 18.45 C 312.46 18.92, 312.43 19.32, 312.52 20.02 C 312.61 20.72, 312.72 21.17, 312.91 21.95 C 313.10 22.73, 313.24 23.18, 313.49 23.92 C 313.73 24.66, 313.89 25.05, 314.12 25.67 C 314.35 26.29, 314.47 26.57, 314.64 27.00 C 314.80 27.44, 314.88 27.58, 314.94 27.85 C 314.99 28.11, 314.88 28.22, 314.92 28.32 C 314.95 28.43, 315.01 28.47, 315.10 28.37 C 315.18 28.27, 315.32 28.13, 315.35 27.82 C 315.37 27.52, 315.33 27.30, 315.21 26.83 C 315.10 26.35, 314.97 26.07, 314.77 25.44 C 314.56 24.82, 314.41 24.43, 314.21 23.70 C 314.00 22.96, 313.88 22.53, 313.72 21.77 C 313.56 21.00, 313.52 20.56, 313.40 19.88 C 313.27 19.20, 313.23 18.83, 313.10 18.37 C 312.96 17.90, 312.90 17.68, 312.71 17.56 C 312.52 17.45, 312.42 17.46, 312.14 17.79 C 311.85 18.13, 311.70 18.46, 311.29 19.22 C 310.87 19.99, 310.63 20.59, 310.06 21.63 C 309.49 22.67, 309.13 23.35, 308.46 24.40 C 307.78 25.46, 307.38 26.06, 306.70 26.89 C 306.03 27.71, 305.66 28.10, 305.08 28.55 C 304.50 29.00, 304.24 29.14, 303.80 29.13 C 303.37 29.12, 303.21 28.96, 302.92 28.50 C 302.62 28.03, 302.51 27.63, 302.34 26.81 C 302.18 26.00, 302.14 25.40, 302.10 24.43 C 302.05 23.45, 302.12 22.82, 302.13 21.93 C 302.13 21.04, 302.17 20.54, 302.12 19.98 C 302.06 19.42, 302.01 19.17, 301.84 19.12 C 301.68 19.06, 301.58 19.22, 301.29 19.70 C 301.00 20.19, 300.81 20.67, 300.40 21.54 C 299.98 22.41, 299.71 23.06, 299.19 24.05 C 298.67 25.04, 298.35 25.65, 297.81 26.48 C 297.27 27.32, 296.97 27.72, 296.50 28.22 C 296.02 28.71, 295.78 28.89, 295.44 28.98 C 295.10 29.06, 294.96 28.99, 294.79 28.63 C 294.61 28.27, 294.56 27.92, 294.58 27.18 C 294.60 26.44, 294.64 25.87, 294.87 24.92 C 295.09 23.98, 295.30 23.36, 295.70 22.45 C 296.10 21.54, 296.40 21.05, 296.87 20.37 C 297.34 19.70, 297.61 19.40, 298.04 19.06 C 298.47 18.73, 298.68 18.70, 299.00 18.70 C 299.33 18.70, 299.46 18.83, 299.66 19.06 C 299.86 19.28, 299.91 19.49, 300.03 19.84 C 300.14 20.18, 300.16 20.42, 300.24 20.77 C 300.31 21.11, 300.35 21.31, 300.42 21.57 C 300.49 21.83, 300.50 21.96, 300.59 22.06 C 300.68 22.16, 300.78 22.17, 300.87 22.06"/>
<path d="M 333.02,19.76 C 332.92 19.94, 332.86 20.14, 332.79 20.67 C 332.71 21.20, 332.69 21.58, 332.65 22.42 C 332.60 23.27, 332.57 23.86, 332.57 24.89 C 332.56 25.92, 332.56 26.58, 332.61 27.59 C 332.66 28.59, 332.68 29.16, 332.82 29.91 C 332.96 30.67, 333.06 31.03, 333.32 31.35 C 333.58 31.67, 333.77 31.74, 334.11 31.51 C 334.45 31.28, 334.67 30.99, 335.03 30.21 C 335.39 29.42, 335.58 28.80, 335.92 27.60 C 336.25 26.40, 336.40 25.63, 336.71 24.21 C 337.01 22.79, 337.16 21.95, 337.45 20.52 C 337.75 19.08, 337.92 18.27, 338.18 17.03 C 338.44 15.78, 338.61 15.11, 338.78 14.28 C 338.94 13.45, 338.98 13.09, 339.00 12.87 C 339.02 12.65, 338.95 12.74, 338.90 13.19 C 338.85 13.63, 338.77 14.10, 338.75 15.11 C 338.73 16.12, 338.72 16.89, 338.79 18.25 C 338.86 19.61, 338.93 20.47, 339.10 21.90 C 339.27 23.33, 339.38 24.14, 339.66 25.41 C 339.94 26.67, 340.10 27.31, 340.49 28.23 C 340.89 29.16, 341.14 29.55, 341.64 30.03 C 342.14 30.50, 342.45 30.60, 342.98 30.60 C 343.50 30.60, 343.81 30.46, 344.27 30.02 C 344.72 29.58, 345.00 29.10, 345.26 28.40 C 345.53 27.70, 345.56 27.17, 345.59 26.49 C 345.62 25.81, 345.51 25.31, 345.42 25.02 C 345.32 24.72, 345.23 24.73, 345.12 25.01 C 345.02 25.29, 345.01 25.78, 344.88 26.41 C 344.76 27.03, 344.71 27.49, 344.50 28.13 C 344.28 28.77, 344.12 29.20, 343.82 29.61 C 343.51 30.02, 343.33 30.17, 342.97 30.18 C 342.61 30.20, 342.38 30.12, 342.00 29.68 C 341.62 29.25, 341.40 28.89, 341.07 28.00 C 340.75 27.12, 340.60 26.50, 340.37 25.26 C 340.13 24.02, 340.04 23.23, 339.91 21.82 C 339.77 20.40, 339.77 19.55, 339.71 18.20 C 339.64 16.86, 339.66 16.10, 339.57 15.09 C 339.49 14.07, 339.45 13.61, 339.30 13.14 C 339.15 12.68, 339.05 12.57, 338.82 12.77 C 338.60 12.96, 338.46 13.31, 338.19 14.13 C 337.92 14.95, 337.77 15.62, 337.47 16.87 C 337.17 18.11, 337.01 18.92, 336.70 20.36 C 336.39 21.79, 336.23 22.63, 335.90 24.03 C 335.57 25.43, 335.38 26.19, 335.06 27.37 C 334.75 28.55, 334.58 29.16, 334.34 29.94 C 334.10 30.72, 334.01 31.02, 333.87 31.26 C 333.73 31.51, 333.70 31.47, 333.63 31.18 C 333.55 30.89, 333.53 30.55, 333.49 29.83 C 333.45 29.11, 333.42 28.55, 333.41 27.56 C 333.40 26.58, 333.43 25.92, 333.44 24.90 C 333.45 23.87, 333.48 23.28, 333.47 22.44 C 333.46 21.60, 333.43 21.22, 333.39 20.69 C 333.35 20.16, 333.36 19.97, 333.28 19.78 C 333.21 19.59, 333.12 19.58, 333.02 19.76"/>
<path d="M 336.24,21.27 C 336.40 21.35, 336.58 21.38, 337.03 21.39 C 337.48 21.40, 337.79 21.45, 338.48 21.31 C 339.16 21.16, 340.08 20.89, 340.46 20.67 C 340.84 20.44, 340.79 20.23, 340.36 20.17 C 339.92 20.12, 338.97 20.25, 338.29 20.37 C 337.61 20.50, 337.36 20.68, 336.95 20.80 C 336.54 20.93, 336.37 20.91, 336.23 21.01 C 336.08 21.10, 336.08 21.19, 336.24 21.27"/>
<path d="M 370.98,20.73 C 370.93 20.59, 370.84 20.46, 370.59 20.28 C 370.34 20.10, 370.16 19.96, 369.73 19.83 C 369.30 19.70, 369.01 19.60, 368.45 19.63 C 367.89 19.65, 367.54 19.70, 366.94 19.96 C 366.34 20.23, 365.98 20.43, 365.43 20.95 C 364.87 21.47, 364.58 21.84, 364.17 22.57 C 363.77 23.31, 363.58 23.80, 363.41 24.63 C 363.23 25.46, 363.20 25.97, 363.31 26.72 C 363.42 27.46, 363.58 27.85, 363.95 28.35 C 364.33 28.85, 364.61 29.07, 365.17 29.23 C 365.74 29.39, 366.12 29.38, 366.79 29.15 C 367.46 28.93, 367.88 28.65, 368.53 28.10 C 369.17 27.54, 369.50 27.09, 370.02 26.38 C 370.54 25.67, 370.81 25.20, 371.14 24.55 C 371.48 23.91, 371.57 23.53, 371.68 23.17 C 371.80 22.81, 371.72 22.67, 371.70 22.76 C 371.68 22.86, 371.61 23.06, 371.57 23.63 C 371.54 24.21, 371.48 24.66, 371.51 25.65 C 371.53 26.64, 371.60 27.31, 371.72 28.56 C 371.83 29.82, 371.94 30.57, 372.08 31.94 C 372.21 33.30, 372.28 34.07, 372.40 35.39 C 372.51 36.71, 372.59 37.40, 372.64 38.54 C 372.70 39.68, 372.71 40.23, 372.66 41.07 C 372.60 41.91, 372.53 42.27, 372.36 42.74 C 372.19 43.20, 372.09 43.32, 371.81 43.42 C 371.53 43.52, 371.35 43.45, 370.98 43.23 C 370.61 43.01, 370.35 42.81, 369.96 42.32 C 369.56 41.84, 369.31 41.48, 369.01 40.80 C 368.70 40.12, 368.53 39.71, 368.44 38.92 C 368.34 38.12, 368.32 37.69, 368.51 36.82 C 368.71 35.95, 368.90 35.48, 369.40 34.57 C 369.90 33.66, 370.27 33.19, 371.03 32.28 C 371.78 31.38, 372.25 30.93, 373.18 30.06 C 374.11 29.19, 374.66 28.74, 375.67 27.93 C 376.67 27.11, 377.23 26.70, 378.19 25.97 C 379.16 25.24, 379.66 24.89, 380.49 24.27 C 381.33 23.65, 381.75 23.37, 382.37 22.88 C 382.99 22.38, 383.27 22.17, 383.59 21.79 C 383.92 21.41, 383.99 21.24, 384.00 20.99 C 384.00 20.74, 383.87 20.62, 383.60 20.56 C 383.33 20.49, 383.06 20.49, 382.65 20.66 C 382.24 20.83, 381.96 21.01, 381.54 21.41 C 381.13 21.81, 380.88 22.09, 380.55 22.67 C 380.21 23.26, 380.04 23.63, 379.87 24.32 C 379.71 25.01, 379.67 25.44, 379.73 26.11 C 379.80 26.79, 379.90 27.16, 380.20 27.70 C 380.50 28.24, 380.75 28.51, 381.23 28.82 C 381.72 29.13, 382.05 29.23, 382.64 29.24 C 383.23 29.24, 383.59 29.15, 384.17 28.84 C 384.75 28.53, 385.07 28.26, 385.53 27.69 C 385.99 27.11, 386.21 26.71, 386.47 25.96 C 386.73 25.21, 386.81 24.72, 386.83 23.94 C 386.84 23.17, 386.74 22.74, 386.54 22.09 C 386.33 21.45, 386.13 21.15, 385.81 20.72 C 385.49 20.28, 385.26 20.10, 384.95 19.92 C 384.64 19.73, 384.43 19.74, 384.28 19.80 C 384.13 19.86, 384.08 20.02, 384.20 20.21 C 384.32 20.40, 384.47 20.56, 384.89 20.77 C 385.31 20.97, 385.63 21.09, 386.30 21.23 C 386.98 21.37, 387.43 21.42, 388.27 21.46 C 389.12 21.51, 389.63 21.50, 390.52 21.45 C 391.42 21.40, 391.91 21.36, 392.75 21.20 C 393.59 21.04, 394.03 20.92, 394.73 20.66 C 395.43 20.39, 395.77 20.22, 396.24 19.87 C 396.71 19.52, 396.90 19.31, 397.07 18.91 C 397.23 18.52, 397.24 18.26, 397.07 17.90 C 396.90 17.55, 396.68 17.34, 396.23 17.16 C 395.78 16.98, 395.42 16.92, 394.80 17.02 C 394.18 17.11, 393.78 17.23, 393.12 17.61 C 392.47 17.99, 392.08 18.27, 391.53 18.91 C 390.99 19.54, 390.70 19.96, 390.39 20.79 C 390.07 21.61, 389.97 22.13, 389.96 23.01 C 389.94 23.89, 390.02 24.39, 390.31 25.20 C 390.60 26.00, 390.84 26.43, 391.40 27.04 C 391.97 27.65, 392.36 27.95, 393.14 28.24 C 393.92 28.53, 394.41 28.59, 395.31 28.49 C 396.21 28.39, 396.73 28.21, 397.66 27.76 C 398.59 27.30, 399.08 26.94, 399.96 26.21 C 400.84 25.49, 401.29 25.00, 402.04 24.11 C 402.79 23.23, 403.14 22.69, 403.72 21.80 C 404.29 20.90, 404.55 20.41, 404.90 19.64 C 405.25 18.87, 405.35 18.48, 405.46 17.93 C 405.56 17.38, 405.53 17.15, 405.42 16.88 C 405.30 16.62, 405.13 16.56, 404.89 16.61 C 404.65 16.67, 404.44 16.81, 404.22 17.14 C 404.00 17.47, 403.89 17.74, 403.80 18.27 C 403.72 18.80, 403.72 19.14, 403.81 19.77 C 403.91 20.41, 404.02 20.78, 404.28 21.45 C 404.54 22.12, 404.75 22.48, 405.11 23.12 C 405.47 23.77, 405.70 24.09, 406.07 24.67 C 406.44 25.25, 406.66 25.55, 406.95 26.04 C 407.24 26.53, 407.41 26.76, 407.53 27.13 C 407.66 27.51, 407.68 27.65, 407.58 27.93 C 407.47 28.21, 407.35 28.33, 407.00 28.54 C 406.65 28.75, 406.38 28.84, 405.83 28.98 C 405.28 29.12, 404.88 29.14, 404.25 29.23 C 403.62 29.33, 403.22 29.37, 402.70 29.44 C 402.17 29.51, 401.85 29.51, 401.64 29.59 C 401.43 29.67, 401.41 29.75, 401.63 29.85 C 401.84 29.95, 402.17 30.04, 402.71 30.08 C 403.26 30.13, 403.69 30.13, 404.36 30.06 C 405.02 29.99, 405.45 29.93, 406.05 29.73 C 406.66 29.53, 406.97 29.38, 407.37 29.05 C 407.77 28.73, 407.91 28.51, 408.05 28.10 C 408.19 27.69, 408.18 27.46, 408.08 26.99 C 407.97 26.51, 407.82 26.26, 407.54 25.72 C 407.26 25.18, 407.04 24.88, 406.68 24.29 C 406.33 23.70, 406.10 23.39, 405.76 22.76 C 405.42 22.14, 405.23 21.80, 404.99 21.18 C 404.76 20.56, 404.66 20.22, 404.58 19.66 C 404.51 19.10, 404.56 18.82, 404.61 18.38 C 404.66 17.93, 404.74 17.73, 404.83 17.43 C 404.91 17.13, 404.96 16.97, 405.02 16.88 C 405.07 16.78, 405.13 16.77, 405.11 16.95 C 405.09 17.13, 405.08 17.31, 404.92 17.79 C 404.76 18.28, 404.67 18.63, 404.31 19.36 C 403.95 20.08, 403.68 20.55, 403.12 21.41 C 402.55 22.26, 402.20 22.79, 401.48 23.63 C 400.75 24.48, 400.31 24.94, 399.48 25.64 C 398.65 26.34, 398.19 26.68, 397.33 27.12 C 396.48 27.56, 396.03 27.73, 395.23 27.83 C 394.43 27.94, 394.03 27.89, 393.36 27.65 C 392.69 27.40, 392.37 27.14, 391.88 26.60 C 391.40 26.07, 391.19 25.69, 390.94 24.98 C 390.70 24.26, 390.63 23.81, 390.65 23.03 C 390.68 22.24, 390.77 21.77, 391.06 21.05 C 391.35 20.32, 391.60 19.95, 392.09 19.40 C 392.58 18.84, 392.94 18.61, 393.51 18.28 C 394.08 17.95, 394.42 17.86, 394.93 17.75 C 395.44 17.65, 395.70 17.68, 396.04 17.75 C 396.39 17.83, 396.55 17.93, 396.67 18.12 C 396.79 18.31, 396.79 18.45, 396.64 18.70 C 396.49 18.95, 396.33 19.11, 395.90 19.37 C 395.47 19.64, 395.16 19.80, 394.50 20.02 C 393.85 20.25, 393.43 20.36, 392.62 20.49 C 391.82 20.62, 391.35 20.65, 390.49 20.68 C 389.63 20.71, 389.13 20.70, 388.33 20.64 C 387.52 20.57, 387.11 20.48, 386.47 20.36 C 385.84 20.24, 385.56 20.13, 385.15 20.04 C 384.74 19.94, 384.60 19.89, 384.41 19.89 C 384.23 19.88, 384.20 19.90, 384.24 20.00 C 384.28 20.09, 384.40 20.14, 384.61 20.36 C 384.82 20.57, 385.04 20.69, 385.29 21.08 C 385.55 21.46, 385.73 21.72, 385.89 22.29 C 386.05 22.85, 386.13 23.24, 386.10 23.92 C 386.08 24.61, 385.99 25.05, 385.77 25.72 C 385.54 26.38, 385.34 26.74, 384.96 27.24 C 384.58 27.75, 384.31 27.97, 383.84 28.25 C 383.38 28.52, 383.09 28.60, 382.63 28.62 C 382.18 28.63, 381.93 28.56, 381.56 28.31 C 381.19 28.07, 380.99 27.85, 380.76 27.40 C 380.53 26.95, 380.46 26.64, 380.43 26.06 C 380.39 25.48, 380.44 25.10, 380.60 24.50 C 380.76 23.91, 380.92 23.57, 381.22 23.07 C 381.53 22.57, 381.77 22.36, 382.13 22.01 C 382.48 21.66, 382.70 21.53, 383.00 21.31 C 383.30 21.10, 383.46 21.01, 383.61 20.93 C 383.76 20.86, 383.82 20.84, 383.74 20.93 C 383.67 21.03, 383.58 21.14, 383.23 21.43 C 382.88 21.72, 382.62 21.92, 382.00 22.38 C 381.37 22.84, 380.94 23.12, 380.10 23.73 C 379.26 24.33, 378.75 24.68, 377.77 25.41 C 376.79 26.13, 376.23 26.54, 375.21 27.36 C 374.19 28.19, 373.63 28.63, 372.68 29.52 C 371.73 30.41, 371.24 30.87, 370.46 31.82 C 369.68 32.76, 369.30 33.26, 368.77 34.23 C 368.25 35.20, 368.05 35.72, 367.84 36.67 C 367.63 37.63, 367.64 38.11, 367.73 39.00 C 367.82 39.89, 367.97 40.35, 368.30 41.11 C 368.63 41.88, 368.90 42.29, 369.38 42.82 C 369.87 43.35, 370.22 43.56, 370.74 43.75 C 371.25 43.95, 371.54 43.96, 371.95 43.79 C 372.37 43.63, 372.55 43.46, 372.81 42.93 C 373.07 42.40, 373.17 42.01, 373.27 41.13 C 373.37 40.25, 373.36 39.67, 373.33 38.51 C 373.30 37.35, 373.22 36.66, 373.13 35.33 C 373.03 34.00, 372.97 33.23, 372.86 31.87 C 372.75 30.50, 372.66 29.75, 372.57 28.49 C 372.47 27.24, 372.45 26.59, 372.38 25.61 C 372.31 24.63, 372.33 24.18, 372.22 23.59 C 372.11 23.01, 372.02 22.79, 371.84 22.66 C 371.65 22.53, 371.56 22.64, 371.29 22.94 C 371.02 23.24, 370.87 23.58, 370.49 24.18 C 370.11 24.77, 369.87 25.23, 369.37 25.90 C 368.87 26.57, 368.57 26.99, 368.01 27.52 C 367.45 28.05, 367.09 28.30, 366.55 28.54 C 366.02 28.78, 365.74 28.81, 365.31 28.71 C 364.88 28.61, 364.69 28.44, 364.42 28.02 C 364.15 27.61, 364.03 27.28, 363.97 26.64 C 363.92 25.99, 363.96 25.53, 364.13 24.79 C 364.30 24.05, 364.47 23.60, 364.83 22.93 C 365.19 22.27, 365.45 21.94, 365.94 21.48 C 366.42 21.02, 366.72 20.85, 367.23 20.63 C 367.74 20.42, 368.02 20.40, 368.48 20.39 C 368.94 20.38, 369.16 20.49, 369.52 20.58 C 369.89 20.67, 370.05 20.76, 370.31 20.84 C 370.57 20.92, 370.70 20.99, 370.83 20.97 C 370.97 20.94, 371.03 20.87, 370.98 20.73"/>
</svg>
