<svg xmlns="http://www.w3.org/2000/svg" viewBox="0 0 424.3 52.8" fill="currentColor" stroke="none" role="img">
<path d="M 14.61,24.17 C 14.44 24.09, 14.22 24.04, 13.76 24.05 C 13.30 24.06, 12.99 24.08, 12.33 24.21 C 11.67 24.35, 11.21 24.41, 10.47 24.73 C 9.72 25.05, 9.30 25.27, 8.60 25.82 C 7.90 26.38, 7.52 26.74, 6.99 27.51 C 6.46 28.27, 6.23 28.77, 5.97 29.65 C 5.70 30.53, 5.63 31.06, 5.66 31.92 C 5.69 32.79, 5.82 33.24, 6.11 33.99 C 6.41 34.73, 6.65 35.10, 7.14 35.63 C 7.63 36.17, 7.95 36.41, 8.56 36.65 C 9.17 36.89, 9.54 36.93, 10.17 36.84 C 10.80 36.74, 11.15 36.61, 11.72 36.17 C 12.29 35.73, 12.57 35.41, 13.02 34.66 C 13.47 33.91, 13.67 33.38, 13.98 32.42 C 14.29 31.46, 14.41 30.86, 14.57 29.87 C 14.73 28.88, 14.76 28.30, 14.78 27.45 C 14.79 26.60, 14.75 26.14, 14.64 25.60 C 14.54 25.06, 14.42 24.86, 14.27 24.75 C 14.12 24.64, 13.99 24.72, 13.91 25.05 C 13.83 25.37, 13.78 25.68, 13.85 26.39 C 13.91 27.09, 13.99 27.62, 14.24 28.58 C 14.49 29.54, 14.71 30.20, 15.07 31.18 C 15.44 32.16, 15.69 32.73, 16.06 33.49 C 16.44 34.24, 16.73 34.68, 16.95 34.95 C 17.18 35.22, 17.24 35.18, 17.18 34.84 C 17.12 34.50, 16.90 34.03, 16.65 33.25 C 16.39 32.46, 16.19 31.89, 15.89 30.91 C 15.59 29.93, 15.40 29.27, 15.15 28.34 C 14.90 27.41, 14.81 26.91, 14.65 26.25 C 14.48 25.59, 14.43 25.32, 14.32 25.03 C 14.21 24.75, 14.17 24.69, 14.12 24.82 C 14.07 24.94, 14.08 25.13, 14.07 25.65 C 14.06 26.17, 14.11 26.60, 14.06 27.42 C 14.01 28.24, 13.98 28.79, 13.81 29.74 C 13.64 30.70, 13.51 31.27, 13.23 32.18 C 12.94 33.09, 12.77 33.59, 12.38 34.29 C 12.00 34.99, 11.78 35.28, 11.31 35.67 C 10.85 36.06, 10.58 36.17, 10.07 36.25 C 9.57 36.33, 9.28 36.30, 8.79 36.09 C 8.30 35.89, 8.02 35.68, 7.61 35.21 C 7.20 34.74, 6.97 34.41, 6.72 33.75 C 6.47 33.09, 6.35 32.68, 6.34 31.90 C 6.32 31.13, 6.39 30.65, 6.64 29.85 C 6.89 29.06, 7.09 28.61, 7.58 27.92 C 8.06 27.23, 8.42 26.89, 9.06 26.40 C 9.70 25.91, 10.08 25.75, 10.78 25.47 C 11.47 25.18, 11.90 25.15, 12.52 24.99 C 13.13 24.83, 13.42 24.77, 13.84 24.66 C 14.26 24.55, 14.48 24.54, 14.63 24.45 C 14.78 24.35, 14.79 24.25, 14.61 24.17"/>
<path d="M 39.55,10.21 C 39.53 10.57, 39.60 11.02, 39.71 11.93 C 39.82 12.84, 39.92 13.46, 40.09 14.77 C 40.26 16.08, 40.39 16.95, 40.58 18.47 C 40.77 19.98, 40.86 20.84, 41.04 22.35 C 41.22 23.87, 41.31 24.68, 41.50 26.05 C 41.68 27.41, 41.77 28.11, 41.96 29.19 C 42.15 30.28, 42.26 30.78, 42.44 31.48 C 42.61 32.17, 42.72 32.45, 42.83 32.68 C 42.95 32.91, 43.01 32.90, 43.02 32.64 C 43.03 32.38, 42.98 32.10, 42.90 31.39 C 42.82 30.68, 42.75 30.18, 42.61 29.09 C 42.46 28.01, 42.36 27.32, 42.19 25.96 C 42.03 24.59, 41.95 23.79, 41.79 22.27 C 41.63 20.75, 41.57 19.89, 41.39 18.37 C 41.21 16.84, 41.11 15.96, 40.89 14.65 C 40.68 13.34, 40.54 12.72, 40.33 11.82 C 40.11 10.92, 39.98 10.48, 39.82 10.16 C 39.67 9.84, 39.57 9.86, 39.55 10.21"/>
<path d="M 48.57,25.03 C 48.54 25.28, 48.63 25.60, 48.72 26.21 C 48.80 26.82, 48.87 27.26, 49.00 28.08 C 49.14 28.91, 49.24 29.50, 49.38 30.34 C 49.51 31.18, 49.57 31.62, 49.69 32.26 C 49.80 32.91, 49.86 33.19, 49.95 33.58 C 50.04 33.98, 50.08 34.09, 50.15 34.25 C 50.22 34.42, 50.25 34.39, 50.30 34.42 C 50.35 34.45, 50.35 34.44, 50.38 34.40 C 50.41 34.36, 50.42 34.39, 50.44 34.21 C 50.46 34.04, 50.50 33.92, 50.49 33.51 C 50.47 33.11, 50.43 32.83, 50.37 32.18 C 50.31 31.52, 50.31 31.07, 50.21 30.22 C 50.10 29.37, 50.01 28.76, 49.84 27.93 C 49.66 27.10, 49.54 26.66, 49.34 26.06 C 49.15 25.46, 49.00 25.16, 48.84 24.95 C 48.69 24.75, 48.60 24.78, 48.57 25.03"/>
<path d="M 47.86,13.90 C 47.85 14.02, 47.88 14.13, 47.98 14.21 C 48.07 14.29, 48.21 14.33, 48.33 14.29 C 48.45 14.25, 48.56 14.12, 48.57 14.00 C 48.59 13.87, 48.51 13.71, 48.40 13.64 C 48.29 13.57, 48.14 13.58, 48.03 13.63 C 47.92 13.68, 47.87 13.79, 47.86 13.90"/>
<path d="M 54.89,24.42 C 54.85 24.61, 54.92 24.83, 54.98 25.31 C 55.05 25.79, 55.08 26.13, 55.20 26.81 C 55.32 27.49, 55.44 27.97, 55.57 28.72 C 55.71 29.48, 55.78 29.90, 55.87 30.57 C 55.96 31.25, 55.96 31.62, 56.04 32.11 C 56.12 32.61, 56.17 32.85, 56.27 33.05 C 56.37 33.25, 56.44 33.27, 56.54 33.12 C 56.65 32.96, 56.69 32.78, 56.78 32.26 C 56.88 31.74, 56.91 31.31, 57.03 30.52 C 57.14 29.74, 57.19 29.18, 57.37 28.33 C 57.55 27.48, 57.68 26.97, 57.94 26.25 C 58.20 25.53, 58.37 25.17, 58.66 24.73 C 58.95 24.28, 59.11 24.14, 59.40 24.02 C 59.69 23.89, 59.83 23.92, 60.12 24.10 C 60.40 24.29, 60.54 24.45, 60.84 24.95 C 61.13 25.45, 61.29 25.83, 61.60 26.60 C 61.90 27.36, 62.08 27.88, 62.36 28.76 C 62.64 29.65, 62.76 30.18, 62.99 31.02 C 63.23 31.86, 63.34 32.34, 63.53 32.95 C 63.73 33.57, 63.82 33.77, 63.96 34.09 C 64.10 34.41, 64.16 34.48, 64.24 34.57 C 64.32 34.66, 64.36 34.64, 64.38 34.53 C 64.40 34.41, 64.38 34.33, 64.34 33.99 C 64.30 33.64, 64.29 33.43, 64.17 32.80 C 64.05 32.16, 63.94 31.68, 63.73 30.83 C 63.53 29.97, 63.42 29.43, 63.14 28.52 C 62.87 27.61, 62.71 27.07, 62.36 26.28 C 62.02 25.49, 61.82 25.08, 61.42 24.55 C 61.02 24.03, 60.78 23.85, 60.35 23.66 C 59.91 23.47, 59.68 23.45, 59.24 23.60 C 58.81 23.74, 58.58 23.89, 58.19 24.37 C 57.79 24.85, 57.59 25.23, 57.25 25.98 C 56.92 26.73, 56.77 27.25, 56.54 28.13 C 56.30 29.01, 56.18 29.57, 56.07 30.39 C 55.97 31.21, 55.98 31.67, 56.02 32.22 C 56.06 32.77, 56.17 32.96, 56.28 33.13 C 56.40 33.29, 56.52 33.25, 56.60 33.04 C 56.69 32.82, 56.71 32.57, 56.71 32.06 C 56.71 31.55, 56.67 31.19, 56.61 30.49 C 56.55 29.80, 56.52 29.35, 56.41 28.58 C 56.29 27.82, 56.18 27.33, 56.02 26.65 C 55.85 25.96, 55.77 25.62, 55.59 25.16 C 55.42 24.69, 55.29 24.48, 55.15 24.33 C 55.01 24.19, 54.92 24.22, 54.89 24.42"/>
<path d="M 69.88,29.28 C 70.00 29.38, 70.19 29.47, 70.53 29.51 C 70.87 29.54, 71.13 29.58, 71.58 29.46 C 72.03 29.35, 72.35 29.24, 72.79 28.94 C 73.23 28.65, 73.45 28.43, 73.78 27.98 C 74.11 27.53, 74.25 27.23, 74.45 26.69 C 74.65 26.15, 74.74 25.84, 74.78 25.29 C 74.83 24.74, 74.82 24.45, 74.68 23.95 C 74.55 23.45, 74.42 23.17, 74.10 22.81 C 73.79 22.44, 73.57 22.28, 73.12 22.13 C 72.68 21.98, 72.39 21.96, 71.88 22.05 C 71.38 22.14, 71.08 22.23, 70.60 22.56 C 70.11 22.89, 69.84 23.14, 69.44 23.70 C 69.04 24.26, 68.85 24.63, 68.61 25.36 C 68.37 26.08, 68.29 26.53, 68.24 27.34 C 68.19 28.16, 68.20 28.64, 68.35 29.44 C 68.51 30.25, 68.64 30.69, 69.01 31.38 C 69.39 32.07, 69.65 32.40, 70.22 32.90 C 70.79 33.39, 71.18 33.58, 71.85 33.86 C 72.51 34.14, 72.95 34.22, 73.53 34.30 C 74.12 34.38, 74.51 34.31, 74.76 34.25 C 75.01 34.19, 75.01 34.10, 74.79 33.99 C 74.57 33.88, 74.19 33.86, 73.66 33.71 C 73.12 33.55, 72.72 33.47, 72.12 33.21 C 71.52 32.95, 71.15 32.83, 70.65 32.40 C 70.14 31.97, 69.92 31.68, 69.60 31.07 C 69.29 30.45, 69.18 30.05, 69.05 29.32 C 68.93 28.58, 68.92 28.14, 68.97 27.39 C 69.03 26.64, 69.10 26.24, 69.31 25.59 C 69.52 24.93, 69.71 24.61, 70.04 24.12 C 70.38 23.63, 70.60 23.42, 71.00 23.13 C 71.39 22.85, 71.62 22.77, 72.00 22.69 C 72.39 22.60, 72.61 22.61, 72.93 22.71 C 73.26 22.81, 73.41 22.92, 73.63 23.20 C 73.85 23.48, 73.96 23.71, 74.05 24.11 C 74.14 24.51, 74.15 24.76, 74.10 25.22 C 74.04 25.69, 73.95 25.97, 73.78 26.43 C 73.60 26.90, 73.48 27.18, 73.20 27.55 C 72.92 27.93, 72.74 28.07, 72.37 28.30 C 72.01 28.53, 71.74 28.59, 71.37 28.71 C 71.00 28.82, 70.80 28.81, 70.51 28.87 C 70.22 28.93, 70.03 28.91, 69.90 28.99 C 69.78 29.07, 69.75 29.18, 69.88 29.28"/>
<path d="M 105.79,23.80 C 105.73 23.67, 105.64 23.56, 105.37 23.41 C 105.10 23.26, 104.92 23.14, 104.44 23.06 C 103.97 22.98, 103.62 22.93, 103.00 23.00 C 102.38 23.07, 101.99 23.13, 101.35 23.42 C 100.72 23.71, 100.35 23.92, 99.81 24.45 C 99.27 24.97, 98.98 25.33, 98.66 26.03 C 98.33 26.73, 98.23 27.18, 98.17 27.97 C 98.12 28.75, 98.15 29.20, 98.38 29.94 C 98.60 30.68, 98.80 31.08, 99.28 31.68 C 99.76 32.29, 100.10 32.58, 100.77 32.95 C 101.44 33.31, 101.87 33.45, 102.64 33.52 C 103.41 33.59, 103.87 33.52, 104.62 33.28 C 105.37 33.03, 105.78 32.79, 106.39 32.29 C 106.99 31.79, 107.28 31.44, 107.66 30.79 C 108.04 30.13, 108.17 29.72, 108.29 29.01 C 108.40 28.29, 108.37 27.89, 108.25 27.22 C 108.13 26.54, 107.98 26.20, 107.70 25.63 C 107.42 25.06, 107.19 24.77, 106.84 24.38 C 106.49 23.99, 106.24 23.85, 105.93 23.67 C 105.61 23.48, 105.42 23.46, 105.27 23.46 C 105.11 23.45, 105.09 23.52, 105.16 23.64 C 105.23 23.76, 105.39 23.83, 105.62 24.06 C 105.86 24.30, 106.04 24.44, 106.33 24.81 C 106.62 25.19, 106.84 25.43, 107.09 25.93 C 107.34 26.44, 107.49 26.74, 107.60 27.33 C 107.71 27.93, 107.74 28.28, 107.63 28.90 C 107.53 29.52, 107.41 29.88, 107.08 30.45 C 106.74 31.02, 106.49 31.32, 105.95 31.76 C 105.42 32.19, 105.06 32.41, 104.41 32.63 C 103.76 32.85, 103.35 32.91, 102.69 32.85 C 102.03 32.80, 101.67 32.68, 101.09 32.36 C 100.51 32.05, 100.22 31.79, 99.81 31.27 C 99.39 30.74, 99.21 30.40, 99.02 29.75 C 98.84 29.10, 98.81 28.70, 98.86 28.02 C 98.92 27.33, 99.00 26.94, 99.29 26.33 C 99.58 25.72, 99.84 25.41, 100.31 24.97 C 100.78 24.52, 101.10 24.34, 101.65 24.11 C 102.21 23.88, 102.55 23.87, 103.09 23.81 C 103.63 23.76, 103.92 23.81, 104.34 23.85 C 104.76 23.88, 104.91 23.93, 105.17 23.97 C 105.44 24.01, 105.54 24.08, 105.66 24.04 C 105.79 24.01, 105.85 23.93, 105.79 23.80"/>
<path d="M 118.09,14.36 C 118.22 14.19, 118.40 13.93, 118.48 13.42 C 118.56 12.90, 118.60 12.53, 118.50 11.79 C 118.41 11.06, 118.33 10.53, 118.02 9.74 C 117.71 8.95, 117.44 8.51, 116.95 7.84 C 116.47 7.17, 116.15 6.82, 115.60 6.40 C 115.05 5.98, 114.74 5.83, 114.21 5.75 C 113.68 5.67, 113.38 5.71, 112.96 6.00 C 112.53 6.29, 112.33 6.52, 112.08 7.20 C 111.84 7.87, 111.77 8.30, 111.73 9.36 C 111.69 10.42, 111.73 11.08, 111.89 12.50 C 112.04 13.91, 112.20 14.74, 112.51 16.41 C 112.81 18.09, 113.03 19.05, 113.40 20.88 C 113.78 22.70, 114.00 23.71, 114.38 25.52 C 114.76 27.33, 114.97 28.28, 115.29 29.93 C 115.61 31.58, 115.76 32.41, 115.98 33.76 C 116.20 35.11, 116.27 35.74, 116.38 36.68 C 116.50 37.62, 116.51 37.95, 116.55 38.46 C 116.60 38.97, 116.57 39.10, 116.61 39.26 C 116.65 39.42, 116.69 39.43, 116.76 39.27 C 116.82 39.11, 116.89 38.99, 116.93 38.46 C 116.97 37.93, 117.02 37.59, 116.96 36.63 C 116.90 35.67, 116.83 35.03, 116.63 33.66 C 116.43 32.30, 116.28 31.46, 115.98 29.80 C 115.67 28.14, 115.46 27.19, 115.10 25.37 C 114.73 23.56, 114.52 22.54, 114.15 20.72 C 113.79 18.90, 113.58 17.94, 113.28 16.27 C 112.99 14.61, 112.84 13.79, 112.69 12.41 C 112.53 11.03, 112.50 10.38, 112.50 9.38 C 112.50 8.37, 112.54 7.98, 112.69 7.38 C 112.84 6.79, 112.96 6.62, 113.24 6.40 C 113.53 6.17, 113.72 6.15, 114.11 6.25 C 114.50 6.36, 114.74 6.50, 115.18 6.91 C 115.62 7.31, 115.92 7.64, 116.33 8.27 C 116.75 8.90, 116.98 9.31, 117.25 10.04 C 117.53 10.76, 117.59 11.24, 117.71 11.91 C 117.83 12.58, 117.84 12.90, 117.86 13.38 C 117.88 13.86, 117.76 14.10, 117.81 14.30 C 117.86 14.50, 117.95 14.54, 118.09 14.36"/>
<path d="M 116.48,28.66 C 116.58 28.62, 116.65 28.54, 116.70 28.40 C 116.75 28.26, 116.76 28.13, 116.73 27.94 C 116.70 27.76, 116.67 27.63, 116.56 27.48 C 116.46 27.32, 116.34 27.25, 116.21 27.18 C 116.08 27.12, 115.98 27.12, 115.89 27.15 C 115.80 27.18, 115.78 27.26, 115.76 27.34 C 115.74 27.43, 115.79 27.47, 115.81 27.56 C 115.82 27.65, 115.81 27.69, 115.83 27.81 C 115.85 27.92, 115.85 28.01, 115.89 28.14 C 115.94 28.26, 115.98 28.33, 116.04 28.43 C 116.10 28.52, 116.11 28.57, 116.20 28.62 C 116.28 28.66, 116.38 28.70, 116.48 28.66"/>
<path d="M 139.74,22.12 C 139.69 22.38, 139.73 22.70, 139.76 23.37 C 139.78 24.03, 139.81 24.51, 139.87 25.46 C 139.93 26.41, 139.97 27.09, 140.07 28.11 C 140.17 29.14, 140.26 29.72, 140.37 30.58 C 140.48 31.44, 140.51 31.81, 140.62 32.40 C 140.72 32.98, 140.80 33.20, 140.89 33.52 C 140.98 33.84, 141.01 33.90, 141.08 33.99 C 141.14 34.08, 141.18 34.07, 141.22 33.96 C 141.26 33.86, 141.26 33.79, 141.26 33.46 C 141.26 33.14, 141.24 32.92, 141.20 32.33 C 141.17 31.74, 141.14 31.37, 141.09 30.51 C 141.03 29.65, 141.00 29.06, 140.93 28.04 C 140.85 27.01, 140.82 26.33, 140.71 25.38 C 140.60 24.43, 140.52 23.95, 140.39 23.29 C 140.25 22.63, 140.15 22.31, 140.02 22.08 C 139.89 21.84, 139.80 21.86, 139.74 22.12"/>
<path d="M 138.39,13.41 C 138.32 13.49, 138.28 13.58, 138.30 13.61 C 138.33 13.65, 138.41 13.65, 138.50 13.60 C 138.60 13.54, 138.73 13.43, 138.80 13.34 C 138.86 13.25, 138.87 13.18, 138.84 13.15 C 138.81 13.12, 138.72 13.15, 138.63 13.20 C 138.54 13.26, 138.45 13.33, 138.39 13.41"/>
<path d="M 144.62,24.89 C 144.57 25.06, 144.60 25.26, 144.63 25.68 C 144.66 26.09, 144.69 26.36, 144.77 26.96 C 144.86 27.57, 144.95 28.02, 145.06 28.71 C 145.17 29.40, 145.22 29.79, 145.32 30.41 C 145.42 31.03, 145.46 31.38, 145.55 31.80 C 145.63 32.23, 145.67 32.40, 145.76 32.54 C 145.86 32.67, 145.92 32.66, 146.01 32.48 C 146.09 32.29, 146.12 32.09, 146.19 31.60 C 146.26 31.12, 146.25 30.76, 146.34 30.04 C 146.42 29.33, 146.46 28.85, 146.62 28.02 C 146.78 27.19, 146.88 26.67, 147.14 25.89 C 147.41 25.12, 147.58 24.71, 147.93 24.15 C 148.28 23.59, 148.49 23.36, 148.87 23.09 C 149.26 22.82, 149.46 22.76, 149.86 22.80 C 150.27 22.84, 150.47 22.94, 150.88 23.30 C 151.28 23.65, 151.50 23.93, 151.88 24.55 C 152.26 25.18, 152.46 25.61, 152.78 26.42 C 153.10 27.23, 153.24 27.74, 153.48 28.59 C 153.71 29.44, 153.79 29.91, 153.94 30.66 C 154.10 31.41, 154.13 31.80, 154.25 32.34 C 154.38 32.87, 154.46 33.05, 154.57 33.33 C 154.67 33.60, 154.70 33.63, 154.77 33.69 C 154.84 33.76, 154.87 33.75, 154.90 33.67 C 154.93 33.58, 154.94 33.54, 154.93 33.25 C 154.92 32.97, 154.92 32.78, 154.86 32.23 C 154.80 31.69, 154.77 31.30, 154.64 30.53 C 154.51 29.77, 154.44 29.27, 154.21 28.39 C 153.99 27.51, 153.85 26.98, 153.51 26.13 C 153.18 25.28, 152.97 24.81, 152.52 24.14 C 152.07 23.48, 151.79 23.17, 151.27 22.79 C 150.75 22.42, 150.44 22.31, 149.91 22.28 C 149.37 22.25, 149.08 22.33, 148.58 22.63 C 148.07 22.93, 147.81 23.19, 147.38 23.79 C 146.95 24.39, 146.74 24.82, 146.43 25.63 C 146.11 26.44, 145.99 26.98, 145.79 27.85 C 145.60 28.71, 145.51 29.19, 145.43 29.94 C 145.35 30.69, 145.35 31.08, 145.40 31.59 C 145.45 32.10, 145.55 32.32, 145.67 32.51 C 145.79 32.70, 145.91 32.70, 146.01 32.55 C 146.12 32.40, 146.18 32.19, 146.19 31.75 C 146.21 31.30, 146.14 30.95, 146.09 30.32 C 146.03 29.68, 146.01 29.28, 145.91 28.58 C 145.81 27.88, 145.72 27.42, 145.59 26.81 C 145.45 26.21, 145.37 25.95, 145.23 25.55 C 145.09 25.15, 145.01 24.96, 144.89 24.83 C 144.77 24.69, 144.67 24.72, 144.62 24.89"/>
<path d="M 157.59,11.55 C 157.53 11.71, 157.55 11.82, 157.53 12.29 C 157.52 12.76, 157.52 13.05, 157.51 13.88 C 157.50 14.72, 157.49 15.28, 157.49 16.46 C 157.48 17.65, 157.48 18.41, 157.50 19.79 C 157.53 21.17, 157.54 21.98, 157.61 23.38 C 157.67 24.78, 157.72 25.53, 157.83 26.78 C 157.93 28.03, 158.01 28.65, 158.13 29.64 C 158.25 30.63, 158.30 31.08, 158.45 31.73 C 158.60 32.38, 158.67 32.62, 158.89 32.89 C 159.12 33.16, 159.26 33.17, 159.56 33.08 C 159.87 32.98, 160.04 32.83, 160.40 32.41 C 160.77 31.99, 160.97 31.68, 161.37 30.98 C 161.77 30.28, 162.00 29.79, 162.42 28.92 C 162.84 28.05, 163.07 27.53, 163.48 26.65 C 163.89 25.77, 164.11 25.29, 164.47 24.50 C 164.83 23.71, 165.01 23.31, 165.28 22.68 C 165.55 22.06, 165.66 21.80, 165.81 21.39 C 165.95 20.97, 166.00 20.78, 166.00 20.61 C 166.01 20.44, 165.95 20.42, 165.82 20.54 C 165.70 20.65, 165.62 20.82, 165.39 21.19 C 165.17 21.57, 165.01 21.81, 164.70 22.41 C 164.39 23.01, 164.22 23.42, 163.83 24.20 C 163.45 24.98, 163.22 25.45, 162.79 26.32 C 162.36 27.18, 162.11 27.70, 161.67 28.55 C 161.24 29.40, 160.98 29.87, 160.62 30.56 C 160.25 31.26, 160.08 31.57, 159.84 32.02 C 159.60 32.46, 159.54 32.64, 159.41 32.79 C 159.27 32.93, 159.26 32.95, 159.18 32.72 C 159.10 32.49, 159.08 32.26, 159.00 31.63 C 158.92 31.00, 158.87 30.55, 158.77 29.57 C 158.68 28.59, 158.61 27.97, 158.53 26.73 C 158.45 25.48, 158.41 24.74, 158.36 23.35 C 158.32 21.96, 158.32 21.16, 158.32 19.78 C 158.32 18.40, 158.34 17.65, 158.34 16.46 C 158.34 15.28, 158.36 14.71, 158.31 13.86 C 158.26 13.02, 158.19 12.71, 158.10 12.24 C 158.00 11.77, 157.94 11.66, 157.84 11.52 C 157.74 11.38, 157.65 11.40, 157.59 11.55"/>
<path d="M 162.55,26.12 C 162.56 26.40, 162.65 26.80, 162.85 27.42 C 163.04 28.05, 163.17 28.48, 163.52 29.24 C 163.88 30.00, 164.12 30.49, 164.60 31.21 C 165.08 31.93, 165.38 32.27, 165.92 32.85 C 166.47 33.43, 166.80 33.70, 167.33 34.12 C 167.85 34.55, 168.13 34.75, 168.57 34.98 C 169.00 35.22, 169.28 35.28, 169.49 35.31 C 169.70 35.33, 169.72 35.26, 169.60 35.11 C 169.47 34.96, 169.23 34.85, 168.86 34.55 C 168.49 34.25, 168.24 34.05, 167.76 33.61 C 167.28 33.18, 166.94 32.94, 166.44 32.38 C 165.94 31.81, 165.69 31.49, 165.25 30.79 C 164.81 30.09, 164.61 29.62, 164.25 28.89 C 163.89 28.17, 163.74 27.75, 163.46 27.18 C 163.17 26.60, 163.01 26.23, 162.83 26.02 C 162.65 25.80, 162.55 25.84, 162.55 26.12"/>
<path d="M 178.16,33.51 C 178.06 33.72, 178.03 34.00, 177.91 34.59 C 177.79 35.19, 177.66 35.75, 177.55 36.48 C 177.44 37.21, 177.41 37.67, 177.37 38.24 C 177.33 38.81, 177.30 39.11, 177.34 39.34 C 177.37 39.57, 177.42 39.58, 177.56 39.39 C 177.70 39.20, 177.84 38.92, 178.02 38.37 C 178.20 37.82, 178.33 37.36, 178.45 36.62 C 178.57 35.88, 178.61 35.28, 178.61 34.66 C 178.61 34.04, 178.53 33.75, 178.44 33.52 C 178.35 33.29, 178.27 33.30, 178.16 33.51"/>
<path d="M 195.78,13.44 C 195.69 13.59, 195.64 13.73, 195.60 14.23 C 195.55 14.72, 195.54 15.05, 195.57 15.91 C 195.59 16.77, 195.63 17.34, 195.72 18.52 C 195.81 19.69, 195.88 20.46, 196.03 21.79 C 196.18 23.12, 196.28 23.88, 196.45 25.17 C 196.63 26.46, 196.74 27.13, 196.91 28.25 C 197.09 29.37, 197.18 29.93, 197.34 30.75 C 197.49 31.57, 197.57 31.87, 197.68 32.34 C 197.79 32.81, 197.82 32.96, 197.89 33.11 C 197.97 33.26, 198.02 33.25, 198.06 33.09 C 198.09 32.92, 198.11 32.77, 198.09 32.29 C 198.07 31.80, 198.05 31.48, 197.95 30.65 C 197.86 29.83, 197.75 29.26, 197.60 28.15 C 197.45 27.03, 197.35 26.37, 197.20 25.08 C 197.04 23.79, 196.96 23.03, 196.84 21.71 C 196.72 20.38, 196.67 19.62, 196.58 18.45 C 196.48 17.28, 196.45 16.70, 196.37 15.86 C 196.29 15.01, 196.24 14.70, 196.17 14.21 C 196.10 13.73, 196.11 13.60, 196.03 13.45 C 195.95 13.29, 195.87 13.28, 195.78 13.44"/>
<path d="M 198.72,25.40 C 198.80 25.36, 198.84 25.29, 198.83 25.16 C 198.82 25.04, 198.81 24.91, 198.69 24.76 C 198.56 24.61, 198.44 24.54, 198.20 24.42 C 197.97 24.30, 197.82 24.26, 197.52 24.16 C 197.22 24.07, 197.02 24.01, 196.70 23.94 C 196.39 23.88, 196.22 23.85, 195.96 23.83 C 195.71 23.80, 195.55 23.78, 195.43 23.82 C 195.30 23.87, 195.27 23.94, 195.34 24.06 C 195.41 24.18, 195.54 24.28, 195.76 24.42 C 195.99 24.55, 196.17 24.63, 196.47 24.74 C 196.77 24.86, 196.98 24.89, 197.26 24.98 C 197.54 25.07, 197.66 25.11, 197.86 25.19 C 198.05 25.26, 198.12 25.32, 198.23 25.35 C 198.33 25.38, 198.33 25.35, 198.38 25.35 C 198.43 25.35, 198.40 25.36, 198.46 25.37 C 198.53 25.38, 198.65 25.44, 198.72 25.40"/>
<path d="M 201.18,11.46 C 201.13 11.69, 201.17 11.95, 201.20 12.55 C 201.23 13.16, 201.27 13.53, 201.34 14.49 C 201.41 15.44, 201.46 16.09, 201.55 17.33 C 201.64 18.57, 201.69 19.31, 201.77 20.69 C 201.85 22.07, 201.87 22.87, 201.94 24.23 C 202.00 25.60, 202.04 26.38, 202.11 27.52 C 202.18 28.66, 202.20 29.21, 202.29 29.94 C 202.38 30.68, 202.43 30.95, 202.58 31.20 C 202.72 31.44, 202.80 31.41, 203.01 31.19 C 203.21 30.97, 203.36 30.68, 203.61 30.11 C 203.86 29.53, 203.98 29.07, 204.25 28.31 C 204.53 27.54, 204.66 27.03, 204.99 26.27 C 205.32 25.51, 205.54 25.09, 205.89 24.50 C 206.25 23.91, 206.43 23.64, 206.78 23.33 C 207.14 23.01, 207.31 22.92, 207.66 22.92 C 208.02 22.91, 208.20 22.99, 208.55 23.28 C 208.90 23.58, 209.09 23.83, 209.41 24.38 C 209.74 24.93, 209.91 25.33, 210.18 26.05 C 210.45 26.76, 210.57 27.24, 210.77 27.96 C 210.98 28.68, 211.06 29.10, 211.21 29.65 C 211.36 30.20, 211.42 30.51, 211.53 30.71 C 211.64 30.92, 211.71 30.91, 211.76 30.68 C 211.81 30.45, 211.82 30.13, 211.78 29.55 C 211.73 28.97, 211.70 28.53, 211.53 27.77 C 211.36 27.01, 211.23 26.51, 210.93 25.76 C 210.64 25.00, 210.45 24.57, 210.05 23.98 C 209.64 23.38, 209.39 23.10, 208.91 22.79 C 208.43 22.48, 208.14 22.40, 207.65 22.42 C 207.15 22.44, 206.90 22.55, 206.44 22.89 C 205.97 23.23, 205.75 23.51, 205.32 24.11 C 204.88 24.72, 204.64 25.15, 204.25 25.92 C 203.86 26.70, 203.65 27.20, 203.37 27.99 C 203.09 28.78, 202.98 29.25, 202.85 29.87 C 202.72 30.48, 202.72 30.81, 202.72 31.06 C 202.71 31.31, 202.79 31.37, 202.82 31.14 C 202.86 30.91, 202.88 30.64, 202.88 29.91 C 202.88 29.18, 202.86 28.63, 202.82 27.49 C 202.78 26.35, 202.74 25.57, 202.69 24.20 C 202.64 22.83, 202.62 22.04, 202.56 20.65 C 202.50 19.27, 202.47 18.52, 202.38 17.27 C 202.30 16.02, 202.25 15.37, 202.13 14.41 C 202.01 13.45, 201.92 13.07, 201.79 12.47 C 201.65 11.87, 201.57 11.62, 201.45 11.42 C 201.33 11.22, 201.23 11.23, 201.18 11.46"/>
<path d="M 215.47,23.97 C 215.42 24.14, 215.44 24.32, 215.46 24.80 C 215.47 25.27, 215.50 25.61, 215.55 26.34 C 215.61 27.08, 215.66 27.60, 215.75 28.47 C 215.84 29.34, 215.90 29.90, 216.00 30.70 C 216.10 31.49, 216.14 31.90, 216.24 32.45 C 216.34 32.99, 216.41 33.15, 216.49 33.41 C 216.58 33.66, 216.61 33.66, 216.66 33.72 C 216.72 33.77, 216.74 33.77, 216.77 33.70 C 216.80 33.63, 216.81 33.63, 216.83 33.37 C 216.85 33.10, 216.88 32.93, 216.87 32.38 C 216.86 31.84, 216.83 31.43, 216.79 30.63 C 216.74 29.83, 216.71 29.26, 216.63 28.38 C 216.55 27.51, 216.50 26.98, 216.38 26.24 C 216.27 25.51, 216.19 25.17, 216.06 24.70 C 215.93 24.24, 215.85 24.06, 215.73 23.92 C 215.62 23.77, 215.53 23.79, 215.47 23.97"/>
<path d="M 213.70,14.99 C 213.65 15.09, 213.64 15.22, 213.70 15.29 C 213.76 15.37, 213.89 15.41, 214.00 15.37 C 214.12 15.34, 214.23 15.22, 214.28 15.11 C 214.32 15.00, 214.29 14.89, 214.23 14.83 C 214.16 14.76, 214.06 14.76, 213.96 14.79 C 213.85 14.82, 213.75 14.89, 213.70 14.99"/>
<path d="M 220.08,24.57 C 220.04 24.76, 220.09 24.96, 220.17 25.41 C 220.25 25.86, 220.34 26.19, 220.47 26.82 C 220.61 27.45, 220.70 27.87, 220.85 28.56 C 220.99 29.25, 221.07 29.65, 221.20 30.29 C 221.33 30.93, 221.37 31.29, 221.49 31.75 C 221.60 32.22, 221.65 32.41, 221.77 32.61 C 221.90 32.82, 222.01 32.88, 222.13 32.78 C 222.25 32.68, 222.30 32.54, 222.38 32.13 C 222.46 31.71, 222.47 31.38, 222.54 30.70 C 222.61 30.03, 222.62 29.55, 222.75 28.76 C 222.87 27.97, 222.95 27.48, 223.16 26.75 C 223.38 26.02, 223.53 25.63, 223.83 25.09 C 224.12 24.55, 224.31 24.31, 224.65 24.03 C 224.99 23.75, 225.18 23.69, 225.54 23.69 C 225.89 23.69, 226.08 23.76, 226.43 24.05 C 226.78 24.33, 226.96 24.55, 227.29 25.13 C 227.62 25.71, 227.79 26.13, 228.09 26.94 C 228.39 27.75, 228.54 28.29, 228.78 29.16 C 229.03 30.04, 229.13 30.55, 229.31 31.32 C 229.49 32.09, 229.55 32.50, 229.69 33.01 C 229.82 33.52, 229.88 33.65, 230.00 33.87 C 230.11 34.08, 230.17 34.08, 230.25 34.10 C 230.32 34.11, 230.37 33.99, 230.37 33.96 C 230.38 33.92, 230.29 33.90, 230.27 33.92 C 230.26 33.93, 230.28 34.06, 230.30 34.03 C 230.32 34.00, 230.36 34.00, 230.36 33.77 C 230.35 33.54, 230.34 33.41, 230.27 32.89 C 230.21 32.37, 230.17 31.96, 230.02 31.17 C 229.88 30.38, 229.79 29.86, 229.55 28.96 C 229.32 28.05, 229.18 27.50, 228.85 26.65 C 228.52 25.81, 228.33 25.36, 227.92 24.74 C 227.50 24.12, 227.26 23.87, 226.78 23.56 C 226.30 23.25, 226.03 23.17, 225.53 23.18 C 225.04 23.18, 224.77 23.27, 224.32 23.59 C 223.86 23.90, 223.64 24.16, 223.26 24.75 C 222.88 25.34, 222.71 25.74, 222.44 26.51 C 222.16 27.29, 222.06 27.79, 221.89 28.61 C 221.73 29.43, 221.66 29.92, 221.62 30.63 C 221.58 31.33, 221.62 31.69, 221.69 32.12 C 221.76 32.54, 221.88 32.67, 221.97 32.75 C 222.06 32.84, 222.11 32.75, 222.14 32.53 C 222.17 32.31, 222.18 32.12, 222.14 31.64 C 222.10 31.17, 222.04 30.81, 221.94 30.16 C 221.85 29.51, 221.80 29.11, 221.67 28.40 C 221.53 27.69, 221.46 27.26, 221.28 26.62 C 221.10 25.99, 220.97 25.65, 220.78 25.23 C 220.59 24.80, 220.48 24.61, 220.33 24.48 C 220.19 24.35, 220.11 24.39, 220.08 24.57"/>
<path d="M 234.03,11.73 C 233.96 11.92, 233.99 12.12, 233.98 12.67 C 233.97 13.21, 233.96 13.54, 233.99 14.45 C 234.02 15.36, 234.08 15.99, 234.14 17.20 C 234.19 18.40, 234.20 19.12, 234.28 20.47 C 234.37 21.83, 234.44 22.63, 234.57 23.96 C 234.69 25.30, 234.77 26.00, 234.90 27.16 C 235.03 28.31, 235.08 28.87, 235.21 29.75 C 235.35 30.64, 235.40 31.04, 235.58 31.58 C 235.76 32.12, 235.86 32.32, 236.09 32.45 C 236.33 32.57, 236.46 32.54, 236.77 32.19 C 237.07 31.84, 237.24 31.51, 237.61 30.70 C 237.98 29.89, 238.20 29.28, 238.62 28.15 C 239.03 27.03, 239.26 26.28, 239.69 25.09 C 240.12 23.89, 240.35 23.19, 240.75 22.17 C 241.15 21.14, 241.36 20.66, 241.67 19.96 C 241.98 19.25, 242.12 19.03, 242.31 18.63 C 242.50 18.24, 242.55 18.16, 242.63 17.98 C 242.71 17.79, 242.71 17.78, 242.71 17.72 C 242.71 17.65, 242.69 17.63, 242.62 17.65 C 242.56 17.67, 242.54 17.67, 242.40 17.82 C 242.25 17.97, 242.16 18.02, 241.90 18.40 C 241.65 18.77, 241.49 18.99, 241.12 19.69 C 240.76 20.39, 240.52 20.87, 240.07 21.89 C 239.63 22.91, 239.37 23.61, 238.91 24.80 C 238.45 25.99, 238.18 26.72, 237.76 27.84 C 237.35 28.96, 237.12 29.57, 236.84 30.39 C 236.56 31.22, 236.48 31.57, 236.36 31.95 C 236.23 32.33, 236.28 32.38, 236.22 32.28 C 236.16 32.18, 236.16 31.98, 236.08 31.46 C 236.01 30.94, 235.94 30.54, 235.84 29.67 C 235.74 28.79, 235.70 28.24, 235.59 27.09 C 235.48 25.93, 235.41 25.23, 235.31 23.90 C 235.21 22.57, 235.15 21.78, 235.08 20.43 C 235.01 19.08, 235.04 18.37, 234.98 17.16 C 234.92 15.95, 234.88 15.31, 234.80 14.40 C 234.71 13.49, 234.66 13.16, 234.56 12.61 C 234.46 12.07, 234.39 11.87, 234.29 11.70 C 234.18 11.52, 234.09 11.53, 234.03 11.73"/>
<path d="M 238.72,27.32 C 238.74 27.54, 238.86 27.79, 239.09 28.25 C 239.32 28.71, 239.48 29.03, 239.86 29.61 C 240.23 30.19, 240.51 30.57, 240.96 31.16 C 241.42 31.75, 241.68 32.05, 242.13 32.56 C 242.59 33.06, 242.83 33.30, 243.24 33.68 C 243.65 34.05, 243.87 34.21, 244.20 34.43 C 244.52 34.64, 244.65 34.68, 244.87 34.75 C 245.10 34.82, 245.17 34.81, 245.32 34.79 C 245.46 34.76, 245.54 34.70, 245.60 34.62 C 245.66 34.54, 245.66 34.44, 245.62 34.39 C 245.57 34.33, 245.44 34.33, 245.38 34.34 C 245.33 34.35, 245.36 34.41, 245.34 34.43 C 245.33 34.45, 245.36 34.47, 245.30 34.45 C 245.25 34.43, 245.21 34.44, 245.06 34.34 C 244.90 34.24, 244.81 34.20, 244.54 33.97 C 244.27 33.74, 244.07 33.58, 243.70 33.20 C 243.32 32.83, 243.09 32.59, 242.68 32.09 C 242.26 31.58, 242.04 31.26, 241.61 30.67 C 241.18 30.09, 240.93 29.70, 240.53 29.15 C 240.13 28.60, 239.95 28.31, 239.63 27.91 C 239.32 27.51, 239.15 27.28, 238.96 27.17 C 238.78 27.05, 238.69 27.10, 238.72 27.32"/>
<path d="M 249.55,23.79 C 249.52 24.00, 249.59 24.21, 249.68 24.75 C 249.77 25.30, 249.86 25.69, 249.99 26.52 C 250.13 27.35, 250.22 27.92, 250.37 28.90 C 250.51 29.87, 250.59 30.46, 250.71 31.38 C 250.83 32.31, 250.88 32.82, 250.97 33.51 C 251.05 34.19, 251.09 34.43, 251.14 34.82 C 251.19 35.21, 251.15 35.32, 251.20 35.45 C 251.24 35.58, 251.29 35.59, 251.36 35.46 C 251.43 35.34, 251.49 35.23, 251.55 34.83 C 251.60 34.43, 251.64 34.17, 251.62 33.46 C 251.61 32.76, 251.57 32.24, 251.49 31.30 C 251.41 30.36, 251.35 29.76, 251.22 28.78 C 251.08 27.79, 251.00 27.20, 250.81 26.36 C 250.62 25.52, 250.48 25.12, 250.28 24.59 C 250.07 24.06, 249.95 23.86, 249.80 23.70 C 249.65 23.54, 249.57 23.58, 249.55 23.79"/>
<path d="M 248.30,13.84 C 248.28 13.94, 248.29 14.00, 248.34 14.05 C 248.39 14.10, 248.46 14.12, 248.56 14.08 C 248.66 14.04, 248.80 13.96, 248.84 13.85 C 248.89 13.74, 248.86 13.59, 248.78 13.53 C 248.71 13.47, 248.56 13.49, 248.46 13.55 C 248.36 13.61, 248.33 13.74, 248.30 13.84"/>
<path d="M 254.39,24.93 C 254.36 25.09, 254.42 25.27, 254.49 25.67 C 254.55 26.08, 254.60 26.35, 254.73 26.96 C 254.86 27.58, 254.96 28.00, 255.12 28.76 C 255.27 29.51, 255.36 29.96, 255.52 30.72 C 255.68 31.47, 255.76 31.94, 255.91 32.54 C 256.05 33.13, 256.12 33.41, 256.26 33.68 C 256.40 33.96, 256.48 34.02, 256.62 33.92 C 256.76 33.81, 256.84 33.65, 256.97 33.16 C 257.10 32.68, 257.14 32.26, 257.27 31.48 C 257.40 30.71, 257.44 30.17, 257.62 29.28 C 257.80 28.40, 257.92 27.87, 258.17 27.07 C 258.42 26.26, 258.56 25.84, 258.86 25.28 C 259.16 24.72, 259.32 24.52, 259.66 24.26 C 260.00 24.00, 260.21 23.95, 260.56 23.98 C 260.92 24.02, 261.10 24.10, 261.44 24.42 C 261.78 24.74, 261.95 25.01, 262.27 25.58 C 262.58 26.15, 262.76 26.54, 263.03 27.28 C 263.29 28.01, 263.41 28.49, 263.61 29.26 C 263.80 30.02, 263.87 30.45, 264.01 31.10 C 264.15 31.74, 264.20 32.06, 264.30 32.49 C 264.41 32.91, 264.46 33.09, 264.54 33.23 C 264.63 33.38, 264.68 33.37, 264.73 33.21 C 264.78 33.05, 264.79 32.87, 264.79 32.43 C 264.78 31.98, 264.79 31.65, 264.70 30.98 C 264.62 30.31, 264.54 29.87, 264.35 29.07 C 264.17 28.28, 264.06 27.78, 263.78 27.00 C 263.49 26.23, 263.30 25.81, 262.91 25.20 C 262.53 24.59, 262.30 24.28, 261.84 23.94 C 261.38 23.60, 261.09 23.50, 260.59 23.48 C 260.10 23.46, 259.82 23.54, 259.36 23.83 C 258.91 24.13, 258.70 24.36, 258.32 24.96 C 257.93 25.56, 257.76 25.99, 257.45 26.82 C 257.15 27.65, 257.00 28.19, 256.78 29.09 C 256.56 30.00, 256.45 30.55, 256.35 31.35 C 256.25 32.15, 256.26 32.59, 256.28 33.09 C 256.31 33.59, 256.39 33.77, 256.47 33.87 C 256.54 33.97, 256.63 33.90, 256.66 33.60 C 256.69 33.31, 256.69 33.01, 256.62 32.41 C 256.55 31.80, 256.45 31.33, 256.31 30.56 C 256.18 29.80, 256.10 29.34, 255.95 28.58 C 255.79 27.82, 255.70 27.39, 255.52 26.77 C 255.34 26.15, 255.24 25.88, 255.07 25.50 C 254.89 25.11, 254.78 24.95, 254.65 24.83 C 254.51 24.72, 254.43 24.76, 254.39 24.93"/>
<path d="M 274.66,25.19 C 274.58 25.07, 274.47 24.94, 274.16 24.84 C 273.86 24.74, 273.62 24.65, 273.13 24.68 C 272.65 24.70, 272.28 24.73, 271.72 24.95 C 271.15 25.18, 270.80 25.35, 270.30 25.78 C 269.80 26.21, 269.54 26.52, 269.22 27.10 C 268.90 27.67, 268.80 28.03, 268.70 28.65 C 268.59 29.27, 268.59 29.63, 268.70 30.21 C 268.81 30.78, 268.94 31.11, 269.26 31.53 C 269.58 31.95, 269.84 32.15, 270.31 32.32 C 270.78 32.49, 271.08 32.52, 271.63 32.39 C 272.18 32.26, 272.51 32.09, 273.07 31.65 C 273.63 31.21, 273.94 30.87, 274.44 30.20 C 274.93 29.52, 275.16 29.06, 275.53 28.27 C 275.90 27.48, 276.07 26.98, 276.29 26.26 C 276.51 25.54, 276.58 25.15, 276.64 24.66 C 276.70 24.17, 276.65 23.95, 276.59 23.79 C 276.53 23.63, 276.41 23.63, 276.34 23.86 C 276.27 24.10, 276.19 24.35, 276.22 24.97 C 276.24 25.60, 276.31 26.04, 276.46 26.98 C 276.61 27.92, 276.75 28.52, 276.97 29.69 C 277.19 30.87, 277.34 31.55, 277.57 32.86 C 277.81 34.17, 277.97 34.92, 278.15 36.24 C 278.33 37.55, 278.43 38.25, 278.48 39.44 C 278.52 40.63, 278.51 41.22, 278.39 42.19 C 278.27 43.17, 278.18 43.63, 277.89 44.33 C 277.60 45.03, 277.42 45.29, 276.95 45.70 C 276.47 46.11, 276.15 46.23, 275.51 46.37 C 274.87 46.51, 274.48 46.50, 273.75 46.40 C 273.03 46.31, 272.59 46.18, 271.88 45.90 C 271.17 45.62, 270.78 45.40, 270.20 45.02 C 269.61 44.65, 269.34 44.37, 268.94 44.02 C 268.54 43.68, 268.38 43.42, 268.19 43.30 C 268.00 43.18, 267.94 43.22, 268.01 43.44 C 268.08 43.66, 268.18 43.97, 268.54 44.41 C 268.90 44.85, 269.18 45.19, 269.79 45.62 C 270.41 46.06, 270.84 46.29, 271.62 46.59 C 272.39 46.88, 272.86 47.03, 273.67 47.10 C 274.48 47.18, 274.93 47.17, 275.66 46.98 C 276.38 46.78, 276.76 46.61, 277.31 46.12 C 277.86 45.64, 278.08 45.32, 278.42 44.56 C 278.76 43.79, 278.87 43.31, 279.02 42.28 C 279.17 41.25, 279.20 40.64, 279.17 39.42 C 279.14 38.19, 279.05 37.48, 278.89 36.14 C 278.72 34.80, 278.56 34.05, 278.34 32.73 C 278.12 31.41, 277.98 30.73, 277.78 29.55 C 277.58 28.37, 277.50 27.77, 277.34 26.84 C 277.18 25.90, 277.12 25.48, 277.00 24.88 C 276.87 24.27, 276.82 24.05, 276.69 23.82 C 276.57 23.59, 276.49 23.60, 276.36 23.74 C 276.23 23.88, 276.19 24.07, 276.04 24.52 C 275.88 24.98, 275.83 25.34, 275.59 26.03 C 275.34 26.71, 275.18 27.19, 274.82 27.93 C 274.46 28.67, 274.24 29.11, 273.80 29.74 C 273.35 30.37, 273.07 30.68, 272.60 31.09 C 272.13 31.50, 271.88 31.65, 271.46 31.79 C 271.04 31.93, 270.85 31.91, 270.51 31.78 C 270.17 31.66, 269.99 31.50, 269.76 31.17 C 269.53 30.83, 269.43 30.57, 269.35 30.09 C 269.27 29.61, 269.27 29.30, 269.37 28.77 C 269.47 28.24, 269.55 27.93, 269.84 27.45 C 270.12 26.97, 270.35 26.71, 270.78 26.36 C 271.22 26.02, 271.52 25.90, 272.01 25.72 C 272.49 25.54, 272.79 25.53, 273.20 25.47 C 273.62 25.41, 273.79 25.44, 274.06 25.43 C 274.33 25.43, 274.45 25.49, 274.57 25.45 C 274.69 25.40, 274.74 25.31, 274.66 25.19"/>
<path d="M 306.16,23.53 C 306.12 23.39, 306.04 23.25, 305.77 23.06 C 305.50 22.87, 305.30 22.74, 304.82 22.59 C 304.34 22.44, 304.00 22.31, 303.39 22.31 C 302.77 22.30, 302.39 22.33, 301.75 22.56 C 301.10 22.79, 300.75 22.96, 300.15 23.44 C 299.56 23.92, 299.21 24.25, 298.76 24.97 C 298.31 25.68, 298.13 26.14, 297.90 27.00 C 297.67 27.86, 297.63 28.38, 297.62 29.25 C 297.62 30.13, 297.68 30.59, 297.87 31.37 C 298.06 32.14, 298.22 32.55, 298.58 33.13 C 298.95 33.72, 299.20 33.98, 299.68 34.28 C 300.17 34.58, 300.47 34.64, 301.00 34.62 C 301.53 34.61, 301.82 34.53, 302.35 34.20 C 302.87 33.87, 303.16 33.60, 303.63 32.98 C 304.11 32.36, 304.34 31.91, 304.73 31.11 C 305.11 30.32, 305.29 29.81, 305.55 28.99 C 305.81 28.16, 305.91 27.65, 306.03 26.98 C 306.15 26.32, 306.13 25.99, 306.13 25.68 C 306.13 25.37, 306.06 25.32, 306.03 25.45 C 306.00 25.59, 305.96 25.83, 305.98 26.35 C 306.01 26.88, 306.05 27.30, 306.17 28.07 C 306.28 28.83, 306.37 29.37, 306.54 30.18 C 306.70 30.98, 306.81 31.45, 306.99 32.09 C 307.17 32.73, 307.30 33.12, 307.44 33.37 C 307.58 33.61, 307.65 33.59, 307.69 33.32 C 307.72 33.04, 307.67 32.63, 307.61 31.98 C 307.55 31.32, 307.50 30.85, 307.40 30.04 C 307.30 29.22, 307.24 28.67, 307.10 27.91 C 306.95 27.15, 306.86 26.73, 306.68 26.22 C 306.50 25.70, 306.40 25.48, 306.21 25.35 C 306.02 25.22, 305.93 25.27, 305.75 25.57 C 305.57 25.86, 305.52 26.18, 305.33 26.82 C 305.14 27.46, 305.07 27.96, 304.81 28.75 C 304.54 29.54, 304.37 30.01, 304.01 30.77 C 303.65 31.53, 303.43 31.95, 303.02 32.53 C 302.62 33.11, 302.40 33.36, 301.99 33.67 C 301.58 33.98, 301.37 34.05, 300.97 34.08 C 300.57 34.11, 300.36 34.06, 299.99 33.81 C 299.62 33.56, 299.42 33.33, 299.13 32.81 C 298.84 32.29, 298.69 31.92, 298.54 31.21 C 298.38 30.50, 298.32 30.07, 298.34 29.26 C 298.35 28.46, 298.40 27.97, 298.60 27.19 C 298.81 26.40, 298.97 25.99, 299.37 25.35 C 299.77 24.71, 300.08 24.42, 300.60 24.00 C 301.12 23.57, 301.42 23.42, 301.98 23.24 C 302.53 23.07, 302.84 23.08, 303.37 23.10 C 303.89 23.13, 304.17 23.26, 304.60 23.37 C 305.03 23.47, 305.22 23.53, 305.51 23.61 C 305.79 23.69, 305.88 23.77, 306.01 23.76 C 306.14 23.74, 306.21 23.67, 306.16 23.53"/>
<path d="M 317.12,21.57 C 316.99 21.48, 316.81 21.43, 316.50 21.41 C 316.18 21.40, 315.96 21.41, 315.54 21.49 C 315.11 21.57, 314.80 21.65, 314.37 21.84 C 313.94 22.03, 313.70 22.16, 313.37 22.44 C 313.04 22.73, 312.87 22.92, 312.72 23.27 C 312.57 23.62, 312.54 23.83, 312.61 24.22 C 312.69 24.61, 312.79 24.80, 313.10 25.22 C 313.41 25.63, 313.65 25.84, 314.16 26.29 C 314.66 26.74, 315.01 26.98, 315.63 27.47 C 316.24 27.95, 316.61 28.19, 317.23 28.70 C 317.85 29.21, 318.22 29.51, 318.72 30.01 C 319.22 30.51, 319.47 30.76, 319.72 31.19 C 319.97 31.62, 320.00 31.80, 319.99 32.16 C 319.97 32.52, 319.87 32.71, 319.63 33.00 C 319.38 33.30, 319.17 33.43, 318.76 33.63 C 318.34 33.83, 318.04 33.92, 317.54 34.03 C 317.05 34.13, 316.73 34.13, 316.28 34.14 C 315.82 34.16, 315.60 34.12, 315.25 34.09 C 314.90 34.06, 314.69 33.97, 314.53 33.99 C 314.37 34.02, 314.33 34.09, 314.45 34.22 C 314.57 34.35, 314.77 34.50, 315.13 34.62 C 315.49 34.75, 315.75 34.84, 316.26 34.87 C 316.78 34.90, 317.14 34.89, 317.70 34.77 C 318.27 34.65, 318.62 34.53, 319.10 34.25 C 319.57 33.97, 319.81 33.77, 320.10 33.35 C 320.38 32.94, 320.47 32.68, 320.50 32.19 C 320.53 31.70, 320.49 31.45, 320.24 30.91 C 319.99 30.38, 319.74 30.08, 319.24 29.52 C 318.74 28.96, 318.35 28.65, 317.73 28.11 C 317.10 27.57, 316.74 27.32, 316.13 26.84 C 315.52 26.35, 315.18 26.10, 314.68 25.69 C 314.18 25.27, 313.94 25.09, 313.63 24.77 C 313.33 24.45, 313.22 24.34, 313.14 24.09 C 313.06 23.84, 313.10 23.74, 313.23 23.52 C 313.36 23.30, 313.50 23.18, 313.79 23.00 C 314.08 22.81, 314.29 22.74, 314.68 22.60 C 315.06 22.45, 315.35 22.40, 315.73 22.29 C 316.11 22.18, 316.29 22.13, 316.57 22.04 C 316.85 21.96, 317.02 21.96, 317.13 21.86 C 317.24 21.77, 317.25 21.66, 317.12 21.57"/>
<path d="M 337.89,22.34 C 337.81 22.51, 337.79 22.72, 337.76 23.19 C 337.74 23.67, 337.73 23.99, 337.75 24.70 C 337.77 25.42, 337.81 25.91, 337.86 26.76 C 337.92 27.61, 337.96 28.12, 338.03 28.96 C 338.11 29.81, 338.14 30.28, 338.23 31.01 C 338.32 31.73, 338.37 32.08, 338.47 32.58 C 338.57 33.07, 338.63 33.30, 338.72 33.47 C 338.81 33.65, 338.87 33.64, 338.92 33.45 C 338.97 33.26, 338.97 33.03, 338.97 32.53 C 338.97 32.03, 338.97 31.67, 338.93 30.95 C 338.90 30.22, 338.85 29.76, 338.81 28.91 C 338.76 28.06, 338.75 27.56, 338.71 26.71 C 338.66 25.86, 338.63 25.36, 338.57 24.65 C 338.50 23.94, 338.46 23.63, 338.38 23.16 C 338.29 22.69, 338.26 22.49, 338.16 22.32 C 338.06 22.16, 337.97 22.16, 337.89 22.34"/>
<path d="M 337.32,12.83 C 337.32 12.94, 337.37 13.00, 337.42 12.99 C 337.47 12.99, 337.52 12.91, 337.55 12.82 C 337.58 12.73, 337.58 12.65, 337.58 12.55 C 337.58 12.46, 337.57 12.38, 337.54 12.36 C 337.50 12.34, 337.45 12.37, 337.41 12.46 C 337.36 12.56, 337.31 12.73, 337.32 12.83"/>
<path d="M 345.65,11.96 C 345.55 12.36, 345.49 12.91, 345.45 13.95 C 345.41 15.00, 345.44 15.75, 345.46 17.19 C 345.48 18.63, 345.50 19.57, 345.57 21.15 C 345.63 22.74, 345.69 23.61, 345.78 25.10 C 345.88 26.58, 345.94 27.34, 346.04 28.56 C 346.13 29.78, 346.17 30.38, 346.24 31.19 C 346.31 32.01, 346.35 32.24, 346.40 32.63 C 346.45 33.03, 346.43 33.04, 346.47 33.15 C 346.51 33.25, 346.53 33.26, 346.58 33.16 C 346.64 33.05, 346.69 33.03, 346.73 32.64 C 346.78 32.24, 346.83 31.99, 346.83 31.16 C 346.82 30.34, 346.77 29.74, 346.71 28.52 C 346.65 27.30, 346.59 26.54, 346.52 25.06 C 346.45 23.58, 346.43 22.70, 346.38 21.12 C 346.33 19.55, 346.33 18.60, 346.28 17.17 C 346.22 15.73, 346.16 14.99, 346.09 13.95 C 346.02 12.90, 346.02 12.36, 345.93 11.96 C 345.85 11.56, 345.75 11.56, 345.65 11.96"/>
<path d="M 347.18,23.95 C 347.08 23.93, 347.06 23.92, 347.02 23.95 C 346.99 23.99, 346.98 24.01, 347.01 24.11 C 347.04 24.20, 347.09 24.37, 347.19 24.43 C 347.29 24.48, 347.45 24.46, 347.51 24.39 C 347.57 24.32, 347.55 24.16, 347.48 24.07 C 347.42 23.98, 347.27 23.97, 347.18 23.95"/>
<path d="M 379.53,24.11 C 379.45 23.97, 379.33 23.83, 379.00 23.65 C 378.67 23.47, 378.44 23.33, 377.89 23.22 C 377.34 23.11, 376.92 23.02, 376.24 23.10 C 375.57 23.17, 375.16 23.27, 374.51 23.58 C 373.86 23.89, 373.50 24.13, 373.01 24.64 C 372.52 25.16, 372.30 25.51, 372.05 26.18 C 371.80 26.84, 371.75 27.27, 371.77 27.97 C 371.79 28.68, 371.89 29.08, 372.16 29.69 C 372.43 30.31, 372.66 30.62, 373.12 31.06 C 373.57 31.49, 373.88 31.68, 374.44 31.87 C 374.99 32.06, 375.32 32.10, 375.89 32.02 C 376.45 31.94, 376.77 31.81, 377.28 31.48 C 377.79 31.14, 378.05 30.87, 378.44 30.35 C 378.82 29.83, 378.97 29.49, 379.20 28.89 C 379.43 28.30, 379.49 27.93, 379.59 27.38 C 379.68 26.82, 379.71 26.52, 379.67 26.11 C 379.64 25.70, 379.54 25.48, 379.41 25.34 C 379.29 25.19, 379.13 25.17, 379.04 25.40 C 378.94 25.63, 378.91 25.86, 378.94 26.48 C 378.97 27.10, 379.05 27.53, 379.20 28.49 C 379.36 29.45, 379.50 30.08, 379.73 31.28 C 379.97 32.49, 380.13 33.22, 380.38 34.51 C 380.62 35.80, 380.77 36.51, 380.96 37.72 C 381.14 38.93, 381.23 39.55, 381.29 40.58 C 381.35 41.61, 381.37 42.09, 381.26 42.89 C 381.15 43.68, 381.04 44.01, 380.73 44.55 C 380.42 45.08, 380.19 45.28, 379.70 45.57 C 379.21 45.86, 378.93 45.92, 378.30 46.00 C 377.67 46.07, 377.27 46.05, 376.56 45.94 C 375.85 45.82, 375.45 45.71, 374.75 45.41 C 374.05 45.12, 373.69 44.89, 373.07 44.46 C 372.44 44.02, 372.09 43.76, 371.63 43.24 C 371.16 42.72, 371.00 42.38, 370.73 41.87 C 370.46 41.36, 370.40 41.08, 370.27 40.67 C 370.14 40.26, 370.17 40.00, 370.08 39.83 C 370.00 39.66, 369.92 39.65, 369.85 39.84 C 369.79 40.03, 369.71 40.32, 369.76 40.78 C 369.82 41.24, 369.87 41.58, 370.14 42.16 C 370.41 42.75, 370.60 43.12, 371.11 43.70 C 371.61 44.27, 371.98 44.56, 372.66 45.04 C 373.33 45.51, 373.71 45.76, 374.47 46.08 C 375.22 46.40, 375.66 46.53, 376.45 46.65 C 377.23 46.76, 377.68 46.76, 378.39 46.65 C 379.10 46.53, 379.44 46.42, 380.00 46.06 C 380.57 45.69, 380.84 45.45, 381.21 44.83 C 381.58 44.21, 381.70 43.83, 381.85 42.98 C 382.00 42.12, 381.98 41.62, 381.95 40.55 C 381.91 39.48, 381.83 38.86, 381.67 37.62 C 381.51 36.39, 381.37 35.67, 381.15 34.37 C 380.93 33.07, 380.78 32.34, 380.56 31.13 C 380.35 29.92, 380.26 29.29, 380.09 28.33 C 379.92 27.38, 379.85 26.96, 379.71 26.37 C 379.58 25.78, 379.51 25.58, 379.40 25.38 C 379.28 25.18, 379.22 25.24, 379.14 25.38 C 379.07 25.52, 379.06 25.72, 379.01 26.09 C 378.96 26.47, 378.98 26.74, 378.89 27.25 C 378.79 27.76, 378.73 28.09, 378.52 28.63 C 378.31 29.16, 378.18 29.47, 377.86 29.93 C 377.53 30.39, 377.32 30.63, 376.90 30.92 C 376.49 31.21, 376.25 31.33, 375.79 31.40 C 375.34 31.47, 375.09 31.44, 374.65 31.28 C 374.20 31.12, 373.94 30.96, 373.57 30.59 C 373.20 30.22, 373.00 29.95, 372.78 29.43 C 372.55 28.90, 372.47 28.56, 372.45 27.95 C 372.43 27.35, 372.47 26.98, 372.68 26.41 C 372.89 25.85, 373.08 25.55, 373.50 25.12 C 373.93 24.69, 374.25 24.49, 374.82 24.25 C 375.38 24.01, 375.73 23.95, 376.32 23.91 C 376.91 23.86, 377.26 23.96, 377.76 24.02 C 378.25 24.08, 378.46 24.15, 378.79 24.22 C 379.12 24.29, 379.25 24.38, 379.40 24.36 C 379.55 24.33, 379.61 24.25, 379.53 24.11"/>
<path d="M 389.01,23.29 C 388.87 23.19, 388.67 23.10, 388.30 23.07 C 387.92 23.04, 387.64 23.03, 387.14 23.13 C 386.64 23.22, 386.29 23.30, 385.79 23.57 C 385.29 23.84, 385.01 24.04, 384.65 24.48 C 384.28 24.92, 384.12 25.18, 383.97 25.75 C 383.82 26.32, 383.80 26.68, 383.91 27.33 C 384.03 27.98, 384.17 28.37, 384.55 29.00 C 384.93 29.63, 385.24 29.96, 385.83 30.48 C 386.42 31.00, 386.80 31.26, 387.49 31.61 C 388.18 31.96, 388.58 32.10, 389.29 32.22 C 390.00 32.33, 390.40 32.31, 391.05 32.18 C 391.69 32.04, 392.02 31.89, 392.50 31.54 C 392.98 31.18, 393.18 30.92, 393.45 30.38 C 393.71 29.84, 393.79 29.48, 393.84 28.83 C 393.89 28.17, 393.85 27.78, 393.70 27.12 C 393.54 26.46, 393.37 26.10, 393.07 25.51 C 392.77 24.92, 392.56 24.61, 392.20 24.16 C 391.83 23.70, 391.58 23.51, 391.25 23.23 C 390.92 22.95, 390.77 22.88, 390.54 22.76 C 390.31 22.65, 390.22 22.66, 390.10 22.65 C 389.98 22.64, 389.97 22.69, 389.94 22.72 C 389.90 22.75, 389.92 22.77, 389.93 22.81 C 389.94 22.84, 389.93 22.82, 389.99 22.90 C 390.06 22.97, 390.09 23.01, 390.26 23.17 C 390.42 23.33, 390.55 23.41, 390.83 23.69 C 391.10 23.97, 391.33 24.16, 391.65 24.58 C 391.97 25.01, 392.16 25.29, 392.43 25.83 C 392.69 26.37, 392.85 26.70, 392.99 27.29 C 393.14 27.88, 393.17 28.22, 393.14 28.78 C 393.12 29.35, 393.08 29.66, 392.88 30.12 C 392.68 30.57, 392.53 30.76, 392.14 31.05 C 391.75 31.34, 391.47 31.45, 390.92 31.55 C 390.37 31.65, 390.02 31.67, 389.40 31.56 C 388.78 31.44, 388.43 31.30, 387.82 30.98 C 387.20 30.65, 386.85 30.40, 386.32 29.93 C 385.79 29.45, 385.52 29.16, 385.17 28.61 C 384.82 28.07, 384.70 27.74, 384.59 27.20 C 384.47 26.66, 384.48 26.36, 384.59 25.91 C 384.71 25.46, 384.84 25.26, 385.15 24.93 C 385.46 24.60, 385.72 24.47, 386.15 24.26 C 386.58 24.06, 386.87 24.02, 387.31 23.91 C 387.75 23.80, 387.99 23.78, 388.33 23.72 C 388.66 23.65, 388.86 23.66, 389.00 23.57 C 389.14 23.49, 389.15 23.39, 389.01 23.29"/>
<path d="M 397.29,28.67 C 397.43 28.79, 397.66 28.92, 398.06 28.98 C 398.47 29.05, 398.76 29.08, 399.31 28.99 C 399.85 28.89, 400.25 28.84, 400.80 28.53 C 401.35 28.23, 401.62 27.94, 402.05 27.46 C 402.49 26.99, 402.70 26.71, 402.98 26.16 C 403.25 25.60, 403.36 25.26, 403.42 24.67 C 403.48 24.09, 403.45 23.74, 403.28 23.24 C 403.11 22.74, 402.95 22.48, 402.57 22.16 C 402.20 21.84, 401.91 21.71, 401.39 21.64 C 400.87 21.58, 400.53 21.61, 399.98 21.83 C 399.43 22.05, 399.10 22.26, 398.63 22.74 C 398.15 23.23, 397.90 23.58, 397.59 24.25 C 397.28 24.92, 397.17 25.32, 397.10 26.09 C 397.02 26.87, 397.03 27.32, 397.23 28.11 C 397.42 28.90, 397.59 29.35, 398.05 30.05 C 398.50 30.74, 398.84 31.08, 399.50 31.58 C 400.17 32.08, 400.57 32.27, 401.36 32.53 C 402.15 32.78, 402.67 32.84, 403.43 32.86 C 404.18 32.88, 404.57 32.76, 405.14 32.63 C 405.70 32.50, 406.03 32.35, 406.24 32.22 C 406.45 32.09, 406.42 32.01, 406.18 31.98 C 405.95 31.95, 405.60 32.03, 405.05 32.07 C 404.51 32.10, 404.16 32.19, 403.46 32.15 C 402.76 32.11, 402.28 32.08, 401.57 31.86 C 400.86 31.64, 400.50 31.48, 399.91 31.04 C 399.32 30.60, 399.03 30.29, 398.63 29.67 C 398.23 29.05, 398.07 28.65, 397.91 27.94 C 397.74 27.24, 397.73 26.84, 397.80 26.16 C 397.86 25.48, 397.98 25.13, 398.25 24.55 C 398.52 23.97, 398.75 23.67, 399.15 23.25 C 399.55 22.83, 399.81 22.66, 400.25 22.46 C 400.68 22.26, 400.94 22.23, 401.32 22.26 C 401.71 22.29, 401.92 22.38, 402.19 22.61 C 402.46 22.84, 402.57 23.03, 402.68 23.43 C 402.79 23.82, 402.81 24.11, 402.75 24.59 C 402.69 25.08, 402.61 25.37, 402.36 25.85 C 402.12 26.32, 401.91 26.56, 401.52 26.96 C 401.13 27.36, 400.90 27.60, 400.43 27.85 C 399.95 28.10, 399.63 28.12, 399.16 28.22 C 398.69 28.32, 398.45 28.31, 398.09 28.35 C 397.72 28.38, 397.50 28.32, 397.34 28.38 C 397.18 28.45, 397.15 28.55, 397.29 28.67"/>
<path d="M 414.59,22.42 C 414.45 22.35, 414.28 22.30, 413.91 22.31 C 413.53 22.31, 413.23 22.32, 412.71 22.44 C 412.19 22.56, 411.82 22.66, 411.31 22.90 C 410.80 23.13, 410.51 23.31, 410.16 23.63 C 409.80 23.95, 409.66 24.15, 409.55 24.52 C 409.43 24.88, 409.44 25.08, 409.58 25.46 C 409.73 25.83, 409.87 26.03, 410.26 26.40 C 410.65 26.78, 410.95 26.97, 411.54 27.34 C 412.12 27.72, 412.51 27.91, 413.19 28.28 C 413.86 28.65, 414.26 28.83, 414.91 29.19 C 415.56 29.56, 415.91 29.74, 416.44 30.10 C 416.97 30.46, 417.23 30.66, 417.56 30.99 C 417.89 31.33, 418.01 31.48, 418.08 31.79 C 418.15 32.10, 418.09 32.24, 417.90 32.56 C 417.71 32.87, 417.53 33.06, 417.12 33.36 C 416.72 33.65, 416.45 33.80, 415.89 34.01 C 415.32 34.23, 414.94 34.31, 414.29 34.44 C 413.65 34.58, 413.23 34.60, 412.67 34.68 C 412.11 34.76, 411.88 34.78, 411.50 34.84 C 411.13 34.89, 410.95 34.87, 410.81 34.93 C 410.67 34.99, 410.66 35.06, 410.80 35.13 C 410.94 35.21, 411.12 35.27, 411.50 35.33 C 411.89 35.38, 412.14 35.42, 412.73 35.40 C 413.32 35.38, 413.76 35.35, 414.45 35.22 C 415.14 35.08, 415.55 34.99, 416.17 34.73 C 416.80 34.47, 417.12 34.30, 417.57 33.92 C 418.01 33.53, 418.21 33.27, 418.42 32.82 C 418.62 32.38, 418.65 32.14, 418.57 31.69 C 418.49 31.25, 418.36 31.03, 418.01 30.60 C 417.67 30.17, 417.38 29.95, 416.84 29.54 C 416.29 29.13, 415.93 28.94, 415.28 28.55 C 414.63 28.16, 414.24 27.96, 413.58 27.58 C 412.92 27.20, 412.54 26.99, 411.97 26.65 C 411.40 26.31, 411.11 26.14, 410.72 25.86 C 410.34 25.58, 410.20 25.47, 410.06 25.24 C 409.92 25.00, 409.91 24.90, 410.01 24.69 C 410.11 24.47, 410.24 24.36, 410.57 24.16 C 410.89 23.95, 411.16 23.85, 411.64 23.68 C 412.11 23.50, 412.45 23.42, 412.93 23.27 C 413.40 23.13, 413.67 23.05, 414.01 22.94 C 414.35 22.82, 414.50 22.80, 414.62 22.69 C 414.73 22.59, 414.73 22.50, 414.59 22.42"/>
</svg>
