<svg xmlns="http://www.w3.org/2000/svg" viewBox="0 0 475.1 68.6" fill="currentColor" stroke="none" role="img">
<path d="M 15.39,28.21 C 15.43 28.15, 15.45 28.15, 15.42 28.03 C 15.40 27.91, 15.44 27.82, 15.27 27.62 C 15.10 27.42, 14.97 27.24, 14.58 27.04 C 14.19 26.84, 13.92 26.69, 13.32 26.62 C 12.72 26.56, 12.31 26.53, 11.58 26.71 C 10.85 26.88, 10.42 27.03, 9.68 27.49 C 8.93 27.95, 8.51 28.28, 7.88 29.01 C 7.25 29.75, 6.95 30.20, 6.53 31.16 C 6.11 32.11, 5.96 32.69, 5.79 33.78 C 5.61 34.86, 5.58 35.51, 5.64 36.58 C 5.69 37.64, 5.80 38.24, 6.07 39.11 C 6.34 39.98, 6.55 40.41, 7.00 40.93 C 7.45 41.44, 7.75 41.65, 8.33 41.68 C 8.91 41.71, 9.26 41.57, 9.90 41.09 C 10.54 40.61, 10.92 40.20, 11.53 39.28 C 12.13 38.36, 12.47 37.70, 12.95 36.48 C 13.43 35.27, 13.62 34.45, 13.93 33.19 C 14.23 31.93, 14.33 31.24, 14.47 30.18 C 14.61 29.12, 14.63 28.58, 14.61 27.89 C 14.59 27.19, 14.49 26.90, 14.36 26.70 C 14.23 26.50, 14.08 26.55, 13.95 26.89 C 13.82 27.23, 13.75 27.59, 13.69 28.40 C 13.63 29.21, 13.62 29.80, 13.66 30.95 C 13.70 32.10, 13.74 32.86, 13.89 34.14 C 14.05 35.42, 14.12 36.18, 14.42 37.34 C 14.73 38.50, 14.91 39.11, 15.40 39.96 C 15.89 40.80, 16.21 41.15, 16.87 41.55 C 17.54 41.95, 17.95 42.07, 18.75 41.96 C 19.55 41.85, 20.08 41.54, 20.86 41.01 C 21.64 40.47, 22.09 39.96, 22.65 39.28 C 23.21 38.61, 23.51 38.02, 23.67 37.65 C 23.83 37.29, 23.74 37.24, 23.43 37.47 C 23.12 37.70, 22.72 38.21, 22.12 38.80 C 21.52 39.38, 21.11 39.87, 20.42 40.39 C 19.73 40.91, 19.30 41.25, 18.65 41.40 C 17.99 41.54, 17.69 41.46, 17.15 41.11 C 16.61 40.76, 16.34 40.44, 15.94 39.66 C 15.54 38.87, 15.39 38.29, 15.14 37.17 C 14.90 36.05, 14.83 35.30, 14.72 34.05 C 14.61 32.80, 14.62 32.05, 14.58 30.92 C 14.53 29.79, 14.55 29.20, 14.50 28.41 C 14.45 27.61, 14.40 27.27, 14.33 26.93 C 14.26 26.60, 14.22 26.55, 14.16 26.74 C 14.10 26.92, 14.11 27.20, 14.03 27.86 C 13.95 28.53, 13.95 29.05, 13.78 30.07 C 13.60 31.10, 13.49 31.78, 13.17 33.00 C 12.85 34.22, 12.64 35.01, 12.17 36.18 C 11.71 37.35, 11.39 37.97, 10.86 38.86 C 10.32 39.74, 10.00 40.14, 9.50 40.61 C 9.00 41.09, 8.76 41.24, 8.35 41.23 C 7.93 41.23, 7.75 41.06, 7.42 40.59 C 7.10 40.13, 6.93 39.73, 6.72 38.92 C 6.51 38.11, 6.41 37.55, 6.36 36.54 C 6.32 35.54, 6.34 34.91, 6.51 33.89 C 6.67 32.88, 6.80 32.33, 7.19 31.44 C 7.57 30.56, 7.85 30.15, 8.43 29.49 C 9.00 28.83, 9.41 28.54, 10.07 28.13 C 10.74 27.73, 11.13 27.60, 11.76 27.46 C 12.39 27.31, 12.73 27.35, 13.22 27.42 C 13.71 27.48, 13.90 27.63, 14.20 27.78 C 14.51 27.94, 14.59 28.08, 14.76 28.19 C 14.93 28.29, 14.97 28.29, 15.06 28.32 C 15.15 28.35, 15.16 28.35, 15.22 28.32 C 15.29 28.30, 15.35 28.27, 15.39 28.21"/>
<path d="M 36.67,9.99 C 36.64 9.97, 36.57 9.82, 36.46 9.92 C 36.35 10.03, 36.26 10.06, 36.12 10.53 C 35.98 11.00, 35.93 11.30, 35.77 12.27 C 35.61 13.24, 35.50 13.92, 35.33 15.39 C 35.16 16.87, 35.07 17.82, 34.90 19.66 C 34.74 21.49, 34.64 22.55, 34.52 24.58 C 34.39 26.61, 34.35 27.77, 34.28 29.81 C 34.22 31.85, 34.18 32.98, 34.19 34.79 C 34.20 36.60, 34.21 37.51, 34.32 38.86 C 34.43 40.22, 34.48 40.82, 34.74 41.58 C 35.01 42.34, 35.17 42.57, 35.63 42.69 C 36.08 42.80, 36.42 42.65, 37.03 42.14 C 37.64 41.63, 38.02 41.16, 38.70 40.13 C 39.38 39.10, 39.78 38.33, 40.43 37.01 C 41.08 35.69, 41.43 34.82, 41.96 33.53 C 42.49 32.23, 42.74 31.52, 43.08 30.52 C 43.42 29.51, 43.55 29.02, 43.67 28.50 C 43.79 27.99, 43.75 27.86, 43.68 27.94 C 43.61 28.03, 43.47 28.29, 43.32 28.93 C 43.17 29.57, 43.07 30.12, 42.95 31.15 C 42.83 32.19, 42.78 32.93, 42.74 34.10 C 42.70 35.28, 42.66 35.99, 42.74 37.04 C 42.82 38.09, 42.89 38.64, 43.13 39.36 C 43.37 40.08, 43.54 40.36, 43.94 40.64 C 44.34 40.91, 44.61 40.93, 45.12 40.75 C 45.63 40.57, 45.95 40.34, 46.50 39.73 C 47.06 39.13, 47.37 38.63, 47.91 37.71 C 48.44 36.79, 48.70 36.15, 49.16 35.14 C 49.62 34.12, 49.84 33.53, 50.22 32.66 C 50.59 31.79, 50.78 31.36, 51.03 30.80 C 51.28 30.23, 51.36 30.02, 51.47 29.85 C 51.59 29.68, 51.58 29.71, 51.62 29.94 C 51.67 30.16, 51.65 30.40, 51.68 30.97 C 51.71 31.55, 51.73 31.99, 51.77 32.82 C 51.82 33.64, 51.85 34.20, 51.92 35.10 C 51.99 36.00, 52.01 36.53, 52.11 37.31 C 52.21 38.09, 52.25 38.51, 52.44 38.98 C 52.63 39.45, 52.77 39.62, 53.05 39.66 C 53.34 39.69, 53.53 39.57, 53.87 39.16 C 54.20 38.75, 54.38 38.37, 54.74 37.60 C 55.10 36.82, 55.30 36.24, 55.67 35.30 C 56.04 34.35, 56.27 33.74, 56.60 32.88 C 56.93 32.03, 57.09 31.57, 57.32 31.03 C 57.54 30.48, 57.61 30.27, 57.71 30.14 C 57.81 30.01, 57.78 30.08, 57.81 30.36 C 57.83 30.64, 57.81 30.92, 57.84 31.54 C 57.86 32.15, 57.88 32.60, 57.95 33.42 C 58.03 34.25, 58.07 34.78, 58.21 35.66 C 58.35 36.54, 58.41 37.06, 58.63 37.82 C 58.85 38.59, 58.96 38.98, 59.31 39.47 C 59.65 39.96, 59.86 40.16, 60.36 40.26 C 60.86 40.36, 61.19 40.31, 61.82 39.96 C 62.46 39.61, 62.84 39.26, 63.54 38.51 C 64.24 37.75, 64.66 37.19, 65.33 36.19 C 65.99 35.18, 66.36 34.53, 66.86 33.50 C 67.36 32.46, 67.57 31.88, 67.83 31.00 C 68.09 30.13, 68.15 29.72, 68.14 29.14 C 68.13 28.57, 68.04 28.35, 67.77 28.13 C 67.50 27.91, 67.25 27.89, 66.79 28.04 C 66.34 28.18, 66.01 28.36, 65.51 28.88 C 65.02 29.39, 64.74 29.80, 64.33 30.60 C 63.93 31.41, 63.69 31.96, 63.50 32.91 C 63.30 33.86, 63.25 34.44, 63.35 35.34 C 63.44 36.25, 63.56 36.73, 63.97 37.44 C 64.38 38.14, 64.68 38.46, 65.38 38.85 C 66.09 39.24, 66.57 39.35, 67.48 39.39 C 68.40 39.43, 68.95 39.35, 69.96 39.06 C 70.97 38.77, 71.62 38.43, 72.52 37.94 C 73.43 37.45, 73.86 37.08, 74.47 36.61 C 75.08 36.15, 75.37 35.86, 75.56 35.62 C 75.75 35.39, 75.71 35.33, 75.43 35.43 C 75.14 35.53, 74.81 35.76, 74.15 36.13 C 73.50 36.49, 73.04 36.80, 72.16 37.24 C 71.27 37.68, 70.67 38.03, 69.74 38.32 C 68.81 38.62, 68.31 38.72, 67.50 38.72 C 66.69 38.72, 66.27 38.64, 65.67 38.33 C 65.07 38.01, 64.83 37.75, 64.50 37.14 C 64.18 36.53, 64.09 36.10, 64.05 35.28 C 64.00 34.47, 64.05 33.95, 64.26 33.08 C 64.47 32.22, 64.72 31.72, 65.08 30.98 C 65.45 30.24, 65.71 29.88, 66.10 29.38 C 66.48 28.89, 66.72 28.71, 67.02 28.50 C 67.31 28.30, 67.45 28.23, 67.58 28.36 C 67.70 28.48, 67.72 28.63, 67.64 29.11 C 67.56 29.60, 67.49 29.99, 67.19 30.79 C 66.90 31.60, 66.68 32.16, 66.16 33.15 C 65.65 34.13, 65.27 34.76, 64.62 35.72 C 63.98 36.68, 63.56 37.22, 62.93 37.97 C 62.30 38.71, 61.98 39.05, 61.48 39.42 C 60.98 39.80, 60.78 39.88, 60.43 39.83 C 60.09 39.78, 59.99 39.62, 59.77 39.19 C 59.55 38.75, 59.48 38.38, 59.33 37.65 C 59.18 36.92, 59.12 36.42, 59.02 35.55 C 58.92 34.69, 58.92 34.16, 58.84 33.34 C 58.76 32.51, 58.74 32.06, 58.61 31.44 C 58.48 30.81, 58.39 30.51, 58.19 30.21 C 57.98 29.90, 57.85 29.81, 57.57 29.92 C 57.28 30.03, 57.12 30.21, 56.78 30.75 C 56.44 31.28, 56.25 31.73, 55.87 32.57 C 55.48 33.41, 55.22 34.02, 54.83 34.96 C 54.45 35.89, 54.23 36.48, 53.94 37.26 C 53.65 38.04, 53.55 38.43, 53.37 38.86 C 53.20 39.30, 53.16 39.44, 53.08 39.44 C 52.99 39.43, 52.99 39.29, 52.95 38.85 C 52.91 38.42, 52.90 38.00, 52.86 37.24 C 52.83 36.48, 52.80 35.95, 52.76 35.05 C 52.73 34.15, 52.74 33.59, 52.68 32.75 C 52.61 31.92, 52.57 31.46, 52.43 30.86 C 52.28 30.26, 52.16 30.01, 51.93 29.76 C 51.71 29.51, 51.57 29.47, 51.29 29.62 C 51.00 29.77, 50.85 29.97, 50.51 30.51 C 50.16 31.06, 49.97 31.50, 49.55 32.35 C 49.13 33.21, 48.90 33.80, 48.42 34.79 C 47.94 35.77, 47.66 36.40, 47.16 37.29 C 46.67 38.19, 46.38 38.66, 45.94 39.26 C 45.49 39.87, 45.27 40.10, 44.92 40.31 C 44.57 40.53, 44.42 40.56, 44.18 40.33 C 43.93 40.11, 43.83 39.87, 43.70 39.21 C 43.56 38.54, 43.51 38.02, 43.50 37.01 C 43.48 36.00, 43.54 35.30, 43.62 34.15 C 43.69 32.99, 43.80 32.26, 43.87 31.23 C 43.93 30.20, 43.97 29.66, 43.95 28.99 C 43.93 28.33, 43.91 28.04, 43.78 27.91 C 43.64 27.78, 43.54 27.87, 43.27 28.35 C 43.00 28.82, 42.84 29.30, 42.43 30.27 C 42.02 31.25, 41.79 31.95, 41.24 33.22 C 40.68 34.49, 40.30 35.32, 39.65 36.62 C 39.00 37.91, 38.59 38.67, 37.99 39.69 C 37.39 40.71, 37.09 41.19, 36.63 41.74 C 36.17 42.28, 35.98 42.47, 35.69 42.42 C 35.40 42.36, 35.34 42.18, 35.19 41.46 C 35.04 40.74, 35.01 40.16, 34.95 38.82 C 34.89 37.49, 34.88 36.59, 34.90 34.79 C 34.91 33.00, 34.95 31.87, 35.03 29.84 C 35.11 27.80, 35.15 26.65, 35.29 24.63 C 35.43 22.61, 35.54 21.56, 35.72 19.73 C 35.90 17.90, 36.01 16.96, 36.19 15.49 C 36.36 14.03, 36.48 13.36, 36.61 12.40 C 36.74 11.43, 36.80 11.14, 36.84 10.66 C 36.87 10.19, 36.83 10.14, 36.79 10.02 C 36.74 9.89, 36.64 10.03, 36.62 10.02 C 36.60 10.02, 36.70 10.01, 36.67 9.99"/>
<path d="M 94.72,29.96 C 94.86 29.92, 95.03 29.84, 95.17 29.61 C 95.32 29.37, 95.41 29.17, 95.44 28.79 C 95.48 28.42, 95.50 28.13, 95.33 27.73 C 95.16 27.33, 94.99 27.06, 94.59 26.79 C 94.20 26.52, 93.92 26.38, 93.34 26.38 C 92.76 26.38, 92.38 26.43, 91.70 26.78 C 91.02 27.12, 90.61 27.41, 89.94 28.10 C 89.28 28.80, 88.88 29.30, 88.36 30.24 C 87.84 31.18, 87.60 31.79, 87.35 32.81 C 87.10 33.84, 87.04 34.43, 87.10 35.35 C 87.17 36.28, 87.28 36.77, 87.67 37.44 C 88.06 38.11, 88.40 38.41, 89.07 38.69 C 89.74 38.98, 90.20 39.03, 91.03 38.85 C 91.86 38.67, 92.36 38.42, 93.22 37.79 C 94.07 37.16, 94.58 36.65, 95.30 35.71 C 96.01 34.77, 96.36 34.15, 96.79 33.09 C 97.22 32.04, 97.38 31.38, 97.46 30.43 C 97.53 29.48, 97.42 29.00, 97.16 28.33 C 96.90 27.65, 96.62 27.39, 96.15 27.06 C 95.68 26.73, 95.33 26.68, 94.82 26.68 C 94.32 26.68, 93.99 26.82, 93.63 27.08 C 93.28 27.34, 93.11 27.62, 93.05 27.99 C 92.98 28.36, 93.03 28.64, 93.31 28.92 C 93.58 29.21, 93.83 29.36, 94.42 29.42 C 95.01 29.48, 95.43 29.48, 96.26 29.23 C 97.10 28.98, 97.63 28.78, 98.60 28.17 C 99.57 27.56, 100.14 27.17, 101.12 26.19 C 102.09 25.21, 102.63 24.60, 103.47 23.29 C 104.32 21.98, 104.73 21.16, 105.33 19.65 C 105.94 18.14, 106.17 17.27, 106.50 15.74 C 106.82 14.20, 106.89 13.34, 106.95 11.97 C 107.02 10.60, 106.97 9.88, 106.81 8.90 C 106.66 7.91, 106.50 7.49, 106.19 7.05 C 105.88 6.60, 105.63 6.49, 105.27 6.66 C 104.91 6.82, 104.70 7.07, 104.39 7.88 C 104.08 8.69, 103.94 9.25, 103.73 10.72 C 103.52 12.20, 103.46 13.14, 103.33 15.26 C 103.20 17.38, 103.19 18.70, 103.09 21.31 C 102.98 23.92, 102.96 25.47, 102.82 28.30 C 102.68 31.13, 102.59 32.73, 102.38 35.45 C 102.17 38.18, 102.04 39.64, 101.79 41.94 C 101.54 44.23, 101.38 45.31, 101.11 46.94 C 100.85 48.57, 100.68 49.22, 100.49 50.08 C 100.29 50.94, 100.22 51.13, 100.14 51.23 C 100.07 51.34, 100.08 51.18, 100.12 50.60 C 100.15 50.03, 100.19 49.51, 100.30 48.37 C 100.42 47.23, 100.51 46.40, 100.69 44.91 C 100.87 43.42, 100.98 42.45, 101.20 40.92 C 101.41 39.39, 101.54 38.51, 101.77 37.24 C 102.00 35.98, 102.12 35.42, 102.36 34.62 C 102.61 33.81, 102.70 33.59, 102.99 33.22 C 103.29 32.85, 103.43 32.86, 103.85 32.77 C 104.26 32.68, 104.48 32.77, 105.07 32.77 C 105.67 32.77, 106.04 32.83, 106.81 32.77 C 107.58 32.71, 108.12 32.63, 108.91 32.46 C 109.70 32.29, 110.13 32.15, 110.75 31.92 C 111.36 31.70, 111.75 31.50, 111.98 31.34 C 112.21 31.17, 112.18 31.09, 111.90 31.09 C 111.62 31.09, 111.21 31.20, 110.58 31.32 C 109.95 31.43, 109.52 31.52, 108.75 31.65 C 107.98 31.78, 107.47 31.87, 106.73 31.97 C 105.98 32.06, 105.64 32.04, 105.04 32.11 C 104.43 32.18, 104.19 32.15, 103.72 32.31 C 103.24 32.48, 103.05 32.52, 102.67 32.94 C 102.29 33.37, 102.15 33.60, 101.83 34.43 C 101.51 35.26, 101.36 35.83, 101.07 37.10 C 100.79 38.37, 100.65 39.26, 100.39 40.80 C 100.13 42.34, 99.98 43.29, 99.79 44.80 C 99.61 46.30, 99.49 47.15, 99.46 48.32 C 99.44 49.49, 99.51 50.04, 99.66 50.65 C 99.81 51.25, 99.96 51.43, 100.21 51.34 C 100.46 51.26, 100.62 51.07, 100.92 50.21 C 101.23 49.35, 101.41 48.68, 101.72 47.04 C 102.03 45.40, 102.19 44.32, 102.47 42.02 C 102.75 39.71, 102.89 38.25, 103.12 35.51 C 103.34 32.78, 103.43 31.17, 103.59 28.34 C 103.74 25.50, 103.78 23.95, 103.89 21.34 C 104.01 18.74, 104.03 17.41, 104.16 15.31 C 104.29 13.21, 104.37 12.28, 104.53 10.83 C 104.70 9.38, 104.81 8.85, 104.99 8.06 C 105.17 7.27, 105.24 7.05, 105.41 6.89 C 105.59 6.72, 105.69 6.82, 105.85 7.23 C 106.00 7.65, 106.12 8.03, 106.20 8.97 C 106.28 9.91, 106.34 10.61, 106.26 11.93 C 106.18 13.25, 106.12 14.10, 105.79 15.59 C 105.47 17.08, 105.24 17.91, 104.65 19.37 C 104.06 20.83, 103.65 21.62, 102.84 22.87 C 102.02 24.13, 101.51 24.72, 100.57 25.65 C 99.64 26.57, 99.09 26.93, 98.18 27.50 C 97.27 28.07, 96.77 28.24, 96.03 28.49 C 95.28 28.73, 94.93 28.73, 94.45 28.75 C 93.97 28.76, 93.82 28.69, 93.63 28.56 C 93.45 28.44, 93.47 28.30, 93.54 28.10 C 93.61 27.91, 93.72 27.74, 93.98 27.57 C 94.24 27.40, 94.46 27.26, 94.84 27.25 C 95.21 27.23, 95.49 27.23, 95.85 27.49 C 96.22 27.74, 96.45 27.94, 96.64 28.52 C 96.83 29.09, 96.91 29.51, 96.80 30.37 C 96.69 31.22, 96.53 31.83, 96.10 32.80 C 95.68 33.78, 95.34 34.36, 94.67 35.23 C 94.00 36.11, 93.52 36.59, 92.76 37.19 C 92.00 37.79, 91.57 38.03, 90.88 38.23 C 90.18 38.43, 89.82 38.40, 89.28 38.19 C 88.73 37.97, 88.47 37.73, 88.17 37.16 C 87.87 36.58, 87.79 36.15, 87.77 35.32 C 87.74 34.49, 87.81 33.94, 88.06 33.00 C 88.32 32.06, 88.56 31.50, 89.05 30.63 C 89.54 29.76, 89.92 29.29, 90.52 28.65 C 91.12 28.01, 91.48 27.75, 92.05 27.42 C 92.61 27.10, 92.91 27.05, 93.35 27.03 C 93.78 27.01, 93.96 27.13, 94.22 27.32 C 94.48 27.52, 94.55 27.70, 94.64 27.99 C 94.72 28.27, 94.67 28.47, 94.67 28.74 C 94.66 29.02, 94.62 29.16, 94.59 29.37 C 94.55 29.58, 94.46 29.67, 94.48 29.79 C 94.51 29.91, 94.58 30.00, 94.72 29.96"/>
<path d="M 132.40,22.91 C 132.32 22.95, 132.29 22.92, 132.18 23.15 C 132.07 23.37, 132.01 23.49, 131.85 24.03 C 131.69 24.57, 131.57 24.91, 131.37 25.86 C 131.17 26.81, 131.03 27.51, 130.84 28.79 C 130.66 30.07, 130.55 30.90, 130.44 32.25 C 130.32 33.59, 130.27 34.35, 130.25 35.51 C 130.23 36.66, 130.24 37.28, 130.34 38.03 C 130.44 38.78, 130.53 39.05, 130.76 39.25 C 130.98 39.45, 131.14 39.37, 131.46 39.03 C 131.78 38.68, 131.98 38.32, 132.36 37.50 C 132.73 36.68, 132.94 36.08, 133.34 34.94 C 133.75 33.81, 133.96 33.05, 134.37 31.82 C 134.78 30.59, 135.01 29.85, 135.38 28.79 C 135.76 27.73, 135.97 27.19, 136.26 26.50 C 136.54 25.81, 136.64 25.53, 136.80 25.32 C 136.95 25.12, 136.95 25.16, 137.02 25.48 C 137.08 25.80, 137.08 26.13, 137.12 26.91 C 137.15 27.69, 137.17 28.28, 137.19 29.38 C 137.21 30.48, 137.23 31.24, 137.23 32.41 C 137.23 33.58, 137.20 34.26, 137.18 35.24 C 137.17 36.22, 137.12 36.72, 137.16 37.33 C 137.20 37.94, 137.23 38.18, 137.38 38.29 C 137.52 38.39, 137.62 38.28, 137.88 37.86 C 138.14 37.43, 138.32 37.03, 138.67 36.14 C 139.02 35.26, 139.23 34.60, 139.63 33.45 C 140.03 32.30, 140.26 31.52, 140.68 30.39 C 141.09 29.27, 141.35 28.65, 141.72 27.82 C 142.08 26.98, 142.26 26.60, 142.50 26.21 C 142.73 25.81, 142.79 25.74, 142.91 25.84 C 143.04 25.94, 143.05 26.17, 143.13 26.72 C 143.20 27.28, 143.24 27.72, 143.30 28.63 C 143.37 29.54, 143.38 30.17, 143.45 31.27 C 143.51 32.37, 143.51 33.07, 143.62 34.13 C 143.73 35.18, 143.77 35.78, 143.99 36.54 C 144.21 37.30, 144.33 37.65, 144.72 37.94 C 145.10 38.23, 145.34 38.26, 145.91 37.99 C 146.47 37.71, 146.84 37.42, 147.53 36.56 C 148.22 35.70, 148.64 35.06, 149.36 33.69 C 150.08 32.33, 150.48 31.46, 151.12 29.74 C 151.75 28.03, 152.05 27.02, 152.55 25.12 C 153.06 23.22, 153.28 22.15, 153.64 20.25 C 154.00 18.35, 154.13 17.34, 154.35 15.62 C 154.57 13.91, 154.62 13.07, 154.73 11.68 C 154.84 10.29, 154.87 9.66, 154.89 8.67 C 154.92 7.69, 154.92 7.29, 154.85 6.77 C 154.79 6.25, 154.71 6.12, 154.58 6.09 C 154.44 6.07, 154.33 6.16, 154.17 6.65 C 154.00 7.14, 153.91 7.50, 153.74 8.53 C 153.57 9.56, 153.48 10.27, 153.32 11.81 C 153.16 13.35, 153.09 14.34, 152.93 16.24 C 152.77 18.13, 152.69 19.27, 152.50 21.27 C 152.31 23.27, 152.19 24.40, 151.99 26.25 C 151.79 28.10, 151.68 29.05, 151.50 30.53 C 151.32 32.00, 151.19 32.68, 151.09 33.63 C 150.99 34.58, 150.92 34.93, 150.98 35.29 C 151.04 35.64, 151.14 35.65, 151.38 35.39 C 151.62 35.13, 151.80 34.78, 152.17 33.99 C 152.54 33.20, 152.78 32.59, 153.23 31.44 C 153.68 30.29, 153.94 29.48, 154.43 28.22 C 154.92 26.97, 155.22 26.22, 155.69 25.16 C 156.16 24.09, 156.43 23.57, 156.78 22.89 C 157.12 22.21, 157.25 21.97, 157.41 21.77 C 157.57 21.56, 157.59 21.61, 157.57 21.85 C 157.54 22.10, 157.45 22.37, 157.29 22.98 C 157.13 23.58, 157.02 24.05, 156.76 24.88 C 156.51 25.72, 156.32 26.26, 156.01 27.16 C 155.70 28.07, 155.48 28.58, 155.21 29.40 C 154.94 30.21, 154.77 30.63, 154.66 31.24 C 154.54 31.85, 154.52 32.08, 154.63 32.44 C 154.74 32.80, 154.88 32.88, 155.19 33.04 C 155.51 33.19, 155.73 33.20, 156.21 33.21 C 156.69 33.22, 156.98 33.16, 157.59 33.11 C 158.21 33.05, 158.57 32.99, 159.27 32.94 C 159.96 32.90, 160.37 32.89, 161.05 32.89 C 161.74 32.89, 162.11 32.94, 162.70 32.94 C 163.29 32.95, 163.60 32.95, 164.03 32.93 C 164.45 32.90, 164.67 32.90, 164.84 32.84 C 165.01 32.78, 165.01 32.71, 164.86 32.62 C 164.70 32.53, 164.48 32.48, 164.06 32.40 C 163.63 32.33, 163.33 32.30, 162.73 32.24 C 162.14 32.19, 161.77 32.16, 161.07 32.14 C 160.36 32.12, 159.94 32.11, 159.22 32.14 C 158.51 32.17, 158.12 32.22, 157.51 32.29 C 156.90 32.37, 156.61 32.45, 156.17 32.52 C 155.73 32.59, 155.56 32.67, 155.33 32.64 C 155.10 32.61, 155.03 32.61, 155.01 32.36 C 154.99 32.11, 155.06 31.93, 155.24 31.39 C 155.42 30.85, 155.60 30.44, 155.91 29.65 C 156.22 28.86, 156.45 28.35, 156.79 27.44 C 157.13 26.54, 157.38 26.01, 157.63 25.14 C 157.87 24.27, 157.97 23.77, 158.02 23.10 C 158.08 22.43, 158.04 22.09, 157.88 21.78 C 157.72 21.46, 157.55 21.37, 157.23 21.53 C 156.91 21.70, 156.70 21.93, 156.26 22.59 C 155.82 23.25, 155.53 23.78, 155.01 24.84 C 154.49 25.90, 154.18 26.65, 153.65 27.90 C 153.11 29.15, 152.79 29.94, 152.35 31.10 C 151.91 32.26, 151.70 32.88, 151.45 33.71 C 151.20 34.54, 151.15 34.94, 151.11 35.26 C 151.07 35.58, 151.13 35.62, 151.24 35.31 C 151.35 35.00, 151.48 34.65, 151.66 33.71 C 151.84 32.78, 151.95 32.09, 152.16 30.61 C 152.37 29.14, 152.49 28.18, 152.71 26.33 C 152.94 24.48, 153.07 23.35, 153.28 21.34 C 153.49 19.34, 153.57 18.20, 153.75 16.31 C 153.93 14.42, 154.02 13.43, 154.18 11.90 C 154.34 10.36, 154.45 9.67, 154.55 8.64 C 154.65 7.60, 154.67 7.24, 154.67 6.74 C 154.68 6.24, 154.61 6.13, 154.56 6.14 C 154.51 6.15, 154.47 6.27, 154.42 6.77 C 154.37 7.28, 154.37 7.67, 154.30 8.64 C 154.24 9.62, 154.21 10.25, 154.09 11.63 C 153.96 13.01, 153.90 13.83, 153.66 15.53 C 153.43 17.23, 153.29 18.23, 152.92 20.11 C 152.55 21.99, 152.33 23.05, 151.82 24.92 C 151.31 26.79, 151.01 27.78, 150.37 29.46 C 149.73 31.14, 149.30 31.97, 148.61 33.30 C 147.92 34.63, 147.51 35.24, 146.92 36.10 C 146.33 36.96, 146.05 37.27, 145.66 37.58 C 145.26 37.90, 145.16 37.91, 144.95 37.68 C 144.74 37.44, 144.71 37.13, 144.61 36.40 C 144.50 35.68, 144.47 35.10, 144.41 34.06 C 144.35 33.03, 144.37 32.33, 144.31 31.23 C 144.26 30.12, 144.28 29.47, 144.16 28.54 C 144.04 27.61, 143.95 27.15, 143.72 26.56 C 143.49 25.98, 143.34 25.74, 143.03 25.61 C 142.71 25.49, 142.54 25.55, 142.15 25.93 C 141.76 26.31, 141.54 26.68, 141.10 27.51 C 140.65 28.35, 140.38 28.97, 139.91 30.09 C 139.44 31.22, 139.17 31.99, 138.76 33.14 C 138.35 34.29, 138.13 34.96, 137.86 35.86 C 137.59 36.77, 137.49 37.21, 137.41 37.68 C 137.34 38.16, 137.41 38.31, 137.47 38.24 C 137.53 38.18, 137.62 37.94, 137.71 37.35 C 137.80 36.76, 137.85 36.26, 137.92 35.27 C 138.00 34.29, 138.04 33.61, 138.07 32.42 C 138.11 31.24, 138.14 30.48, 138.10 29.36 C 138.07 28.24, 138.03 27.63, 137.88 26.82 C 137.73 26.02, 137.61 25.66, 137.36 25.32 C 137.10 24.97, 136.94 24.91, 136.61 25.10 C 136.29 25.28, 136.10 25.55, 135.71 26.23 C 135.32 26.92, 135.11 27.46, 134.68 28.53 C 134.26 29.59, 134.02 30.33, 133.59 31.55 C 133.15 32.77, 132.89 33.51, 132.50 34.64 C 132.10 35.77, 131.89 36.37, 131.61 37.20 C 131.33 38.03, 131.24 38.41, 131.10 38.80 C 130.96 39.18, 130.96 39.29, 130.93 39.13 C 130.89 38.97, 130.90 38.71, 130.92 37.99 C 130.93 37.27, 130.92 36.67, 130.99 35.54 C 131.05 34.40, 131.10 33.65, 131.25 32.33 C 131.40 31.00, 131.52 30.18, 131.71 28.92 C 131.91 27.66, 132.05 26.97, 132.22 26.03 C 132.40 25.09, 132.51 24.75, 132.59 24.20 C 132.68 23.64, 132.66 23.50, 132.66 23.26 C 132.66 23.01, 132.63 23.03, 132.58 22.96 C 132.53 22.89, 132.48 22.88, 132.40 22.91"/>
<path d="M 171.06,33.08 C 170.89 33.36, 170.73 33.74, 170.48 34.52 C 170.23 35.29, 169.86 36.45, 169.81 36.97 C 169.77 37.49, 169.98 37.57, 170.25 37.12 C 170.53 36.67, 170.97 35.52, 171.19 34.73 C 171.41 33.93, 171.36 33.48, 171.34 33.15 C 171.31 32.82, 171.24 32.81, 171.06 33.08"/>
<path d="M 190.74,15.14 C 190.66 15.35, 190.67 15.52, 190.57 16.21 C 190.47 16.90, 190.42 17.35, 190.26 18.58 C 190.10 19.80, 189.99 20.65, 189.77 22.31 C 189.55 23.98, 189.38 25.05, 189.15 26.88 C 188.92 28.71, 188.80 29.78, 188.62 31.46 C 188.43 33.13, 188.32 33.99, 188.23 35.26 C 188.14 36.53, 188.08 37.12, 188.16 37.81 C 188.24 38.49, 188.35 38.71, 188.62 38.69 C 188.89 38.66, 189.10 38.40, 189.50 37.66 C 189.90 36.92, 190.14 36.28, 190.63 34.99 C 191.11 33.71, 191.42 32.81, 191.93 31.23 C 192.43 29.65, 192.71 28.68, 193.16 27.10 C 193.61 25.51, 193.82 24.64, 194.18 23.30 C 194.54 21.96, 194.72 21.34, 194.97 20.41 C 195.22 19.48, 195.31 19.09, 195.42 18.64 C 195.53 18.19, 195.53 18.07, 195.52 18.16 C 195.51 18.25, 195.45 18.47, 195.38 19.09 C 195.31 19.71, 195.23 20.21, 195.16 21.28 C 195.08 22.35, 195.05 23.09, 195.01 24.46 C 194.96 25.82, 194.93 26.70, 194.94 28.11 C 194.95 29.53, 194.95 30.32, 195.05 31.52 C 195.15 32.73, 195.21 33.30, 195.43 34.12 C 195.64 34.94, 195.79 35.27, 196.14 35.61 C 196.49 35.95, 196.72 35.98, 197.17 35.81 C 197.62 35.63, 197.90 35.36, 198.40 34.74 C 198.89 34.12, 199.18 33.62, 199.65 32.70 C 200.12 31.78, 200.37 31.14, 200.76 30.15 C 201.15 29.15, 201.34 28.54, 201.60 27.72 C 201.85 26.89, 201.93 26.51, 202.03 26.04 C 202.13 25.56, 202.11 25.43, 202.09 25.35 C 202.07 25.26, 202.00 25.33, 201.94 25.62 C 201.88 25.91, 201.82 26.18, 201.78 26.78 C 201.74 27.38, 201.73 27.82, 201.73 28.64 C 201.72 29.46, 201.73 30.01, 201.74 30.88 C 201.76 31.76, 201.74 32.26, 201.81 33.01 C 201.88 33.76, 201.92 34.17, 202.10 34.64 C 202.29 35.12, 202.40 35.29, 202.73 35.38 C 203.06 35.46, 203.29 35.41, 203.74 35.06 C 204.19 34.71, 204.48 34.37, 204.97 33.61 C 205.46 32.86, 205.73 32.29, 206.21 31.30 C 206.69 30.31, 206.96 29.67, 207.38 28.67 C 207.80 27.67, 208.03 27.07, 208.29 26.30 C 208.56 25.53, 208.63 25.18, 208.70 24.83 C 208.77 24.48, 208.72 24.43, 208.65 24.55 C 208.59 24.68, 208.50 24.89, 208.39 25.46 C 208.28 26.03, 208.20 26.51, 208.11 27.41 C 208.02 28.30, 208.00 28.91, 207.95 29.94 C 207.90 30.96, 207.87 31.58, 207.87 32.52 C 207.87 33.46, 207.84 33.97, 207.94 34.63 C 208.03 35.29, 208.11 35.57, 208.34 35.81 C 208.57 36.06, 208.74 36.07, 209.10 35.85 C 209.46 35.63, 209.69 35.39, 210.13 34.72 C 210.56 34.05, 210.82 33.50, 211.27 32.51 C 211.72 31.51, 211.96 30.80, 212.37 29.75 C 212.77 28.70, 213.01 28.08, 213.31 27.24 C 213.61 26.40, 213.75 25.98, 213.87 25.55 C 213.99 25.11, 213.97 25.00, 213.93 25.08 C 213.90 25.16, 213.80 25.39, 213.69 25.95 C 213.59 26.51, 213.50 26.99, 213.42 27.88 C 213.33 28.78, 213.30 29.41, 213.28 30.43 C 213.26 31.45, 213.24 32.07, 213.32 32.99 C 213.40 33.90, 213.44 34.38, 213.67 34.99 C 213.91 35.59, 214.07 35.86, 214.51 36.01 C 214.95 36.17, 215.25 36.13, 215.87 35.76 C 216.50 35.38, 216.91 35.01, 217.65 34.14 C 218.38 33.27, 218.84 32.64, 219.56 31.41 C 220.28 30.17, 220.68 29.36, 221.26 27.97 C 221.84 26.57, 222.12 25.76, 222.47 24.42 C 222.83 23.07, 222.94 22.36, 223.04 21.23 C 223.15 20.09, 223.10 19.58, 223.00 18.76 C 222.89 17.94, 222.76 17.62, 222.52 17.13 C 222.28 16.64, 222.13 16.47, 221.80 16.33 C 221.48 16.19, 221.27 16.21, 220.91 16.44 C 220.54 16.66, 220.32 16.87, 219.98 17.45 C 219.64 18.03, 219.47 18.43, 219.20 19.33 C 218.94 20.23, 218.81 20.81, 218.64 21.94 C 218.47 23.07, 218.39 23.76, 218.36 25.00 C 218.33 26.23, 218.36 26.93, 218.49 28.11 C 218.61 29.28, 218.74 29.91, 218.99 30.88 C 219.24 31.85, 219.40 32.32, 219.75 32.96 C 220.11 33.60, 220.30 33.83, 220.75 34.06 C 221.20 34.29, 221.47 34.32, 222.01 34.11 C 222.54 33.91, 222.85 33.67, 223.41 33.04 C 223.97 32.42, 224.30 31.94, 224.82 30.99 C 225.34 30.04, 225.63 29.39, 226.02 28.29 C 226.41 27.19, 226.58 26.52, 226.79 25.48 C 227.00 24.45, 227.03 23.94, 227.06 23.14 C 227.09 22.33, 227.06 21.97, 226.94 21.45 C 226.82 20.93, 226.70 20.77, 226.47 20.55 C 226.24 20.33, 226.06 20.31, 225.79 20.36 C 225.53 20.41, 225.36 20.52, 225.13 20.80 C 224.91 21.08, 224.81 21.31, 224.66 21.77 C 224.51 22.24, 224.46 22.51, 224.38 23.11 C 224.29 23.72, 224.26 24.09, 224.23 24.80 C 224.21 25.51, 224.18 25.95, 224.25 26.68 C 224.31 27.41, 224.36 27.79, 224.55 28.45 C 224.74 29.10, 224.87 29.44, 225.20 29.96 C 225.52 30.47, 225.72 30.71, 226.19 31.03 C 226.66 31.35, 226.95 31.48, 227.54 31.55 C 228.13 31.61, 228.48 31.58, 229.15 31.36 C 229.82 31.14, 230.20 30.95, 230.89 30.44 C 231.59 29.93, 231.99 29.56, 232.62 28.79 C 233.25 28.03, 233.56 27.52, 234.04 26.61 C 234.52 25.69, 234.72 25.15, 235.02 24.21 C 235.32 23.26, 235.42 22.75, 235.55 21.89 C 235.68 21.03, 235.66 20.62, 235.67 19.91 C 235.69 19.20, 235.65 18.88, 235.63 18.34 C 235.62 17.80, 235.60 17.59, 235.59 17.22 C 235.59 16.85, 235.61 16.72, 235.60 16.49 C 235.59 16.27, 235.59 16.18, 235.53 16.10 C 235.46 16.02, 235.37 16.01, 235.27 16.09 C 235.17 16.17, 235.10 16.22, 235.02 16.49 C 234.94 16.75, 234.91 16.94, 234.86 17.41 C 234.81 17.89, 234.81 18.21, 234.79 18.87 C 234.77 19.54, 234.77 19.94, 234.76 20.73 C 234.76 21.52, 234.76 21.99, 234.78 22.84 C 234.80 23.68, 234.81 24.14, 234.88 24.95 C 234.94 25.75, 234.99 26.18, 235.11 26.87 C 235.22 27.55, 235.28 27.88, 235.46 28.38 C 235.64 28.87, 235.72 29.08, 236.00 29.32 C 236.29 29.57, 236.47 29.65, 236.87 29.59 C 237.26 29.53, 237.51 29.41, 237.98 29.02 C 238.44 28.63, 238.70 28.33, 239.18 27.65 C 239.66 26.96, 239.92 26.49, 240.39 25.61 C 240.85 24.73, 241.09 24.15, 241.50 23.26 C 241.90 22.36, 242.11 21.85, 242.40 21.15 C 242.69 20.45, 242.80 20.11, 242.95 19.75 C 243.09 19.39, 243.11 19.28, 243.13 19.36 C 243.14 19.44, 243.08 19.62, 243.02 20.13 C 242.95 20.63, 242.89 21.05, 242.81 21.88 C 242.73 22.72, 242.67 23.31, 242.60 24.30 C 242.53 25.29, 242.47 25.90, 242.46 26.82 C 242.46 27.75, 242.45 28.24, 242.56 28.93 C 242.68 29.61, 242.77 29.91, 243.04 30.23 C 243.31 30.56, 243.50 30.63, 243.90 30.56 C 244.30 30.49, 244.55 30.34, 245.03 29.90 C 245.52 29.46, 245.83 29.09, 246.33 28.36 C 246.84 27.63, 247.10 27.12, 247.56 26.27 C 248.02 25.42, 248.23 24.91, 248.62 24.12 C 249.01 23.32, 249.21 22.90, 249.51 22.29 C 249.81 21.68, 249.92 21.41, 250.13 21.06 C 250.34 20.72, 250.43 20.61, 250.55 20.55 C 250.68 20.50, 250.70 20.53, 250.77 20.79 C 250.83 21.05, 250.87 21.28, 250.89 21.86 C 250.92 22.44, 250.93 22.86, 250.90 23.69 C 250.86 24.52, 250.81 25.10, 250.72 26.02 C 250.63 26.93, 250.53 27.50, 250.46 28.28 C 250.39 29.06, 250.32 29.45, 250.37 29.92 C 250.42 30.38, 250.49 30.55, 250.71 30.59 C 250.92 30.64, 251.10 30.54, 251.44 30.14 C 251.78 29.75, 252.00 29.35, 252.39 28.63 C 252.78 27.90, 252.99 27.36, 253.39 26.53 C 253.79 25.70, 254.01 25.21, 254.39 24.48 C 254.76 23.75, 254.96 23.36, 255.26 22.87 C 255.55 22.38, 255.67 22.20, 255.86 22.02 C 256.05 21.84, 256.11 21.86, 256.20 21.97 C 256.30 22.08, 256.29 22.22, 256.32 22.59 C 256.34 22.95, 256.32 23.23, 256.32 23.80 C 256.33 24.38, 256.31 24.78, 256.33 25.46 C 256.35 26.14, 256.34 26.57, 256.43 27.19 C 256.53 27.82, 256.57 28.14, 256.81 28.58 C 257.05 29.02, 257.20 29.21, 257.64 29.39 C 258.07 29.57, 258.37 29.62, 258.97 29.49 C 259.57 29.36, 259.92 29.17, 260.65 28.73 C 261.37 28.29, 261.84 27.96, 262.59 27.28 C 263.34 26.61, 263.77 26.13, 264.40 25.36 C 265.03 24.60, 265.32 24.14, 265.74 23.46 C 266.16 22.77, 266.33 22.45, 266.49 21.94 C 266.65 21.44, 266.66 21.23, 266.55 20.93 C 266.44 20.63, 266.27 20.53, 265.95 20.45 C 265.64 20.37, 265.38 20.39, 264.97 20.53 C 264.56 20.67, 264.32 20.82, 263.90 21.15 C 263.49 21.49, 263.27 21.73, 262.89 22.20 C 262.51 22.67, 262.29 22.96, 262.00 23.50 C 261.71 24.03, 261.56 24.36, 261.43 24.87 C 261.30 25.38, 261.25 25.66, 261.34 26.05 C 261.42 26.44, 261.55 26.65, 261.86 26.82 C 262.18 26.98, 262.43 27.02, 262.91 26.87 C 263.38 26.73, 263.71 26.55, 264.22 26.07 C 264.74 25.60, 265.04 25.21, 265.49 24.51 C 265.94 23.82, 266.17 23.34, 266.47 22.58 C 266.78 21.82, 266.89 21.38, 267.01 20.72 C 267.13 20.05, 267.12 19.72, 267.06 19.28 C 267.00 18.83, 266.87 18.65, 266.71 18.50 C 266.56 18.34, 266.37 18.47, 266.29 18.49 C 266.20 18.52, 266.24 18.60, 266.28 18.63 C 266.32 18.66, 266.44 18.53, 266.48 18.66 C 266.53 18.79, 266.53 18.91, 266.50 19.30 C 266.48 19.68, 266.49 19.98, 266.34 20.57 C 266.19 21.17, 266.06 21.58, 265.75 22.28 C 265.44 22.98, 265.20 23.41, 264.78 24.06 C 264.36 24.70, 264.08 25.05, 263.66 25.50 C 263.23 25.95, 262.99 26.11, 262.66 26.30 C 262.34 26.49, 262.20 26.50, 262.04 26.44 C 261.88 26.38, 261.84 26.26, 261.85 25.99 C 261.86 25.72, 261.93 25.50, 262.09 25.08 C 262.25 24.65, 262.39 24.35, 262.67 23.87 C 262.95 23.40, 263.15 23.12, 263.50 22.69 C 263.85 22.27, 264.06 22.07, 264.41 21.76 C 264.76 21.45, 264.95 21.34, 265.25 21.16 C 265.55 20.99, 265.71 20.91, 265.91 20.88 C 266.10 20.86, 266.20 20.85, 266.22 21.02 C 266.24 21.19, 266.21 21.33, 266.00 21.74 C 265.78 22.15, 265.60 22.46, 265.16 23.08 C 264.72 23.70, 264.42 24.14, 263.80 24.85 C 263.17 25.57, 262.75 26.02, 262.04 26.66 C 261.32 27.30, 260.87 27.62, 260.22 28.06 C 259.57 28.50, 259.28 28.70, 258.80 28.87 C 258.31 29.05, 258.11 29.04, 257.81 28.94 C 257.52 28.83, 257.44 28.71, 257.31 28.35 C 257.19 27.99, 257.20 27.70, 257.18 27.12 C 257.15 26.54, 257.19 26.12, 257.19 25.45 C 257.19 24.78, 257.22 24.36, 257.17 23.76 C 257.12 23.16, 257.09 22.86, 256.94 22.45 C 256.79 22.03, 256.67 21.85, 256.41 21.70 C 256.15 21.55, 255.97 21.52, 255.64 21.68 C 255.31 21.85, 255.13 22.03, 254.74 22.51 C 254.36 23.00, 254.15 23.39, 253.72 24.11 C 253.29 24.84, 253.03 25.31, 252.60 26.13 C 252.17 26.96, 251.91 27.48, 251.57 28.22 C 251.24 28.96, 251.10 29.39, 250.93 29.83 C 250.75 30.28, 250.73 30.43, 250.72 30.46 C 250.71 30.48, 250.77 30.36, 250.87 29.94 C 250.97 29.53, 251.07 29.15, 251.21 28.39 C 251.35 27.62, 251.46 27.04, 251.57 26.11 C 251.68 25.18, 251.76 24.59, 251.78 23.72 C 251.80 22.85, 251.78 22.40, 251.66 21.77 C 251.54 21.14, 251.42 20.87, 251.18 20.57 C 250.95 20.27, 250.78 20.21, 250.49 20.25 C 250.19 20.29, 250.03 20.41, 249.72 20.75 C 249.41 21.10, 249.28 21.38, 248.93 21.98 C 248.58 22.59, 248.38 23.00, 247.96 23.78 C 247.54 24.55, 247.31 25.05, 246.84 25.87 C 246.37 26.69, 246.08 27.17, 245.62 27.87 C 245.15 28.58, 244.88 28.95, 244.52 29.41 C 244.15 29.87, 244.02 30.06, 243.79 30.18 C 243.56 30.30, 243.49 30.28, 243.37 30.02 C 243.25 29.75, 243.22 29.49, 243.19 28.86 C 243.16 28.22, 243.18 27.75, 243.24 26.85 C 243.30 25.95, 243.38 25.36, 243.47 24.38 C 243.57 23.39, 243.67 22.80, 243.70 21.94 C 243.74 21.09, 243.74 20.65, 243.65 20.11 C 243.55 19.56, 243.46 19.34, 243.25 19.22 C 243.03 19.10, 242.87 19.18, 242.57 19.50 C 242.27 19.83, 242.12 20.16, 241.76 20.85 C 241.40 21.53, 241.20 22.04, 240.77 22.92 C 240.35 23.79, 240.10 24.37, 239.65 25.22 C 239.19 26.07, 238.93 26.52, 238.50 27.18 C 238.06 27.84, 237.84 28.12, 237.49 28.51 C 237.14 28.91, 236.99 29.04, 236.75 29.14 C 236.51 29.24, 236.45 29.21, 236.30 29.03 C 236.16 28.84, 236.13 28.66, 236.02 28.21 C 235.92 27.75, 235.86 27.43, 235.78 26.77 C 235.70 26.11, 235.65 25.69, 235.60 24.90 C 235.56 24.11, 235.55 23.65, 235.54 22.82 C 235.54 21.99, 235.55 21.52, 235.57 20.74 C 235.58 19.96, 235.59 19.56, 235.63 18.91 C 235.66 18.25, 235.71 17.95, 235.73 17.48 C 235.75 17.01, 235.77 16.83, 235.74 16.56 C 235.71 16.28, 235.66 16.21, 235.57 16.11 C 235.48 16.01, 235.38 15.98, 235.29 16.05 C 235.19 16.12, 235.14 16.22, 235.09 16.46 C 235.04 16.69, 235.05 16.84, 235.04 17.22 C 235.03 17.60, 235.03 17.81, 235.03 18.35 C 235.03 18.88, 235.07 19.20, 235.04 19.89 C 235.01 20.57, 235.03 20.97, 234.89 21.79 C 234.75 22.60, 234.65 23.09, 234.34 23.98 C 234.04 24.88, 233.84 25.39, 233.38 26.26 C 232.92 27.12, 232.62 27.59, 232.03 28.31 C 231.44 29.02, 231.06 29.36, 230.44 29.85 C 229.82 30.33, 229.49 30.50, 228.92 30.72 C 228.35 30.93, 228.08 30.97, 227.60 30.94 C 227.12 30.90, 226.90 30.80, 226.53 30.54 C 226.15 30.28, 226.00 30.08, 225.73 29.63 C 225.47 29.18, 225.36 28.87, 225.22 28.27 C 225.07 27.67, 225.04 27.31, 225.00 26.63 C 224.96 25.94, 224.99 25.52, 225.03 24.83 C 225.06 24.15, 225.09 23.79, 225.16 23.22 C 225.24 22.65, 225.30 22.40, 225.40 21.99 C 225.50 21.57, 225.57 21.38, 225.67 21.12 C 225.77 20.87, 225.80 20.77, 225.90 20.70 C 226.01 20.64, 226.09 20.62, 226.19 20.79 C 226.30 20.96, 226.38 21.08, 226.43 21.54 C 226.47 22.00, 226.49 22.34, 226.42 23.10 C 226.35 23.85, 226.31 24.35, 226.08 25.33 C 225.84 26.31, 225.66 26.96, 225.26 28.01 C 224.86 29.06, 224.57 29.68, 224.08 30.59 C 223.60 31.50, 223.30 31.96, 222.84 32.57 C 222.38 33.19, 222.17 33.43, 221.79 33.66 C 221.41 33.88, 221.26 33.89, 220.95 33.70 C 220.65 33.51, 220.52 33.30, 220.26 32.71 C 220.00 32.11, 219.86 31.66, 219.65 30.72 C 219.44 29.79, 219.32 29.17, 219.22 28.03 C 219.11 26.89, 219.09 26.22, 219.13 25.02 C 219.18 23.83, 219.26 23.16, 219.44 22.06 C 219.61 20.97, 219.75 20.42, 219.99 19.56 C 220.23 18.71, 220.39 18.34, 220.63 17.79 C 220.87 17.24, 221.01 17.05, 221.21 16.81 C 221.42 16.58, 221.48 16.53, 221.65 16.64 C 221.83 16.74, 221.92 16.88, 222.07 17.32 C 222.23 17.76, 222.36 18.05, 222.42 18.82 C 222.49 19.59, 222.53 20.08, 222.40 21.16 C 222.27 22.24, 222.15 22.93, 221.78 24.22 C 221.41 25.52, 221.13 26.30, 220.54 27.66 C 219.95 29.01, 219.53 29.78, 218.83 30.98 C 218.12 32.17, 217.67 32.77, 217.01 33.63 C 216.35 34.49, 216.01 34.86, 215.53 35.28 C 215.06 35.69, 214.89 35.77, 214.63 35.68 C 214.36 35.59, 214.31 35.37, 214.20 34.83 C 214.09 34.28, 214.09 33.82, 214.08 32.95 C 214.07 32.07, 214.10 31.46, 214.15 30.46 C 214.20 29.45, 214.29 28.84, 214.33 27.94 C 214.36 27.05, 214.39 26.57, 214.33 25.98 C 214.28 25.39, 214.22 25.13, 214.04 25.01 C 213.87 24.88, 213.76 24.96, 213.47 25.35 C 213.19 25.74, 213.01 26.15, 212.63 26.96 C 212.25 27.78, 212.02 28.40, 211.58 29.43 C 211.13 30.46, 210.85 31.15, 210.43 32.13 C 210.00 33.11, 209.76 33.65, 209.44 34.34 C 209.12 35.02, 209.00 35.28, 208.83 35.55 C 208.65 35.81, 208.63 35.85, 208.58 35.65 C 208.53 35.46, 208.55 35.21, 208.56 34.59 C 208.57 33.96, 208.59 33.46, 208.64 32.54 C 208.69 31.62, 208.73 31.00, 208.81 29.99 C 208.89 28.98, 208.98 28.38, 209.03 27.48 C 209.09 26.58, 209.12 26.10, 209.07 25.50 C 209.03 24.91, 208.97 24.67, 208.83 24.50 C 208.68 24.34, 208.59 24.36, 208.36 24.66 C 208.12 24.97, 207.98 25.29, 207.63 26.03 C 207.29 26.77, 207.07 27.37, 206.63 28.35 C 206.19 29.33, 205.90 29.95, 205.42 30.91 C 204.95 31.88, 204.67 32.43, 204.25 33.17 C 203.83 33.92, 203.62 34.26, 203.33 34.65 C 203.04 35.03, 202.94 35.12, 202.79 35.09 C 202.65 35.07, 202.66 34.94, 202.61 34.51 C 202.56 34.09, 202.55 33.69, 202.55 32.97 C 202.54 32.24, 202.55 31.75, 202.57 30.89 C 202.59 30.02, 202.63 29.47, 202.64 28.65 C 202.65 27.82, 202.66 27.39, 202.61 26.77 C 202.56 26.16, 202.50 25.88, 202.37 25.57 C 202.25 25.27, 202.16 25.19, 202.00 25.25 C 201.83 25.31, 201.76 25.42, 201.54 25.87 C 201.32 26.32, 201.22 26.68, 200.91 27.48 C 200.60 28.27, 200.40 28.86, 199.99 29.83 C 199.58 30.80, 199.31 31.41, 198.87 32.31 C 198.43 33.21, 198.18 33.69, 197.80 34.32 C 197.42 34.95, 197.26 35.24, 196.98 35.45 C 196.71 35.66, 196.61 35.66, 196.41 35.37 C 196.22 35.08, 196.13 34.77, 196.00 33.99 C 195.87 33.22, 195.81 32.66, 195.76 31.48 C 195.71 30.31, 195.72 29.51, 195.75 28.12 C 195.77 26.72, 195.82 25.85, 195.88 24.49 C 195.94 23.13, 196.01 22.40, 196.03 21.32 C 196.06 20.24, 196.08 19.74, 196.00 19.09 C 195.92 18.44, 195.81 18.19, 195.62 18.07 C 195.43 17.95, 195.30 18.06, 195.05 18.49 C 194.80 18.92, 194.70 19.31, 194.39 20.24 C 194.08 21.16, 193.90 21.78, 193.51 23.11 C 193.11 24.44, 192.89 25.31, 192.41 26.88 C 191.93 28.45, 191.62 29.40, 191.10 30.96 C 190.58 32.53, 190.23 33.40, 189.79 34.69 C 189.36 35.99, 189.17 36.65, 188.93 37.42 C 188.69 38.19, 188.65 38.48, 188.58 38.56 C 188.52 38.63, 188.54 38.45, 188.60 37.80 C 188.66 37.15, 188.74 36.57, 188.89 35.32 C 189.04 34.07, 189.14 33.21, 189.36 31.55 C 189.57 29.88, 189.71 28.81, 189.97 26.99 C 190.22 25.16, 190.41 24.09, 190.63 22.43 C 190.85 20.76, 190.97 19.90, 191.07 18.66 C 191.17 17.42, 191.16 16.95, 191.14 16.24 C 191.12 15.54, 191.07 15.36, 190.99 15.14 C 190.91 14.92, 190.83 14.92, 190.74 15.14"/>
<path d="M 265.43,21.35 C 265.25 21.66, 265.05 22.09, 264.78 22.98 C 264.51 23.88, 264.35 24.52, 264.07 25.83 C 263.79 27.14, 263.64 27.97, 263.39 29.52 C 263.14 31.06, 263.04 31.92, 262.81 33.54 C 262.58 35.15, 262.50 36.02, 262.25 37.58 C 262.01 39.15, 261.89 39.97, 261.59 41.36 C 261.29 42.74, 261.12 43.44, 260.76 44.51 C 260.40 45.59, 260.20 46.06, 259.80 46.72 C 259.40 47.38, 259.19 47.57, 258.77 47.81 C 258.36 48.05, 258.14 48.04, 257.75 47.93 C 257.36 47.81, 257.15 47.67, 256.83 47.26 C 256.51 46.85, 256.33 46.53, 256.16 45.87 C 255.99 45.20, 255.91 44.79, 255.98 43.94 C 256.05 43.08, 256.13 42.58, 256.50 41.58 C 256.86 40.59, 257.10 40.00, 257.80 38.95 C 258.49 37.91, 258.96 37.35, 259.98 36.35 C 260.99 35.34, 261.59 34.85, 262.87 33.94 C 264.14 33.03, 264.91 32.58, 266.36 31.79 C 267.81 31.00, 268.65 30.64, 270.12 29.99 C 271.59 29.33, 272.39 29.04, 273.71 28.50 C 275.04 27.97, 275.71 27.72, 276.75 27.32 C 277.78 26.92, 278.25 26.76, 278.90 26.50 C 279.55 26.24, 279.71 26.15, 279.99 26.03 C 280.27 25.90, 280.23 25.94, 280.28 25.89 C 280.34 25.85, 280.35 25.83, 280.27 25.80 C 280.20 25.77, 280.23 25.71, 279.91 25.74 C 279.60 25.78, 279.40 25.79, 278.72 25.99 C 278.04 26.18, 277.58 26.34, 276.52 26.72 C 275.47 27.09, 274.80 27.34, 273.46 27.86 C 272.12 28.38, 271.32 28.67, 269.83 29.33 C 268.34 29.99, 267.49 30.34, 266.01 31.14 C 264.53 31.95, 263.75 32.41, 262.44 33.35 C 261.13 34.28, 260.51 34.79, 259.46 35.82 C 258.41 36.86, 257.91 37.44, 257.18 38.54 C 256.45 39.64, 256.19 40.26, 255.80 41.33 C 255.42 42.40, 255.32 42.94, 255.25 43.88 C 255.18 44.83, 255.25 45.30, 255.47 46.06 C 255.69 46.81, 255.92 47.20, 256.35 47.67 C 256.79 48.13, 257.10 48.29, 257.63 48.40 C 258.16 48.51, 258.47 48.49, 259.00 48.22 C 259.53 47.94, 259.79 47.72, 260.27 47.02 C 260.74 46.32, 260.97 45.83, 261.37 44.73 C 261.76 43.62, 261.94 42.91, 262.26 41.51 C 262.58 40.10, 262.70 39.27, 262.96 37.70 C 263.21 36.12, 263.31 35.26, 263.55 33.65 C 263.80 32.04, 263.93 31.18, 264.19 29.65 C 264.45 28.12, 264.61 27.29, 264.86 25.99 C 265.10 24.68, 265.22 24.05, 265.39 23.13 C 265.56 22.22, 265.69 21.78, 265.70 21.42 C 265.71 21.07, 265.61 21.04, 265.43 21.35"/>
<path d="M 303.40,20.82 C 303.53 20.75, 303.69 20.61, 303.81 20.33 C 303.93 20.05, 303.99 19.82, 303.98 19.40 C 303.97 18.98, 303.96 18.68, 303.74 18.24 C 303.52 17.80, 303.34 17.52, 302.89 17.20 C 302.43 16.88, 302.11 16.72, 301.46 16.65 C 300.81 16.57, 300.41 16.57, 299.64 16.83 C 298.87 17.10, 298.41 17.32, 297.62 17.96 C 296.83 18.59, 296.37 19.06, 295.69 20.00 C 295.01 20.94, 294.68 21.56, 294.22 22.66 C 293.76 23.75, 293.58 24.41, 293.39 25.47 C 293.20 26.52, 293.16 27.09, 293.27 27.93 C 293.38 28.77, 293.53 29.16, 293.92 29.67 C 294.31 30.17, 294.61 30.36, 295.21 30.45 C 295.82 30.54, 296.21 30.48, 296.95 30.11 C 297.70 29.75, 298.17 29.38, 298.93 28.61 C 299.69 27.85, 300.10 27.30, 300.75 26.29 C 301.40 25.29, 301.75 24.63, 302.19 23.59 C 302.62 22.55, 302.80 21.89, 302.92 21.10 C 303.03 20.30, 302.93 19.93, 302.77 19.62 C 302.61 19.31, 302.40 19.31, 302.11 19.54 C 301.82 19.78, 301.58 20.11, 301.32 20.80 C 301.06 21.49, 300.90 22.05, 300.81 22.99 C 300.72 23.93, 300.76 24.56, 300.87 25.48 C 300.99 26.40, 301.07 26.90, 301.39 27.60 C 301.72 28.31, 301.90 28.65, 302.49 28.99 C 303.08 29.33, 303.51 29.44, 304.34 29.29 C 305.17 29.14, 305.68 28.87, 306.64 28.24 C 307.61 27.61, 308.18 27.09, 309.15 26.12 C 310.12 25.15, 310.68 24.48, 311.51 23.40 C 312.35 22.32, 312.74 21.67, 313.34 20.73 C 313.93 19.79, 314.16 19.31, 314.47 18.69 C 314.78 18.08, 314.83 17.86, 314.88 17.65 C 314.93 17.45, 314.80 17.47, 314.73 17.67 C 314.65 17.88, 314.54 18.11, 314.50 18.67 C 314.47 19.24, 314.48 19.66, 314.55 20.50 C 314.62 21.35, 314.70 21.90, 314.83 22.91 C 314.96 23.91, 315.06 24.51, 315.20 25.54 C 315.35 26.57, 315.46 27.15, 315.56 28.06 C 315.67 28.98, 315.70 29.44, 315.72 30.11 C 315.73 30.78, 315.72 31.05, 315.64 31.41 C 315.56 31.78, 315.49 31.85, 315.30 31.93 C 315.11 32.01, 314.95 31.94, 314.69 31.83 C 314.43 31.71, 314.27 31.57, 313.99 31.35 C 313.72 31.13, 313.56 30.93, 313.32 30.73 C 313.08 30.52, 312.95 30.44, 312.78 30.34 C 312.62 30.23, 312.58 30.20, 312.49 30.19 C 312.41 30.18, 312.38 30.20, 312.37 30.29 C 312.35 30.37, 312.35 30.43, 312.43 30.62 C 312.51 30.82, 312.54 30.99, 312.77 31.27 C 312.99 31.54, 313.18 31.77, 313.54 32.00 C 313.89 32.22, 314.15 32.34, 314.54 32.40 C 314.93 32.45, 315.17 32.46, 315.48 32.29 C 315.79 32.12, 315.92 31.99, 316.09 31.56 C 316.26 31.12, 316.31 30.83, 316.34 30.12 C 316.38 29.41, 316.35 28.93, 316.28 27.99 C 316.20 27.06, 316.10 26.48, 315.97 25.44 C 315.85 24.40, 315.76 23.81, 315.66 22.81 C 315.55 21.81, 315.54 21.26, 315.45 20.42 C 315.37 19.59, 315.33 19.19, 315.25 18.64 C 315.16 18.08, 315.13 17.87, 315.01 17.65 C 314.90 17.42, 314.89 17.36, 314.68 17.51 C 314.47 17.66, 314.37 17.84, 313.98 18.40 C 313.59 18.97, 313.36 19.45, 312.75 20.35 C 312.13 21.25, 311.73 21.87, 310.90 22.91 C 310.06 23.95, 309.51 24.60, 308.57 25.54 C 307.63 26.48, 307.08 26.98, 306.21 27.61 C 305.34 28.24, 304.90 28.51, 304.21 28.70 C 303.51 28.88, 303.19 28.82, 302.74 28.55 C 302.30 28.29, 302.18 28.00, 301.97 27.37 C 301.75 26.74, 301.71 26.27, 301.67 25.41 C 301.62 24.55, 301.65 23.96, 301.73 23.08 C 301.82 22.20, 301.94 21.68, 302.07 21.01 C 302.20 20.35, 302.30 20.01, 302.39 19.75 C 302.47 19.48, 302.52 19.44, 302.50 19.69 C 302.48 19.93, 302.48 20.24, 302.28 20.96 C 302.07 21.68, 301.92 22.30, 301.48 23.28 C 301.03 24.26, 300.69 24.90, 300.07 25.85 C 299.44 26.81, 299.04 27.32, 298.35 28.06 C 297.66 28.79, 297.25 29.14, 296.63 29.52 C 296.01 29.90, 295.73 30.00, 295.27 29.97 C 294.81 29.94, 294.60 29.80, 294.33 29.38 C 294.05 28.96, 293.93 28.62, 293.88 27.87 C 293.83 27.11, 293.88 26.58, 294.08 25.60 C 294.29 24.62, 294.47 23.98, 294.92 22.95 C 295.36 21.92, 295.69 21.33, 296.32 20.45 C 296.96 19.57, 297.39 19.14, 298.10 18.55 C 298.81 17.96, 299.22 17.75, 299.88 17.50 C 300.54 17.26, 300.86 17.27, 301.39 17.32 C 301.91 17.37, 302.15 17.51, 302.49 17.76 C 302.83 18.01, 302.93 18.22, 303.07 18.55 C 303.22 18.89, 303.19 19.11, 303.22 19.44 C 303.24 19.76, 303.21 19.93, 303.20 20.18 C 303.18 20.43, 303.09 20.57, 303.13 20.69 C 303.17 20.82, 303.26 20.89, 303.40 20.82"/>
<path d="M 339.34,18.90 C 339.30 18.97, 339.38 18.97, 339.33 19.15 C 339.28 19.34, 339.22 19.37, 339.10 19.82 C 338.97 20.27, 338.91 20.60, 338.72 21.39 C 338.52 22.18, 338.35 22.72, 338.12 23.76 C 337.88 24.80, 337.72 25.46, 337.54 26.58 C 337.36 27.70, 337.27 28.35, 337.22 29.35 C 337.18 30.35, 337.18 30.92, 337.31 31.58 C 337.45 32.23, 337.74 32.45, 337.89 32.65 C 338.04 32.85, 338.09 32.80, 338.07 32.58 C 338.06 32.35, 337.83 32.15, 337.81 31.52 C 337.79 30.88, 337.86 30.37, 337.96 29.41 C 338.07 28.45, 338.14 27.81, 338.34 26.72 C 338.54 25.63, 338.72 24.98, 338.96 23.96 C 339.21 22.93, 339.39 22.39, 339.57 21.59 C 339.74 20.79, 339.79 20.44, 339.83 19.95 C 339.88 19.46, 339.86 19.38, 339.80 19.15 C 339.75 18.92, 339.66 18.86, 339.57 18.81 C 339.47 18.76, 339.39 18.83, 339.34 18.90"/>
<path d="M 341.89,7.84 C 342.00 7.75, 342.09 7.55, 342.10 7.35 C 342.12 7.16, 342.06 6.96, 341.97 6.86 C 341.87 6.75, 341.75 6.74, 341.64 6.83 C 341.53 6.92, 341.45 7.10, 341.43 7.29 C 341.41 7.49, 341.45 7.70, 341.54 7.81 C 341.63 7.92, 341.78 7.94, 341.89 7.84"/>
<path d="M 349.49,6.05 C 349.46 6.14, 349.56 6.13, 349.53 6.37 C 349.51 6.60, 349.47 6.69, 349.34 7.22 C 349.22 7.76, 349.16 8.08, 348.92 9.05 C 348.68 10.02, 348.49 10.65, 348.15 12.05 C 347.80 13.45, 347.55 14.33, 347.19 16.05 C 346.82 17.77, 346.61 18.82, 346.32 20.66 C 346.03 22.49, 345.90 23.52, 345.73 25.22 C 345.56 26.91, 345.51 27.78, 345.47 29.14 C 345.43 30.49, 345.41 31.13, 345.53 31.98 C 345.66 32.84, 345.77 33.18, 346.12 33.43 C 346.46 33.67, 346.73 33.63, 347.25 33.22 C 347.77 32.80, 348.11 32.36, 348.70 31.35 C 349.30 30.34, 349.67 29.58, 350.21 28.16 C 350.74 26.75, 351.03 25.78, 351.36 24.28 C 351.69 22.77, 351.82 21.91, 351.87 20.63 C 351.92 19.35, 351.84 18.77, 351.60 17.88 C 351.37 16.99, 351.12 16.65, 350.69 16.20 C 350.27 15.75, 349.94 15.66, 349.48 15.63 C 349.03 15.60, 348.75 15.75, 348.43 16.05 C 348.10 16.35, 347.94 16.62, 347.88 17.12 C 347.81 17.61, 347.84 17.98, 348.08 18.53 C 348.33 19.08, 348.55 19.45, 349.09 19.88 C 349.64 20.32, 350.04 20.52, 350.81 20.69 C 351.59 20.87, 352.06 20.86, 352.97 20.76 C 353.89 20.66, 354.45 20.50, 355.40 20.19 C 356.36 19.88, 356.91 19.61, 357.76 19.19 C 358.61 18.78, 359.00 18.51, 359.64 18.13 C 360.27 17.75, 360.53 17.57, 360.93 17.31 C 361.32 17.06, 361.41 16.98, 361.60 16.85 C 361.78 16.73, 361.79 16.72, 361.84 16.69 C 361.89 16.67, 361.86 16.69, 361.84 16.72 C 361.83 16.75, 361.76 16.81, 361.76 16.83 C 361.77 16.84, 361.83 16.82, 361.87 16.78 C 361.90 16.74, 361.95 16.69, 361.95 16.64 C 361.95 16.58, 361.94 16.57, 361.85 16.52 C 361.76 16.48, 361.72 16.45, 361.51 16.42 C 361.30 16.39, 361.15 16.35, 360.80 16.37 C 360.45 16.39, 360.20 16.40, 359.76 16.51 C 359.32 16.61, 359.07 16.68, 358.60 16.89 C 358.12 17.10, 357.85 17.21, 357.40 17.55 C 356.94 17.88, 356.69 18.09, 356.31 18.57 C 355.94 19.06, 355.76 19.35, 355.53 19.95 C 355.30 20.55, 355.21 20.89, 355.15 21.56 C 355.09 22.23, 355.10 22.62, 355.25 23.31 C 355.40 24.00, 355.54 24.41, 355.90 25.02 C 356.26 25.63, 356.52 25.92, 357.05 26.38 C 357.58 26.83, 357.91 27.03, 358.53 27.29 C 359.16 27.54, 359.52 27.64, 360.17 27.64 C 360.83 27.65, 361.20 27.58, 361.80 27.32 C 362.40 27.06, 362.70 26.84, 363.17 26.35 C 363.64 25.85, 363.87 25.51, 364.17 24.84 C 364.47 24.17, 364.57 23.74, 364.68 23.00 C 364.79 22.27, 364.78 21.83, 364.72 21.14 C 364.66 20.45, 364.54 20.13, 364.38 19.58 C 364.21 19.03, 364.07 18.80, 363.88 18.40 C 363.70 18.00, 363.60 17.81, 363.45 17.56 C 363.30 17.30, 363.23 17.21, 363.15 17.11 C 363.06 17.00, 363.02 16.99, 363.01 17.02 C 362.99 17.05, 362.97 17.12, 363.07 17.26 C 363.16 17.41, 363.23 17.54, 363.47 17.74 C 363.70 17.93, 363.89 18.08, 364.24 18.25 C 364.59 18.42, 364.82 18.51, 365.24 18.61 C 365.66 18.70, 365.89 18.76, 366.34 18.73 C 366.80 18.71, 367.06 18.68, 367.51 18.48 C 367.95 18.27, 368.19 18.10, 368.58 17.73 C 368.96 17.36, 369.16 17.09, 369.42 16.61 C 369.69 16.13, 369.79 15.83, 369.90 15.32 C 370.01 14.81, 370.02 14.50, 369.96 14.05 C 369.89 13.60, 369.80 13.34, 369.56 13.07 C 369.33 12.81, 369.12 12.71, 368.78 12.73 C 368.44 12.75, 368.21 12.81, 367.85 13.17 C 367.49 13.52, 367.29 13.80, 366.97 14.50 C 366.66 15.19, 366.50 15.66, 366.27 16.66 C 366.04 17.66, 365.95 18.31, 365.84 19.49 C 365.74 20.68, 365.72 21.38, 365.75 22.58 C 365.77 23.78, 365.82 24.44, 365.97 25.49 C 366.12 26.55, 366.23 27.07, 366.49 27.86 C 366.75 28.64, 366.90 29.00, 367.27 29.43 C 367.63 29.86, 367.86 29.98, 368.30 30.00 C 368.74 30.02, 369.00 29.91, 369.46 29.54 C 369.92 29.16, 370.17 28.84, 370.60 28.12 C 371.03 27.39, 371.26 26.84, 371.62 25.90 C 371.98 24.97, 372.15 24.36, 372.40 23.45 C 372.66 22.54, 372.75 22.05, 372.87 21.34 C 373.00 20.63, 373.03 20.29, 373.04 19.90 C 373.04 19.52, 372.98 19.42, 372.90 19.42 C 372.82 19.41, 372.71 19.54, 372.64 19.88 C 372.56 20.22, 372.54 20.52, 372.53 21.13 C 372.51 21.75, 372.54 22.16, 372.57 22.98 C 372.59 23.80, 372.60 24.35, 372.64 25.23 C 372.68 26.11, 372.70 26.63, 372.78 27.39 C 372.86 28.15, 372.88 28.52, 373.02 29.03 C 373.16 29.55, 373.25 29.76, 373.47 29.94 C 373.70 30.13, 373.85 30.15, 374.15 29.97 C 374.44 29.79, 374.61 29.58, 374.95 29.05 C 375.28 28.53, 375.46 28.13, 375.81 27.34 C 376.16 26.56, 376.34 26.03, 376.69 25.12 C 377.04 24.22, 377.22 23.65, 377.55 22.80 C 377.87 21.96, 378.03 21.52, 378.30 20.92 C 378.58 20.32, 378.69 20.09, 378.91 19.82 C 379.14 19.54, 379.23 19.51, 379.42 19.53 C 379.62 19.56, 379.72 19.67, 379.88 19.95 C 380.03 20.23, 380.10 20.45, 380.19 20.94 C 380.28 21.43, 380.32 21.75, 380.32 22.42 C 380.31 23.09, 380.30 23.52, 380.18 24.28 C 380.05 25.05, 379.93 25.51, 379.69 26.23 C 379.44 26.96, 379.25 27.34, 378.95 27.90 C 378.65 28.46, 378.48 28.71, 378.21 29.02 C 377.94 29.33, 377.80 29.42, 377.62 29.44 C 377.44 29.45, 377.37 29.38, 377.33 29.12 C 377.28 28.85, 377.31 28.62, 377.42 28.12 C 377.52 27.62, 377.59 27.26, 377.86 26.63 C 378.14 26.00, 378.31 25.58, 378.79 24.96 C 379.27 24.35, 379.60 24.03, 380.25 23.57 C 380.89 23.11, 381.30 22.91, 382.01 22.65 C 382.72 22.39, 383.13 22.31, 383.80 22.27 C 384.47 22.23, 384.82 22.27, 385.35 22.44 C 385.87 22.61, 386.11 22.75, 386.40 23.13 C 386.69 23.50, 386.77 23.74, 386.79 24.29 C 386.82 24.85, 386.74 25.21, 386.53 25.89 C 386.32 26.58, 386.13 27.02, 385.75 27.73 C 385.38 28.44, 385.10 28.84, 384.68 29.45 C 384.25 30.06, 383.97 30.36, 383.61 30.79 C 383.26 31.22, 383.12 31.41, 382.89 31.60 C 382.67 31.78, 382.56 31.67, 382.49 31.72 C 382.41 31.78, 382.37 31.83, 382.49 31.87 C 382.61 31.91, 382.77 32.06, 383.09 31.94 C 383.41 31.81, 383.65 31.65, 384.09 31.24 C 384.53 30.83, 384.81 30.52, 385.28 29.89 C 385.75 29.26, 386.06 28.85, 386.45 28.09 C 386.84 27.33, 387.05 26.86, 387.24 26.09 C 387.44 25.32, 387.50 24.90, 387.42 24.24 C 387.34 23.58, 387.22 23.25, 386.85 22.78 C 386.47 22.30, 386.16 22.10, 385.55 21.86 C 384.93 21.63, 384.52 21.59, 383.77 21.61 C 383.01 21.64, 382.57 21.72, 381.78 21.99 C 380.99 22.26, 380.55 22.48, 379.83 22.97 C 379.11 23.47, 378.73 23.81, 378.18 24.48 C 377.64 25.15, 377.41 25.60, 377.11 26.30 C 376.81 27.01, 376.73 27.42, 376.68 28.01 C 376.63 28.61, 376.68 28.93, 376.86 29.28 C 377.05 29.64, 377.27 29.78, 377.62 29.81 C 377.96 29.84, 378.21 29.73, 378.59 29.42 C 378.98 29.11, 379.18 28.83, 379.55 28.24 C 379.91 27.66, 380.12 27.25, 380.40 26.49 C 380.69 25.72, 380.82 25.23, 380.96 24.42 C 381.10 23.60, 381.12 23.14, 381.11 22.41 C 381.10 21.68, 381.07 21.33, 380.92 20.77 C 380.76 20.21, 380.63 19.94, 380.34 19.61 C 380.05 19.29, 379.81 19.18, 379.46 19.15 C 379.11 19.13, 378.93 19.19, 378.58 19.49 C 378.24 19.78, 378.08 20.02, 377.73 20.62 C 377.38 21.23, 377.20 21.68, 376.84 22.51 C 376.47 23.35, 376.28 23.92, 375.91 24.82 C 375.54 25.71, 375.33 26.22, 375.00 26.99 C 374.67 27.77, 374.49 28.16, 374.27 28.70 C 374.04 29.23, 373.98 29.47, 373.87 29.68 C 373.76 29.89, 373.76 29.90, 373.71 29.75 C 373.65 29.60, 373.64 29.41, 373.60 28.93 C 373.56 28.45, 373.54 28.09, 373.52 27.34 C 373.49 26.59, 373.48 26.08, 373.47 25.20 C 373.45 24.33, 373.47 23.78, 373.45 22.96 C 373.43 22.14, 373.43 21.73, 373.37 21.11 C 373.32 20.49, 373.27 20.21, 373.17 19.86 C 373.08 19.52, 373.02 19.40, 372.90 19.39 C 372.78 19.38, 372.72 19.46, 372.58 19.82 C 372.45 20.18, 372.39 20.51, 372.21 21.19 C 372.02 21.87, 371.93 22.35, 371.65 23.23 C 371.37 24.11, 371.18 24.69, 370.82 25.59 C 370.47 26.49, 370.25 27.03, 369.89 27.73 C 369.54 28.43, 369.36 28.73, 369.05 29.11 C 368.73 29.49, 368.58 29.60, 368.31 29.61 C 368.03 29.61, 367.90 29.53, 367.66 29.14 C 367.41 28.76, 367.29 28.43, 367.09 27.68 C 366.89 26.93, 366.79 26.42, 366.67 25.40 C 366.55 24.38, 366.51 23.74, 366.51 22.57 C 366.50 21.41, 366.53 20.72, 366.65 19.57 C 366.76 18.42, 366.87 17.79, 367.08 16.84 C 367.29 15.89, 367.45 15.45, 367.70 14.80 C 367.95 14.15, 368.11 13.91, 368.33 13.58 C 368.56 13.26, 368.67 13.21, 368.83 13.16 C 369.00 13.12, 369.06 13.18, 369.16 13.37 C 369.25 13.56, 369.28 13.76, 369.30 14.12 C 369.31 14.48, 369.31 14.74, 369.21 15.17 C 369.11 15.60, 369.01 15.84, 368.78 16.25 C 368.55 16.66, 368.38 16.90, 368.06 17.22 C 367.75 17.54, 367.57 17.69, 367.22 17.86 C 366.87 18.02, 366.67 18.04, 366.31 18.05 C 365.96 18.06, 365.77 18.00, 365.43 17.89 C 365.10 17.78, 364.93 17.68, 364.64 17.51 C 364.34 17.34, 364.22 17.18, 363.97 17.03 C 363.71 16.88, 363.58 16.79, 363.37 16.75 C 363.15 16.72, 363.02 16.75, 362.90 16.85 C 362.78 16.94, 362.75 17.04, 362.75 17.23 C 362.76 17.42, 362.82 17.52, 362.93 17.80 C 363.05 18.09, 363.15 18.26, 363.32 18.65 C 363.48 19.04, 363.62 19.25, 363.76 19.76 C 363.90 20.27, 363.98 20.57, 364.02 21.19 C 364.06 21.82, 364.06 22.23, 363.96 22.90 C 363.86 23.57, 363.78 23.95, 363.52 24.55 C 363.26 25.15, 363.07 25.45, 362.68 25.89 C 362.28 26.32, 362.04 26.50, 361.54 26.72 C 361.04 26.94, 360.73 27.00, 360.18 26.99 C 359.63 26.98, 359.32 26.89, 358.78 26.67 C 358.25 26.45, 357.95 26.27, 357.50 25.87 C 357.04 25.47, 356.82 25.21, 356.50 24.67 C 356.19 24.13, 356.07 23.77, 355.94 23.16 C 355.81 22.55, 355.80 22.21, 355.84 21.62 C 355.89 21.03, 355.98 20.73, 356.18 20.21 C 356.39 19.69, 356.54 19.43, 356.87 19.01 C 357.20 18.60, 357.42 18.42, 357.82 18.13 C 358.22 17.85, 358.47 17.75, 358.89 17.59 C 359.31 17.42, 359.54 17.38, 359.93 17.31 C 360.32 17.24, 360.53 17.25, 360.84 17.23 C 361.15 17.21, 361.28 17.23, 361.48 17.22 C 361.67 17.20, 361.71 17.20, 361.81 17.17 C 361.92 17.13, 361.93 17.12, 362.00 17.06 C 362.07 17.00, 362.11 16.94, 362.16 16.86 C 362.21 16.79, 362.26 16.75, 362.24 16.68 C 362.21 16.61, 362.14 16.57, 362.06 16.52 C 361.97 16.47, 361.94 16.44, 361.81 16.44 C 361.68 16.43, 361.65 16.41, 361.42 16.49 C 361.19 16.57, 361.07 16.62, 360.65 16.83 C 360.23 17.05, 359.96 17.21, 359.31 17.55 C 358.67 17.89, 358.27 18.14, 357.44 18.52 C 356.61 18.90, 356.07 19.15, 355.16 19.45 C 354.25 19.75, 353.73 19.92, 352.89 20.03 C 352.05 20.14, 351.63 20.14, 350.96 20.00 C 350.29 19.86, 349.98 19.68, 349.54 19.32 C 349.09 18.97, 348.94 18.66, 348.73 18.23 C 348.53 17.80, 348.49 17.54, 348.50 17.18 C 348.51 16.81, 348.60 16.63, 348.79 16.41 C 348.98 16.19, 349.15 16.04, 349.46 16.06 C 349.77 16.08, 350.02 16.12, 350.34 16.51 C 350.66 16.90, 350.88 17.20, 351.05 18.01 C 351.22 18.83, 351.28 19.38, 351.18 20.59 C 351.08 21.81, 350.93 22.64, 350.57 24.09 C 350.21 25.54, 349.88 26.47, 349.37 27.85 C 348.85 29.22, 348.48 29.96, 347.99 30.97 C 347.50 31.98, 347.25 32.43, 346.91 32.88 C 346.57 33.33, 346.45 33.42, 346.28 33.23 C 346.11 33.04, 346.09 32.75, 346.06 31.93 C 346.03 31.12, 346.05 30.49, 346.13 29.17 C 346.21 27.84, 346.26 26.97, 346.45 25.30 C 346.64 23.62, 346.78 22.60, 347.09 20.78 C 347.40 18.97, 347.62 17.93, 347.99 16.22 C 348.36 14.51, 348.61 13.65, 348.96 12.25 C 349.31 10.86, 349.50 10.22, 349.72 9.24 C 349.94 8.26, 349.99 7.92, 350.05 7.34 C 350.12 6.76, 350.09 6.61, 350.02 6.33 C 349.95 6.05, 349.80 6.00, 349.70 5.95 C 349.59 5.89, 349.52 5.97, 349.49 6.05"/>
<path d="M 387.24,28.27 C 387.44 28.22, 387.69 28.05, 388.06 27.78 C 388.44 27.52, 388.69 27.33, 389.11 26.94 C 389.53 26.54, 389.81 26.25, 390.17 25.81 C 390.52 25.37, 390.67 25.13, 390.89 24.75 C 391.11 24.37, 391.19 24.19, 391.28 23.90 C 391.36 23.62, 391.38 23.48, 391.32 23.32 C 391.27 23.15, 391.15 23.07, 390.99 23.08 C 390.83 23.09, 390.68 23.15, 390.51 23.37 C 390.34 23.59, 390.26 23.79, 390.16 24.19 C 390.05 24.59, 390.03 24.86, 389.99 25.37 C 389.96 25.88, 389.93 26.20, 389.97 26.75 C 390.01 27.29, 390.03 27.62, 390.18 28.10 C 390.34 28.59, 390.46 28.81, 390.73 29.17 C 391.00 29.53, 391.17 29.71, 391.55 29.89 C 391.92 30.06, 392.17 30.10, 392.61 30.03 C 393.06 29.97, 393.31 29.87, 393.77 29.57 C 394.24 29.27, 394.50 29.03, 394.93 28.53 C 395.37 28.02, 395.61 27.69, 395.95 27.06 C 396.29 26.43, 396.45 26.04, 396.65 25.38 C 396.84 24.71, 396.90 24.34, 396.93 23.75 C 396.96 23.17, 396.93 22.89, 396.79 22.46 C 396.65 22.04, 396.53 21.85, 396.25 21.65 C 395.96 21.45, 395.72 21.39, 395.36 21.47 C 394.99 21.54, 394.75 21.69, 394.43 22.03 C 394.11 22.38, 393.97 22.63, 393.76 23.19 C 393.56 23.74, 393.45 24.10, 393.41 24.79 C 393.36 25.47, 393.38 25.90, 393.54 26.60 C 393.69 27.29, 393.83 27.70, 394.18 28.28 C 394.53 28.86, 394.77 29.16, 395.29 29.51 C 395.81 29.85, 396.17 29.98, 396.79 30.00 C 397.40 30.02, 397.74 29.93, 398.35 29.61 C 398.97 29.30, 399.33 29.00, 399.86 28.41 C 400.39 27.82, 400.69 27.35, 401.01 26.65 C 401.32 25.95, 401.42 25.46, 401.43 24.91 C 401.44 24.36, 401.29 24.06, 401.06 23.91 C 400.83 23.77, 400.57 23.83, 400.27 24.20 C 399.97 24.56, 399.73 24.96, 399.56 25.74 C 399.39 26.53, 399.34 27.11, 399.42 28.10 C 399.50 29.09, 399.66 29.71, 399.97 30.69 C 400.29 31.68, 400.52 32.21, 401.00 33.02 C 401.48 33.83, 401.80 34.22, 402.37 34.76 C 402.95 35.30, 403.31 35.53, 403.88 35.71 C 404.46 35.90, 404.75 35.88, 405.24 35.70 C 405.74 35.52, 405.98 35.33, 406.35 34.81 C 406.72 34.29, 406.90 33.91, 407.09 33.11 C 407.28 32.30, 407.32 31.75, 407.32 30.79 C 407.31 29.83, 407.24 29.22, 407.07 28.30 C 406.89 27.37, 406.75 26.88, 406.44 26.16 C 406.13 25.45, 405.90 25.12, 405.52 24.71 C 405.15 24.31, 404.90 24.19, 404.57 24.14 C 404.23 24.09, 404.05 24.21, 403.87 24.46 C 403.69 24.71, 403.61 24.95, 403.68 25.37 C 403.74 25.80, 403.86 26.12, 404.18 26.59 C 404.51 27.07, 404.79 27.35, 405.32 27.76 C 405.85 28.16, 406.17 28.38, 406.83 28.62 C 407.48 28.86, 407.88 28.96, 408.57 28.95 C 409.26 28.94, 409.65 28.86, 410.27 28.59 C 410.89 28.32, 411.20 28.08, 411.68 27.60 C 412.16 27.11, 412.40 26.75, 412.66 26.16 C 412.92 25.58, 413.01 25.17, 413.00 24.66 C 412.99 24.15, 412.88 23.87, 412.63 23.61 C 412.38 23.36, 412.13 23.29, 411.75 23.41 C 411.37 23.52, 411.11 23.70, 410.71 24.19 C 410.32 24.67, 410.10 25.06, 409.77 25.83 C 409.44 26.61, 409.28 27.13, 409.07 28.07 C 408.87 29.01, 408.79 29.59, 408.75 30.53 C 408.70 31.48, 408.71 31.98, 408.84 32.79 C 408.96 33.61, 409.07 34.02, 409.38 34.61 C 409.70 35.20, 409.93 35.45, 410.42 35.74 C 410.92 36.02, 411.26 36.09, 411.87 36.04 C 412.48 36.00, 412.85 35.87, 413.48 35.50 C 414.12 35.14, 414.49 34.84, 415.05 34.22 C 415.62 33.59, 415.90 33.13, 416.30 32.37 C 416.70 31.60, 416.86 31.11, 417.05 30.38 C 417.24 29.64, 417.28 29.25, 417.27 28.70 C 417.26 28.15, 417.17 27.90, 417.00 27.61 C 416.84 27.33, 416.67 27.25, 416.44 27.26 C 416.20 27.26, 416.03 27.36, 415.85 27.65 C 415.66 27.93, 415.57 28.19, 415.51 28.67 C 415.46 29.15, 415.48 29.47, 415.56 30.04 C 415.64 30.62, 415.73 30.97, 415.93 31.54 C 416.13 32.12, 416.25 32.45, 416.55 32.91 C 416.85 33.36, 417.04 33.60, 417.42 33.82 C 417.81 34.03, 418.05 34.07, 418.47 33.97 C 418.89 33.88, 419.11 33.76, 419.53 33.34 C 419.95 32.93, 420.17 32.59, 420.57 31.91 C 420.97 31.23, 421.18 30.75, 421.52 29.95 C 421.86 29.16, 422.04 28.68, 422.28 27.93 C 422.53 27.18, 422.63 26.77, 422.76 26.19 C 422.89 25.61, 422.92 25.35, 422.94 25.04 C 422.95 24.73, 422.91 24.65, 422.84 24.64 C 422.77 24.63, 422.67 24.68, 422.58 24.98 C 422.49 25.27, 422.44 25.48, 422.39 26.12 C 422.35 26.75, 422.34 27.19, 422.34 28.13 C 422.33 29.07, 422.35 29.69, 422.37 30.83 C 422.38 31.97, 422.39 32.64, 422.42 33.85 C 422.46 35.07, 422.47 35.74, 422.54 36.90 C 422.62 38.05, 422.68 38.64, 422.80 39.63 C 422.92 40.62, 423.00 41.09, 423.12 41.85 C 423.25 42.61, 423.32 42.94, 423.43 43.46 C 423.54 43.98, 423.60 44.17, 423.67 44.45 C 423.74 44.72, 423.77 44.79, 423.78 44.85 C 423.78 44.92, 423.77 44.86, 423.68 44.76 C 423.60 44.66, 423.54 44.55, 423.35 44.36 C 423.17 44.17, 423.03 44.06, 422.78 43.81 C 422.52 43.56, 422.35 43.40, 422.10 43.13 C 421.84 42.85, 421.71 42.67, 421.48 42.44 C 421.26 42.21, 421.11 42.03, 420.97 41.96 C 420.82 41.90, 420.74 41.94, 420.74 42.10 C 420.74 42.27, 420.81 42.49, 420.95 42.80 C 421.10 43.11, 421.22 43.33, 421.46 43.66 C 421.71 43.98, 421.89 44.18, 422.18 44.44 C 422.47 44.70, 422.63 44.82, 422.91 44.97 C 423.18 45.11, 423.33 45.16, 423.55 45.17 C 423.77 45.17, 423.90 45.13, 424.01 44.97 C 424.13 44.82, 424.13 44.71, 424.13 44.39 C 424.12 44.06, 424.06 43.88, 423.98 43.36 C 423.90 42.83, 423.84 42.52, 423.74 41.76 C 423.63 41.00, 423.56 40.54, 423.47 39.56 C 423.37 38.58, 423.32 38.00, 423.26 36.86 C 423.21 35.71, 423.21 35.04, 423.19 33.84 C 423.18 32.63, 423.18 31.97, 423.19 30.83 C 423.19 29.69, 423.21 29.07, 423.21 28.14 C 423.22 27.20, 423.24 26.76, 423.21 26.13 C 423.19 25.50, 423.16 25.29, 423.09 24.99 C 423.01 24.68, 422.96 24.61, 422.84 24.60 C 422.72 24.59, 422.64 24.64, 422.50 24.92 C 422.36 25.20, 422.31 25.46, 422.13 26.01 C 421.94 26.56, 421.85 26.96, 421.57 27.68 C 421.30 28.40, 421.11 28.85, 420.76 29.62 C 420.41 30.38, 420.19 30.85, 419.84 31.51 C 419.50 32.16, 419.33 32.49, 419.03 32.89 C 418.72 33.29, 418.60 33.40, 418.33 33.50 C 418.07 33.59, 417.95 33.56, 417.71 33.37 C 417.48 33.18, 417.36 32.97, 417.16 32.55 C 416.95 32.14, 416.83 31.83, 416.68 31.30 C 416.53 30.78, 416.46 30.44, 416.39 29.93 C 416.32 29.41, 416.33 29.13, 416.33 28.72 C 416.33 28.31, 416.35 28.10, 416.38 27.86 C 416.40 27.62, 416.41 27.54, 416.46 27.52 C 416.50 27.50, 416.57 27.54, 416.61 27.77 C 416.65 28.00, 416.71 28.19, 416.66 28.68 C 416.61 29.16, 416.57 29.51, 416.36 30.18 C 416.15 30.85, 416.00 31.30, 415.62 32.01 C 415.24 32.71, 414.98 33.13, 414.48 33.71 C 413.98 34.29, 413.65 34.55, 413.12 34.90 C 412.58 35.25, 412.29 35.38, 411.81 35.45 C 411.32 35.53, 411.07 35.50, 410.69 35.28 C 410.31 35.06, 410.14 34.86, 409.90 34.35 C 409.67 33.83, 409.59 33.45, 409.50 32.70 C 409.42 31.95, 409.42 31.47, 409.50 30.58 C 409.57 29.69, 409.66 29.14, 409.87 28.25 C 410.08 27.37, 410.26 26.88, 410.55 26.15 C 410.84 25.42, 411.03 25.08, 411.31 24.61 C 411.59 24.15, 411.74 23.98, 411.94 23.83 C 412.14 23.68, 412.23 23.71, 412.32 23.86 C 412.41 24.02, 412.43 24.23, 412.37 24.63 C 412.31 25.02, 412.25 25.36, 412.01 25.86 C 411.77 26.36, 411.59 26.69, 411.19 27.12 C 410.79 27.54, 410.53 27.75, 410.01 27.98 C 409.48 28.21, 409.16 28.28, 408.57 28.27 C 407.99 28.26, 407.64 28.17, 407.09 27.94 C 406.54 27.72, 406.26 27.50, 405.81 27.14 C 405.36 26.77, 405.15 26.50, 404.84 26.11 C 404.54 25.73, 404.43 25.50, 404.30 25.21 C 404.17 24.91, 404.16 24.78, 404.20 24.64 C 404.23 24.50, 404.29 24.42, 404.47 24.50 C 404.65 24.59, 404.82 24.69, 405.09 25.07 C 405.35 25.45, 405.56 25.74, 405.81 26.42 C 406.05 27.09, 406.17 27.55, 406.31 28.43 C 406.45 29.31, 406.49 29.89, 406.50 30.80 C 406.51 31.70, 406.48 32.21, 406.34 32.95 C 406.21 33.68, 406.09 34.02, 405.83 34.48 C 405.58 34.94, 405.42 35.10, 405.07 35.25 C 404.72 35.39, 404.52 35.40, 404.07 35.21 C 403.62 35.02, 403.32 34.81, 402.82 34.30 C 402.33 33.79, 402.03 33.44, 401.61 32.67 C 401.19 31.90, 400.98 31.39, 400.72 30.47 C 400.45 29.54, 400.35 28.95, 400.28 28.03 C 400.21 27.12, 400.29 26.60, 400.38 25.88 C 400.46 25.17, 400.60 24.81, 400.71 24.45 C 400.82 24.08, 400.90 24.00, 400.92 24.08 C 400.94 24.15, 400.95 24.38, 400.82 24.82 C 400.69 25.27, 400.59 25.69, 400.28 26.31 C 399.97 26.93, 399.73 27.36, 399.28 27.91 C 398.82 28.45, 398.52 28.73, 398.03 29.03 C 397.53 29.33, 397.28 29.41, 396.80 29.41 C 396.32 29.40, 396.05 29.29, 395.64 29.00 C 395.24 28.70, 395.05 28.45, 394.78 27.94 C 394.51 27.43, 394.40 27.06, 394.28 26.44 C 394.16 25.82, 394.14 25.44, 394.19 24.84 C 394.23 24.24, 394.33 23.91, 394.49 23.44 C 394.64 22.97, 394.75 22.76, 394.96 22.47 C 395.16 22.18, 395.30 22.06, 395.51 21.97 C 395.71 21.88, 395.83 21.88, 395.98 22.01 C 396.13 22.13, 396.19 22.26, 396.25 22.60 C 396.31 22.94, 396.32 23.19, 396.26 23.70 C 396.20 24.21, 396.14 24.56, 395.94 25.16 C 395.75 25.75, 395.59 26.11, 395.27 26.68 C 394.95 27.25, 394.72 27.56, 394.34 28.02 C 393.96 28.48, 393.73 28.71, 393.36 28.99 C 393.00 29.27, 392.82 29.36, 392.51 29.44 C 392.19 29.52, 392.04 29.50, 391.79 29.38 C 391.53 29.25, 391.42 29.11, 391.23 28.82 C 391.05 28.52, 390.95 28.34, 390.86 27.92 C 390.76 27.50, 390.76 27.21, 390.76 26.72 C 390.76 26.22, 390.79 25.91, 390.84 25.44 C 390.89 24.97, 390.95 24.73, 391.01 24.37 C 391.07 24.00, 391.11 23.85, 391.13 23.63 C 391.15 23.42, 391.14 23.36, 391.11 23.30 C 391.08 23.23, 391.06 23.23, 391.00 23.30 C 390.93 23.38, 390.91 23.47, 390.77 23.68 C 390.64 23.90, 390.58 24.06, 390.34 24.38 C 390.09 24.70, 389.92 24.89, 389.56 25.29 C 389.20 25.68, 388.92 25.95, 388.53 26.35 C 388.15 26.76, 387.92 26.96, 387.62 27.29 C 387.32 27.63, 387.12 27.85, 387.04 28.04 C 386.96 28.24, 387.03 28.32, 387.24 28.27"/>
<path d="M 426.46,33.53 C 426.62 33.54, 426.78 33.48, 427.08 33.34 C 427.37 33.19, 427.57 33.06, 427.94 32.80 C 428.31 32.55, 428.55 32.37, 428.92 32.07 C 429.29 31.76, 429.49 31.59, 429.79 31.27 C 430.08 30.96, 430.21 30.80, 430.40 30.49 C 430.59 30.18, 430.68 30.00, 430.73 29.72 C 430.78 29.44, 430.78 29.27, 430.65 29.07 C 430.52 28.87, 430.37 28.75, 430.10 28.73 C 429.82 28.72, 429.60 28.74, 429.26 28.99 C 428.92 29.25, 428.71 29.47, 428.38 30.01 C 428.05 30.55, 427.87 30.91, 427.62 31.70 C 427.36 32.50, 427.22 33.01, 427.10 33.97 C 426.98 34.93, 426.95 35.51, 427.01 36.49 C 427.08 37.48, 427.18 38.02, 427.42 38.92 C 427.66 39.81, 427.83 40.27, 428.20 40.96 C 428.58 41.65, 428.82 41.94, 429.29 42.35 C 429.76 42.76, 430.05 42.91, 430.55 42.99 C 431.06 43.07, 431.32 43.02, 431.80 42.75 C 432.29 42.47, 432.56 42.22, 432.97 41.63 C 433.38 41.04, 433.58 40.62, 433.86 39.78 C 434.14 38.94, 434.24 38.41, 434.36 37.44 C 434.48 36.47, 434.51 35.90, 434.47 34.95 C 434.44 33.99, 434.36 33.47, 434.19 32.67 C 434.03 31.87, 433.89 31.48, 433.65 30.94 C 433.41 30.40, 433.25 30.20, 432.99 29.97 C 432.73 29.75, 432.55 29.74, 432.35 29.81 C 432.15 29.87, 432.05 30.01, 431.99 30.28 C 431.93 30.55, 431.94 30.78, 432.05 31.16 C 432.16 31.54, 432.28 31.78, 432.56 32.17 C 432.85 32.57, 433.06 32.80, 433.48 33.11 C 433.90 33.43, 434.17 33.58, 434.65 33.74 C 435.13 33.89, 435.40 33.92, 435.87 33.90 C 436.34 33.88, 436.61 33.82, 437.00 33.64 C 437.39 33.46, 437.59 33.30, 437.83 32.98 C 438.06 32.66, 438.13 32.42, 438.17 32.05 C 438.22 31.68, 438.18 31.45, 438.06 31.11 C 437.93 30.78, 437.82 30.60, 437.56 30.37 C 437.30 30.13, 437.09 29.98, 436.76 29.95 C 436.44 29.91, 436.08 30.07, 435.92 30.18 C 435.76 30.30, 435.82 30.46, 435.96 30.54 C 436.11 30.62, 436.42 30.52, 436.66 30.58 C 436.89 30.64, 436.97 30.68, 437.13 30.83 C 437.29 30.98, 437.36 31.10, 437.45 31.33 C 437.53 31.56, 437.57 31.72, 437.55 31.98 C 437.52 32.24, 437.50 32.40, 437.33 32.62 C 437.17 32.83, 437.04 32.94, 436.74 33.06 C 436.45 33.18, 436.23 33.23, 435.86 33.24 C 435.48 33.24, 435.26 33.22, 434.88 33.08 C 434.50 32.93, 434.28 32.79, 433.95 32.51 C 433.62 32.23, 433.47 32.02, 433.23 31.69 C 433.00 31.36, 432.93 31.15, 432.79 30.87 C 432.64 30.59, 432.57 30.44, 432.50 30.27 C 432.42 30.10, 432.38 30.03, 432.42 30.03 C 432.45 30.03, 432.53 30.03, 432.67 30.26 C 432.80 30.48, 432.92 30.65, 433.09 31.16 C 433.26 31.67, 433.38 32.04, 433.51 32.80 C 433.64 33.56, 433.71 34.06, 433.73 34.96 C 433.74 35.87, 433.71 36.42, 433.59 37.34 C 433.46 38.25, 433.36 38.76, 433.11 39.54 C 432.87 40.32, 432.69 40.70, 432.37 41.24 C 432.05 41.79, 431.85 42.02, 431.50 42.27 C 431.15 42.52, 431.00 42.57, 430.64 42.50 C 430.27 42.44, 430.05 42.30, 429.68 41.93 C 429.31 41.56, 429.09 41.30, 428.78 40.66 C 428.46 40.02, 428.31 39.58, 428.11 38.74 C 427.90 37.90, 427.81 37.39, 427.76 36.45 C 427.72 35.52, 427.76 34.98, 427.89 34.08 C 428.01 33.18, 428.16 32.69, 428.39 31.96 C 428.63 31.22, 428.81 30.90, 429.08 30.41 C 429.34 29.92, 429.51 29.75, 429.72 29.51 C 429.94 29.27, 430.03 29.26, 430.14 29.21 C 430.25 29.16, 430.28 29.18, 430.29 29.25 C 430.30 29.33, 430.28 29.39, 430.19 29.57 C 430.11 29.74, 430.05 29.90, 429.87 30.14 C 429.69 30.38, 429.59 30.52, 429.30 30.77 C 429.01 31.03, 428.79 31.15, 428.42 31.42 C 428.05 31.69, 427.79 31.86, 427.44 32.13 C 427.10 32.41, 426.93 32.58, 426.70 32.81 C 426.47 33.05, 426.35 33.15, 426.31 33.30 C 426.26 33.44, 426.31 33.52, 426.46 33.53"/>
<path d="M 435.71,33.80 C 435.63 34.02, 435.61 34.29, 435.59 34.89 C 435.57 35.49, 435.56 35.90, 435.60 36.81 C 435.65 37.72, 435.72 38.31, 435.82 39.44 C 435.91 40.57, 435.99 41.19, 436.08 42.48 C 436.17 43.77, 436.22 44.47, 436.25 45.90 C 436.28 47.32, 436.29 48.11, 436.23 49.61 C 436.17 51.11, 436.12 51.93, 435.96 53.38 C 435.80 54.83, 435.68 55.60, 435.44 56.86 C 435.20 58.12, 435.03 58.75, 434.76 59.70 C 434.48 60.65, 434.32 61.07, 434.05 61.63 C 433.79 62.18, 433.64 62.36, 433.43 62.49 C 433.22 62.62, 433.13 62.58, 432.98 62.29 C 432.84 61.99, 432.77 61.72, 432.70 61.01 C 432.63 60.31, 432.58 59.82, 432.65 58.75 C 432.72 57.69, 432.75 57.03, 433.05 55.67 C 433.34 54.32, 433.60 53.51, 434.13 51.98 C 434.65 50.46, 435.00 49.61, 435.67 48.05 C 436.34 46.49, 436.73 45.69, 437.47 44.20 C 438.22 42.71, 438.66 41.96, 439.42 40.59 C 440.18 39.23, 440.56 38.55, 441.27 37.36 C 441.98 36.18, 442.33 35.63, 442.97 34.67 C 443.60 33.71, 443.91 33.29, 444.44 32.56 C 444.98 31.83, 445.22 31.53, 445.65 31.02 C 446.07 30.51, 446.27 30.32, 446.57 29.99 C 446.87 29.66, 446.99 29.57, 447.15 29.37 C 447.32 29.17, 447.37 29.12, 447.38 28.99 C 447.38 28.87, 447.33 28.78, 447.18 28.76 C 447.04 28.75, 446.90 28.76, 446.66 28.91 C 446.42 29.07, 446.28 29.18, 445.99 29.55 C 445.69 29.92, 445.50 30.17, 445.16 30.77 C 444.83 31.36, 444.61 31.75, 444.31 32.52 C 444.01 33.29, 443.83 33.76, 443.66 34.62 C 443.48 35.48, 443.41 35.99, 443.43 36.82 C 443.44 37.66, 443.50 38.12, 443.72 38.79 C 443.95 39.47, 444.13 39.79, 444.54 40.21 C 444.96 40.62, 445.26 40.77, 445.80 40.86 C 446.34 40.94, 446.68 40.88, 447.25 40.63 C 447.82 40.37, 448.13 40.12, 448.63 39.57 C 449.12 39.03, 449.39 38.64, 449.72 37.90 C 450.05 37.17, 450.19 36.70, 450.28 35.91 C 450.37 35.12, 450.32 34.68, 450.16 33.97 C 450.00 33.25, 449.79 32.90, 449.48 32.33 C 449.18 31.76, 448.95 31.51, 448.61 31.12 C 448.27 30.73, 448.04 30.57, 447.77 30.38 C 447.51 30.19, 447.36 30.17, 447.28 30.17 C 447.20 30.16, 447.19 30.24, 447.36 30.35 C 447.53 30.45, 447.70 30.56, 448.15 30.68 C 448.59 30.81, 448.93 30.88, 449.59 30.98 C 450.26 31.08, 450.70 31.12, 451.49 31.17 C 452.28 31.22, 452.75 31.26, 453.56 31.23 C 454.37 31.19, 454.81 31.16, 455.54 31.00 C 456.27 30.85, 456.64 30.72, 457.22 30.44 C 457.80 30.17, 458.07 29.99, 458.46 29.64 C 458.85 29.29, 459.02 29.07, 459.18 28.68 C 459.34 28.30, 459.36 28.05, 459.26 27.72 C 459.16 27.39, 459.01 27.21, 458.68 27.05 C 458.35 26.89, 458.10 26.83, 457.61 26.93 C 457.12 27.03, 456.79 27.15, 456.24 27.54 C 455.70 27.94, 455.36 28.24, 454.87 28.89 C 454.38 29.54, 454.13 29.97, 453.79 30.79 C 453.46 31.61, 453.31 32.10, 453.19 32.99 C 453.07 33.88, 453.07 34.38, 453.19 35.23 C 453.32 36.08, 453.47 36.53, 453.84 37.24 C 454.21 37.95, 454.47 38.28, 455.04 38.77 C 455.62 39.25, 456.00 39.45, 456.70 39.67 C 457.41 39.89, 457.83 39.93, 458.59 39.87 C 459.35 39.81, 459.75 39.68, 460.50 39.36 C 461.26 39.04, 461.68 38.79, 462.37 38.27 C 463.06 37.75, 463.39 37.40, 463.96 36.76 C 464.53 36.11, 464.78 35.73, 465.21 35.04 C 465.63 34.36, 465.81 33.98, 466.10 33.33 C 466.38 32.69, 466.48 32.34, 466.63 31.81 C 466.78 31.27, 466.79 31.03, 466.83 30.66 C 466.87 30.28, 466.86 30.13, 466.83 29.93 C 466.80 29.72, 466.75 29.65, 466.69 29.62 C 466.64 29.58, 466.58 29.64, 466.57 29.74 C 466.56 29.83, 466.56 29.90, 466.64 30.09 C 466.72 30.28, 466.81 30.38, 466.98 30.68 C 467.15 30.97, 467.29 31.13, 467.49 31.55 C 467.69 31.97, 467.79 32.21, 467.97 32.77 C 468.15 33.34, 468.23 33.70, 468.37 34.37 C 468.50 35.04, 468.56 35.44, 468.64 36.13 C 468.71 36.82, 468.74 37.19, 468.74 37.82 C 468.73 38.45, 468.71 38.77, 468.61 39.27 C 468.51 39.77, 468.46 39.99, 468.24 40.33 C 468.01 40.66, 467.85 40.77, 467.47 40.95 C 467.09 41.13, 466.83 41.18, 466.32 41.22 C 465.81 41.26, 465.49 41.22, 464.91 41.15 C 464.34 41.08, 463.97 41.03, 463.46 40.88 C 462.94 40.73, 462.68 40.60, 462.35 40.41 C 462.02 40.22, 461.91 40.14, 461.80 39.94 C 461.69 39.73, 461.86 39.50, 461.82 39.38 C 461.77 39.26, 461.66 39.20, 461.58 39.34 C 461.49 39.48, 461.31 39.77, 461.39 40.09 C 461.47 40.40, 461.62 40.62, 461.99 40.92 C 462.36 41.22, 462.66 41.39, 463.23 41.59 C 463.79 41.79, 464.19 41.85, 464.83 41.92 C 465.46 41.98, 465.81 42.01, 466.40 41.92 C 466.98 41.84, 467.29 41.75, 467.75 41.49 C 468.21 41.24, 468.41 41.07, 468.70 40.65 C 469.00 40.23, 469.08 39.97, 469.22 39.41 C 469.37 38.85, 469.40 38.51, 469.43 37.84 C 469.46 37.17, 469.44 36.78, 469.38 36.05 C 469.32 35.33, 469.27 34.92, 469.13 34.22 C 469.00 33.52, 468.90 33.14, 468.72 32.54 C 468.54 31.94, 468.42 31.68, 468.21 31.22 C 468.01 30.76, 467.90 30.55, 467.70 30.23 C 467.50 29.92, 467.39 29.79, 467.21 29.64 C 467.02 29.49, 466.93 29.49, 466.78 29.48 C 466.64 29.46, 466.57 29.48, 466.49 29.56 C 466.41 29.65, 466.41 29.71, 466.37 29.91 C 466.33 30.11, 466.35 30.23, 466.28 30.57 C 466.21 30.92, 466.19 31.13, 466.03 31.63 C 465.87 32.12, 465.76 32.45, 465.48 33.06 C 465.20 33.66, 465.03 34.03, 464.62 34.67 C 464.21 35.32, 463.96 35.68, 463.43 36.29 C 462.89 36.89, 462.57 37.21, 461.93 37.69 C 461.29 38.18, 460.91 38.42, 460.23 38.72 C 459.55 39.02, 459.19 39.14, 458.53 39.21 C 457.86 39.28, 457.51 39.24, 456.89 39.05 C 456.28 38.87, 455.95 38.71, 455.45 38.28 C 454.96 37.86, 454.73 37.58, 454.41 36.95 C 454.10 36.32, 453.98 35.90, 453.87 35.13 C 453.77 34.36, 453.78 33.90, 453.90 33.09 C 454.03 32.28, 454.17 31.83, 454.49 31.08 C 454.81 30.34, 455.06 29.95, 455.50 29.37 C 455.95 28.79, 456.26 28.53, 456.71 28.18 C 457.17 27.82, 457.43 27.72, 457.79 27.59 C 458.14 27.46, 458.29 27.48, 458.50 27.53 C 458.70 27.58, 458.77 27.66, 458.81 27.84 C 458.84 28.03, 458.83 28.18, 458.68 28.45 C 458.53 28.72, 458.41 28.90, 458.06 29.18 C 457.72 29.47, 457.49 29.63, 456.96 29.86 C 456.42 30.08, 456.09 30.20, 455.40 30.32 C 454.72 30.45, 454.31 30.47, 453.54 30.47 C 452.77 30.48, 452.32 30.42, 451.56 30.35 C 450.79 30.27, 450.37 30.19, 449.72 30.10 C 449.07 30.01, 448.75 29.93, 448.29 29.89 C 447.82 29.86, 447.63 29.85, 447.39 29.92 C 447.15 29.99, 447.09 30.08, 447.09 30.25 C 447.09 30.42, 447.18 30.53, 447.38 30.79 C 447.59 31.05, 447.81 31.17, 448.11 31.54 C 448.42 31.91, 448.63 32.13, 448.90 32.64 C 449.18 33.16, 449.36 33.47, 449.50 34.11 C 449.63 34.75, 449.67 35.13, 449.57 35.82 C 449.48 36.52, 449.33 36.94, 449.03 37.59 C 448.73 38.24, 448.48 38.59, 448.07 39.09 C 447.66 39.58, 447.40 39.81, 446.96 40.05 C 446.52 40.30, 446.28 40.36, 445.87 40.32 C 445.47 40.27, 445.25 40.16, 444.94 39.82 C 444.64 39.48, 444.50 39.21, 444.34 38.61 C 444.18 38.01, 444.13 37.59, 444.15 36.82 C 444.16 36.06, 444.22 35.58, 444.41 34.78 C 444.59 33.98, 444.77 33.54, 445.07 32.82 C 445.36 32.10, 445.57 31.73, 445.89 31.18 C 446.21 30.63, 446.40 30.41, 446.65 30.06 C 446.90 29.70, 447.01 29.63, 447.15 29.42 C 447.29 29.22, 447.33 29.13, 447.35 29.02 C 447.36 28.90, 447.31 28.84, 447.21 28.85 C 447.10 28.85, 447.03 28.88, 446.83 29.03 C 446.62 29.19, 446.51 29.30, 446.18 29.62 C 445.86 29.95, 445.65 30.13, 445.21 30.65 C 444.76 31.16, 444.51 31.46, 443.96 32.20 C 443.40 32.93, 443.09 33.35, 442.44 34.32 C 441.79 35.28, 441.43 35.83, 440.70 37.02 C 439.98 38.21, 439.59 38.89, 438.82 40.26 C 438.04 41.63, 437.61 42.38, 436.84 43.88 C 436.08 45.38, 435.68 46.18, 434.99 47.75 C 434.30 49.32, 433.94 50.18, 433.39 51.73 C 432.85 53.28, 432.58 54.11, 432.27 55.50 C 431.96 56.90, 431.89 57.58, 431.84 58.71 C 431.78 59.83, 431.83 60.35, 431.99 61.12 C 432.15 61.89, 432.32 62.21, 432.64 62.54 C 432.95 62.87, 433.19 62.92, 433.56 62.79 C 433.94 62.66, 434.15 62.46, 434.51 61.88 C 434.87 61.30, 435.04 60.86, 435.36 59.89 C 435.68 58.91, 435.85 58.28, 436.11 56.99 C 436.37 55.71, 436.50 54.94, 436.67 53.46 C 436.84 51.99, 436.90 51.16, 436.96 49.64 C 437.03 48.12, 437.01 47.32, 436.99 45.88 C 436.96 44.44, 436.90 43.74, 436.83 42.43 C 436.76 41.13, 436.71 40.51, 436.62 39.38 C 436.53 38.24, 436.48 37.66, 436.40 36.75 C 436.32 35.85, 436.29 35.45, 436.21 34.86 C 436.12 34.26, 436.08 34.00, 435.98 33.79 C 435.88 33.58, 435.78 33.58, 435.71 33.80"/>
</svg>
