<svg xmlns="http://www.w3.org/2000/svg" viewBox="0 0 438.9 67.2" fill="currentColor" stroke="none" role="img">
<path d="M 15.25,20.24 C 15.13 20.16, 14.96 20.13, 14.66 20.13 C 14.36 20.13, 14.19 20.16, 13.76 20.26 C 13.32 20.36, 13.03 20.38, 12.49 20.63 C 11.95 20.87, 11.65 21.01, 11.04 21.49 C 10.43 21.96, 10.07 22.26, 9.45 23.01 C 8.83 23.77, 8.48 24.26, 7.93 25.26 C 7.37 26.26, 7.07 26.88, 6.67 28.00 C 6.27 29.12, 6.11 29.76, 5.91 30.85 C 5.71 31.94, 5.67 32.52, 5.67 33.45 C 5.67 34.38, 5.73 34.83, 5.91 35.50 C 6.10 36.18, 6.27 36.44, 6.61 36.81 C 6.95 37.18, 7.18 37.29, 7.61 37.35 C 8.04 37.41, 8.30 37.37, 8.77 37.10 C 9.23 36.82, 9.48 36.58, 9.95 35.97 C 10.41 35.36, 10.64 34.96, 11.08 34.05 C 11.53 33.14, 11.75 32.56, 12.15 31.42 C 12.56 30.27, 12.73 29.55, 13.09 28.31 C 13.45 27.07, 13.63 26.39, 13.96 25.22 C 14.29 24.04, 14.46 23.41, 14.73 22.45 C 15.00 21.49, 15.12 21.00, 15.30 20.41 C 15.47 19.83, 15.52 19.63, 15.61 19.53 C 15.70 19.44, 15.69 19.54, 15.74 19.95 C 15.80 20.37, 15.80 20.75, 15.88 21.62 C 15.96 22.49, 16.03 23.13, 16.14 24.30 C 16.26 25.48, 16.34 26.22, 16.48 27.50 C 16.62 28.78, 16.70 29.51, 16.85 30.71 C 17.01 31.91, 17.09 32.51, 17.26 33.50 C 17.44 34.49, 17.52 34.95, 17.72 35.65 C 17.93 36.36, 18.03 36.64, 18.30 37.03 C 18.57 37.41, 18.73 37.52, 19.07 37.58 C 19.41 37.64, 19.67 37.53, 20.02 37.32 C 20.36 37.11, 20.58 36.88, 20.80 36.52 C 21.03 36.17, 21.13 35.78, 21.14 35.55 C 21.14 35.32, 21.02 35.27, 20.83 35.37 C 20.64 35.48, 20.42 35.79, 20.18 36.08 C 19.94 36.37, 19.85 36.61, 19.64 36.84 C 19.43 37.06, 19.31 37.22, 19.12 37.21 C 18.93 37.20, 18.85 37.13, 18.69 36.79 C 18.52 36.45, 18.45 36.18, 18.30 35.50 C 18.14 34.82, 18.06 34.37, 17.92 33.40 C 17.78 32.42, 17.71 31.82, 17.58 30.62 C 17.45 29.43, 17.39 28.70, 17.28 27.42 C 17.17 26.14, 17.14 25.40, 17.03 24.21 C 16.91 23.03, 16.86 22.39, 16.69 21.51 C 16.53 20.63, 16.42 20.23, 16.19 19.80 C 15.95 19.37, 15.80 19.26, 15.52 19.34 C 15.24 19.43, 15.08 19.63, 14.79 20.21 C 14.50 20.79, 14.38 21.30, 14.07 22.26 C 13.76 23.22, 13.60 23.85, 13.26 25.01 C 12.91 26.18, 12.72 26.86, 12.35 28.09 C 11.98 29.32, 11.80 30.03, 11.40 31.15 C 11.00 32.28, 10.78 32.83, 10.37 33.71 C 9.96 34.58, 9.73 34.96, 9.34 35.54 C 8.96 36.12, 8.77 36.33, 8.43 36.61 C 8.10 36.88, 7.95 36.92, 7.66 36.90 C 7.37 36.88, 7.22 36.81, 6.98 36.50 C 6.75 36.19, 6.61 35.97, 6.48 35.36 C 6.35 34.75, 6.30 34.33, 6.33 33.46 C 6.36 32.58, 6.40 32.03, 6.61 30.99 C 6.82 29.95, 6.98 29.33, 7.38 28.26 C 7.78 27.19, 8.08 26.59, 8.61 25.64 C 9.14 24.69, 9.47 24.21, 10.04 23.50 C 10.62 22.79, 10.95 22.51, 11.50 22.07 C 12.05 21.63, 12.31 21.53, 12.80 21.32 C 13.29 21.10, 13.56 21.11, 13.95 20.99 C 14.34 20.87, 14.49 20.82, 14.76 20.72 C 15.02 20.63, 15.18 20.62, 15.28 20.52 C 15.38 20.43, 15.38 20.32, 15.25 20.24"/>
<path d="M 37.54,6.01 C 37.47 6.13, 37.46 6.20, 37.43 6.59 C 37.39 6.98, 37.39 7.22, 37.37 7.95 C 37.36 8.68, 37.37 9.13, 37.36 10.23 C 37.34 11.32, 37.33 11.98, 37.30 13.43 C 37.28 14.87, 37.28 15.72, 37.24 17.44 C 37.21 19.16, 37.17 20.15, 37.14 22.02 C 37.11 23.89, 37.12 24.95, 37.11 26.79 C 37.10 28.63, 37.08 29.61, 37.09 31.22 C 37.10 32.83, 37.11 33.61, 37.18 34.83 C 37.24 36.05, 37.30 36.56, 37.43 37.34 C 37.56 38.12, 37.62 38.38, 37.83 38.71 C 38.04 39.04, 38.18 39.11, 38.48 38.99 C 38.77 38.86, 38.96 38.69, 39.29 38.09 C 39.61 37.49, 39.77 37.02, 40.11 36.00 C 40.44 34.99, 40.61 34.31, 40.98 33.01 C 41.34 31.71, 41.54 30.90, 41.94 29.51 C 42.34 28.13, 42.57 27.34, 42.98 26.10 C 43.38 24.85, 43.60 24.24, 43.98 23.27 C 44.35 22.30, 44.54 21.89, 44.85 21.26 C 45.16 20.64, 45.30 20.40, 45.52 20.14 C 45.74 19.89, 45.82 19.83, 45.96 19.98 C 46.10 20.12, 46.13 20.29, 46.23 20.86 C 46.33 21.44, 46.37 21.85, 46.46 22.83 C 46.54 23.81, 46.58 24.48, 46.64 25.74 C 46.70 27.00, 46.72 27.77, 46.75 29.12 C 46.78 30.48, 46.75 31.24, 46.77 32.50 C 46.79 33.77, 46.81 34.43, 46.86 35.44 C 46.91 36.46, 46.94 36.92, 47.02 37.57 C 47.11 38.22, 47.18 38.40, 47.28 38.70 C 47.37 39.01, 47.41 39.03, 47.48 39.10 C 47.54 39.18, 47.57 39.17, 47.59 39.08 C 47.62 38.99, 47.60 38.96, 47.59 38.65 C 47.59 38.35, 47.59 38.18, 47.58 37.53 C 47.57 36.88, 47.54 36.43, 47.52 35.42 C 47.51 34.42, 47.50 33.76, 47.50 32.50 C 47.51 31.24, 47.54 30.47, 47.54 29.12 C 47.54 27.76, 47.53 26.98, 47.48 25.71 C 47.43 24.43, 47.42 23.75, 47.29 22.74 C 47.17 21.74, 47.09 21.30, 46.86 20.69 C 46.63 20.08, 46.46 19.88, 46.14 19.71 C 45.82 19.54, 45.62 19.59, 45.26 19.85 C 44.90 20.10, 44.73 20.36, 44.36 20.99 C 43.98 21.63, 43.79 22.05, 43.37 23.03 C 42.96 24.00, 42.73 24.61, 42.29 25.86 C 41.85 27.11, 41.61 27.90, 41.18 29.29 C 40.76 30.67, 40.54 31.49, 40.16 32.78 C 39.78 34.07, 39.58 34.73, 39.28 35.74 C 38.98 36.75, 38.85 37.22, 38.66 37.82 C 38.47 38.42, 38.43 38.61, 38.32 38.76 C 38.22 38.91, 38.20 38.87, 38.12 38.57 C 38.05 38.28, 38.02 38.03, 37.96 37.27 C 37.89 36.52, 37.84 36.01, 37.80 34.80 C 37.77 33.59, 37.78 32.82, 37.78 31.22 C 37.79 29.62, 37.82 28.63, 37.85 26.79 C 37.87 24.96, 37.87 23.90, 37.90 22.03 C 37.94 20.17, 37.99 19.17, 38.03 17.45 C 38.07 15.74, 38.07 14.88, 38.10 13.44 C 38.13 12.00, 38.17 11.34, 38.18 10.24 C 38.19 9.14, 38.19 8.67, 38.15 7.94 C 38.11 7.20, 38.06 6.95, 37.98 6.56 C 37.90 6.17, 37.86 6.10, 37.77 5.99 C 37.69 5.88, 37.61 5.89, 37.54 6.01"/>
<path d="M 47.89,10.69 C 47.89 10.62, 47.83 10.60, 47.78 10.65 C 47.74 10.71, 47.66 10.90, 47.66 10.97 C 47.65 11.04, 47.71 11.07, 47.76 11.01 C 47.80 10.96, 47.88 10.77, 47.89 10.69"/>
<path d="M 54.20,19.60 C 54.14 19.76, 54.15 19.90, 54.15 20.37 C 54.15 20.84, 54.16 21.16, 54.20 21.94 C 54.24 22.71, 54.31 23.22, 54.36 24.25 C 54.41 25.29, 54.44 25.94, 54.46 27.12 C 54.48 28.30, 54.46 28.98, 54.45 30.17 C 54.44 31.37, 54.42 32.04, 54.41 33.10 C 54.40 34.17, 54.37 34.73, 54.40 35.51 C 54.42 36.28, 54.43 36.60, 54.53 36.97 C 54.63 37.34, 54.72 37.43, 54.90 37.35 C 55.08 37.26, 55.20 37.11, 55.41 36.55 C 55.63 35.98, 55.74 35.52, 55.97 34.53 C 56.20 33.54, 56.28 32.85, 56.57 31.60 C 56.86 30.36, 57.02 29.59, 57.40 28.30 C 57.78 27.02, 58.04 26.30, 58.47 25.19 C 58.89 24.09, 59.12 23.56, 59.53 22.78 C 59.93 22.00, 60.15 21.71, 60.50 21.28 C 60.85 20.84, 61.02 20.72, 61.29 20.61 C 61.55 20.50, 61.61 20.48, 61.82 20.72 C 62.02 20.96, 62.11 21.18, 62.30 21.81 C 62.49 22.44, 62.57 22.88, 62.75 23.88 C 62.93 24.88, 63.02 25.55, 63.20 26.80 C 63.37 28.04, 63.44 28.81, 63.61 30.12 C 63.77 31.43, 63.86 32.17, 64.01 33.36 C 64.17 34.56, 64.22 35.15, 64.39 36.09 C 64.56 37.03, 64.63 37.43, 64.86 38.06 C 65.09 38.70, 65.21 38.95, 65.53 39.28 C 65.85 39.62, 66.03 39.73, 66.44 39.72 C 66.86 39.72, 67.13 39.65, 67.62 39.28 C 68.11 38.91, 68.36 38.63, 68.89 37.89 C 69.41 37.15, 69.68 36.65, 70.24 35.58 C 70.79 34.50, 71.10 33.81, 71.66 32.49 C 72.21 31.17, 72.49 30.39, 73.00 28.97 C 73.51 27.55, 73.79 26.75, 74.20 25.40 C 74.62 24.05, 74.83 23.33, 75.08 22.20 C 75.34 21.08, 75.42 20.55, 75.47 19.78 C 75.51 19.00, 75.47 18.70, 75.30 18.32 C 75.12 17.94, 74.94 17.84, 74.58 17.90 C 74.23 17.95, 73.95 18.08, 73.51 18.58 C 73.07 19.08, 72.81 19.47, 72.38 20.40 C 71.96 21.32, 71.73 21.95, 71.38 23.23 C 71.03 24.51, 70.85 25.31, 70.64 26.80 C 70.42 28.29, 70.33 29.17, 70.29 30.67 C 70.26 32.17, 70.30 32.99, 70.47 34.31 C 70.64 35.64, 70.77 36.29, 71.15 37.30 C 71.53 38.31, 71.80 38.72, 72.37 39.35 C 72.94 39.97, 73.29 40.17, 74.00 40.42 C 74.71 40.68, 75.11 40.69, 75.92 40.61 C 76.73 40.52, 77.20 40.38, 78.04 40.01 C 78.88 39.64, 79.36 39.30, 80.11 38.75 C 80.85 38.20, 81.23 37.80, 81.77 37.24 C 82.30 36.69, 82.60 36.26, 82.77 35.97 C 82.93 35.68, 82.86 35.62, 82.57 35.78 C 82.29 35.94, 81.92 36.31, 81.34 36.78 C 80.75 37.25, 80.37 37.61, 79.65 38.12 C 78.93 38.64, 78.49 38.97, 77.73 39.34 C 76.97 39.71, 76.55 39.86, 75.84 39.98 C 75.13 40.09, 74.79 40.11, 74.17 39.91 C 73.56 39.71, 73.27 39.55, 72.78 38.99 C 72.29 38.42, 72.06 38.04, 71.73 37.09 C 71.41 36.14, 71.29 35.51, 71.15 34.23 C 71.02 32.95, 70.99 32.16, 71.04 30.69 C 71.09 29.23, 71.19 28.37, 71.42 26.92 C 71.65 25.47, 71.83 24.68, 72.18 23.44 C 72.52 22.21, 72.77 21.62, 73.14 20.73 C 73.51 19.84, 73.74 19.49, 74.05 18.98 C 74.35 18.48, 74.49 18.31, 74.68 18.20 C 74.86 18.09, 74.92 18.12, 74.96 18.43 C 75.01 18.73, 75.01 19.00, 74.90 19.72 C 74.80 20.44, 74.71 20.95, 74.43 22.05 C 74.15 23.14, 73.94 23.85, 73.51 25.18 C 73.08 26.51, 72.80 27.31, 72.28 28.71 C 71.77 30.11, 71.48 30.88, 70.92 32.18 C 70.37 33.48, 70.05 34.15, 69.51 35.21 C 68.98 36.26, 68.70 36.73, 68.24 37.45 C 67.78 38.17, 67.57 38.43, 67.20 38.80 C 66.84 39.17, 66.69 39.26, 66.42 39.30 C 66.15 39.34, 66.07 39.28, 65.86 39.00 C 65.65 38.72, 65.56 38.50, 65.39 37.90 C 65.22 37.29, 65.15 36.91, 65.02 35.99 C 64.89 35.06, 64.85 34.47, 64.73 33.28 C 64.60 32.09, 64.53 31.35, 64.39 30.03 C 64.24 28.71, 64.18 27.95, 64.02 26.69 C 63.85 25.42, 63.78 24.75, 63.57 23.72 C 63.36 22.70, 63.26 22.23, 62.97 21.57 C 62.68 20.90, 62.47 20.65, 62.11 20.39 C 61.75 20.12, 61.57 20.14, 61.16 20.25 C 60.76 20.35, 60.55 20.48, 60.11 20.93 C 59.67 21.38, 59.44 21.68, 58.98 22.48 C 58.52 23.28, 58.27 23.81, 57.80 24.93 C 57.33 26.04, 57.05 26.77, 56.64 28.07 C 56.23 29.36, 56.04 30.15, 55.73 31.40 C 55.42 32.66, 55.28 33.34, 55.09 34.34 C 54.90 35.34, 54.84 35.81, 54.78 36.40 C 54.72 36.98, 54.76 37.15, 54.78 37.26 C 54.81 37.37, 54.86 37.29, 54.92 36.94 C 54.97 36.60, 55.00 36.28, 55.04 35.51 C 55.09 34.75, 55.09 34.18, 55.12 33.12 C 55.16 32.05, 55.18 31.39, 55.20 30.18 C 55.23 28.98, 55.26 28.31, 55.26 27.11 C 55.26 25.92, 55.25 25.26, 55.20 24.21 C 55.15 23.16, 55.09 22.65, 55.00 21.87 C 54.91 21.08, 54.85 20.76, 54.73 20.30 C 54.62 19.84, 54.55 19.70, 54.45 19.56 C 54.34 19.42, 54.26 19.44, 54.20 19.60"/>
<path d="M 103.01,20.49 C 103.04 20.36, 103.02 20.18, 102.89 19.98 C 102.76 19.77, 102.64 19.63, 102.36 19.46 C 102.07 19.29, 101.87 19.15, 101.45 19.12 C 101.03 19.09, 100.78 19.09, 100.26 19.30 C 99.75 19.50, 99.45 19.65, 98.87 20.15 C 98.29 20.65, 97.96 20.97, 97.36 21.79 C 96.76 22.62, 96.42 23.15, 95.87 24.27 C 95.33 25.39, 95.05 26.09, 94.65 27.39 C 94.26 28.69, 94.08 29.47, 93.90 30.79 C 93.71 32.11, 93.68 32.84, 93.72 33.99 C 93.77 35.14, 93.87 35.72, 94.14 36.56 C 94.40 37.41, 94.61 37.76, 95.04 38.22 C 95.48 38.69, 95.77 38.81, 96.31 38.90 C 96.85 38.98, 97.18 38.94, 97.76 38.66 C 98.35 38.37, 98.67 38.12, 99.23 37.48 C 99.80 36.83, 100.09 36.39, 100.60 35.44 C 101.10 34.50, 101.35 33.91, 101.76 32.74 C 102.16 31.56, 102.34 30.84, 102.64 29.57 C 102.93 28.29, 103.06 27.57, 103.24 26.35 C 103.42 25.13, 103.47 24.47, 103.55 23.47 C 103.63 22.48, 103.65 22.04, 103.64 21.37 C 103.63 20.70, 103.59 20.47, 103.49 20.13 C 103.39 19.78, 103.29 19.72, 103.12 19.66 C 102.94 19.61, 102.75 19.69, 102.62 19.85 C 102.50 20.00, 102.43 20.29, 102.49 20.43 C 102.54 20.56, 102.79 20.60, 102.89 20.53 C 103.00 20.45, 102.99 20.19, 103.02 20.06 C 103.05 19.92, 103.02 19.81, 103.04 19.84 C 103.05 19.86, 103.09 19.89, 103.09 20.19 C 103.10 20.50, 103.11 20.72, 103.07 21.36 C 103.03 22.00, 102.99 22.43, 102.88 23.41 C 102.77 24.39, 102.72 25.04, 102.52 26.24 C 102.32 27.44, 102.20 28.14, 101.90 29.39 C 101.60 30.64, 101.42 31.34, 101.02 32.48 C 100.62 33.62, 100.38 34.18, 99.91 35.08 C 99.44 35.99, 99.16 36.40, 98.67 37.01 C 98.19 37.61, 97.94 37.85, 97.48 38.13 C 97.02 38.41, 96.79 38.47, 96.38 38.42 C 95.96 38.38, 95.75 38.30, 95.42 37.89 C 95.08 37.49, 94.92 37.18, 94.71 36.40 C 94.51 35.61, 94.42 35.07, 94.41 33.97 C 94.39 32.87, 94.43 32.17, 94.63 30.90 C 94.82 29.63, 95.00 28.87, 95.39 27.62 C 95.78 26.36, 96.06 25.69, 96.59 24.62 C 97.11 23.54, 97.44 23.03, 98.00 22.25 C 98.56 21.47, 98.86 21.17, 99.37 20.71 C 99.88 20.24, 100.13 20.12, 100.53 19.94 C 100.94 19.76, 101.10 19.78, 101.39 19.81 C 101.68 19.84, 101.79 19.97, 101.99 20.08 C 102.20 20.20, 102.27 20.28, 102.42 20.39 C 102.57 20.50, 102.63 20.62, 102.75 20.64 C 102.87 20.67, 102.98 20.62, 103.01 20.49"/>
<path d="M 115.59,10.44 C 115.66 10.27, 115.67 10.03, 115.65 9.64 C 115.64 9.25, 115.62 8.97, 115.51 8.51 C 115.41 8.04, 115.35 7.74, 115.15 7.33 C 114.94 6.93, 114.79 6.71, 114.48 6.47 C 114.18 6.23, 114.01 6.13, 113.62 6.12 C 113.22 6.12, 112.97 6.13, 112.51 6.45 C 112.06 6.76, 111.80 6.98, 111.35 7.68 C 110.89 8.38, 110.65 8.82, 110.24 9.95 C 109.82 11.08, 109.60 11.78, 109.26 13.32 C 108.92 14.86, 108.76 15.80, 108.53 17.64 C 108.30 19.49, 108.20 20.53, 108.09 22.53 C 107.99 24.54, 107.97 25.62, 107.99 27.66 C 108.00 29.69, 108.06 30.77, 108.17 32.71 C 108.28 34.66, 108.37 35.64, 108.53 37.38 C 108.70 39.11, 108.81 39.96, 109.01 41.39 C 109.21 42.83, 109.32 43.49, 109.52 44.55 C 109.72 45.60, 109.84 46.03, 110.01 46.66 C 110.19 47.29, 110.26 47.42, 110.40 47.69 C 110.53 47.95, 110.59 47.94, 110.67 47.99 C 110.75 48.04, 110.79 47.95, 110.81 47.93 C 110.83 47.90, 110.78 47.88, 110.78 47.88 C 110.77 47.88, 110.78 47.97, 110.78 47.91 C 110.77 47.84, 110.79 47.84, 110.73 47.57 C 110.68 47.30, 110.63 47.17, 110.51 46.54 C 110.39 45.91, 110.29 45.49, 110.12 44.44 C 109.95 43.39, 109.83 42.73, 109.65 41.31 C 109.47 39.88, 109.37 39.04, 109.21 37.31 C 109.05 35.59, 108.97 34.61, 108.87 32.67 C 108.77 30.74, 108.72 29.67, 108.71 27.65 C 108.71 25.63, 108.72 24.56, 108.84 22.58 C 108.96 20.59, 109.07 19.56, 109.31 17.74 C 109.55 15.93, 109.71 15.00, 110.04 13.49 C 110.37 11.99, 110.59 11.30, 110.98 10.22 C 111.36 9.14, 111.59 8.73, 111.98 8.08 C 112.36 7.42, 112.57 7.24, 112.90 6.95 C 113.23 6.66, 113.38 6.64, 113.62 6.63 C 113.86 6.61, 113.93 6.68, 114.10 6.88 C 114.27 7.08, 114.33 7.27, 114.45 7.63 C 114.57 7.99, 114.61 8.27, 114.72 8.69 C 114.83 9.12, 114.87 9.40, 114.99 9.76 C 115.10 10.12, 115.18 10.35, 115.30 10.49 C 115.42 10.63, 115.52 10.61, 115.59 10.44"/>
<path d="M 105.04,27.38 C 105.13 27.45, 105.19 27.44, 105.41 27.45 C 105.64 27.45, 105.79 27.47, 106.17 27.41 C 106.55 27.36, 106.81 27.30, 107.32 27.18 C 107.83 27.06, 108.15 26.97, 108.73 26.81 C 109.31 26.66, 109.62 26.57, 110.24 26.42 C 110.85 26.27, 111.18 26.19, 111.78 26.05 C 112.39 25.91, 112.73 25.83, 113.26 25.71 C 113.80 25.60, 114.07 25.57, 114.46 25.48 C 114.85 25.39, 115.00 25.34, 115.22 25.26 C 115.44 25.18, 115.49 25.15, 115.56 25.08 C 115.62 25.01, 115.61 24.97, 115.53 24.92 C 115.45 24.88, 115.39 24.88, 115.16 24.86 C 114.92 24.85, 114.77 24.83, 114.36 24.86 C 113.96 24.89, 113.68 24.92, 113.13 25.02 C 112.58 25.11, 112.23 25.20, 111.62 25.34 C 111.01 25.47, 110.68 25.56, 110.06 25.70 C 109.45 25.84, 109.13 25.92, 108.54 26.05 C 107.96 26.18, 107.64 26.23, 107.13 26.35 C 106.62 26.47, 106.37 26.52, 106.00 26.63 C 105.63 26.73, 105.49 26.78, 105.29 26.88 C 105.08 26.99, 105.02 27.04, 104.97 27.14 C 104.92 27.24, 104.95 27.32, 105.04 27.38"/>
<path d="M 133.57,21.73 C 133.51 21.93, 133.53 22.13, 133.51 22.72 C 133.50 23.30, 133.50 23.72, 133.50 24.65 C 133.50 25.57, 133.53 26.20, 133.50 27.34 C 133.48 28.48, 133.43 29.14, 133.36 30.36 C 133.29 31.57, 133.24 32.28, 133.16 33.42 C 133.07 34.56, 133.01 35.15, 132.94 36.06 C 132.86 36.97, 132.82 37.36, 132.79 37.96 C 132.76 38.56, 132.79 38.76, 132.80 39.07 C 132.82 39.37, 132.81 39.40, 132.85 39.49 C 132.88 39.58, 132.91 39.59, 132.97 39.51 C 133.03 39.43, 133.07 39.40, 133.14 39.10 C 133.22 38.80, 133.26 38.61, 133.35 38.02 C 133.44 37.42, 133.49 37.03, 133.60 36.12 C 133.70 35.22, 133.78 34.62, 133.89 33.48 C 133.99 32.33, 134.05 31.63, 134.14 30.41 C 134.23 29.19, 134.31 28.52, 134.34 27.36 C 134.38 26.21, 134.37 25.56, 134.32 24.63 C 134.28 23.69, 134.22 23.26, 134.12 22.67 C 134.02 22.09, 133.94 21.89, 133.83 21.70 C 133.72 21.51, 133.64 21.53, 133.57 21.73"/>
<path d="M 134.89,12.04 C 134.94 12.10, 135.02 12.07, 135.02 12.00 C 135.02 11.93, 134.96 11.73, 134.91 11.67 C 134.86 11.62, 134.79 11.64, 134.78 11.72 C 134.78 11.79, 134.84 11.99, 134.89 12.04"/>
<path d="M 139.48,20.24 C 139.43 20.39, 139.46 20.54, 139.49 20.95 C 139.52 21.36, 139.55 21.62, 139.61 22.30 C 139.68 22.97, 139.77 23.40, 139.81 24.33 C 139.86 25.25, 139.85 25.83, 139.84 26.93 C 139.83 28.03, 139.82 28.67, 139.78 29.83 C 139.74 30.99, 139.69 31.65, 139.63 32.72 C 139.56 33.80, 139.51 34.34, 139.47 35.20 C 139.42 36.06, 139.36 36.45, 139.39 37.02 C 139.41 37.58, 139.46 37.83, 139.58 38.02 C 139.71 38.21, 139.83 38.21, 140.02 37.98 C 140.20 37.74, 140.30 37.50, 140.50 36.85 C 140.70 36.20, 140.78 35.73, 141.02 34.71 C 141.27 33.68, 141.38 32.97, 141.74 31.72 C 142.10 30.46, 142.35 29.69, 142.82 28.42 C 143.30 27.16, 143.58 26.47, 144.10 25.39 C 144.63 24.31, 144.93 23.80, 145.45 23.03 C 145.96 22.25, 146.24 21.93, 146.69 21.51 C 147.14 21.09, 147.35 21.00, 147.68 20.92 C 148.02 20.85, 148.14 20.87, 148.36 21.13 C 148.59 21.39, 148.64 21.59, 148.80 22.22 C 148.95 22.86, 149.02 23.31, 149.13 24.29 C 149.25 25.28, 149.31 25.92, 149.37 27.15 C 149.42 28.39, 149.41 29.14, 149.40 30.45 C 149.39 31.77, 149.35 32.52, 149.32 33.74 C 149.28 34.96, 149.26 35.59, 149.25 36.57 C 149.24 37.55, 149.19 37.99, 149.25 38.64 C 149.32 39.30, 149.37 39.56, 149.57 39.84 C 149.77 40.12, 149.94 40.21, 150.26 40.04 C 150.58 39.86, 150.84 39.53, 151.17 38.97 C 151.50 38.40, 151.71 37.92, 151.90 37.23 C 152.10 36.55, 152.17 35.89, 152.15 35.52 C 152.13 35.16, 152.03 35.13, 151.81 35.41 C 151.58 35.69, 151.32 36.29, 151.04 36.93 C 150.76 37.56, 150.63 38.04, 150.42 38.61 C 150.21 39.18, 150.12 39.55, 150.01 39.76 C 149.90 39.98, 149.89 39.93, 149.85 39.71 C 149.81 39.48, 149.80 39.24, 149.82 38.62 C 149.83 38.00, 149.87 37.56, 149.91 36.59 C 149.96 35.62, 149.99 34.99, 150.04 33.77 C 150.10 32.54, 150.16 31.79, 150.19 30.46 C 150.22 29.13, 150.24 28.38, 150.19 27.12 C 150.14 25.86, 150.09 25.21, 149.95 24.19 C 149.80 23.17, 149.70 22.70, 149.45 22.02 C 149.20 21.34, 149.05 21.11, 148.68 20.80 C 148.31 20.50, 148.08 20.45, 147.61 20.51 C 147.14 20.57, 146.87 20.67, 146.33 21.10 C 145.80 21.54, 145.50 21.87, 144.92 22.67 C 144.35 23.46, 144.04 23.98, 143.47 25.07 C 142.90 26.17, 142.60 26.86, 142.09 28.14 C 141.58 29.42, 141.32 30.20, 140.93 31.48 C 140.54 32.75, 140.39 33.46, 140.15 34.50 C 139.92 35.54, 139.85 36.01, 139.76 36.68 C 139.67 37.36, 139.67 37.60, 139.69 37.86 C 139.70 38.12, 139.76 38.14, 139.81 37.97 C 139.87 37.81, 139.89 37.58, 139.96 37.04 C 140.02 36.49, 140.05 36.11, 140.13 35.25 C 140.21 34.40, 140.27 33.85, 140.35 32.77 C 140.44 31.69, 140.49 31.03, 140.55 29.86 C 140.61 28.70, 140.62 28.05, 140.64 26.94 C 140.66 25.82, 140.69 25.23, 140.64 24.28 C 140.59 23.34, 140.51 22.88, 140.39 22.19 C 140.28 21.50, 140.20 21.24, 140.06 20.84 C 139.93 20.43, 139.85 20.30, 139.73 20.18 C 139.62 20.06, 139.53 20.08, 139.48 20.24"/>
<path d="M 156.86,10.94 C 156.79 11.07, 156.81 11.15, 156.76 11.59 C 156.72 12.02, 156.69 12.31, 156.64 13.13 C 156.60 13.95, 156.59 14.50, 156.55 15.68 C 156.52 16.87, 156.50 17.62, 156.45 19.06 C 156.40 20.49, 156.38 21.33, 156.31 22.86 C 156.25 24.39, 156.19 25.21, 156.13 26.70 C 156.07 28.20, 156.05 28.98, 156.02 30.34 C 155.99 31.70, 155.97 32.38, 155.97 33.49 C 155.97 34.61, 155.97 35.11, 156.00 35.92 C 156.03 36.74, 156.04 37.08, 156.12 37.56 C 156.20 38.05, 156.23 38.21, 156.39 38.33 C 156.54 38.46, 156.63 38.45, 156.88 38.19 C 157.13 37.93, 157.26 37.72, 157.61 37.02 C 157.97 36.32, 158.18 35.81, 158.67 34.71 C 159.15 33.60, 159.43 32.87, 160.05 31.50 C 160.66 30.12, 161.02 29.27, 161.73 27.83 C 162.44 26.39, 162.85 25.59, 163.58 24.30 C 164.31 23.00, 164.71 22.37, 165.37 21.35 C 166.04 20.33, 166.36 19.90, 166.89 19.20 C 167.41 18.50, 167.66 18.22, 167.99 17.83 C 168.32 17.43, 168.41 17.38, 168.55 17.22 C 168.70 17.06, 168.68 17.05, 168.70 17.03 C 168.72 17.01, 168.64 17.08, 168.65 17.10 C 168.66 17.11, 168.74 17.14, 168.75 17.11 C 168.76 17.07, 168.79 16.95, 168.71 16.92 C 168.63 16.89, 168.57 16.84, 168.35 16.95 C 168.13 17.06, 168.01 17.11, 167.62 17.49 C 167.24 17.86, 166.97 18.14, 166.42 18.84 C 165.86 19.54, 165.52 19.96, 164.83 20.98 C 164.13 22.00, 163.71 22.64, 162.95 23.94 C 162.19 25.24, 161.76 26.04, 161.03 27.48 C 160.29 28.93, 159.92 29.78, 159.28 31.15 C 158.65 32.53, 158.34 33.24, 157.86 34.35 C 157.38 35.46, 157.16 35.98, 156.89 36.70 C 156.62 37.43, 156.58 37.67, 156.51 37.98 C 156.43 38.29, 156.51 38.33, 156.53 38.25 C 156.55 38.16, 156.60 38.00, 156.61 37.53 C 156.63 37.07, 156.60 36.72, 156.60 35.91 C 156.60 35.11, 156.60 34.61, 156.62 33.50 C 156.64 32.39, 156.67 31.71, 156.71 30.36 C 156.76 29.00, 156.77 28.22, 156.85 26.73 C 156.92 25.24, 156.99 24.43, 157.07 22.90 C 157.16 21.37, 157.20 20.53, 157.27 19.09 C 157.33 17.65, 157.37 16.90, 157.40 15.71 C 157.44 14.52, 157.46 13.97, 157.45 13.14 C 157.43 12.32, 157.39 12.01, 157.32 11.57 C 157.25 11.12, 157.18 11.04, 157.09 10.91 C 157.00 10.79, 156.92 10.80, 156.86 10.94"/>
<path d="M 161.32,27.49 C 161.28 27.67, 161.28 27.90, 161.38 28.32 C 161.49 28.75, 161.60 29.05, 161.86 29.62 C 162.11 30.19, 162.30 30.53, 162.66 31.18 C 163.02 31.82, 163.25 32.19, 163.65 32.85 C 164.06 33.51, 164.29 33.85, 164.68 34.49 C 165.07 35.13, 165.26 35.45, 165.62 36.04 C 165.98 36.63, 166.13 36.93, 166.47 37.46 C 166.81 37.98, 166.98 38.26, 167.32 38.68 C 167.65 39.10, 167.81 39.30, 168.13 39.56 C 168.45 39.82, 168.72 39.93, 168.90 39.97 C 169.09 40.01, 169.13 39.93, 169.05 39.77 C 168.97 39.61, 168.75 39.48, 168.50 39.18 C 168.26 38.89, 168.13 38.71, 167.84 38.29 C 167.54 37.88, 167.36 37.62, 167.03 37.10 C 166.70 36.58, 166.55 36.29, 166.20 35.69 C 165.85 35.10, 165.67 34.77, 165.29 34.13 C 164.91 33.48, 164.69 33.13, 164.31 32.46 C 163.92 31.80, 163.72 31.43, 163.38 30.79 C 163.03 30.15, 162.86 29.80, 162.58 29.27 C 162.29 28.73, 162.16 28.47, 161.97 28.10 C 161.77 27.73, 161.72 27.54, 161.59 27.41 C 161.46 27.29, 161.36 27.31, 161.32 27.49"/>
<path d="M 178.90,35.39 C 178.78 35.66, 178.71 35.97, 178.56 36.76 C 178.40 37.55, 178.32 38.13, 178.12 39.32 C 177.91 40.51, 177.77 41.36, 177.51 42.71 C 177.26 44.07, 177.11 44.86, 176.85 46.10 C 176.60 47.33, 176.44 47.94, 176.26 48.89 C 176.07 49.83, 176.00 50.24, 175.92 50.83 C 175.84 51.41, 175.83 51.60, 175.84 51.80 C 175.86 52.01, 175.91 52.02, 176.01 51.84 C 176.11 51.66, 176.17 51.48, 176.34 50.92 C 176.52 50.36, 176.64 49.97, 176.89 49.04 C 177.14 48.10, 177.30 47.49, 177.59 46.26 C 177.88 45.03, 178.09 44.24, 178.36 42.87 C 178.63 41.51, 178.79 40.66, 178.95 39.45 C 179.11 38.24, 179.13 37.64, 179.17 36.84 C 179.22 36.03, 179.22 35.71, 179.17 35.42 C 179.11 35.13, 179.02 35.12, 178.90 35.39"/>
<path d="M 198.89,12.01 C 198.81 12.17, 198.80 12.30, 198.74 12.78 C 198.69 13.26, 198.66 13.55, 198.62 14.42 C 198.57 15.30, 198.55 15.86, 198.51 17.16 C 198.47 18.45, 198.47 19.28, 198.42 20.89 C 198.38 22.49, 198.35 23.44, 198.30 25.17 C 198.25 26.90, 198.22 27.86, 198.16 29.53 C 198.10 31.20, 198.05 32.09, 198.00 33.54 C 197.96 34.98, 197.95 35.67, 197.94 36.75 C 197.93 37.83, 197.93 38.27, 197.96 38.95 C 197.98 39.62, 198.02 39.80, 198.06 40.12 C 198.10 40.44, 198.11 40.45, 198.15 40.54 C 198.19 40.62, 198.22 40.62, 198.26 40.54 C 198.31 40.46, 198.32 40.44, 198.37 40.12 C 198.41 39.81, 198.44 39.63, 198.48 38.95 C 198.52 38.28, 198.52 37.84, 198.56 36.76 C 198.60 35.68, 198.62 35.00, 198.69 33.56 C 198.75 32.12, 198.81 31.23, 198.89 29.56 C 198.97 27.89, 199.01 26.93, 199.08 25.20 C 199.15 23.47, 199.19 22.51, 199.24 20.91 C 199.30 19.31, 199.32 18.47, 199.35 17.18 C 199.38 15.88, 199.41 15.32, 199.40 14.44 C 199.39 13.56, 199.36 13.27, 199.30 12.78 C 199.25 12.30, 199.22 12.16, 199.14 12.01 C 199.06 11.85, 198.97 11.86, 198.89 12.01"/>
<path d="M 193.16,27.15 C 193.24 27.21, 193.25 27.20, 193.46 27.22 C 193.68 27.24, 193.83 27.29, 194.23 27.24 C 194.62 27.20, 194.86 27.14, 195.44 27.00 C 196.02 26.86, 196.41 26.79, 197.13 26.52 C 197.84 26.25, 198.26 26.06, 199.02 25.63 C 199.78 25.20, 200.16 24.95, 200.91 24.37 C 201.67 23.80, 202.07 23.50, 202.78 22.76 C 203.49 22.03, 203.86 21.61, 204.48 20.70 C 205.10 19.78, 205.38 19.27, 205.88 18.21 C 206.38 17.14, 206.61 16.53, 206.98 15.37 C 207.35 14.20, 207.51 13.53, 207.73 12.38 C 207.95 11.23, 208.01 10.62, 208.07 9.63 C 208.14 8.65, 208.14 8.16, 208.07 7.46 C 208.00 6.77, 207.92 6.47, 207.72 6.16 C 207.52 5.84, 207.34 5.77, 207.06 5.89 C 206.78 6.00, 206.60 6.16, 206.33 6.73 C 206.07 7.31, 205.95 7.72, 205.75 8.75 C 205.54 9.78, 205.46 10.46, 205.30 11.88 C 205.15 13.31, 205.08 14.18, 204.96 15.88 C 204.83 17.57, 204.77 18.54, 204.67 20.35 C 204.58 22.16, 204.54 23.16, 204.48 24.92 C 204.41 26.69, 204.38 27.61, 204.35 29.17 C 204.31 30.72, 204.30 31.46, 204.30 32.70 C 204.31 33.94, 204.31 34.51, 204.38 35.35 C 204.46 36.18, 204.50 36.50, 204.67 36.88 C 204.84 37.26, 204.96 37.34, 205.22 37.25 C 205.48 37.17, 205.65 36.99, 205.97 36.43 C 206.28 35.88, 206.44 35.42, 206.80 34.47 C 207.17 33.51, 207.35 32.86, 207.80 31.66 C 208.25 30.46, 208.53 29.70, 209.08 28.48 C 209.63 27.26, 209.97 26.57, 210.56 25.56 C 211.14 24.55, 211.48 24.08, 212.00 23.41 C 212.53 22.75, 212.79 22.50, 213.18 22.23 C 213.58 21.97, 213.74 21.94, 213.98 22.07 C 214.22 22.20, 214.28 22.36, 214.38 22.89 C 214.48 23.41, 214.48 23.81, 214.48 24.71 C 214.49 25.61, 214.46 26.24, 214.41 27.39 C 214.36 28.55, 214.32 29.25, 214.24 30.47 C 214.15 31.69, 214.08 32.39, 214.00 33.49 C 213.92 34.59, 213.85 35.14, 213.83 35.97 C 213.82 36.79, 213.82 37.13, 213.93 37.60 C 214.03 38.08, 214.12 38.22, 214.37 38.33 C 214.61 38.45, 214.79 38.44, 215.15 38.19 C 215.50 37.94, 215.72 37.71, 216.14 37.09 C 216.56 36.47, 216.79 36.04, 217.24 35.10 C 217.69 34.17, 217.93 33.55, 218.39 32.40 C 218.84 31.26, 219.09 30.54, 219.54 29.39 C 219.98 28.24, 220.23 27.60, 220.62 26.64 C 221.02 25.67, 221.22 25.21, 221.50 24.57 C 221.79 23.94, 221.91 23.69, 222.07 23.47 C 222.22 23.24, 222.24 23.23, 222.27 23.43 C 222.31 23.63, 222.25 23.85, 222.24 24.47 C 222.22 25.09, 222.19 25.57, 222.18 26.53 C 222.18 27.49, 222.21 28.13, 222.21 29.26 C 222.21 30.39, 222.18 31.08, 222.18 32.19 C 222.18 33.29, 222.15 33.89, 222.19 34.77 C 222.24 35.66, 222.27 36.06, 222.39 36.60 C 222.50 37.15, 222.59 37.34, 222.78 37.49 C 222.97 37.63, 223.12 37.56, 223.33 37.32 C 223.55 37.07, 223.66 36.87, 223.85 36.28 C 224.03 35.70, 224.13 35.20, 224.26 34.39 C 224.39 33.57, 224.45 32.99, 224.50 32.20 C 224.55 31.41, 224.58 30.80, 224.52 30.44 C 224.46 30.08, 224.37 30.07, 224.22 30.40 C 224.06 30.73, 223.92 31.32, 223.73 32.08 C 223.55 32.85, 223.44 33.42, 223.30 34.23 C 223.17 35.04, 223.13 35.53, 223.07 36.12 C 223.00 36.70, 223.01 36.90, 222.99 37.15 C 222.96 37.40, 222.97 37.48, 222.95 37.36 C 222.94 37.23, 222.93 37.06, 222.92 36.54 C 222.91 36.02, 222.87 35.63, 222.88 34.76 C 222.89 33.89, 222.92 33.30, 222.96 32.20 C 222.99 31.10, 223.03 30.40, 223.06 29.27 C 223.08 28.13, 223.09 27.49, 223.07 26.52 C 223.05 25.55, 223.05 25.06, 222.94 24.42 C 222.84 23.77, 222.76 23.52, 222.53 23.28 C 222.31 23.04, 222.15 23.02, 221.84 23.22 C 221.53 23.42, 221.35 23.66, 220.97 24.29 C 220.60 24.92, 220.40 25.40, 219.97 26.36 C 219.54 27.32, 219.28 27.96, 218.81 29.10 C 218.34 30.25, 218.09 30.96, 217.62 32.09 C 217.15 33.22, 216.91 33.82, 216.48 34.74 C 216.04 35.66, 215.80 36.06, 215.47 36.68 C 215.13 37.29, 214.99 37.54, 214.79 37.83 C 214.60 38.12, 214.56 38.18, 214.48 38.13 C 214.40 38.07, 214.39 37.97, 214.39 37.55 C 214.38 37.12, 214.40 36.80, 214.47 36.00 C 214.54 35.20, 214.62 34.65, 214.73 33.56 C 214.84 32.46, 214.92 31.75, 215.03 30.53 C 215.13 29.30, 215.20 28.60, 215.25 27.43 C 215.31 26.26, 215.35 25.62, 215.29 24.68 C 215.23 23.73, 215.18 23.30, 214.95 22.72 C 214.71 22.13, 214.53 21.92, 214.14 21.75 C 213.74 21.57, 213.48 21.58, 212.96 21.83 C 212.43 22.09, 212.14 22.34, 211.53 23.01 C 210.93 23.68, 210.57 24.16, 209.94 25.19 C 209.30 26.21, 208.94 26.91, 208.35 28.14 C 207.77 29.37, 207.47 30.14, 207.00 31.35 C 206.52 32.55, 206.31 33.21, 205.98 34.17 C 205.66 35.14, 205.54 35.59, 205.36 36.17 C 205.19 36.75, 205.17 36.95, 205.10 37.07 C 205.03 37.20, 205.04 37.14, 205.02 36.79 C 204.99 36.44, 204.97 36.13, 204.96 35.32 C 204.94 34.50, 204.93 33.93, 204.94 32.70 C 204.96 31.48, 204.98 30.73, 205.03 29.18 C 205.08 27.63, 205.12 26.71, 205.20 24.95 C 205.28 23.19, 205.32 22.20, 205.43 20.39 C 205.54 18.59, 205.61 17.62, 205.75 15.94 C 205.89 14.26, 205.97 13.39, 206.13 11.98 C 206.30 10.57, 206.41 9.91, 206.57 8.90 C 206.73 7.89, 206.82 7.50, 206.95 6.95 C 207.08 6.39, 207.12 6.24, 207.21 6.11 C 207.30 5.99, 207.33 6.02, 207.38 6.30 C 207.43 6.58, 207.46 6.84, 207.47 7.50 C 207.47 8.15, 207.48 8.63, 207.39 9.58 C 207.30 10.53, 207.24 11.13, 207.02 12.24 C 206.80 13.36, 206.64 14.01, 206.28 15.15 C 205.93 16.28, 205.71 16.87, 205.23 17.90 C 204.75 18.93, 204.48 19.43, 203.89 20.30 C 203.30 21.17, 202.95 21.57, 202.27 22.27 C 201.59 22.96, 201.20 23.25, 200.48 23.79 C 199.75 24.34, 199.38 24.58, 198.65 24.97 C 197.92 25.37, 197.53 25.52, 196.85 25.76 C 196.17 26.01, 195.79 26.05, 195.24 26.19 C 194.68 26.33, 194.46 26.38, 194.09 26.47 C 193.71 26.57, 193.56 26.58, 193.36 26.67 C 193.16 26.76, 193.13 26.84, 193.09 26.94 C 193.04 27.03, 193.09 27.10, 193.16 27.15"/>
<path d="M 222.52,13.30 C 222.45 13.26, 222.53 13.30, 222.51 13.41 C 222.49 13.51, 222.41 13.73, 222.42 13.81 C 222.43 13.90, 222.45 13.96, 222.56 13.85 C 222.66 13.74, 222.88 13.41, 222.95 13.28 C 223.02 13.15, 222.93 13.13, 222.90 13.19 C 222.87 13.24, 222.80 13.49, 222.79 13.57 C 222.78 13.66, 222.91 13.66, 222.85 13.61 C 222.80 13.56, 222.58 13.34, 222.52 13.30"/>
<path d="M 227.99,22.45 C 227.90 22.59, 227.88 22.73, 227.82 23.14 C 227.76 23.56, 227.72 23.83, 227.69 24.53 C 227.67 25.22, 227.68 25.68, 227.69 26.60 C 227.70 27.52, 227.70 28.10, 227.72 29.12 C 227.74 30.14, 227.76 30.72, 227.79 31.70 C 227.82 32.69, 227.82 33.22, 227.87 34.05 C 227.91 34.89, 227.93 35.28, 228.00 35.87 C 228.08 36.46, 228.11 36.69, 228.23 37.00 C 228.35 37.30, 228.44 37.41, 228.61 37.41 C 228.78 37.41, 228.91 37.34, 229.08 36.98 C 229.26 36.61, 229.32 36.32, 229.49 35.60 C 229.66 34.87, 229.71 34.37, 229.93 33.35 C 230.16 32.32, 230.29 31.63, 230.61 30.45 C 230.93 29.27, 231.12 28.57, 231.51 27.45 C 231.89 26.34, 232.11 25.75, 232.53 24.88 C 232.95 24.02, 233.22 23.66, 233.61 23.12 C 234.01 22.59, 234.21 22.41, 234.53 22.21 C 234.84 22.00, 234.95 21.98, 235.19 22.10 C 235.43 22.22, 235.51 22.34, 235.71 22.80 C 235.91 23.27, 236.01 23.59, 236.17 24.41 C 236.33 25.24, 236.40 25.81, 236.51 26.92 C 236.61 28.04, 236.65 28.73, 236.70 29.99 C 236.76 31.25, 236.75 31.98, 236.78 33.21 C 236.82 34.43, 236.83 35.07, 236.87 36.12 C 236.91 37.18, 236.90 37.68, 236.99 38.47 C 237.08 39.26, 237.13 39.59, 237.31 40.08 C 237.50 40.56, 237.62 40.74, 237.90 40.91 C 238.18 41.07, 238.38 41.08, 238.73 40.89 C 239.08 40.71, 239.27 40.54, 239.65 39.98 C 240.03 39.42, 240.21 39.04, 240.63 38.08 C 241.04 37.12, 241.28 36.50, 241.74 35.19 C 242.20 33.88, 242.46 33.09, 242.95 31.52 C 243.43 29.96, 243.69 29.03, 244.18 27.36 C 244.67 25.70, 244.92 24.79, 245.39 23.18 C 245.86 21.57, 246.11 20.75, 246.52 19.31 C 246.93 17.88, 247.12 17.17, 247.44 16.01 C 247.75 14.84, 247.89 14.33, 248.10 13.50 C 248.32 12.66, 248.43 12.33, 248.51 11.83 C 248.60 11.33, 248.58 11.15, 248.53 11.00 C 248.48 10.84, 248.37 10.83, 248.25 11.06 C 248.12 11.30, 248.01 11.50, 247.90 12.19 C 247.79 12.87, 247.76 13.35, 247.69 14.49 C 247.63 15.62, 247.62 16.35, 247.55 17.86 C 247.48 19.37, 247.44 20.29, 247.35 22.03 C 247.26 23.77, 247.21 24.79, 247.12 26.55 C 247.02 28.32, 246.96 29.26, 246.89 30.88 C 246.83 32.50, 246.80 33.32, 246.77 34.66 C 246.74 35.99, 246.74 36.61, 246.75 37.57 C 246.76 38.53, 246.76 38.90, 246.83 39.45 C 246.90 40.00, 246.95 40.16, 247.11 40.31 C 247.26 40.46, 247.39 40.45, 247.61 40.19 C 247.82 39.94, 247.95 39.71, 248.19 39.04 C 248.44 38.37, 248.53 37.88, 248.83 36.85 C 249.13 35.81, 249.29 35.15, 249.71 33.87 C 250.13 32.58, 250.38 31.81, 250.91 30.44 C 251.45 29.06, 251.78 28.27, 252.38 26.99 C 252.99 25.71, 253.34 25.08, 253.95 24.04 C 254.57 22.99, 254.90 22.52, 255.46 21.76 C 256.01 21.00, 256.28 20.68, 256.72 20.23 C 257.15 19.78, 257.34 19.65, 257.61 19.50 C 257.87 19.35, 257.96 19.37, 258.05 19.46 C 258.13 19.56, 258.09 19.65, 258.02 19.97 C 257.94 20.30, 257.90 20.54, 257.67 21.10 C 257.43 21.66, 257.27 21.99, 256.85 22.75 C 256.42 23.51, 256.12 23.98, 255.56 24.91 C 255.00 25.84, 254.65 26.39, 254.04 27.39 C 253.43 28.39, 253.07 28.94, 252.51 29.91 C 251.94 30.88, 251.62 31.38, 251.22 32.25 C 250.81 33.11, 250.64 33.52, 250.49 34.23 C 250.34 34.94, 250.35 35.25, 250.47 35.78 C 250.59 36.32, 250.74 36.55, 251.09 36.91 C 251.44 37.28, 251.70 37.42, 252.21 37.61 C 252.73 37.81, 253.05 37.86, 253.67 37.87 C 254.28 37.88, 254.61 37.83, 255.26 37.68 C 255.91 37.52, 256.26 37.39, 256.92 37.07 C 257.57 36.76, 257.91 36.58, 258.54 36.11 C 259.16 35.65, 259.47 35.37, 260.04 34.75 C 260.61 34.13, 260.88 33.76, 261.38 33.01 C 261.88 32.26, 262.12 31.83, 262.54 31.01 C 262.96 30.18, 263.15 29.70, 263.49 28.86 C 263.83 28.02, 263.99 27.57, 264.23 26.80 C 264.48 26.03, 264.61 25.59, 264.73 25.01 C 264.86 24.43, 264.87 24.15, 264.86 23.89 C 264.84 23.63, 264.77 23.56, 264.67 23.72 C 264.56 23.89, 264.46 24.09, 264.33 24.72 C 264.20 25.35, 264.12 25.85, 264.01 26.86 C 263.90 27.87, 263.86 28.55, 263.77 29.75 C 263.68 30.95, 263.62 31.68, 263.56 32.87 C 263.50 34.06, 263.47 34.71, 263.47 35.71 C 263.46 36.71, 263.46 37.19, 263.53 37.88 C 263.60 38.57, 263.67 38.90, 263.82 39.16 C 263.97 39.41, 264.12 39.33, 264.28 39.14 C 264.44 38.96, 264.58 38.62, 264.63 38.25 C 264.68 37.87, 264.64 37.46, 264.52 37.26 C 264.41 37.05, 264.17 37.05, 264.03 37.24 C 263.90 37.42, 263.86 37.82, 263.85 38.19 C 263.85 38.55, 263.94 38.88, 263.99 39.06 C 264.05 39.24, 264.08 39.33, 264.11 39.09 C 264.14 38.84, 264.13 38.52, 264.14 37.85 C 264.15 37.18, 264.13 36.71, 264.16 35.72 C 264.20 34.74, 264.24 34.10, 264.33 32.92 C 264.42 31.74, 264.50 31.02, 264.62 29.82 C 264.74 28.63, 264.84 27.96, 264.93 26.95 C 265.02 25.95, 265.07 25.44, 265.07 24.80 C 265.06 24.15, 265.02 23.92, 264.92 23.72 C 264.81 23.52, 264.70 23.56, 264.53 23.79 C 264.37 24.01, 264.28 24.27, 264.09 24.83 C 263.90 25.39, 263.82 25.82, 263.56 26.58 C 263.31 27.33, 263.16 27.77, 262.83 28.59 C 262.49 29.41, 262.31 29.87, 261.90 30.68 C 261.49 31.48, 261.26 31.89, 260.78 32.61 C 260.31 33.33, 260.05 33.68, 259.52 34.27 C 258.98 34.86, 258.70 35.12, 258.12 35.55 C 257.53 35.98, 257.22 36.14, 256.61 36.43 C 256.01 36.71, 255.68 36.83, 255.09 36.98 C 254.50 37.12, 254.20 37.15, 253.67 37.16 C 253.13 37.16, 252.86 37.12, 252.42 37.00 C 251.98 36.87, 251.76 36.80, 251.47 36.53 C 251.18 36.27, 251.05 36.11, 250.97 35.68 C 250.88 35.24, 250.88 34.99, 251.05 34.36 C 251.22 33.74, 251.40 33.36, 251.82 32.54 C 252.23 31.73, 252.56 31.23, 253.14 30.28 C 253.71 29.33, 254.08 28.79, 254.70 27.80 C 255.32 26.81, 255.67 26.26, 256.25 25.33 C 256.82 24.40, 257.13 23.94, 257.56 23.14 C 257.99 22.35, 258.19 22.00, 258.39 21.37 C 258.60 20.74, 258.62 20.44, 258.59 20.01 C 258.56 19.58, 258.47 19.41, 258.25 19.23 C 258.02 19.05, 257.83 19.00, 257.45 19.12 C 257.06 19.24, 256.83 19.38, 256.33 19.83 C 255.83 20.29, 255.55 20.62, 254.96 21.39 C 254.37 22.16, 254.02 22.63, 253.37 23.69 C 252.73 24.75, 252.36 25.38, 251.72 26.67 C 251.09 27.96, 250.74 28.76, 250.18 30.15 C 249.62 31.53, 249.37 32.31, 248.93 33.61 C 248.49 34.90, 248.28 35.56, 247.99 36.61 C 247.69 37.65, 247.59 38.14, 247.45 38.83 C 247.30 39.51, 247.29 39.75, 247.26 40.03 C 247.22 40.31, 247.26 40.35, 247.27 40.22 C 247.28 40.10, 247.29 39.96, 247.31 39.43 C 247.32 38.89, 247.32 38.52, 247.35 37.57 C 247.37 36.62, 247.38 36.01, 247.43 34.67 C 247.48 33.34, 247.51 32.53, 247.60 30.91 C 247.69 29.30, 247.76 28.36, 247.87 26.60 C 247.98 24.83, 248.04 23.82, 248.15 22.08 C 248.25 20.34, 248.30 19.41, 248.39 17.90 C 248.47 16.39, 248.51 15.66, 248.57 14.53 C 248.62 13.40, 248.65 12.94, 248.66 12.25 C 248.66 11.57, 248.66 11.37, 248.60 11.11 C 248.54 10.85, 248.46 10.84, 248.35 10.96 C 248.23 11.07, 248.19 11.23, 248.03 11.71 C 247.87 12.18, 247.78 12.52, 247.54 13.34 C 247.30 14.17, 247.16 14.68, 246.82 15.83 C 246.49 16.99, 246.29 17.69, 245.86 19.12 C 245.44 20.55, 245.18 21.37, 244.70 22.98 C 244.22 24.58, 243.96 25.49, 243.45 27.15 C 242.95 28.81, 242.69 29.73, 242.19 31.28 C 241.69 32.84, 241.43 33.62, 240.97 34.91 C 240.51 36.21, 240.26 36.82, 239.87 37.76 C 239.49 38.70, 239.32 39.07, 239.04 39.62 C 238.76 40.17, 238.66 40.32, 238.47 40.53 C 238.28 40.73, 238.22 40.75, 238.08 40.63 C 237.95 40.52, 237.89 40.38, 237.79 39.93 C 237.70 39.49, 237.65 39.18, 237.60 38.42 C 237.55 37.65, 237.57 37.15, 237.55 36.11 C 237.54 35.06, 237.54 34.42, 237.53 33.19 C 237.52 31.96, 237.54 31.23, 237.50 29.96 C 237.46 28.69, 237.45 27.99, 237.34 26.84 C 237.23 25.70, 237.17 25.11, 236.95 24.24 C 236.73 23.37, 236.58 23.02, 236.25 22.51 C 235.93 22.01, 235.73 21.86, 235.34 21.72 C 234.96 21.58, 234.75 21.61, 234.31 21.82 C 233.87 22.02, 233.64 22.21, 233.16 22.76 C 232.69 23.31, 232.40 23.69, 231.93 24.57 C 231.45 25.46, 231.21 26.06, 230.79 27.19 C 230.37 28.33, 230.15 29.04, 229.81 30.23 C 229.47 31.42, 229.30 32.12, 229.07 33.16 C 228.85 34.20, 228.77 34.71, 228.67 35.44 C 228.56 36.18, 228.55 36.46, 228.54 36.83 C 228.52 37.20, 228.57 37.27, 228.59 37.29 C 228.61 37.31, 228.64 37.21, 228.65 36.91 C 228.65 36.62, 228.62 36.40, 228.61 35.82 C 228.59 35.25, 228.57 34.86, 228.55 34.03 C 228.54 33.20, 228.54 32.67, 228.54 31.69 C 228.53 30.71, 228.52 30.13, 228.52 29.11 C 228.52 28.09, 228.55 27.51, 228.54 26.60 C 228.54 25.68, 228.52 25.22, 228.50 24.53 C 228.47 23.84, 228.46 23.56, 228.41 23.15 C 228.36 22.73, 228.33 22.59, 228.25 22.45 C 228.16 22.31, 228.07 22.31, 227.99 22.45"/>
<path d="M 264.61,11.30 C 264.71 11.34, 264.77 11.33, 264.78 11.30 C 264.79 11.27, 264.74 11.21, 264.68 11.14 C 264.61 11.07, 264.55 10.99, 264.46 10.95 C 264.38 10.90, 264.28 10.88, 264.25 10.91 C 264.21 10.94, 264.22 11.03, 264.30 11.10 C 264.37 11.18, 264.52 11.26, 264.61 11.30"/>
<path d="M 269.88,23.11 C 269.81 23.25, 269.80 23.36, 269.78 23.76 C 269.76 24.17, 269.75 24.43, 269.77 25.13 C 269.78 25.83, 269.82 26.30, 269.86 27.26 C 269.90 28.22, 269.95 28.82, 269.99 29.94 C 270.02 31.05, 270.03 31.73, 270.04 32.83 C 270.04 33.94, 270.04 34.52, 270.03 35.47 C 270.02 36.41, 270.00 36.85, 270.00 37.55 C 269.99 38.24, 269.97 38.53, 270.00 38.93 C 270.03 39.32, 270.06 39.46, 270.16 39.52 C 270.26 39.59, 270.35 39.56, 270.48 39.26 C 270.62 38.97, 270.69 38.72, 270.84 38.05 C 270.98 37.37, 271.03 36.89, 271.21 35.88 C 271.40 34.88, 271.49 34.21, 271.76 33.00 C 272.04 31.80, 272.22 31.07, 272.60 29.86 C 272.97 28.66, 273.21 28.00, 273.64 26.98 C 274.07 25.96, 274.32 25.47, 274.75 24.76 C 275.19 24.06, 275.44 23.79, 275.83 23.44 C 276.22 23.09, 276.39 23.00, 276.70 23.02 C 277.00 23.03, 277.10 23.13, 277.34 23.51 C 277.58 23.89, 277.69 24.20, 277.88 24.91 C 278.07 25.63, 278.16 26.12, 278.29 27.10 C 278.42 28.09, 278.47 28.71, 278.53 29.84 C 278.60 30.98, 278.60 31.64, 278.62 32.77 C 278.64 33.91, 278.61 34.52, 278.62 35.53 C 278.63 36.53, 278.61 37.02, 278.65 37.80 C 278.69 38.58, 278.72 38.92, 278.84 39.42 C 278.95 39.92, 279.07 40.09, 279.22 40.32 C 279.38 40.56, 279.50 40.57, 279.60 40.60 C 279.70 40.64, 279.72 40.59, 279.71 40.50 C 279.69 40.42, 279.60 40.41, 279.53 40.18 C 279.47 39.94, 279.42 39.81, 279.37 39.33 C 279.32 38.85, 279.29 38.54, 279.28 37.78 C 279.27 37.02, 279.30 36.53, 279.32 35.53 C 279.34 34.53, 279.37 33.91, 279.37 32.77 C 279.37 31.62, 279.38 30.96, 279.32 29.80 C 279.27 28.65, 279.24 28.01, 279.10 26.99 C 278.96 25.97, 278.87 25.46, 278.60 24.69 C 278.34 23.93, 278.15 23.59, 277.78 23.17 C 277.40 22.76, 277.17 22.64, 276.72 22.61 C 276.26 22.59, 276.00 22.68, 275.51 23.04 C 275.01 23.40, 274.74 23.69, 274.23 24.42 C 273.73 25.15, 273.47 25.66, 272.99 26.70 C 272.52 27.74, 272.26 28.40, 271.86 29.62 C 271.45 30.85, 271.26 31.59, 270.95 32.81 C 270.65 34.03, 270.53 34.70, 270.34 35.73 C 270.16 36.75, 270.10 37.23, 270.03 37.92 C 269.97 38.62, 269.98 38.88, 270.02 39.20 C 270.07 39.52, 270.16 39.57, 270.25 39.52 C 270.34 39.47, 270.41 39.34, 270.48 38.95 C 270.56 38.56, 270.57 38.26, 270.62 37.57 C 270.66 36.88, 270.68 36.43, 270.72 35.48 C 270.76 34.54, 270.78 33.95, 270.80 32.84 C 270.82 31.72, 270.82 31.04, 270.81 29.92 C 270.79 28.79, 270.76 28.19, 270.71 27.22 C 270.66 26.25, 270.64 25.78, 270.57 25.08 C 270.50 24.38, 270.44 24.11, 270.35 23.72 C 270.27 23.32, 270.22 23.21, 270.13 23.09 C 270.03 22.97, 269.95 22.98, 269.88 23.11"/>
<path d="M 289.62,25.51 C 289.65 25.39, 289.61 25.26, 289.51 25.07 C 289.41 24.89, 289.35 24.76, 289.12 24.58 C 288.89 24.40, 288.71 24.27, 288.37 24.19 C 288.02 24.12, 287.81 24.10, 287.40 24.20 C 286.98 24.31, 286.77 24.39, 286.30 24.72 C 285.83 25.05, 285.53 25.25, 285.04 25.85 C 284.55 26.44, 284.28 26.85, 283.85 27.68 C 283.42 28.52, 283.22 29.06, 282.91 30.02 C 282.60 30.97, 282.45 31.54, 282.31 32.45 C 282.17 33.36, 282.15 33.85, 282.22 34.57 C 282.30 35.29, 282.41 35.62, 282.68 36.07 C 282.95 36.52, 283.15 36.69, 283.57 36.81 C 284.00 36.93, 284.29 36.89, 284.81 36.69 C 285.32 36.49, 285.63 36.29, 286.16 35.80 C 286.70 35.31, 286.96 34.99, 287.48 34.24 C 288.01 33.50, 288.31 32.98, 288.79 32.09 C 289.27 31.20, 289.54 30.61, 289.91 29.79 C 290.28 28.97, 290.42 28.50, 290.64 27.99 C 290.86 27.47, 290.90 27.24, 291.00 27.21 C 291.10 27.18, 291.09 27.30, 291.12 27.85 C 291.15 28.40, 291.14 28.88, 291.17 29.94 C 291.20 30.99, 291.24 31.71, 291.26 33.13 C 291.27 34.55, 291.29 35.39, 291.25 37.04 C 291.21 38.68, 291.17 39.61, 291.06 41.36 C 290.95 43.11, 290.89 44.06, 290.70 45.79 C 290.51 47.52, 290.39 48.41, 290.11 50.00 C 289.83 51.58, 289.66 52.36, 289.30 53.72 C 288.93 55.08, 288.70 55.72, 288.27 56.79 C 287.83 57.87, 287.58 58.35, 287.12 59.09 C 286.65 59.83, 286.42 60.12, 285.96 60.50 C 285.49 60.88, 285.26 60.95, 284.79 60.98 C 284.32 61.00, 284.08 60.90, 283.61 60.65 C 283.15 60.39, 282.92 60.19, 282.47 59.69 C 282.02 59.19, 281.76 58.83, 281.36 58.14 C 280.97 57.45, 280.77 57.05, 280.49 56.24 C 280.21 55.44, 280.07 55.00, 279.96 54.12 C 279.85 53.24, 279.84 52.77, 279.94 51.85 C 280.04 50.92, 280.14 50.45, 280.47 49.50 C 280.80 48.56, 281.04 48.09, 281.60 47.14 C 282.17 46.19, 282.53 45.67, 283.30 44.76 C 284.07 43.84, 284.51 43.39, 285.46 42.56 C 286.41 41.74, 286.98 41.36, 288.05 40.63 C 289.13 39.89, 289.74 39.54, 290.85 38.90 C 291.97 38.26, 292.56 37.96, 293.63 37.42 C 294.69 36.88, 295.26 36.64, 296.19 36.21 C 297.12 35.78, 297.56 35.58, 298.27 35.28 C 298.98 34.97, 299.27 34.86, 299.76 34.68 C 300.24 34.50, 300.42 34.47, 300.68 34.37 C 300.94 34.28, 300.97 34.26, 301.05 34.22 C 301.14 34.18, 301.08 34.19, 301.09 34.17 C 301.10 34.15, 301.12 34.16, 301.12 34.13 C 301.11 34.10, 301.16 34.05, 301.05 34.01 C 300.94 33.97, 300.88 33.90, 300.58 33.93 C 300.29 33.96, 300.09 34.00, 299.58 34.16 C 299.07 34.32, 298.77 34.42, 298.04 34.71 C 297.31 35.00, 296.86 35.18, 295.92 35.60 C 294.97 36.02, 294.40 36.26, 293.32 36.80 C 292.23 37.34, 291.63 37.64, 290.50 38.29 C 289.37 38.94, 288.76 39.29, 287.65 40.04 C 286.55 40.78, 285.97 41.18, 284.99 42.03 C 284.01 42.88, 283.55 43.35, 282.75 44.30 C 281.95 45.25, 281.58 45.78, 280.99 46.78 C 280.41 47.77, 280.16 48.28, 279.82 49.28 C 279.47 50.28, 279.37 50.79, 279.26 51.77 C 279.15 52.76, 279.16 53.26, 279.27 54.20 C 279.37 55.14, 279.51 55.62, 279.80 56.48 C 280.09 57.34, 280.28 57.78, 280.71 58.52 C 281.14 59.26, 281.42 59.65, 281.95 60.18 C 282.47 60.72, 282.77 60.92, 283.34 61.18 C 283.92 61.44, 284.24 61.54, 284.83 61.48 C 285.41 61.43, 285.72 61.33, 286.28 60.91 C 286.83 60.50, 287.10 60.18, 287.61 59.41 C 288.13 58.63, 288.39 58.14, 288.85 57.04 C 289.32 55.93, 289.54 55.28, 289.93 53.89 C 290.32 52.51, 290.49 51.73, 290.79 50.12 C 291.08 48.52, 291.21 47.61, 291.41 45.87 C 291.61 44.13, 291.68 43.17, 291.81 41.41 C 291.93 39.65, 291.97 38.72, 292.03 37.06 C 292.09 35.40, 292.11 34.56, 292.11 33.12 C 292.10 31.69, 292.09 30.97, 292.00 29.89 C 291.91 28.81, 291.85 28.32, 291.65 27.74 C 291.45 27.16, 291.29 27.01, 290.99 27.01 C 290.69 27.00, 290.50 27.21, 290.14 27.70 C 289.79 28.19, 289.62 28.65, 289.21 29.45 C 288.79 30.25, 288.54 30.83, 288.07 31.70 C 287.59 32.56, 287.32 33.08, 286.83 33.79 C 286.35 34.50, 286.10 34.80, 285.65 35.27 C 285.19 35.74, 284.94 35.91, 284.55 36.13 C 284.15 36.35, 283.97 36.44, 283.68 36.38 C 283.40 36.32, 283.28 36.21, 283.12 35.84 C 282.95 35.47, 282.87 35.18, 282.85 34.53 C 282.83 33.87, 282.87 33.43, 283.03 32.57 C 283.19 31.72, 283.35 31.17, 283.66 30.27 C 283.96 29.36, 284.17 28.83, 284.57 28.05 C 284.97 27.26, 285.22 26.89, 285.65 26.34 C 286.09 25.79, 286.34 25.60, 286.73 25.30 C 287.11 25.00, 287.28 24.93, 287.57 24.85 C 287.86 24.76, 287.97 24.82, 288.20 24.88 C 288.42 24.95, 288.51 25.06, 288.68 25.17 C 288.84 25.29, 288.88 25.37, 289.02 25.47 C 289.16 25.58, 289.25 25.68, 289.37 25.69 C 289.49 25.69, 289.59 25.63, 289.62 25.51"/>
<path d="M 330.16,23.47 C 330.17 23.33, 330.11 23.19, 329.97 22.94 C 329.84 22.70, 329.76 22.53, 329.48 22.25 C 329.20 21.96, 329.01 21.75, 328.58 21.52 C 328.15 21.30, 327.88 21.17, 327.34 21.11 C 326.79 21.04, 326.49 21.03, 325.86 21.20 C 325.22 21.37, 324.86 21.51, 324.17 21.98 C 323.48 22.45, 323.08 22.76, 322.40 23.56 C 321.72 24.35, 321.34 24.86, 320.76 25.94 C 320.17 27.03, 319.89 27.72, 319.47 28.97 C 319.05 30.23, 318.88 30.96, 318.66 32.22 C 318.43 33.47, 318.36 34.15, 318.34 35.25 C 318.32 36.36, 318.37 36.93, 318.54 37.75 C 318.72 38.57, 318.87 38.90, 319.21 39.35 C 319.55 39.80, 319.78 39.91, 320.25 39.99 C 320.71 40.06, 321.00 40.01, 321.53 39.73 C 322.06 39.45, 322.35 39.22, 322.90 38.59 C 323.44 37.96, 323.71 37.53, 324.26 36.58 C 324.81 35.62, 325.12 35.02, 325.65 33.82 C 326.19 32.62, 326.45 31.87, 326.94 30.57 C 327.42 29.27, 327.67 28.51, 328.08 27.32 C 328.49 26.14, 328.69 25.52, 328.99 24.63 C 329.28 23.74, 329.42 23.34, 329.55 22.88 C 329.68 22.43, 329.67 22.29, 329.65 22.35 C 329.63 22.41, 329.53 22.59, 329.44 23.18 C 329.36 23.77, 329.31 24.26, 329.23 25.29 C 329.16 26.32, 329.15 27.04, 329.08 28.33 C 329.01 29.62, 328.95 30.41, 328.89 31.73 C 328.82 33.05, 328.78 33.79, 328.75 34.95 C 328.72 36.11, 328.71 36.68, 328.74 37.53 C 328.77 38.39, 328.81 38.72, 328.91 39.23 C 329.01 39.73, 329.13 39.90, 329.22 40.06 C 329.32 40.22, 329.37 40.20, 329.39 40.03 C 329.41 39.85, 329.33 39.69, 329.32 39.19 C 329.32 38.69, 329.34 38.37, 329.36 37.53 C 329.39 36.69, 329.40 36.13, 329.46 34.98 C 329.53 33.83, 329.58 33.10, 329.68 31.78 C 329.77 30.46, 329.86 29.67, 329.95 28.38 C 330.04 27.09, 330.10 26.37, 330.12 25.33 C 330.14 24.29, 330.13 23.80, 330.05 23.18 C 329.97 22.57, 329.91 22.36, 329.73 22.27 C 329.55 22.17, 329.43 22.27, 329.15 22.70 C 328.88 23.13, 328.72 23.53, 328.37 24.40 C 328.01 25.28, 327.82 25.90, 327.39 27.08 C 326.96 28.26, 326.70 29.01, 326.21 30.29 C 325.71 31.58, 325.45 32.31, 324.92 33.49 C 324.40 34.67, 324.09 35.26, 323.57 36.19 C 323.05 37.11, 322.79 37.51, 322.32 38.12 C 321.85 38.73, 321.62 38.93, 321.22 39.22 C 320.82 39.51, 320.63 39.59, 320.30 39.56 C 319.98 39.53, 319.83 39.47, 319.60 39.08 C 319.37 38.70, 319.25 38.40, 319.14 37.64 C 319.02 36.88, 318.98 36.33, 319.03 35.27 C 319.07 34.22, 319.14 33.56, 319.37 32.35 C 319.61 31.14, 319.78 30.43, 320.20 29.22 C 320.61 28.01, 320.88 27.34, 321.44 26.31 C 321.99 25.28, 322.35 24.79, 322.98 24.05 C 323.61 23.30, 323.97 23.01, 324.59 22.58 C 325.20 22.14, 325.51 22.02, 326.04 21.86 C 326.57 21.70, 326.81 21.73, 327.25 21.79 C 327.68 21.86, 327.86 21.99, 328.20 22.20 C 328.54 22.40, 328.69 22.58, 328.95 22.81 C 329.20 23.04, 329.29 23.17, 329.49 23.34 C 329.68 23.50, 329.79 23.62, 329.93 23.65 C 330.06 23.68, 330.15 23.61, 330.16 23.47"/>
<path d="M 341.69,22.05 C 341.67 21.90, 341.58 21.72, 341.37 21.54 C 341.15 21.35, 340.97 21.24, 340.60 21.13 C 340.23 21.01, 339.98 20.95, 339.51 20.96 C 339.04 20.98, 338.76 21.02, 338.25 21.22 C 337.75 21.42, 337.46 21.58, 336.98 21.97 C 336.49 22.36, 336.21 22.63, 335.81 23.16 C 335.40 23.69, 335.21 24.02, 334.95 24.64 C 334.70 25.25, 334.59 25.61, 334.53 26.24 C 334.48 26.87, 334.51 27.20, 334.67 27.80 C 334.83 28.40, 335.00 28.68, 335.34 29.24 C 335.69 29.80, 335.93 30.06, 336.39 30.59 C 336.86 31.12, 337.16 31.38, 337.67 31.89 C 338.17 32.41, 338.47 32.67, 338.94 33.15 C 339.41 33.63, 339.66 33.86, 340.03 34.32 C 340.39 34.77, 340.56 35.00, 340.77 35.43 C 340.97 35.86, 341.03 36.06, 341.05 36.48 C 341.07 36.90, 341.02 37.12, 340.85 37.53 C 340.67 37.93, 340.52 38.13, 340.19 38.51 C 339.85 38.89, 339.62 39.11, 339.17 39.44 C 338.71 39.76, 338.42 39.90, 337.90 40.14 C 337.38 40.38, 337.06 40.49, 336.57 40.64 C 336.07 40.79, 335.84 40.85, 335.42 40.88 C 335.00 40.91, 334.68 40.76, 334.48 40.79 C 334.28 40.83, 334.24 40.93, 334.42 41.06 C 334.60 41.19, 334.94 41.40, 335.40 41.45 C 335.87 41.50, 336.18 41.45, 336.74 41.32 C 337.31 41.19, 337.64 41.06, 338.21 40.80 C 338.78 40.54, 339.09 40.39, 339.59 40.03 C 340.10 39.66, 340.36 39.42, 340.72 38.96 C 341.09 38.51, 341.26 38.26, 341.44 37.76 C 341.63 37.26, 341.67 36.97, 341.64 36.45 C 341.62 35.94, 341.54 35.69, 341.33 35.18 C 341.11 34.67, 340.93 34.42, 340.55 33.91 C 340.18 33.41, 339.92 33.17, 339.45 32.66 C 338.98 32.15, 338.69 31.89, 338.19 31.38 C 337.68 30.87, 337.39 30.61, 336.93 30.11 C 336.48 29.61, 336.24 29.38, 335.91 28.88 C 335.59 28.38, 335.43 28.14, 335.29 27.63 C 335.14 27.11, 335.12 26.85, 335.19 26.31 C 335.25 25.77, 335.36 25.46, 335.61 24.92 C 335.85 24.38, 336.03 24.09, 336.40 23.61 C 336.77 23.14, 337.02 22.90, 337.44 22.56 C 337.87 22.21, 338.10 22.07, 338.52 21.90 C 338.94 21.73, 339.16 21.72, 339.54 21.72 C 339.91 21.71, 340.10 21.78, 340.40 21.85 C 340.70 21.92, 340.82 21.99, 341.04 22.07 C 341.26 22.15, 341.36 22.27, 341.49 22.27 C 341.62 22.27, 341.72 22.20, 341.69 22.05"/>
<path d="M 361.38,21.78 C 361.30 21.95, 361.27 22.16, 361.23 22.66 C 361.18 23.16, 361.17 23.48, 361.15 24.27 C 361.13 25.07, 361.13 25.59, 361.11 26.62 C 361.10 27.65, 361.10 28.26, 361.06 29.41 C 361.02 30.55, 360.97 31.19, 360.91 32.35 C 360.85 33.52, 360.83 34.15, 360.78 35.22 C 360.73 36.29, 360.69 36.81, 360.67 37.70 C 360.65 38.59, 360.65 39.02, 360.68 39.66 C 360.71 40.31, 360.76 40.55, 360.83 40.91 C 360.90 41.27, 360.97 41.33, 361.04 41.46 C 361.11 41.59, 361.15 41.55, 361.19 41.56 C 361.23 41.57, 361.23 41.55, 361.25 41.52 C 361.26 41.49, 361.26 41.54, 361.27 41.41 C 361.28 41.28, 361.31 41.21, 361.31 40.86 C 361.31 40.51, 361.27 40.28, 361.28 39.65 C 361.28 39.02, 361.29 38.60, 361.33 37.72 C 361.37 36.84, 361.42 36.32, 361.48 35.25 C 361.54 34.19, 361.58 33.56, 361.65 32.40 C 361.72 31.23, 361.78 30.59, 361.84 29.44 C 361.90 28.29, 361.92 27.67, 361.95 26.64 C 361.97 25.60, 361.97 25.07, 361.95 24.27 C 361.92 23.48, 361.88 23.15, 361.82 22.65 C 361.76 22.15, 361.74 21.95, 361.65 21.77 C 361.56 21.60, 361.47 21.60, 361.38 21.78"/>
<path d="M 362.24,13.23 C 362.29 13.17, 362.26 13.02, 362.18 12.99 C 362.10 12.96, 361.90 13.01, 361.85 13.07 C 361.79 13.14, 361.83 13.28, 361.91 13.31 C 361.99 13.35, 362.19 13.30, 362.24 13.23"/>
<path d="M 369.75,11.12 C 369.70 11.24, 369.73 11.32, 369.73 11.65 C 369.72 11.97, 369.73 12.12, 369.73 12.75 C 369.73 13.37, 369.75 13.80, 369.72 14.77 C 369.69 15.73, 369.66 16.31, 369.57 17.58 C 369.49 18.84, 369.42 19.60, 369.28 21.11 C 369.15 22.61, 369.06 23.48, 368.91 25.09 C 368.76 26.71, 368.66 27.62, 368.53 29.20 C 368.40 30.78, 368.32 31.59, 368.24 32.99 C 368.16 34.39, 368.14 35.06, 368.13 36.19 C 368.12 37.32, 368.13 37.85, 368.19 38.63 C 368.26 39.42, 368.32 39.73, 368.48 40.12 C 368.64 40.51, 368.77 40.58, 368.98 40.59 C 369.18 40.59, 369.33 40.47, 369.52 40.16 C 369.70 39.85, 369.79 39.60, 369.90 39.03 C 370.02 38.47, 370.03 38.09, 370.10 37.33 C 370.16 36.58, 370.18 36.13, 370.22 35.28 C 370.27 34.42, 370.28 33.93, 370.32 33.07 C 370.36 32.20, 370.37 31.73, 370.43 30.94 C 370.49 30.15, 370.51 29.75, 370.62 29.11 C 370.72 28.46, 370.76 28.21, 370.96 27.71 C 371.15 27.20, 371.31 26.96, 371.58 26.58 C 371.86 26.19, 372.06 26.05, 372.33 25.78 C 372.60 25.51, 372.73 25.40, 372.94 25.22 C 373.14 25.04, 373.23 24.98, 373.36 24.89 C 373.48 24.81, 373.51 24.82, 373.54 24.80 C 373.58 24.79, 373.53 24.81, 373.53 24.82 C 373.52 24.83, 373.49 24.83, 373.50 24.85 C 373.50 24.87, 373.50 24.89, 373.56 24.91 C 373.62 24.93, 373.73 24.96, 373.80 24.95 C 373.87 24.94, 373.88 24.91, 373.88 24.85 C 373.89 24.79, 373.89 24.75, 373.83 24.67 C 373.78 24.58, 373.75 24.49, 373.61 24.44 C 373.47 24.40, 373.36 24.37, 373.15 24.44 C 372.95 24.50, 372.83 24.59, 372.58 24.76 C 372.33 24.94, 372.19 25.04, 371.89 25.33 C 371.59 25.62, 371.36 25.78, 371.06 26.21 C 370.76 26.64, 370.60 26.94, 370.39 27.49 C 370.18 28.05, 370.12 28.32, 369.99 28.99 C 369.86 29.67, 369.81 30.07, 369.73 30.88 C 369.65 31.68, 369.63 32.15, 369.57 33.02 C 369.51 33.89, 369.50 34.38, 369.43 35.23 C 369.37 36.07, 369.32 36.52, 369.26 37.26 C 369.19 38.00, 369.14 38.37, 369.10 38.92 C 369.05 39.46, 369.05 39.69, 369.03 39.99 C 369.00 40.29, 369.01 40.41, 368.98 40.42 C 368.95 40.42, 368.92 40.38, 368.88 40.01 C 368.84 39.65, 368.80 39.36, 368.78 38.60 C 368.76 37.84, 368.74 37.32, 368.77 36.20 C 368.80 35.09, 368.83 34.42, 368.92 33.03 C 369.02 31.65, 369.11 30.84, 369.25 29.27 C 369.40 27.69, 369.51 26.78, 369.67 25.17 C 369.83 23.55, 369.92 22.68, 370.06 21.18 C 370.20 19.67, 370.28 18.91, 370.38 17.63 C 370.48 16.36, 370.52 15.78, 370.55 14.79 C 370.57 13.81, 370.55 13.36, 370.50 12.71 C 370.44 12.07, 370.36 11.90, 370.26 11.57 C 370.15 11.24, 370.09 11.16, 369.99 11.07 C 369.89 10.98, 369.80 11.01, 369.75 11.12"/>
<path d="M 398.88,25.51 C 398.88 25.36, 398.81 25.20, 398.64 24.95 C 398.47 24.70, 398.34 24.52, 398.01 24.27 C 397.69 24.02, 397.44 23.84, 397.01 23.70 C 396.57 23.56, 396.33 23.51, 395.83 23.57 C 395.34 23.62, 395.07 23.69, 394.54 23.99 C 394.02 24.29, 393.74 24.51, 393.22 25.08 C 392.69 25.65, 392.41 26.04, 391.93 26.85 C 391.44 27.67, 391.20 28.18, 390.81 29.16 C 390.42 30.14, 390.25 30.73, 390.00 31.74 C 389.75 32.76, 389.64 33.32, 389.56 34.23 C 389.48 35.15, 389.48 35.60, 389.59 36.32 C 389.70 37.04, 389.81 37.37, 390.10 37.82 C 390.38 38.28, 390.60 38.44, 391.03 38.59 C 391.47 38.75, 391.77 38.75, 392.29 38.60 C 392.81 38.45, 393.12 38.30, 393.65 37.84 C 394.19 37.39, 394.47 37.04, 394.98 36.33 C 395.49 35.61, 395.74 35.18, 396.21 34.29 C 396.67 33.40, 396.90 32.85, 397.31 31.88 C 397.71 30.92, 397.90 30.38, 398.23 29.46 C 398.55 28.55, 398.71 28.06, 398.92 27.31 C 399.13 26.56, 399.20 26.17, 399.27 25.71 C 399.34 25.26, 399.32 25.09, 399.27 25.02 C 399.23 24.94, 399.13 25.00, 399.05 25.36 C 398.97 25.71, 398.91 26.02, 398.88 26.80 C 398.84 27.59, 398.86 28.13, 398.88 29.30 C 398.89 30.47, 398.92 31.20, 398.94 32.66 C 398.96 34.11, 398.99 34.96, 398.97 36.57 C 398.96 38.19, 398.94 39.07, 398.86 40.72 C 398.78 42.36, 398.72 43.23, 398.57 44.79 C 398.42 46.35, 398.35 47.12, 398.11 48.52 C 397.87 49.91, 397.71 50.60, 397.38 51.76 C 397.05 52.92, 396.85 53.46, 396.45 54.33 C 396.05 55.20, 395.82 55.54, 395.37 56.11 C 394.92 56.69, 394.66 56.90, 394.20 57.20 C 393.73 57.50, 393.51 57.59, 393.04 57.62 C 392.57 57.66, 392.31 57.60, 391.83 57.39 C 391.35 57.18, 391.10 57.00, 390.64 56.55 C 390.18 56.11, 389.94 55.83, 389.54 55.17 C 389.14 54.52, 388.93 54.08, 388.63 53.26 C 388.33 52.44, 388.16 51.98, 388.03 51.09 C 387.91 50.20, 387.90 49.72, 388.00 48.81 C 388.10 47.89, 388.20 47.42, 388.52 46.51 C 388.84 45.61, 389.06 45.17, 389.60 44.29 C 390.14 43.41, 390.51 42.97, 391.23 42.13 C 391.94 41.29, 392.35 40.87, 393.16 40.09 C 393.98 39.31, 394.42 38.93, 395.29 38.22 C 396.17 37.51, 396.66 37.17, 397.53 36.54 C 398.39 35.92, 398.82 35.63, 399.61 35.10 C 400.41 34.56, 400.80 34.30, 401.50 33.85 C 402.21 33.40, 402.56 33.21, 403.15 32.85 C 403.73 32.48, 403.98 32.31, 404.44 32.02 C 404.89 31.73, 405.05 31.62, 405.40 31.41 C 405.75 31.19, 405.90 31.13, 406.17 30.94 C 406.45 30.76, 406.55 30.68, 406.79 30.49 C 407.03 30.29, 407.14 30.19, 407.38 29.96 C 407.62 29.73, 407.75 29.62, 407.99 29.33 C 408.23 29.05, 408.36 28.88, 408.58 28.53 C 408.81 28.18, 408.93 27.98, 409.11 27.60 C 409.29 27.21, 409.40 27.01, 409.47 26.62 C 409.55 26.23, 409.56 26.00, 409.49 25.66 C 409.41 25.33, 409.31 25.15, 409.09 24.94 C 408.86 24.74, 408.71 24.66, 408.37 24.63 C 408.03 24.60, 407.80 24.61, 407.38 24.80 C 406.95 25.00, 406.70 25.13, 406.24 25.61 C 405.78 26.08, 405.52 26.42, 405.08 27.19 C 404.65 27.95, 404.41 28.44, 404.06 29.42 C 403.70 30.40, 403.52 31.02, 403.31 32.08 C 403.09 33.15, 403.01 33.75, 402.97 34.74 C 402.94 35.74, 402.98 36.26, 403.13 37.06 C 403.29 37.86, 403.44 38.20, 403.76 38.74 C 404.07 39.29, 404.29 39.48, 404.72 39.77 C 405.15 40.06, 405.41 40.16, 405.91 40.20 C 406.40 40.25, 406.70 40.22, 407.19 40.01 C 407.69 39.79, 407.95 39.61, 408.39 39.15 C 408.83 38.69, 409.03 38.38, 409.39 37.69 C 409.75 36.99, 409.94 36.55, 410.19 35.68 C 410.44 34.81, 410.53 34.27, 410.65 33.32 C 410.76 32.38, 410.78 31.88, 410.76 30.97 C 410.73 30.06, 410.68 29.57, 410.54 28.77 C 410.40 27.98, 410.31 27.61, 410.08 26.99 C 409.85 26.36, 409.68 26.08, 409.40 25.64 C 409.12 25.21, 408.95 25.08, 408.68 24.82 C 408.41 24.56, 408.27 24.46, 408.06 24.36 C 407.84 24.25, 407.71 24.24, 407.60 24.29 C 407.48 24.33, 407.42 24.45, 407.48 24.58 C 407.53 24.72, 407.61 24.83, 407.87 24.97 C 408.13 25.11, 408.34 25.18, 408.79 25.29 C 409.24 25.40, 409.53 25.44, 410.10 25.51 C 410.68 25.58, 411.01 25.63, 411.66 25.64 C 412.31 25.66, 412.67 25.65, 413.36 25.60 C 414.04 25.54, 414.40 25.49, 415.09 25.37 C 415.78 25.25, 416.14 25.18, 416.80 25.00 C 417.45 24.82, 417.77 24.70, 418.36 24.46 C 418.95 24.21, 419.26 24.07, 419.76 23.77 C 420.26 23.47, 420.50 23.30, 420.86 22.95 C 421.22 22.60, 421.37 22.39, 421.56 22.00 C 421.75 21.60, 421.82 21.37, 421.82 20.97 C 421.82 20.58, 421.77 20.34, 421.56 20.01 C 421.35 19.68, 421.17 19.50, 420.77 19.34 C 420.38 19.17, 420.11 19.11, 419.58 19.17 C 419.04 19.22, 418.72 19.29, 418.10 19.62 C 417.48 19.95, 417.12 20.19, 416.49 20.81 C 415.87 21.44, 415.52 21.85, 414.96 22.76 C 414.40 23.66, 414.13 24.22, 413.71 25.34 C 413.28 26.47, 413.09 27.17, 412.85 28.39 C 412.61 29.62, 412.53 30.29, 412.51 31.45 C 412.50 32.61, 412.57 33.21, 412.77 34.19 C 412.98 35.17, 413.13 35.63, 413.52 36.35 C 413.90 37.08, 414.16 37.35, 414.69 37.81 C 415.22 38.26, 415.53 38.42, 416.17 38.64 C 416.81 38.86, 417.16 38.91, 417.87 38.90 C 418.58 38.89, 418.97 38.83, 419.73 38.58 C 420.48 38.34, 420.91 38.09, 421.63 37.67 C 422.35 37.25, 422.74 36.93, 423.31 36.49 C 423.87 36.04, 424.09 35.81, 424.45 35.44 C 424.80 35.07, 424.97 34.84, 425.07 34.65 C 425.16 34.46, 425.11 34.41, 424.91 34.49 C 424.72 34.56, 424.51 34.76, 424.11 35.04 C 423.70 35.32, 423.45 35.51, 422.87 35.90 C 422.30 36.30, 421.91 36.61, 421.24 37.01 C 420.56 37.41, 420.17 37.66, 419.49 37.90 C 418.81 38.15, 418.47 38.22, 417.85 38.25 C 417.22 38.28, 416.92 38.24, 416.36 38.07 C 415.80 37.89, 415.52 37.77, 415.06 37.37 C 414.60 36.98, 414.37 36.74, 414.05 36.08 C 413.72 35.42, 413.58 34.99, 413.41 34.07 C 413.25 33.15, 413.18 32.57, 413.22 31.47 C 413.25 30.36, 413.34 29.71, 413.58 28.54 C 413.82 27.37, 414.02 26.69, 414.42 25.61 C 414.83 24.54, 415.09 24.01, 415.61 23.15 C 416.13 22.30, 416.47 21.93, 417.03 21.35 C 417.60 20.77, 417.93 20.57, 418.46 20.27 C 418.98 19.96, 419.25 19.91, 419.67 19.84 C 420.09 19.77, 420.27 19.81, 420.55 19.91 C 420.83 20.01, 420.94 20.11, 421.07 20.33 C 421.21 20.54, 421.25 20.68, 421.24 20.96 C 421.23 21.25, 421.19 21.42, 421.03 21.73 C 420.87 22.04, 420.75 22.20, 420.43 22.50 C 420.11 22.79, 419.89 22.93, 419.42 23.19 C 418.96 23.46, 418.66 23.60, 418.10 23.83 C 417.54 24.05, 417.24 24.16, 416.61 24.33 C 415.99 24.50, 415.63 24.56, 414.97 24.67 C 414.31 24.78, 413.96 24.83, 413.30 24.87 C 412.65 24.91, 412.31 24.92, 411.69 24.88 C 411.08 24.85, 410.76 24.79, 410.22 24.70 C 409.68 24.60, 409.42 24.51, 408.99 24.41 C 408.57 24.32, 408.37 24.26, 408.09 24.24 C 407.82 24.21, 407.73 24.24, 407.61 24.30 C 407.49 24.36, 407.48 24.42, 407.51 24.52 C 407.54 24.62, 407.61 24.66, 407.76 24.80 C 407.92 24.94, 408.07 24.99, 408.29 25.22 C 408.52 25.45, 408.66 25.56, 408.90 25.95 C 409.14 26.35, 409.29 26.61, 409.48 27.19 C 409.68 27.78, 409.76 28.12, 409.88 28.88 C 409.99 29.64, 410.04 30.11, 410.04 30.98 C 410.05 31.85, 410.02 32.33, 409.90 33.23 C 409.78 34.13, 409.68 34.64, 409.44 35.46 C 409.21 36.29, 409.04 36.71, 408.73 37.35 C 408.41 38.00, 408.24 38.27, 407.88 38.69 C 407.52 39.10, 407.32 39.24, 406.93 39.43 C 406.55 39.62, 406.33 39.65, 405.95 39.63 C 405.57 39.61, 405.36 39.56, 405.02 39.33 C 404.68 39.10, 404.49 38.95, 404.24 38.47 C 403.99 38.00, 403.87 37.69, 403.76 36.95 C 403.65 36.21, 403.62 35.72, 403.68 34.78 C 403.74 33.84, 403.84 33.26, 404.06 32.24 C 404.29 31.23, 404.47 30.63, 404.81 29.70 C 405.15 28.77, 405.38 28.30, 405.78 27.58 C 406.18 26.86, 406.42 26.56, 406.80 26.12 C 407.18 25.69, 407.38 25.59, 407.69 25.41 C 408.00 25.22, 408.15 25.21, 408.36 25.19 C 408.57 25.17, 408.63 25.19, 408.73 25.30 C 408.84 25.42, 408.87 25.53, 408.89 25.76 C 408.90 25.99, 408.89 26.16, 408.81 26.46 C 408.72 26.77, 408.62 26.94, 408.45 27.27 C 408.28 27.61, 408.16 27.80, 407.95 28.13 C 407.75 28.45, 407.64 28.61, 407.43 28.89 C 407.23 29.16, 407.11 29.27, 406.91 29.50 C 406.70 29.73, 406.61 29.85, 406.41 30.05 C 406.20 30.24, 406.13 30.31, 405.87 30.49 C 405.61 30.66, 405.46 30.72, 405.11 30.93 C 404.76 31.13, 404.58 31.24, 404.12 31.52 C 403.67 31.80, 403.41 31.96, 402.82 32.31 C 402.22 32.67, 401.87 32.86, 401.16 33.30 C 400.44 33.75, 400.05 34.01, 399.24 34.54 C 398.44 35.08, 398.00 35.36, 397.13 35.98 C 396.25 36.61, 395.74 36.95, 394.85 37.67 C 393.96 38.39, 393.51 38.78, 392.67 39.58 C 391.84 40.38, 391.42 40.80, 390.68 41.67 C 389.95 42.53, 389.56 43.00, 389.00 43.92 C 388.44 44.85, 388.21 45.32, 387.87 46.29 C 387.54 47.25, 387.42 47.75, 387.32 48.73 C 387.21 49.71, 387.20 50.23, 387.33 51.19 C 387.45 52.14, 387.61 52.64, 387.93 53.52 C 388.25 54.39, 388.47 54.86, 388.91 55.57 C 389.36 56.27, 389.63 56.58, 390.17 57.06 C 390.70 57.54, 391.01 57.75, 391.59 57.97 C 392.18 58.19, 392.51 58.24, 393.09 58.18 C 393.67 58.12, 393.95 58.01, 394.49 57.67 C 395.04 57.33, 395.32 57.09, 395.82 56.47 C 396.32 55.86, 396.56 55.50, 397.00 54.59 C 397.44 53.68, 397.65 53.13, 398.00 51.94 C 398.36 50.75, 398.52 50.05, 398.77 48.63 C 399.02 47.22, 399.11 46.44, 399.27 44.86 C 399.43 43.29, 399.49 42.41, 399.59 40.76 C 399.68 39.10, 399.71 38.21, 399.74 36.59 C 399.77 34.96, 399.75 34.11, 399.75 32.65 C 399.75 31.19, 399.75 30.46, 399.74 29.29 C 399.73 28.12, 399.73 27.59, 399.69 26.80 C 399.64 26.01, 399.62 25.71, 399.52 25.34 C 399.42 24.97, 399.35 24.90, 399.19 24.94 C 399.04 24.99, 398.95 25.13, 398.76 25.57 C 398.57 26.00, 398.51 26.38, 398.27 27.11 C 398.02 27.84, 397.88 28.32, 397.54 29.22 C 397.21 30.11, 397.01 30.64, 396.61 31.59 C 396.20 32.53, 395.97 33.07, 395.52 33.93 C 395.06 34.79, 394.82 35.20, 394.35 35.88 C 393.88 36.55, 393.62 36.87, 393.17 37.30 C 392.72 37.73, 392.49 37.87, 392.09 38.04 C 391.70 38.20, 391.50 38.23, 391.19 38.14 C 390.88 38.04, 390.73 37.94, 390.54 37.56 C 390.34 37.19, 390.26 36.90, 390.20 36.25 C 390.14 35.60, 390.14 35.17, 390.25 34.30 C 390.35 33.44, 390.46 32.90, 390.72 31.92 C 390.98 30.95, 391.15 30.38, 391.53 29.45 C 391.91 28.51, 392.15 28.02, 392.60 27.25 C 393.05 26.47, 393.32 26.11, 393.78 25.58 C 394.24 25.04, 394.47 24.84, 394.90 24.57 C 395.32 24.29, 395.53 24.24, 395.90 24.21 C 396.27 24.17, 396.42 24.25, 396.75 24.40 C 397.07 24.54, 397.25 24.72, 397.53 24.92 C 397.82 25.13, 397.96 25.25, 398.19 25.40 C 398.41 25.56, 398.52 25.67, 398.66 25.69 C 398.80 25.71, 398.89 25.66, 398.88 25.51"/>
<path d="M 432.37,21.38 C 432.30 21.26, 432.20 21.12, 431.92 21.01 C 431.64 20.90, 431.43 20.83, 430.98 20.85 C 430.53 20.86, 430.22 20.89, 429.68 21.10 C 429.15 21.31, 428.84 21.50, 428.30 21.91 C 427.76 22.31, 427.47 22.59, 427.00 23.12 C 426.54 23.66, 426.29 23.97, 425.98 24.59 C 425.67 25.20, 425.54 25.56, 425.44 26.19 C 425.34 26.83, 425.35 27.15, 425.48 27.77 C 425.61 28.38, 425.75 28.68, 426.08 29.27 C 426.42 29.86, 426.66 30.16, 427.16 30.72 C 427.66 31.28, 427.99 31.54, 428.57 32.07 C 429.14 32.59, 429.49 32.84, 430.06 33.35 C 430.62 33.86, 430.94 34.13, 431.38 34.61 C 431.83 35.09, 432.03 35.31, 432.28 35.75 C 432.53 36.18, 432.60 36.37, 432.63 36.78 C 432.65 37.19, 432.62 37.41, 432.42 37.82 C 432.21 38.22, 432.04 38.41, 431.61 38.82 C 431.19 39.24, 430.89 39.47, 430.30 39.89 C 429.70 40.31, 429.35 40.53, 428.65 40.91 C 427.94 41.30, 427.52 41.50, 426.77 41.82 C 426.02 42.15, 425.61 42.30, 424.90 42.53 C 424.19 42.76, 423.81 42.84, 423.22 42.96 C 422.62 43.07, 422.35 43.08, 421.92 43.10 C 421.49 43.11, 421.33 43.07, 421.08 43.03 C 420.82 43.00, 420.77 42.96, 420.64 42.92 C 420.51 42.88, 420.50 42.84, 420.44 42.84 C 420.38 42.84, 420.33 42.87, 420.33 42.94 C 420.34 43.01, 420.34 43.09, 420.46 43.21 C 420.59 43.33, 420.67 43.43, 420.96 43.52 C 421.25 43.62, 421.45 43.67, 421.92 43.69 C 422.40 43.70, 422.69 43.69, 423.33 43.60 C 423.97 43.50, 424.36 43.42, 425.10 43.20 C 425.85 42.98, 426.28 42.83, 427.06 42.50 C 427.84 42.18, 428.28 41.97, 429.01 41.57 C 429.75 41.18, 430.11 40.96, 430.74 40.51 C 431.36 40.06, 431.68 39.81, 432.13 39.32 C 432.57 38.83, 432.76 38.58, 432.98 38.07 C 433.19 37.55, 433.22 37.26, 433.18 36.74 C 433.15 36.22, 433.06 35.98, 432.80 35.47 C 432.55 34.95, 432.35 34.69, 431.90 34.16 C 431.44 33.63, 431.12 33.34, 430.55 32.81 C 429.98 32.29, 429.63 32.03, 429.06 31.52 C 428.49 31.00, 428.18 30.75, 427.70 30.23 C 427.22 29.71, 426.98 29.45, 426.66 28.93 C 426.34 28.41, 426.21 28.16, 426.09 27.64 C 425.98 27.11, 425.97 26.84, 426.08 26.30 C 426.18 25.76, 426.30 25.45, 426.60 24.92 C 426.90 24.38, 427.13 24.10, 427.57 23.62 C 428.00 23.15, 428.29 22.89, 428.77 22.53 C 429.25 22.18, 429.52 22.02, 429.98 21.84 C 430.44 21.66, 430.68 21.66, 431.04 21.61 C 431.41 21.56, 431.55 21.59, 431.80 21.60 C 432.04 21.60, 432.14 21.68, 432.26 21.63 C 432.37 21.59, 432.44 21.50, 432.37 21.38"/>
</svg>
