<svg xmlns="http://www.w3.org/2000/svg" viewBox="0 0 400.9 45.4" fill="currentColor" stroke="none" role="img">
<path d="M 14.81,21.84 C 14.75 21.73, 14.64 21.69, 14.47 21.60 C 14.31 21.52, 14.23 21.49, 13.98 21.40 C 13.73 21.31, 13.56 21.23, 13.23 21.17 C 12.90 21.11, 12.72 21.08, 12.32 21.10 C 11.92 21.12, 11.68 21.14, 11.23 21.26 C 10.78 21.38, 10.53 21.47, 10.05 21.71 C 9.57 21.95, 9.29 22.11, 8.81 22.49 C 8.34 22.86, 8.10 23.08, 7.68 23.60 C 7.25 24.12, 7.04 24.44, 6.70 25.09 C 6.36 25.75, 6.20 26.15, 5.99 26.86 C 5.78 27.57, 5.71 27.96, 5.66 28.63 C 5.60 29.30, 5.61 29.66, 5.74 30.20 C 5.86 30.75, 5.98 31.02, 6.28 31.36 C 6.59 31.70, 6.81 31.82, 7.28 31.90 C 7.74 31.98, 8.04 31.95, 8.59 31.76 C 9.15 31.57, 9.46 31.39, 10.03 30.95 C 10.60 30.51, 10.90 30.19, 11.44 29.57 C 11.99 28.96, 12.27 28.59, 12.78 27.88 C 13.29 27.17, 13.55 26.75, 13.98 26.01 C 14.41 25.27, 14.62 24.85, 14.94 24.19 C 15.27 23.53, 15.42 23.21, 15.62 22.71 C 15.82 22.22, 15.90 21.97, 15.94 21.70 C 15.98 21.43, 15.90 21.33, 15.80 21.37 C 15.70 21.40, 15.57 21.52, 15.42 21.87 C 15.27 22.22, 15.17 22.51, 15.06 23.12 C 14.94 23.74, 14.91 24.18, 14.85 24.94 C 14.80 25.70, 14.77 26.15, 14.79 26.92 C 14.81 27.69, 14.82 28.12, 14.94 28.81 C 15.07 29.50, 15.14 29.85, 15.42 30.36 C 15.70 30.86, 15.89 31.09, 16.34 31.35 C 16.80 31.61, 17.09 31.68, 17.68 31.67 C 18.27 31.66, 18.62 31.59, 19.29 31.30 C 19.96 31.01, 20.40 30.69, 21.04 30.22 C 21.67 29.75, 21.99 29.42, 22.45 28.95 C 22.90 28.47, 23.17 28.10, 23.31 27.84 C 23.44 27.58, 23.38 27.53, 23.12 27.65 C 22.86 27.77, 22.53 28.07, 22.01 28.45 C 21.50 28.83, 21.16 29.12, 20.55 29.55 C 19.94 29.98, 19.54 30.31, 18.96 30.61 C 18.38 30.91, 18.11 31.00, 17.64 31.06 C 17.17 31.11, 16.95 31.08, 16.61 30.89 C 16.27 30.69, 16.14 30.53, 15.95 30.09 C 15.75 29.65, 15.70 29.34, 15.62 28.70 C 15.55 28.07, 15.55 27.66, 15.57 26.92 C 15.58 26.18, 15.64 25.74, 15.71 25.01 C 15.79 24.28, 15.88 23.86, 15.95 23.25 C 16.01 22.65, 16.05 22.37, 16.05 21.99 C 16.04 21.61, 16.01 21.47, 15.91 21.37 C 15.82 21.28, 15.74 21.32, 15.57 21.54 C 15.39 21.75, 15.29 21.98, 15.04 22.45 C 14.79 22.91, 14.66 23.23, 14.33 23.87 C 13.99 24.51, 13.78 24.92, 13.35 25.63 C 12.92 26.35, 12.66 26.76, 12.17 27.44 C 11.67 28.13, 11.39 28.48, 10.87 29.06 C 10.35 29.64, 10.06 29.93, 9.56 30.35 C 9.05 30.76, 8.79 30.92, 8.34 31.13 C 7.90 31.33, 7.68 31.38, 7.35 31.36 C 7.01 31.34, 6.88 31.28, 6.68 31.02 C 6.48 30.77, 6.41 30.55, 6.34 30.09 C 6.28 29.62, 6.27 29.30, 6.34 28.70 C 6.42 28.09, 6.49 27.73, 6.70 27.07 C 6.90 26.42, 7.05 26.04, 7.36 25.43 C 7.66 24.83, 7.86 24.53, 8.24 24.05 C 8.62 23.57, 8.83 23.39, 9.26 23.05 C 9.69 22.72, 9.95 22.59, 10.38 22.37 C 10.81 22.15, 11.03 22.07, 11.42 21.96 C 11.81 21.86, 12.02 21.84, 12.35 21.83 C 12.68 21.82, 12.80 21.86, 13.08 21.92 C 13.36 21.98, 13.52 22.08, 13.77 22.14 C 14.02 22.19, 14.13 22.21, 14.33 22.20 C 14.52 22.20, 14.65 22.21, 14.74 22.13 C 14.84 22.06, 14.86 21.94, 14.81 21.84"/>
<path d="M 37.04,11.06 C 36.94 11.14, 36.92 11.22, 36.82 11.49 C 36.73 11.77, 36.66 11.92, 36.56 12.42 C 36.46 12.92, 36.44 13.24, 36.32 14.00 C 36.20 14.76, 36.12 15.22, 35.98 16.20 C 35.83 17.19, 35.75 17.77, 35.57 18.91 C 35.40 20.06, 35.26 20.71, 35.10 21.92 C 34.93 23.12, 34.82 23.79, 34.73 24.94 C 34.63 26.10, 34.60 26.71, 34.61 27.69 C 34.63 28.67, 34.64 29.14, 34.81 29.83 C 34.99 30.53, 35.14 30.81, 35.49 31.17 C 35.84 31.53, 36.07 31.64, 36.58 31.64 C 37.09 31.65, 37.42 31.53, 38.03 31.18 C 38.65 30.82, 39.00 30.50, 39.65 29.87 C 40.31 29.23, 40.66 28.79, 41.32 27.99 C 41.97 27.20, 42.33 26.71, 42.93 25.88 C 43.53 25.06, 43.82 24.60, 44.30 23.88 C 44.78 23.16, 45.00 22.81, 45.32 22.28 C 45.63 21.75, 45.76 21.51, 45.88 21.23 C 46.01 20.95, 46.00 20.85, 45.97 20.88 C 45.93 20.91, 45.84 21.02, 45.73 21.37 C 45.62 21.73, 45.53 22.03, 45.41 22.67 C 45.30 23.31, 45.24 23.78, 45.15 24.58 C 45.07 25.38, 45.02 25.85, 44.97 26.67 C 44.93 27.49, 44.89 27.94, 44.95 28.66 C 45.00 29.39, 45.05 29.76, 45.24 30.27 C 45.43 30.79, 45.57 31.01, 45.90 31.26 C 46.22 31.51, 46.43 31.57, 46.85 31.54 C 47.26 31.52, 47.51 31.42, 47.98 31.11 C 48.45 30.81, 48.71 30.55, 49.18 30.02 C 49.65 29.49, 49.88 29.14, 50.34 28.46 C 50.80 27.78, 51.05 27.36, 51.48 26.62 C 51.90 25.87, 52.12 25.45, 52.48 24.74 C 52.84 24.03, 53.01 23.67, 53.29 23.07 C 53.57 22.47, 53.72 22.17, 53.89 21.73 C 54.06 21.29, 54.12 21.10, 54.16 20.87 C 54.20 20.64, 54.15 20.58, 54.10 20.59 C 54.05 20.60, 53.97 20.66, 53.90 20.93 C 53.83 21.19, 53.79 21.42, 53.74 21.90 C 53.69 22.37, 53.68 22.70, 53.66 23.32 C 53.63 23.94, 53.62 24.32, 53.60 24.98 C 53.59 25.64, 53.57 26.03, 53.60 26.61 C 53.62 27.20, 53.63 27.49, 53.72 27.91 C 53.81 28.34, 53.87 28.53, 54.04 28.75 C 54.22 28.97, 54.35 29.04, 54.61 29.02 C 54.87 29.00, 55.05 28.91, 55.33 28.64 C 55.62 28.37, 55.75 28.15, 56.04 27.68 C 56.33 27.21, 56.47 26.89, 56.77 26.29 C 57.07 25.69, 57.24 25.32, 57.56 24.69 C 57.87 24.06, 58.04 23.70, 58.34 23.15 C 58.65 22.59, 58.84 22.30, 59.07 21.92 C 59.30 21.54, 59.39 21.37, 59.50 21.23 C 59.61 21.09, 59.60 21.10, 59.63 21.23 C 59.66 21.37, 59.64 21.51, 59.65 21.90 C 59.66 22.29, 59.65 22.59, 59.67 23.17 C 59.68 23.75, 59.68 24.15, 59.73 24.82 C 59.77 25.49, 59.77 25.88, 59.87 26.54 C 59.98 27.20, 60.03 27.56, 60.26 28.12 C 60.49 28.68, 60.62 28.96, 61.01 29.32 C 61.40 29.68, 61.67 29.81, 62.22 29.90 C 62.76 29.99, 63.08 29.95, 63.72 29.76 C 64.37 29.57, 64.74 29.39, 65.44 28.95 C 66.15 28.51, 66.55 28.20, 67.26 27.57 C 67.98 26.94, 68.35 26.55, 69.01 25.80 C 69.66 25.06, 70.01 24.61, 70.52 23.84 C 71.04 23.08, 71.27 22.65, 71.57 21.97 C 71.87 21.29, 71.98 20.96, 72.04 20.44 C 72.09 19.91, 72.04 19.67, 71.85 19.35 C 71.66 19.03, 71.47 18.91, 71.08 18.84 C 70.70 18.77, 70.41 18.79, 69.91 19.00 C 69.41 19.21, 69.09 19.40, 68.57 19.88 C 68.06 20.35, 67.77 20.69, 67.34 21.39 C 66.90 22.09, 66.67 22.53, 66.39 23.35 C 66.10 24.17, 65.98 24.66, 65.93 25.50 C 65.89 26.33, 65.93 26.79, 66.18 27.52 C 66.43 28.24, 66.63 28.62, 67.18 29.12 C 67.73 29.63, 68.11 29.83, 68.93 30.05 C 69.75 30.26, 70.27 30.28, 71.29 30.18 C 72.30 30.08, 73.00 29.85, 74.03 29.53 C 75.06 29.20, 75.63 28.94, 76.43 28.55 C 77.23 28.17, 77.72 27.84, 78.02 27.60 C 78.31 27.36, 78.27 27.29, 77.91 27.36 C 77.54 27.43, 77.01 27.68, 76.19 27.96 C 75.36 28.24, 74.79 28.46, 73.79 28.75 C 72.79 29.05, 72.14 29.29, 71.19 29.42 C 70.25 29.55, 69.80 29.56, 69.08 29.41 C 68.35 29.26, 68.04 29.10, 67.58 28.68 C 67.12 28.26, 66.97 27.95, 66.78 27.32 C 66.59 26.70, 66.57 26.29, 66.63 25.54 C 66.70 24.80, 66.82 24.35, 67.10 23.60 C 67.37 22.86, 67.59 22.44, 68.00 21.81 C 68.40 21.18, 68.68 20.89, 69.12 20.45 C 69.56 20.01, 69.83 19.85, 70.22 19.63 C 70.60 19.40, 70.79 19.34, 71.04 19.32 C 71.30 19.30, 71.40 19.34, 71.49 19.54 C 71.58 19.75, 71.61 19.92, 71.51 20.35 C 71.41 20.78, 71.30 21.07, 70.98 21.69 C 70.67 22.31, 70.44 22.71, 69.93 23.43 C 69.42 24.15, 69.07 24.59, 68.44 25.30 C 67.80 26.01, 67.43 26.39, 66.75 26.99 C 66.07 27.59, 65.68 27.88, 65.03 28.31 C 64.39 28.73, 64.06 28.91, 63.51 29.11 C 62.96 29.31, 62.72 29.36, 62.29 29.32 C 61.87 29.28, 61.68 29.20, 61.40 28.91 C 61.11 28.63, 61.03 28.39, 60.87 27.89 C 60.72 27.40, 60.67 27.06, 60.61 26.44 C 60.54 25.82, 60.56 25.45, 60.55 24.79 C 60.54 24.13, 60.59 23.73, 60.55 23.13 C 60.51 22.53, 60.47 22.21, 60.35 21.78 C 60.22 21.36, 60.12 21.19, 59.91 21.02 C 59.70 20.84, 59.57 20.81, 59.30 20.91 C 59.03 21.02, 58.87 21.17, 58.55 21.54 C 58.24 21.92, 58.04 22.22, 57.70 22.78 C 57.36 23.33, 57.19 23.70, 56.86 24.32 C 56.52 24.95, 56.34 25.32, 56.03 25.91 C 55.72 26.50, 55.56 26.81, 55.32 27.27 C 55.07 27.73, 54.98 27.94, 54.82 28.22 C 54.66 28.50, 54.60 28.61, 54.52 28.68 C 54.44 28.74, 54.43 28.72, 54.40 28.56 C 54.36 28.39, 54.35 28.23, 54.33 27.84 C 54.32 27.45, 54.31 27.17, 54.33 26.61 C 54.34 26.04, 54.37 25.66, 54.41 25.01 C 54.45 24.36, 54.48 23.98, 54.53 23.37 C 54.57 22.75, 54.62 22.42, 54.61 21.93 C 54.61 21.44, 54.58 21.19, 54.49 20.90 C 54.40 20.62, 54.30 20.54, 54.16 20.49 C 54.02 20.45, 53.95 20.49, 53.79 20.69 C 53.62 20.89, 53.55 21.06, 53.33 21.48 C 53.11 21.89, 52.99 22.19, 52.69 22.77 C 52.39 23.36, 52.22 23.71, 51.84 24.40 C 51.47 25.09, 51.25 25.51, 50.82 26.23 C 50.38 26.96, 50.14 27.37, 49.69 28.02 C 49.24 28.68, 49.01 29.00, 48.58 29.51 C 48.16 30.01, 47.93 30.24, 47.57 30.55 C 47.20 30.86, 47.05 30.98, 46.77 31.05 C 46.50 31.12, 46.39 31.10, 46.19 30.91 C 46.00 30.72, 45.91 30.56, 45.80 30.10 C 45.69 29.65, 45.66 29.31, 45.65 28.63 C 45.64 27.96, 45.68 27.51, 45.75 26.73 C 45.83 25.94, 45.91 25.47, 46.02 24.69 C 46.13 23.90, 46.23 23.45, 46.29 22.79 C 46.35 22.14, 46.37 21.83, 46.33 21.42 C 46.28 21.02, 46.22 20.87, 46.06 20.78 C 45.90 20.69, 45.80 20.74, 45.55 20.97 C 45.29 21.21, 45.16 21.43, 44.80 21.94 C 44.44 22.44, 44.22 22.79, 43.73 23.49 C 43.23 24.19, 42.93 24.63, 42.32 25.43 C 41.72 26.23, 41.35 26.71, 40.70 27.48 C 40.05 28.25, 39.69 28.67, 39.08 29.29 C 38.48 29.92, 38.16 30.22, 37.65 30.59 C 37.15 30.97, 36.92 31.11, 36.55 31.16 C 36.19 31.22, 36.05 31.16, 35.82 30.87 C 35.58 30.58, 35.48 30.35, 35.37 29.71 C 35.27 29.08, 35.27 28.63, 35.29 27.69 C 35.30 26.75, 35.34 26.14, 35.45 25.01 C 35.56 23.87, 35.66 23.22, 35.84 22.03 C 36.02 20.83, 36.16 20.18, 36.35 19.04 C 36.53 17.90, 36.62 17.31, 36.77 16.33 C 36.93 15.34, 37.02 14.88, 37.13 14.12 C 37.24 13.36, 37.27 13.04, 37.31 12.53 C 37.36 12.03, 37.38 11.87, 37.37 11.58 C 37.37 11.29, 37.35 11.20, 37.29 11.10 C 37.22 10.99, 37.13 10.98, 37.04 11.06"/>
<path d="M 99.91,19.87 C 99.94 19.76, 99.92 19.64, 99.83 19.47 C 99.73 19.30, 99.65 19.20, 99.45 19.02 C 99.26 18.84, 99.13 18.70, 98.84 18.57 C 98.55 18.43, 98.37 18.39, 97.99 18.34 C 97.62 18.30, 97.41 18.28, 96.96 18.36 C 96.52 18.43, 96.26 18.48, 95.75 18.71 C 95.24 18.94, 94.95 19.10, 94.42 19.50 C 93.89 19.90, 93.60 20.15, 93.10 20.70 C 92.60 21.25, 92.32 21.59, 91.92 22.25 C 91.52 22.91, 91.33 23.29, 91.11 24.00 C 90.89 24.70, 90.81 25.10, 90.81 25.76 C 90.82 26.41, 90.89 26.77, 91.14 27.29 C 91.40 27.80, 91.61 28.06, 92.09 28.35 C 92.56 28.64, 92.89 28.72, 93.51 28.74 C 94.13 28.75, 94.51 28.67, 95.20 28.43 C 95.88 28.18, 96.26 27.98, 96.93 27.52 C 97.60 27.06, 97.95 26.73, 98.53 26.11 C 99.10 25.50, 99.39 25.12, 99.82 24.45 C 100.25 23.78, 100.43 23.41, 100.67 22.77 C 100.91 22.12, 100.97 21.79, 101.01 21.22 C 101.05 20.66, 101.01 20.38, 100.88 19.94 C 100.75 19.50, 100.58 19.28, 100.35 19.02 C 100.12 18.77, 99.95 18.73, 99.72 18.66 C 99.50 18.59, 99.37 18.63, 99.23 18.68 C 99.08 18.73, 99.02 18.84, 99.00 18.92 C 98.98 19.00, 99.07 19.07, 99.13 19.09 C 99.19 19.11, 99.22 19.04, 99.30 19.04 C 99.39 19.05, 99.42 19.04, 99.55 19.11 C 99.67 19.18, 99.77 19.19, 99.92 19.38 C 100.08 19.58, 100.22 19.74, 100.31 20.10 C 100.41 20.46, 100.46 20.68, 100.41 21.17 C 100.35 21.65, 100.29 21.95, 100.06 22.53 C 99.82 23.11, 99.64 23.44, 99.22 24.06 C 98.81 24.67, 98.53 25.03, 97.99 25.60 C 97.44 26.17, 97.11 26.47, 96.50 26.90 C 95.89 27.33, 95.54 27.51, 94.94 27.75 C 94.35 27.98, 94.02 28.07, 93.51 28.09 C 93.00 28.11, 92.75 28.06, 92.38 27.85 C 92.02 27.64, 91.86 27.45, 91.68 27.03 C 91.49 26.62, 91.44 26.33, 91.46 25.76 C 91.48 25.20, 91.56 24.84, 91.77 24.22 C 91.99 23.59, 92.17 23.24, 92.55 22.64 C 92.93 22.04, 93.19 21.72, 93.66 21.22 C 94.12 20.71, 94.40 20.47, 94.88 20.11 C 95.36 19.74, 95.62 19.60, 96.06 19.39 C 96.50 19.18, 96.72 19.13, 97.09 19.06 C 97.46 18.99, 97.63 19.01, 97.91 19.04 C 98.20 19.07, 98.30 19.12, 98.51 19.23 C 98.72 19.34, 98.77 19.48, 98.94 19.61 C 99.11 19.75, 99.21 19.82, 99.36 19.90 C 99.51 19.99, 99.57 20.05, 99.68 20.05 C 99.80 20.04, 99.89 19.99, 99.91 19.87"/>
<path d="M 110.71,12.86 C 110.78 12.73, 110.78 12.55, 110.75 12.30 C 110.73 12.04, 110.70 11.87, 110.59 11.59 C 110.47 11.30, 110.37 11.11, 110.16 10.88 C 109.96 10.66, 109.81 10.56, 109.55 10.46 C 109.29 10.36, 109.15 10.35, 108.84 10.39 C 108.54 10.44, 108.36 10.48, 108.03 10.70 C 107.71 10.93, 107.55 11.08, 107.22 11.51 C 106.88 11.94, 106.69 12.20, 106.36 12.86 C 106.02 13.52, 105.85 13.92, 105.54 14.82 C 105.24 15.71, 105.09 16.25, 104.85 17.35 C 104.60 18.44, 104.48 19.08, 104.31 20.32 C 104.13 21.55, 104.07 22.24, 103.97 23.50 C 103.87 24.76, 103.83 25.41, 103.82 26.61 C 103.80 27.81, 103.83 28.44, 103.88 29.49 C 103.93 30.55, 103.97 31.07, 104.06 31.89 C 104.15 32.70, 104.21 33.07, 104.32 33.57 C 104.43 34.07, 104.50 34.21, 104.61 34.38 C 104.73 34.56, 104.82 34.49, 104.89 34.44 C 104.96 34.40, 104.99 34.21, 104.96 34.15 C 104.93 34.09, 104.77 34.10, 104.73 34.15 C 104.70 34.20, 104.76 34.37, 104.80 34.40 C 104.83 34.43, 104.89 34.48, 104.90 34.30 C 104.91 34.12, 104.90 33.98, 104.86 33.48 C 104.82 32.99, 104.76 32.63, 104.70 31.83 C 104.64 31.02, 104.59 30.51, 104.56 29.47 C 104.52 28.42, 104.49 27.81, 104.52 26.63 C 104.55 25.45, 104.59 24.80, 104.70 23.56 C 104.81 22.32, 104.88 21.63, 105.06 20.42 C 105.24 19.22, 105.36 18.59, 105.60 17.52 C 105.85 16.44, 105.99 15.93, 106.28 15.06 C 106.57 14.20, 106.74 13.83, 107.05 13.20 C 107.36 12.58, 107.53 12.34, 107.81 11.95 C 108.09 11.56, 108.21 11.44, 108.44 11.24 C 108.67 11.04, 108.79 11.02, 108.97 10.96 C 109.14 10.91, 109.20 10.90, 109.32 10.97 C 109.45 11.04, 109.48 11.14, 109.58 11.33 C 109.69 11.51, 109.76 11.67, 109.86 11.90 C 109.97 12.13, 110.00 12.28, 110.11 12.48 C 110.22 12.69, 110.29 12.86, 110.41 12.93 C 110.53 13.01, 110.64 12.98, 110.71 12.86"/>
<path d="M 101.47,24.05 C 101.54 24.10, 101.54 24.09, 101.74 24.11 C 101.95 24.14, 102.07 24.18, 102.48 24.18 C 102.90 24.17, 103.18 24.15, 103.81 24.11 C 104.44 24.07, 104.87 24.02, 105.63 23.96 C 106.39 23.89, 106.84 23.85, 107.63 23.77 C 108.42 23.69, 108.89 23.64, 109.58 23.55 C 110.27 23.45, 110.60 23.39, 111.07 23.31 C 111.54 23.22, 111.76 23.20, 111.93 23.13 C 112.10 23.05, 112.10 22.98, 111.93 22.92 C 111.75 22.85, 111.52 22.81, 111.04 22.79 C 110.55 22.77, 110.21 22.78, 109.51 22.82 C 108.82 22.86, 108.35 22.93, 107.56 22.99 C 106.77 23.05, 106.33 23.08, 105.56 23.13 C 104.80 23.18, 104.38 23.19, 103.75 23.24 C 103.12 23.29, 102.83 23.31, 102.42 23.38 C 102.00 23.45, 101.86 23.50, 101.66 23.59 C 101.45 23.68, 101.44 23.75, 101.40 23.84 C 101.36 23.93, 101.40 23.99, 101.47 24.05"/>
<path d="M 127.97,19.90 C 127.89 19.96, 127.86 20.00, 127.79 20.20 C 127.71 20.40, 127.67 20.52, 127.59 20.89 C 127.51 21.26, 127.49 21.51, 127.39 22.06 C 127.29 22.61, 127.21 22.95, 127.08 23.63 C 126.95 24.31, 126.86 24.75, 126.74 25.47 C 126.63 26.20, 126.55 26.58, 126.49 27.25 C 126.43 27.92, 126.39 28.34, 126.44 28.83 C 126.48 29.33, 126.58 29.52, 126.72 29.74 C 126.86 29.96, 127.01 29.94, 127.15 29.94 C 127.30 29.94, 127.41 29.81, 127.44 29.74 C 127.47 29.67, 127.37 29.58, 127.32 29.58 C 127.26 29.58, 127.20 29.72, 127.15 29.72 C 127.11 29.73, 127.10 29.77, 127.08 29.59 C 127.07 29.41, 127.05 29.27, 127.08 28.82 C 127.11 28.37, 127.14 27.98, 127.23 27.33 C 127.31 26.69, 127.38 26.32, 127.51 25.61 C 127.65 24.90, 127.76 24.47, 127.90 23.79 C 128.04 23.11, 128.13 22.77, 128.22 22.21 C 128.32 21.65, 128.35 21.38, 128.37 21.00 C 128.40 20.61, 128.37 20.47, 128.34 20.26 C 128.31 20.05, 128.28 20.00, 128.21 19.93 C 128.14 19.85, 128.06 19.85, 127.97 19.90"/>
<path d="M 128.86,13.31 C 128.95 13.22, 128.97 13.06, 128.96 12.92 C 128.94 12.78, 128.87 12.69, 128.78 12.63 C 128.68 12.57, 128.58 12.56, 128.48 12.62 C 128.39 12.69, 128.30 12.81, 128.30 12.96 C 128.30 13.11, 128.38 13.29, 128.50 13.36 C 128.61 13.43, 128.77 13.40, 128.86 13.31"/>
<path d="M 132.06,19.34 C 131.99 19.42, 132.00 19.48, 131.97 19.67 C 131.94 19.87, 131.94 19.99, 131.92 20.32 C 131.90 20.65, 131.90 20.85, 131.87 21.32 C 131.84 21.79, 131.82 22.09, 131.79 22.67 C 131.75 23.24, 131.72 23.59, 131.67 24.20 C 131.63 24.81, 131.60 25.15, 131.56 25.73 C 131.53 26.31, 131.47 26.64, 131.50 27.11 C 131.54 27.58, 131.58 27.81, 131.73 28.08 C 131.88 28.35, 132.00 28.45, 132.26 28.45 C 132.51 28.45, 132.67 28.36, 132.99 28.07 C 133.31 27.78, 133.48 27.52, 133.85 26.99 C 134.23 26.46, 134.44 26.09, 134.86 25.43 C 135.28 24.78, 135.53 24.37, 135.97 23.72 C 136.41 23.06, 136.66 22.71, 137.07 22.16 C 137.48 21.61, 137.69 21.34, 138.03 20.95 C 138.37 20.55, 138.53 20.39, 138.78 20.17 C 139.03 19.95, 139.14 19.88, 139.28 19.85 C 139.42 19.82, 139.42 19.86, 139.47 20.03 C 139.52 20.20, 139.53 20.34, 139.53 20.71 C 139.54 21.08, 139.53 21.33, 139.50 21.88 C 139.47 22.43, 139.43 22.81, 139.38 23.48 C 139.33 24.14, 139.29 24.54, 139.27 25.21 C 139.24 25.89, 139.19 26.24, 139.23 26.84 C 139.28 27.44, 139.29 27.76, 139.49 28.20 C 139.68 28.64, 139.84 28.84, 140.20 29.05 C 140.55 29.25, 140.78 29.29, 141.25 29.21 C 141.71 29.13, 141.98 29.02, 142.53 28.65 C 143.08 28.29, 143.40 28.01, 143.99 27.38 C 144.58 26.75, 144.87 26.34, 145.46 25.52 C 146.05 24.69, 146.37 24.20, 146.95 23.24 C 147.53 22.27, 147.84 21.72, 148.36 20.69 C 148.88 19.65, 149.13 19.08, 149.56 18.06 C 149.99 17.04, 150.20 16.53, 150.52 15.60 C 150.84 14.67, 150.98 14.19, 151.18 13.41 C 151.38 12.63, 151.46 12.26, 151.53 11.69 C 151.61 11.11, 151.64 10.86, 151.58 10.51 C 151.51 10.17, 151.41 10.03, 151.22 9.98 C 151.02 9.92, 150.85 9.97, 150.60 10.24 C 150.36 10.52, 150.22 10.76, 149.99 11.33 C 149.76 11.91, 149.66 12.31, 149.44 13.13 C 149.22 13.95, 149.11 14.46, 148.90 15.44 C 148.70 16.43, 148.59 17.01, 148.42 18.07 C 148.25 19.13, 148.17 19.71, 148.05 20.74 C 147.93 21.76, 147.87 22.29, 147.80 23.20 C 147.72 24.10, 147.70 24.54, 147.68 25.26 C 147.66 25.98, 147.64 26.32, 147.71 26.81 C 147.77 27.30, 147.82 27.48, 148.01 27.71 C 148.19 27.93, 148.35 27.99, 148.64 27.93 C 148.92 27.86, 149.11 27.74, 149.44 27.39 C 149.77 27.04, 149.93 26.75, 150.29 26.18 C 150.65 25.60, 150.83 25.19, 151.23 24.50 C 151.63 23.80, 151.85 23.39, 152.28 22.69 C 152.71 21.99, 152.95 21.61, 153.37 21.00 C 153.79 20.38, 154.00 20.09, 154.36 19.60 C 154.72 19.12, 154.91 18.90, 155.17 18.57 C 155.43 18.24, 155.54 18.11, 155.66 17.94 C 155.78 17.77, 155.80 17.70, 155.77 17.72 C 155.74 17.73, 155.66 17.79, 155.50 18.02 C 155.35 18.26, 155.23 18.47, 154.99 18.90 C 154.74 19.34, 154.59 19.64, 154.28 20.21 C 153.96 20.79, 153.76 21.14, 153.42 21.78 C 153.08 22.42, 152.87 22.77, 152.58 23.40 C 152.29 24.04, 152.12 24.39, 151.98 24.96 C 151.84 25.54, 151.80 25.84, 151.87 26.30 C 151.95 26.76, 152.04 26.97, 152.35 27.27 C 152.65 27.58, 152.85 27.72, 153.39 27.84 C 153.93 27.96, 154.40 27.95, 155.06 27.87 C 155.72 27.80, 156.12 27.66, 156.69 27.47 C 157.25 27.27, 157.66 27.06, 157.89 26.89 C 158.11 26.71, 158.08 26.63, 157.80 26.60 C 157.53 26.58, 157.08 26.67, 156.51 26.76 C 155.94 26.84, 155.56 26.95, 154.96 27.03 C 154.35 27.11, 153.94 27.18, 153.49 27.16 C 153.03 27.14, 152.90 27.11, 152.68 26.92 C 152.47 26.74, 152.42 26.60, 152.41 26.24 C 152.39 25.89, 152.44 25.65, 152.61 25.14 C 152.78 24.64, 152.95 24.32, 153.25 23.72 C 153.55 23.12, 153.76 22.78, 154.11 22.16 C 154.46 21.54, 154.69 21.20, 155.02 20.63 C 155.35 20.05, 155.54 19.77, 155.76 19.29 C 155.97 18.80, 156.05 18.55, 156.09 18.22 C 156.12 17.88, 156.05 17.73, 155.92 17.61 C 155.78 17.49, 155.64 17.50, 155.40 17.61 C 155.16 17.73, 155.03 17.86, 154.72 18.18 C 154.41 18.50, 154.23 18.72, 153.85 19.21 C 153.46 19.69, 153.23 19.98, 152.79 20.59 C 152.35 21.21, 152.08 21.58, 151.63 22.28 C 151.17 22.97, 150.93 23.39, 150.51 24.08 C 150.10 24.77, 149.88 25.16, 149.55 25.74 C 149.22 26.32, 149.09 26.59, 148.88 26.96 C 148.66 27.33, 148.60 27.47, 148.49 27.59 C 148.37 27.70, 148.35 27.70, 148.30 27.53 C 148.26 27.37, 148.26 27.22, 148.26 26.77 C 148.26 26.32, 148.27 25.99, 148.32 25.29 C 148.36 24.59, 148.39 24.15, 148.48 23.26 C 148.57 22.37, 148.63 21.84, 148.77 20.83 C 148.90 19.82, 148.98 19.24, 149.17 18.19 C 149.35 17.15, 149.47 16.58, 149.69 15.61 C 149.91 14.64, 150.04 14.15, 150.26 13.35 C 150.48 12.54, 150.60 12.16, 150.76 11.60 C 150.93 11.03, 150.99 10.81, 151.07 10.52 C 151.15 10.23, 151.16 10.15, 151.17 10.16 C 151.18 10.16, 151.18 10.24, 151.13 10.53 C 151.09 10.81, 151.07 11.04, 150.95 11.58 C 150.83 12.13, 150.77 12.48, 150.56 13.24 C 150.34 14.00, 150.21 14.46, 149.88 15.37 C 149.55 16.28, 149.35 16.78, 148.91 17.78 C 148.48 18.78, 148.23 19.34, 147.70 20.35 C 147.18 21.36, 146.88 21.90, 146.30 22.85 C 145.73 23.79, 145.41 24.26, 144.83 25.06 C 144.25 25.86, 143.95 26.24, 143.41 26.84 C 142.86 27.44, 142.56 27.69, 142.10 28.06 C 141.64 28.42, 141.45 28.55, 141.11 28.66 C 140.78 28.78, 140.65 28.77, 140.44 28.64 C 140.22 28.50, 140.13 28.37, 140.02 28.00 C 139.92 27.64, 139.92 27.36, 139.92 26.81 C 139.92 26.27, 139.97 25.92, 140.03 25.26 C 140.08 24.61, 140.14 24.22, 140.20 23.54 C 140.27 22.87, 140.33 22.49, 140.34 21.91 C 140.34 21.32, 140.33 21.05, 140.24 20.63 C 140.15 20.20, 140.07 20.02, 139.87 19.79 C 139.68 19.55, 139.55 19.47, 139.26 19.46 C 138.98 19.45, 138.80 19.52, 138.46 19.73 C 138.12 19.95, 137.95 20.12, 137.57 20.52 C 137.18 20.92, 136.96 21.18, 136.52 21.73 C 136.07 22.28, 135.81 22.62, 135.33 23.27 C 134.86 23.91, 134.59 24.31, 134.15 24.96 C 133.71 25.61, 133.47 25.97, 133.13 26.51 C 132.80 27.05, 132.67 27.32, 132.48 27.65 C 132.29 27.98, 132.27 28.10, 132.20 28.16 C 132.14 28.22, 132.16 28.15, 132.15 27.94 C 132.15 27.73, 132.15 27.54, 132.17 27.11 C 132.20 26.68, 132.24 26.36, 132.30 25.79 C 132.35 25.22, 132.38 24.88, 132.44 24.27 C 132.50 23.66, 132.54 23.31, 132.59 22.73 C 132.64 22.15, 132.68 21.85, 132.70 21.36 C 132.72 20.88, 132.73 20.66, 132.71 20.30 C 132.68 19.95, 132.63 19.80, 132.55 19.60 C 132.47 19.39, 132.41 19.33, 132.31 19.28 C 132.21 19.23, 132.13 19.26, 132.06 19.34"/>
<path d="M 165.70,26.60 C 165.57 26.72, 165.47 26.88, 165.27 27.32 C 165.06 27.76, 164.95 28.10, 164.68 28.79 C 164.40 29.49, 164.21 29.98, 163.89 30.81 C 163.58 31.63, 163.38 32.13, 163.10 32.91 C 162.82 33.70, 162.66 34.13, 162.50 34.74 C 162.33 35.34, 162.30 35.58, 162.26 35.93 C 162.23 36.28, 162.28 36.36, 162.31 36.48 C 162.35 36.59, 162.39 36.59, 162.46 36.50 C 162.53 36.41, 162.52 36.34, 162.65 36.03 C 162.78 35.72, 162.89 35.52, 163.12 34.95 C 163.36 34.38, 163.51 33.96, 163.83 33.19 C 164.14 32.43, 164.37 31.95, 164.70 31.12 C 165.03 30.30, 165.24 29.80, 165.47 29.08 C 165.70 28.35, 165.76 27.99, 165.85 27.51 C 165.95 27.03, 165.98 26.86, 165.95 26.68 C 165.92 26.50, 165.84 26.47, 165.70 26.60"/>
<path d="M 184.23,10.28 C 184.14 10.36, 184.13 10.43, 184.04 10.68 C 183.95 10.94, 183.89 11.08, 183.77 11.55 C 183.65 12.02, 183.59 12.34, 183.45 13.05 C 183.31 13.76, 183.24 14.21, 183.09 15.11 C 182.93 16.01, 182.83 16.54, 182.66 17.55 C 182.49 18.56, 182.40 19.13, 182.24 20.18 C 182.07 21.23, 181.97 21.82, 181.85 22.79 C 181.72 23.77, 181.68 24.27, 181.63 25.06 C 181.57 25.85, 181.56 26.22, 181.57 26.76 C 181.57 27.30, 181.60 27.48, 181.65 27.76 C 181.70 28.04, 181.77 28.08, 181.82 28.16 C 181.88 28.24, 181.90 28.17, 181.92 28.17 C 181.94 28.17, 181.91 28.17, 181.93 28.17 C 181.95 28.16, 181.98 28.23, 182.01 28.14 C 182.04 28.06, 182.07 28.01, 182.09 27.74 C 182.12 27.47, 182.10 27.30, 182.14 26.78 C 182.18 26.26, 182.20 25.90, 182.28 25.12 C 182.37 24.34, 182.42 23.85, 182.56 22.89 C 182.70 21.93, 182.80 21.34, 182.98 20.30 C 183.15 19.25, 183.24 18.69, 183.42 17.68 C 183.61 16.67, 183.71 16.15, 183.88 15.25 C 184.05 14.36, 184.14 13.91, 184.27 13.20 C 184.40 12.49, 184.47 12.18, 184.53 11.69 C 184.60 11.21, 184.60 11.05, 184.59 10.77 C 184.58 10.49, 184.55 10.40, 184.48 10.30 C 184.41 10.21, 184.32 10.20, 184.23 10.28"/>
<path d="M 178.14,19.97 C 178.21 20.09, 178.30 20.20, 178.57 20.32 C 178.83 20.44, 178.99 20.50, 179.46 20.57 C 179.93 20.64, 180.28 20.68, 180.93 20.64 C 181.58 20.60, 181.98 20.53, 182.73 20.37 C 183.47 20.21, 183.87 20.10, 184.65 19.85 C 185.42 19.60, 185.86 19.46, 186.62 19.11 C 187.37 18.76, 187.76 18.54, 188.43 18.09 C 189.11 17.64, 189.42 17.40, 189.98 16.86 C 190.53 16.32, 190.79 16.00, 191.22 15.39 C 191.65 14.78, 191.84 14.44, 192.12 13.81 C 192.39 13.19, 192.48 12.85, 192.60 12.29 C 192.71 11.72, 192.74 11.41, 192.70 10.96 C 192.65 10.52, 192.57 10.27, 192.38 10.05 C 192.18 9.82, 192.00 9.76, 191.73 9.84 C 191.47 9.91, 191.30 10.04, 191.03 10.43 C 190.77 10.81, 190.63 11.08, 190.40 11.74 C 190.16 12.40, 190.07 12.85, 189.88 13.71 C 189.68 14.57, 189.60 15.09, 189.43 16.04 C 189.26 17.00, 189.17 17.51, 189.04 18.49 C 188.92 19.47, 188.86 20.01, 188.80 20.93 C 188.73 21.85, 188.72 22.33, 188.71 23.08 C 188.71 23.84, 188.70 24.18, 188.79 24.71 C 188.88 25.24, 188.94 25.46, 189.16 25.72 C 189.37 25.98, 189.53 26.04, 189.86 26.00 C 190.18 25.95, 190.38 25.84, 190.78 25.51 C 191.19 25.17, 191.41 24.89, 191.87 24.33 C 192.33 23.77, 192.57 23.39, 193.07 22.73 C 193.56 22.07, 193.84 21.67, 194.34 21.03 C 194.84 20.39, 195.11 20.03, 195.57 19.51 C 196.03 18.98, 196.29 18.75, 196.64 18.41 C 197.00 18.07, 197.17 17.94, 197.36 17.83 C 197.56 17.72, 197.59 17.71, 197.62 17.86 C 197.65 18.00, 197.61 18.15, 197.54 18.55 C 197.46 18.96, 197.37 19.25, 197.22 19.87 C 197.07 20.50, 196.96 20.93, 196.80 21.68 C 196.64 22.43, 196.52 22.89, 196.43 23.61 C 196.34 24.33, 196.29 24.71, 196.33 25.30 C 196.38 25.89, 196.43 26.19, 196.64 26.57 C 196.85 26.95, 197.01 27.10, 197.40 27.19 C 197.78 27.29, 198.05 27.25, 198.57 27.05 C 199.09 26.84, 199.39 26.63, 199.99 26.17 C 200.59 25.71, 200.92 25.37, 201.57 24.74 C 202.21 24.10, 202.58 23.69, 203.21 22.99 C 203.84 22.29, 204.19 21.88, 204.71 21.24 C 205.24 20.60, 205.52 20.23, 205.84 19.77 C 206.16 19.31, 206.24 19.09, 206.32 18.93 C 206.41 18.78, 206.34 18.80, 206.25 18.99 C 206.16 19.18, 206.02 19.39, 205.87 19.87 C 205.71 20.36, 205.59 20.76, 205.46 21.42 C 205.32 22.08, 205.27 22.50, 205.18 23.18 C 205.10 23.85, 205.04 24.21, 205.03 24.79 C 205.03 25.37, 205.03 25.68, 205.17 26.07 C 205.31 26.46, 205.48 26.58, 205.73 26.73 C 205.98 26.89, 206.18 26.89, 206.42 26.84 C 206.65 26.79, 206.83 26.61, 206.90 26.49 C 206.97 26.37, 206.87 26.24, 206.75 26.22 C 206.64 26.20, 206.48 26.35, 206.32 26.38 C 206.17 26.41, 206.09 26.47, 205.96 26.38 C 205.84 26.29, 205.74 26.24, 205.70 25.93 C 205.65 25.62, 205.67 25.35, 205.73 24.82 C 205.78 24.30, 205.85 23.95, 205.98 23.31 C 206.11 22.66, 206.24 22.26, 206.37 21.60 C 206.50 20.95, 206.60 20.55, 206.64 20.03 C 206.68 19.50, 206.69 19.25, 206.59 18.99 C 206.50 18.73, 206.41 18.63, 206.17 18.71 C 205.92 18.79, 205.76 18.96, 205.36 19.37 C 204.95 19.78, 204.70 20.14, 204.15 20.76 C 203.61 21.38, 203.26 21.78, 202.63 22.46 C 202.00 23.14, 201.62 23.54, 200.99 24.15 C 200.36 24.77, 200.03 25.09, 199.49 25.55 C 198.95 26.01, 198.68 26.21, 198.28 26.45 C 197.88 26.70, 197.72 26.78, 197.48 26.76 C 197.24 26.74, 197.18 26.66, 197.08 26.37 C 196.98 26.07, 196.96 25.82, 196.98 25.29 C 197.00 24.76, 197.05 24.41, 197.18 23.73 C 197.31 23.04, 197.45 22.61, 197.63 21.87 C 197.81 21.13, 197.95 20.70, 198.07 20.05 C 198.18 19.39, 198.24 19.07, 198.21 18.59 C 198.18 18.12, 198.12 17.90, 197.92 17.67 C 197.73 17.44, 197.58 17.39, 197.25 17.44 C 196.91 17.49, 196.69 17.62, 196.25 17.93 C 195.82 18.25, 195.56 18.51, 195.05 19.03 C 194.55 19.56, 194.27 19.92, 193.74 20.55 C 193.21 21.19, 192.92 21.58, 192.41 22.23 C 191.91 22.87, 191.63 23.24, 191.20 23.80 C 190.78 24.36, 190.57 24.64, 190.28 25.01 C 189.99 25.37, 189.91 25.52, 189.74 25.62 C 189.58 25.72, 189.55 25.71, 189.47 25.52 C 189.40 25.32, 189.38 25.14, 189.36 24.65 C 189.34 24.17, 189.35 23.83, 189.38 23.10 C 189.41 22.36, 189.43 21.89, 189.51 20.98 C 189.59 20.08, 189.64 19.55, 189.77 18.59 C 189.91 17.63, 190.01 17.12, 190.19 16.18 C 190.38 15.25, 190.49 14.74, 190.69 13.90 C 190.89 13.06, 191.00 12.63, 191.19 12.00 C 191.38 11.37, 191.49 11.12, 191.63 10.75 C 191.77 10.38, 191.81 10.25, 191.89 10.16 C 191.97 10.06, 191.99 10.09, 192.03 10.26 C 192.07 10.42, 192.10 10.61, 192.09 10.99 C 192.07 11.36, 192.07 11.64, 191.95 12.15 C 191.84 12.66, 191.76 12.97, 191.50 13.54 C 191.24 14.11, 191.06 14.44, 190.67 15.00 C 190.27 15.57, 190.03 15.87, 189.51 16.38 C 188.99 16.88, 188.69 17.10, 188.05 17.52 C 187.42 17.94, 187.04 18.13, 186.32 18.46 C 185.59 18.78, 185.17 18.91, 184.42 19.14 C 183.67 19.37, 183.28 19.47, 182.57 19.60 C 181.86 19.73, 181.49 19.77, 180.88 19.81 C 180.27 19.85, 179.96 19.80, 179.52 19.79 C 179.09 19.78, 178.96 19.78, 178.71 19.77 C 178.45 19.75, 178.37 19.68, 178.25 19.73 C 178.14 19.77, 178.08 19.85, 178.14 19.97"/>
<path d="M 207.72,11.12 C 207.78 11.04, 207.80 10.96, 207.77 10.92 C 207.74 10.88, 207.66 10.88, 207.56 10.92 C 207.46 10.95, 207.35 11.01, 207.28 11.09 C 207.21 11.17, 207.18 11.26, 207.21 11.31 C 207.24 11.36, 207.34 11.37, 207.44 11.33 C 207.54 11.29, 207.65 11.20, 207.72 11.12"/>
<path d="M 210.55,19.13 C 210.47 19.21, 210.46 19.30, 210.42 19.50 C 210.38 19.71, 210.37 19.83, 210.35 20.17 C 210.33 20.51, 210.33 20.73, 210.30 21.21 C 210.26 21.68, 210.24 21.98, 210.19 22.55 C 210.14 23.13, 210.10 23.49, 210.05 24.08 C 210.00 24.68, 209.95 25.01, 209.95 25.53 C 209.94 26.06, 209.94 26.34, 210.04 26.70 C 210.15 27.06, 210.26 27.21, 210.47 27.33 C 210.68 27.44, 210.82 27.43, 211.10 27.27 C 211.37 27.11, 211.53 26.95, 211.85 26.53 C 212.17 26.11, 212.35 25.79, 212.71 25.17 C 213.08 24.55, 213.26 24.15, 213.68 23.44 C 214.11 22.73, 214.36 22.32, 214.84 21.62 C 215.32 20.92, 215.59 20.55, 216.07 19.95 C 216.54 19.34, 216.79 19.05, 217.20 18.61 C 217.62 18.16, 217.84 17.96, 218.14 17.71 C 218.44 17.46, 218.55 17.39, 218.70 17.37 C 218.85 17.35, 218.87 17.39, 218.90 17.62 C 218.94 17.85, 218.91 18.04, 218.87 18.52 C 218.83 19.00, 218.79 19.35, 218.72 20.01 C 218.65 20.68, 218.60 21.11, 218.52 21.86 C 218.44 22.61, 218.36 23.06, 218.32 23.78 C 218.28 24.51, 218.24 24.89, 218.31 25.50 C 218.37 26.10, 218.44 26.41, 218.65 26.81 C 218.86 27.21, 219.02 27.37, 219.37 27.50 C 219.73 27.64, 219.96 27.64, 220.44 27.47 C 220.92 27.30, 221.21 27.12, 221.77 26.65 C 222.33 26.17, 222.66 25.81, 223.25 25.08 C 223.84 24.35, 224.15 23.91, 224.73 23.00 C 225.32 22.09, 225.63 21.54, 226.19 20.52 C 226.75 19.50, 227.03 18.93, 227.53 17.89 C 228.04 16.85, 228.29 16.30, 228.72 15.33 C 229.14 14.36, 229.33 13.88, 229.67 13.05 C 230.01 12.21, 230.17 11.81, 230.40 11.16 C 230.63 10.51, 230.76 10.19, 230.83 9.79 C 230.90 9.40, 230.86 9.23, 230.75 9.18 C 230.64 9.14, 230.50 9.22, 230.28 9.56 C 230.06 9.90, 229.90 10.21, 229.65 10.90 C 229.40 11.59, 229.27 12.07, 229.01 13.01 C 228.76 13.95, 228.63 14.53, 228.38 15.58 C 228.14 16.63, 227.99 17.22, 227.77 18.27 C 227.55 19.32, 227.44 19.87, 227.29 20.82 C 227.14 21.78, 227.10 22.26, 227.02 23.04 C 226.94 23.81, 226.90 24.16, 226.90 24.71 C 226.90 25.26, 226.90 25.50, 227.02 25.79 C 227.13 26.08, 227.24 26.17, 227.45 26.16 C 227.66 26.16, 227.80 26.05, 228.06 25.77 C 228.32 25.49, 228.46 25.27, 228.75 24.77 C 229.04 24.26, 229.17 23.89, 229.52 23.25 C 229.87 22.61, 230.09 22.22, 230.50 21.57 C 230.92 20.91, 231.16 20.55, 231.59 19.96 C 232.02 19.38, 232.25 19.09, 232.64 18.62 C 233.04 18.16, 233.24 17.97, 233.57 17.66 C 233.90 17.34, 234.05 17.21, 234.28 17.04 C 234.52 16.87, 234.63 16.85, 234.74 16.78 C 234.86 16.72, 234.90 16.68, 234.87 16.73 C 234.84 16.78, 234.77 16.82, 234.60 17.05 C 234.42 17.28, 234.29 17.47, 234.01 17.89 C 233.74 18.31, 233.58 18.62, 233.22 19.16 C 232.87 19.69, 232.63 20.00, 232.25 20.57 C 231.87 21.14, 231.63 21.47, 231.32 22.01 C 231.01 22.55, 230.87 22.83, 230.71 23.28 C 230.56 23.73, 230.50 23.93, 230.53 24.26 C 230.57 24.59, 230.65 24.74, 230.90 24.92 C 231.15 25.10, 231.36 25.18, 231.78 25.18 C 232.21 25.18, 232.48 25.12, 233.03 24.92 C 233.57 24.72, 233.89 24.54, 234.51 24.20 C 235.13 23.87, 235.48 23.65, 236.12 23.25 C 236.76 22.86, 237.12 22.62, 237.72 22.22 C 238.33 21.83, 238.62 21.61, 239.14 21.26 C 239.67 20.91, 239.96 20.76, 240.34 20.46 C 240.73 20.17, 240.92 19.97, 241.09 19.78 C 241.26 19.60, 241.24 19.51, 241.21 19.53 C 241.17 19.54, 241.08 19.62, 240.94 19.86 C 240.79 20.10, 240.65 20.30, 240.47 20.74 C 240.28 21.18, 240.16 21.52, 240.02 22.06 C 239.89 22.60, 239.82 22.93, 239.79 23.44 C 239.75 23.96, 239.76 24.23, 239.85 24.63 C 239.94 25.03, 240.02 25.22, 240.25 25.45 C 240.48 25.67, 240.65 25.75, 240.98 25.75 C 241.32 25.76, 241.53 25.70, 241.93 25.48 C 242.33 25.26, 242.54 25.05, 242.98 24.63 C 243.42 24.21, 243.66 23.92, 244.12 23.37 C 244.57 22.82, 244.81 22.47, 245.24 21.86 C 245.67 21.25, 245.89 20.90, 246.27 20.32 C 246.64 19.75, 246.83 19.44, 247.09 18.97 C 247.36 18.49, 247.48 18.24, 247.60 17.96 C 247.72 17.68, 247.72 17.58, 247.69 17.57 C 247.66 17.57, 247.57 17.65, 247.47 17.92 C 247.36 18.19, 247.27 18.42, 247.16 18.91 C 247.05 19.39, 246.99 19.75, 246.91 20.34 C 246.83 20.93, 246.80 21.28, 246.76 21.86 C 246.72 22.44, 246.67 22.74, 246.70 23.23 C 246.73 23.72, 246.75 23.98, 246.90 24.30 C 247.05 24.63, 247.19 24.76, 247.46 24.87 C 247.74 24.97, 247.91 24.97, 248.27 24.83 C 248.63 24.69, 248.85 24.54, 249.27 24.16 C 249.69 23.78, 249.92 23.48, 250.36 22.93 C 250.79 22.37, 251.03 22.01, 251.47 21.39 C 251.90 20.77, 252.14 20.41, 252.54 19.83 C 252.94 19.25, 253.15 18.94, 253.45 18.50 C 253.75 18.06, 253.89 17.85, 254.04 17.61 C 254.19 17.38, 254.18 17.30, 254.18 17.32 C 254.18 17.33, 254.11 17.41, 254.02 17.68 C 253.94 17.96, 253.86 18.20, 253.74 18.70 C 253.63 19.20, 253.56 19.55, 253.46 20.17 C 253.37 20.79, 253.29 21.17, 253.28 21.81 C 253.26 22.44, 253.26 22.80, 253.39 23.34 C 253.52 23.87, 253.63 24.14, 253.95 24.49 C 254.27 24.85, 254.49 25.00, 254.99 25.13 C 255.49 25.25, 255.83 25.26, 256.46 25.14 C 257.10 25.01, 257.48 24.85, 258.18 24.50 C 258.89 24.14, 259.29 23.88, 260.00 23.37 C 260.71 22.87, 261.10 22.55, 261.72 21.97 C 262.34 21.40, 262.64 21.07, 263.11 20.51 C 263.58 19.95, 263.79 19.65, 264.05 19.17 C 264.32 18.68, 264.41 18.43, 264.44 18.06 C 264.47 17.68, 264.42 17.51, 264.22 17.28 C 264.02 17.05, 263.83 16.96, 263.45 16.90 C 263.07 16.85, 262.81 16.88, 262.32 17.02 C 261.83 17.17, 261.53 17.31, 261.00 17.63 C 260.47 17.96, 260.16 18.19, 259.68 18.65 C 259.20 19.12, 258.96 19.41, 258.60 19.94 C 258.24 20.48, 258.06 20.80, 257.88 21.32 C 257.70 21.85, 257.65 22.15, 257.69 22.59 C 257.74 23.03, 257.85 23.25, 258.13 23.52 C 258.40 23.79, 258.62 23.90, 259.07 23.95 C 259.52 24.00, 259.82 23.95, 260.38 23.78 C 260.94 23.61, 261.28 23.43, 261.86 23.08 C 262.44 22.73, 262.76 22.48, 263.28 22.04 C 263.81 21.60, 264.08 21.33, 264.49 20.89 C 264.90 20.45, 265.11 20.21, 265.34 19.85 C 265.57 19.49, 265.61 19.27, 265.63 19.08 C 265.65 18.89, 265.55 18.82, 265.43 18.89 C 265.30 18.95, 265.19 19.03, 264.99 19.39 C 264.80 19.75, 264.64 20.03, 264.44 20.70 C 264.24 21.36, 264.16 21.83, 263.99 22.72 C 263.83 23.61, 263.77 24.13, 263.63 25.15 C 263.49 26.17, 263.40 26.74, 263.30 27.82 C 263.19 28.91, 263.19 29.51, 263.10 30.59 C 263.01 31.66, 262.96 32.21, 262.83 33.20 C 262.70 34.18, 262.63 34.68, 262.47 35.51 C 262.30 36.35, 262.22 36.75, 261.99 37.36 C 261.76 37.97, 261.61 38.22, 261.32 38.57 C 261.03 38.92, 260.87 39.02, 260.54 39.12 C 260.21 39.21, 260.03 39.18, 259.65 39.03 C 259.28 38.88, 259.05 38.73, 258.66 38.37 C 258.28 38.01, 258.06 37.73, 257.71 37.22 C 257.37 36.70, 257.17 36.39, 256.93 35.77 C 256.69 35.16, 256.56 34.82, 256.52 34.14 C 256.47 33.45, 256.57 33.01, 256.69 32.35 C 256.82 31.68, 256.97 31.35, 257.14 30.82 C 257.30 30.30, 257.48 29.97, 257.51 29.72 C 257.54 29.48, 257.47 29.43, 257.29 29.61 C 257.10 29.78, 256.85 30.08, 256.59 30.60 C 256.33 31.12, 256.13 31.48, 255.97 32.20 C 255.82 32.92, 255.74 33.42, 255.80 34.19 C 255.85 34.96, 256.00 35.34, 256.26 36.03 C 256.51 36.72, 256.70 37.06, 257.08 37.64 C 257.47 38.21, 257.71 38.52, 258.19 38.92 C 258.66 39.31, 258.97 39.47, 259.47 39.61 C 259.97 39.74, 260.23 39.74, 260.68 39.60 C 261.14 39.47, 261.35 39.33, 261.73 38.93 C 262.10 38.52, 262.29 38.24, 262.56 37.59 C 262.84 36.93, 262.92 36.51, 263.11 35.65 C 263.30 34.79, 263.38 34.29, 263.52 33.29 C 263.66 32.29, 263.71 31.73, 263.81 30.65 C 263.92 29.58, 263.92 28.98, 264.04 27.90 C 264.15 26.82, 264.24 26.27, 264.39 25.27 C 264.55 24.26, 264.64 23.75, 264.82 22.88 C 265.00 22.02, 265.13 21.59, 265.30 20.94 C 265.47 20.29, 265.59 20.02, 265.66 19.62 C 265.73 19.23, 265.70 19.09, 265.64 18.95 C 265.58 18.81, 265.51 18.81, 265.34 18.91 C 265.18 19.01, 265.10 19.16, 264.83 19.45 C 264.55 19.75, 264.38 19.99, 263.97 20.39 C 263.57 20.78, 263.30 21.04, 262.80 21.44 C 262.29 21.84, 261.98 22.06, 261.45 22.39 C 260.91 22.71, 260.60 22.87, 260.13 23.06 C 259.66 23.25, 259.42 23.32, 259.09 23.35 C 258.76 23.37, 258.63 23.33, 258.46 23.17 C 258.29 23.01, 258.24 22.88, 258.25 22.56 C 258.26 22.24, 258.32 22.00, 258.51 21.56 C 258.70 21.12, 258.86 20.83, 259.20 20.36 C 259.54 19.89, 259.76 19.62, 260.21 19.22 C 260.65 18.81, 260.95 18.61, 261.42 18.32 C 261.89 18.02, 262.17 17.91, 262.57 17.75 C 262.97 17.59, 263.17 17.54, 263.44 17.50 C 263.71 17.45, 263.83 17.45, 263.94 17.55 C 264.05 17.64, 264.06 17.71, 263.98 17.98 C 263.90 18.24, 263.81 18.43, 263.53 18.85 C 263.25 19.27, 263.05 19.55, 262.59 20.06 C 262.13 20.57, 261.83 20.89, 261.22 21.42 C 260.61 21.96, 260.23 22.26, 259.55 22.74 C 258.87 23.21, 258.48 23.46, 257.83 23.80 C 257.18 24.14, 256.85 24.30, 256.30 24.45 C 255.76 24.60, 255.50 24.62, 255.11 24.55 C 254.72 24.49, 254.58 24.41, 254.36 24.14 C 254.14 23.87, 254.09 23.67, 254.02 23.21 C 253.96 22.75, 253.98 22.43, 254.04 21.85 C 254.10 21.28, 254.21 20.92, 254.32 20.32 C 254.44 19.71, 254.55 19.36, 254.61 18.84 C 254.66 18.32, 254.67 18.04, 254.60 17.70 C 254.53 17.37, 254.45 17.24, 254.27 17.16 C 254.09 17.07, 253.98 17.10, 253.71 17.29 C 253.44 17.47, 253.27 17.67, 252.91 18.09 C 252.56 18.51, 252.35 18.83, 251.93 19.40 C 251.51 19.96, 251.27 20.32, 250.82 20.92 C 250.37 21.53, 250.12 21.87, 249.70 22.40 C 249.27 22.94, 249.05 23.21, 248.70 23.60 C 248.36 23.98, 248.21 24.14, 247.99 24.32 C 247.77 24.51, 247.71 24.54, 247.60 24.50 C 247.48 24.47, 247.44 24.39, 247.40 24.14 C 247.35 23.88, 247.35 23.66, 247.38 23.23 C 247.40 22.79, 247.44 22.49, 247.52 21.94 C 247.61 21.39, 247.68 21.05, 247.78 20.48 C 247.88 19.90, 247.98 19.55, 248.03 19.04 C 248.08 18.54, 248.08 18.28, 248.02 17.96 C 247.96 17.65, 247.90 17.50, 247.73 17.45 C 247.57 17.39, 247.44 17.44, 247.20 17.68 C 246.96 17.91, 246.82 18.16, 246.52 18.61 C 246.21 19.06, 246.04 19.36, 245.66 19.92 C 245.28 20.49, 245.05 20.82, 244.62 21.41 C 244.18 22.00, 243.93 22.33, 243.49 22.86 C 243.05 23.39, 242.80 23.65, 242.41 24.06 C 242.01 24.47, 241.83 24.66, 241.54 24.90 C 241.25 25.14, 241.13 25.21, 240.94 25.26 C 240.75 25.31, 240.69 25.29, 240.59 25.14 C 240.49 25.00, 240.46 24.87, 240.45 24.55 C 240.44 24.22, 240.44 23.98, 240.53 23.54 C 240.61 23.09, 240.71 22.80, 240.87 22.30 C 241.03 21.80, 241.19 21.49, 241.32 21.03 C 241.45 20.58, 241.51 20.34, 241.51 20.02 C 241.52 19.69, 241.48 19.55, 241.35 19.42 C 241.21 19.30, 241.12 19.30, 240.84 19.40 C 240.57 19.50, 240.39 19.66, 239.97 19.92 C 239.56 20.18, 239.30 20.35, 238.77 20.69 C 238.24 21.03, 237.94 21.23, 237.33 21.61 C 236.72 21.99, 236.36 22.21, 235.72 22.58 C 235.08 22.96, 234.72 23.17, 234.13 23.49 C 233.53 23.80, 233.22 23.97, 232.74 24.18 C 232.25 24.39, 232.04 24.46, 231.72 24.53 C 231.39 24.61, 231.26 24.61, 231.12 24.56 C 230.97 24.50, 230.94 24.47, 230.97 24.26 C 231.00 24.05, 231.09 23.90, 231.28 23.52 C 231.48 23.15, 231.62 22.88, 231.94 22.38 C 232.26 21.89, 232.51 21.58, 232.90 21.03 C 233.30 20.48, 233.56 20.17, 233.93 19.63 C 234.30 19.09, 234.50 18.80, 234.75 18.34 C 235.01 17.87, 235.12 17.66, 235.21 17.32 C 235.29 16.98, 235.27 16.82, 235.16 16.64 C 235.06 16.45, 234.92 16.40, 234.69 16.39 C 234.45 16.38, 234.30 16.42, 234.00 16.58 C 233.69 16.74, 233.53 16.89, 233.16 17.21 C 232.79 17.53, 232.58 17.72, 232.15 18.18 C 231.72 18.65, 231.48 18.94, 231.01 19.53 C 230.55 20.12, 230.29 20.47, 229.84 21.14 C 229.40 21.80, 229.15 22.19, 228.78 22.84 C 228.41 23.48, 228.24 23.85, 228.00 24.37 C 227.75 24.89, 227.66 25.12, 227.54 25.44 C 227.42 25.76, 227.43 25.90, 227.40 25.95 C 227.37 26.01, 227.39 25.97, 227.41 25.72 C 227.42 25.48, 227.43 25.26, 227.49 24.74 C 227.54 24.22, 227.56 23.87, 227.66 23.11 C 227.76 22.35, 227.81 21.88, 227.98 20.94 C 228.14 20.00, 228.26 19.46, 228.50 18.42 C 228.73 17.39, 228.88 16.81, 229.16 15.77 C 229.43 14.73, 229.59 14.16, 229.85 13.24 C 230.11 12.32, 230.27 11.85, 230.46 11.16 C 230.65 10.46, 230.74 10.14, 230.79 9.75 C 230.85 9.36, 230.82 9.22, 230.74 9.20 C 230.65 9.18, 230.55 9.29, 230.37 9.64 C 230.18 9.98, 230.07 10.30, 229.81 10.93 C 229.55 11.57, 229.40 11.97, 229.06 12.79 C 228.72 13.62, 228.52 14.09, 228.09 15.05 C 227.65 16.01, 227.40 16.55, 226.88 17.57 C 226.37 18.59, 226.09 19.16, 225.53 20.16 C 224.97 21.16, 224.67 21.69, 224.09 22.58 C 223.50 23.46, 223.19 23.88, 222.62 24.58 C 222.06 25.27, 221.74 25.60, 221.25 26.07 C 220.76 26.54, 220.53 26.72, 220.19 26.92 C 219.84 27.13, 219.72 27.17, 219.51 27.10 C 219.30 27.04, 219.24 26.93, 219.13 26.60 C 219.02 26.27, 218.98 26.00, 218.97 25.45 C 218.96 24.90, 218.99 24.54, 219.06 23.84 C 219.14 23.14, 219.23 22.71, 219.33 21.96 C 219.43 21.21, 219.51 20.78, 219.57 20.10 C 219.63 19.41, 219.67 19.04, 219.63 18.51 C 219.58 17.98, 219.52 17.74, 219.34 17.44 C 219.15 17.14, 219.02 17.05, 218.71 17.01 C 218.41 16.98, 218.23 17.03, 217.83 17.26 C 217.43 17.48, 217.19 17.70, 216.73 18.15 C 216.27 18.60, 216.02 18.89, 215.52 19.50 C 215.01 20.11, 214.72 20.48, 214.22 21.18 C 213.71 21.89, 213.44 22.31, 213.00 23.02 C 212.55 23.73, 212.33 24.12, 211.97 24.73 C 211.61 25.35, 211.43 25.66, 211.19 26.10 C 210.95 26.54, 210.88 26.72, 210.77 26.92 C 210.66 27.12, 210.67 27.16, 210.64 27.10 C 210.61 27.03, 210.60 26.92, 210.60 26.62 C 210.61 26.31, 210.62 26.06, 210.66 25.56 C 210.71 25.07, 210.76 24.75, 210.83 24.16 C 210.90 23.57, 210.95 23.21, 211.00 22.63 C 211.06 22.05, 211.10 21.75, 211.12 21.26 C 211.15 20.76, 211.15 20.52, 211.13 20.17 C 211.10 19.81, 211.06 19.68, 211.00 19.47 C 210.93 19.26, 210.90 19.18, 210.81 19.11 C 210.73 19.04, 210.63 19.05, 210.55 19.13"/>
<path d="M 294.84,17.84 C 294.87 17.71, 294.84 17.57, 294.75 17.35 C 294.65 17.14, 294.56 17.01, 294.36 16.77 C 294.16 16.54, 294.04 16.38, 293.74 16.17 C 293.45 15.96, 293.27 15.87, 292.89 15.74 C 292.52 15.61, 292.32 15.56, 291.88 15.54 C 291.43 15.53, 291.18 15.53, 290.66 15.67 C 290.15 15.80, 289.85 15.90, 289.28 16.22 C 288.72 16.53, 288.39 16.74, 287.82 17.26 C 287.25 17.77, 286.92 18.12, 286.42 18.79 C 285.91 19.47, 285.65 19.90, 285.31 20.65 C 284.96 21.39, 284.82 21.83, 284.69 22.53 C 284.55 23.22, 284.53 23.57, 284.63 24.10 C 284.72 24.64, 284.84 24.88, 285.16 25.19 C 285.48 25.51, 285.73 25.62, 286.23 25.66 C 286.72 25.71, 287.03 25.63, 287.63 25.40 C 288.24 25.17, 288.60 24.98, 289.25 24.52 C 289.90 24.07, 290.24 23.75, 290.88 23.13 C 291.52 22.51, 291.86 22.12, 292.44 21.43 C 293.01 20.73, 293.30 20.33, 293.75 19.65 C 294.19 18.96, 294.42 18.56, 294.67 17.99 C 294.92 17.43, 294.99 17.13, 295.00 16.83 C 295.01 16.54, 294.89 16.46, 294.72 16.53 C 294.55 16.61, 294.38 16.77, 294.16 17.19 C 293.95 17.61, 293.78 17.98, 293.63 18.64 C 293.47 19.30, 293.43 19.76, 293.39 20.49 C 293.35 21.23, 293.35 21.64, 293.43 22.31 C 293.51 22.98, 293.56 23.31, 293.79 23.85 C 294.01 24.39, 294.17 24.66, 294.57 25.00 C 294.97 25.35, 295.30 25.44, 295.80 25.56 C 296.29 25.69, 296.63 25.67, 297.06 25.61 C 297.49 25.55, 297.78 25.40, 297.95 25.28 C 298.12 25.16, 298.08 25.07, 297.90 25.01 C 297.72 24.95, 297.43 25.01, 297.04 24.99 C 296.64 24.97, 296.36 25.00, 295.94 24.91 C 295.53 24.82, 295.26 24.81, 294.94 24.56 C 294.63 24.30, 294.52 24.09, 294.36 23.63 C 294.19 23.17, 294.16 22.87, 294.14 22.25 C 294.11 21.64, 294.14 21.25, 294.22 20.57 C 294.30 19.88, 294.42 19.47, 294.54 18.84 C 294.67 18.21, 294.78 17.86, 294.84 17.42 C 294.91 16.98, 294.92 16.78, 294.89 16.63 C 294.85 16.49, 294.81 16.50, 294.65 16.71 C 294.49 16.92, 294.37 17.18, 294.07 17.68 C 293.77 18.19, 293.59 18.59, 293.14 19.25 C 292.70 19.90, 292.42 20.28, 291.86 20.95 C 291.30 21.61, 290.95 21.98, 290.34 22.57 C 289.73 23.16, 289.40 23.45, 288.80 23.89 C 288.20 24.32, 287.86 24.49, 287.35 24.73 C 286.84 24.97, 286.61 25.07, 286.24 25.10 C 285.87 25.12, 285.71 25.07, 285.50 24.85 C 285.29 24.64, 285.21 24.47, 285.18 24.03 C 285.15 23.60, 285.19 23.29, 285.35 22.67 C 285.50 22.06, 285.64 21.65, 285.97 20.96 C 286.31 20.28, 286.56 19.88, 287.03 19.25 C 287.50 18.63, 287.81 18.30, 288.33 17.82 C 288.86 17.34, 289.15 17.15, 289.65 16.86 C 290.15 16.57, 290.41 16.48, 290.85 16.35 C 291.29 16.23, 291.50 16.22, 291.86 16.23 C 292.22 16.23, 292.38 16.28, 292.66 16.39 C 292.95 16.50, 293.06 16.59, 293.29 16.78 C 293.51 16.96, 293.59 17.11, 293.78 17.30 C 293.97 17.49, 294.07 17.60, 294.23 17.74 C 294.39 17.87, 294.47 17.97, 294.59 17.99 C 294.71 18.01, 294.81 17.97, 294.84 17.84"/>
<path d="M 307.24,15.91 C 307.29 15.78, 307.28 15.60, 307.18 15.35 C 307.08 15.10, 307.00 14.92, 306.74 14.66 C 306.48 14.39, 306.29 14.22, 305.88 14.04 C 305.47 13.87, 305.19 13.82, 304.68 13.79 C 304.17 13.76, 303.86 13.78, 303.31 13.88 C 302.75 13.98, 302.43 14.07, 301.89 14.29 C 301.36 14.52, 301.06 14.66, 300.65 15.00 C 300.24 15.33, 300.04 15.55, 299.85 15.97 C 299.66 16.39, 299.62 16.65, 299.69 17.11 C 299.76 17.57, 299.87 17.80, 300.20 18.25 C 300.52 18.69, 300.78 18.92, 301.30 19.34 C 301.82 19.77, 302.18 19.98, 302.82 20.36 C 303.45 20.74, 303.85 20.90, 304.48 21.24 C 305.11 21.57, 305.46 21.72, 305.97 22.03 C 306.48 22.33, 306.72 22.50, 307.04 22.78 C 307.35 23.06, 307.48 23.19, 307.55 23.43 C 307.63 23.68, 307.58 23.79, 307.42 24.01 C 307.26 24.23, 307.13 24.34, 306.75 24.54 C 306.38 24.74, 306.09 24.84, 305.54 25.00 C 304.99 25.17, 304.64 25.26, 304.02 25.38 C 303.39 25.50, 303.02 25.56, 302.43 25.61 C 301.84 25.67, 301.53 25.67, 301.07 25.65 C 300.60 25.63, 300.40 25.59, 300.09 25.52 C 299.79 25.45, 299.69 25.37, 299.54 25.30 C 299.38 25.22, 299.39 25.20, 299.32 25.13 C 299.26 25.07, 299.29 25.00, 299.23 24.98 C 299.18 24.95, 299.09 24.95, 299.05 25.01 C 299.01 25.07, 298.99 25.16, 299.03 25.29 C 299.07 25.42, 299.09 25.52, 299.27 25.68 C 299.45 25.83, 299.58 25.94, 299.93 26.07 C 300.28 26.19, 300.50 26.25, 301.02 26.31 C 301.53 26.36, 301.86 26.37, 302.48 26.34 C 303.11 26.31, 303.50 26.27, 304.16 26.16 C 304.82 26.04, 305.19 25.97, 305.79 25.76 C 306.38 25.56, 306.70 25.43, 307.12 25.13 C 307.54 24.84, 307.70 24.64, 307.88 24.28 C 308.06 23.91, 308.10 23.70, 308.02 23.31 C 307.93 22.93, 307.79 22.73, 307.46 22.36 C 307.12 21.99, 306.86 21.81, 306.34 21.45 C 305.81 21.10, 305.46 20.93, 304.84 20.58 C 304.22 20.23, 303.84 20.06, 303.22 19.69 C 302.61 19.32, 302.27 19.10, 301.77 18.73 C 301.27 18.36, 301.03 18.17, 300.72 17.83 C 300.42 17.48, 300.31 17.33, 300.24 17.01 C 300.17 16.69, 300.20 16.52, 300.37 16.23 C 300.53 15.93, 300.70 15.79, 301.06 15.54 C 301.42 15.29, 301.70 15.17, 302.17 14.99 C 302.65 14.80, 302.95 14.72, 303.44 14.63 C 303.93 14.54, 304.21 14.52, 304.64 14.54 C 305.07 14.56, 305.27 14.60, 305.59 14.74 C 305.91 14.87, 306.02 15.01, 306.23 15.19 C 306.44 15.38, 306.49 15.50, 306.64 15.67 C 306.79 15.84, 306.85 15.98, 306.97 16.03 C 307.09 16.08, 307.20 16.05, 307.24 15.91"/>
<path d="M 323.86,15.44 C 323.78 15.52, 323.78 15.60, 323.72 15.81 C 323.66 16.03, 323.64 16.14, 323.56 16.51 C 323.47 16.88, 323.43 17.12, 323.30 17.66 C 323.18 18.20, 323.09 18.54, 322.94 19.21 C 322.78 19.87, 322.68 20.28, 322.53 20.99 C 322.38 21.70, 322.29 22.10, 322.20 22.77 C 322.11 23.45, 322.04 23.83, 322.08 24.38 C 322.11 24.92, 322.18 25.23, 322.36 25.51 C 322.55 25.79, 322.74 25.79, 323.00 25.78 C 323.27 25.77, 323.49 25.65, 323.69 25.45 C 323.89 25.26, 324.01 24.98, 324.01 24.80 C 324.01 24.63, 323.84 24.54, 323.68 24.58 C 323.53 24.62, 323.39 24.85, 323.24 25.02 C 323.09 25.19, 323.03 25.36, 322.93 25.42 C 322.83 25.48, 322.78 25.55, 322.74 25.34 C 322.71 25.13, 322.71 24.87, 322.74 24.38 C 322.78 23.89, 322.82 23.53, 322.93 22.88 C 323.03 22.24, 323.13 21.85, 323.29 21.16 C 323.45 20.46, 323.57 20.06, 323.73 19.40 C 323.90 18.73, 324.00 18.39, 324.12 17.84 C 324.23 17.28, 324.28 17.02, 324.32 16.62 C 324.35 16.22, 324.33 16.08, 324.29 15.84 C 324.25 15.60, 324.21 15.51, 324.12 15.43 C 324.04 15.35, 323.94 15.36, 323.86 15.44"/>
<path d="M 325.43,7.80 C 325.45 7.71, 325.35 7.59, 325.26 7.59 C 325.17 7.60, 325.02 7.73, 325.00 7.82 C 324.98 7.90, 325.08 8.02, 325.17 8.02 C 325.26 8.02, 325.42 7.88, 325.43 7.80"/>
<path d="M 332.34,5.97 C 332.24 6.04, 332.19 6.13, 332.07 6.40 C 331.94 6.67, 331.88 6.82, 331.71 7.32 C 331.55 7.81, 331.44 8.16, 331.25 8.86 C 331.05 9.56, 330.96 9.97, 330.74 10.83 C 330.52 11.69, 330.38 12.18, 330.15 13.15 C 329.92 14.13, 329.79 14.67, 329.58 15.69 C 329.37 16.72, 329.26 17.26, 329.09 18.27 C 328.93 19.28, 328.84 19.83, 328.74 20.75 C 328.65 21.67, 328.62 22.13, 328.63 22.88 C 328.64 23.62, 328.66 23.97, 328.80 24.45 C 328.93 24.94, 329.04 25.12, 329.30 25.31 C 329.55 25.51, 329.73 25.53, 330.07 25.42 C 330.40 25.31, 330.63 25.16, 330.99 24.75 C 331.34 24.34, 331.57 23.95, 331.86 23.37 C 332.15 22.79, 332.29 22.40, 332.45 21.87 C 332.61 21.34, 332.68 20.96, 332.68 20.71 C 332.67 20.45, 332.60 20.43, 332.42 20.61 C 332.25 20.78, 332.08 21.12, 331.80 21.58 C 331.53 22.05, 331.33 22.40, 331.04 22.94 C 330.75 23.48, 330.58 23.87, 330.35 24.29 C 330.11 24.71, 330.02 24.88, 329.86 25.03 C 329.70 25.18, 329.64 25.19, 329.53 25.06 C 329.43 24.92, 329.37 24.78, 329.32 24.35 C 329.27 23.91, 329.25 23.59, 329.27 22.88 C 329.30 22.18, 329.33 21.72, 329.43 20.83 C 329.54 19.93, 329.63 19.39, 329.80 18.39 C 329.97 17.39, 330.09 16.86, 330.30 15.85 C 330.52 14.83, 330.65 14.30, 330.89 13.33 C 331.13 12.37, 331.27 11.88, 331.50 11.03 C 331.73 10.18, 331.85 9.78, 332.05 9.08 C 332.24 8.38, 332.36 8.03, 332.48 7.53 C 332.59 7.02, 332.59 6.85, 332.61 6.55 C 332.64 6.25, 332.65 6.15, 332.59 6.03 C 332.54 5.92, 332.45 5.89, 332.34 5.97"/>
<path d="M 328.50,15.76 C 328.61 15.85, 328.70 15.87, 329.03 15.94 C 329.35 16.01, 329.59 16.13, 330.12 16.10 C 330.65 16.07, 331.39 15.95, 331.70 15.79 C 332.01 15.63, 332.00 15.41, 331.68 15.28 C 331.35 15.14, 330.61 15.09, 330.08 15.11 C 329.55 15.12, 329.33 15.27, 329.01 15.35 C 328.70 15.43, 328.61 15.43, 328.51 15.51 C 328.40 15.59, 328.40 15.67, 328.50 15.76"/>
<path d="M 361.89,17.26 C 361.90 17.12, 361.84 16.96, 361.70 16.74 C 361.57 16.52, 361.48 16.39, 361.23 16.17 C 360.99 15.95, 360.82 15.81, 360.49 15.64 C 360.15 15.47, 359.97 15.40, 359.56 15.31 C 359.14 15.23, 358.90 15.18, 358.40 15.21 C 357.90 15.25, 357.60 15.29, 357.04 15.48 C 356.48 15.67, 356.17 15.80, 355.60 16.16 C 355.02 16.51, 354.70 16.75, 354.18 17.25 C 353.66 17.75, 353.39 18.07, 353.01 18.64 C 352.63 19.21, 352.47 19.52, 352.30 20.10 C 352.13 20.67, 352.09 21.01, 352.16 21.51 C 352.24 22.01, 352.35 22.27, 352.67 22.60 C 352.99 22.94, 353.25 23.08, 353.77 23.19 C 354.28 23.31, 354.62 23.31, 355.25 23.18 C 355.89 23.06, 356.25 22.91, 356.93 22.57 C 357.60 22.24, 357.98 21.99, 358.63 21.50 C 359.28 21.01, 359.62 20.67, 360.17 20.12 C 360.72 19.57, 360.98 19.27, 361.38 18.76 C 361.78 18.24, 361.97 17.96, 362.17 17.55 C 362.37 17.14, 362.39 16.90, 362.37 16.71 C 362.34 16.52, 362.21 16.48, 362.04 16.60 C 361.87 16.73, 361.71 16.89, 361.50 17.33 C 361.30 17.78, 361.19 18.11, 361.03 18.82 C 360.87 19.53, 360.82 19.99, 360.71 20.88 C 360.60 21.76, 360.55 22.26, 360.47 23.24 C 360.40 24.22, 360.38 24.74, 360.34 25.76 C 360.30 26.77, 360.31 27.31, 360.29 28.31 C 360.26 29.32, 360.26 29.86, 360.21 30.77 C 360.17 31.69, 360.16 32.13, 360.07 32.89 C 359.98 33.65, 359.93 34.01, 359.76 34.58 C 359.59 35.14, 359.47 35.37, 359.20 35.72 C 358.94 36.06, 358.78 36.16, 358.44 36.29 C 358.09 36.42, 357.90 36.43, 357.46 36.37 C 357.02 36.30, 356.76 36.21, 356.24 35.96 C 355.72 35.72, 355.40 35.53, 354.86 35.14 C 354.32 34.75, 354.03 34.51, 353.55 34.02 C 353.07 33.53, 352.80 33.26, 352.48 32.68 C 352.15 32.11, 352.06 31.73, 351.90 31.15 C 351.75 30.57, 351.77 30.25, 351.72 29.77 C 351.67 29.29, 351.73 28.95, 351.67 28.74 C 351.61 28.53, 351.53 28.51, 351.42 28.71 C 351.32 28.92, 351.19 29.25, 351.15 29.77 C 351.11 30.29, 351.09 30.66, 351.23 31.31 C 351.37 31.96, 351.50 32.39, 351.86 33.03 C 352.22 33.67, 352.51 33.97, 353.02 34.52 C 353.53 35.07, 353.83 35.34, 354.42 35.76 C 355.00 36.19, 355.35 36.39, 355.94 36.64 C 356.54 36.89, 356.86 36.97, 357.40 37.00 C 357.94 37.03, 358.19 36.98, 358.64 36.79 C 359.08 36.60, 359.29 36.47, 359.63 36.06 C 359.97 35.65, 360.12 35.38, 360.33 34.76 C 360.55 34.15, 360.60 33.77, 360.71 32.97 C 360.83 32.18, 360.85 31.74, 360.90 30.81 C 360.96 29.88, 360.97 29.34, 361.00 28.33 C 361.04 27.33, 361.02 26.79, 361.07 25.79 C 361.11 24.78, 361.14 24.26, 361.23 23.30 C 361.32 22.34, 361.38 21.85, 361.51 20.99 C 361.65 20.13, 361.76 19.69, 361.90 19.01 C 362.05 18.32, 362.15 18.02, 362.23 17.57 C 362.32 17.11, 362.36 16.93, 362.33 16.74 C 362.31 16.55, 362.25 16.51, 362.11 16.61 C 361.97 16.71, 361.89 16.89, 361.64 17.23 C 361.38 17.57, 361.24 17.85, 360.85 18.33 C 360.45 18.80, 360.19 19.08, 359.65 19.60 C 359.12 20.11, 358.78 20.43, 358.17 20.89 C 357.55 21.34, 357.20 21.57, 356.58 21.89 C 355.97 22.21, 355.64 22.34, 355.10 22.47 C 354.56 22.61, 354.29 22.62, 353.88 22.58 C 353.47 22.53, 353.28 22.45, 353.06 22.23 C 352.83 22.00, 352.76 21.83, 352.74 21.45 C 352.71 21.06, 352.75 20.78, 352.92 20.30 C 353.09 19.82, 353.24 19.54, 353.60 19.04 C 353.95 18.54, 354.22 18.25, 354.70 17.80 C 355.18 17.35, 355.48 17.12, 355.99 16.79 C 356.51 16.47, 356.79 16.35, 357.28 16.18 C 357.77 16.01, 358.03 15.97, 358.46 15.93 C 358.88 15.89, 359.08 15.92, 359.42 15.99 C 359.75 16.06, 359.88 16.13, 360.14 16.28 C 360.40 16.44, 360.52 16.57, 360.74 16.75 C 360.95 16.92, 361.04 17.02, 361.22 17.16 C 361.40 17.30, 361.51 17.43, 361.64 17.45 C 361.78 17.47, 361.88 17.41, 361.89 17.26"/>
<path d="M 372.55,16.61 C 372.61 16.50, 372.60 16.37, 372.57 16.15 C 372.54 15.94, 372.52 15.79, 372.40 15.52 C 372.27 15.25, 372.18 15.06, 371.96 14.79 C 371.73 14.53, 371.60 14.39, 371.29 14.19 C 370.97 13.98, 370.80 13.88, 370.38 13.78 C 369.95 13.68, 369.69 13.63, 369.17 13.68 C 368.66 13.73, 368.35 13.80, 367.80 14.04 C 367.25 14.28, 366.94 14.46, 366.41 14.88 C 365.89 15.30, 365.60 15.57, 365.17 16.14 C 364.74 16.71, 364.54 17.07, 364.28 17.73 C 364.01 18.39, 363.91 18.77, 363.86 19.42 C 363.81 20.07, 363.83 20.41, 364.01 20.98 C 364.19 21.55, 364.35 21.86, 364.77 22.26 C 365.18 22.66, 365.48 22.83, 366.09 22.99 C 366.71 23.16, 367.10 23.16, 367.83 23.06 C 368.56 22.96, 368.99 22.84, 369.74 22.49 C 370.48 22.15, 370.89 21.86, 371.54 21.33 C 372.19 20.80, 372.51 20.47, 372.99 19.85 C 373.48 19.24, 373.70 18.89, 373.97 18.25 C 374.25 17.62, 374.33 17.27, 374.39 16.69 C 374.44 16.12, 374.39 15.84, 374.25 15.39 C 374.10 14.94, 373.96 14.75, 373.66 14.46 C 373.36 14.16, 373.13 14.05, 372.76 13.92 C 372.38 13.80, 372.12 13.79, 371.79 13.84 C 371.45 13.88, 371.28 14.00, 371.07 14.15 C 370.87 14.29, 370.80 14.44, 370.76 14.57 C 370.73 14.69, 370.80 14.74, 370.91 14.75 C 371.02 14.76, 371.12 14.67, 371.31 14.62 C 371.50 14.56, 371.60 14.51, 371.85 14.50 C 372.10 14.48, 372.29 14.47, 372.57 14.54 C 372.86 14.62, 373.04 14.67, 373.27 14.87 C 373.50 15.08, 373.61 15.21, 373.71 15.56 C 373.81 15.91, 373.85 16.14, 373.78 16.62 C 373.71 17.11, 373.64 17.42, 373.38 17.98 C 373.11 18.54, 372.91 18.86, 372.45 19.42 C 371.99 19.97, 371.68 20.27, 371.08 20.75 C 370.47 21.23, 370.09 21.49, 369.42 21.81 C 368.74 22.13, 368.36 22.24, 367.72 22.35 C 367.09 22.46, 366.75 22.47, 366.24 22.36 C 365.74 22.26, 365.51 22.14, 365.18 21.83 C 364.85 21.51, 364.73 21.27, 364.60 20.80 C 364.47 20.33, 364.45 20.05, 364.52 19.49 C 364.59 18.93, 364.69 18.59, 364.94 18.00 C 365.19 17.42, 365.37 17.09, 365.76 16.58 C 366.15 16.07, 366.41 15.83, 366.88 15.46 C 367.35 15.09, 367.62 14.93, 368.10 14.72 C 368.58 14.51, 368.83 14.45, 369.26 14.40 C 369.68 14.35, 369.89 14.38, 370.22 14.45 C 370.56 14.52, 370.68 14.58, 370.91 14.75 C 371.13 14.91, 371.19 15.04, 371.35 15.26 C 371.50 15.49, 371.56 15.65, 371.69 15.87 C 371.82 16.10, 371.86 16.22, 371.98 16.38 C 372.09 16.55, 372.16 16.66, 372.28 16.71 C 372.39 16.75, 372.50 16.72, 372.55 16.61"/>
<path d="M 375.92,21.54 C 376.08 21.55, 376.23 21.50, 376.57 21.38 C 376.90 21.26, 377.12 21.18, 377.60 20.93 C 378.09 20.68, 378.42 20.48, 378.99 20.12 C 379.57 19.75, 379.91 19.52, 380.49 19.08 C 381.07 18.64, 381.37 18.39, 381.88 17.92 C 382.39 17.45, 382.65 17.20, 383.05 16.75 C 383.44 16.29, 383.62 16.07, 383.84 15.66 C 384.06 15.24, 384.13 15.01, 384.14 14.66 C 384.14 14.31, 384.06 14.14, 383.86 13.91 C 383.66 13.68, 383.50 13.58, 383.13 13.52 C 382.77 13.46, 382.51 13.46, 382.01 13.60 C 381.52 13.75, 381.21 13.90, 380.67 14.26 C 380.12 14.62, 379.83 14.87, 379.30 15.39 C 378.76 15.91, 378.44 16.24, 377.98 16.87 C 377.52 17.49, 377.28 17.86, 377.00 18.53 C 376.72 19.19, 376.62 19.56, 376.57 20.20 C 376.51 20.83, 376.52 21.16, 376.72 21.69 C 376.92 22.23, 377.11 22.49, 377.57 22.87 C 378.04 23.25, 378.38 23.42, 379.04 23.60 C 379.71 23.78, 380.18 23.78, 380.92 23.78 C 381.65 23.77, 382.09 23.69, 382.71 23.57 C 383.32 23.45, 383.74 23.31, 383.99 23.17 C 384.24 23.04, 384.22 22.95, 383.95 22.90 C 383.68 22.85, 383.24 22.89, 382.64 22.91 C 382.03 22.93, 381.60 22.99, 380.91 22.99 C 380.23 22.98, 379.81 23.02, 379.21 22.90 C 378.62 22.78, 378.34 22.67, 377.95 22.39 C 377.56 22.10, 377.41 21.92, 377.26 21.50 C 377.11 21.07, 377.11 20.80, 377.19 20.27 C 377.27 19.73, 377.36 19.40, 377.64 18.81 C 377.92 18.22, 378.14 17.89, 378.59 17.32 C 379.03 16.75, 379.34 16.44, 379.84 15.96 C 380.35 15.48, 380.63 15.25, 381.11 14.92 C 381.59 14.60, 381.86 14.48, 382.26 14.32 C 382.66 14.16, 382.84 14.13, 383.10 14.11 C 383.35 14.09, 383.43 14.11, 383.54 14.21 C 383.65 14.31, 383.69 14.39, 383.65 14.62 C 383.60 14.85, 383.54 15.02, 383.32 15.36 C 383.10 15.69, 382.93 15.89, 382.55 16.30 C 382.16 16.70, 381.91 16.95, 381.40 17.38 C 380.90 17.82, 380.60 18.05, 380.03 18.46 C 379.46 18.86, 379.11 19.05, 378.54 19.41 C 377.98 19.76, 377.65 19.94, 377.20 20.23 C 376.75 20.52, 376.56 20.64, 376.28 20.85 C 376.00 21.06, 375.87 21.16, 375.80 21.29 C 375.72 21.43, 375.77 21.52, 375.92 21.54"/>
<path d="M 393.86,14.70 C 393.93 14.59, 393.96 14.40, 393.90 14.18 C 393.83 13.95, 393.76 13.80, 393.54 13.58 C 393.32 13.36, 393.15 13.21, 392.78 13.09 C 392.42 12.97, 392.19 12.95, 391.70 12.98 C 391.21 13.01, 390.92 13.07, 390.34 13.24 C 389.75 13.41, 389.38 13.53, 388.79 13.83 C 388.21 14.14, 387.87 14.35, 387.40 14.75 C 386.94 15.15, 386.71 15.39, 386.46 15.83 C 386.21 16.27, 386.12 16.51, 386.14 16.93 C 386.16 17.36, 386.26 17.57, 386.56 17.96 C 386.87 18.35, 387.13 18.55, 387.67 18.90 C 388.21 19.24, 388.59 19.39, 389.26 19.68 C 389.93 19.96, 390.35 20.07, 391.03 20.33 C 391.72 20.58, 392.11 20.70, 392.69 20.94 C 393.28 21.18, 393.56 21.30, 393.95 21.53 C 394.35 21.76, 394.51 21.87, 394.66 22.08 C 394.81 22.29, 394.83 22.37, 394.71 22.58 C 394.60 22.79, 394.44 22.89, 394.08 23.13 C 393.72 23.36, 393.45 23.52, 392.90 23.76 C 392.34 24.01, 391.99 24.14, 391.30 24.35 C 390.62 24.56, 390.20 24.66, 389.49 24.81 C 388.78 24.95, 388.39 24.99, 387.76 25.06 C 387.12 25.12, 386.80 25.12, 386.30 25.13 C 385.80 25.15, 385.58 25.13, 385.24 25.12 C 384.91 25.11, 384.77 25.06, 384.64 25.09 C 384.51 25.13, 384.48 25.19, 384.59 25.28 C 384.69 25.38, 384.83 25.49, 385.17 25.58 C 385.51 25.68, 385.76 25.74, 386.29 25.77 C 386.82 25.81, 387.15 25.80, 387.82 25.75 C 388.48 25.71, 388.88 25.68, 389.62 25.55 C 390.37 25.42, 390.81 25.33, 391.53 25.11 C 392.26 24.90, 392.64 24.78, 393.23 24.49 C 393.83 24.20, 394.12 24.02, 394.51 23.67 C 394.89 23.33, 395.04 23.12, 395.15 22.76 C 395.27 22.39, 395.24 22.19, 395.06 21.85 C 394.89 21.50, 394.71 21.33, 394.29 21.02 C 393.88 20.71, 393.58 20.58, 392.98 20.29 C 392.38 20.01, 391.99 19.88, 391.31 19.61 C 390.63 19.34, 390.22 19.21, 389.57 18.94 C 388.92 18.66, 388.57 18.51, 388.06 18.24 C 387.55 17.96, 387.29 17.82, 387.01 17.56 C 386.72 17.29, 386.64 17.19, 386.63 16.91 C 386.62 16.63, 386.72 16.48, 386.96 16.16 C 387.21 15.85, 387.42 15.64, 387.86 15.32 C 388.30 15.00, 388.61 14.81, 389.15 14.55 C 389.69 14.29, 390.04 14.17, 390.57 14.01 C 391.09 13.84, 391.37 13.77, 391.77 13.72 C 392.17 13.67, 392.32 13.68, 392.58 13.75 C 392.84 13.83, 392.90 13.95, 393.06 14.09 C 393.21 14.23, 393.23 14.30, 393.33 14.44 C 393.43 14.57, 393.45 14.72, 393.56 14.77 C 393.67 14.83, 393.80 14.82, 393.86 14.70"/>
</svg>
