<svg xmlns="http://www.w3.org/2000/svg" viewBox="0 0 406.2 69.4" fill="currentColor" stroke="none" role="img">
<path d="M 15.42,21.30 C 15.31 21.21, 15.15 21.17, 14.86 21.15 C 14.58 21.13, 14.42 21.14, 13.99 21.21 C 13.57 21.27, 13.29 21.28, 12.75 21.47 C 12.21 21.66, 11.91 21.77, 11.30 22.17 C 10.68 22.57, 10.32 22.82, 9.68 23.46 C 9.05 24.10, 8.70 24.51, 8.13 25.36 C 7.55 26.21, 7.24 26.74, 6.81 27.72 C 6.39 28.69, 6.21 29.25, 5.98 30.23 C 5.75 31.21, 5.69 31.75, 5.67 32.63 C 5.64 33.52, 5.69 33.97, 5.86 34.66 C 6.04 35.35, 6.21 35.65, 6.55 36.09 C 6.89 36.52, 7.12 36.68, 7.57 36.83 C 8.03 36.98, 8.30 37.00, 8.81 36.84 C 9.32 36.68, 9.60 36.51, 10.13 36.03 C 10.67 35.55, 10.95 35.22, 11.46 34.44 C 11.98 33.66, 12.24 33.17, 12.70 32.14 C 13.17 31.12, 13.38 30.46, 13.78 29.32 C 14.18 28.18, 14.37 27.55, 14.70 26.43 C 15.04 25.32, 15.21 24.70, 15.46 23.73 C 15.71 22.77, 15.82 22.25, 15.95 21.62 C 16.08 20.98, 16.09 20.73, 16.11 20.56 C 16.13 20.39, 16.07 20.44, 16.04 20.77 C 16.01 21.09, 15.95 21.42, 15.94 22.19 C 15.93 22.96, 15.94 23.55, 16.00 24.62 C 16.05 25.69, 16.11 26.36, 16.21 27.53 C 16.32 28.70, 16.38 29.35, 16.53 30.46 C 16.67 31.56, 16.75 32.12, 16.94 33.05 C 17.12 33.98, 17.21 34.43, 17.44 35.12 C 17.67 35.82, 17.78 36.11, 18.07 36.52 C 18.37 36.94, 18.54 37.08, 18.90 37.18 C 19.27 37.29, 19.49 37.27, 19.90 37.07 C 20.31 36.87, 20.54 36.70, 20.96 36.18 C 21.38 35.65, 21.65 35.18, 22.02 34.45 C 22.39 33.71, 22.57 33.20, 22.82 32.50 C 23.06 31.79, 23.21 31.25, 23.24 30.91 C 23.27 30.57, 23.19 30.54, 22.97 30.80 C 22.75 31.06, 22.49 31.55, 22.15 32.20 C 21.80 32.85, 21.59 33.33, 21.22 34.04 C 20.86 34.74, 20.64 35.20, 20.32 35.72 C 20.00 36.24, 19.88 36.40, 19.62 36.62 C 19.36 36.83, 19.25 36.87, 19.02 36.80 C 18.80 36.72, 18.70 36.63, 18.50 36.26 C 18.30 35.89, 18.21 35.61, 18.03 34.95 C 17.84 34.28, 17.75 33.85, 17.60 32.93 C 17.44 32.02, 17.37 31.47, 17.25 30.37 C 17.14 29.28, 17.09 28.63, 17.02 27.47 C 16.95 26.31, 16.96 25.64, 16.91 24.57 C 16.85 23.51, 16.85 22.92, 16.75 22.15 C 16.65 21.37, 16.59 21.03, 16.42 20.69 C 16.26 20.35, 16.14 20.29, 15.93 20.44 C 15.72 20.59, 15.61 20.83, 15.37 21.45 C 15.14 22.07, 15.05 22.59, 14.78 23.55 C 14.50 24.50, 14.34 25.11, 14.00 26.22 C 13.65 27.32, 13.46 27.94, 13.05 29.06 C 12.65 30.18, 12.43 30.82, 11.98 31.82 C 11.53 32.81, 11.28 33.28, 10.81 34.02 C 10.35 34.76, 10.08 35.06, 9.64 35.51 C 9.20 35.97, 8.99 36.13, 8.61 36.29 C 8.23 36.46, 8.06 36.46, 7.73 36.36 C 7.40 36.25, 7.23 36.13, 6.98 35.77 C 6.73 35.40, 6.59 35.15, 6.46 34.52 C 6.33 33.90, 6.29 33.48, 6.33 32.66 C 6.38 31.83, 6.44 31.32, 6.67 30.39 C 6.90 29.47, 7.07 28.94, 7.49 28.02 C 7.91 27.10, 8.22 26.60, 8.77 25.80 C 9.31 24.99, 9.64 24.60, 10.23 24.00 C 10.82 23.40, 11.15 23.16, 11.70 22.80 C 12.26 22.44, 12.52 22.36, 13.00 22.19 C 13.49 22.02, 13.75 22.04, 14.13 21.96 C 14.52 21.87, 14.67 21.82, 14.93 21.75 C 15.19 21.68, 15.33 21.67, 15.43 21.58 C 15.53 21.49, 15.53 21.38, 15.42 21.30"/>
<path d="M 36.69,7.66 C 36.61 7.80, 36.58 7.92, 36.51 8.35 C 36.44 8.79, 36.38 9.05, 36.33 9.83 C 36.28 10.61, 36.29 11.11, 36.25 12.26 C 36.22 13.41, 36.19 14.12, 36.15 15.58 C 36.11 17.03, 36.10 17.90, 36.05 19.55 C 36.00 21.20, 35.95 22.13, 35.89 23.82 C 35.84 25.51, 35.80 26.42, 35.78 28.00 C 35.75 29.58, 35.75 30.39, 35.77 31.72 C 35.80 33.06, 35.80 33.68, 35.90 34.67 C 35.99 35.65, 36.06 36.05, 36.24 36.64 C 36.43 37.24, 36.55 37.44, 36.83 37.65 C 37.11 37.86, 37.29 37.87, 37.63 37.68 C 37.97 37.50, 38.17 37.30, 38.53 36.74 C 38.89 36.17, 39.06 35.76, 39.43 34.88 C 39.80 34.00, 40.00 33.41, 40.39 32.32 C 40.78 31.23, 40.99 30.58, 41.39 29.43 C 41.80 28.28, 42.02 27.64, 42.42 26.58 C 42.82 25.52, 43.03 24.96, 43.39 24.12 C 43.75 23.27, 43.95 22.88, 44.22 22.35 C 44.50 21.82, 44.61 21.62, 44.77 21.47 C 44.93 21.32, 44.95 21.32, 45.01 21.59 C 45.08 21.86, 45.06 22.15, 45.08 22.83 C 45.09 23.52, 45.11 24.00, 45.11 25.01 C 45.11 26.02, 45.09 26.68, 45.08 27.87 C 45.06 29.07, 45.05 29.79, 45.04 30.98 C 45.03 32.17, 45.02 32.80, 45.03 33.81 C 45.04 34.81, 45.03 35.28, 45.09 36.00 C 45.16 36.71, 45.19 37.05, 45.34 37.38 C 45.49 37.72, 45.62 37.81, 45.83 37.67 C 46.04 37.53, 46.17 37.35, 46.38 36.69 C 46.60 36.03, 46.75 35.39, 46.92 34.36 C 47.09 33.34, 47.15 32.58, 47.23 31.58 C 47.30 30.57, 47.34 29.78, 47.29 29.32 C 47.24 28.86, 47.15 28.85, 46.98 29.28 C 46.80 29.71, 46.63 30.48, 46.41 31.46 C 46.20 32.45, 46.07 33.19, 45.92 34.21 C 45.77 35.23, 45.72 35.88, 45.66 36.55 C 45.61 37.21, 45.65 37.40, 45.66 37.55 C 45.66 37.71, 45.69 37.62, 45.70 37.31 C 45.71 36.99, 45.71 36.67, 45.71 35.97 C 45.72 35.27, 45.70 34.81, 45.72 33.81 C 45.74 32.82, 45.77 32.18, 45.81 30.99 C 45.84 29.81, 45.87 29.09, 45.91 27.89 C 45.94 26.69, 46.00 26.03, 45.98 25.00 C 45.96 23.98, 45.94 23.48, 45.82 22.76 C 45.70 22.04, 45.61 21.72, 45.36 21.41 C 45.12 21.10, 44.94 21.07, 44.61 21.20 C 44.29 21.33, 44.10 21.52, 43.74 22.05 C 43.37 22.58, 43.18 22.99, 42.78 23.84 C 42.38 24.69, 42.16 25.25, 41.74 26.32 C 41.32 27.38, 41.09 28.02, 40.67 29.16 C 40.24 30.31, 40.02 30.96, 39.61 32.04 C 39.21 33.12, 38.99 33.69, 38.65 34.56 C 38.30 35.43, 38.14 35.83, 37.89 36.39 C 37.64 36.95, 37.56 37.16, 37.38 37.36 C 37.21 37.57, 37.17 37.59, 37.04 37.42 C 36.91 37.25, 36.84 37.08, 36.73 36.52 C 36.62 35.96, 36.56 35.58, 36.50 34.62 C 36.44 33.66, 36.44 33.04, 36.44 31.72 C 36.44 30.40, 36.45 29.59, 36.48 28.02 C 36.52 26.44, 36.57 25.54, 36.64 23.85 C 36.71 22.16, 36.77 21.23, 36.83 19.58 C 36.89 17.93, 36.90 17.06, 36.95 15.60 C 37.00 14.14, 37.05 13.43, 37.08 12.29 C 37.11 11.14, 37.11 10.64, 37.11 9.86 C 37.11 9.07, 37.10 8.81, 37.07 8.38 C 37.04 7.94, 37.02 7.81, 36.94 7.67 C 36.87 7.53, 36.78 7.52, 36.69 7.66"/>
<path d="M 47.21,9.93 C 47.24 9.82, 47.25 9.72, 47.21 9.72 C 47.18 9.72, 47.08 9.85, 47.03 9.92 C 46.98 10.00, 46.97 10.09, 46.97 10.08 C 46.96 10.07, 47.04 9.90, 47.01 9.89 C 46.99 9.88, 46.88 9.92, 46.84 10.02 C 46.80 10.12, 46.78 10.33, 46.83 10.38 C 46.88 10.43, 47.00 10.35, 47.08 10.26 C 47.16 10.17, 47.18 10.04, 47.21 9.93"/>
<path d="M 51.78,20.61 C 51.71 20.69, 51.69 20.74, 51.65 21.01 C 51.60 21.28, 51.58 21.45, 51.56 21.96 C 51.54 22.47, 51.56 22.80, 51.57 23.55 C 51.58 24.30, 51.61 24.75, 51.60 25.69 C 51.58 26.63, 51.56 27.18, 51.49 28.24 C 51.43 29.29, 51.38 29.89, 51.29 30.97 C 51.19 32.05, 51.13 32.65, 51.02 33.64 C 50.91 34.63, 50.79 35.16, 50.72 35.92 C 50.64 36.68, 50.62 37.08, 50.66 37.43 C 50.70 37.79, 50.79 37.86, 50.93 37.69 C 51.07 37.53, 51.16 37.26, 51.36 36.61 C 51.56 35.97, 51.68 35.46, 51.94 34.46 C 52.20 33.46, 52.32 32.77, 52.67 31.62 C 53.01 30.47, 53.20 29.81, 53.65 28.72 C 54.10 27.63, 54.38 27.08, 54.90 26.17 C 55.42 25.26, 55.74 24.82, 56.25 24.18 C 56.76 23.54, 57.02 23.30, 57.45 22.98 C 57.88 22.65, 58.06 22.55, 58.39 22.56 C 58.71 22.57, 58.85 22.67, 59.08 23.03 C 59.31 23.40, 59.38 23.71, 59.56 24.39 C 59.74 25.08, 59.83 25.55, 59.96 26.47 C 60.09 27.39, 60.13 27.97, 60.20 29.01 C 60.27 30.06, 60.27 30.66, 60.30 31.70 C 60.34 32.74, 60.33 33.29, 60.37 34.21 C 60.42 35.12, 60.42 35.57, 60.53 36.26 C 60.63 36.96, 60.70 37.25, 60.89 37.68 C 61.08 38.11, 61.19 38.25, 61.48 38.43 C 61.77 38.60, 61.96 38.64, 62.33 38.55 C 62.70 38.47, 62.91 38.36, 63.34 38.01 C 63.77 37.65, 63.99 37.40, 64.48 36.79 C 64.97 36.17, 65.24 35.78, 65.77 34.93 C 66.30 34.08, 66.59 33.55, 67.12 32.54 C 67.66 31.52, 67.95 30.92, 68.44 29.85 C 68.93 28.79, 69.18 28.20, 69.56 27.21 C 69.94 26.22, 70.12 25.72, 70.34 24.90 C 70.56 24.08, 70.65 23.71, 70.68 23.10 C 70.72 22.49, 70.68 22.24, 70.52 21.85 C 70.35 21.45, 70.20 21.27, 69.85 21.11 C 69.50 20.94, 69.25 20.90, 68.77 21.02 C 68.29 21.14, 67.98 21.27, 67.45 21.72 C 66.93 22.17, 66.63 22.50, 66.15 23.26 C 65.67 24.02, 65.41 24.53, 65.06 25.52 C 64.70 26.51, 64.53 27.11, 64.37 28.21 C 64.20 29.31, 64.16 29.92, 64.23 31.00 C 64.29 32.08, 64.38 32.66, 64.68 33.60 C 64.99 34.55, 65.24 34.98, 65.75 35.72 C 66.26 36.47, 66.59 36.79, 67.25 37.32 C 67.91 37.86, 68.29 38.08, 69.05 38.39 C 69.80 38.70, 70.24 38.79, 71.03 38.89 C 71.83 38.99, 72.26 38.98, 73.01 38.88 C 73.77 38.78, 74.15 38.68, 74.82 38.40 C 75.48 38.12, 75.80 37.92, 76.32 37.48 C 76.84 37.03, 77.07 36.74, 77.43 36.19 C 77.78 35.63, 77.91 35.25, 78.09 34.68 C 78.26 34.11, 78.27 33.79, 78.29 33.34 C 78.31 32.89, 78.26 32.62, 78.19 32.44 C 78.12 32.26, 78.04 32.26, 77.95 32.43 C 77.86 32.59, 77.85 32.85, 77.74 33.26 C 77.63 33.67, 77.60 33.95, 77.42 34.47 C 77.24 34.98, 77.15 35.33, 76.85 35.83 C 76.55 36.33, 76.36 36.59, 75.90 36.98 C 75.44 37.38, 75.16 37.55, 74.56 37.79 C 73.97 38.04, 73.62 38.13, 72.93 38.21 C 72.24 38.30, 71.84 38.30, 71.11 38.22 C 70.39 38.13, 69.99 38.06, 69.29 37.78 C 68.60 37.51, 68.26 37.31, 67.65 36.83 C 67.05 36.34, 66.74 36.05, 66.27 35.36 C 65.81 34.68, 65.58 34.28, 65.32 33.41 C 65.05 32.53, 64.98 31.98, 64.93 30.97 C 64.89 29.95, 64.94 29.37, 65.11 28.33 C 65.28 27.29, 65.46 26.72, 65.80 25.79 C 66.14 24.86, 66.39 24.38, 66.83 23.68 C 67.26 22.97, 67.53 22.69, 67.95 22.27 C 68.38 21.86, 68.62 21.74, 68.96 21.59 C 69.31 21.44, 69.45 21.43, 69.67 21.52 C 69.90 21.60, 69.99 21.70, 70.09 22.00 C 70.18 22.31, 70.21 22.51, 70.13 23.05 C 70.06 23.59, 69.97 23.94, 69.73 24.72 C 69.48 25.49, 69.30 25.98, 68.90 26.95 C 68.51 27.91, 68.25 28.49, 67.75 29.54 C 67.26 30.58, 66.96 31.17, 66.43 32.17 C 65.89 33.16, 65.60 33.68, 65.09 34.50 C 64.57 35.33, 64.30 35.70, 63.85 36.30 C 63.40 36.90, 63.19 37.13, 62.86 37.49 C 62.52 37.84, 62.40 37.96, 62.16 38.08 C 61.93 38.20, 61.85 38.22, 61.69 38.11 C 61.53 37.99, 61.47 37.89, 61.36 37.51 C 61.25 37.12, 61.20 36.85, 61.14 36.19 C 61.08 35.53, 61.08 35.08, 61.06 34.18 C 61.05 33.28, 61.06 32.73, 61.05 31.68 C 61.03 30.64, 61.04 30.03, 60.99 28.97 C 60.93 27.90, 60.91 27.31, 60.77 26.35 C 60.62 25.40, 60.52 24.91, 60.27 24.18 C 60.02 23.45, 59.88 23.11, 59.51 22.70 C 59.14 22.29, 58.88 22.16, 58.41 22.13 C 57.94 22.10, 57.68 22.21, 57.15 22.54 C 56.62 22.86, 56.33 23.12, 55.76 23.78 C 55.19 24.43, 54.86 24.89, 54.30 25.82 C 53.74 26.75, 53.45 27.31, 52.96 28.42 C 52.47 29.53, 52.25 30.20, 51.86 31.37 C 51.48 32.53, 51.28 33.22, 51.04 34.24 C 50.80 35.26, 50.72 35.79, 50.66 36.47 C 50.59 37.16, 50.64 37.45, 50.72 37.65 C 50.79 37.86, 50.89 37.81, 51.03 37.49 C 51.17 37.16, 51.26 36.77, 51.40 36.02 C 51.54 35.27, 51.61 34.72, 51.74 33.72 C 51.87 32.73, 51.93 32.13, 52.03 31.04 C 52.14 29.95, 52.19 29.35, 52.27 28.29 C 52.34 27.22, 52.38 26.66, 52.41 25.71 C 52.43 24.76, 52.42 24.29, 52.41 23.54 C 52.40 22.79, 52.40 22.45, 52.36 21.94 C 52.32 21.43, 52.27 21.25, 52.20 20.98 C 52.13 20.71, 52.10 20.67, 52.01 20.59 C 51.93 20.52, 51.85 20.52, 51.78 20.61"/>
<path d="M 98.00,20.64 C 97.89 20.55, 97.72 20.49, 97.43 20.47 C 97.13 20.46, 96.95 20.46, 96.53 20.57 C 96.11 20.68, 95.82 20.72, 95.32 21.02 C 94.83 21.33, 94.57 21.53, 94.04 22.10 C 93.52 22.67, 93.22 23.02, 92.71 23.87 C 92.20 24.73, 91.91 25.27, 91.49 26.36 C 91.08 27.45, 90.88 28.13, 90.64 29.32 C 90.39 30.51, 90.30 31.17, 90.27 32.32 C 90.24 33.47, 90.29 34.07, 90.50 35.05 C 90.71 36.04, 90.91 36.51, 91.32 37.23 C 91.72 37.95, 91.99 38.24, 92.53 38.67 C 93.07 39.10, 93.39 39.25, 94.02 39.38 C 94.65 39.50, 95.02 39.49, 95.68 39.30 C 96.34 39.10, 96.70 38.91, 97.33 38.40 C 97.95 37.89, 98.26 37.55, 98.79 36.75 C 99.32 35.94, 99.56 35.42, 99.97 34.38 C 100.38 33.34, 100.56 32.71, 100.82 31.56 C 101.08 30.40, 101.17 29.75, 101.28 28.60 C 101.39 27.45, 101.42 26.83, 101.35 25.80 C 101.29 24.76, 101.20 24.25, 100.97 23.44 C 100.75 22.62, 100.57 22.27, 100.23 21.73 C 99.90 21.18, 99.69 21.00, 99.31 20.73 C 98.93 20.46, 98.69 20.41, 98.34 20.38 C 97.99 20.35, 97.76 20.45, 97.55 20.59 C 97.34 20.73, 97.31 20.96, 97.30 21.08 C 97.29 21.21, 97.39 21.24, 97.49 21.22 C 97.58 21.19, 97.61 21.04, 97.77 20.98 C 97.93 20.91, 98.04 20.85, 98.29 20.89 C 98.54 20.92, 98.71 20.92, 99.00 21.14 C 99.30 21.37, 99.47 21.52, 99.74 22.01 C 100.01 22.50, 100.18 22.83, 100.36 23.60 C 100.55 24.36, 100.63 24.84, 100.67 25.83 C 100.71 26.82, 100.68 27.42, 100.56 28.53 C 100.44 29.64, 100.35 30.28, 100.09 31.39 C 99.83 32.50, 99.64 33.11, 99.26 34.10 C 98.87 35.09, 98.65 35.59, 98.17 36.35 C 97.69 37.10, 97.42 37.41, 96.88 37.88 C 96.35 38.35, 96.04 38.51, 95.49 38.70 C 94.94 38.88, 94.65 38.91, 94.13 38.81 C 93.61 38.72, 93.34 38.60, 92.89 38.23 C 92.43 37.85, 92.20 37.60, 91.85 36.94 C 91.50 36.28, 91.32 35.84, 91.15 34.92 C 90.97 34.00, 90.93 33.43, 90.98 32.34 C 91.02 31.25, 91.13 30.61, 91.38 29.48 C 91.63 28.34, 91.83 27.69, 92.23 26.64 C 92.63 25.60, 92.91 25.08, 93.38 24.27 C 93.86 23.46, 94.13 23.12, 94.60 22.60 C 95.06 22.07, 95.28 21.92, 95.71 21.65 C 96.14 21.39, 96.38 21.40, 96.73 21.29 C 97.09 21.17, 97.24 21.15, 97.49 21.08 C 97.74 21.01, 97.89 21.02, 97.99 20.93 C 98.09 20.85, 98.11 20.74, 98.00 20.64"/>
<path d="M 114.74,11.10 C 114.83 10.94, 114.87 10.71, 114.89 10.32 C 114.91 9.93, 114.92 9.65, 114.83 9.16 C 114.75 8.66, 114.66 8.31, 114.46 7.83 C 114.26 7.35, 114.14 7.11, 113.84 6.74 C 113.53 6.37, 113.34 6.19, 112.94 5.98 C 112.53 5.77, 112.30 5.68, 111.81 5.70 C 111.33 5.71, 111.03 5.75, 110.50 6.06 C 109.97 6.36, 109.68 6.58, 109.17 7.21 C 108.65 7.84, 108.38 8.24, 107.92 9.20 C 107.45 10.17, 107.22 10.74, 106.82 12.06 C 106.43 13.37, 106.25 14.16, 105.94 15.78 C 105.63 17.40, 105.49 18.32, 105.26 20.17 C 105.03 22.01, 104.94 23.01, 104.78 24.99 C 104.62 26.96, 104.55 28.04, 104.45 30.05 C 104.35 32.07, 104.32 33.14, 104.27 35.08 C 104.23 37.01, 104.23 38.00, 104.23 39.74 C 104.23 41.48, 104.25 42.34, 104.29 43.79 C 104.33 45.24, 104.38 45.92, 104.45 47.00 C 104.51 48.09, 104.56 48.53, 104.63 49.22 C 104.70 49.90, 104.72 50.10, 104.80 50.43 C 104.88 50.75, 104.95 50.77, 105.02 50.86 C 105.09 50.96, 105.11 50.89, 105.14 50.89 C 105.16 50.89, 105.15 50.88, 105.16 50.86 C 105.17 50.84, 105.18 50.91, 105.18 50.81 C 105.19 50.71, 105.20 50.70, 105.19 50.38 C 105.19 50.05, 105.19 49.86, 105.16 49.18 C 105.13 48.50, 105.10 48.05, 105.05 46.97 C 105.01 45.89, 104.97 45.22, 104.94 43.78 C 104.91 42.33, 104.90 41.48, 104.91 39.74 C 104.92 38.01, 104.92 37.02, 104.98 35.09 C 105.03 33.16, 105.06 32.10, 105.17 30.09 C 105.28 28.08, 105.34 27.01, 105.51 25.05 C 105.68 23.08, 105.77 22.09, 106.00 20.26 C 106.24 18.44, 106.38 17.52, 106.69 15.92 C 107.01 14.33, 107.18 13.56, 107.56 12.28 C 107.94 11.00, 108.16 10.45, 108.60 9.53 C 109.03 8.61, 109.29 8.25, 109.74 7.67 C 110.19 7.09, 110.42 6.90, 110.85 6.62 C 111.27 6.35, 111.48 6.33, 111.84 6.30 C 112.20 6.28, 112.36 6.34, 112.66 6.51 C 112.95 6.67, 113.10 6.81, 113.31 7.13 C 113.53 7.45, 113.58 7.67, 113.73 8.10 C 113.87 8.54, 113.93 8.86, 114.03 9.31 C 114.13 9.77, 114.16 10.01, 114.24 10.37 C 114.32 10.73, 114.35 10.97, 114.45 11.11 C 114.55 11.26, 114.65 11.26, 114.74 11.10"/>
<path d="M 100.55,27.49 C 100.62 27.53, 100.62 27.50, 100.79 27.50 C 100.96 27.50, 101.06 27.53, 101.40 27.50 C 101.75 27.47, 101.98 27.44, 102.51 27.37 C 103.05 27.30, 103.38 27.26, 104.08 27.17 C 104.77 27.07, 105.20 27.03, 105.99 26.92 C 106.77 26.80, 107.24 26.73, 107.99 26.60 C 108.75 26.47, 109.17 26.40, 109.76 26.26 C 110.35 26.12, 110.72 26.04, 110.95 25.92 C 111.18 25.80, 111.17 25.72, 110.92 25.67 C 110.66 25.62, 110.28 25.64, 109.67 25.67 C 109.07 25.71, 108.64 25.75, 107.88 25.84 C 107.12 25.93, 106.66 26.02, 105.88 26.12 C 105.10 26.23, 104.67 26.27, 103.97 26.35 C 103.28 26.43, 102.94 26.46, 102.40 26.54 C 101.86 26.62, 101.63 26.64, 101.27 26.73 C 100.92 26.82, 100.79 26.88, 100.62 26.99 C 100.45 27.11, 100.43 27.20, 100.42 27.30 C 100.40 27.40, 100.47 27.45, 100.55 27.49"/>
<path d="M 129.03,20.48 C 128.97 20.60, 128.98 20.72, 128.98 21.07 C 128.97 21.42, 128.99 21.63, 129.01 22.23 C 129.02 22.83, 129.07 23.21, 129.06 24.07 C 129.06 24.92, 129.02 25.47, 128.97 26.51 C 128.92 27.56, 128.89 28.17, 128.82 29.31 C 128.74 30.45, 128.68 31.11, 128.60 32.21 C 128.53 33.32, 128.48 33.89, 128.42 34.84 C 128.37 35.79, 128.32 36.25, 128.33 36.96 C 128.34 37.67, 128.36 38.02, 128.46 38.40 C 128.57 38.77, 128.69 38.90, 128.86 38.83 C 129.03 38.76, 129.17 38.51, 129.31 38.05 C 129.45 37.60, 129.55 37.15, 129.55 36.55 C 129.56 35.95, 129.47 35.36, 129.34 35.06 C 129.22 34.75, 129.09 34.75, 128.94 35.04 C 128.79 35.32, 128.65 35.90, 128.58 36.49 C 128.52 37.08, 128.58 37.52, 128.62 37.97 C 128.65 38.43, 128.70 38.68, 128.76 38.75 C 128.81 38.83, 128.85 38.71, 128.89 38.36 C 128.93 38.00, 128.92 37.67, 128.96 36.98 C 129.01 36.28, 129.03 35.83, 129.11 34.89 C 129.18 33.95, 129.24 33.37, 129.34 32.27 C 129.43 31.17, 129.50 30.51, 129.59 29.37 C 129.68 28.23, 129.72 27.62, 129.78 26.56 C 129.84 25.50, 129.89 24.95, 129.90 24.07 C 129.90 23.20, 129.85 22.79, 129.78 22.18 C 129.71 21.56, 129.65 21.34, 129.55 20.99 C 129.44 20.64, 129.39 20.53, 129.28 20.43 C 129.18 20.33, 129.09 20.35, 129.03 20.48"/>
<path d="M 129.60,10.59 C 129.57 10.66, 129.47 10.69, 129.45 10.79 C 129.44 10.90, 129.45 11.02, 129.52 11.12 C 129.59 11.23, 129.65 11.26, 129.79 11.31 C 129.93 11.35, 130.08 11.40, 130.22 11.36 C 130.35 11.32, 130.44 11.25, 130.48 11.11 C 130.53 10.97, 130.49 10.80, 130.44 10.66 C 130.39 10.51, 130.33 10.46, 130.22 10.39 C 130.10 10.32, 129.99 10.29, 129.87 10.31 C 129.75 10.33, 129.69 10.43, 129.64 10.48 C 129.59 10.54, 129.64 10.53, 129.60 10.59"/>
<path d="M 134.27,20.24 C 134.19 20.35, 134.18 20.44, 134.14 20.78 C 134.10 21.12, 134.07 21.35, 134.09 21.95 C 134.10 22.54, 134.17 22.93, 134.20 23.76 C 134.24 24.58, 134.26 25.08, 134.26 26.07 C 134.26 27.07, 134.23 27.65, 134.19 28.74 C 134.15 29.83, 134.13 30.43, 134.06 31.52 C 133.99 32.61, 133.92 33.19, 133.86 34.18 C 133.79 35.17, 133.73 35.69, 133.73 36.46 C 133.72 37.24, 133.74 37.63, 133.83 38.06 C 133.93 38.49, 134.02 38.61, 134.20 38.60 C 134.39 38.58, 134.52 38.45, 134.74 37.96 C 134.97 37.48, 135.08 37.06, 135.31 36.16 C 135.54 35.26, 135.63 34.59, 135.91 33.47 C 136.20 32.34, 136.36 31.66, 136.72 30.53 C 137.08 29.40, 137.29 28.79, 137.70 27.83 C 138.11 26.87, 138.34 26.43, 138.75 25.75 C 139.17 25.07, 139.40 24.82, 139.79 24.44 C 140.17 24.07, 140.37 23.97, 140.68 23.88 C 140.99 23.80, 141.09 23.80, 141.33 24.02 C 141.57 24.23, 141.68 24.42, 141.88 24.97 C 142.09 25.52, 142.19 25.91, 142.35 26.76 C 142.52 27.61, 142.62 28.15, 142.72 29.21 C 142.82 30.28, 142.83 30.92, 142.84 32.08 C 142.86 33.25, 142.82 33.92, 142.79 35.04 C 142.77 36.15, 142.72 36.73, 142.72 37.68 C 142.72 38.63, 142.72 39.09, 142.79 39.78 C 142.86 40.47, 142.91 40.77, 143.08 41.14 C 143.26 41.51, 143.38 41.64, 143.66 41.64 C 143.94 41.64, 144.12 41.59, 144.48 41.16 C 144.84 40.73, 145.10 40.26, 145.45 39.48 C 145.80 38.70, 146.00 38.09, 146.24 37.26 C 146.47 36.42, 146.60 35.72, 146.62 35.31 C 146.63 34.90, 146.54 34.87, 146.31 35.20 C 146.07 35.54, 145.79 36.19, 145.44 36.97 C 145.09 37.75, 144.87 38.33, 144.57 39.10 C 144.26 39.87, 144.11 40.36, 143.92 40.82 C 143.74 41.28, 143.72 41.37, 143.64 41.40 C 143.55 41.44, 143.54 41.34, 143.49 41.01 C 143.44 40.68, 143.41 40.40, 143.39 39.74 C 143.38 39.07, 143.37 38.62, 143.40 37.69 C 143.42 36.75, 143.48 36.18, 143.52 35.06 C 143.57 33.94, 143.62 33.26, 143.62 32.08 C 143.62 30.90, 143.62 30.24, 143.52 29.14 C 143.42 28.04, 143.34 27.48, 143.14 26.59 C 142.94 25.70, 142.82 25.28, 142.52 24.69 C 142.21 24.10, 142.00 23.88, 141.62 23.63 C 141.23 23.38, 141.02 23.37, 140.58 23.45 C 140.14 23.53, 139.90 23.65, 139.43 24.04 C 138.96 24.43, 138.70 24.71, 138.23 25.41 C 137.76 26.11, 137.51 26.57, 137.06 27.54 C 136.61 28.52, 136.37 29.14, 135.97 30.28 C 135.57 31.42, 135.36 32.11, 135.06 33.25 C 134.75 34.38, 134.62 35.05, 134.44 35.96 C 134.26 36.87, 134.23 37.30, 134.17 37.80 C 134.12 38.31, 134.14 38.45, 134.16 38.50 C 134.19 38.54, 134.24 38.43, 134.29 38.03 C 134.34 37.63, 134.34 37.25, 134.40 36.49 C 134.45 35.73, 134.48 35.21, 134.56 34.23 C 134.64 33.24, 134.71 32.66, 134.79 31.57 C 134.87 30.48, 134.90 29.87, 134.95 28.77 C 135.00 27.67, 135.04 27.09, 135.06 26.08 C 135.08 25.07, 135.07 24.56, 135.04 23.72 C 135.00 22.89, 134.95 22.49, 134.89 21.89 C 134.82 21.30, 134.79 21.08, 134.71 20.75 C 134.64 20.41, 134.60 20.33, 134.51 20.22 C 134.43 20.12, 134.34 20.13, 134.27 20.24"/>
<path d="M 150.45,10.34 C 150.37 10.47, 150.34 10.57, 150.27 11.01 C 150.21 11.45, 150.17 11.73, 150.12 12.54 C 150.06 13.36, 150.07 13.90, 150.02 15.08 C 149.96 16.25, 149.92 16.98, 149.84 18.41 C 149.75 19.84, 149.69 20.67, 149.59 22.23 C 149.48 23.79, 149.43 24.64, 149.31 26.20 C 149.20 27.77, 149.12 28.59, 149.02 30.06 C 148.92 31.54, 148.85 32.32, 148.80 33.60 C 148.75 34.87, 148.74 35.48, 148.77 36.43 C 148.81 37.37, 148.83 37.76, 148.96 38.32 C 149.10 38.89, 149.18 39.11, 149.43 39.25 C 149.69 39.40, 149.89 39.37, 150.26 39.04 C 150.62 38.71, 150.83 38.37, 151.25 37.60 C 151.68 36.84, 151.87 36.29, 152.38 35.21 C 152.88 34.13, 153.18 33.44, 153.78 32.20 C 154.37 30.96, 154.73 30.23, 155.37 29.01 C 156.02 27.80, 156.39 27.16, 157.01 26.14 C 157.63 25.12, 157.96 24.67, 158.48 23.91 C 159.00 23.15, 159.24 22.83, 159.62 22.35 C 159.99 21.86, 160.14 21.73, 160.35 21.47 C 160.56 21.21, 160.59 21.17, 160.67 21.06 C 160.75 20.95, 160.75 20.96, 160.76 20.91 C 160.76 20.87, 160.76 20.84, 160.71 20.83 C 160.66 20.82, 160.65 20.80, 160.51 20.86 C 160.38 20.93, 160.30 20.93, 160.03 21.16 C 159.77 21.38, 159.60 21.52, 159.19 22.00 C 158.78 22.47, 158.52 22.79, 157.97 23.54 C 157.42 24.30, 157.08 24.75, 156.42 25.78 C 155.77 26.80, 155.38 27.44, 154.70 28.65 C 154.03 29.86, 153.67 30.60, 153.04 31.84 C 152.42 33.08, 152.10 33.77, 151.59 34.85 C 151.09 35.93, 150.88 36.47, 150.53 37.25 C 150.19 38.02, 150.07 38.36, 149.87 38.73 C 149.68 39.09, 149.65 39.16, 149.56 39.07 C 149.48 38.97, 149.48 38.78, 149.44 38.25 C 149.41 37.72, 149.38 37.34, 149.39 36.42 C 149.40 35.49, 149.41 34.89, 149.48 33.63 C 149.54 32.37, 149.61 31.59, 149.72 30.12 C 149.83 28.64, 149.91 27.83, 150.04 26.26 C 150.16 24.69, 150.23 23.84, 150.35 22.28 C 150.47 20.72, 150.54 19.90, 150.64 18.46 C 150.75 17.03, 150.81 16.30, 150.86 15.12 C 150.92 13.94, 150.92 13.38, 150.91 12.57 C 150.91 11.75, 150.88 11.46, 150.83 11.02 C 150.79 10.58, 150.77 10.48, 150.69 10.34 C 150.62 10.21, 150.54 10.21, 150.45 10.34"/>
<path d="M 155.24,28.05 C 155.19 28.27, 155.18 28.56, 155.24 29.10 C 155.29 29.65, 155.36 30.02, 155.51 30.77 C 155.66 31.52, 155.77 32.01, 156.01 32.87 C 156.24 33.73, 156.40 34.20, 156.68 35.06 C 156.96 35.92, 157.11 36.37, 157.41 37.17 C 157.71 37.97, 157.86 38.36, 158.16 39.06 C 158.45 39.76, 158.59 40.12, 158.90 40.67 C 159.21 41.21, 159.39 41.44, 159.72 41.80 C 160.06 42.16, 160.24 42.29, 160.58 42.46 C 160.92 42.63, 161.13 42.64, 161.42 42.64 C 161.71 42.65, 161.84 42.59, 162.02 42.50 C 162.20 42.42, 162.27 42.31, 162.30 42.21 C 162.34 42.12, 162.28 42.05, 162.20 42.02 C 162.11 41.99, 162.03 42.06, 161.88 42.07 C 161.74 42.09, 161.66 42.12, 161.45 42.10 C 161.24 42.08, 161.08 42.11, 160.82 41.98 C 160.56 41.84, 160.43 41.74, 160.15 41.42 C 159.88 41.10, 159.73 40.88, 159.45 40.36 C 159.18 39.84, 159.05 39.49, 158.78 38.80 C 158.50 38.12, 158.34 37.72, 158.07 36.93 C 157.79 36.14, 157.64 35.69, 157.39 34.84 C 157.13 33.99, 157.01 33.51, 156.79 32.66 C 156.57 31.81, 156.48 31.33, 156.29 30.59 C 156.11 29.86, 156.01 29.50, 155.86 28.98 C 155.70 28.47, 155.64 28.19, 155.52 28.01 C 155.40 27.82, 155.30 27.83, 155.24 28.05"/>
<path d="M 168.43,34.94 C 168.37 35.13, 168.43 35.37, 168.41 35.86 C 168.39 36.34, 168.36 36.64, 168.32 37.36 C 168.28 38.09, 168.30 38.60, 168.21 39.48 C 168.13 40.36, 168.07 40.83, 167.89 41.76 C 167.72 42.69, 167.57 43.21, 167.34 44.14 C 167.11 45.07, 166.97 45.59, 166.74 46.42 C 166.51 47.25, 166.38 47.69, 166.20 48.29 C 166.03 48.89, 165.96 49.11, 165.87 49.44 C 165.78 49.76, 165.76 49.81, 165.76 49.92 C 165.76 50.02, 165.79 50.04, 165.88 49.98 C 165.97 49.91, 166.04 49.89, 166.22 49.59 C 166.41 49.30, 166.57 49.10, 166.81 48.50 C 167.05 47.90, 167.18 47.45, 167.43 46.61 C 167.68 45.78, 167.81 45.26, 168.05 44.32 C 168.29 43.37, 168.44 42.86, 168.64 41.91 C 168.83 40.96, 168.93 40.46, 169.03 39.56 C 169.12 38.66, 169.12 38.13, 169.12 37.38 C 169.12 36.64, 169.10 36.32, 169.02 35.82 C 168.93 35.32, 168.83 35.07, 168.71 34.90 C 168.59 34.72, 168.49 34.75, 168.43 34.94"/>
<path d="M 188.14,12.88 C 188.05 12.99, 188.00 13.07, 187.90 13.45 C 187.79 13.83, 187.74 14.06, 187.64 14.79 C 187.53 15.52, 187.48 16.00, 187.38 17.10 C 187.28 18.20, 187.24 18.91, 187.13 20.30 C 187.01 21.69, 186.93 22.50, 186.80 24.05 C 186.67 25.60, 186.59 26.45, 186.47 28.03 C 186.34 29.61, 186.28 30.46, 186.18 31.93 C 186.08 33.40, 186.04 34.13, 185.98 35.38 C 185.92 36.62, 185.90 37.20, 185.89 38.16 C 185.88 39.12, 185.90 39.55, 185.94 40.18 C 185.99 40.81, 186.05 41.00, 186.12 41.32 C 186.19 41.64, 186.23 41.68, 186.29 41.77 C 186.35 41.87, 186.39 41.82, 186.42 41.82 C 186.46 41.82, 186.44 41.80, 186.45 41.79 C 186.46 41.77, 186.46 41.84, 186.48 41.73 C 186.50 41.63, 186.54 41.60, 186.54 41.28 C 186.54 40.96, 186.50 40.78, 186.49 40.16 C 186.48 39.54, 186.48 39.12, 186.51 38.17 C 186.54 37.23, 186.57 36.65, 186.64 35.41 C 186.72 34.18, 186.77 33.45, 186.88 31.98 C 186.99 30.52, 187.07 29.66, 187.21 28.09 C 187.35 26.52, 187.43 25.66, 187.57 24.12 C 187.72 22.57, 187.81 21.76, 187.94 20.37 C 188.07 18.98, 188.13 18.28, 188.22 17.18 C 188.32 16.08, 188.37 15.60, 188.41 14.86 C 188.46 14.13, 188.45 13.90, 188.44 13.52 C 188.43 13.13, 188.44 13.05, 188.38 12.92 C 188.32 12.79, 188.24 12.77, 188.14 12.88"/>
<path d="M 182.03,27.84 C 182.11 27.94, 182.20 28.03, 182.48 28.11 C 182.77 28.20, 182.97 28.25, 183.46 28.26 C 183.94 28.27, 184.27 28.26, 184.92 28.15 C 185.57 28.03, 185.96 27.95, 186.72 27.67 C 187.47 27.39, 187.89 27.20, 188.71 26.76 C 189.52 26.32, 189.97 26.07, 190.78 25.48 C 191.59 24.89, 192.00 24.56, 192.73 23.81 C 193.47 23.07, 193.83 22.64, 194.44 21.76 C 195.05 20.88, 195.34 20.38, 195.79 19.40 C 196.23 18.43, 196.42 17.86, 196.67 16.86 C 196.92 15.87, 196.99 15.32, 197.04 14.42 C 197.10 13.52, 197.06 13.08, 196.94 12.38 C 196.83 11.68, 196.72 11.34, 196.47 10.92 C 196.22 10.50, 196.04 10.34, 195.70 10.27 C 195.35 10.20, 195.10 10.25, 194.74 10.57 C 194.37 10.89, 194.17 11.14, 193.87 11.85 C 193.58 12.56, 193.45 13.02, 193.25 14.11 C 193.05 15.19, 192.97 15.88, 192.87 17.28 C 192.77 18.67, 192.76 19.49, 192.74 21.08 C 192.72 22.67, 192.75 23.58, 192.77 25.23 C 192.80 26.87, 192.83 27.75, 192.86 29.30 C 192.89 30.86, 192.90 31.65, 192.94 33.00 C 192.97 34.35, 192.99 35.01, 193.03 36.05 C 193.07 37.10, 193.07 37.55, 193.15 38.22 C 193.22 38.89, 193.27 39.15, 193.41 39.41 C 193.54 39.66, 193.66 39.69, 193.84 39.51 C 194.02 39.33, 194.12 39.10, 194.33 38.50 C 194.53 37.90, 194.60 37.46, 194.87 36.52 C 195.13 35.58, 195.27 34.93, 195.64 33.79 C 196.01 32.64, 196.25 31.94, 196.72 30.80 C 197.19 29.66, 197.47 29.06, 198.00 28.09 C 198.52 27.12, 198.83 26.65, 199.35 25.95 C 199.87 25.25, 200.15 24.97, 200.59 24.58 C 201.03 24.19, 201.24 24.06, 201.55 24.00 C 201.86 23.93, 201.96 23.98, 202.15 24.27 C 202.34 24.55, 202.37 24.79, 202.48 25.40 C 202.60 26.01, 202.66 26.43, 202.73 27.31 C 202.79 28.19, 202.81 28.75, 202.81 29.80 C 202.81 30.86, 202.77 31.48, 202.74 32.57 C 202.72 33.67, 202.69 34.28, 202.68 35.28 C 202.66 36.27, 202.63 36.76, 202.67 37.56 C 202.70 38.35, 202.71 38.73, 202.83 39.27 C 202.95 39.81, 203.06 40.01, 203.27 40.25 C 203.49 40.49, 203.63 40.54, 203.91 40.46 C 204.18 40.39, 204.35 40.28, 204.65 39.86 C 204.96 39.45, 205.12 39.14, 205.44 38.38 C 205.76 37.63, 205.90 37.13, 206.25 36.07 C 206.60 35.02, 206.80 34.35, 207.19 33.13 C 207.59 31.91, 207.84 31.18, 208.24 29.97 C 208.64 28.75, 208.85 28.10, 209.19 27.06 C 209.54 26.03, 209.74 25.48, 209.96 24.81 C 210.17 24.13, 210.22 23.86, 210.26 23.70 C 210.31 23.55, 210.24 23.63, 210.18 24.02 C 210.13 24.40, 210.06 24.77, 209.99 25.62 C 209.92 26.46, 209.88 27.11, 209.83 28.24 C 209.79 29.37, 209.80 30.08, 209.76 31.27 C 209.73 32.45, 209.69 33.10, 209.66 34.16 C 209.63 35.23, 209.61 35.75, 209.62 36.59 C 209.63 37.44, 209.64 37.83, 209.71 38.38 C 209.77 38.93, 209.82 39.09, 209.93 39.32 C 210.03 39.55, 210.09 39.51, 210.22 39.51 C 210.35 39.51, 210.48 39.44, 210.57 39.32 C 210.65 39.20, 210.73 39.01, 210.65 38.90 C 210.58 38.80, 210.30 38.75, 210.19 38.80 C 210.08 38.85, 210.10 39.03, 210.10 39.15 C 210.10 39.27, 210.16 39.38, 210.19 39.40 C 210.23 39.42, 210.25 39.46, 210.26 39.25 C 210.28 39.04, 210.27 38.88, 210.27 38.35 C 210.27 37.82, 210.25 37.43, 210.27 36.60 C 210.29 35.76, 210.31 35.25, 210.37 34.19 C 210.43 33.13, 210.49 32.49, 210.57 31.30 C 210.64 30.12, 210.70 29.41, 210.75 28.28 C 210.79 27.14, 210.84 26.50, 210.81 25.64 C 210.78 24.78, 210.73 24.39, 210.60 23.97 C 210.46 23.56, 210.36 23.44, 210.12 23.56 C 209.89 23.69, 209.73 23.93, 209.41 24.58 C 209.09 25.24, 208.90 25.80, 208.52 26.83 C 208.14 27.85, 207.93 28.51, 207.51 29.72 C 207.09 30.93, 206.83 31.66, 206.42 32.87 C 206.01 34.09, 205.80 34.77, 205.45 35.81 C 205.10 36.85, 204.95 37.34, 204.67 38.08 C 204.40 38.83, 204.27 39.11, 204.08 39.53 C 203.90 39.95, 203.87 40.07, 203.77 40.17 C 203.66 40.28, 203.65 40.25, 203.58 40.05 C 203.50 39.85, 203.44 39.68, 203.39 39.17 C 203.33 38.67, 203.31 38.32, 203.31 37.54 C 203.31 36.77, 203.35 36.29, 203.39 35.30 C 203.43 34.31, 203.47 33.70, 203.51 32.60 C 203.56 31.50, 203.61 30.88, 203.61 29.80 C 203.62 28.73, 203.63 28.16, 203.54 27.24 C 203.45 26.33, 203.37 25.89, 203.17 25.23 C 202.96 24.57, 202.84 24.29, 202.51 23.96 C 202.17 23.63, 201.95 23.54, 201.49 23.58 C 201.04 23.62, 200.77 23.76, 200.24 24.15 C 199.71 24.55, 199.42 24.84, 198.85 25.56 C 198.27 26.28, 197.95 26.76, 197.38 27.75 C 196.81 28.73, 196.51 29.34, 196.00 30.50 C 195.49 31.65, 195.23 32.36, 194.83 33.52 C 194.43 34.68, 194.24 35.33, 194.00 36.29 C 193.75 37.25, 193.70 37.71, 193.62 38.33 C 193.54 38.95, 193.58 39.20, 193.59 39.40 C 193.61 39.60, 193.66 39.58, 193.69 39.34 C 193.71 39.10, 193.71 38.85, 193.71 38.19 C 193.70 37.52, 193.68 37.07, 193.66 36.03 C 193.64 34.99, 193.63 34.33, 193.61 32.98 C 193.59 31.64, 193.59 30.84, 193.57 29.29 C 193.55 27.74, 193.53 26.86, 193.52 25.22 C 193.51 23.58, 193.49 22.67, 193.52 21.10 C 193.55 19.52, 193.57 18.70, 193.67 17.34 C 193.78 15.97, 193.87 15.30, 194.05 14.25 C 194.23 13.21, 194.35 12.77, 194.57 12.11 C 194.78 11.45, 194.92 11.24, 195.13 10.94 C 195.34 10.64, 195.45 10.57, 195.62 10.61 C 195.80 10.66, 195.88 10.77, 196.02 11.14 C 196.16 11.51, 196.25 11.82, 196.32 12.46 C 196.39 13.11, 196.44 13.53, 196.37 14.37 C 196.30 15.22, 196.23 15.74, 195.99 16.69 C 195.74 17.64, 195.57 18.18, 195.15 19.11 C 194.72 20.05, 194.45 20.52, 193.86 21.36 C 193.28 22.20, 192.93 22.60, 192.23 23.31 C 191.53 24.02, 191.13 24.33, 190.35 24.89 C 189.57 25.45, 189.13 25.68, 188.35 26.09 C 187.57 26.50, 187.17 26.69, 186.45 26.94 C 185.74 27.19, 185.38 27.24, 184.77 27.35 C 184.17 27.45, 183.88 27.43, 183.43 27.47 C 182.99 27.51, 182.82 27.51, 182.55 27.53 C 182.28 27.55, 182.20 27.52, 182.09 27.59 C 181.99 27.65, 181.96 27.73, 182.03 27.84"/>
<path d="M 209.18,14.41 C 209.28 14.34, 209.34 14.20, 209.35 14.10 C 209.35 14.00, 209.25 13.96, 209.20 13.91 C 209.15 13.85, 209.15 13.87, 209.11 13.82 C 209.06 13.78, 209.04 13.70, 208.96 13.70 C 208.88 13.69, 208.77 13.71, 208.69 13.81 C 208.61 13.91, 208.54 14.05, 208.57 14.18 C 208.60 14.31, 208.71 14.41, 208.83 14.46 C 208.95 14.51, 209.07 14.48, 209.18 14.41"/>
<path d="M 214.40,24.86 C 214.35 25.00, 214.40 25.10, 214.40 25.47 C 214.40 25.84, 214.39 26.08, 214.41 26.72 C 214.42 27.37, 214.46 27.79, 214.48 28.70 C 214.49 29.60, 214.47 30.18, 214.46 31.24 C 214.45 32.30, 214.44 32.91, 214.43 33.99 C 214.41 35.07, 214.40 35.65, 214.39 36.64 C 214.39 37.62, 214.38 38.13, 214.40 38.90 C 214.41 39.67, 214.40 40.03, 214.48 40.50 C 214.56 40.96, 214.63 41.13, 214.79 41.22 C 214.94 41.32, 215.07 41.28, 215.24 40.97 C 215.41 40.65, 215.49 40.36, 215.64 39.65 C 215.79 38.94, 215.82 38.43, 216.01 37.42 C 216.19 36.41, 216.28 35.77, 216.57 34.60 C 216.85 33.42, 217.04 32.70, 217.44 31.55 C 217.84 30.40, 218.08 29.80, 218.55 28.86 C 219.03 27.91, 219.31 27.47, 219.81 26.82 C 220.31 26.18, 220.61 25.93, 221.07 25.63 C 221.54 25.32, 221.76 25.24, 222.14 25.30 C 222.51 25.36, 222.66 25.48, 222.95 25.92 C 223.23 26.36, 223.35 26.70, 223.57 27.49 C 223.79 28.27, 223.89 28.79, 224.05 29.86 C 224.20 30.92, 224.26 31.61, 224.33 32.82 C 224.40 34.03, 224.41 34.72, 224.41 35.91 C 224.41 37.10, 224.35 37.73, 224.33 38.77 C 224.31 39.82, 224.28 40.31, 224.32 41.11 C 224.36 41.91, 224.37 42.29, 224.51 42.77 C 224.65 43.25, 224.75 43.47, 225.02 43.53 C 225.30 43.58, 225.50 43.51, 225.88 43.07 C 226.27 42.63, 226.56 42.17, 226.95 41.34 C 227.33 40.52, 227.56 39.86, 227.83 38.96 C 228.10 38.05, 228.27 37.26, 228.31 36.81 C 228.34 36.36, 228.25 36.33, 227.99 36.70 C 227.73 37.07, 227.40 37.80, 227.02 38.66 C 226.64 39.51, 226.42 40.15, 226.09 40.97 C 225.76 41.78, 225.58 42.27, 225.38 42.74 C 225.17 43.21, 225.14 43.33, 225.06 43.32 C 224.99 43.31, 225.01 43.13, 224.99 42.69 C 224.96 42.24, 224.95 41.88, 224.95 41.10 C 224.96 40.32, 224.98 39.83, 225.02 38.79 C 225.06 37.76, 225.13 37.12, 225.15 35.91 C 225.17 34.71, 225.18 34.02, 225.12 32.78 C 225.06 31.55, 225.01 30.84, 224.85 29.74 C 224.68 28.64, 224.57 28.10, 224.28 27.26 C 223.99 26.43, 223.82 26.05, 223.40 25.57 C 222.99 25.09, 222.73 24.93, 222.21 24.85 C 221.69 24.77, 221.38 24.85, 220.80 25.17 C 220.23 25.49, 219.90 25.76, 219.33 26.43 C 218.76 27.10, 218.46 27.57, 217.94 28.54 C 217.42 29.51, 217.15 30.12, 216.72 31.29 C 216.28 32.46, 216.08 33.20, 215.77 34.39 C 215.45 35.59, 215.33 36.24, 215.14 37.26 C 214.95 38.29, 214.90 38.80, 214.83 39.52 C 214.76 40.24, 214.78 40.54, 214.80 40.86 C 214.81 41.18, 214.86 41.22, 214.90 41.14 C 214.94 41.07, 214.97 40.92, 215.00 40.47 C 215.03 40.02, 215.04 39.67, 215.06 38.90 C 215.08 38.14, 215.08 37.63, 215.11 36.65 C 215.13 35.67, 215.15 35.08, 215.19 34.00 C 215.22 32.93, 215.25 32.32, 215.27 31.26 C 215.30 30.19, 215.34 29.60, 215.33 28.68 C 215.31 27.77, 215.27 27.33, 215.20 26.67 C 215.13 26.01, 215.08 25.76, 214.97 25.39 C 214.86 25.01, 214.76 24.90, 214.65 24.80 C 214.54 24.69, 214.45 24.73, 214.40 24.86"/>
<path d="M 232.30,14.07 C 232.23 14.12, 232.22 14.09, 232.16 14.32 C 232.11 14.54, 232.07 14.67, 232.02 15.20 C 231.98 15.72, 231.97 16.06, 231.93 16.96 C 231.89 17.87, 231.89 18.49, 231.84 19.72 C 231.79 20.96, 231.74 21.69, 231.67 23.14 C 231.61 24.59, 231.60 25.43, 231.52 26.97 C 231.45 28.50, 231.39 29.31, 231.30 30.82 C 231.20 32.33, 231.13 33.12, 231.06 34.51 C 230.98 35.89, 230.95 36.59, 230.92 37.74 C 230.89 38.89, 230.87 39.42, 230.90 40.27 C 230.92 41.11, 230.92 41.48, 231.03 41.96 C 231.15 42.43, 231.24 42.62, 231.47 42.64 C 231.70 42.67, 231.89 42.55, 232.19 42.09 C 232.49 41.63, 232.64 41.22, 232.98 40.32 C 233.31 39.43, 233.46 38.82, 233.86 37.60 C 234.26 36.39, 234.49 35.63, 234.98 34.26 C 235.47 32.90, 235.75 32.12, 236.32 30.78 C 236.90 29.44, 237.24 28.74, 237.85 27.55 C 238.46 26.36, 238.79 25.79, 239.37 24.84 C 239.94 23.88, 240.25 23.47, 240.72 22.79 C 241.19 22.11, 241.39 21.84, 241.71 21.44 C 242.03 21.04, 242.22 20.95, 242.31 20.79 C 242.41 20.63, 242.38 20.57, 242.20 20.64 C 242.01 20.72, 241.78 20.79, 241.39 21.15 C 241.00 21.50, 240.75 21.76, 240.23 22.43 C 239.72 23.10, 239.41 23.53, 238.81 24.49 C 238.21 25.45, 237.86 26.03, 237.23 27.23 C 236.59 28.43, 236.24 29.13, 235.64 30.48 C 235.04 31.83, 234.75 32.61, 234.23 33.98 C 233.71 35.36, 233.46 36.12, 233.05 37.33 C 232.64 38.55, 232.46 39.15, 232.18 40.05 C 231.91 40.96, 231.81 41.36, 231.67 41.85 C 231.53 42.34, 231.51 42.48, 231.48 42.49 C 231.44 42.50, 231.47 42.35, 231.48 41.91 C 231.49 41.46, 231.49 41.09, 231.51 40.27 C 231.53 39.44, 231.53 38.91, 231.58 37.76 C 231.63 36.62, 231.66 35.93, 231.75 34.55 C 231.84 33.17, 231.91 32.38, 232.01 30.87 C 232.12 29.36, 232.18 28.55, 232.27 27.01 C 232.36 25.47, 232.39 24.63, 232.47 23.18 C 232.55 21.73, 232.61 21.00, 232.68 19.76 C 232.74 18.52, 232.76 17.90, 232.78 16.99 C 232.81 16.08, 232.82 15.75, 232.79 15.21 C 232.77 14.67, 232.72 14.54, 232.66 14.31 C 232.60 14.08, 232.56 14.10, 232.48 14.05 C 232.41 14.00, 232.36 14.01, 232.30 14.07"/>
<path d="M 237.30,28.95 C 237.25 29.15, 237.26 29.42, 237.31 29.93 C 237.35 30.43, 237.35 30.79, 237.53 31.47 C 237.71 32.15, 237.97 32.99, 238.20 33.34 C 238.42 33.69, 238.60 33.65, 238.64 33.23 C 238.68 32.82, 238.53 31.95, 238.39 31.26 C 238.25 30.58, 238.09 30.27, 237.92 29.80 C 237.76 29.33, 237.71 29.07, 237.59 28.90 C 237.46 28.72, 237.36 28.74, 237.30 28.95"/>
<path d="M 238.40,37.25 C 238.35 37.53, 238.41 37.96, 238.47 38.58 C 238.53 39.19, 238.59 39.62, 238.70 40.33 C 238.81 41.04, 238.89 41.52, 239.03 42.14 C 239.16 42.76, 239.24 43.03, 239.37 43.44 C 239.49 43.85, 239.56 43.97, 239.66 44.19 C 239.76 44.40, 239.79 44.45, 239.86 44.50 C 239.92 44.56, 239.97 44.55, 240.00 44.47 C 240.03 44.39, 240.02 44.33, 240.02 44.10 C 240.01 43.87, 240.00 43.73, 239.95 43.31 C 239.91 42.89, 239.87 42.63, 239.78 42.00 C 239.69 41.38, 239.64 40.90, 239.51 40.19 C 239.38 39.48, 239.30 39.06, 239.14 38.45 C 238.97 37.85, 238.85 37.43, 238.70 37.19 C 238.55 36.95, 238.45 36.97, 238.40 37.25"/>
<path d="M 244.18,24.20 C 244.18 24.16, 244.05 24.06, 243.94 24.10 C 243.83 24.13, 243.72 24.11, 243.64 24.39 C 243.56 24.67, 243.54 24.88, 243.53 25.49 C 243.51 26.10, 243.54 26.55, 243.57 27.45 C 243.61 28.34, 243.66 28.90, 243.72 29.97 C 243.77 31.04, 243.81 31.65, 243.87 32.78 C 243.92 33.90, 243.95 34.50, 244.01 35.57 C 244.07 36.64, 244.09 37.18, 244.17 38.11 C 244.25 39.05, 244.29 39.51, 244.43 40.24 C 244.56 40.97, 244.63 41.34, 244.84 41.77 C 245.05 42.20, 245.21 42.37, 245.49 42.40 C 245.78 42.44, 245.97 42.37, 246.27 41.93 C 246.56 41.49, 246.70 41.12, 246.97 40.21 C 247.24 39.31, 247.37 38.62, 247.62 37.41 C 247.87 36.19, 247.98 35.41, 248.22 34.15 C 248.46 32.89, 248.57 32.18, 248.81 31.11 C 249.05 30.04, 249.20 29.54, 249.42 28.81 C 249.64 28.08, 249.75 27.77, 249.90 27.46 C 250.04 27.14, 250.08 27.10, 250.16 27.23 C 250.23 27.37, 250.22 27.58, 250.28 28.13 C 250.34 28.68, 250.39 29.11, 250.44 29.99 C 250.49 30.88, 250.51 31.47, 250.53 32.56 C 250.55 33.65, 250.53 34.32, 250.52 35.44 C 250.51 36.56, 250.50 37.16, 250.48 38.16 C 250.45 39.15, 250.42 39.65, 250.42 40.41 C 250.42 41.17, 250.41 41.52, 250.49 41.95 C 250.57 42.38, 250.66 42.53, 250.83 42.58 C 251.00 42.62, 251.12 42.55, 251.34 42.17 C 251.57 41.80, 251.68 41.46, 251.95 40.69 C 252.21 39.91, 252.34 39.34, 252.67 38.30 C 253.00 37.26, 253.18 36.59, 253.60 35.48 C 254.03 34.37, 254.29 33.74, 254.78 32.75 C 255.27 31.76, 255.57 31.26, 256.06 30.53 C 256.55 29.80, 256.81 29.50, 257.22 29.10 C 257.63 28.70, 257.83 28.60, 258.13 28.53 C 258.43 28.46, 258.55 28.48, 258.72 28.75 C 258.90 29.02, 258.90 29.26, 258.99 29.90 C 259.07 30.53, 259.10 31.00, 259.14 31.90 C 259.19 32.81, 259.20 33.38, 259.21 34.41 C 259.22 35.43, 259.19 36.03, 259.20 37.02 C 259.21 38.01, 259.22 38.55, 259.27 39.36 C 259.33 40.18, 259.34 40.55, 259.47 41.11 C 259.60 41.66, 259.81 41.94, 259.94 42.13 C 260.08 42.32, 260.14 42.28, 260.15 42.06 C 260.15 41.84, 260.00 41.58, 259.96 41.03 C 259.92 40.49, 259.95 40.14, 259.95 39.34 C 259.95 38.54, 259.94 38.01, 259.95 37.02 C 259.97 36.04, 260.02 35.44, 260.03 34.41 C 260.03 33.37, 260.05 32.78, 259.98 31.85 C 259.92 30.92, 259.88 30.43, 259.69 29.75 C 259.51 29.07, 259.40 28.78, 259.07 28.46 C 258.75 28.13, 258.51 28.08, 258.07 28.13 C 257.62 28.17, 257.37 28.28, 256.86 28.69 C 256.35 29.09, 256.07 29.41, 255.52 30.15 C 254.97 30.90, 254.66 31.41, 254.12 32.42 C 253.59 33.42, 253.31 34.06, 252.85 35.18 C 252.39 36.30, 252.17 36.98, 251.82 38.03 C 251.48 39.08, 251.32 39.65, 251.13 40.45 C 250.93 41.24, 250.90 41.59, 250.84 42.00 C 250.79 42.41, 250.85 42.50, 250.87 42.48 C 250.89 42.47, 250.93 42.34, 250.96 41.93 C 251.00 41.52, 251.02 41.18, 251.07 40.43 C 251.11 39.68, 251.14 39.18, 251.19 38.18 C 251.23 37.19, 251.26 36.58, 251.30 35.45 C 251.34 34.33, 251.38 33.66, 251.38 32.55 C 251.38 31.45, 251.40 30.84, 251.30 29.93 C 251.21 29.01, 251.12 28.56, 250.92 27.98 C 250.73 27.40, 250.59 27.18, 250.32 27.03 C 250.05 26.88, 249.88 26.92, 249.58 27.24 C 249.28 27.55, 249.13 27.87, 248.84 28.61 C 248.55 29.35, 248.40 29.87, 248.12 30.94 C 247.83 32.02, 247.69 32.73, 247.42 33.99 C 247.14 35.24, 246.99 36.02, 246.74 37.22 C 246.49 38.43, 246.34 39.11, 246.15 40.00 C 245.96 40.90, 245.90 41.26, 245.78 41.69 C 245.65 42.12, 245.62 42.19, 245.52 42.17 C 245.43 42.15, 245.40 42.00, 245.31 41.60 C 245.22 41.19, 245.16 40.85, 245.06 40.14 C 244.97 39.43, 244.91 38.98, 244.84 38.06 C 244.78 37.14, 244.77 36.60, 244.72 35.54 C 244.68 34.47, 244.66 33.86, 244.63 32.74 C 244.59 31.62, 244.57 31.00, 244.53 29.94 C 244.50 28.87, 244.49 28.30, 244.46 27.41 C 244.43 26.52, 244.43 26.08, 244.40 25.48 C 244.36 24.88, 244.35 24.67, 244.29 24.41 C 244.22 24.15, 244.13 24.20, 244.06 24.18 C 243.99 24.16, 243.92 24.31, 243.94 24.31 C 243.97 24.32, 244.18 24.25, 244.18 24.20"/>
<path d="M 271.66,29.45 C 271.73 29.30, 271.74 29.09, 271.69 28.77 C 271.64 28.44, 271.61 28.19, 271.43 27.82 C 271.24 27.46, 271.10 27.20, 270.77 26.93 C 270.44 26.67, 270.22 26.55, 269.77 26.49 C 269.33 26.43, 269.08 26.41, 268.54 26.63 C 268.01 26.84, 267.70 27.02, 267.12 27.57 C 266.54 28.12, 266.19 28.53, 265.64 29.39 C 265.10 30.25, 264.81 30.81, 264.38 31.87 C 263.96 32.92, 263.77 33.57, 263.53 34.67 C 263.29 35.78, 263.20 36.41, 263.20 37.40 C 263.20 38.38, 263.27 38.87, 263.52 39.60 C 263.77 40.33, 264.00 40.64, 264.46 41.06 C 264.92 41.47, 265.23 41.61, 265.82 41.67 C 266.41 41.73, 266.78 41.65, 267.43 41.35 C 268.08 41.04, 268.45 40.77, 269.07 40.14 C 269.68 39.51, 269.98 39.08, 270.51 38.21 C 271.05 37.35, 271.31 36.81, 271.74 35.83 C 272.16 34.86, 272.35 34.28, 272.63 33.34 C 272.92 32.40, 273.03 31.88, 273.15 31.15 C 273.28 30.42, 273.26 30.04, 273.24 29.68 C 273.21 29.32, 273.11 29.22, 273.03 29.34 C 272.94 29.45, 272.87 29.66, 272.80 30.25 C 272.74 30.83, 272.71 31.26, 272.71 32.26 C 272.71 33.26, 272.75 33.93, 272.78 35.24 C 272.81 36.56, 272.84 37.35, 272.85 38.86 C 272.86 40.37, 272.86 41.18, 272.81 42.80 C 272.77 44.41, 272.75 45.29, 272.63 46.94 C 272.51 48.59, 272.43 49.47, 272.23 51.06 C 272.02 52.65, 271.89 53.45, 271.59 54.87 C 271.29 56.29, 271.12 56.99, 270.74 58.14 C 270.37 59.30, 270.15 59.83, 269.73 60.66 C 269.30 61.48, 269.07 61.79, 268.63 62.27 C 268.18 62.74, 267.93 62.88, 267.50 63.04 C 267.06 63.21, 266.84 63.22, 266.45 63.10 C 266.06 62.98, 265.87 62.83, 265.54 62.44 C 265.21 62.05, 265.04 61.77, 264.80 61.14 C 264.55 60.50, 264.44 60.10, 264.32 59.27 C 264.21 58.43, 264.16 57.92, 264.21 56.96 C 264.26 56.00, 264.39 55.40, 264.58 54.47 C 264.77 53.54, 264.94 53.03, 265.15 52.31 C 265.35 51.59, 265.55 51.17, 265.60 50.86 C 265.64 50.55, 265.58 50.51, 265.37 50.76 C 265.17 51.01, 264.90 51.40, 264.59 52.11 C 264.28 52.82, 264.06 53.34, 263.83 54.30 C 263.60 55.26, 263.49 55.90, 263.44 56.92 C 263.38 57.93, 263.43 58.48, 263.57 59.38 C 263.71 60.27, 263.83 60.71, 264.13 61.41 C 264.42 62.11, 264.63 62.43, 265.07 62.87 C 265.51 63.31, 265.79 63.48, 266.31 63.61 C 266.83 63.74, 267.13 63.71, 267.67 63.52 C 268.21 63.33, 268.50 63.16, 269.02 62.65 C 269.53 62.13, 269.79 61.80, 270.26 60.94 C 270.73 60.08, 270.96 59.53, 271.36 58.35 C 271.76 57.16, 271.94 56.45, 272.26 55.01 C 272.57 53.57, 272.71 52.76, 272.92 51.15 C 273.14 49.55, 273.22 48.66, 273.35 46.99 C 273.47 45.32, 273.49 44.44, 273.55 42.82 C 273.61 41.19, 273.61 40.38, 273.63 38.86 C 273.64 37.34, 273.63 36.55, 273.62 35.23 C 273.61 33.91, 273.61 33.25, 273.58 32.25 C 273.55 31.25, 273.54 30.82, 273.46 30.24 C 273.37 29.65, 273.30 29.44, 273.17 29.32 C 273.05 29.19, 272.97 29.28, 272.84 29.62 C 272.70 29.96, 272.67 30.31, 272.49 31.01 C 272.31 31.71, 272.22 32.22, 271.93 33.12 C 271.64 34.02, 271.45 34.59, 271.03 35.52 C 270.62 36.46, 270.36 36.99, 269.85 37.81 C 269.35 38.63, 269.07 39.04, 268.53 39.63 C 267.98 40.22, 267.67 40.46, 267.13 40.76 C 266.60 41.06, 266.32 41.15, 265.86 41.13 C 265.39 41.11, 265.17 41.02, 264.81 40.68 C 264.46 40.33, 264.27 40.08, 264.08 39.42 C 263.90 38.77, 263.85 38.33, 263.88 37.41 C 263.92 36.49, 264.02 35.89, 264.26 34.84 C 264.51 33.79, 264.70 33.16, 265.11 32.16 C 265.53 31.16, 265.82 30.64, 266.33 29.83 C 266.84 29.02, 267.16 28.63, 267.66 28.11 C 268.16 27.59, 268.41 27.43, 268.81 27.22 C 269.22 27.01, 269.39 27.03, 269.69 27.08 C 269.99 27.12, 270.10 27.23, 270.30 27.45 C 270.51 27.67, 270.57 27.87, 270.72 28.18 C 270.87 28.48, 270.92 28.69, 271.05 28.96 C 271.18 29.23, 271.25 29.42, 271.37 29.52 C 271.49 29.61, 271.60 29.60, 271.66 29.45"/>
<path d="M 298.03,27.39 C 298.06 27.26, 298.02 27.11, 297.93 26.88 C 297.83 26.65, 297.77 26.50, 297.56 26.25 C 297.35 25.99, 297.21 25.81, 296.88 25.61 C 296.55 25.41, 296.35 25.30, 295.90 25.23 C 295.45 25.16, 295.18 25.13, 294.63 25.27 C 294.07 25.41, 293.76 25.52, 293.14 25.94 C 292.52 26.36, 292.17 26.65, 291.53 27.38 C 290.90 28.10, 290.53 28.57, 289.96 29.56 C 289.38 30.55, 289.08 31.17, 288.66 32.33 C 288.23 33.50, 288.06 34.20, 287.83 35.39 C 287.60 36.57, 287.54 37.21, 287.50 38.28 C 287.47 39.34, 287.50 39.86, 287.65 40.72 C 287.81 41.58, 287.95 42.00, 288.27 42.57 C 288.59 43.14, 288.81 43.34, 289.24 43.57 C 289.68 43.79, 289.93 43.81, 290.44 43.68 C 290.95 43.54, 291.25 43.40, 291.79 42.91 C 292.33 42.42, 292.61 42.06, 293.13 41.23 C 293.66 40.40, 293.92 39.86, 294.43 38.75 C 294.95 37.64, 295.23 36.95, 295.70 35.68 C 296.17 34.40, 296.39 33.64, 296.78 32.37 C 297.17 31.10, 297.36 30.40, 297.65 29.33 C 297.94 28.26, 298.08 27.74, 298.23 27.01 C 298.39 26.28, 298.44 25.96, 298.43 25.67 C 298.43 25.37, 298.34 25.32, 298.21 25.53 C 298.09 25.74, 297.96 26.00, 297.82 26.71 C 297.68 27.41, 297.62 27.96, 297.52 29.05 C 297.42 30.14, 297.41 30.87, 297.33 32.17 C 297.26 33.47, 297.20 34.23, 297.14 35.54 C 297.09 36.86, 297.05 37.57, 297.05 38.73 C 297.04 39.89, 297.06 40.46, 297.11 41.35 C 297.16 42.24, 297.19 42.61, 297.30 43.18 C 297.42 43.76, 297.48 43.97, 297.67 44.24 C 297.86 44.50, 298.00 44.57, 298.26 44.51 C 298.53 44.45, 298.73 44.26, 298.98 43.94 C 299.24 43.63, 299.40 43.34, 299.54 42.93 C 299.69 42.51, 299.75 42.10, 299.71 41.86 C 299.68 41.62, 299.57 41.58, 299.38 41.72 C 299.18 41.86, 298.94 42.20, 298.74 42.57 C 298.53 42.94, 298.47 43.24, 298.35 43.57 C 298.23 43.90, 298.20 44.13, 298.13 44.23 C 298.06 44.33, 298.05 44.30, 297.99 44.08 C 297.93 43.85, 297.89 43.66, 297.84 43.11 C 297.79 42.56, 297.76 42.20, 297.74 41.32 C 297.72 40.45, 297.72 39.89, 297.75 38.74 C 297.78 37.59, 297.82 36.89, 297.91 35.59 C 297.99 34.28, 298.07 33.52, 298.17 32.23 C 298.28 30.94, 298.36 30.21, 298.44 29.12 C 298.52 28.03, 298.56 27.50, 298.56 26.78 C 298.57 26.07, 298.56 25.80, 298.47 25.56 C 298.39 25.31, 298.31 25.32, 298.14 25.58 C 297.98 25.84, 297.87 26.14, 297.64 26.85 C 297.41 27.56, 297.29 28.08, 296.98 29.14 C 296.66 30.20, 296.46 30.89, 296.06 32.14 C 295.66 33.40, 295.43 34.15, 294.96 35.40 C 294.49 36.66, 294.21 37.33, 293.71 38.41 C 293.21 39.50, 292.95 40.02, 292.47 40.82 C 291.99 41.62, 291.74 41.95, 291.31 42.42 C 290.87 42.89, 290.65 43.03, 290.28 43.18 C 289.91 43.33, 289.76 43.34, 289.46 43.17 C 289.15 42.99, 289.00 42.83, 288.77 42.32 C 288.53 41.81, 288.39 41.42, 288.28 40.62 C 288.16 39.82, 288.13 39.32, 288.18 38.31 C 288.23 37.29, 288.31 36.67, 288.54 35.53 C 288.78 34.39, 288.96 33.71, 289.38 32.60 C 289.79 31.48, 290.08 30.90, 290.63 29.95 C 291.18 29.01, 291.53 28.57, 292.12 27.89 C 292.70 27.20, 293.02 26.93, 293.56 26.54 C 294.10 26.15, 294.36 26.06, 294.81 25.93 C 295.25 25.81, 295.46 25.84, 295.80 25.89 C 296.13 25.95, 296.25 26.04, 296.48 26.21 C 296.72 26.38, 296.79 26.54, 296.97 26.75 C 297.16 26.95, 297.23 27.07, 297.39 27.23 C 297.55 27.39, 297.64 27.51, 297.77 27.54 C 297.90 27.57, 298.00 27.52, 298.03 27.39"/>
<path d="M 308.81,24.31 C 308.74 24.20, 308.63 24.10, 308.36 24.04 C 308.09 23.97, 307.88 23.94, 307.47 24.01 C 307.05 24.07, 306.77 24.12, 306.27 24.35 C 305.76 24.58, 305.46 24.77, 304.94 25.15 C 304.43 25.53, 304.15 25.78, 303.71 26.26 C 303.27 26.75, 303.02 27.04, 302.73 27.59 C 302.43 28.14, 302.31 28.44, 302.24 29.01 C 302.16 29.58, 302.16 29.90, 302.34 30.45 C 302.52 31.00, 302.70 31.26, 303.12 31.74 C 303.54 32.23, 303.85 32.45, 304.45 32.90 C 305.06 33.35, 305.44 33.57, 306.14 34.00 C 306.84 34.43, 307.27 34.61, 307.95 35.05 C 308.63 35.48, 308.99 35.71, 309.54 36.18 C 310.10 36.64, 310.35 36.90, 310.72 37.36 C 311.09 37.83, 311.24 38.06, 311.39 38.49 C 311.54 38.92, 311.54 39.12, 311.46 39.52 C 311.38 39.92, 311.27 40.11, 310.99 40.47 C 310.71 40.84, 310.51 41.02, 310.07 41.34 C 309.62 41.65, 309.33 41.79, 308.77 42.04 C 308.22 42.29, 307.89 42.40, 307.27 42.58 C 306.66 42.76, 306.30 42.84, 305.71 42.93 C 305.12 43.02, 304.82 43.01, 304.31 43.02 C 303.80 43.03, 303.42 42.93, 303.18 42.98 C 302.94 43.03, 302.91 43.13, 303.13 43.25 C 303.35 43.38, 303.74 43.55, 304.27 43.62 C 304.81 43.70, 305.16 43.70, 305.80 43.63 C 306.44 43.57, 306.82 43.47, 307.47 43.29 C 308.13 43.10, 308.47 42.99, 309.08 42.71 C 309.68 42.44, 310.00 42.29, 310.49 41.91 C 310.98 41.54, 311.21 41.31, 311.51 40.85 C 311.82 40.39, 311.94 40.13, 312.02 39.62 C 312.11 39.12, 312.10 38.84, 311.94 38.31 C 311.78 37.78, 311.62 37.51, 311.23 36.98 C 310.84 36.45, 310.57 36.16, 309.99 35.65 C 309.42 35.14, 309.05 34.89, 308.36 34.43 C 307.66 33.97, 307.23 33.78, 306.54 33.35 C 305.85 32.92, 305.47 32.70, 304.89 32.29 C 304.30 31.88, 304.01 31.70, 303.61 31.29 C 303.22 30.88, 303.07 30.70, 302.92 30.26 C 302.76 29.82, 302.77 29.57, 302.85 29.11 C 302.93 28.64, 303.04 28.40, 303.32 27.93 C 303.60 27.47, 303.84 27.21, 304.26 26.78 C 304.68 26.35, 304.94 26.13, 305.41 25.79 C 305.88 25.45, 306.17 25.30, 306.61 25.09 C 307.05 24.89, 307.28 24.85, 307.62 24.76 C 307.96 24.67, 308.11 24.67, 308.33 24.63 C 308.56 24.59, 308.65 24.64, 308.75 24.57 C 308.84 24.51, 308.89 24.42, 308.81 24.31"/>
<path d="M 330.56,25.03 C 330.48 25.17, 330.44 25.30, 330.38 25.74 C 330.31 26.17, 330.30 26.45, 330.25 27.21 C 330.19 27.97, 330.17 28.48, 330.11 29.54 C 330.06 30.59, 330.04 31.27, 329.98 32.51 C 329.91 33.75, 329.86 34.48, 329.80 35.73 C 329.74 36.99, 329.70 37.66, 329.66 38.77 C 329.63 39.88, 329.61 40.43, 329.62 41.29 C 329.64 42.16, 329.65 42.57, 329.75 43.09 C 329.85 43.62, 329.95 43.83, 330.11 43.91 C 330.27 43.99, 330.40 43.83, 330.55 43.51 C 330.70 43.19, 330.82 42.80, 330.85 42.30 C 330.87 41.80, 330.79 41.26, 330.67 41.00 C 330.54 40.74, 330.36 40.73, 330.21 40.98 C 330.07 41.23, 329.96 41.76, 329.93 42.25 C 329.90 42.74, 330.00 43.12, 330.05 43.43 C 330.11 43.75, 330.16 43.91, 330.21 43.83 C 330.25 43.76, 330.25 43.56, 330.27 43.05 C 330.28 42.54, 330.25 42.15, 330.27 41.29 C 330.29 40.44, 330.31 39.90, 330.37 38.80 C 330.42 37.70, 330.48 37.03, 330.56 35.78 C 330.64 34.53, 330.71 33.80, 330.79 32.56 C 330.87 31.32, 330.91 30.64, 330.96 29.58 C 331.01 28.51, 331.05 28.01, 331.04 27.24 C 331.04 26.48, 331.00 26.19, 330.95 25.75 C 330.91 25.31, 330.89 25.18, 330.81 25.04 C 330.74 24.90, 330.65 24.89, 330.56 25.03"/>
<path d="M 330.47,17.39 C 330.54 17.33, 330.53 17.15, 330.46 17.09 C 330.39 17.04, 330.19 17.04, 330.12 17.10 C 330.06 17.16, 330.06 17.34, 330.13 17.40 C 330.20 17.45, 330.41 17.45, 330.47 17.39"/>
<path d="M 338.36,14.63 C 338.28 14.78, 338.27 14.91, 338.20 15.36 C 338.13 15.80, 338.10 16.10, 338.02 16.86 C 337.95 17.62, 337.92 18.10, 337.83 19.17 C 337.75 20.23, 337.70 20.86, 337.58 22.19 C 337.46 23.52, 337.37 24.32, 337.24 25.81 C 337.11 27.30, 337.05 28.13, 336.94 29.63 C 336.83 31.13, 336.77 31.91, 336.70 33.33 C 336.63 34.74, 336.60 35.46, 336.59 36.69 C 336.57 37.92, 336.58 38.53, 336.63 39.49 C 336.67 40.45, 336.70 40.87, 336.81 41.51 C 336.93 42.14, 337.05 42.38, 337.21 42.67 C 337.38 42.95, 337.54 42.89, 337.64 42.92 C 337.74 42.96, 337.74 42.91, 337.72 42.83 C 337.69 42.76, 337.59 42.82, 337.52 42.54 C 337.45 42.26, 337.42 42.05, 337.36 41.43 C 337.31 40.82, 337.28 40.41, 337.26 39.47 C 337.23 38.52, 337.23 37.92, 337.26 36.70 C 337.29 35.48, 337.32 34.77, 337.40 33.36 C 337.48 31.96, 337.55 31.18, 337.67 29.69 C 337.80 28.19, 337.87 27.36, 338.01 25.88 C 338.15 24.39, 338.24 23.59, 338.37 22.26 C 338.50 20.94, 338.56 20.30, 338.65 19.23 C 338.74 18.16, 338.78 17.68, 338.81 16.91 C 338.84 16.14, 338.82 15.83, 338.78 15.38 C 338.74 14.92, 338.70 14.78, 338.61 14.63 C 338.53 14.48, 338.44 14.49, 338.36 14.63"/>
<path d="M 335.32,30.21 C 335.42 30.29, 335.51 30.31, 335.83 30.34 C 336.14 30.38, 336.35 30.44, 336.90 30.40 C 337.45 30.37, 337.88 30.30, 338.57 30.18 C 339.25 30.06, 339.71 29.97, 340.31 29.79 C 340.90 29.61, 341.31 29.44, 341.54 29.29 C 341.77 29.13, 341.75 29.06, 341.48 29.01 C 341.21 28.97, 340.79 29.02, 340.17 29.07 C 339.56 29.12, 339.09 29.16, 338.41 29.25 C 337.74 29.35, 337.32 29.46, 336.79 29.56 C 336.27 29.67, 336.09 29.70, 335.79 29.77 C 335.49 29.85, 335.40 29.87, 335.30 29.96 C 335.21 30.04, 335.21 30.13, 335.32 30.21"/>
<path d="M 369.73,27.37 C 369.72 27.23, 369.69 27.09, 369.50 26.87 C 369.32 26.64, 369.18 26.46, 368.80 26.24 C 368.41 26.02, 368.14 25.86, 367.59 25.77 C 367.04 25.67, 366.71 25.63, 366.04 25.77 C 365.37 25.90, 364.98 26.01, 364.24 26.43 C 363.50 26.84, 363.07 27.13, 362.33 27.84 C 361.59 28.54, 361.18 29.02, 360.54 29.95 C 359.90 30.88, 359.57 31.47, 359.14 32.49 C 358.71 33.50, 358.54 34.09, 358.41 35.03 C 358.28 35.98, 358.30 36.48, 358.48 37.22 C 358.66 37.95, 358.86 38.29, 359.30 38.72 C 359.75 39.16, 360.08 39.30, 360.71 39.39 C 361.33 39.48, 361.73 39.42, 362.43 39.16 C 363.13 38.91, 363.53 38.67, 364.22 38.11 C 364.91 37.55, 365.27 37.16, 365.89 36.35 C 366.50 35.55, 366.79 35.03, 367.30 34.08 C 367.81 33.14, 368.05 32.59, 368.43 31.64 C 368.81 30.69, 368.99 30.10, 369.20 29.34 C 369.42 28.57, 369.47 28.18, 369.50 27.79 C 369.53 27.40, 369.45 27.29, 369.35 27.40 C 369.25 27.51, 369.13 27.69, 368.99 28.34 C 368.85 28.98, 368.75 29.51, 368.64 30.62 C 368.54 31.74, 368.52 32.47, 368.47 33.92 C 368.42 35.36, 368.42 36.22, 368.38 37.85 C 368.35 39.48, 368.34 40.39, 368.29 42.08 C 368.23 43.77, 368.21 44.67, 368.11 46.30 C 368.00 47.93, 367.94 48.77, 367.76 50.24 C 367.58 51.71, 367.47 52.43, 367.21 53.64 C 366.95 54.86, 366.79 55.41, 366.46 56.32 C 366.13 57.23, 365.93 57.59, 365.55 58.18 C 365.16 58.76, 364.96 58.97, 364.54 59.23 C 364.12 59.50, 363.91 59.54, 363.46 59.50 C 363.01 59.47, 362.76 59.35, 362.29 59.06 C 361.81 58.76, 361.54 58.53, 361.09 58.01 C 360.64 57.50, 360.41 57.15, 360.04 56.47 C 359.67 55.78, 359.47 55.38, 359.22 54.58 C 358.98 53.77, 358.88 53.31, 358.81 52.44 C 358.74 51.57, 358.74 51.13, 358.88 50.24 C 359.03 49.35, 359.16 48.89, 359.54 48.01 C 359.92 47.13, 360.18 46.69, 360.77 45.84 C 361.35 44.98, 361.71 44.56, 362.48 43.74 C 363.24 42.93, 363.70 42.52, 364.59 41.76 C 365.49 41.01, 366.00 40.66, 366.95 39.97 C 367.90 39.29, 368.40 38.95, 369.33 38.36 C 370.26 37.76, 370.72 37.49, 371.61 37.00 C 372.50 36.50, 372.95 36.31, 373.77 35.88 C 374.59 35.46, 375.01 35.26, 375.72 34.87 C 376.42 34.48, 376.74 34.32, 377.32 33.94 C 377.89 33.57, 378.17 33.40, 378.60 33.00 C 379.03 32.59, 379.21 32.36, 379.48 31.90 C 379.74 31.44, 379.81 31.18, 379.90 30.69 C 379.99 30.19, 380.02 29.92, 379.92 29.43 C 379.83 28.93, 379.71 28.65, 379.44 28.23 C 379.16 27.82, 378.99 27.59, 378.57 27.34 C 378.14 27.10, 377.86 26.98, 377.33 27.00 C 376.80 27.01, 376.48 27.07, 375.90 27.41 C 375.31 27.76, 374.94 28.04, 374.41 28.72 C 373.87 29.41, 373.60 29.90, 373.20 30.84 C 372.80 31.78, 372.61 32.37, 372.41 33.42 C 372.21 34.46, 372.16 35.07, 372.22 36.08 C 372.29 37.08, 372.42 37.61, 372.72 38.45 C 373.02 39.28, 373.25 39.66, 373.72 40.24 C 374.19 40.82, 374.51 41.04, 375.08 41.34 C 375.65 41.65, 376.00 41.73, 376.57 41.75 C 377.14 41.76, 377.43 41.69, 377.92 41.43 C 378.41 41.17, 378.65 40.97, 379.02 40.46 C 379.39 39.95, 379.56 39.62, 379.78 38.87 C 380.00 38.12, 380.06 37.62, 380.12 36.71 C 380.17 35.79, 380.15 35.22, 380.07 34.28 C 379.99 33.34, 379.90 32.83, 379.71 32.01 C 379.52 31.18, 379.37 30.77, 379.13 30.15 C 378.89 29.53, 378.73 29.28, 378.50 28.89 C 378.27 28.50, 378.13 28.36, 377.99 28.19 C 377.84 28.01, 377.76 28.02, 377.78 28.01 C 377.80 28.00, 377.84 28.07, 378.08 28.12 C 378.31 28.17, 378.50 28.21, 378.95 28.24 C 379.40 28.27, 379.71 28.29, 380.33 28.28 C 380.96 28.27, 381.35 28.26, 382.07 28.19 C 382.80 28.12, 383.21 28.07, 383.96 27.95 C 384.70 27.82, 385.10 27.74, 385.81 27.56 C 386.52 27.38, 386.90 27.26, 387.51 27.03 C 388.13 26.81, 388.42 26.70, 388.89 26.44 C 389.35 26.18, 389.56 26.05, 389.84 25.74 C 390.11 25.43, 390.21 25.24, 390.27 24.90 C 390.32 24.56, 390.30 24.35, 390.10 24.04 C 389.90 23.74, 389.70 23.54, 389.27 23.37 C 388.83 23.21, 388.54 23.16, 387.94 23.21 C 387.34 23.26, 386.97 23.32, 386.28 23.61 C 385.58 23.91, 385.16 24.12, 384.45 24.70 C 383.73 25.27, 383.33 25.66, 382.69 26.50 C 382.05 27.34, 381.72 27.86, 381.24 28.90 C 380.77 29.94, 380.56 30.56, 380.30 31.70 C 380.04 32.84, 379.96 33.49, 379.94 34.61 C 379.92 35.73, 379.98 36.32, 380.20 37.29 C 380.41 38.26, 380.60 38.72, 381.02 39.46 C 381.44 40.20, 381.71 40.49, 382.30 40.98 C 382.88 41.47, 383.23 41.66, 383.94 41.89 C 384.65 42.12, 385.05 42.17, 385.86 42.13 C 386.66 42.08, 387.11 41.98, 387.96 41.67 C 388.82 41.37, 389.28 41.16, 390.13 40.60 C 390.98 40.05, 391.41 39.68, 392.21 38.89 C 393.00 38.10, 393.41 37.61, 394.10 36.64 C 394.79 35.67, 395.12 35.10, 395.67 34.04 C 396.22 32.98, 396.46 32.40, 396.84 31.35 C 397.22 30.30, 397.36 29.76, 397.57 28.80 C 397.78 27.84, 397.82 27.36, 397.88 26.55 C 397.93 25.74, 397.90 25.38, 397.84 24.76 C 397.79 24.14, 397.72 23.87, 397.59 23.45 C 397.47 23.02, 397.39 22.84, 397.23 22.64 C 397.07 22.43, 396.96 22.41, 396.80 22.42 C 396.63 22.44, 396.51 22.52, 396.41 22.74 C 396.32 22.96, 396.29 23.13, 396.33 23.52 C 396.37 23.91, 396.45 24.16, 396.60 24.68 C 396.76 25.20, 396.88 25.48, 397.10 26.13 C 397.33 26.78, 397.47 27.14, 397.74 27.92 C 398.01 28.69, 398.17 29.13, 398.44 30.00 C 398.71 30.87, 398.87 31.35, 399.10 32.28 C 399.32 33.21, 399.42 33.71, 399.57 34.66 C 399.71 35.62, 399.76 36.12, 399.82 37.07 C 399.89 38.01, 399.91 38.49, 399.89 39.37 C 399.88 40.24, 399.85 40.68, 399.74 41.43 C 399.64 42.19, 399.55 42.54, 399.35 43.14 C 399.16 43.73, 399.04 43.98, 398.75 44.41 C 398.46 44.84, 398.29 45.02, 397.92 45.28 C 397.54 45.55, 397.31 45.63, 396.87 45.75 C 396.43 45.88, 396.19 45.90, 395.71 45.89 C 395.24 45.88, 394.98 45.84, 394.50 45.70 C 394.02 45.56, 393.75 45.44, 393.30 45.20 C 392.84 44.97, 392.64 44.82, 392.23 44.52 C 391.82 44.23, 391.48 43.84, 391.24 43.73 C 390.99 43.62, 390.88 43.70, 391.00 43.96 C 391.11 44.22, 391.41 44.67, 391.80 45.04 C 392.20 45.42, 392.47 45.56, 392.97 45.83 C 393.47 46.09, 393.77 46.23, 394.31 46.38 C 394.86 46.52, 395.16 46.57, 395.71 46.56 C 396.25 46.56, 396.54 46.53, 397.05 46.37 C 397.56 46.21, 397.83 46.10, 398.27 45.77 C 398.71 45.45, 398.91 45.23, 399.24 44.75 C 399.58 44.26, 399.71 43.98, 399.94 43.34 C 400.17 42.70, 400.27 42.32, 400.39 41.53 C 400.52 40.74, 400.55 40.28, 400.57 39.38 C 400.60 38.48, 400.58 37.98, 400.52 37.02 C 400.46 36.05, 400.41 35.54, 400.27 34.56 C 400.13 33.58, 400.03 33.07, 399.81 32.11 C 399.59 31.16, 399.43 30.67, 399.16 29.78 C 398.90 28.89, 398.73 28.45, 398.47 27.67 C 398.21 26.89, 398.06 26.52, 397.85 25.87 C 397.63 25.23, 397.54 24.95, 397.39 24.45 C 397.25 23.95, 397.21 23.71, 397.11 23.38 C 397.01 23.04, 396.96 22.93, 396.90 22.78 C 396.84 22.63, 396.81 22.61, 396.81 22.62 C 396.80 22.63, 396.80 22.65, 396.85 22.84 C 396.90 23.03, 396.97 23.19, 397.05 23.58 C 397.13 23.98, 397.21 24.22, 397.25 24.81 C 397.29 25.39, 397.31 25.73, 397.25 26.50 C 397.18 27.27, 397.13 27.74, 396.92 28.66 C 396.71 29.58, 396.57 30.10, 396.19 31.11 C 395.81 32.12, 395.57 32.69, 395.03 33.71 C 394.50 34.73, 394.17 35.28, 393.50 36.21 C 392.83 37.15, 392.44 37.62, 391.69 38.38 C 390.94 39.13, 390.53 39.47, 389.73 40.00 C 388.94 40.53, 388.51 40.72, 387.72 41.01 C 386.94 41.30, 386.53 41.40, 385.82 41.46 C 385.10 41.52, 384.75 41.49, 384.12 41.30 C 383.50 41.11, 383.19 40.95, 382.68 40.52 C 382.16 40.10, 381.92 39.84, 381.56 39.16 C 381.19 38.49, 381.02 38.06, 380.84 37.16 C 380.66 36.25, 380.61 35.69, 380.64 34.63 C 380.68 33.57, 380.76 32.95, 381.01 31.87 C 381.26 30.78, 381.46 30.19, 381.91 29.21 C 382.37 28.23, 382.68 27.74, 383.28 26.96 C 383.89 26.17, 384.26 25.82, 384.92 25.29 C 385.58 24.76, 385.96 24.58, 386.57 24.31 C 387.19 24.04, 387.51 24.00, 388.01 23.95 C 388.51 23.89, 388.73 23.93, 389.06 24.01 C 389.39 24.09, 389.52 24.20, 389.67 24.36 C 389.82 24.53, 389.84 24.62, 389.80 24.81 C 389.75 25.01, 389.69 25.14, 389.45 25.36 C 389.21 25.57, 389.03 25.68, 388.60 25.88 C 388.17 26.09, 387.88 26.19, 387.29 26.39 C 386.69 26.58, 386.32 26.70, 385.63 26.87 C 384.95 27.03, 384.56 27.10, 383.84 27.21 C 383.11 27.32, 382.71 27.35, 382.01 27.40 C 381.30 27.44, 380.93 27.43, 380.32 27.44 C 379.71 27.44, 379.42 27.39, 378.96 27.42 C 378.50 27.44, 378.30 27.46, 378.02 27.56 C 377.75 27.66, 377.66 27.73, 377.58 27.90 C 377.50 28.07, 377.53 28.14, 377.61 28.39 C 377.69 28.64, 377.81 28.76, 378.00 29.15 C 378.18 29.55, 378.33 29.77, 378.53 30.37 C 378.73 30.97, 378.86 31.36, 379.02 32.15 C 379.17 32.95, 379.24 33.43, 379.30 34.34 C 379.36 35.24, 379.37 35.79, 379.33 36.66 C 379.28 37.53, 379.24 37.99, 379.08 38.68 C 378.91 39.36, 378.78 39.65, 378.49 40.09 C 378.20 40.54, 378.02 40.70, 377.64 40.91 C 377.26 41.13, 377.05 41.19, 376.59 41.17 C 376.13 41.15, 375.84 41.08, 375.36 40.82 C 374.88 40.55, 374.60 40.37, 374.19 39.86 C 373.79 39.34, 373.59 39.00, 373.34 38.23 C 373.09 37.47, 372.97 36.97, 372.93 36.04 C 372.89 35.10, 372.95 34.54, 373.15 33.56 C 373.35 32.58, 373.55 32.02, 373.93 31.15 C 374.30 30.27, 374.55 29.82, 375.02 29.19 C 375.48 28.56, 375.80 28.31, 376.26 28.00 C 376.73 27.68, 376.96 27.63, 377.36 27.60 C 377.75 27.58, 377.94 27.68, 378.24 27.87 C 378.54 28.07, 378.66 28.26, 378.87 28.59 C 379.08 28.93, 379.20 29.16, 379.28 29.55 C 379.36 29.95, 379.35 30.17, 379.29 30.58 C 379.22 30.99, 379.17 31.21, 378.95 31.61 C 378.73 32.00, 378.58 32.19, 378.19 32.56 C 377.79 32.92, 377.54 33.07, 376.98 33.42 C 376.43 33.77, 376.11 33.93, 375.41 34.30 C 374.71 34.68, 374.29 34.87, 373.47 35.29 C 372.65 35.72, 372.19 35.92, 371.29 36.42 C 370.38 36.91, 369.91 37.18, 368.96 37.78 C 368.01 38.37, 367.51 38.71, 366.54 39.40 C 365.57 40.09, 365.05 40.44, 364.13 41.21 C 363.22 41.99, 362.74 42.41, 361.96 43.26 C 361.17 44.10, 360.80 44.54, 360.19 45.44 C 359.58 46.34, 359.30 46.80, 358.91 47.74 C 358.51 48.68, 358.37 49.18, 358.21 50.13 C 358.05 51.08, 358.05 51.56, 358.11 52.49 C 358.18 53.42, 358.27 53.92, 358.53 54.78 C 358.78 55.65, 358.99 56.08, 359.39 56.82 C 359.79 57.56, 360.03 57.94, 360.54 58.50 C 361.06 59.06, 361.38 59.32, 361.96 59.63 C 362.54 59.94, 362.87 60.04, 363.44 60.04 C 364.01 60.05, 364.29 59.98, 364.81 59.67 C 365.32 59.36, 365.56 59.12, 366.01 58.49 C 366.45 57.86, 366.66 57.48, 367.03 56.53 C 367.40 55.59, 367.56 55.02, 367.85 53.78 C 368.13 52.54, 368.24 51.81, 368.43 50.32 C 368.63 48.84, 368.70 47.99, 368.81 46.35 C 368.93 44.71, 368.96 43.80, 369.03 42.11 C 369.10 40.41, 369.11 39.50, 369.16 37.87 C 369.22 36.24, 369.24 35.39, 369.31 33.95 C 369.38 32.52, 369.45 31.80, 369.52 30.69 C 369.59 29.58, 369.66 29.07, 369.65 28.41 C 369.65 27.75, 369.61 27.55, 369.50 27.40 C 369.39 27.25, 369.30 27.33, 369.11 27.67 C 368.91 28.01, 368.80 28.38, 368.53 29.12 C 368.26 29.85, 368.12 30.43, 367.74 31.35 C 367.36 32.28, 367.13 32.82, 366.63 33.73 C 366.14 34.63, 365.86 35.13, 365.28 35.90 C 364.71 36.66, 364.37 37.02, 363.75 37.54 C 363.13 38.07, 362.78 38.27, 362.18 38.53 C 361.58 38.79, 361.27 38.86, 360.77 38.83 C 360.27 38.79, 360.01 38.70, 359.67 38.35 C 359.32 38.01, 359.17 37.74, 359.05 37.09 C 358.93 36.45, 358.92 36.00, 359.07 35.14 C 359.22 34.28, 359.40 33.73, 359.82 32.78 C 360.24 31.83, 360.57 31.27, 361.18 30.39 C 361.79 29.52, 362.18 29.06, 362.87 28.39 C 363.55 27.73, 363.94 27.46, 364.60 27.07 C 365.27 26.69, 365.61 26.58, 366.18 26.47 C 366.74 26.36, 367.00 26.42, 367.45 26.52 C 367.90 26.61, 368.09 26.77, 368.42 26.94 C 368.76 27.10, 368.89 27.21, 369.11 27.33 C 369.33 27.45, 369.40 27.54, 369.52 27.55 C 369.65 27.55, 369.73 27.50, 369.73 27.37"/>
</svg>
