<svg xmlns="http://www.w3.org/2000/svg" viewBox="0 0 383.4 33.5" fill="currentColor" stroke="none" role="img">
<path d="M 12.98,16.19 C 12.92 16.09, 12.81 16.05, 12.63 15.98 C 12.46 15.91, 12.37 15.88, 12.09 15.83 C 11.81 15.79, 11.62 15.74, 11.24 15.75 C 10.86 15.76, 10.64 15.78, 10.18 15.89 C 9.73 16.00, 9.45 16.09, 8.96 16.31 C 8.47 16.53, 8.19 16.68, 7.74 16.97 C 7.28 17.27, 7.03 17.46, 6.68 17.80 C 6.33 18.14, 6.17 18.32, 5.98 18.67 C 5.80 19.02, 5.74 19.22, 5.75 19.54 C 5.76 19.86, 5.83 20.05, 6.05 20.27 C 6.26 20.49, 6.46 20.57, 6.83 20.64 C 7.19 20.71, 7.43 20.70, 7.89 20.61 C 8.35 20.52, 8.62 20.43, 9.11 20.21 C 9.61 19.98, 9.88 19.80, 10.37 19.48 C 10.85 19.15, 11.12 18.95, 11.54 18.57 C 11.97 18.19, 12.19 17.96, 12.49 17.58 C 12.80 17.20, 12.93 16.97, 13.07 16.68 C 13.21 16.38, 13.21 16.24, 13.20 16.12 C 13.20 15.99, 13.11 15.96, 13.04 16.05 C 12.96 16.14, 12.85 16.27, 12.84 16.55 C 12.83 16.84, 12.84 17.10, 12.99 17.49 C 13.14 17.88, 13.28 18.12, 13.59 18.49 C 13.89 18.87, 14.07 19.05, 14.50 19.35 C 14.93 19.65, 15.19 19.79, 15.74 19.99 C 16.29 20.19, 16.62 20.27, 17.27 20.34 C 17.92 20.42, 18.36 20.42, 19.01 20.38 C 19.65 20.34, 20.01 20.27, 20.51 20.15 C 21.00 20.03, 21.31 19.91, 21.50 19.79 C 21.68 19.67, 21.66 19.59, 21.45 19.54 C 21.24 19.49, 20.92 19.53, 20.43 19.55 C 19.93 19.56, 19.59 19.60, 18.98 19.61 C 18.36 19.62, 17.95 19.64, 17.35 19.59 C 16.75 19.53, 16.46 19.48, 15.97 19.32 C 15.48 19.16, 15.26 19.03, 14.91 18.77 C 14.56 18.52, 14.42 18.35, 14.20 18.03 C 13.99 17.71, 13.95 17.49, 13.83 17.17 C 13.70 16.84, 13.69 16.66, 13.58 16.42 C 13.48 16.18, 13.42 16.07, 13.30 15.97 C 13.17 15.88, 13.10 15.86, 12.95 15.94 C 12.81 16.01, 12.75 16.11, 12.55 16.35 C 12.35 16.59, 12.26 16.80, 11.96 17.13 C 11.66 17.47, 11.46 17.67, 11.06 18.02 C 10.66 18.36, 10.40 18.54, 9.94 18.84 C 9.49 19.13, 9.23 19.29, 8.78 19.50 C 8.34 19.70, 8.10 19.77, 7.73 19.87 C 7.35 19.97, 7.16 19.98, 6.89 19.99 C 6.62 19.99, 6.50 19.99, 6.37 19.90 C 6.25 19.82, 6.22 19.74, 6.25 19.56 C 6.27 19.37, 6.32 19.23, 6.50 18.99 C 6.68 18.74, 6.82 18.59, 7.15 18.32 C 7.48 18.04, 7.72 17.88, 8.15 17.62 C 8.57 17.36, 8.83 17.22, 9.27 17.02 C 9.72 16.82, 9.97 16.74, 10.37 16.64 C 10.77 16.54, 10.93 16.53, 11.26 16.52 C 11.59 16.51, 11.75 16.58, 12.01 16.59 C 12.27 16.60, 12.37 16.59, 12.55 16.57 C 12.74 16.55, 12.84 16.55, 12.93 16.48 C 13.01 16.40, 13.03 16.29, 12.98 16.19"/>
<path d="M 34.58,6.02 C 34.51 6.11, 34.50 6.19, 34.49 6.40 C 34.47 6.61, 34.48 6.72, 34.50 7.07 C 34.51 7.42, 34.53 7.66, 34.56 8.16 C 34.59 8.66, 34.62 8.96, 34.66 9.57 C 34.69 10.19, 34.70 10.55, 34.75 11.23 C 34.80 11.91, 34.83 12.28, 34.92 12.97 C 35.02 13.65, 35.06 14.02, 35.22 14.65 C 35.38 15.29, 35.47 15.62, 35.71 16.16 C 35.95 16.70, 36.08 16.94, 36.41 17.35 C 36.73 17.75, 36.93 17.92, 37.34 18.17 C 37.75 18.43, 37.99 18.53, 38.45 18.62 C 38.91 18.71, 39.16 18.71, 39.63 18.64 C 40.11 18.58, 40.35 18.49, 40.82 18.29 C 41.29 18.09, 41.52 17.93, 41.96 17.63 C 42.41 17.32, 42.64 17.11, 43.03 16.75 C 43.42 16.39, 43.62 16.19, 43.91 15.85 C 44.21 15.50, 44.36 15.27, 44.53 15.03 C 44.70 14.79, 44.70 14.69, 44.75 14.65 C 44.79 14.60, 44.74 14.66, 44.75 14.81 C 44.75 14.95, 44.73 15.10, 44.77 15.39 C 44.82 15.68, 44.84 15.90, 44.98 16.26 C 45.12 16.61, 45.23 16.84, 45.45 17.16 C 45.67 17.49, 45.80 17.65, 46.08 17.89 C 46.36 18.14, 46.52 18.26, 46.85 18.39 C 47.17 18.53, 47.36 18.55, 47.72 18.57 C 48.08 18.59, 48.28 18.57, 48.65 18.47 C 49.01 18.38, 49.21 18.29, 49.54 18.10 C 49.87 17.91, 50.04 17.74, 50.29 17.52 C 50.54 17.31, 50.64 17.21, 50.78 17.02 C 50.92 16.84, 50.97 16.70, 51.00 16.59 C 51.03 16.49, 50.94 16.45, 50.92 16.51 C 50.90 16.57, 50.84 16.72, 50.89 16.91 C 50.93 17.10, 51.01 17.25, 51.15 17.47 C 51.29 17.70, 51.39 17.82, 51.60 18.04 C 51.81 18.25, 51.93 18.39, 52.20 18.55 C 52.48 18.71, 52.66 18.77, 52.99 18.84 C 53.32 18.91, 53.49 18.92, 53.85 18.89 C 54.21 18.85, 54.41 18.80, 54.80 18.67 C 55.19 18.54, 55.41 18.43, 55.81 18.22 C 56.20 18.02, 56.40 17.90, 56.78 17.65 C 57.16 17.40, 57.37 17.24, 57.71 16.98 C 58.05 16.72, 58.20 16.57, 58.47 16.36 C 58.73 16.15, 58.82 16.06, 59.01 15.94 C 59.20 15.82, 59.29 15.77, 59.41 15.74 C 59.54 15.72, 59.57 15.75, 59.66 15.84 C 59.75 15.92, 59.76 16.00, 59.88 16.16 C 60.01 16.33, 60.08 16.46, 60.28 16.65 C 60.48 16.84, 60.61 16.97, 60.90 17.13 C 61.19 17.30, 61.37 17.36, 61.73 17.47 C 62.09 17.57, 62.30 17.61, 62.71 17.64 C 63.12 17.67, 63.36 17.66, 63.80 17.62 C 64.23 17.57, 64.48 17.53, 64.89 17.41 C 65.31 17.30, 65.52 17.22, 65.89 17.05 C 66.26 16.87, 66.45 16.76, 66.75 16.52 C 67.05 16.29, 67.20 16.14, 67.39 15.86 C 67.59 15.59, 67.66 15.43, 67.74 15.15 C 67.81 14.86, 67.83 14.72, 67.77 14.46 C 67.71 14.21, 67.64 14.06, 67.44 13.86 C 67.25 13.67, 67.09 13.58, 66.80 13.51 C 66.52 13.43, 66.34 13.44, 66.03 13.50 C 65.72 13.56, 65.54 13.62, 65.24 13.81 C 64.95 13.99, 64.78 14.13, 64.55 14.43 C 64.32 14.72, 64.20 14.91, 64.10 15.27 C 64.01 15.64, 63.99 15.88, 64.09 16.27 C 64.18 16.66, 64.27 16.88, 64.58 17.22 C 64.89 17.56, 65.13 17.71, 65.64 17.95 C 66.14 18.18, 66.46 18.27, 67.11 18.39 C 67.76 18.51, 68.15 18.53, 68.90 18.55 C 69.66 18.57, 70.09 18.55, 70.89 18.49 C 71.68 18.43, 72.11 18.38, 72.89 18.25 C 73.67 18.13, 74.14 18.03, 74.79 17.87 C 75.44 17.71, 75.73 17.60, 76.16 17.45 C 76.60 17.30, 76.82 17.22, 76.97 17.11 C 77.12 17.00, 77.11 16.93, 76.92 16.90 C 76.74 16.87, 76.50 16.90, 76.05 16.96 C 75.59 17.01, 75.30 17.07, 74.65 17.18 C 73.99 17.29, 73.54 17.41, 72.78 17.52 C 72.02 17.63, 71.60 17.69, 70.83 17.75 C 70.06 17.80, 69.64 17.81, 68.92 17.79 C 68.21 17.77, 67.84 17.74, 67.24 17.64 C 66.64 17.54, 66.37 17.46, 65.93 17.28 C 65.49 17.10, 65.30 16.99, 65.05 16.76 C 64.81 16.53, 64.77 16.38, 64.71 16.12 C 64.65 15.86, 64.67 15.70, 64.75 15.46 C 64.83 15.21, 64.94 15.09, 65.12 14.88 C 65.29 14.67, 65.43 14.56, 65.64 14.42 C 65.85 14.28, 65.97 14.23, 66.18 14.18 C 66.38 14.13, 66.48 14.14, 66.66 14.17 C 66.83 14.20, 66.93 14.24, 67.05 14.32 C 67.16 14.40, 67.22 14.44, 67.24 14.57 C 67.27 14.70, 67.24 14.78, 67.17 14.96 C 67.10 15.14, 67.04 15.27, 66.88 15.48 C 66.71 15.68, 66.60 15.80, 66.34 15.99 C 66.09 16.19, 65.93 16.29, 65.60 16.43 C 65.28 16.58, 65.09 16.63, 64.72 16.72 C 64.34 16.81, 64.11 16.84, 63.72 16.88 C 63.33 16.92, 63.12 16.93, 62.76 16.91 C 62.40 16.88, 62.22 16.85, 61.93 16.77 C 61.63 16.68, 61.49 16.63, 61.26 16.50 C 61.04 16.36, 60.96 16.26, 60.78 16.10 C 60.60 15.94, 60.54 15.85, 60.37 15.70 C 60.19 15.56, 60.13 15.47, 59.93 15.38 C 59.73 15.29, 59.61 15.23, 59.37 15.24 C 59.13 15.25, 59.00 15.32, 58.74 15.43 C 58.49 15.55, 58.37 15.64, 58.08 15.83 C 57.79 16.02, 57.62 16.16, 57.28 16.40 C 56.94 16.64, 56.75 16.80, 56.38 17.03 C 56.02 17.26, 55.83 17.37, 55.46 17.56 C 55.10 17.75, 54.89 17.85, 54.55 17.98 C 54.22 18.11, 54.06 18.17, 53.77 18.21 C 53.48 18.25, 53.36 18.23, 53.12 18.18 C 52.88 18.13, 52.76 18.09, 52.57 17.96 C 52.37 17.83, 52.31 17.74, 52.17 17.55 C 52.03 17.36, 52.00 17.21, 51.87 17.02 C 51.75 16.82, 51.68 16.71, 51.53 16.55 C 51.38 16.40, 51.30 16.30, 51.14 16.25 C 50.98 16.19, 50.88 16.21, 50.72 16.28 C 50.55 16.34, 50.50 16.44, 50.33 16.58 C 50.15 16.72, 50.07 16.80, 49.84 16.97 C 49.61 17.15, 49.44 17.29, 49.17 17.46 C 48.89 17.62, 48.74 17.71, 48.46 17.80 C 48.17 17.89, 48.01 17.91, 47.74 17.91 C 47.46 17.92, 47.33 17.91, 47.09 17.81 C 46.85 17.71, 46.74 17.62, 46.54 17.41 C 46.34 17.21, 46.25 17.07, 46.10 16.78 C 45.95 16.48, 45.91 16.28, 45.79 15.96 C 45.67 15.63, 45.65 15.43, 45.52 15.16 C 45.39 14.88, 45.31 14.74, 45.15 14.58 C 44.98 14.42, 44.89 14.35, 44.69 14.35 C 44.48 14.36, 44.36 14.42, 44.10 14.62 C 43.84 14.82, 43.70 15.04, 43.39 15.36 C 43.07 15.67, 42.91 15.87, 42.54 16.21 C 42.17 16.54, 41.94 16.74, 41.54 17.03 C 41.14 17.32, 40.93 17.47, 40.53 17.66 C 40.13 17.85, 39.93 17.93, 39.54 17.99 C 39.14 18.06, 38.95 18.06, 38.57 18.00 C 38.20 17.93, 38.00 17.86, 37.66 17.65 C 37.32 17.45, 37.16 17.32, 36.89 16.97 C 36.62 16.62, 36.51 16.40, 36.31 15.91 C 36.11 15.41, 36.03 15.10, 35.90 14.50 C 35.76 13.89, 35.72 13.54, 35.65 12.88 C 35.57 12.21, 35.55 11.85, 35.51 11.18 C 35.47 10.51, 35.48 10.15, 35.45 9.53 C 35.43 8.92, 35.42 8.61, 35.39 8.10 C 35.35 7.59, 35.34 7.34, 35.27 6.98 C 35.20 6.62, 35.13 6.51, 35.05 6.31 C 34.96 6.11, 34.93 6.04, 34.84 5.98 C 34.74 5.92, 34.65 5.94, 34.58 6.02"/>
<path d="M 93.66,15.10 C 93.69 15.00, 93.68 14.91, 93.60 14.78 C 93.51 14.64, 93.44 14.54, 93.25 14.42 C 93.06 14.29, 92.93 14.21, 92.66 14.15 C 92.38 14.08, 92.21 14.06, 91.88 14.08 C 91.54 14.10, 91.34 14.13, 90.97 14.26 C 90.59 14.39, 90.36 14.49, 89.98 14.73 C 89.61 14.97, 89.40 15.14, 89.10 15.46 C 88.80 15.78, 88.64 15.98, 88.48 16.33 C 88.33 16.68, 88.29 16.89, 88.33 17.21 C 88.38 17.53, 88.46 17.69, 88.71 17.93 C 88.95 18.16, 89.13 18.27, 89.55 18.37 C 89.97 18.48, 90.26 18.50, 90.80 18.45 C 91.34 18.41, 91.67 18.33, 92.25 18.15 C 92.84 17.97, 93.17 17.84, 93.74 17.57 C 94.30 17.30, 94.62 17.13, 95.07 16.80 C 95.52 16.48, 95.72 16.29, 95.99 15.95 C 96.27 15.60, 96.39 15.41, 96.46 15.08 C 96.53 14.75, 96.50 14.57, 96.34 14.32 C 96.19 14.06, 96.01 13.94, 95.69 13.80 C 95.36 13.67, 95.12 13.63, 94.73 13.63 C 94.34 13.63, 94.08 13.71, 93.73 13.81 C 93.38 13.92, 93.20 14.01, 92.97 14.15 C 92.74 14.29, 92.66 14.39, 92.57 14.52 C 92.48 14.65, 92.49 14.71, 92.50 14.78 C 92.50 14.85, 92.54 14.86, 92.60 14.87 C 92.66 14.88, 92.66 14.86, 92.78 14.84 C 92.91 14.81, 93.00 14.81, 93.23 14.76 C 93.45 14.71, 93.62 14.65, 93.93 14.58 C 94.23 14.52, 94.46 14.46, 94.77 14.43 C 95.09 14.40, 95.26 14.40, 95.50 14.43 C 95.74 14.46, 95.87 14.48, 95.97 14.58 C 96.07 14.68, 96.08 14.75, 95.99 14.94 C 95.91 15.13, 95.80 15.28, 95.54 15.54 C 95.27 15.79, 95.10 15.95, 94.68 16.22 C 94.25 16.49, 93.95 16.64, 93.42 16.87 C 92.89 17.11, 92.57 17.24, 92.03 17.39 C 91.49 17.55, 91.19 17.60, 90.72 17.66 C 90.25 17.72, 90.01 17.71, 89.67 17.68 C 89.34 17.65, 89.21 17.62, 89.05 17.51 C 88.88 17.41, 88.84 17.34, 88.84 17.17 C 88.84 16.99, 88.90 16.87, 89.06 16.64 C 89.22 16.40, 89.37 16.24, 89.63 15.99 C 89.90 15.74, 90.08 15.59, 90.40 15.39 C 90.72 15.19, 90.92 15.09, 91.23 14.97 C 91.53 14.86, 91.68 14.82, 91.93 14.80 C 92.18 14.78, 92.28 14.81, 92.46 14.87 C 92.65 14.92, 92.70 15.00, 92.84 15.08 C 92.99 15.15, 93.05 15.21, 93.18 15.25 C 93.30 15.29, 93.36 15.32, 93.46 15.29 C 93.56 15.27, 93.64 15.21, 93.66 15.10"/>
<path d="M 103.91,11.33 C 103.98 11.21, 104.01 11.04, 103.99 10.78 C 103.98 10.51, 103.96 10.34, 103.85 10.01 C 103.73 9.67, 103.64 9.43, 103.42 9.11 C 103.19 8.80, 103.03 8.65, 102.72 8.43 C 102.41 8.21, 102.24 8.11, 101.88 7.99 C 101.52 7.88, 101.30 7.81, 100.92 7.85 C 100.55 7.88, 100.33 7.94, 99.98 8.16 C 99.64 8.39, 99.45 8.56, 99.18 8.98 C 98.91 9.40, 98.77 9.67, 98.61 10.26 C 98.45 10.85, 98.42 11.22, 98.39 11.93 C 98.35 12.64, 98.37 13.03, 98.45 13.81 C 98.53 14.60, 98.60 15.03, 98.78 15.85 C 98.96 16.68, 99.10 17.14, 99.34 17.94 C 99.57 18.75, 99.71 19.15, 99.95 19.87 C 100.19 20.60, 100.31 20.97, 100.53 21.57 C 100.74 22.17, 100.85 22.46, 101.02 22.87 C 101.20 23.29, 101.28 23.42, 101.40 23.65 C 101.52 23.87, 101.55 23.94, 101.62 24.01 C 101.70 24.07, 101.75 24.06, 101.78 23.96 C 101.80 23.87, 101.81 23.78, 101.77 23.53 C 101.73 23.27, 101.71 23.11, 101.58 22.67 C 101.46 22.24, 101.35 21.96, 101.15 21.36 C 100.96 20.75, 100.84 20.38, 100.62 19.66 C 100.39 18.94, 100.26 18.53, 100.04 17.74 C 99.81 16.95, 99.67 16.50, 99.50 15.70 C 99.33 14.90, 99.26 14.49, 99.19 13.74 C 99.11 12.99, 99.11 12.62, 99.14 11.96 C 99.17 11.30, 99.21 10.97, 99.34 10.45 C 99.47 9.92, 99.57 9.69, 99.77 9.34 C 99.97 8.99, 100.10 8.86, 100.34 8.69 C 100.58 8.52, 100.71 8.49, 100.97 8.48 C 101.23 8.46, 101.39 8.52, 101.66 8.62 C 101.92 8.72, 102.07 8.79, 102.30 8.98 C 102.52 9.16, 102.61 9.28, 102.77 9.55 C 102.93 9.81, 102.98 10.02, 103.10 10.29 C 103.22 10.57, 103.27 10.71, 103.37 10.93 C 103.47 11.14, 103.51 11.29, 103.61 11.37 C 103.72 11.45, 103.83 11.45, 103.91 11.33"/>
<path d="M 97.28,18.27 C 97.41 18.33, 97.52 18.33, 97.87 18.33 C 98.23 18.32, 98.48 18.30, 99.05 18.25 C 99.63 18.20, 100.03 18.15, 100.75 18.07 C 101.47 17.99, 101.88 17.92, 102.64 17.86 C 103.40 17.79, 103.82 17.76, 104.56 17.72 C 105.30 17.69, 105.71 17.70, 106.34 17.68 C 106.97 17.66, 107.27 17.65, 107.72 17.62 C 108.17 17.58, 108.42 17.56, 108.60 17.50 C 108.78 17.43, 108.78 17.35, 108.61 17.27 C 108.43 17.19, 108.19 17.16, 107.73 17.10 C 107.28 17.04, 106.98 17.01, 106.34 16.99 C 105.70 16.97, 105.29 16.97, 104.53 16.99 C 103.78 17.01, 103.36 17.04, 102.58 17.09 C 101.81 17.13, 101.39 17.16, 100.67 17.23 C 99.94 17.29, 99.52 17.32, 98.94 17.42 C 98.36 17.53, 98.11 17.62, 97.77 17.74 C 97.43 17.86, 97.33 17.92, 97.23 18.02 C 97.14 18.13, 97.15 18.21, 97.28 18.27"/>
<path d="M 123.89,14.53 C 123.83 14.65, 123.85 14.79, 123.87 15.03 C 123.88 15.27, 123.90 15.42, 123.97 15.74 C 124.04 16.06, 124.10 16.28, 124.21 16.62 C 124.32 16.97, 124.37 17.15, 124.52 17.46 C 124.67 17.77, 124.78 17.97, 124.98 18.17 C 125.18 18.36, 125.34 18.41, 125.53 18.43 C 125.71 18.45, 125.84 18.35, 125.91 18.28 C 125.98 18.21, 125.93 18.12, 125.87 18.07 C 125.82 18.02, 125.72 18.10, 125.64 18.04 C 125.56 17.98, 125.55 17.96, 125.46 17.79 C 125.37 17.61, 125.30 17.45, 125.21 17.17 C 125.11 16.89, 125.08 16.72, 124.99 16.39 C 124.90 16.06, 124.86 15.83, 124.76 15.52 C 124.66 15.22, 124.59 15.06, 124.48 14.85 C 124.36 14.63, 124.28 14.50, 124.17 14.44 C 124.05 14.38, 123.95 14.41, 123.89 14.53"/>
<path d="M 122.86,9.27 C 122.78 9.32, 122.77 9.36, 122.76 9.45 C 122.75 9.54, 122.74 9.67, 122.80 9.72 C 122.87 9.77, 122.97 9.78, 123.08 9.70 C 123.20 9.63, 123.31 9.45, 123.37 9.33 C 123.43 9.21, 123.40 9.14, 123.39 9.12 C 123.37 9.09, 123.34 9.18, 123.30 9.20 C 123.25 9.22, 123.25 9.20, 123.17 9.21 C 123.08 9.23, 122.94 9.22, 122.86 9.27"/>
<path d="M 127.26,14.84 C 127.19 14.91, 127.19 14.99, 127.16 15.14 C 127.13 15.29, 127.11 15.37, 127.11 15.60 C 127.10 15.83, 127.09 16.01, 127.12 16.28 C 127.14 16.56, 127.17 16.72, 127.24 16.98 C 127.31 17.23, 127.35 17.37, 127.48 17.56 C 127.62 17.75, 127.72 17.85, 127.93 17.91 C 128.15 17.98, 128.29 17.98, 128.56 17.91 C 128.82 17.83, 128.95 17.72, 129.24 17.53 C 129.53 17.34, 129.69 17.21, 130.02 16.97 C 130.35 16.73, 130.54 16.56, 130.89 16.33 C 131.25 16.10, 131.44 15.97, 131.78 15.81 C 132.12 15.65, 132.30 15.60, 132.59 15.53 C 132.88 15.46, 133.01 15.43, 133.22 15.46 C 133.43 15.50, 133.48 15.56, 133.62 15.72 C 133.77 15.87, 133.82 16.01, 133.93 16.24 C 134.04 16.48, 134.06 16.62, 134.18 16.90 C 134.29 17.18, 134.34 17.37, 134.48 17.65 C 134.63 17.94, 134.72 18.11, 134.90 18.32 C 135.09 18.54, 135.23 18.63, 135.42 18.73 C 135.61 18.83, 135.76 18.85, 135.88 18.83 C 135.99 18.81, 136.03 18.72, 136.00 18.62 C 135.98 18.51, 135.86 18.45, 135.75 18.31 C 135.64 18.17, 135.57 18.11, 135.45 17.91 C 135.33 17.72, 135.26 17.59, 135.14 17.33 C 135.02 17.07, 134.97 16.90, 134.85 16.62 C 134.73 16.33, 134.69 16.18, 134.52 15.92 C 134.36 15.65, 134.27 15.48, 134.03 15.28 C 133.79 15.08, 133.65 15.00, 133.34 14.92 C 133.03 14.85, 132.85 14.86, 132.48 14.90 C 132.11 14.95, 131.90 15.00, 131.50 15.15 C 131.10 15.31, 130.88 15.44, 130.48 15.67 C 130.09 15.90, 129.88 16.06, 129.53 16.30 C 129.19 16.54, 129.03 16.68, 128.77 16.88 C 128.52 17.09, 128.42 17.20, 128.28 17.32 C 128.13 17.44, 128.10 17.48, 128.04 17.48 C 127.98 17.48, 127.99 17.45, 127.98 17.33 C 127.97 17.20, 127.99 17.09, 127.99 16.87 C 127.99 16.65, 128.00 16.48, 127.99 16.22 C 127.98 15.95, 127.97 15.77, 127.93 15.53 C 127.88 15.30, 127.83 15.20, 127.76 15.05 C 127.68 14.90, 127.64 14.83, 127.54 14.79 C 127.44 14.75, 127.34 14.77, 127.26 14.84"/>
<path d="M 139.56,7.62 C 139.50 7.73, 139.51 7.84, 139.53 8.10 C 139.54 8.36, 139.57 8.52, 139.63 8.92 C 139.68 9.32, 139.75 9.57, 139.81 10.09 C 139.87 10.61, 139.88 10.93, 139.92 11.53 C 139.96 12.12, 139.98 12.44, 140.01 13.05 C 140.05 13.67, 140.05 14.00, 140.08 14.58 C 140.12 15.16, 140.13 15.44, 140.20 15.94 C 140.27 16.43, 140.29 16.67, 140.42 17.05 C 140.55 17.42, 140.63 17.61, 140.84 17.83 C 141.06 18.06, 141.20 18.12, 141.47 18.17 C 141.75 18.21, 141.91 18.18, 142.23 18.07 C 142.54 17.95, 142.70 17.84, 143.05 17.58 C 143.41 17.33, 143.58 17.14, 143.98 16.79 C 144.39 16.44, 144.64 16.22, 145.07 15.83 C 145.50 15.45, 145.72 15.24, 146.13 14.87 C 146.55 14.50, 146.77 14.32, 147.12 14.00 C 147.48 13.67, 147.66 13.51, 147.92 13.24 C 148.18 12.97, 148.35 12.81, 148.42 12.65 C 148.48 12.49, 148.43 12.42, 148.26 12.46 C 148.09 12.49, 147.89 12.61, 147.57 12.81 C 147.25 13.02, 147.06 13.17, 146.68 13.47 C 146.30 13.77, 146.09 13.96, 145.66 14.32 C 145.23 14.67, 145.00 14.87, 144.55 15.24 C 144.11 15.61, 143.84 15.82, 143.45 16.17 C 143.05 16.52, 142.87 16.72, 142.57 16.99 C 142.27 17.25, 142.16 17.36, 141.95 17.51 C 141.74 17.65, 141.67 17.70, 141.52 17.70 C 141.38 17.70, 141.33 17.68, 141.23 17.52 C 141.12 17.36, 141.07 17.21, 141.00 16.88 C 140.92 16.55, 140.90 16.33, 140.86 15.86 C 140.82 15.40, 140.81 15.11, 140.79 14.55 C 140.77 13.98, 140.77 13.64, 140.75 13.02 C 140.74 12.41, 140.72 12.09, 140.70 11.49 C 140.68 10.88, 140.69 10.54, 140.64 10.00 C 140.58 9.46, 140.51 9.18, 140.41 8.76 C 140.30 8.35, 140.22 8.19, 140.10 7.95 C 139.99 7.71, 139.92 7.61, 139.81 7.55 C 139.70 7.48, 139.61 7.51, 139.56 7.62"/>
<path d="M 143.14,15.96 C 143.15 16.06, 143.18 16.11, 143.31 16.29 C 143.45 16.46, 143.53 16.60, 143.82 16.84 C 144.11 17.07, 144.34 17.22, 144.77 17.46 C 145.19 17.70, 145.45 17.82, 145.93 18.05 C 146.41 18.28, 146.66 18.39, 147.16 18.59 C 147.67 18.79, 147.95 18.89, 148.44 19.05 C 148.94 19.21, 149.18 19.29, 149.66 19.39 C 150.14 19.50, 150.41 19.55, 150.84 19.58 C 151.26 19.61, 151.47 19.60, 151.77 19.56 C 152.06 19.52, 152.21 19.46, 152.32 19.38 C 152.43 19.30, 152.41 19.23, 152.31 19.16 C 152.20 19.10, 152.06 19.10, 151.78 19.05 C 151.50 18.99, 151.31 18.97, 150.92 18.90 C 150.52 18.84, 150.26 18.83, 149.81 18.72 C 149.36 18.62, 149.14 18.55, 148.66 18.39 C 148.19 18.23, 147.92 18.13, 147.44 17.92 C 146.96 17.72, 146.73 17.60, 146.28 17.36 C 145.83 17.12, 145.60 16.96, 145.20 16.72 C 144.80 16.48, 144.60 16.34, 144.29 16.16 C 143.98 15.98, 143.87 15.91, 143.67 15.83 C 143.47 15.75, 143.40 15.73, 143.29 15.75 C 143.19 15.78, 143.14 15.85, 143.14 15.96"/>
<path d="M 156.93,20.21 C 156.84 20.27, 156.84 20.32, 156.76 20.50 C 156.69 20.68, 156.65 20.80, 156.55 21.11 C 156.46 21.42, 156.44 21.62, 156.29 22.05 C 156.15 22.47, 156.03 22.74, 155.84 23.23 C 155.64 23.72, 155.48 24.04, 155.30 24.51 C 155.11 24.98, 155.01 25.22, 154.90 25.58 C 154.79 25.94, 154.74 26.15, 154.75 26.32 C 154.76 26.49, 154.83 26.52, 154.96 26.41 C 155.09 26.31, 155.20 26.13, 155.41 25.82 C 155.62 25.50, 155.76 25.29, 156.00 24.84 C 156.24 24.39, 156.39 24.06, 156.61 23.55 C 156.83 23.05, 156.95 22.77, 157.09 22.31 C 157.24 21.86, 157.28 21.62, 157.33 21.28 C 157.38 20.93, 157.37 20.78, 157.34 20.56 C 157.31 20.35, 157.26 20.29, 157.18 20.22 C 157.10 20.15, 157.01 20.16, 156.93 20.21"/>
<path d="M 172.23,8.28 C 172.18 8.41, 172.22 8.57, 172.25 8.86 C 172.27 9.16, 172.29 9.34, 172.35 9.76 C 172.41 10.18, 172.48 10.44, 172.54 10.97 C 172.59 11.49, 172.61 11.79, 172.64 12.38 C 172.68 12.98, 172.67 13.31, 172.70 13.94 C 172.73 14.56, 172.74 14.89, 172.80 15.50 C 172.86 16.10, 172.91 16.43, 173.00 16.96 C 173.10 17.50, 173.16 17.76, 173.27 18.18 C 173.38 18.59, 173.44 18.78, 173.55 19.03 C 173.65 19.28, 173.73 19.32, 173.81 19.42 C 173.89 19.52, 173.91 19.51, 173.96 19.52 C 174.00 19.54, 174.02 19.53, 174.05 19.49 C 174.08 19.45, 174.09 19.44, 174.09 19.32 C 174.10 19.20, 174.11 19.14, 174.07 18.88 C 174.03 18.62, 173.98 18.44, 173.90 18.04 C 173.82 17.63, 173.76 17.37, 173.68 16.85 C 173.61 16.33, 173.56 16.02, 173.51 15.43 C 173.46 14.84, 173.45 14.52, 173.43 13.91 C 173.41 13.29, 173.43 12.96, 173.41 12.35 C 173.39 11.75, 173.39 11.43, 173.33 10.88 C 173.28 10.34, 173.22 10.05, 173.12 9.62 C 173.02 9.18, 172.97 8.99, 172.84 8.71 C 172.72 8.42, 172.63 8.28, 172.50 8.19 C 172.38 8.11, 172.28 8.15, 172.23 8.28"/>
<path d="M 169.14,15.90 C 169.22 15.96, 169.24 15.96, 169.42 15.97 C 169.60 15.98, 169.72 15.97, 170.05 15.93 C 170.39 15.90, 170.60 15.86, 171.08 15.81 C 171.57 15.75, 171.90 15.73, 172.50 15.66 C 173.10 15.60, 173.45 15.56, 174.09 15.48 C 174.72 15.40, 175.06 15.35, 175.66 15.24 C 176.27 15.13, 176.58 15.07, 177.13 14.91 C 177.67 14.76, 177.95 14.68, 178.40 14.49 C 178.86 14.29, 179.06 14.18, 179.39 13.95 C 179.72 13.72, 179.87 13.57, 180.06 13.35 C 180.25 13.12, 180.32 12.97, 180.34 12.83 C 180.35 12.69, 180.26 12.61, 180.15 12.64 C 180.05 12.68, 179.91 12.76, 179.82 13.03 C 179.72 13.29, 179.68 13.54, 179.69 13.96 C 179.69 14.37, 179.74 14.64, 179.83 15.09 C 179.93 15.54, 179.97 15.79, 180.16 16.22 C 180.35 16.64, 180.48 16.88, 180.77 17.22 C 181.05 17.57, 181.22 17.71, 181.58 17.95 C 181.94 18.18, 182.15 18.28, 182.57 18.40 C 182.99 18.53, 183.22 18.57, 183.67 18.59 C 184.12 18.60, 184.36 18.55, 184.81 18.46 C 185.26 18.37, 185.50 18.28, 185.93 18.12 C 186.36 17.96, 186.58 17.86, 186.96 17.67 C 187.33 17.48, 187.53 17.33, 187.80 17.17 C 188.08 17.01, 188.17 16.92, 188.33 16.87 C 188.49 16.83, 188.51 16.85, 188.60 16.94 C 188.69 17.03, 188.69 17.13, 188.77 17.34 C 188.85 17.54, 188.87 17.70, 189.02 17.96 C 189.17 18.22, 189.28 18.40, 189.53 18.64 C 189.78 18.87, 189.95 18.99, 190.29 19.14 C 190.63 19.29, 190.83 19.33, 191.24 19.37 C 191.64 19.41, 191.87 19.42, 192.31 19.35 C 192.75 19.27, 192.99 19.19, 193.44 19.01 C 193.88 18.83, 194.12 18.70, 194.52 18.44 C 194.92 18.19, 195.14 18.01, 195.43 17.75 C 195.72 17.49, 195.84 17.30, 195.97 17.14 C 196.11 16.98, 196.10 16.95, 196.10 16.95 C 196.10 16.96, 196.02 17.00, 195.99 17.17 C 195.96 17.35, 195.91 17.56, 195.94 17.82 C 195.96 18.09, 196.00 18.26, 196.12 18.50 C 196.24 18.73, 196.39 18.86, 196.54 18.98 C 196.70 19.10, 196.79 19.10, 196.89 19.10 C 196.99 19.10, 197.01 19.04, 197.03 18.96 C 197.05 18.87, 197.01 18.83, 196.98 18.68 C 196.95 18.54, 196.93 18.43, 196.90 18.22 C 196.87 18.02, 196.89 17.90, 196.82 17.66 C 196.75 17.42, 196.69 17.22, 196.56 17.03 C 196.44 16.84, 196.37 16.78, 196.19 16.71 C 196.02 16.65, 195.93 16.62, 195.68 16.71 C 195.44 16.80, 195.29 16.95, 194.98 17.17 C 194.66 17.39, 194.48 17.58, 194.12 17.81 C 193.75 18.04, 193.54 18.16, 193.15 18.33 C 192.76 18.49, 192.55 18.57, 192.18 18.64 C 191.81 18.71, 191.63 18.70, 191.30 18.68 C 190.98 18.65, 190.82 18.62, 190.57 18.51 C 190.31 18.40, 190.22 18.31, 190.04 18.12 C 189.86 17.93, 189.81 17.79, 189.67 17.57 C 189.53 17.34, 189.49 17.20, 189.33 17.00 C 189.18 16.80, 189.09 16.68, 188.88 16.55 C 188.67 16.43, 188.55 16.37, 188.27 16.38 C 188.00 16.38, 187.84 16.45, 187.52 16.58 C 187.19 16.71, 187.01 16.85, 186.64 17.03 C 186.27 17.20, 186.08 17.30, 185.68 17.45 C 185.28 17.60, 185.06 17.68, 184.66 17.77 C 184.26 17.86, 184.06 17.90, 183.68 17.90 C 183.30 17.90, 183.11 17.86, 182.76 17.76 C 182.41 17.66, 182.22 17.59, 181.93 17.40 C 181.64 17.21, 181.51 17.10, 181.29 16.81 C 181.07 16.52, 180.96 16.32, 180.83 15.95 C 180.70 15.58, 180.68 15.37, 180.64 14.97 C 180.60 14.57, 180.66 14.31, 180.64 13.93 C 180.62 13.55, 180.61 13.33, 180.55 13.08 C 180.49 12.82, 180.46 12.75, 180.36 12.65 C 180.26 12.56, 180.20 12.54, 180.06 12.59 C 179.91 12.64, 179.83 12.74, 179.62 12.91 C 179.42 13.08, 179.33 13.24, 179.04 13.44 C 178.75 13.63, 178.58 13.72, 178.16 13.89 C 177.74 14.05, 177.48 14.13, 176.95 14.26 C 176.43 14.39, 176.13 14.45, 175.54 14.54 C 174.95 14.64, 174.62 14.66, 174.00 14.72 C 173.38 14.78, 173.02 14.80, 172.42 14.84 C 171.82 14.89, 171.49 14.90, 170.99 14.96 C 170.48 15.02, 170.25 15.05, 169.90 15.14 C 169.56 15.24, 169.43 15.33, 169.27 15.43 C 169.10 15.54, 169.09 15.59, 169.07 15.69 C 169.04 15.78, 169.07 15.84, 169.14 15.90"/>
<path d="M 194.35,11.69 C 194.26 11.73, 194.25 11.80, 194.28 11.82 C 194.31 11.84, 194.42 11.84, 194.50 11.80 C 194.58 11.77, 194.59 11.69, 194.66 11.64 C 194.73 11.60, 194.82 11.59, 194.84 11.59 C 194.86 11.58, 194.84 11.59, 194.75 11.61 C 194.65 11.63, 194.45 11.65, 194.35 11.69"/>
<path d="M 198.95,16.22 C 198.91 16.31, 198.93 16.35, 198.94 16.48 C 198.95 16.60, 198.98 16.66, 199.03 16.84 C 199.07 17.01, 199.10 17.13, 199.17 17.36 C 199.23 17.59, 199.28 17.74, 199.37 17.99 C 199.46 18.23, 199.48 18.38, 199.61 18.59 C 199.74 18.79, 199.82 18.91, 200.02 19.02 C 200.21 19.13, 200.33 19.17, 200.58 19.15 C 200.82 19.13, 200.96 19.07, 201.24 18.92 C 201.53 18.77, 201.68 18.64, 202.00 18.41 C 202.31 18.17, 202.49 17.99, 202.82 17.73 C 203.16 17.47, 203.34 17.31, 203.66 17.12 C 203.98 16.92, 204.15 16.85, 204.43 16.76 C 204.71 16.67, 204.85 16.64, 205.06 16.66 C 205.27 16.68, 205.32 16.71, 205.46 16.85 C 205.59 16.98, 205.62 17.09, 205.74 17.32 C 205.85 17.55, 205.90 17.71, 206.04 18.00 C 206.19 18.28, 206.27 18.45, 206.45 18.73 C 206.63 19.01, 206.72 19.16, 206.96 19.38 C 207.20 19.61, 207.33 19.72, 207.64 19.86 C 207.95 19.99, 208.14 20.06, 208.51 20.06 C 208.89 20.06, 209.10 20.01, 209.53 19.87 C 209.96 19.73, 210.22 19.62, 210.68 19.34 C 211.13 19.06, 211.38 18.88, 211.82 18.47 C 212.25 18.07, 212.48 17.82, 212.86 17.33 C 213.24 16.84, 213.43 16.57, 213.72 16.03 C 214.00 15.50, 214.13 15.19, 214.28 14.66 C 214.44 14.13, 214.47 13.85, 214.49 13.38 C 214.51 12.91, 214.49 12.68, 214.38 12.31 C 214.27 11.93, 214.17 11.72, 213.95 11.51 C 213.73 11.30, 213.55 11.26, 213.27 11.27 C 212.99 11.29, 212.82 11.38, 212.56 11.58 C 212.30 11.78, 212.15 11.92, 211.97 12.27 C 211.80 12.62, 211.74 12.88, 211.69 13.34 C 211.64 13.79, 211.65 14.07, 211.73 14.55 C 211.82 15.03, 211.91 15.29, 212.12 15.76 C 212.34 16.22, 212.51 16.46, 212.82 16.86 C 213.13 17.25, 213.31 17.43, 213.69 17.73 C 214.06 18.03, 214.27 18.16, 214.70 18.35 C 215.13 18.55, 215.37 18.63, 215.83 18.71 C 216.28 18.80, 216.53 18.80, 216.98 18.77 C 217.43 18.75, 217.67 18.71, 218.09 18.60 C 218.51 18.49, 218.73 18.40, 219.07 18.23 C 219.42 18.06, 219.58 17.94, 219.82 17.75 C 220.07 17.56, 220.19 17.45, 220.31 17.27 C 220.42 17.09, 220.44 16.97, 220.40 16.87 C 220.36 16.76, 220.24 16.71, 220.10 16.75 C 219.96 16.78, 219.82 16.85, 219.70 17.03 C 219.58 17.21, 219.51 17.38, 219.50 17.64 C 219.48 17.91, 219.51 18.10, 219.61 18.37 C 219.71 18.64, 219.79 18.77, 219.99 18.99 C 220.19 19.22, 220.32 19.34, 220.63 19.50 C 220.94 19.66, 221.13 19.73, 221.54 19.78 C 221.95 19.83, 222.20 19.82, 222.67 19.77 C 223.13 19.72, 223.40 19.66, 223.88 19.53 C 224.36 19.40, 224.61 19.29, 225.07 19.11 C 225.54 18.93, 225.78 18.84, 226.20 18.63 C 226.61 18.43, 226.82 18.29, 227.15 18.08 C 227.48 17.87, 227.64 17.74, 227.84 17.58 C 228.03 17.43, 228.09 17.34, 228.14 17.30 C 228.18 17.26, 228.10 17.26, 228.05 17.38 C 228.00 17.51, 227.90 17.65, 227.89 17.91 C 227.88 18.16, 227.88 18.39, 228.00 18.66 C 228.12 18.93, 228.24 19.12, 228.48 19.26 C 228.73 19.40, 228.94 19.40, 229.21 19.36 C 229.49 19.33, 229.67 19.25, 229.86 19.09 C 230.06 18.92, 230.18 18.69, 230.20 18.52 C 230.22 18.36, 230.10 18.27, 229.95 18.27 C 229.80 18.26, 229.63 18.41, 229.45 18.51 C 229.28 18.60, 229.21 18.70, 229.07 18.76 C 228.94 18.82, 228.85 18.87, 228.79 18.81 C 228.74 18.74, 228.81 18.63, 228.80 18.43 C 228.79 18.24, 228.79 18.05, 228.73 17.82 C 228.67 17.59, 228.62 17.44, 228.50 17.28 C 228.38 17.11, 228.33 17.03, 228.14 16.98 C 227.95 16.94, 227.81 16.96, 227.55 17.06 C 227.28 17.17, 227.13 17.31, 226.80 17.50 C 226.47 17.69, 226.29 17.82, 225.90 18.01 C 225.50 18.19, 225.26 18.27, 224.82 18.43 C 224.38 18.59, 224.13 18.68, 223.68 18.80 C 223.23 18.92, 222.99 18.96, 222.58 19.01 C 222.17 19.06, 221.95 19.07, 221.62 19.05 C 221.29 19.02, 221.15 18.98, 220.93 18.88 C 220.70 18.78, 220.61 18.69, 220.48 18.55 C 220.35 18.41, 220.30 18.34, 220.28 18.18 C 220.26 18.02, 220.33 17.92, 220.37 17.75 C 220.40 17.58, 220.45 17.49, 220.46 17.34 C 220.47 17.18, 220.48 17.08, 220.43 16.96 C 220.39 16.84, 220.35 16.76, 220.24 16.74 C 220.14 16.72, 220.06 16.76, 219.90 16.86 C 219.74 16.95, 219.66 17.07, 219.44 17.23 C 219.22 17.38, 219.09 17.48, 218.78 17.62 C 218.48 17.76, 218.29 17.84, 217.92 17.93 C 217.55 18.03, 217.34 18.07, 216.94 18.09 C 216.55 18.11, 216.34 18.12, 215.94 18.05 C 215.55 17.98, 215.35 17.92, 214.98 17.75 C 214.61 17.58, 214.43 17.47, 214.11 17.21 C 213.79 16.94, 213.64 16.78, 213.37 16.43 C 213.11 16.08, 212.96 15.85, 212.78 15.45 C 212.60 15.05, 212.52 14.83, 212.46 14.43 C 212.39 14.02, 212.41 13.79, 212.45 13.42 C 212.49 13.05, 212.54 12.85, 212.65 12.58 C 212.76 12.31, 212.86 12.22, 213.00 12.05 C 213.13 11.89, 213.22 11.78, 213.34 11.74 C 213.46 11.69, 213.49 11.69, 213.58 11.84 C 213.67 11.98, 213.73 12.15, 213.79 12.45 C 213.84 12.76, 213.89 12.95, 213.86 13.35 C 213.83 13.75, 213.79 13.99, 213.63 14.46 C 213.48 14.93, 213.36 15.21, 213.09 15.69 C 212.82 16.17, 212.64 16.43, 212.28 16.87 C 211.93 17.32, 211.71 17.55, 211.31 17.92 C 210.91 18.28, 210.68 18.44, 210.28 18.70 C 209.87 18.95, 209.64 19.04, 209.29 19.19 C 208.93 19.33, 208.77 19.39, 208.50 19.41 C 208.22 19.43, 208.10 19.39, 207.89 19.29 C 207.68 19.20, 207.59 19.12, 207.43 18.93 C 207.26 18.74, 207.21 18.61, 207.07 18.35 C 206.93 18.09, 206.87 17.92, 206.72 17.64 C 206.56 17.36, 206.49 17.21, 206.31 16.96 C 206.13 16.72, 206.04 16.58, 205.81 16.42 C 205.58 16.25, 205.45 16.17, 205.14 16.11 C 204.83 16.06, 204.64 16.06, 204.28 16.14 C 203.91 16.21, 203.70 16.29, 203.32 16.48 C 202.93 16.66, 202.71 16.82, 202.35 17.08 C 201.98 17.33, 201.79 17.50, 201.48 17.74 C 201.18 17.99, 201.04 18.11, 200.83 18.29 C 200.62 18.47, 200.55 18.56, 200.44 18.63 C 200.34 18.70, 200.34 18.70, 200.30 18.64 C 200.25 18.58, 200.26 18.50, 200.23 18.33 C 200.20 18.15, 200.18 18.01, 200.14 17.77 C 200.09 17.53, 200.06 17.37, 199.99 17.12 C 199.92 16.87, 199.88 16.72, 199.78 16.53 C 199.67 16.33, 199.58 16.24, 199.45 16.15 C 199.33 16.05, 199.26 16.04, 199.16 16.06 C 199.06 16.07, 199.00 16.14, 198.95 16.22"/>
<path d="M 227.48,11.03 C 227.43 10.93, 227.40 10.89, 227.35 10.91 C 227.29 10.93, 227.22 11.04, 227.20 11.13 C 227.17 11.21, 227.16 11.30, 227.22 11.34 C 227.28 11.38, 227.44 11.31, 227.50 11.32 C 227.56 11.33, 227.51 11.34, 227.51 11.39 C 227.51 11.44, 227.49 11.58, 227.51 11.58 C 227.52 11.58, 227.59 11.51, 227.59 11.40 C 227.58 11.29, 227.53 11.13, 227.48 11.03"/>
<path d="M 232.68,16.02 C 232.61 16.11, 232.64 16.18, 232.64 16.33 C 232.63 16.48, 232.63 16.56, 232.65 16.76 C 232.67 16.96, 232.68 17.11, 232.74 17.34 C 232.80 17.57, 232.84 17.72, 232.95 17.92 C 233.07 18.12, 233.14 18.22, 233.31 18.35 C 233.48 18.48, 233.58 18.54, 233.82 18.56 C 234.06 18.57, 234.21 18.55, 234.52 18.44 C 234.84 18.32, 235.02 18.19, 235.38 17.98 C 235.74 17.77, 235.94 17.62, 236.32 17.38 C 236.71 17.14, 236.92 17.00, 237.30 16.80 C 237.69 16.60, 237.89 16.49, 238.25 16.39 C 238.61 16.28, 238.79 16.26, 239.09 16.27 C 239.39 16.27, 239.52 16.30, 239.75 16.41 C 239.98 16.53, 240.05 16.63, 240.23 16.84 C 240.42 17.05, 240.50 17.21, 240.67 17.48 C 240.84 17.75, 240.90 17.91, 241.08 18.20 C 241.27 18.50, 241.35 18.69, 241.58 18.94 C 241.82 19.20, 241.97 19.34, 242.25 19.49 C 242.53 19.64, 242.81 19.71, 242.98 19.70 C 243.16 19.68, 243.20 19.57, 243.13 19.42 C 243.06 19.27, 242.82 19.15, 242.61 18.97 C 242.41 18.78, 242.29 18.72, 242.10 18.50 C 241.92 18.27, 241.86 18.11, 241.69 17.83 C 241.52 17.55, 241.46 17.38, 241.26 17.09 C 241.06 16.80, 240.95 16.63, 240.70 16.39 C 240.45 16.15, 240.32 16.03, 240.00 15.89 C 239.69 15.74, 239.51 15.69, 239.13 15.65 C 238.74 15.62, 238.51 15.63, 238.08 15.73 C 237.65 15.83, 237.42 15.94, 236.98 16.13 C 236.55 16.33, 236.33 16.47, 235.92 16.69 C 235.52 16.91, 235.29 17.04, 234.95 17.25 C 234.60 17.46, 234.42 17.59, 234.18 17.75 C 233.95 17.91, 233.88 17.98, 233.77 18.03 C 233.66 18.08, 233.68 18.08, 233.65 18.01 C 233.62 17.94, 233.64 17.85, 233.63 17.68 C 233.61 17.51, 233.60 17.37, 233.56 17.16 C 233.52 16.94, 233.49 16.79, 233.43 16.59 C 233.36 16.39, 233.33 16.28, 233.23 16.14 C 233.14 16.01, 233.06 15.92, 232.95 15.90 C 232.84 15.87, 232.74 15.93, 232.68 16.02"/>
<path d="M 249.55,17.45 C 249.55 17.32, 249.49 17.21, 249.37 17.03 C 249.24 16.86, 249.15 16.74, 248.91 16.58 C 248.67 16.41, 248.50 16.32, 248.16 16.22 C 247.82 16.13, 247.62 16.10, 247.22 16.11 C 246.82 16.12, 246.58 16.16, 246.18 16.27 C 245.78 16.38, 245.55 16.45, 245.23 16.64 C 244.90 16.82, 244.72 16.94, 244.54 17.19 C 244.37 17.43, 244.32 17.61, 244.36 17.86 C 244.40 18.10, 244.49 18.24, 244.74 18.41 C 244.99 18.59, 245.19 18.65, 245.61 18.73 C 246.04 18.81, 246.34 18.81, 246.86 18.80 C 247.38 18.79, 247.69 18.74, 248.22 18.69 C 248.75 18.64, 249.04 18.60, 249.52 18.55 C 250.00 18.50, 250.25 18.45, 250.63 18.43 C 251.02 18.40, 251.18 18.40, 251.44 18.41 C 251.70 18.43, 251.79 18.42, 251.91 18.51 C 252.03 18.59, 252.02 18.62, 252.04 18.83 C 252.06 19.04, 252.02 19.19, 252.01 19.55 C 252.00 19.90, 252.00 20.15, 252.00 20.60 C 252.00 21.06, 252.00 21.31, 252.01 21.82 C 252.01 22.32, 252.01 22.61, 252.02 23.12 C 252.04 23.63, 252.07 23.90, 252.08 24.37 C 252.10 24.83, 252.11 25.05, 252.09 25.43 C 252.07 25.81, 252.05 25.98, 251.99 26.26 C 251.92 26.54, 251.89 26.66, 251.75 26.83 C 251.62 27.00, 251.54 27.06, 251.32 27.12 C 251.10 27.18, 250.97 27.17, 250.66 27.15 C 250.36 27.12, 250.16 27.08, 249.79 27.01 C 249.43 26.93, 249.21 26.88, 248.83 26.76 C 248.46 26.64, 248.24 26.56, 247.92 26.40 C 247.61 26.25, 247.47 26.17, 247.27 25.99 C 247.06 25.81, 246.98 25.70, 246.90 25.51 C 246.82 25.32, 246.78 25.23, 246.87 25.04 C 246.95 24.84, 247.04 24.74, 247.31 24.52 C 247.57 24.29, 247.76 24.15, 248.19 23.90 C 248.63 23.65, 248.88 23.52, 249.48 23.28 C 250.07 23.04, 250.43 22.91, 251.16 22.69 C 251.88 22.47, 252.32 22.37, 253.11 22.19 C 253.90 22.01, 254.34 21.94, 255.10 21.79 C 255.87 21.65, 256.30 21.60, 256.92 21.47 C 257.55 21.34, 257.83 21.28, 258.24 21.15 C 258.65 21.02, 258.83 20.93, 258.97 20.83 C 259.11 20.72, 259.09 20.66, 258.92 20.63 C 258.76 20.60, 258.57 20.64, 258.14 20.68 C 257.72 20.71, 257.45 20.72, 256.81 20.80 C 256.18 20.88, 255.75 20.94, 254.97 21.07 C 254.20 21.20, 253.75 21.27, 252.94 21.45 C 252.13 21.62, 251.69 21.72, 250.93 21.95 C 250.18 22.17, 249.81 22.31, 249.18 22.57 C 248.56 22.83, 248.28 22.96, 247.80 23.25 C 247.33 23.54, 247.12 23.70, 246.82 24.02 C 246.53 24.35, 246.42 24.53, 246.33 24.86 C 246.24 25.20, 246.27 25.38, 246.37 25.70 C 246.47 26.01, 246.58 26.17, 246.83 26.43 C 247.07 26.70, 247.23 26.81, 247.59 27.02 C 247.94 27.23, 248.17 27.34, 248.59 27.49 C 249.00 27.63, 249.24 27.68, 249.65 27.75 C 250.06 27.83, 250.28 27.86, 250.66 27.85 C 251.03 27.83, 251.22 27.81, 251.53 27.68 C 251.84 27.55, 251.98 27.43, 252.19 27.18 C 252.39 26.93, 252.45 26.77, 252.56 26.43 C 252.67 26.09, 252.69 25.90, 252.73 25.48 C 252.78 25.07, 252.78 24.84, 252.78 24.36 C 252.79 23.89, 252.76 23.62, 252.76 23.11 C 252.76 22.60, 252.76 22.32, 252.77 21.82 C 252.78 21.32, 252.81 21.07, 252.81 20.60 C 252.81 20.14, 252.82 19.89, 252.77 19.51 C 252.73 19.12, 252.70 18.95, 252.58 18.68 C 252.47 18.40, 252.40 18.31, 252.19 18.14 C 251.97 17.98, 251.84 17.93, 251.53 17.86 C 251.21 17.78, 251.03 17.78, 250.61 17.77 C 250.20 17.77, 249.95 17.81, 249.46 17.83 C 248.97 17.86, 248.69 17.88, 248.16 17.91 C 247.64 17.93, 247.34 17.95, 246.85 17.95 C 246.36 17.96, 246.08 17.94, 245.70 17.93 C 245.32 17.92, 245.16 17.93, 244.97 17.90 C 244.78 17.88, 244.75 17.87, 244.75 17.80 C 244.74 17.74, 244.80 17.68, 244.96 17.58 C 245.12 17.48, 245.26 17.40, 245.54 17.29 C 245.83 17.18, 246.03 17.10, 246.37 17.02 C 246.71 16.93, 246.93 16.88, 247.25 16.86 C 247.56 16.85, 247.71 16.88, 247.96 16.95 C 248.22 17.01, 248.32 17.10, 248.52 17.21 C 248.71 17.32, 248.77 17.41, 248.94 17.50 C 249.10 17.59, 249.21 17.67, 249.33 17.66 C 249.45 17.65, 249.54 17.58, 249.55 17.45"/>
<path d="M 282.52,16.73 C 282.53 16.60, 282.50 16.47, 282.38 16.28 C 282.25 16.08, 282.16 15.95, 281.91 15.77 C 281.66 15.58, 281.47 15.46, 281.11 15.35 C 280.76 15.23, 280.56 15.20, 280.13 15.19 C 279.71 15.17, 279.46 15.18, 278.98 15.26 C 278.50 15.35, 278.22 15.43, 277.73 15.62 C 277.25 15.81, 276.97 15.95, 276.55 16.23 C 276.13 16.50, 275.91 16.68, 275.63 17.00 C 275.35 17.32, 275.24 17.50, 275.15 17.82 C 275.05 18.14, 275.04 18.32, 275.15 18.61 C 275.26 18.89, 275.39 19.06, 275.69 19.24 C 276.00 19.42, 276.23 19.47, 276.66 19.50 C 277.09 19.53, 277.34 19.50, 277.84 19.39 C 278.34 19.29, 278.63 19.20, 279.15 18.98 C 279.67 18.75, 279.96 18.58, 280.43 18.28 C 280.90 17.97, 281.16 17.76, 281.50 17.44 C 281.85 17.13, 282.00 16.92, 282.15 16.69 C 282.30 16.45, 282.29 16.33, 282.27 16.27 C 282.24 16.21, 282.13 16.25, 282.02 16.39 C 281.91 16.52, 281.77 16.67, 281.71 16.95 C 281.65 17.23, 281.65 17.47, 281.73 17.81 C 281.82 18.15, 281.92 18.35, 282.14 18.65 C 282.36 18.94, 282.51 19.08, 282.84 19.29 C 283.17 19.49, 283.37 19.57, 283.81 19.67 C 284.25 19.77, 284.52 19.79, 285.05 19.77 C 285.58 19.75, 285.89 19.70, 286.48 19.56 C 287.06 19.42, 287.38 19.30, 287.98 19.07 C 288.57 18.85, 288.90 18.70, 289.45 18.42 C 290.00 18.14, 290.27 17.97, 290.73 17.67 C 291.18 17.37, 291.39 17.20, 291.72 16.93 C 292.04 16.67, 292.19 16.56, 292.36 16.37 C 292.53 16.17, 292.56 16.08, 292.58 15.96 C 292.59 15.84, 292.53 15.78, 292.43 15.77 C 292.34 15.76, 292.19 15.79, 292.09 15.92 C 291.99 16.05, 291.94 16.19, 291.94 16.43 C 291.95 16.66, 292.00 16.81, 292.12 17.08 C 292.24 17.36, 292.34 17.51, 292.53 17.79 C 292.73 18.06, 292.88 18.20, 293.10 18.45 C 293.32 18.71, 293.45 18.84, 293.63 19.06 C 293.82 19.28, 293.93 19.39, 294.03 19.56 C 294.14 19.73, 294.19 19.79, 294.16 19.91 C 294.13 20.03, 294.08 20.07, 293.89 20.16 C 293.70 20.24, 293.56 20.27, 293.22 20.34 C 292.88 20.41, 292.64 20.44, 292.18 20.48 C 291.73 20.53, 291.43 20.54, 290.95 20.55 C 290.46 20.56, 290.19 20.55, 289.76 20.53 C 289.32 20.52, 289.09 20.50, 288.78 20.48 C 288.46 20.45, 288.36 20.42, 288.19 20.40 C 288.02 20.39, 288.00 20.37, 287.92 20.39 C 287.85 20.40, 287.82 20.46, 287.82 20.50 C 287.81 20.54, 287.88 20.62, 287.90 20.59 C 287.91 20.57, 287.93 20.39, 287.90 20.36 C 287.88 20.33, 287.79 20.38, 287.76 20.44 C 287.74 20.50, 287.73 20.56, 287.79 20.65 C 287.84 20.73, 287.86 20.78, 288.04 20.87 C 288.22 20.96, 288.34 21.03, 288.68 21.11 C 289.01 21.18, 289.25 21.21, 289.71 21.26 C 290.16 21.31, 290.44 21.32, 290.95 21.33 C 291.46 21.34, 291.77 21.36, 292.26 21.30 C 292.75 21.25, 293.02 21.21, 293.42 21.08 C 293.81 20.95, 293.99 20.86, 294.23 20.65 C 294.47 20.45, 294.57 20.30, 294.64 20.04 C 294.71 19.77, 294.68 19.60, 294.59 19.32 C 294.50 19.04, 294.39 18.91, 294.21 18.63 C 294.03 18.36, 293.91 18.22, 293.70 17.96 C 293.50 17.69, 293.36 17.56, 293.19 17.32 C 293.02 17.08, 292.93 16.96, 292.85 16.76 C 292.76 16.57, 292.79 16.48, 292.76 16.34 C 292.73 16.20, 292.74 16.16, 292.69 16.06 C 292.65 15.96, 292.61 15.90, 292.55 15.84 C 292.48 15.78, 292.46 15.74, 292.35 15.77 C 292.24 15.79, 292.21 15.83, 292.01 15.96 C 291.80 16.09, 291.67 16.20, 291.34 16.42 C 291.01 16.65, 290.80 16.82, 290.36 17.09 C 289.92 17.36, 289.65 17.52, 289.12 17.77 C 288.59 18.03, 288.27 18.16, 287.71 18.37 C 287.15 18.58, 286.84 18.70, 286.30 18.83 C 285.76 18.96, 285.48 19.00, 285.01 19.03 C 284.54 19.06, 284.31 19.04, 283.94 18.98 C 283.58 18.92, 283.43 18.87, 283.18 18.72 C 282.94 18.58, 282.85 18.47, 282.72 18.26 C 282.59 18.04, 282.58 17.88, 282.54 17.64 C 282.50 17.39, 282.53 17.26, 282.52 17.02 C 282.51 16.79, 282.54 16.65, 282.48 16.47 C 282.42 16.29, 282.38 16.16, 282.23 16.13 C 282.09 16.10, 282.00 16.15, 281.76 16.30 C 281.52 16.45, 281.39 16.63, 281.04 16.89 C 280.69 17.16, 280.46 17.36, 280.02 17.63 C 279.58 17.91, 279.32 18.06, 278.85 18.26 C 278.38 18.46, 278.11 18.54, 277.67 18.64 C 277.24 18.74, 277.02 18.75, 276.68 18.76 C 276.34 18.77, 276.17 18.76, 275.95 18.69 C 275.74 18.62, 275.66 18.56, 275.59 18.43 C 275.53 18.29, 275.54 18.20, 275.64 18.01 C 275.74 17.82, 275.84 17.69, 276.10 17.46 C 276.36 17.23, 276.56 17.08, 276.94 16.85 C 277.32 16.62, 277.58 16.50, 278.01 16.33 C 278.45 16.16, 278.70 16.08, 279.12 16.00 C 279.53 15.91, 279.76 15.90, 280.11 15.91 C 280.46 15.92, 280.60 15.96, 280.87 16.06 C 281.14 16.16, 281.26 16.27, 281.47 16.40 C 281.68 16.53, 281.76 16.61, 281.92 16.71 C 282.09 16.81, 282.16 16.90, 282.28 16.91 C 282.40 16.91, 282.50 16.86, 282.52 16.73"/>
<path d="M 308.73,16.43 C 308.62 16.50, 308.55 16.62, 308.47 16.85 C 308.39 17.07, 308.37 17.24, 308.34 17.56 C 308.31 17.87, 308.29 18.09, 308.31 18.43 C 308.34 18.78, 308.37 18.98, 308.46 19.27 C 308.56 19.57, 308.65 19.72, 308.77 19.91 C 308.89 20.10, 308.94 20.14, 309.05 20.22 C 309.15 20.30, 309.23 20.32, 309.30 20.31 C 309.37 20.30, 309.40 20.24, 309.41 20.18 C 309.42 20.13, 309.38 20.12, 309.36 20.01 C 309.35 19.91, 309.38 19.86, 309.34 19.67 C 309.30 19.49, 309.22 19.35, 309.17 19.10 C 309.13 18.84, 309.12 18.70, 309.12 18.40 C 309.12 18.10, 309.17 17.89, 309.17 17.59 C 309.16 17.30, 309.14 17.14, 309.11 16.91 C 309.08 16.69, 309.08 16.58, 309.01 16.48 C 308.93 16.38, 308.84 16.36, 308.73 16.43"/>
<path d="M 308.03,10.32 C 308.13 10.29, 308.17 10.26, 308.17 10.23 C 308.17 10.19, 308.12 10.16, 308.03 10.13 C 307.93 10.09, 307.80 10.04, 307.70 10.06 C 307.59 10.08, 307.50 10.16, 307.50 10.23 C 307.50 10.29, 307.59 10.38, 307.69 10.40 C 307.80 10.41, 307.94 10.36, 308.03 10.32"/>
<path d="M 314.71,9.36 C 314.63 9.45, 314.63 9.55, 314.60 9.79 C 314.58 10.02, 314.58 10.15, 314.58 10.54 C 314.57 10.92, 314.59 11.18, 314.59 11.70 C 314.60 12.23, 314.60 12.55, 314.62 13.15 C 314.64 13.76, 314.66 14.09, 314.70 14.74 C 314.74 15.39, 314.77 15.75, 314.84 16.40 C 314.91 17.04, 314.94 17.38, 315.05 17.97 C 315.17 18.56, 315.24 18.85, 315.40 19.35 C 315.56 19.84, 315.68 20.09, 315.86 20.44 C 316.03 20.78, 316.12 20.91, 316.28 21.08 C 316.44 21.24, 316.55 21.25, 316.66 21.28 C 316.76 21.31, 316.78 21.25, 316.81 21.22 C 316.84 21.19, 316.82 21.17, 316.81 21.15 C 316.81 21.12, 316.83 21.15, 316.80 21.08 C 316.78 21.02, 316.77 20.98, 316.69 20.80 C 316.61 20.62, 316.55 20.51, 316.42 20.18 C 316.29 19.85, 316.18 19.61, 316.04 19.15 C 315.90 18.68, 315.83 18.42, 315.73 17.85 C 315.63 17.29, 315.62 16.95, 315.56 16.32 C 315.50 15.69, 315.47 15.33, 315.44 14.69 C 315.41 14.06, 315.40 13.74, 315.40 13.14 C 315.40 12.54, 315.44 12.22, 315.43 11.69 C 315.42 11.16, 315.41 10.88, 315.36 10.49 C 315.31 10.10, 315.26 9.96, 315.18 9.73 C 315.11 9.49, 315.07 9.40, 314.97 9.32 C 314.88 9.25, 314.78 9.26, 314.71 9.36"/>
<path d="M 312.69,17.28 C 312.81 17.34, 312.91 17.33, 313.21 17.33 C 313.50 17.33, 313.69 17.31, 314.16 17.28 C 314.62 17.25, 314.92 17.21, 315.52 17.18 C 316.12 17.15, 316.46 17.15, 317.14 17.15 C 317.82 17.14, 318.20 17.15, 318.92 17.17 C 319.63 17.19, 320.03 17.24, 320.71 17.26 C 321.39 17.29, 321.78 17.30, 322.32 17.31 C 322.85 17.32, 323.06 17.33, 323.39 17.31 C 323.72 17.29, 323.85 17.26, 323.97 17.20 C 324.09 17.15, 324.09 17.10, 323.98 17.03 C 323.87 16.96, 323.76 16.95, 323.43 16.87 C 323.11 16.79, 322.90 16.70, 322.36 16.64 C 321.83 16.57, 321.43 16.57, 320.75 16.53 C 320.06 16.48, 319.66 16.46, 318.94 16.43 C 318.22 16.40, 317.84 16.39, 317.15 16.37 C 316.46 16.36, 316.10 16.33, 315.49 16.35 C 314.87 16.37, 314.54 16.40, 314.06 16.48 C 313.58 16.56, 313.38 16.63, 313.09 16.74 C 312.81 16.85, 312.71 16.92, 312.63 17.03 C 312.55 17.14, 312.57 17.22, 312.69 17.28"/>
<path d="M 343.78,17.99 C 343.79 17.87, 343.76 17.73, 343.64 17.55 C 343.51 17.37, 343.40 17.25, 343.15 17.08 C 342.90 16.90, 342.73 16.80, 342.38 16.68 C 342.03 16.57, 341.82 16.53, 341.41 16.50 C 340.99 16.46, 340.75 16.47, 340.31 16.51 C 339.86 16.55, 339.61 16.58, 339.18 16.72 C 338.76 16.85, 338.51 16.95, 338.19 17.17 C 337.87 17.39, 337.72 17.55, 337.58 17.80 C 337.45 18.06, 337.44 18.22, 337.53 18.44 C 337.62 18.65, 337.73 18.77, 338.03 18.89 C 338.33 19.01, 338.57 19.04, 339.02 19.02 C 339.46 19.01, 339.74 18.93, 340.26 18.82 C 340.77 18.70, 341.06 18.60, 341.59 18.46 C 342.12 18.31, 342.42 18.22, 342.88 18.11 C 343.35 17.99, 343.58 17.90, 343.92 17.87 C 344.27 17.83, 344.37 17.85, 344.59 17.93 C 344.81 18.02, 344.87 18.08, 345.01 18.29 C 345.15 18.50, 345.19 18.64, 345.30 18.98 C 345.41 19.31, 345.46 19.54, 345.56 19.97 C 345.66 20.39, 345.73 20.64, 345.80 21.11 C 345.88 21.58, 345.91 21.84, 345.95 22.32 C 345.98 22.81, 346.00 23.08, 345.99 23.54 C 345.97 24.00, 345.96 24.23, 345.88 24.63 C 345.79 25.02, 345.72 25.19, 345.55 25.51 C 345.39 25.82, 345.28 25.96, 345.04 26.19 C 344.81 26.43, 344.69 26.54, 344.39 26.69 C 344.10 26.83, 343.93 26.87, 343.58 26.93 C 343.23 26.99, 343.02 27.00, 342.65 26.99 C 342.27 26.98, 342.06 26.96, 341.71 26.87 C 341.35 26.77, 341.16 26.68, 340.87 26.49 C 340.58 26.31, 340.43 26.20, 340.25 25.95 C 340.07 25.71, 340.01 25.57, 339.99 25.27 C 339.97 24.96, 340.00 24.79, 340.15 24.43 C 340.31 24.07, 340.42 23.87, 340.76 23.46 C 341.09 23.06, 341.41 22.82, 341.84 22.41 C 342.27 22.00, 342.52 21.77, 342.89 21.41 C 343.26 21.06, 343.55 20.84, 343.68 20.64 C 343.81 20.44, 343.76 20.36, 343.52 20.41 C 343.29 20.46, 342.94 20.61, 342.49 20.89 C 342.04 21.17, 341.75 21.39, 341.28 21.81 C 340.82 22.23, 340.50 22.51, 340.15 22.99 C 339.79 23.46, 339.68 23.73, 339.53 24.20 C 339.37 24.66, 339.34 24.90, 339.38 25.32 C 339.42 25.74, 339.51 25.95, 339.73 26.30 C 339.95 26.65, 340.14 26.81, 340.50 27.06 C 340.85 27.31, 341.09 27.41, 341.51 27.54 C 341.94 27.67, 342.18 27.68, 342.62 27.70 C 343.06 27.71, 343.30 27.69, 343.71 27.61 C 344.12 27.52, 344.34 27.46, 344.69 27.26 C 345.05 27.07, 345.22 26.93, 345.50 26.64 C 345.78 26.35, 345.90 26.18, 346.11 25.81 C 346.31 25.44, 346.40 25.23, 346.52 24.78 C 346.63 24.34, 346.66 24.07, 346.69 23.57 C 346.72 23.07, 346.70 22.79, 346.67 22.28 C 346.64 21.76, 346.62 21.49, 346.54 20.99 C 346.47 20.50, 346.42 20.24, 346.31 19.78 C 346.19 19.32, 346.13 19.08, 345.96 18.71 C 345.79 18.34, 345.68 18.18, 345.45 17.93 C 345.21 17.68, 345.09 17.60, 344.79 17.46 C 344.48 17.33, 344.32 17.27, 343.91 17.26 C 343.50 17.25, 343.24 17.31, 342.73 17.39 C 342.23 17.48, 341.93 17.57, 341.40 17.70 C 340.87 17.82, 340.58 17.90, 340.08 18.00 C 339.59 18.10, 339.33 18.14, 338.95 18.20 C 338.56 18.26, 338.37 18.28, 338.14 18.30 C 337.92 18.31, 337.87 18.33, 337.84 18.29 C 337.81 18.26, 337.86 18.22, 338.00 18.12 C 338.14 18.02, 338.26 17.91, 338.54 17.77 C 338.82 17.63, 339.03 17.53, 339.40 17.43 C 339.76 17.33, 339.99 17.29, 340.38 17.26 C 340.77 17.22, 340.99 17.22, 341.34 17.25 C 341.69 17.28, 341.85 17.32, 342.13 17.41 C 342.41 17.51, 342.53 17.61, 342.74 17.73 C 342.96 17.85, 343.04 17.92, 343.21 18.01 C 343.37 18.09, 343.44 18.17, 343.55 18.17 C 343.66 18.17, 343.76 18.11, 343.78 17.99"/>
<path d="M 352.33,16.65 C 352.33 16.55, 352.31 16.46, 352.18 16.36 C 352.05 16.26, 351.94 16.19, 351.69 16.14 C 351.44 16.10, 351.26 16.08, 350.93 16.13 C 350.61 16.17, 350.42 16.24, 350.06 16.37 C 349.71 16.50, 349.50 16.59, 349.16 16.78 C 348.81 16.98, 348.60 17.09, 348.33 17.35 C 348.07 17.61, 347.94 17.79, 347.83 18.09 C 347.72 18.38, 347.71 18.56, 347.79 18.83 C 347.86 19.11, 347.96 19.25, 348.20 19.46 C 348.45 19.66, 348.64 19.76, 349.03 19.86 C 349.41 19.95, 349.67 19.97, 350.14 19.94 C 350.61 19.91, 350.89 19.85, 351.38 19.71 C 351.88 19.58, 352.15 19.47, 352.61 19.25 C 353.07 19.02, 353.32 18.88, 353.70 18.59 C 354.07 18.29, 354.26 18.10, 354.49 17.77 C 354.72 17.44, 354.81 17.25, 354.86 16.93 C 354.90 16.61, 354.87 16.44, 354.73 16.17 C 354.59 15.90, 354.46 15.75, 354.17 15.58 C 353.88 15.41, 353.66 15.36, 353.29 15.32 C 352.93 15.29, 352.70 15.30, 352.35 15.40 C 352.00 15.51, 351.79 15.61, 351.54 15.83 C 351.29 16.05, 351.17 16.21, 351.09 16.52 C 351.02 16.83, 351.01 17.06, 351.17 17.39 C 351.33 17.71, 351.49 17.89, 351.89 18.16 C 352.29 18.42, 352.57 18.54, 353.16 18.71 C 353.75 18.89, 354.12 18.96, 354.84 19.04 C 355.56 19.12, 356.00 19.10, 356.77 19.11 C 357.54 19.11, 357.95 19.11, 358.69 19.06 C 359.44 19.01, 359.82 18.96, 360.49 18.84 C 361.16 18.73, 361.50 18.65, 362.04 18.47 C 362.59 18.30, 362.83 18.18, 363.20 17.96 C 363.57 17.74, 363.71 17.63, 363.89 17.37 C 364.07 17.12, 364.12 16.97, 364.10 16.71 C 364.08 16.45, 364.00 16.27, 363.78 16.05 C 363.57 15.84, 363.38 15.73, 363.02 15.63 C 362.65 15.53, 362.39 15.53, 361.94 15.56 C 361.49 15.59, 361.22 15.63, 360.77 15.78 C 360.31 15.93, 360.06 16.05, 359.67 16.31 C 359.29 16.57, 359.10 16.74, 358.86 17.08 C 358.61 17.42, 358.51 17.62, 358.46 18.00 C 358.40 18.38, 358.42 18.62, 358.59 19.01 C 358.76 19.39, 358.91 19.59, 359.29 19.91 C 359.67 20.23, 359.92 20.39, 360.48 20.62 C 361.05 20.85, 361.41 20.96, 362.12 21.07 C 362.83 21.19, 363.25 21.18, 364.03 21.18 C 364.81 21.18, 365.24 21.16, 366.03 21.09 C 366.82 21.01, 367.24 20.95, 367.97 20.79 C 368.71 20.64, 369.08 20.52, 369.70 20.31 C 370.32 20.10, 370.62 20.01, 371.08 19.74 C 371.53 19.48, 371.84 19.19, 371.99 18.99 C 372.15 18.80, 372.08 18.72, 371.85 18.76 C 371.62 18.81, 371.30 19.05, 370.83 19.24 C 370.36 19.42, 370.10 19.51, 369.50 19.68 C 368.90 19.85, 368.54 19.97, 367.83 20.10 C 367.12 20.24, 366.72 20.29, 365.96 20.36 C 365.20 20.42, 364.78 20.43, 364.03 20.43 C 363.29 20.42, 362.89 20.42, 362.24 20.32 C 361.58 20.22, 361.26 20.11, 360.76 19.92 C 360.25 19.74, 360.04 19.61, 359.72 19.37 C 359.40 19.13, 359.28 19.00, 359.14 18.74 C 359.00 18.49, 358.98 18.34, 359.02 18.09 C 359.07 17.83, 359.15 17.71, 359.36 17.47 C 359.56 17.24, 359.73 17.11, 360.06 16.91 C 360.38 16.72, 360.61 16.63, 360.99 16.51 C 361.38 16.40, 361.63 16.38, 362.00 16.35 C 362.38 16.32, 362.59 16.33, 362.87 16.36 C 363.16 16.39, 363.27 16.43, 363.43 16.51 C 363.59 16.59, 363.65 16.64, 363.67 16.75 C 363.69 16.87, 363.67 16.93, 363.52 17.07 C 363.37 17.21, 363.26 17.29, 362.92 17.45 C 362.59 17.61, 362.36 17.71, 361.86 17.85 C 361.35 18.00, 361.02 18.07, 360.38 18.17 C 359.74 18.27, 359.37 18.31, 358.65 18.34 C 357.93 18.38, 357.53 18.36, 356.78 18.34 C 356.04 18.33, 355.61 18.32, 354.93 18.25 C 354.25 18.17, 353.91 18.10, 353.38 17.96 C 352.84 17.82, 352.60 17.71, 352.26 17.54 C 351.92 17.37, 351.81 17.27, 351.68 17.10 C 351.55 16.92, 351.57 16.81, 351.62 16.66 C 351.67 16.51, 351.74 16.44, 351.92 16.34 C 352.10 16.23, 352.27 16.18, 352.53 16.13 C 352.79 16.07, 352.97 16.07, 353.24 16.08 C 353.51 16.08, 353.68 16.09, 353.89 16.16 C 354.10 16.23, 354.19 16.29, 354.28 16.42 C 354.37 16.55, 354.40 16.63, 354.34 16.82 C 354.28 17.01, 354.20 17.14, 353.99 17.38 C 353.77 17.62, 353.61 17.78, 353.28 18.03 C 352.94 18.27, 352.71 18.40, 352.30 18.59 C 351.88 18.78, 351.62 18.86, 351.18 18.98 C 350.74 19.09, 350.49 19.12, 350.09 19.16 C 349.69 19.19, 349.48 19.17, 349.17 19.13 C 348.86 19.09, 348.72 19.04, 348.54 18.96 C 348.36 18.87, 348.30 18.82, 348.27 18.70 C 348.23 18.57, 348.25 18.50, 348.35 18.33 C 348.46 18.17, 348.56 18.06, 348.80 17.89 C 349.03 17.71, 349.22 17.62, 349.52 17.47 C 349.83 17.31, 350.03 17.22, 350.33 17.12 C 350.64 17.01, 350.79 16.97, 351.05 16.94 C 351.30 16.90, 351.43 16.94, 351.62 16.93 C 351.80 16.92, 351.86 16.92, 351.98 16.90 C 352.09 16.89, 352.11 16.92, 352.18 16.87 C 352.26 16.82, 352.34 16.76, 352.33 16.65"/>
<path d="M 375.73,15.56 C 375.67 15.45, 375.58 15.35, 375.35 15.24 C 375.11 15.12, 374.94 15.03, 374.56 14.97 C 374.18 14.90, 373.91 14.89, 373.44 14.91 C 372.96 14.94, 372.68 14.99, 372.19 15.11 C 371.71 15.22, 371.43 15.31, 371.01 15.49 C 370.59 15.67, 370.37 15.77, 370.10 16.01 C 369.83 16.26, 369.72 16.41, 369.67 16.71 C 369.62 17.01, 369.65 17.22, 369.85 17.53 C 370.06 17.85, 370.26 18.01, 370.69 18.28 C 371.13 18.54, 371.45 18.64, 372.03 18.85 C 372.62 19.07, 372.98 19.16, 373.61 19.36 C 374.23 19.56, 374.59 19.67, 375.15 19.84 C 375.71 20.02, 375.99 20.10, 376.39 20.24 C 376.80 20.37, 376.97 20.44, 377.15 20.53 C 377.33 20.62, 377.36 20.63, 377.30 20.68 C 377.23 20.73, 377.12 20.72, 376.83 20.78 C 376.53 20.84, 376.30 20.89, 375.81 20.98 C 375.32 21.07, 374.98 21.14, 374.37 21.23 C 373.76 21.32, 373.38 21.35, 372.76 21.41 C 372.15 21.46, 371.83 21.48, 371.30 21.50 C 370.78 21.51, 370.52 21.50, 370.15 21.46 C 369.78 21.43, 369.67 21.37, 369.47 21.33 C 369.27 21.30, 369.25 21.30, 369.16 21.28 C 369.07 21.26, 369.09 21.22, 369.04 21.22 C 368.99 21.22, 368.94 21.24, 368.93 21.30 C 368.92 21.36, 368.92 21.41, 369.00 21.51 C 369.07 21.61, 369.10 21.67, 369.31 21.78 C 369.52 21.89, 369.66 21.98, 370.06 22.07 C 370.46 22.15, 370.75 22.17, 371.30 22.19 C 371.85 22.22, 372.17 22.20, 372.81 22.18 C 373.45 22.16, 373.84 22.15, 374.48 22.08 C 375.11 22.00, 375.48 21.95, 376.00 21.80 C 376.52 21.66, 376.76 21.56, 377.07 21.37 C 377.39 21.17, 377.51 21.05, 377.58 20.81 C 377.65 20.58, 377.62 20.44, 377.44 20.20 C 377.25 19.97, 377.06 19.86, 376.65 19.65 C 376.24 19.44, 375.95 19.35, 375.39 19.15 C 374.83 18.94, 374.47 18.82, 373.86 18.60 C 373.24 18.39, 372.88 18.27, 372.32 18.07 C 371.76 17.87, 371.46 17.78, 371.05 17.60 C 370.65 17.42, 370.49 17.33, 370.29 17.17 C 370.10 17.00, 370.07 16.92, 370.10 16.79 C 370.13 16.65, 370.21 16.60, 370.44 16.48 C 370.67 16.36, 370.88 16.30, 371.27 16.18 C 371.65 16.06, 371.92 15.97, 372.36 15.88 C 372.81 15.79, 373.07 15.76, 373.49 15.74 C 373.91 15.71, 374.13 15.74, 374.47 15.75 C 374.81 15.77, 374.95 15.81, 375.18 15.82 C 375.41 15.84, 375.52 15.87, 375.63 15.82 C 375.74 15.77, 375.79 15.68, 375.73 15.56"/>
</svg>
